<svg xmlns="http://www.w3.org/2000/svg" width="224" height="80" viewBox="0 0 224 80">
  <g fill="none" fill-rule="evenodd">
    <path fill="#777776" d="M27.0117249 47.7673651C27.7858201 47.4036825 28.5487407 46.3062011 29.8504127 46.1704127 36.6306878 45.4640423 35.8664127 58.7631746 28.7861164 57.7029418 28.1427302 57.6067725 27.7397672 57.3765079 27.0117249 56.815746 26.6578624 57.408 26.2447407 57.941672 25.0602328 57.7029418 25.240381 53.2022857 25.4333968 47.7978413 25.0602328 43.3317249 24.9562751 42.7259259 23.7416296 43.2308148 23.4632804 42.7994074L23.4632804 41.3802328C24.5522963 41.2864339 26.031746 41.5830688 26.8342857 41.2027937 27.2474074 43.0367831 26.8938836 45.6377566 27.0117249 47.7673651M32.5116614 50.7834921C32.3078095 48.7348148 30.8960847 47.2831323 28.9632169 47.9448042 26.7929735 48.687746 26.9009947 52.1291852 27.0117249 55.3965714 30.6556614 57.7134392 32.874328 54.4277672 32.5116614 50.7834921M201.594921 55.5740106C201.678899 56.2590476 202.801101 55.9055238 203.191873 56.2837672L203.191873 57.5255026 199.820529 57.5255026C199.813418 56.9417143 199.521185 56.6423704 199.643429 55.9288889 198.741672 57.0493968 197.478603 58.3002751 195.030349 57.7029418 193.09545 57.2312381 192.002709 54.6502434 192.014132 52.2030053 192.033185 48.021672 195.820698 44.4938836 199.643429 47.0576085 199.609905 45.7308783 199.758222 44.2223069 199.465989 43.1546243 199.130074 42.8397037 198.294011 43.0252698 197.691598 42.9771852L197.691598 41.3802328C198.758265 41.2640847 200.290878 41.6138836 201.062603 41.2027937 201.268825 41.1740106 201.37854 41.2420741 201.417481 41.3802328 201.534307 46.0539259 201.183153 51.1952593 201.594921 55.5740106M194.85291 48.832C193.34637 50.8251429 194.015831 55.5862011 195.740106 56.106328 196.253799 56.261418 197.15454 56.1980952 197.514159 56.106328 200.068063 55.4541376 199.798519 50.7838307 199.465989 48.2996825 197.511788 47.535746 195.892825 47.4561693 194.85291 48.832M115.545397 42.4448677C115.910095 43.5809524 115.260275 44.5737989 114.303323 44.5737989 111.98036 44.5737989 113.125249 40.3955132 115.545397 42.4448677M10.6886772 42.9768466L10.6886772 45.9929735 9.44660317 45.9929735C8.72736508 46.0617143 9.25121693 44.8873651 9.09172487 44.3963598.722285714 41.0439788.0223492063 56.3155979 7.49511111 56.1059894 8.71686772 56.0717884 9.54819048 55.3803175 10.5112381 55.3962328 10.648381 55.8506667 10.6883386 56.4022857 11.0435556 56.6383069 7.91602116 58.8261587 2.87424339 57.5691852 1.28575661 54.864254-2.14078307 49.029418 2.53697354 38.9164021 10.6886772 42.9768466M68.7058624 42.7994074C68.5900529 43.8071534 68.9391746 45.2801693 68.5284233 45.9929735L67.6412275 45.9929735C66.9321481 45.7559365 67.5267725 44.2148571 66.7543704 44.0414815 64.4889735 43.2961693 61.4528677 44.2500741 62.3187302 46.8801693 63.2499471 49.7080212 69.5117884 48.4066878 69.5930582 53.0898624 69.6665397 57.3318095 64.6403386 58.7994074 60.1894603 56.9931852 60.3052698 56.0443598 59.9564868 54.6312804 60.3668995 53.9770582 62.2178201 53.8097778 61.5341376 54.4643386 61.7864127 55.573672 64.8736508 57.3392593 68.7834074 55.2367407 67.1089101 52.2026667 65.9501376 50.1031958 61.3394286 50.5132698 60.3668995 48.1222434 58.4113439 43.3131005 64.4161693 40.7994921 68.7058624 42.7994074M149.610328 42.4448677C150.920804 46.989545 152.629503 51.1353228 154.045968 55.5740106 154.281651 56.0480847 155.232508 55.8069841 155.642582 56.106328L155.642582 57.5258413 150.497524 57.5258413 150.497524 56.2837672C150.645503 55.5222011 151.369481 56.3653757 151.739259 55.7514497 151.835767 54.4132063 151.206265 53.8009735 151.029841 52.7353228L145.707005 52.7353228C145.097143 53.426455 144.781884 54.4121905 144.64237 55.5740106 144.681989 56.1259683 145.525503 55.8736931 146.061884 55.9288889L146.061884 57.5258413 141.093926 57.5258413 141.093926 55.9288889 142.336 55.9288889C144.091429 51.5931429 145.534307 46.9441693 147.126519 42.4448677L149.610328 42.4448677zM146.061884 51.138709C147.482751 51.021545 149.372275 51.3733757 150.497524 50.9612698 149.588317 48.9725291 149.086138 46.5767619 148.190815 44.5737989 147.593481 46.8744127 146.618243 48.7967831 146.061884 51.138709L146.061884 51.138709zM121.222772 46.3478519C121.759831 46.7572487 123.052698 46.4104974 123.884021 46.525291 123.603979 46.8960847 123.761101 47.7033651 123.529143 48.1222434L121.400212 48.1222434C120.986751 50.1925926 121.340614 53.0302646 121.222772 55.3962328 121.312169 56.1987725 123.001566 56.3315132 123.706582 55.9285503 124.052317 56.2333122 124.088889 56.8472381 124.06146 57.5255026 118.022095 59.5714709 119.343407 53.1674074 119.27128 48.2993439 119.082328 47.8967196 118.155852 48.2319577 117.674328 48.1222434L117.674328 46.525291 119.27128 46.525291 119.27128 43.3317249C119.676952 43.0276402 120.52182 43.1630899 120.867894 42.7994074 121.665354 43.3032804 121.008762 45.2608677 121.222772 46.3478519"/>
    <path fill="#777776" d="M45.2862646 52.0255661L38.1893757 52.0255661C37.2510476 56.189291 42.0828783 56.9085291 44.5765079 55.3965714 44.5291005 56.0352169 44.9042963 56.2515979 44.9313862 56.8160847 40.2990053 59.2975238 36.1420529 56.7849312 36.0604444 52.2030053 36.0333545 50.6917249 36.4495238 48.4466455 37.8344974 47.2350476 40.7629206 44.6736931 46.1121693 46.8524021 45.2862646 52.0255661M38.1893757 50.6060529L43.3347725 50.6060529C43.7211429 46.6356825 37.8971429 46.9096296 38.1893757 50.6060529M53.4474497 46.1704127C53.7826878 46.6350053 53.1023915 47.2699259 53.2700106 48.1219048 49.4960423 47.7839577 49.647746 52.298836 50.0764444 55.573672 50.2630265 56.0379259 50.7973757 56.1540741 51.4959577 56.1059894L51.4959577 57.5255026 46.3505608 57.5255026 46.3505608 56.1059894C46.9604233 56.1835344 47.3451005 56.0358942 47.7700741 55.9285503 48.322709 54.0312381 48.3606349 50.0124444 47.7700741 48.1219048 47.5120423 47.847619 46.861545 47.9657989 46.3505608 47.9448042L46.3505608 46.525291C47.7291005 46.6617566 48.562455 46.2533757 49.8990053 46.3478519 49.6535026 47.0132487 49.8031746 47.4162116 49.7215661 48.4767831 50.584381 47.3288466 51.3794709 46.1131852 53.4474497 46.1704127M80.4158307 52.0255661L73.3189418 52.0255661C72.3806138 56.189291 77.2124444 56.9085291 79.7060741 55.3965714 79.6586667 56.0352169 80.0338624 56.2515979 80.0609524 56.8160847 75.3283386 59.3611852 71.1950899 56.656254 71.1900057 52.0255661 71.1883175 50.573545 71.626836 48.4049947 72.9640635 47.2350476 75.8924868 44.6736931 81.2417354 46.8524021 80.4158307 52.0255661M73.3189418 50.6060529L78.4643386 50.6060529C78.6597249 46.570328 73.1862011 46.8503704 73.3189418 50.6060529"/>
    <path fill="#777776" d="M89.6416508 46.8801693L89.6416508 49.1865397 88.5770159 49.1865397C87.9796825 48.9562751 88.2458413 47.8618413 87.5127196 47.7673651 83.0469418 47.0410159 83.055746 54.8148148 85.738328 56.1059894 87.3020952 56.1913228 88.6928254 56.103619 89.2867725 55.2191323 89.6521481 55.5635132 89.6311534 56.2939259 89.9965291 56.6383069 89.2126138 57.2576508 88.5800635 57.5884868 87.8672593 57.7029418 78.5791323 59.1928889 81.0124868 42.2816508 89.6416508 46.8801693M110.754878 46.1704127C110.892021 47.0169735 110.477545 47.312254 110.577439 48.1219048 106.817354 47.8076614 106.956868 52.2866455 107.383873 55.573672 107.570455 56.0379259 108.104804 56.1540741 108.803386 56.1059894L108.803386 57.5255026 103.657989 57.5255026 103.657989 56.1059894C104.267852 56.1835344 104.652529 56.0358942 105.077503 55.9285503 105.645714 54.0156614 105.645714 50.0347937 105.077503 48.1219048 104.819471 47.847619 104.168974 47.9657989 103.657989 47.9448042L103.657989 46.525291C104.979302 46.6637884 105.774053 46.2753862 107.028995 46.3478519 107.226074 47.1236402 107.106878 47.4074074 107.028995 48.4767831 107.934138 47.3715132 108.639492 46.0657778 110.754878 46.1704127M181.546328 55.7514497C181.740021 56.208254 182.692233 55.9065397 182.965841 56.2837672L182.965841 57.5258413 179.771937 57.5258413 179.771937 56.106328C179.035767 56.1452698 178.833608 57.1679153 177.820444 57.5258413 176.299683 58.0628995 173.911365 57.6548571 173.207365 56.4612063 171.273143 53.181291 175.478519 50.2813122 179.417397 50.7834921 180.704508 47.1456508 174.888296 46.8188783 174.626878 49.3643175 173.919153 49.4615026 174.092529 49.4615026 173.384804 49.3643175L173.384804 47.2350476C175.559111 46.0353016 179.703873 45.3367196 181.014011 47.7673651 182.139598 49.8553228 180.762413 52.975746 181.546328 55.7514497M175.514074 56.106328C178.117079 56.746328 179.771259 55.0921481 179.417397 52.2030053 176.258709 51.605672 173.611005 53.8138413 175.514074 56.106328M190.949587 46.1704127C191.284825 46.6350053 190.604529 47.2699259 190.772148 48.1219048 187.012063 47.8076614 187.151577 52.2866455 187.578582 55.573672 187.779725 56.0233651 188.364868 56.088381 188.998095 56.1059894L188.998095 57.5255026 183.852698 57.5255026 183.852698 56.1059894C184.579386 56.1821799 184.98946 55.9417566 185.449651 55.7511111 185.670434 53.6005079 185.908487 49.9972063 185.272212 48.1219048 185.01418 47.847619 184.363683 47.9657989 183.852698 47.9448042L183.852698 46.525291C185.231238 46.6617566 186.064593 46.2533757 187.401143 46.3478519 187.113651 46.848 187.389968 47.693545 187.223704 48.4767831 188.086519 47.3288466 188.881608 46.1131852 190.949587 46.1704127M211.353397 46.7027302C211.364233 47.7646561 211.590772 48.3508148 211.353397 49.0091005 211.041524 49.1113651 210.311111 48.7947513 210.288762 49.1865397 209.624381 49.2007619 210.243725 47.930582 209.579005 47.9448042 207.569608 47.2323386 206.241524 48.3321905 206.385439 49.541418 206.625524 51.5572487 211.186794 51.0371217 211.708275 52.7349841 213.212783 57.3605926 207.917376 58.6172275 204.433947 57.1706243 204.511153 56.3606349 204.254815 55.2171005 204.611386 54.6868148 204.820995 54.8910053 205.238519 54.887619 205.676021 54.864254 206.338709 54.8520635 205.861587 55.9796825 206.385439 56.1059894 207.827302 56.5333333 209.933884 56.2217989 209.933884 54.5093757 209.933884 52.2019894 206.559831 53.1332063 205.143704 51.6706878 204.114286 50.6074074 204.174899 48.7249947 204.966265 47.5899259 206.089481 45.9784127 209.142857 45.8582011 211.353397 46.7027302M94.4321693 46.3478519C95.0339048 49.2786455 93.2019471 55.3058201 95.4968042 56.1059894 97.0314497 56.6413545 98.7513228 55.1429418 99.2226878 53.799619 99.7736296 52.2290794 99.2619683 49.9426878 99.2226878 48.2993439 99.0415238 47.7710899 97.9589418 48.1439153 97.6257354 47.7673651L97.6257354 46.525291C99.0042751 46.6617566 99.8792804 46.2946878 101.17418 46.3478519 101.288635 49.3680423 100.942899 52.8480847 101.351619 55.573672 101.435259 56.2590476 102.557799 55.9051852 102.948571 56.2834286L102.948571 57.5255026 99.5775661 57.5255026C99.5277884 56.9247831 99.2951534 56.506582 99.400127 55.7511111 98.1817566 58.0422434 93.4488042 58.7794286 92.6577778 55.573672 92.1217354 53.4000423 93.186709 50.7878942 92.4806772 48.2993439 92.2995132 47.7710899 91.2165926 48.1439153 90.8837249 47.7673651L90.8837249 46.525291C92.2622646 46.6617566 93.1369312 46.2946878 94.4321693 46.3478519M115.367958 46.3478519C115.467175 49.4422011 115.157672 52.9452698 115.545397 55.7511111 115.94836 56.0579048 116.53655 56.1794709 117.31945 56.1059894L117.31945 57.5255026 111.819513 57.5255026 111.819513 56.4608677C111.895026 55.7677037 113.179429 56.2830899 113.416466 55.7511111 113.677884 53.6946455 113.733418 50.5244444 113.416466 48.4767831 113.417143 47.7074286 112.190307 48.1652487 111.819513 47.7673651L111.819513 46.525291C113.184847 46.6485503 114.125884 46.3478519 115.367958 46.3478519M11.7533122 46.525291L16.5438307 46.525291 16.5438307 47.5899259C16.5556825 48.2526138 15.4284021 47.7754921 15.3017566 48.2996825 15.8042751 50.8129524 16.9813333 52.6520212 17.4306878 55.2191323 18.4973545 53.2104127 19.0537143 50.6910476 19.914836 48.4767831 19.7936085 47.9475132 19.2084656 47.8821587 18.4953228 47.9448042L18.4953228 46.525291C20.1044656 46.6312804 22.1453545 46.3055238 23.4632804 46.7027302 23.3942011 47.0281481 23.181545 47.3034497 23.4632804 47.5899259 23.4598942 48.1781164 22.4606138 47.7700741 22.2212063 48.1222434 21.2933757 49.6677249 20.5849735 51.9060317 19.7373968 54.1544974 18.927746 56.3023915 18.285037 58.7652063 17.4306878 60.3641905 16.8126984 61.5209312 15.5679153 62.3068783 13.8822434 62.4934603 13.2886349 62.3773122 13.573418 61.3831111 13.1728254 61.0739471 13.6082963 60.7404021 14.5598307 60.9232593 14.9468783 60.5416296 15.8902857 60.0066032 16.0203175 58.6582011 16.5438307 57.7029418 15.530328 54.4582434 14.263873 51.4664974 13.1728254 48.2996825 12.7834074 48.0975238 12.4478307 47.8415238 11.7533122 47.9448042M124.593778 46.525291L129.384296 46.525291 129.384296 47.5899259C129.396148 48.2526138 128.268868 47.7754921 128.142222 48.2996825 128.645079 50.8129524 129.821799 52.6520212 130.271153 55.2191323 131.33782 53.2104127 131.89418 50.6910476 132.755302 48.4767831 132.634074 47.9475132 132.048593 47.8821587 131.335788 47.9448042L131.335788 46.525291 136.126307 46.525291C136.547556 46.7142434 135.746032 47.3423915 136.303746 47.5899259 136.30036 48.1781164 135.301079 47.7697354 135.061672 48.1222434 133.710561 50.8867725 132.217228 54.9550053 130.98091 58.2352593 130.098794 60.5754921 129.614222 62.3001058 126.722709 62.4931217 126.129101 62.3773122 126.413884 61.3831111 126.013291 61.0739471 128.210963 60.9652487 128.894307 59.3422222 129.384296 57.5255026 128.303069 54.4077884 127.103323 51.408254 126.013291 48.2996825 125.623873 48.0975238 125.288296 47.8415238 124.593778 47.9448042M154.578286 46.525291L159.368804 46.525291 159.368804 47.5899259C159.513397 48.3257566 158.274709 47.6789841 158.12673 48.1222434 158.388487 50.7584339 159.375577 52.669291 159.723683 55.2191323 160.737524 52.4478307 161.36872 49.2942222 162.384931 46.525291L164.336423 46.525291C165.204656 49.3829418 166.101333 52.2121481 166.820571 55.2191323 167.560127 53.0607407 168.220106 50.8227725 168.594624 48.2996825 168.665058 47.637672 167.486646 48.2248466 167.35255 47.7673651L167.35255 46.525291 172.143069 46.525291 172.143069 47.9448042C171.671704 47.9464974 171.129905 47.8777566 170.900995 48.1222434 169.572571 50.9335026 168.931556 54.4321693 167.884868 57.5255026L165.933376 57.5255026C164.971683 54.7609735 164.126138 51.8806349 163.272127 49.0091005 162.246095 51.709291 161.621672 54.8107513 160.61054 57.5255026L158.659048 57.5255026C157.904593 54.3173757 156.875852 51.383873 155.997799 48.2996825 155.608381 48.0975238 155.272804 47.8415238 154.578286 47.9448042"/>
    <path fill="#E5A62D" d="M201.32673.00643386243L202.01346.00643386243C204.683852.479830688 205.159619 2.89354497 206.818878 4.46848677 210.043259 7.52931217 214.066116 9.56410582 218.832254 10.9903915 220.020148 11.3456085 222.750476 10.866455 222.608593 13.3929312 211.994751 12.4502011 205.662815 7.22658201 201.32673.00643386243M208.878392 1.03585185C212.770201.922074074 216.05418 4.38484656 218.832593 6.528 214.586921 6.99597884 211.390984 3.4448254 208.878392 1.03585185"/>
    <path fill="#E5A62D" d="M223.981376 18.8850794C223.89164 20.8921058 220.49219 19.7783704 219.175619 19.5714709 214.446392 18.8281905 210.354116 16.394836 206.818878 14.0796614 201.999238 10.9233439 197.124741 6.79246561 195.491894 1.37921693 196.158307 1.19128042 196.925968.970497354 197.32927.749714286 197.444402 1.05684656 197.367534.941714286 197.551069 1.37921693 201.444233 9.80486772 210.341249 15.9488677 221.578497 17.8553228 222.130794 17.9487831 223.686095 17.8824127 223.981376 18.8850794M190.782984 4.13798942C198.262857 14.1639788 208.147302 22.3620741 223.294897 24.7199153 223.33054 27.9361693 219.50781 25.9633439 218.488889 25.7500106 206.036317 23.1456508 195.351026 14.3627513 189.656042 5.15521693 190.111153 4.7624127 190.275048 4.31712169 190.782984 4.13798942"/>
    <path fill="#E5A62D" d="M186.224085 9.27424339C188.821333 12.1660952 191.518476 16.0446984 194.805164 18.8850794 201.31928 24.5143704 210.587767 29.5558095 220.892106 30.5554286 220.51454 33.511619 217.745608 32.2519365 216.086349 31.9285503 210.21528 30.7846772 204.822688 27.6967619 200.640339 25.063619 194.406942 21.1386243 188.493545 16.5191111 185.537354 10.6470265 185.791661 10.0415661 185.935577 9.84956614 186.224085 9.27424339M183.821206 14.7660529C184.261757 14.6881693 184.379937 14.8693333 184.507937 15.1090794 190.170074 25.7327407 201.795386 33.7527196 216.773418 35.3608466 214.657354 38.8466455 210.048339 36.5175873 206.818878 35.3608466 199.845587 32.8634921 195.003259 29.7955556 189.656381 24.720254 186.750984 21.9621587 182.773164 19.0984127 183.821206 14.7660529"/>
    <path fill="#E5A62D" d="M183.477841 22.3173757C189.384127 31.0565926 196.965587 38.1202963 210.59454 39.1365079 209.030434 39.9200847 207.175788 40.5709206 205.445757 40.5096296 199.841185 40.3111958 190.044106 33.8857989 185.88072 29.1823069 184.548233 27.6771217 183.408085 25.0632804 183.477841 22.3173757M187.596868 35.0178201C191.610582 36.3814603 194.778074 38.5913228 197.551069 41.1963598 193.559026 41.1821376 189.48673 38.2780952 187.596868 35.0178201"/>
    <path fill="#8A8B8A" fill-rule="nonzero" d="M75.4704167,79.6323439 L77.5493333,70.9435384 L79.536869,79.6323439 L81.1284206,79.6323439 L84.2886786,68.3620265 L82.9865,68.3620265 L80.5039841,77.142213 L78.4936032,68.3620265 L76.9553571,68.3620265 L74.83075,77.2640542 L72.523381,68.3620265 L70.9851349,68.3620265 L73.8864802,79.6323439 L75.4704167,79.6323439 Z M87.0648048,69.8621971 L87.0648048,68.3620265 L85.5646341,68.3620265 L85.5646341,69.8621971 L87.0648048,69.8621971 Z M87.0648048,79.6323439 L87.0648048,71.3623677 L85.5646341,71.3623677 L85.5646341,79.6323439 L87.0648048,79.6323439 Z M91.5729317,79.6323439 L91.5729317,74.2789431 C92.3852069,73.0757606 93.2507876,72.4741693 94.1696738,72.4741693 C94.5859648,72.4741693 94.8842221,72.6048948 95.0644456,72.8663459 C95.2446692,73.127797 95.334781,73.565664 95.334781,74.1799471 L95.334781,74.1799471 L95.334781,79.6323439 L96.8349516,79.6323439 L96.8349516,73.692582 C96.8349516,72.9259974 96.6217294,72.3155218 96.1952849,71.8611554 C95.7688405,71.406789 95.1977095,71.1796058 94.4818921,71.1796058 C93.3345534,71.1796058 92.3649,71.7583519 91.5729317,72.9158439 L91.5729317,72.9158439 L91.5729317,71.3623677 L90.0727611,71.3623677 L90.0727611,79.6323439 L91.5729317,79.6323439 Z M101.251698,79.6323439 L101.251698,74.2789431 C102.063973,73.0757606 102.929553,72.4741693 103.84844,72.4741693 C104.264731,72.4741693 104.562988,72.6048948 104.743212,72.8663459 C104.923435,73.127797 105.013547,73.565664 105.013547,74.1799471 L105.013547,74.1799471 L105.013547,79.6323439 L106.513717,79.6323439 L106.513717,73.692582 C106.513717,72.9259974 106.300495,72.3155218 105.874051,71.8611554 C105.447606,71.406789 104.876475,71.1796058 104.160658,71.1796058 C103.013319,71.1796058 102.043666,71.7583519 101.251698,72.9158439 L101.251698,72.9158439 L101.251698,71.3623677 L99.751527,71.3623677 L99.751527,79.6323439 L101.251698,79.6323439 Z M112.910384,79.8227209 C113.626202,79.8227209 114.486706,79.6704193 115.491896,79.3658161 L115.491896,79.3658161 L115.491896,78.1778638 C114.583163,78.5129272 113.816579,78.680459 113.192142,78.680459 C111.486364,78.680459 110.524326,77.6981138 110.306027,75.7334233 L110.306027,75.7334233 L115.522356,75.7334233 L115.529971,75.2689034 C115.529971,73.9591098 115.257098,72.9488426 114.71135,72.2381019 C114.165603,71.5273611 113.392672,71.1719907 112.392559,71.1719907 C111.336601,71.1719907 110.469751,71.5730516 109.792009,72.3751733 C109.114267,73.177295 108.775396,74.2053307 108.775396,75.4592804 C108.775396,76.7487672 109.159958,77.798379 109.929081,78.6081157 C110.698204,79.4178525 111.691971,79.8227209 112.910384,79.8227209 Z M114.022186,74.6063915 L110.374563,74.6063915 C110.506557,73.0681455 111.148762,72.2990225 112.301178,72.2990225 C113.448516,72.2990225 114.022186,73.0681455 114.022186,74.6063915 L114.022186,74.6063915 Z M119.619269,79.6323439 L119.619269,74.1799471 C120.258936,73.0529153 121.053442,72.4893995 122.002789,72.4893995 C122.200781,72.4893995 122.429233,72.5325516 122.688146,72.6188558 L122.688146,72.6188558 L122.688146,71.2176812 C122.520614,71.1922976 122.360698,71.1796058 122.208396,71.1796058 C121.076288,71.1796058 120.213245,71.7583519 119.619269,72.9158439 L119.619269,72.9158439 L119.619269,71.3623677 L118.119098,71.3623677 L118.119098,79.6323439 L119.619269,79.6323439 Z M135.938384,79.6323439 L135.938384,78.3149352 L131.041888,78.3149352 C131.229727,77.3858955 131.925237,76.4111653 133.12842,75.3907447 L133.12842,75.3907447 L133.707166,74.8957646 C134.585438,74.1494868 135.18576,73.5148968 135.508132,72.9919947 C135.830504,72.4690926 135.99169,71.8700397 135.99169,71.194836 C135.99169,70.2556429 135.671856,69.50175 135.03219,68.9331574 C134.392523,68.3645648 133.544711,68.0802685 132.488753,68.0802685 C131.50387,68.0802685 130.511371,68.316336 129.511257,68.7884709 L129.511257,68.7884709 L129.511257,70.1134947 C130.572292,69.5093651 131.493716,69.2073003 132.275531,69.2073003 C132.935504,69.2073003 133.454599,69.3875238 133.832815,69.7479709 C134.21103,70.108418 134.400138,70.6033981 134.400138,71.2329114 C134.400138,72.217795 133.846776,73.2102937 132.740051,74.2104074 L132.740051,74.2104074 L131.879547,74.9795304 C130.549446,76.182713 129.666097,77.2945146 129.229499,78.3149352 L129.229499,78.3149352 L129.229499,79.6323439 L135.938384,79.6323439 Z M142.685344,79.9141019 C143.89868,79.9141019 144.867065,79.3747004 145.590497,78.2958975 C146.31393,77.2170946 146.675646,75.774037 146.675646,73.9667249 C146.675646,72.2051032 146.31393,70.7836217 145.590497,69.7022804 C144.867065,68.6209392 143.913911,68.0802685 142.731035,68.0802685 C141.548159,68.0802685 140.595005,68.6209392 139.871573,69.7022804 C139.14814,70.7836217 138.786424,72.2127183 138.786424,73.9895701 C138.786424,75.7511918 139.145602,77.1790192 139.863958,78.2730522 C140.582313,79.3670853 141.522776,79.9141019 142.685344,79.9141019 Z M142.700575,78.7870701 C141.157252,78.7870701 140.38559,77.1879034 140.38559,73.9895701 C140.38559,70.8013902 141.167405,69.2073003 142.731035,69.2073003 C144.299741,69.2073003 145.084094,70.7861601 145.084094,73.9438796 C145.084094,77.1726733 144.289588,78.7870701 142.700575,78.7870701 Z M156.019348,79.6323439 L156.019348,78.5053122 L153.765285,78.5053122 L153.765285,68.0802685 L150.003436,69.0169233 L150.003436,70.1744153 L152.257499,69.6108995 L152.257499,78.5053122 L150.003436,78.5053122 L150.003436,79.6323439 L156.019348,79.6323439 Z M161.585971,79.9141019 C163.053143,79.9141019 164.216981,79.3442401 165.077485,78.2045165 C165.937989,77.064793 166.368241,75.5252778 166.368241,73.5859709 C166.368241,71.8801931 166.015409,70.5361316 165.309745,69.5537864 C164.604081,68.5714411 163.639504,68.0802685 162.416015,68.0802685 C161.349904,68.0802685 160.465286,68.4597533 159.76216,69.2187229 C159.059034,69.9776925 158.707471,70.9333849 158.707471,72.0858003 C158.707471,73.0909907 159.037458,73.9426104 159.697432,74.6406594 C160.357405,75.3387083 161.162065,75.6877328 162.111412,75.6877328 C163.081065,75.6877328 163.946646,75.2181362 164.708154,74.2789431 C164.708154,75.6953479 164.445434,76.8008036 163.919993,77.5953102 C163.394553,78.3898168 162.664774,78.7870701 161.730658,78.7870701 C161.060531,78.7870701 160.248256,78.6220767 159.293833,78.2920899 L159.293833,78.2920899 L159.293833,79.5638082 C160.233026,79.7973373 160.997072,79.9141019 161.585971,79.9141019 Z M162.385555,74.6063915 C161.710351,74.6063915 161.178565,74.3550939 160.790196,73.8524987 C160.401827,73.3499034 160.207642,72.6620079 160.207642,71.7888122 C160.207642,70.9917672 160.39675,70.3609848 160.774965,69.8964649 C161.153181,69.4319451 161.669737,69.1996852 162.324634,69.1996852 C163.030298,69.1996852 163.60016,69.4928657 164.034219,70.0792269 C164.468279,70.665588 164.685309,71.4385185 164.685309,72.3980185 C164.685309,73.0072249 164.460664,73.5275886 164.011374,73.9591098 C163.562085,74.390631 163.020145,74.6063915 162.385555,74.6063915 Z"/>
  </g>
</svg>
