<?xml version="1.0" encoding="UTF-8"?>
<svg xmlns="http://www.w3.org/2000/svg" xmlns:xlink="http://www.w3.org/1999/xlink" width="98" height="120">
  <defs>
    <clipPath id="c">
      <path d="M17.715 34.293h62.23v31.105h-62.23Zm0 0"></path>
    </clipPath>
    <clipPath id="b">
      <path d="M0 0h98v120H0z"></path>
    </clipPath>
    <filter id="a" width="100%" height="100%" x="0%" y="0%">
      <feColorMatrix in="SourceGraphic" values="0 0 0 0 1 0 0 0 0 1 0 0 0 0 1 0 0 0 1 0"></feColorMatrix>
    </filter>
    <mask id="e">
      <g filter="url(#a)">
        <path d="M0 0h98v120H0z" style="fill:#000;fill-opacity:.2;stroke:none"></path>
      </g>
    </mask>
    <g id="d" clip-path="url(#b)">
      <path d="m77.422 48.39 2.246 3.54-1.703 1.504 2.328 4.004c.082.003.164.015.25.039.367.093.629.332.594.527-.04.2-.371.277-.739.18-.367-.098-.628-.336-.585-.532.027-.129.18-.203.382-.215L77.86 53.41l1.707-1.5-2.226-3.52a.973.973 0 0 1-.207-.027c-.297-.066-.504-.226-.457-.36.043-.132.316-.183.61-.12.296.066.503.226.46.36-.023.085-.156.14-.324.148ZM49.352 59.617l.07 5.063-2.52 1.816c.22.156.285.406.133.621-.187.266-.629.38-.988.242-.356-.132-.488-.457-.297-.722.191-.262.629-.367.98-.239.032.012.06.028.086.043l2.496-1.793-.062-5.035a.827.827 0 0 1-.238-.043c-.317-.101-.446-.351-.29-.558.157-.203.536-.285.852-.184.317.102.45.352.297.555-.101.14-.305.222-.52.234ZM68.508 46.984l2.828 6.243-2.02 1.59 1.496 3.734h.02c.356.015.7.207.773.433.075.227-.156.403-.515.391-.36-.016-.707-.21-.774-.438-.062-.199.114-.355.399-.382l-1.5-3.762 2.02-1.586-2.81-6.223c-.187-.011-.374-.074-.476-.172-.148-.128-.07-.269.172-.316.238-.043.55.027.7.16.148.13.074.274-.169.317a.866.866 0 0 1-.144.011ZM77.734 58.68c-.363-.098-.617-.344-.562-.54.05-.199.387-.277.746-.18.36.099.617.34.57.54-.031.133-.191.21-.398.223l1.047 1.972-3.055 3.145c.242.144.383.351.336.535-.059.246-.438.348-.84.223-.398-.121-.664-.418-.598-.66.067-.243.438-.34.832-.22.06.02.114.044.168.067l3.036-3.117-1.028-1.945a1.047 1.047 0 0 1-.254-.043ZM76.695 56.086l-2.43-4.59c.18-.008.325-.07.36-.168.055-.152-.156-.336-.465-.41-.308-.074-.605-.016-.66.137-.059.148.148.332.46.41.075.015.15.027.22.031l2.422 4.59a.658.658 0 0 0-.157.02c-.152.035-.25.105-.277.206-.031.098.016.211.129.317.11.105.277.191.465.242.39.106.754.02.808-.187.055-.207-.215-.457-.601-.559a1.357 1.357 0 0 0-.274-.04Zm.254.113c.313.082.528.281.485.45-.032.117-.188.187-.391.187a1.05 1.05 0 0 1-.262-.035.872.872 0 0 1-.379-.196c-.09-.085-.125-.175-.101-.257.047-.164.336-.23.648-.149Zm0 0" style="stroke:none;fill-rule:nonzero;fill:#fff;fill-opacity:1"></path>
      <path d="M77.191 56.586c-.023.094-.195.137-.375.086-.183-.047-.308-.164-.28-.262.03-.097.194-.133.378-.086.18.047.305.164.277.262ZM50.344 64.152c.062.012.12.02.183.024l.297 9.23h.13l-.317-9.226c.3-.016.574-.157.664-.371a.39.39 0 0 0-.059-.407.732.732 0 0 0-.148-.14.995.995 0 0 0-.301-.125 1.058 1.058 0 0 0-.574.027.627.627 0 0 0-.375.305c-.13.281.093.59.5.683Zm-.36-.648c.102-.227.446-.344.766-.27.156.036.29.11.363.215.078.102.098.219.047.328a.499.499 0 0 1-.3.254.862.862 0 0 1-.227.043v-.011h-.11v.007a.55.55 0 0 1-.136-.02.652.652 0 0 1-.242-.105c-.165-.11-.235-.28-.16-.441Zm0 0" style="stroke:none;fill-rule:nonzero;fill:#fff;fill-opacity:1"></path>
      <path d="M50.676 63.402c-.188-.043-.387.028-.446.157-.058.132.043.273.235.32.191.043.39-.027.45-.16.054-.13-.052-.274-.24-.317ZM22.078 64.047c.094.039.203.055.317.055.187 0 .39-.051.57-.137l3.277 3.273-2.137 6.168h.13l2.136-6.203-3.308-3.293c.054-.035.101-.066.144-.105.145-.13.219-.274.211-.41-.008-.133-.098-.243-.254-.305-.152-.063-.355-.07-.566-.028-.211.047-.407.137-.551.266-.3.262-.29.586.031.719Zm.078-.676c.117-.101.278-.176.45-.215a.807.807 0 0 1 .456.024c.125.05.196.14.204.25.007.105-.055.222-.172.328-.242.215-.653.3-.91.191-.258-.105-.27-.363-.028-.578Zm0 0" style="stroke:none;fill-rule:nonzero;fill:#fff;fill-opacity:1"></path>
      <path d="M22.355 63.453c.141-.121.375-.172.524-.11.152.06.16.212.02.333-.141.125-.38.176-.528.113-.152-.062-.16-.21-.016-.336ZM68.008 55.3l2.199 5.923c-.219.011-.398.097-.453.246-.082.222.148.496.523.61.375.112.746.019.825-.208.078-.223-.16-.492-.532-.601a1.027 1.027 0 0 0-.257-.047L68.102 55.3c.218-.008.398-.086.457-.215.043-.098.015-.203-.079-.3a.916.916 0 0 0-.414-.227 1.11 1.11 0 0 0-.504-.02c-.152.031-.261.102-.304.195a.203.203 0 0 0-.004.172c.05.145.234.285.492.356.086.023.176.035.262.039Zm-.23-.109c-.29-.078-.47-.27-.395-.421.035-.079.125-.133.246-.16a.918.918 0 0 1 .41.015c.29.078.465.27.395.426-.07.156-.368.222-.657.14Zm0 0" style="stroke:none;fill-rule:nonzero;fill:#fff;fill-opacity:1"></path>
      <path d="M67.605 54.828c.04-.09.211-.129.38-.082.167.043.269.152.23.242-.043.094-.215.13-.383.082-.168-.043-.27-.152-.227-.242ZM45.129 54.61c-.285-.09-.387-.297-.23-.47.156-.167.507-.234.788-.152.286.086.391.293.239.461-.153.176-.512.242-.797.16Zm0 0" style="stroke:none;fill-rule:nonzero;fill:#fff;fill-opacity:1"></path>
      <path d="M45.535 63.457c.2-.262.063-.578-.305-.703a.92.92 0 0 0-.277-.055l.48-8.054h-.093l-.496 8.054c-.258.016-.504.114-.64.285-.204.262-.075.578.292.711.371.133.836.024 1.04-.238Zm-.129-.047c-.164.215-.539.3-.836.192-.297-.106-.402-.364-.238-.57.164-.212.535-.294.828-.192.297.105.406.36.246.57Zm0 0" style="stroke:none;fill-rule:nonzero;fill:#fff;fill-opacity:1"></path>
      <path d="M44.695 63.441c-.172-.058-.234-.21-.136-.332.093-.12.308-.168.48-.109.172.059.234.207.14.332-.093.121-.312.172-.484.11ZM44.227 51.406 43.5 59.57l-2.637 1.63c.11.1.157.237.098.374-.102.246-.473.41-.832.364-.356-.051-.559-.29-.45-.532.106-.242.473-.402.825-.355.117.015.21.05.289.101l2.605-1.609.739-8.137c-.192-.02-.356-.093-.41-.207-.082-.16.09-.332.378-.383.293-.05.594.032.676.192.082.16-.086.332-.379.387-.058.011-.117.011-.175.011ZM35.754 56.98a.491.491 0 0 1-.45.09c-.144-.05-.179-.168-.077-.265a.494.494 0 0 1 .449-.09c.144.05.18.168.078.265ZM37.148 51.293c.254.078.32.262.149.418-.172.152-.52.219-.777.14-.254-.078-.317-.265-.145-.417a.602.602 0 0 1 .168-.102l-1.426-.926.395-1.39c-.196-.008-.356-.078-.399-.18-.054-.145.13-.3.414-.352.282-.05.559.02.618.164.058.141-.122.301-.41.352a1.72 1.72 0 0 1-.141.016l-.383 1.37 1.414.919-.008.004a.947.947 0 0 1 .531-.016Zm0 0" style="stroke:none;fill-rule:nonzero;fill:#fff;fill-opacity:1"></path>
      <path d="M36.988 52.996c.176-.16.11-.355-.152-.437-.258-.079-.613-.012-.793.148-.18.16-.117.355.145.438a.85.85 0 0 0 .203.035l-.797 3.297c-.25 0-.508.082-.664.23a.396.396 0 0 0-.117.188c-.04.156.058.304.28.382.15.051.333.059.516.024.18-.04.34-.114.446-.215.101-.102.14-.219.11-.324-.032-.106-.134-.192-.282-.242a1.081 1.081 0 0 0-.196-.04l.793-3.3c.196-.012.391-.078.508-.184Zm-1.414 3.559.051.004a.723.723 0 0 1 .184.03c.12.04.199.11.226.196.028.086-.004.18-.09.262a.705.705 0 0 1-.36.172.772.772 0 0 1-.413-.02c-.254-.082-.313-.289-.133-.457a.74.74 0 0 1 .356-.172.958.958 0 0 1 .18-.015ZM26.676 63.73c-.258.239-.711.336-1.008.215-.297-.117-.324-.41-.066-.644.21-.196.546-.29.82-.258l2.406-6.531-1.605-1.285 1.28-3.149-.015.004c-.316.035-.562-.078-.554-.246.011-.168.273-.332.586-.367.312-.032.562.074.554.242-.008.152-.21.297-.476.352l-1.274 3.14 1.606 1.281-2.407 6.578c.028.008.055.012.079.024.296.117.332.406.074.644ZM71.363 60.54c-.363-.106-.597-.368-.52-.58.079-.206.43-.292.794-.187.363.102.597.36.527.575-.05.14-.223.222-.437.238l1.851 4.602c.09.003.184.019.277.05.403.125.672.434.602.692-.07.257-.46.363-.867.234-.406-.129-.672-.441-.594-.695.05-.168.234-.266.469-.281l-1.844-4.602a1.287 1.287 0 0 1-.258-.047ZM61.152 63.469c.086.027.176.043.262.047l1.82 8.566 1.942 1.328h.183l-2.011-1.367-1.825-8.527c.23-.012.426-.106.504-.262.114-.234-.086-.52-.445-.633-.36-.117-.746-.023-.867.207-.121.234.074.52.437.64ZM51.262 62.934c-.344-.118-.489-.399-.332-.625.156-.23.554-.32.894-.207.34.113.492.39.34.62-.102.153-.312.243-.543.258l.285 5.57 2.524 1.84c.21-.175.554-.226.867-.109.394.145.586.508.43.805-.16.305-.618.426-1.016.277-.398-.152-.582-.52-.418-.812a.463.463 0 0 1 .062-.09L51.79 68.59l-.277-5.61a.94.94 0 0 1-.25-.046Zm0 0" style="stroke:none;fill-rule:nonzero;fill:#fff;fill-opacity:1"></path>
      <path d="M54.145 56.914a.982.982 0 0 0 .23.04l1.777 16.452h.125L54.473 56.95c.207-.008.39-.082.476-.207.125-.187-.023-.414-.332-.504-.308-.093-.668-.015-.797.168-.133.188.012.414.325.508ZM61.531 51.656c.293.074.457.266.364.422-.063.102-.223.164-.41.172l1.273 4.86-2.246 1.675.488 2.29a.94.94 0 0 1 .254.046c.351.11.547.379.43.602-.114.222-.496.316-.852.203-.355-.114-.543-.383-.426-.606.078-.144.27-.23.489-.242l-.493-2.316 2.25-1.68-1.257-4.832a1.019 1.019 0 0 1-.215-.031c-.297-.078-.457-.27-.36-.422.102-.156.414-.219.711-.14ZM36.758 71.332l-.356 2.074h.125l.348-2.031 3.598-2.504.363-2.965c.242-.011.48-.113.617-.281.203-.254.094-.559-.238-.684-.336-.125-.77-.023-.977.227-.21.254-.11.562.227.687.082.032.168.051.258.055l-.364 2.922ZM47.145 53.16c-.012.012-.024.02-.036.031l3.739 2.204.203 4.62a.919.919 0 0 1 .226.04c.328.105.473.367.32.582-.148.215-.542.304-.87.195-.329-.11-.47-.371-.317-.582.106-.145.313-.227.535-.234l-.195-4.594-3.7-2.188c-.167.11-.448.145-.679.078-.281-.082-.387-.28-.238-.445.148-.16.492-.226.77-.144.277.078.386.273.242.437ZM49.855 39.707c-.207-.043-.292-.148-.195-.234.098-.09.348-.121.555-.082.207.047.293.152.195.238-.097.086-.347.121-.555.078Zm0 0" style="stroke:none;fill-rule:nonzero;fill:#fff;fill-opacity:1"></path>
      <path d="M50.059 45.41c-.239-.058-.34-.2-.227-.316.074-.074.227-.121.387-.125l-.211-5.242h.07l.219 5.242c.058.004.117.011.176.023.238.059.34.2.23.313-.113.117-.402.164-.644.105ZM54.027 63.105c-.37.036-.73-.148-.8-.406-.07-.254.171-.488.539-.52h.007l-.285-3.253-2.422-1.48-.41-8.805a.808.808 0 0 1-.191-.028c-.258-.066-.367-.23-.246-.363.12-.133.43-.188.687-.121.258.066.367.226.25.363-.078.086-.242.14-.414.149l.422 8.777 2.422 1.48.297 3.278c.32.008.613.172.68.402.074.254-.165.492-.536.527ZM65.848 53.309c-.309-.082-.493-.282-.407-.442.086-.164.403-.226.711-.148.309.082.493.277.414.441-.086.164-.406.23-.718.149ZM66.945 56.496c-.332-.09-.527-.316-.441-.5.086-.184.422-.254.75-.164s.531.313.45.496c-.087.188-.427.262-.759.168Zm0 0" style="stroke:none;fill-rule:nonzero;fill:#fff;fill-opacity:1"></path>
      <path d="m63.969 47.063 1.965 5.62h-.09l-1.953-5.617a1.12 1.12 0 0 1-.196-.027c-.27-.062-.422-.215-.34-.34.083-.12.364-.172.63-.113.265.062.421.215.343.34-.05.082-.191.133-.36.136ZM69.523 65.14c-.09-.265.122-.476.477-.5l-2.887-8.304h.098l2.902 8.305c.367.023.73.234.825.5.101.28-.133.511-.528.511-.394 0-.793-.23-.887-.511ZM32.242 54.293c.106-.09.149-.191.125-.29-.023-.097-.113-.175-.254-.218a.807.807 0 0 0-.226-.039l2.457-7.496h-.078l-2.47 7.496c-.054.004-.108.008-.163.02a.959.959 0 0 0-.434.187c-.219.188-.168.418.117.512.086.027.18.043.278.043.238 0 .492-.078.648-.215Zm-.101-.031c-.176.152-.512.215-.746.136-.23-.074-.274-.261-.094-.41a.768.768 0 0 1 .351-.156.794.794 0 0 1 .387.02c.113.035.184.097.203.175.02.078-.015.16-.101.235Zm0 0" style="stroke:none;fill-rule:nonzero;fill:#fff;fill-opacity:1"></path>
      <path d="M31.531 54.285c-.136-.047-.16-.152-.054-.242a.502.502 0 0 1 .43-.078c.132.043.16.152.058.238a.502.502 0 0 1-.434.082ZM34.094 46.223c-.223-.059-.274-.207-.11-.325.16-.12.47-.168.688-.109.223.059.273.207.117.324-.16.121-.473.172-.695.11ZM26.16 73.406h.18l-.328-.355 4.465-13.899a.934.934 0 0 0 .539-.222c.222-.2.168-.446-.11-.547a.999.999 0 0 0-.906.183c-.223.2-.18.446.102.551.082.028.175.04.27.04l-4.5 13.937ZM32.207 55.363c-.266-.09-.316-.304-.117-.48.203-.176.578-.242.844-.156.265.086.32.3.12.476-.199.176-.581.25-.847.16Zm0 0" style="stroke:none;fill-rule:nonzero;fill:#fff;fill-opacity:1"></path>
      <path d="M31.098 73.406h.129l2.03-8.27-2.94-2.558 2.19-7.176h-.093L30.2 62.61l2.938 2.563ZM34.773 62.027c-.28.2-.71.23-.96.07-.25-.156-.223-.44.054-.636.281-.191.703-.223.953-.07.13.082.188.195.172.316h2.727l5.203 4.031-.36 4.008h-.12l.363-3.973-5.145-3.992h-2.683a.533.533 0 0 1-.204.246ZM58.914 62.758c.066-.121.27-.172.453-.11.188.059.281.204.219.325-.066.12-.27.172-.457.113-.184-.063-.281-.207-.215-.328Zm0 0" style="stroke:none;fill-rule:nonzero;fill:#fff;fill-opacity:1"></path>
      <path d="M60.195 70.273c.446.16.934.028 1.078-.293.149-.32-.093-.707-.535-.863a1.169 1.169 0 0 0-.324-.066l-1.016-5.66c.258-.016.48-.118.57-.29.137-.257-.073-.57-.468-.699-.39-.125-.82-.023-.965.23a.38.38 0 0 0-.039.235c.031.192.215.38.5.469.098.031.195.05.293.055l1.008 5.664c-.281.015-.527.14-.629.347a.495.495 0 0 0-.04.29c.04.234.25.464.567.581Zm-1.152-7.027c-.32-.105-.484-.363-.371-.566.117-.207.465-.29.781-.188.227.07.375.219.406.375a.286.286 0 0 1-.027.188c-.113.21-.465.297-.789.191Zm1.203 6.914c-.36-.133-.547-.45-.426-.703.082-.168.274-.27.496-.285l.004.012h.117v-.012c.083.008.168.02.25.05.356.13.551.442.434.7-.121.262-.512.367-.875.238ZM62.746 50.64c-.016.005-.035.005-.055.008L65.72 60.86 63 63.13l.766 3.191c.289.016.582.153.73.364.195.277.067.586-.293.68-.363.093-.812-.06-1.008-.344-.187-.282-.054-.582.305-.672a.906.906 0 0 1 .148-.024l-.77-3.23 2.727-2.262-3-10.18c-.234.008-.484-.07-.597-.199-.14-.156-.035-.32.23-.375.266-.05.594.031.735.188.144.156.043.324-.227.375ZM59.313 48.742c.105-.148-.051-.332-.352-.406a1.192 1.192 0 0 0-.262-.027c-.207 0-.398.058-.476.164-.11.148.047.332.347.406.075.02.149.031.223.031l.977 4.387-1.88 1.254a.874.874 0 0 0-.12-.043c-.305-.086-.645-.016-.762.156-.117.176.035.387.344.477.308.086.652.015.77-.16.085-.133.015-.286-.157-.391l1.902-1.27-.992-4.41c.195-.008.367-.066.438-.168Zm-.106-.027c-.086.12-.355.172-.598.11-.242-.06-.367-.208-.28-.329.089-.121.355-.168.597-.11.242.063.367.208.281.329ZM56.258 62.875c-.367-.078-.594-.344-.508-.586.086-.242.45-.375.809-.297.09.02.171.051.242.086l1.785-1.344-.723-4.148a.919.919 0 0 1-.226-.04c-.32-.093-.477-.316-.36-.5.121-.183.47-.257.782-.167.316.094.476.312.363.5-.078.121-.258.195-.461.203l.734 4.18-1.812 1.37c.16.118.242.282.191.442-.078.246-.445.383-.816.301ZM77.457 54c-.25.078-.633.004-.863-.168-.227-.168-.211-.367.035-.445a.665.665 0 0 1 .18-.028l-1.36-2.422-1.605-.68-2.14-4.003-3.188-1.258-1.743-3.672c-.054-.004-.113-.008-.171-.02-.239-.046-.38-.163-.317-.257s.305-.133.543-.086c.234.047.379.16.317.258-.04.062-.16.097-.305.105l1.742 3.656 3.191 1.254 2.145 4.004 1.605.676 1.375 2.445c.207.008.43.078.586.192.23.172.22.37-.027.449ZM72.805 56.293c-.34-.094-.563-.313-.493-.496.067-.18.391-.254.727-.164.34.09.563.308.5.492-.039.121-.195.195-.398.203l1.355 2.945-1.367 1.27c.187.129.293.3.246.45-.07.218-.43.308-.805.198-.37-.109-.61-.375-.539-.59.074-.214.43-.3.797-.195.078.024.145.051.211.086l1.344-1.246-1.336-2.914a1.357 1.357 0 0 1-.242-.039ZM73.516 62.457c.035-.117.226-.164.421-.105.2.058.333.203.297.324-.035.117-.226.168-.425.11-.2-.063-.332-.208-.293-.329Zm0 0" style="stroke:none;fill-rule:nonzero;fill:#fff;fill-opacity:1"></path>
      <path d="M73.734 63.031c.106.032.207.047.305.055l2.273 5.363 1.797 1.031 1.274 2.86c-.399.035-.586.324-.418.664.078.156.219.297.383.402h1.187c.082-.12.086-.289-.008-.465-.172-.332-.613-.586-1.023-.601l-1.29-2.899-1.8-1.027-2.266-5.332c.25-.012.45-.117.497-.285a.318.318 0 0 0-.02-.23.667.667 0 0 0-.11-.165 1.17 1.17 0 0 0-.503-.297 1.135 1.135 0 0 0-.578-.027c-.172.043-.286.133-.325.258-.082.254.2.566.625.695Zm-.48-.652c.031-.098.125-.172.262-.207a.97.97 0 0 1 .468.023c.164.051.309.133.407.239.097.105.136.218.105.32-.058.207-.39.293-.734.187-.246-.074-.43-.222-.496-.375a.282.282 0 0 1-.012-.187ZM32.465 60.441l8.957-5.011c.039.023.082.043.133.062.152.047.332.055.504.02a.781.781 0 0 0 .406-.2c.183-.195.078-.433-.235-.527-.308-.097-.71-.02-.898.172a.389.389 0 0 0-.094.176.249.249 0 0 0 .02.129c.02.047.054.09.101.129l-8.988 5.02-.246.874a.953.953 0 0 0-.582.219c-.25.215-.227.492.059.621.285.129.718.055.964-.164.246-.215.215-.492-.07-.617a.716.716 0 0 0-.266-.059Zm9.156-5.02c-.121-.038-.207-.105-.242-.187-.031-.078-.012-.168.062-.242.149-.156.477-.219.727-.14.18.054.273.168.258.28a.24.24 0 0 1-.07.145.649.649 0 0 1-.329.16.835.835 0 0 1-.406-.015Zm0 0" style="stroke:none;fill-rule:nonzero;fill:#fff;fill-opacity:1"></path>
      <path d="M41.633 55.05c.086-.09.277-.124.422-.081.144.047.191.156.105.25-.086.09-.277.129-.422.082-.148-.047-.195-.156-.105-.25ZM24.543 53.543c-.105-.04-.168-.102-.176-.176-.004-.074.043-.156.137-.226a.943.943 0 0 1 .367-.149.807.807 0 0 1 .379.016c.219.074.238.25.047.398-.195.149-.531.211-.754.137Zm0 0" style="stroke:none;fill-rule:nonzero;fill:#fff;fill-opacity:1"></path>
      <path d="M24.672 53.2a.515.515 0 0 1 .43-.079c.128.043.14.145.027.23a.526.526 0 0 1-.434.079c-.129-.043-.136-.149-.023-.23ZM79.89 59.39l-2.335-4.203a1.834 1.834 0 0 1-.243-.039c-.437-.113-.734-.386-.671-.605.066-.223.464-.309.894-.2.43.11.735.376.676.598-.04.16-.254.25-.531.25l2.36 4.239-2.09 2.14 1.917 3.825c.028 0 .051 0 .078.003.524.059 1.035.399 1.137.762.106.367-.242.617-.781.555-.531-.063-1.043-.41-1.137-.774-.078-.308.164-.523.559-.546l-1.93-3.864ZM73.273 42.508l2.16 3.457-2.066 1.488 2.238 4.016c.09.004.184.015.282.039.402.097.683.336.62.535-.062.203-.448.285-.859.184-.406-.102-.68-.344-.613-.54.043-.128.227-.207.457-.218l-2.242-4.035 2.07-1.489-2.136-3.433a1.608 1.608 0 0 1-.23-.028c-.321-.066-.532-.222-.47-.351.063-.125.371-.176.692-.113.32.062.535.218.472.347-.035.082-.183.133-.375.14ZM39.988 53.688l-.886 5.257-3.29 1.914c.223.168.25.434.032.664-.274.286-.813.403-1.203.258-.387-.14-.473-.488-.196-.765.274-.278.805-.391 1.188-.254a.635.635 0 0 1 .09.043l3.254-1.895.894-5.222a.97.97 0 0 1-.266-.043c-.343-.106-.44-.364-.222-.57.215-.208.664-.294 1.008-.188.34.101.449.355.234.566-.14.14-.387.223-.637.234ZM63.535 41.152l2.39 6.098-2.472 1.582 1.223 3.77h.023c.399.011.77.21.828.441.055.23-.234.41-.64.398-.41-.015-.782-.214-.832-.449-.04-.203.18-.363.507-.39l-1.226-3.793 2.477-1.582-2.368-6.079c-.207-.011-.41-.074-.511-.164-.145-.125-.04-.261.23-.304.273-.04.61.027.758.152.148.125.047.266-.227.309-.05.007-.105.007-.16.011ZM72.563 52.73c-.407-.101-.668-.347-.586-.55.078-.2.468-.282.867-.18.402.102.672.344.594.547-.051.137-.239.215-.477.226l.992 2.028-3.855 3.261c.261.153.402.376.328.563-.102.258-.547.363-1 .234-.446-.129-.723-.437-.617-.691.105-.254.546-.355.988-.23.066.019.129.042.187.07l3.836-3.238-.972-1.993a1.448 1.448 0 0 1-.285-.047ZM71.652 50.102l-2.234-4.563c.203-.012.371-.07.422-.168.078-.148-.137-.328-.477-.398-.336-.075-.675-.016-.754.132-.082.149.13.329.47.403.081.02.16.027.241.031l2.227 4.566a.904.904 0 0 0-.18.02c-.172.031-.293.105-.336.207-.047.098-.008.211.11.32.117.106.293.192.504.246.43.106.851.016.937-.191.082-.207-.2-.46-.625-.562a1.636 1.636 0 0 0-.305-.043Zm.278.113c.343.086.57.289.5.457-.047.117-.235.187-.461.187-.094 0-.196-.011-.297-.035a.965.965 0 0 1-.406-.199c-.094-.086-.125-.176-.09-.258.074-.168.41-.234.754-.152Zm0 0" style="stroke:none;fill-rule:nonzero;fill:#fff;fill-opacity:1"></path>
      <path d="M72.164 50.605c-.039.098-.234.137-.437.09-.2-.05-.329-.168-.29-.265.043-.098.239-.137.438-.086.2.047.332.164.29.261ZM41.34 73.406h.23l-2.758-2.437 1.793-12.555c.352-.012.692-.16.84-.383a.383.383 0 0 0 .008-.43.583.583 0 0 0-.148-.144.909.909 0 0 0-.325-.129 1.403 1.403 0 0 0-.671.027c-.22.067-.391.18-.489.32-.203.29 0 .61.45.712a1.2 1.2 0 0 0 .207.027L38.645 71.02Zm-1-15.12a.734.734 0 0 1-.262-.11c-.168-.121-.215-.297-.101-.465.16-.234.582-.36.941-.281.172.035.309.117.379.222a.3.3 0 0 1-.008.344.725.725 0 0 1-.394.266 1.6 1.6 0 0 1-.274.047v-.012h-.125l-.004.008c-.05-.004-.101-.008-.152-.02Zm0 0" style="stroke:none;fill-rule:nonzero;fill:#fff;fill-opacity:1"></path>
      <path d="M40.797 57.605c-.207-.046-.453.028-.547.165-.09.136.004.285.215.332.21.046.453-.028.547-.164.09-.137-.008-.286-.215-.333ZM34.203 64.285c.352.137.809.078 1.14-.117l3.423 2.848-.977 6.394h.164l.965-6.437-3.461-2.88a.77.77 0 0 0 .133-.116c.312-.34.203-.747-.238-.914a1.347 1.347 0 0 0-.73-.036 1.241 1.241 0 0 0-.638.34.66.66 0 0 0-.18.301.516.516 0 0 0 0 .219c.044.175.184.316.4.398Zm-.066-.863c.125-.129.308-.227.515-.274.211-.043.418-.035.59.032.254.093.375.289.328.492a.548.548 0 0 1-.133.246c-.257.273-.761.387-1.12.25-.176-.066-.29-.184-.325-.324-.031-.14.02-.29.145-.422Zm0 0" style="stroke:none;fill-rule:nonzero;fill:#fff;fill-opacity:1"></path>
      <path d="M35.21 63.813a.639.639 0 0 1-.644.144c-.21-.082-.257-.273-.105-.43a.64.64 0 0 1 .64-.144c.208.078.258.27.11.43ZM58.71 64.184c.126.043.255.066.384.074l1.261 7.336 2.079 1.453.074.363h.164l-.086-.418-2.082-1.449-1.27-7.29c.078-.003.16-.015.235-.03.238-.059.418-.184.504-.348.175-.34-.098-.746-.602-.91-.504-.164-1.062-.031-1.246.3-.055.094-.07.2-.055.301.04.25.278.496.64.618Zm-.41-.86c.071-.133.216-.226.407-.273a1.13 1.13 0 0 1 .602.027c.41.133.629.465.484.734-.07.137-.215.235-.406.282a1.1 1.1 0 0 1-.614-.031c-.41-.133-.625-.47-.472-.739Zm0 0" style="stroke:none;fill-rule:nonzero;fill:#fff;fill-opacity:1"></path>
      <path d="M59.473 63.691c-.082.157-.348.223-.59.141-.238-.078-.36-.27-.274-.426.086-.16.344-.222.582-.144.243.078.368.27.282.43ZM61.906 49.316l1.735 6.024c-.25.012-.47.101-.547.254-.13.23.105.515.52.633.417.117.855.02.976-.215.117-.23-.121-.512-.535-.625a1.274 1.274 0 0 0-.29-.047l-1.75-6.024c.25-.011.465-.09.547-.218.06-.094.04-.2-.05-.297-.094-.102-.25-.18-.438-.227a1.327 1.327 0 0 0-.566-.02c-.176.032-.309.102-.371.192a.22.22 0 0 0-.028.176c.04.144.227.285.508.355.094.024.196.035.29.04Zm-.246-.109c-.316-.078-.492-.27-.387-.426.051-.078.157-.133.297-.16a1.09 1.09 0 0 1 .461.02c.313.074.492.265.39.422-.097.16-.44.222-.76.144Zm0 0" style="stroke:none;fill-rule:nonzero;fill:#fff;fill-opacity:1"></path>
      <path d="M61.512 48.84c.058-.09.258-.125.441-.082.184.047.285.156.227.246-.059.09-.258.129-.442.082-.183-.043-.285-.156-.226-.246ZM36.152 48.621c-.3-.086-.379-.293-.168-.465.207-.168.621-.234.922-.152.301.082.383.289.176.46-.207.173-.621.243-.93.157ZM32.332 62.582c.102.043.219.063.34.07L29.816 73.41h.164l2.829-10.762c.332-.015.671-.144.882-.359.313-.32.22-.707-.207-.863a1.224 1.224 0 0 0-.402-.067c-.344 0-.71.13-.937.352-.325.316-.243.71.187.871Zm-.039-.816c.258-.254.742-.356 1.082-.23.168.062.273.167.309.3.03.129-.02.273-.145.398-.254.262-.75.368-1.098.235-.343-.13-.41-.446-.148-.703Zm0 0" style="stroke:none;fill-rule:nonzero;fill:#fff;fill-opacity:1"></path>
      <path d="M32.64 62.27c-.199-.075-.238-.258-.09-.407a.655.655 0 0 1 .634-.133c.199.075.242.254.093.407a.649.649 0 0 1-.636.133ZM34.848 57.66c.285-.27.191-.601-.207-.734-.094-.031-.2-.051-.309-.055l2.16-8.21h-.105l-2.18 8.214c-.3.012-.605.117-.797.297-.289.27-.207.601.192.742.398.137.96.023 1.246-.254Zm-.141-.047c-.23.223-.684.313-1.004.2-.324-.11-.39-.38-.156-.598.234-.215.68-.305.996-.195.32.109.395.375.164.593Zm0 0" style="stroke:none;fill-rule:nonzero;fill:#fff;fill-opacity:1"></path>
      <path d="M33.883 57.645c-.188-.063-.23-.22-.094-.344a.626.626 0 0 1 .578-.117c.188.062.23.218.094.343a.613.613 0 0 1-.578.118ZM65.402 62.547c.11.035.223.055.332.062l1.918 6.657-1.402 1.379.723 2.761h.164l-.719-2.715 1.402-1.379-1.945-6.707c.285-.015.527-.132.605-.324.125-.289-.152-.64-.617-.781-.46-.14-.937-.027-1.066.258-.137.289.137.644.605.789ZM35.762 45.45 33.3 53.64l-3.367 1.676c.109.106.132.243.035.387-.168.254-.633.422-1.035.375-.399-.05-.579-.297-.403-.55.172-.25.633-.41 1.028-.364.125.016.23.05.308.102l3.324-1.653 2.473-8.168c-.215-.015-.383-.09-.422-.199-.058-.16.168-.324.504-.379.332-.05.652.031.715.188.062.156-.156.328-.496.379-.07.011-.137.015-.203.015ZM25.031 51.008c-.14.097-.379.14-.531.09-.156-.051-.168-.172-.027-.27a.682.682 0 0 1 .527-.09c.152.051.168.168.031.27ZM27.855 45.34c.27.074.305.254.079.406-.227.152-.633.215-.903.137-.27-.074-.3-.258-.07-.41a.958.958 0 0 1 .21-.098l-1.394-.906.743-1.36c-.215-.007-.38-.074-.403-.175-.031-.141.207-.293.535-.34.325-.051.618.02.653.156.035.14-.203.293-.532.344-.054.008-.109.011-.16.015l-.73 1.34 1.383.895-.008.004c.199-.047.426-.055.597-.008Zm0 0" style="stroke:none;fill-rule:nonzero;fill:#fff;fill-opacity:1"></path>
      <path d="M27.309 47.02c.234-.16.199-.356-.075-.434a1.257 1.257 0 0 0-.925.144c-.239.16-.207.356.066.434.066.02.14.031.219.035l-1.633 3.297c-.281 0-.594.082-.805.23a.528.528 0 0 0-.176.192c-.082.156-.003.309.23.383.161.054.368.062.583.023.215-.035.414-.113.555-.215.14-.101.21-.218.199-.328-.016-.105-.11-.191-.266-.242a1.187 1.187 0 0 0-.21-.039l1.624-3.305c.223-.008.457-.07.614-.175Zm-2.387 3.554.058.004c.07.004.141.012.2.031.129.043.203.114.215.2.011.086-.047.18-.16.261a1.066 1.066 0 0 1-.446.176.974.974 0 0 1-.469-.02c-.265-.085-.285-.292-.047-.464a1.186 1.186 0 0 1 .648-.188ZM65.059 54.637c-.407-.11-.641-.375-.524-.594.113-.215.531-.305.93-.195.402.105.64.37.531.59-.07.144-.281.23-.531.242l1.57 4.797c.102.003.211.023.32.054.45.133.727.457.614.73-.114.274-.578.384-1.035.247-.457-.137-.727-.465-.606-.735.078-.175.305-.28.574-.296l-1.554-4.793a1.24 1.24 0 0 1-.29-.047ZM73.832 57.438c-.445-.122-.738-.418-.656-.66.082-.239.504-.337.945-.215.445.117.742.41.668.652-.05.16-.254.258-.516.273l4.012 8.508-3.242 3.586c.27.219.426.5.363.754-.094.375-.625.531-1.183.344-.559-.192-.922-.649-.82-1.016.1-.367.624-.516 1.171-.336.121.043.235.098.336.16l3.207-3.535-3.969-8.465a1.333 1.333 0 0 1-.316-.05ZM79.465 71.063c.25.082.472.226.629.402.156.18.23.37.199.543-.027.172-.152.3-.352.36-.203.062-.453.046-.707-.04-.52-.176-.886-.605-.82-.953.066-.344.54-.484 1.05-.313ZM74.703 48.602c.063-.172.418-.243.797-.157.379.086.637.297.578.473-.062.176-.422.246-.805.156-.382-.086-.636-.297-.57-.472ZM63.46 61.98c-.46-.144-.714-.492-.573-.773.136-.281.613-.395 1.066-.254.457.14.719.484.586.766-.09.195-.34.308-.637.32l1.328 5.11-2.304 2.109c.324.219.484.558.36.851-.161.375-.716.528-1.24.34-.523-.187-.804-.64-.636-1.008.168-.367.715-.511 1.227-.332.054.02.11.047.16.07l2.273-2.077-1.304-5.063a1.676 1.676 0 0 1-.305-.059ZM52.887 57.672a1.1 1.1 0 0 0 .297.05l.773 9.153 3.582 2.488.547 4.047h.164l-.563-4.097-3.582-2.481-.792-9.11c.265-.015.507-.113.62-.273.169-.246-.019-.539-.417-.66-.395-.121-.856-.023-1.032.219-.18.242 0 .543.403.664ZM41.559 57.113c-.371-.12-.489-.414-.266-.652.227-.234.703-.328 1.07-.215.367.121.496.41.278.649-.145.16-.407.253-.672.27l-.715 5.886 2.617 1.984a1.208 1.208 0 0 1 1.04-.12c.437.16.597.55.359.878-.247.328-.805.46-1.247.297-.441-.164-.593-.563-.343-.887.027-.031.058-.062.09-.094l-2.66-2.02.73-5.925a.992.992 0 0 1-.281-.05Zm0 0" style="stroke:none;fill-rule:nonzero;fill:#fff;fill-opacity:1"></path>
      <path d="m49.762 73.21.004.196h.164l-.004-.25-4.48-3.574.863-18.605c.234-.012.457-.086.574-.211.18-.192.047-.418-.29-.512-.335-.09-.75-.016-.933.172-.18.187-.055.418.285.511.078.024.164.036.25.04l-.906 18.656ZM55.121 45.695c.316.075.473.262.344.414-.086.102-.274.164-.485.172l.72 4.856-2.813 1.703.203 2.351a.987.987 0 0 1 .281.047c.387.114.57.39.402.621-.168.235-.62.328-1.015.211-.387-.117-.563-.398-.39-.629.112-.148.343-.238.6-.25l-.202-2.379 2.816-1.703-.703-4.828a1.167 1.167 0 0 1-.234-.031c-.325-.078-.473-.266-.34-.418.133-.152.496-.215.816-.137ZM20.035 73.406l2.95-7.3 4.812-2.708 1.082-3.16c.289-.015.586-.125.781-.3.29-.266.23-.59-.129-.723-.36-.13-.886-.024-1.183.242-.297.266-.25.59.113.727.086.03.184.05.285.054l-1.074 3.117-4.813 2.708-2.988 7.347h.164ZM38.703 47.18c-.016.011-.031.02-.043.03l3.813 2.2-.614 4.684c.086.008.172.02.254.043.352.11.473.375.262.597-.215.223-.68.317-1.04.203-.355-.113-.468-.382-.25-.601.145-.148.4-.234.657-.242l.621-4.66-3.773-2.18a1.196 1.196 0 0 1-.785.074c-.297-.082-.375-.277-.18-.437.195-.16.594-.223.89-.145.297.078.383.274.188.434ZM43.36 39.64c-.255-.054-.34-.187-.196-.3.098-.07.27-.113.45-.121l.667-4.926h.074l-.656 4.926c.063.004.13.011.188.023.258.055.347.188.203.301-.149.11-.473.156-.73.098Zm0 0" style="stroke:none;fill-rule:nonzero;fill:#fff;fill-opacity:1"></path>
      <path d="M44.719 57.293c-.434.035-.817-.152-.848-.422-.035-.266.285-.508.711-.543h.012l.246-3.348-2.492-1.503 1.109-8.727a1.2 1.2 0 0 1-.207-.027c-.277-.067-.371-.223-.21-.356.16-.129.507-.18.784-.113.274.062.371.219.215.348-.105.086-.293.14-.488.144l-1.09 8.703 2.496 1.504-.238 3.375c.367.008.676.18.715.414.039.27-.282.516-.715.551ZM59.738 47.328c-.34-.082-.515-.277-.398-.441.117-.157.484-.223.82-.145.336.082.516.278.403.438-.114.164-.485.23-.825.148ZM60.543 50.52c-.363-.094-.559-.32-.434-.504.125-.184.516-.258.875-.168.36.093.559.316.442.5-.121.187-.516.261-.883.172Zm0 0" style="stroke:none;fill-rule:nonzero;fill:#fff;fill-opacity:1"></path>
      <path d="m58.492 41.227 1.426 5.48h-.102l-1.41-5.48a1.935 1.935 0 0 1-.21-.024c-.29-.062-.438-.207-.333-.328.11-.117.426-.168.715-.105.285.058.438.203.332.324-.066.078-.23.125-.418.133ZM62.336 59.43c-.07-.282.207-.504.617-.528l-2.2-8.543h.11l2.223 8.543c.422.024.812.246.89.528.083.297-.222.539-.68.539-.46 0-.89-.242-.96-.54ZM21.668 48.309c.14-.09.215-.196.207-.29-.004-.097-.086-.171-.234-.218a1.413 1.413 0 0 0-.246-.04l4.43-7.316h-.09l-4.446 7.32a1 1 0 0 0-.184.016 1.421 1.421 0 0 0-.535.188c-.293.187-.293.414.012.511.086.028.191.04.3.04.27 0 .579-.079.786-.211Zm-.105-.032c-.239.153-.633.211-.875.137-.247-.078-.25-.262-.012-.41.117-.074.27-.129.43-.152a.946.946 0 0 1 .437.015c.117.035.184.098.187.176.004.074-.054.16-.168.234Zm0 0" style="stroke:none;fill-rule:nonzero;fill:#fff;fill-opacity:1"></path>
      <path d="M20.867 48.297c-.14-.043-.144-.149-.008-.238a.7.7 0 0 1 .504-.079c.145.043.149.149.012.239a.673.673 0 0 1-.508.078ZM25.55 40.422c-.23-.059-.253-.2-.05-.317.203-.113.555-.16.79-.101.23.055.257.195.054.309a1.256 1.256 0 0 1-.793.109ZM21.379 49.375c-.281-.086-.29-.305-.02-.477.27-.175.711-.246.989-.16.277.086.293.301.027.477-.266.18-.715.25-.996.16Zm0 0" style="stroke:none;fill-rule:nonzero;fill:#fff;fill-opacity:1"></path>
      <path d="m16.824 70.438-1.394 2.968h.164l1.41-3.02-1.383-1.695 4.633-9.265-2.77-2.68 4.227-7.332h-.106l-4.261 7.363 2.761 2.684-4.664 9.277ZM29.355 65.313c-.398-.16-.453-.547-.132-.864.316-.312.886-.437 1.28-.281.395.152.466.535.153.852-.316.324-.902.453-1.3.293Zm0 0" style="stroke:none;fill-rule:nonzero;fill:#fff;fill-opacity:1"></path>
      <path d="M22.75 56.176c-.371.203-.875.238-1.125.07-.25-.164-.148-.46.219-.66.363-.2.86-.23 1.11-.07.128.082.163.203.12.324h3.137l5.129 4.219-1.29 4.28h-.14l1.285-4.245-5.07-4.18h-3.086a.766.766 0 0 1-.289.262ZM50.418 56.93c.098-.121.34-.176.543-.114.203.063.289.215.195.34-.093.13-.336.18-.539.117-.207-.062-.293-.214-.199-.343Zm0 0" style="stroke:none;fill-rule:nonzero;fill:#fff;fill-opacity:1"></path>
      <path d="M50.672 64.906c.496.176 1.09.035 1.316-.316.223-.344 0-.762-.488-.93a1.223 1.223 0 0 0-.371-.07l-.254-6.004c.297-.012.57-.121.703-.3.2-.266.008-.595-.426-.724-.433-.132-.945-.023-1.152.239a.371.371 0 0 0-.082.242c.004.2.187.395.496.492.11.031.219.05.332.055l.242 6c-.332.02-.64.152-.793.375a.53.53 0 0 0-.093.312c.007.258.214.508.57.63Zm-.184-7.465c-.351-.109-.5-.375-.336-.59.168-.214.582-.3.93-.195.25.074.398.23.41.39 0 .063-.02.134-.066.196-.16.219-.582.309-.938.2Zm.262 7.344c-.398-.14-.57-.48-.383-.758.121-.18.363-.289.63-.304v.011h.14v-.011c.093.007.191.023.285.054.394.137.574.473.39.754-.18.281-.66.399-1.062.254Zm0 0" style="stroke:none;fill-rule:nonzero;fill:#fff;fill-opacity:1"></path>
      <path d="M50.672 64.133c.105-.16.379-.227.61-.145.23.078.331.274.226.434-.106.164-.383.23-.613.148-.235-.082-.333-.277-.223-.437ZM56.629 44.7c-.02 0-.04.003-.063.003l1.973 10.262-3.465 2.351.403 3.364c.332.011.652.156.796.379.188.3-.011.625-.445.726-.433.102-.937-.062-1.121-.363-.18-.3.027-.621.457-.719.059-.012.117-.02.18-.023l-.403-3.395 3.473-2.347-1.941-10.227c-.266.004-.532-.07-.641-.2-.133-.152.008-.312.313-.363.304-.05.66.032.796.18.133.152-.004.32-.312.371ZM57.332 66.559c.14.37-.148.726-.648.793-.5.066-1.016-.184-1.145-.559-.129-.371.168-.719.66-.781.028-.004.055-.004.082-.004l-.168-1.39c-.351-.02-.683-.18-.828-.43-.191-.329.02-.676.469-.786.445-.105.965.067 1.164.391.203.324 0 .684-.457.793a.914.914 0 0 1-.207.031l.172 1.387c.41.023.789.242.906.555ZM53.078 42.848c.14-.149-.008-.32-.328-.395a1.41 1.41 0 0 0-.285-.027c-.235 0-.457.058-.559.16-.144.144 0 .32.324.394.079.016.16.028.243.032l.425 4.304-2.316 1.246a.996.996 0 0 0-.129-.042c-.332-.086-.726-.016-.887.156-.16.176-.023.386.313.476.332.09.734.016.89-.16.122-.133.067-.285-.113-.39L53 47.336l-.434-4.328c.22-.004.418-.067.512-.16Zm-.113-.028c-.117.121-.422.168-.688.11-.261-.059-.375-.203-.261-.32.117-.114.422-.165.683-.106.258.059.38.2.266.316ZM47.336 57.055c-.41-.082-.625-.356-.484-.61.14-.254.578-.386.984-.308.098.02.184.05.258.09l2.277-1.391-.148-4.23a1.143 1.143 0 0 1-.258-.04c-.344-.093-.485-.32-.32-.504.164-.183.57-.257.91-.167.34.093.492.316.328.503-.106.122-.32.196-.555.207l.164 4.262-2.312 1.414c.168.125.234.293.148.461-.133.258-.578.399-.992.313ZM72.734 48.016c-.285.078-.714.004-.953-.164-.234-.172-.195-.372.09-.446a.824.824 0 0 1 .203-.027l-1.265-2.39-1.723-.665-1.922-3.875-3.375-1.203-1.453-3.465c-.059-.004-.121-.008-.184-.02-.254-.042-.39-.152-.312-.238.082-.09.351-.125.601-.082.254.043.395.153.317.243-.051.058-.188.093-.344.097l1.453 3.45 3.375 1.203 1.93 3.87 1.723.665 1.28 2.41c.231.008.477.078.638.191.242.168.21.367-.079.446ZM67.219 50.313c-.375-.094-.598-.317-.5-.5.097-.18.472-.254.844-.165.374.09.601.313.511.497-.062.12-.25.195-.476.207l1.199 2.988-1.719 1.3c.203.133.305.31.23.465-.105.227-.53.317-.945.204-.414-.114-.656-.387-.547-.61.11-.219.532-.308.938-.199.086.023.16.055.226.086l1.688-1.277-1.18-2.957c-.09-.008-.18-.016-.27-.04ZM67.293 56.621c.055-.125.281-.172.5-.113.223.062.36.215.305.336-.055.125-.282.176-.504.113-.223-.062-.356-.21-.301-.336Zm0 0" style="stroke:none;fill-rule:nonzero;fill:#fff;fill-opacity:1"></path>
      <path d="M72.445 67.887c.172.39.73.699 1.25.675.516-.019.79-.355.606-.746-.168-.363-.668-.64-1.145-.66l-1.207-3.144-1.988-1.106-2.012-5.636c.29-.012.531-.122.606-.297a.306.306 0 0 0 .004-.243.587.587 0 0 0-.11-.167c-.12-.133-.316-.243-.543-.31a1.43 1.43 0 0 0-.664-.026c-.203.046-.344.14-.402.265-.125.266.16.59.637.723.117.035.234.055.347.058l2.012 5.672 1.988 1.106 1.184 3.11c-.473.038-.727.35-.563.726ZM67.52 57.125c-.274-.078-.47-.234-.524-.395a.234.234 0 0 1 .008-.19c.047-.102.16-.18.324-.216.164-.035.356-.027.54.024.183.05.339.14.437.246.101.113.129.226.086.332-.094.219-.485.304-.871.199ZM20.473 54.535l11.32-5.09c.039.024.086.043.14.059.16.05.364.059.563.023.203-.035.379-.105.5-.203.25-.195.18-.433-.152-.527-.332-.098-.801-.02-1.051.176a.396.396 0 0 0-.145.175.197.197 0 0 0-.007.125.261.261 0 0 0 .09.133l-11.36 5.098-.492.898a1.489 1.489 0 0 0-.723.23c-.34.223-.375.513-.082.645.297.133.813.055 1.153-.172.332-.222.363-.511.066-.64a.83.83 0 0 0-.293-.059Zm11.55-5.097c-.132-.04-.214-.106-.238-.188-.02-.082.024-.168.121-.246.203-.156.586-.219.852-.14.191.054.273.167.234.284a.295.295 0 0 1-.11.141.898.898 0 0 1-.405.164c-.16.027-.325.02-.454-.016Zm0 0" style="stroke:none;fill-rule:nonzero;fill:#fff;fill-opacity:1"></path>
      <path d="M32.11 49.066a.61.61 0 0 1 .495-.082c.157.043.188.157.07.246a.608.608 0 0 1-.495.083c-.157-.043-.188-.157-.07-.247ZM63.992 65.477l-.687-2.793a.597.597 0 0 1-.14-.028c-.243-.078-.38-.265-.306-.418.075-.152.328-.21.57-.136.243.078.383.261.31.418-.051.105-.196.167-.36.171l.695 2.809-1.539 1.355.508 2.317c.016.004.027 0 .043.004.281.035.516.234.516.445.003.215-.227.36-.516.324-.285-.035-.516-.238-.512-.453 0-.18.168-.305.387-.32l-.508-2.34ZM62.758 53.063l.797 2.824-1.578 1.164.75 3.011c.054 0 .109.012.164.028.234.07.367.246.293.387-.07.144-.32.203-.555.132-.234-.074-.363-.246-.29-.39.048-.094.173-.149.317-.157l-.75-3.027 1.582-1.164-.793-2.809c-.047-.003-.097-.007-.148-.023-.203-.055-.313-.187-.25-.293.062-.11.277-.152.48-.098.203.051.317.184.254.293-.039.07-.148.114-.273.121ZM40.777 61.645l-.468 3.542-1.864 1.223c.133.106.153.274.032.414-.149.18-.454.25-.68.164-.223-.09-.285-.304-.133-.48.148-.176.45-.246.672-.16.02.007.039.02.055.027l1.847-1.21.469-3.517a.727.727 0 0 1-.16-.03c-.211-.075-.277-.259-.145-.403.13-.149.403-.207.614-.137.207.074.277.254.148.402a.56.56 0 0 1-.387.165ZM56.457 51.91l.809 4.985-1.754 1.21.351 2.774h.012c.246.008.45.148.457.312.008.164-.187.29-.434.282-.246-.012-.449-.153-.457-.317-.004-.144.149-.258.352-.277l-.352-2.79 1.754-1.21-.797-4.973c-.136-.008-.261-.062-.32-.14-.082-.11.004-.227.192-.262.187-.04.406.023.492.129.082.11-.004.23-.192.265-.039.008-.074.008-.113.012ZM19.152 61.113c-.183-.07-.18-.25 0-.394.184-.145.477-.203.657-.133.18.074.183.25 0 .394a.786.786 0 0 1-.36.157l-1.406 2.816a.26.26 0 0 1 .078.024c.188.082.184.277-.012.441-.195.164-.511.23-.703.148-.187-.082-.183-.28.016-.445a.834.834 0 0 1 .55-.18l1.403-2.796a.506.506 0 0 1-.223-.032ZM69.102 60.645l.761 2.132a.578.578 0 0 1 .145-.007c.258.015.496.171.535.343.039.176-.14.305-.398.29-.258-.02-.5-.176-.536-.352-.023-.117.055-.215.188-.258l-.77-2.168.61-.531-1-2.711a.601.601 0 0 1-.164-.028c-.227-.062-.368-.218-.309-.343.055-.13.281-.18.508-.117.226.062.367.218.312.347-.035.082-.144.133-.285.14l1.012 2.731ZM68.371 56.09c.223.062.36.21.309.336-.055.125-.282.176-.504.113-.227-.062-.364-.215-.305-.34.035-.078.145-.129.277-.133l-1.253-3.406h.058l1.262 3.406c.047 0 .101.008.156.024ZM60.664 60.973c-.234-.075-.36-.25-.281-.395.078-.144.328-.203.562-.133.23.075.36.246.282.395-.051.094-.18.152-.325.16l.301 1.418-2.73 2.195c.132.098.187.242.12.367-.09.168-.363.235-.609.153-.246-.082-.37-.29-.28-.453.093-.164.362-.23.608-.149.036.012.07.028.102.043l2.711-2.176L60.832 61a.794.794 0 0 1-.168-.027ZM60.488 59.063l-.746-3.516c.133-.008.25-.055.297-.133.07-.121-.039-.266-.25-.324-.207-.059-.437-.012-.508.11-.074.116.035.265.242.323.051.012.102.02.153.024l.746 3.516a.361.361 0 0 0-.113.015c-.114.024-.2.078-.243.152-.043.075-.035.16.024.235a.505.505 0 0 0 .277.183c.25.075.524.012.61-.14.082-.156-.055-.34-.305-.414a.584.584 0 0 0-.184-.032Zm.153.082c.203.062.312.21.246.335-.047.086-.176.137-.317.137a.55.55 0 0 1-.175-.027.386.386 0 0 1-.223-.145c-.047-.062-.055-.133-.02-.191.07-.121.29-.172.489-.11Zm0 0" style="stroke:none;fill-rule:nonzero;fill:#fff;fill-opacity:1"></path>
      <path d="M60.734 59.434c-.039.07-.168.101-.285.062-.117-.035-.183-.121-.14-.191.039-.075.168-.102.285-.067.113.035.18.121.14.196ZM41.387 73.406h.12l-1.214-1.074.89-7.488c.204-.008.403-.106.489-.254a.27.27 0 0 0 .004-.281.39.39 0 0 0-.086-.094.543.543 0 0 0-.192-.09.714.714 0 0 0-.394.02.532.532 0 0 0-.29.21c-.112.196.009.403.274.47.04.01.078.015.117.015l-.898 7.52Zm-.36-8.648a.413.413 0 0 1-.156-.07c-.101-.079-.129-.196-.062-.305.09-.156.336-.238.55-.188.102.024.18.078.223.149a.207.207 0 0 1-.004.226.412.412 0 0 1-.23.172.739.739 0 0 1-.157.031v-.007h-.074l-.004.004a.325.325 0 0 1-.086-.012Zm0 0" style="stroke:none;fill-rule:nonzero;fill:#fff;fill-opacity:1"></path>
      <path d="M41.29 64.313c-.122-.032-.267.019-.321.109-.051.09.004.187.129.219.125.03.265-.02.32-.11.05-.09-.004-.187-.129-.219ZM21.852 64.754a.54.54 0 0 0 .214.039.937.937 0 0 0 .387-.094l2.164 2.207-2.43 6.5h.086l2.43-6.523-2.183-2.223a.641.641 0 0 0 .097-.074c.102-.086.153-.188.149-.277-.008-.094-.067-.168-.172-.215a.691.691 0 0 0-.383-.02.86.86 0 0 0-.379.184c-.207.183-.2.406.02.496Zm.054-.461a.696.696 0 0 1 .305-.148.52.52 0 0 1 .312.015c.086.035.133.094.137.168.004.078-.035.156-.117.227-.164.148-.445.207-.621.132-.172-.07-.18-.25-.016-.394Zm0 0" style="stroke:none;fill-rule:nonzero;fill:#fff;fill-opacity:1"></path>
      <path d="M22.04 64.348c.097-.086.257-.121.358-.078.102.043.106.144.012.23-.098.086-.258.121-.36.078-.1-.043-.105-.148-.01-.23ZM54.488 58.473l.461 4.32c-.152.008-.289.066-.351.172-.098.156.015.347.25.426.234.078.504.015.601-.145.094-.156-.02-.348-.254-.426a.884.884 0 0 0-.172-.03l-.468-4.317c.16-.008.3-.067.367-.164a.2.2 0 0 0 0-.227.437.437 0 0 0-.254-.168.649.649 0 0 0-.355-.016c-.114.024-.204.075-.25.145a.173.173 0 0 0-.036.133c.008.11.114.215.285.265.055.02.118.028.176.032Zm-.144-.082c-.192-.059-.282-.203-.2-.32a.312.312 0 0 1 .204-.122.587.587 0 0 1 .285.012c.191.059.285.203.207.32-.078.121-.3.168-.496.11Zm0 0" style="stroke:none;fill-rule:nonzero;fill:#fff;fill-opacity:1"></path>
      <path d="M54.29 58.113c.046-.066.175-.093.284-.062.11.035.164.12.117.187-.046.07-.171.098-.285.063-.113-.035-.164-.117-.117-.188ZM38.309 57.95c-.196-.067-.246-.227-.121-.356.128-.13.386-.184.578-.117.195.062.25.222.125.351-.125.133-.387.184-.582.121Zm0 0" style="stroke:none;fill-rule:nonzero;fill:#fff;fill-opacity:1"></path>
      <path d="M37.79 64.348c.16-.18.093-.399-.145-.489a.727.727 0 0 0-.184-.035l1.062-5.847h-.066l-1.07 5.847a.679.679 0 0 0-.461.2c-.16.175-.098.398.14.488.239.093.567.02.723-.164Zm-.083-.032a.558.558 0 0 1-.582.133c-.195-.07-.246-.25-.113-.394a.562.562 0 0 1 .582-.13c.187.071.242.247.113.391Zm0 0" style="stroke:none;fill-rule:nonzero;fill:#fff;fill-opacity:1"></path>
      <path d="M37.223 64.34c-.114-.043-.141-.145-.067-.23a.329.329 0 0 1 .336-.075c.113.04.14.145.067.227a.32.32 0 0 1-.336.078ZM70.523 64.441c.262.082.52.016.575-.148.054-.164-.11-.36-.371-.441-.258-.079-.512-.016-.57.148-.044.121.038.266.195.363l-3.215 3.043a.69.69 0 0 0-.207-.105.716.716 0 0 0-.422-.024c-.13.035-.219.106-.258.203a.31.31 0 0 0-.008.18.469.469 0 0 0 .067.133.683.683 0 0 0 .34.234c.296.102.605.02.68-.183.05-.13-.009-.274-.13-.387l3.219-3.055c.035.012.066.028.105.04Zm-3.347 3.118a.367.367 0 0 1 .054.101.24.24 0 0 1-.007.149c-.059.164-.309.23-.547.148a.581.581 0 0 1-.278-.191c-.058-.082-.074-.172-.043-.25.032-.079.102-.137.207-.164a.6.6 0 0 1 .34.015c.114.04.211.106.274.192ZM75.754 63.48l-3.461 3.524c.176.105.277.27.238.41-.054.18-.324.254-.601.164-.274-.09-.453-.308-.395-.488.055-.18.324-.25.598-.16.031.007.058.02.09.035l3.46-3.52c-.18-.093-.285-.242-.253-.367.043-.156.289-.219.55-.14.262.078.442.269.403.425-.04.16-.29.223-.555.145-.023-.008-.05-.02-.074-.028ZM65.715 53.465l1.812 5.336-1.578 1.3.926 3.036c.246.011.48.16.523.332.043.176-.128.316-.386.308-.258-.007-.5-.16-.543-.336-.04-.164.11-.293.332-.304l-.926-3.055 1.582-1.3-1.8-5.313c-.173.008-.36-.051-.45-.153-.105-.117-.039-.242.148-.28.188-.04.422.023.532.14.105.117.043.242-.145.281-.012.004-.02.004-.027.008ZM37.957 55.477l-1.234 6.136-1.95 1.16c.07.07.094.168.043.266-.086.172-.351.285-.593.25-.243-.031-.364-.2-.274-.371.09-.172.352-.281.59-.25a.427.427 0 0 1 .191.07l1.926-1.144 1.239-6.121c-.137-.016-.25-.075-.282-.164-.043-.125.098-.258.317-.301.215-.043.425.023.468.148.047.13-.093.266-.308.305a.535.535 0 0 1-.133.016ZM31.492 59.727a.342.342 0 0 1-.32.066c-.098-.04-.117-.125-.04-.2a.341.341 0 0 1 .317-.062c.102.035.121.121.043.196ZM32.828 55.387c.18.058.219.207.082.328-.133.12-.39.168-.57.11-.18-.063-.215-.208-.078-.329a.451.451 0 0 1 .125-.078l-.98-.734.366-1.118c-.144-.004-.257-.062-.28-.144-.036-.117.112-.242.323-.285.211-.043.414.015.446.133.035.113-.11.242-.32.285a.513.513 0 0 1-.106.011l-.363 1.102.972.727-.004.003a.626.626 0 0 1 .387-.011Zm0 0" style="stroke:none;fill-rule:nonzero;fill:#fff;fill-opacity:1"></path>
      <path d="M32.605 56.715c.137-.125.102-.278-.082-.34a.646.646 0 0 0-.582.113c-.136.125-.101.278.079.34a.448.448 0 0 0 .144.024l-.758 2.5a.727.727 0 0 0-.48.168.342.342 0 0 0-.094.14c-.035.113.027.227.18.281.101.036.23.043.36.016a.682.682 0 0 0 .323-.156c.078-.078.114-.16.098-.242-.02-.079-.086-.141-.188-.176-.039-.016-.085-.024-.132-.031l.754-2.5a.604.604 0 0 0 .378-.137Zm-1.218 2.695h.035c.047.004.09.012.129.028.082.027.137.078.148.144.016.063-.015.133-.078.191a.534.534 0 0 1-.262.13.61.61 0 0 1-.293-.012c-.171-.063-.199-.215-.066-.34a.551.551 0 0 1 .387-.14ZM24.973 64.535c-.18.168-.489.235-.688.153-.2-.083-.215-.282-.035-.446a.77.77 0 0 1 .563-.18l1.82-4.687-1.106-.96 1-2.411h-.007c-.23.027-.407-.059-.395-.191.012-.133.207-.262.434-.29.23-.027.406.059.394.192-.008.117-.16.23-.355.273l-.993 2.41 1.102.961-1.824 4.72c.02.003.035.007.05.015.2.082.22.277.04.441ZM78.738 56.633a.446.446 0 0 1-.101-.035l-2.645 2.504 1.63 3.332a.786.786 0 0 1 .183.03c.261.075.445.263.41.419-.035.156-.281.219-.543.144-.266-.078-.45-.27-.41-.425.023-.098.14-.16.289-.168l-1.637-3.352 2.656-2.512c-.14-.074-.226-.18-.203-.273.031-.125.246-.172.48-.113.235.062.403.214.376.336-.028.125-.246.175-.485.113ZM55.871 62.309c-.23-.079-.344-.262-.25-.414.094-.149.352-.211.582-.137.23.074.348.258.258.41-.063.102-.195.16-.348.168l.407 3.195a.693.693 0 0 1 .18.031c.25.086.37.297.277.47-.098.171-.375.241-.625.156-.247-.086-.372-.297-.274-.47.067-.113.207-.179.367-.187l-.402-3.195a.657.657 0 0 1-.172-.027ZM60.75 64.203c-.246-.082-.379-.277-.297-.441.086-.16.348-.223.594-.145.246.082.379.278.297.438-.051.105-.188.172-.34.18l1.074 5.292-2.246 2.043c.117.121.164.278.102.414-.098.207-.399.293-.676.188-.278-.102-.422-.352-.32-.559.097-.203.394-.285.667-.183.063.02.118.05.165.086l2.222-2.016-1.066-5.266a.693.693 0 0 1-.176-.03Zm0 0" style="stroke:none;fill-rule:nonzero;fill:#fff;fill-opacity:1"></path>
      <path d="m63.078 58.32 2.766 10.54-3.68 3.495c-.039-.02-.074-.039-.117-.054-.309-.114-.645-.02-.742.21a.328.328 0 0 0-.024.212c.032.175.18.343.403.425a.74.74 0 0 0 .457.028.449.449 0 0 0 .297-.242.387.387 0 0 0-.043-.36.558.558 0 0 0-.16-.172l3.699-3.515-2.786-10.567Zm-1.066 14.063a.575.575 0 0 1 .281.219c.059.097.07.199.031.293a.336.336 0 0 1-.238.19.568.568 0 0 1-.367-.019c-.254-.093-.39-.324-.309-.515.082-.184.352-.262.602-.168Zm0 0" style="stroke:none;fill-rule:nonzero;fill:#fff;fill-opacity:1"></path>
      <path d="M62.637 57.934c.066-.13.304-.184.527-.118.227.067.352.227.285.356-.066.133-.308.187-.531.121-.227-.066-.352-.227-.281-.36ZM48.398 64.355a.64.64 0 0 0 .172.036l.004 5.644 1.82 1.41.055 1.961h.086l-.058-1.988-1.82-1.41-.012-5.621c.16-.008.304-.075.378-.18.118-.164.02-.36-.21-.437-.227-.083-.504-.016-.622.144-.113.164-.023.36.207.441ZM41.738 63.988c-.218-.082-.293-.277-.16-.437.133-.16.418-.223.637-.145.219.078.289.274.16.434a.552.552 0 0 1-.395.18l-.402 3.75 1.465 1.187a.629.629 0 0 1 .578-.066c.242.093.328.324.188.515-.137.192-.45.27-.692.172-.242-.094-.324-.328-.183-.516.015-.019.03-.039.05-.058l-1.488-1.211.41-3.773a.582.582 0 0 1-.168-.032Zm0 0" style="stroke:none;fill-rule:nonzero;fill:#fff;fill-opacity:1"></path>
      <path d="M45.934 73.406h.12l-2.199-1.836.81-11.867a.52.52 0 0 0 .362-.152c.114-.14.04-.309-.168-.38-.207-.066-.468-.01-.586.126-.113.14-.043.308.168.379a.653.653 0 0 0 .157.027l-.828 11.89ZM50.477 55.672c.199.058.289.207.191.328-.063.078-.188.129-.324.137l.125 3.683-1.828 1.227v1.64a.608.608 0 0 1 .168.032c.226.078.32.265.207.422-.11.16-.387.222-.614.144-.226-.078-.316-.27-.203-.426.074-.101.219-.164.371-.172v-1.66l1.832-1.226-.12-3.664a.623.623 0 0 1-.15-.028c-.202-.058-.288-.207-.19-.328.093-.12.335-.172.535-.11ZM39.895 56.84c-.008.012-.02.015-.028.023l2.426 1.68-.379 3.387a.53.53 0 0 1 .152.03c.211.075.282.263.157.415-.13.152-.407.215-.625.137-.215-.075-.282-.262-.153-.414.086-.102.239-.16.395-.168l.383-3.371-2.403-1.66a.648.648 0 0 1-.5.058c-.191-.066-.246-.219-.125-.344.125-.125.375-.175.57-.113.192.063.25.215.13.34ZM43.508 45.621c-.156-.039-.207-.137-.117-.215.09-.078.285-.11.441-.07.156.039.211.137.121.215-.09.078-.289.11-.445.07Zm0 0" style="stroke:none;fill-rule:nonzero;fill:#fff;fill-opacity:1"></path>
      <path d="M42.926 50.594c-.176-.051-.235-.168-.133-.266a.467.467 0 0 1 .309-.11l.527-4.581h.05l-.523 4.582c.047 0 .09.008.13.02.175.046.234.167.132.265-.098.098-.32.137-.492.09ZM43.602 64.105c-.258.028-.48-.101-.497-.28-.02-.177.172-.34.426-.364h.008l.191-2.313-1.52-1.078.755-6.804a.588.588 0 0 1-.14-.024c-.18-.054-.243-.187-.138-.297.106-.105.34-.152.524-.097.18.054.246.187.137.297a.488.488 0 0 1-.325.12l-.742 6.786 1.52 1.078-.188 2.332c.219.004.399.121.414.281.024.176-.168.34-.425.363ZM53.309 56.953c-.207-.062-.305-.215-.211-.34.09-.125.328-.175.535-.113.207.063.304.215.215.34-.086.125-.328.18-.54.113ZM53.523 59.367c-.218-.07-.32-.234-.226-.37.094-.138.344-.192.562-.126.215.066.317.234.227.371-.094.137-.344.196-.563.125Zm0 0" style="stroke:none;fill-rule:nonzero;fill:#fff;fill-opacity:1"></path>
      <path d="m53.066 51.973.414 4.5h-.062l-.41-4.5a.581.581 0 0 1-.14-.02c-.188-.05-.274-.176-.192-.281.086-.102.304-.145.492-.094.187.05.273.176.191.281-.054.067-.168.11-.293.114ZM53.8 65.5c-.015-.18.165-.324.407-.34l-.539-5.91h.07l.547 5.91c.242.016.45.16.469.34.02.191-.18.344-.445.344-.266 0-.493-.153-.508-.344ZM29.137 57.71c.078-.07.113-.148.101-.222-.015-.074-.074-.133-.172-.168a.652.652 0 0 0-.16-.027l2.164-5.996h-.058l-2.172 5.996c-.04.004-.078.008-.117.016a.694.694 0 0 0-.317.14c-.168.145-.14.32.063.39a.526.526 0 0 0 .195.032.759.759 0 0 0 .473-.16Zm-.07-.023a.62.62 0 0 1-.54.106c-.164-.059-.187-.203-.05-.316a.566.566 0 0 1 .253-.118.56.56 0 0 1 .282.012c.078.027.125.074.136.133.012.062-.02.125-.082.184Zm0 0" style="stroke:none;fill-rule:nonzero;fill:#fff;fill-opacity:1"></path>
      <path d="M28.629 57.703c-.094-.035-.11-.117-.031-.183a.361.361 0 0 1 .312-.063c.094.035.106.117.031.184a.361.361 0 0 1-.312.062ZM30.883 51.277c-.16-.054-.192-.175-.063-.273a.633.633 0 0 1 .524-.094c.164.05.191.172.066.274a.639.639 0 0 1-.527.093ZM25.688 72.191l-.403 1.215h.086l.41-1.242-1.406-1.52 3.328-9.332a.69.69 0 0 0 .387-.16c.16-.148.133-.324-.059-.398-.191-.07-.476-.012-.64.133-.16.148-.137.324.054.398a.485.485 0 0 0 .188.031l-3.348 9.356ZM29.066 58.52c-.187-.067-.214-.23-.062-.364a.676.676 0 0 1 .605-.117c.184.063.215.227.067.36a.676.676 0 0 1-.61.12Zm0 0" style="stroke:none;fill-rule:nonzero;fill:#fff;fill-opacity:1"></path>
      <path d="m27.582 71.098.91.945-.398 1.363h.086l.402-1.394-.91-.942 1.707-5.574-1.899-1.758 1.797-5.191h-.066l-1.813 5.215 1.895 1.758ZM30.547 63.355c-.2.141-.496.16-.66.051-.164-.113-.133-.312.07-.449.2-.137.492-.156.656-.047a.215.215 0 0 1 .102.223h1.867l3.258 2.773-.535 2.64h-.078l.53-2.62-3.218-2.742H30.7a.386.386 0 0 1-.152.171ZM46.977 63.863c.062-.082.207-.117.324-.074.117.04.164.145.105.227-.062.086-.207.117-.328.078-.117-.043-.164-.145-.101-.23Zm0 0" style="stroke:none;fill-rule:nonzero;fill:#fff;fill-opacity:1"></path>
      <path d="M46.832 68.883c.273.105.61.02.75-.188.137-.207.031-.457-.238-.558a.755.755 0 0 0-.203-.043l.078-3.793c.18-.008.343-.078.43-.2.128-.18.03-.394-.223-.484-.25-.086-.559-.015-.688.164a.262.262 0 0 0-.058.16c-.008.133.093.262.273.325a.668.668 0 0 0 .192.039l-.086 3.793a.58.58 0 0 0-.457.226.306.306 0 0 0-.063.184c-.008.152.102.3.293.375Zm.168-4.68c-.203-.074-.285-.25-.18-.394.11-.141.36-.2.559-.13.144.051.226.153.226.262a.248.248 0 0 1-.046.13c-.106.144-.356.206-.559.132Zm-.117 4.61c-.219-.083-.305-.29-.188-.454a.472.472 0 0 1 .36-.183v.008h.082v-.008c.05.004.105.011.156.031.219.086.305.285.191.453-.109.168-.382.235-.601.153ZM51.531 54.871c-.011.004-.027.004-.043.004l.438 7.66-2.219 1.586.04 2.176c.19.008.366.098.437.238.09.188-.043.39-.297.453s-.532-.039-.621-.226c-.086-.188.05-.387.3-.45a.981.981 0 0 1 .106-.015l-.04-2.195 2.22-1.59-.422-7.633c-.176.008-.344-.059-.407-.16-.074-.121.032-.254.235-.297.203-.04.43.027.508.148.074.125-.032.258-.235.301ZM49.328 53.348c.106-.121.016-.27-.191-.328a.623.623 0 0 0-.188-.028c-.156 0-.304.051-.379.137-.105.121-.02.27.192.328.05.016.105.023.16.027l.023 3.461-1.53.961a.282.282 0 0 0-.08-.035c-.206-.066-.46-.012-.565.117-.11.133-.028.293.175.36.207.066.465.011.57-.121.079-.102.051-.215-.054-.293l1.55-.973-.03-3.48c.144-.004.28-.051.347-.133Zm-.07-.024c-.086.102-.29.14-.461.09-.172-.047-.238-.168-.156-.266.086-.097.289-.136.457-.09.172.051.242.169.16.266ZM45.152 63.95c-.242-.06-.363-.243-.273-.41.086-.169.351-.263.59-.208.058.012.11.035.152.063l1.406-.95.078-3.011a.723.723 0 0 1-.16-.028c-.207-.07-.289-.238-.18-.375.11-.136.368-.191.579-.125.207.07.289.235.183.371-.074.094-.207.149-.355.157l-.074 3.03-1.43.966c.098.082.133.199.078.308-.09.172-.355.266-.594.211ZM61.488 57.488c-.195.059-.457 0-.582-.129-.125-.129-.066-.285.125-.343a.525.525 0 0 1 .137-.02l-.441-1.89-1.024-.54L59 51.301l-2.125-1.059-.559-3.18a.439.439 0 0 1-.125-.015c-.175-.043-.257-.145-.191-.227.066-.086.262-.12.434-.078.171.043.257.145.191.23-.043.055-.145.087-.258.09l.563 3.168 2.125 1.055.71 3.266 1.02.535.45 1.906c.144.008.288.063.374.149.125.132.07.285-.12.347ZM72.25 63.793a.386.386 0 0 0-.117.016c-.121.027-.2.093-.227.18a.219.219 0 0 0 .008.163.32.32 0 0 0 .07.114.75.75 0 0 0 .34.214c.293.09.574.016.63-.168.054-.18-.134-.394-.423-.484a.793.793 0 0 0-.207-.035l-1.742-4.461 1.578-1.379c.016.004.028.012.04.016.234.066.464.011.51-.121.044-.13-.108-.29-.343-.352-.234-.066-.46-.012-.508.117-.039.11.063.239.239.317l-1.59 1.383Zm.262.098c.164.05.289.152.332.261.02.043.023.086.008.13-.043.148-.274.206-.508.132a.623.623 0 0 1-.278-.172c-.062-.074-.086-.152-.062-.222.023-.07.09-.122.183-.149a.623.623 0 0 1 .325.02ZM71.918 56.832c-.023.066-.14.094-.262.059-.117-.032-.195-.11-.168-.176.024-.063.14-.09.258-.059.117.032.195.114.172.176Zm0 0" style="stroke:none;fill-rule:nonzero;fill:#fff;fill-opacity:1"></path>
      <path d="M72.672 64.227c-.024.085-.156.12-.293.078-.137-.043-.223-.145-.2-.23.028-.083.16-.118.298-.075.132.043.222.145.195.227ZM71.082 55.402l.469 1.094a.436.436 0 0 0-.106.012c-.105.023-.175.074-.203.14a.156.156 0 0 0 .008.125c.043.102.18.204.36.254.253.067.503.012.554-.129.023-.066 0-.144-.07-.214a.701.701 0 0 0-.297-.164 1.003 1.003 0 0 0-.18-.028l-.476-1.101c.09-.024.152-.07.168-.133.03-.125-.125-.262-.348-.317-.223-.05-.43.008-.465.13-.031.12.121.265.348.316.082.02.164.027.238.015Zm.492 1.149.008.015h.063l-.008-.02a.88.88 0 0 1 .14.024.572.572 0 0 1 .243.13c.054.058.074.12.054.175-.043.113-.242.16-.449.102-.203-.055-.336-.192-.293-.305.02-.055.078-.094.16-.113.028-.004.055-.008.082-.008ZM57.695 59.215c-.222-.067-.332-.235-.25-.371.082-.137.328-.188.551-.121.223.066.336.23.254.367-.055.09-.18.144-.324.152l.36 2.16-1.196.91c.105.09.144.211.082.317-.09.156-.356.219-.59.14-.234-.078-.352-.265-.258-.417.09-.153.352-.215.586-.141.047.016.09.039.125.062l1.176-.89-.352-2.137a.81.81 0 0 1-.164-.031ZM56.988 63.656c.047-.082.188-.117.313-.074.12.04.187.14.14.227-.046.082-.187.117-.312.074-.125-.043-.188-.145-.14-.227Zm0 0" style="stroke:none;fill-rule:nonzero;fill:#fff;fill-opacity:1"></path>
      <path d="M58.625 70.617c.047.219.313.395.598.383.285-.012.472-.203.422-.426-.047-.207-.286-.367-.547-.375l-.29-1.851-.992-.668-.515-3.586c.176-.012.328-.082.394-.2a.258.258 0 0 0-.011-.273.546.546 0 0 0-.29-.207.74.74 0 0 0-.39-.02.418.418 0 0 0-.27.18c-.101.176.032.395.297.485a.82.82 0 0 0 .196.035l.515 3.613.992.668.282 1.828c-.262.02-.438.2-.391.414Zm-1.559-6.625c-.152-.05-.25-.152-.265-.262a.192.192 0 0 1 .023-.128.363.363 0 0 1 .219-.145.623.623 0 0 1 .316.016.407.407 0 0 1 .23.168.21.21 0 0 1 .013.222c-.079.14-.32.2-.536.13ZM29.035 62.234l6.567-3.664a.385.385 0 0 0 .09.043.72.72 0 0 0 .355.02.61.61 0 0 0 .3-.153c.15-.148.094-.328-.12-.398-.211-.074-.504-.016-.653.133a.278.278 0 0 0-.082.129.205.205 0 0 0 .067.195l-6.59 3.676-.203.62a.722.722 0 0 0-.41.153c-.18.153-.172.348.019.438.188.09.488.039.668-.114.176-.152.164-.347-.023-.433a.47.47 0 0 0-.184-.043Zm6.707-3.672c-.082-.027-.14-.078-.156-.14-.02-.059.004-.125.062-.184a.55.55 0 0 1 .528-.105c.125.039.18.125.16.215a.2.2 0 0 1-.063.105.539.539 0 0 1-.531.11Zm0 0" style="stroke:none;fill-rule:nonzero;fill:#fff;fill-opacity:1"></path>
      <path d="M35.781 58.285c.067-.07.203-.097.305-.062.102.035.125.117.055.187a.325.325 0 0 1-.305.063c-.102-.035-.125-.121-.055-.188ZM23.648 57.133c-.074-.028-.117-.074-.125-.133-.003-.059.032-.117.102-.172a.635.635 0 0 1 .266-.117c.101-.02.199-.012.273.012.156.058.168.195.027.308-.144.114-.386.16-.543.102Zm0 0" style="stroke:none;fill-rule:nonzero;fill:#fff;fill-opacity:1"></path>
      <path d="M23.742 56.871c.086-.066.223-.094.313-.059.093.032.097.11.015.176a.366.366 0 0 1-.312.063c-.09-.035-.098-.114-.016-.18Zm0 0" style="stroke:none;fill-rule:nonzero;fill:#fff;fill-opacity:1"></path>
    </g>
  </defs>
  <path d="M48.973 8.32 10.758 25.316V79.77c0 8.039 6.426 15.859 19.097 23.25 9.25 5.39 18.336 8.472 18.72 8.601l.398.133.394-.133c.383-.129 9.473-3.21 18.719-8.601 12.676-7.391 19.102-15.211 19.102-23.25V25.316Zm35.734 71.45c0 16.171-31.793 27.972-35.734 29.37-3.946-1.398-35.735-13.199-35.735-29.37V26.918l35.735-15.89 35.734 15.89Zm0 0" style="stroke:none;fill-rule:nonzero;fill:#fff;fill-opacity:1"></path>
  <path d="M48.973 8.32 10.758 25.316V79.77c0 8.039 6.426 15.859 19.097 23.25 9.25 5.39 18.336 8.472 18.72 8.601l.398.133.394-.133c.383-.129 9.473-3.21 18.719-8.601 12.676-7.391 19.102-15.211 19.102-23.25V25.316Zm35.734 71.45c0 16.171-31.793 27.972-35.734 29.37-3.946-1.398-35.735-13.199-35.735-29.37V26.918l35.735-15.89 35.734 15.89Zm0 0" style="stroke:none;fill-rule:nonzero;fill:#fff;fill-opacity:1"></path>
  <path d="m48.973 104.535-.403-.152c-3.152-1.203-9.351-3.758-15.433-7.324-4.848-2.844-8.657-5.746-11.32-8.63-2.813-3.046-4.235-5.96-4.235-8.66V29.724l31.39-13.961.454.203 30.937 13.758V79.77c0 2.703-1.425 5.613-4.238 8.66-2.664 2.882-6.473 5.785-11.32 8.629-6.082 3.566-12.282 6.12-15.434 7.324Zm-29.16-73.37V79.77c0 2.125 1.226 4.535 3.648 7.156 2.516 2.722 6.152 5.488 10.809 8.219 5.699 3.34 11.507 5.773 14.703 7.011 3.191-1.238 9-3.672 14.699-7.011 4.66-2.73 8.297-5.497 10.808-8.22 2.422-2.62 3.649-5.027 3.649-7.155V31.164L48.969 18.2Zm0 0" style="stroke:none;fill-rule:nonzero;fill:#fff;fill-opacity:1"></path>
  <path d="M26.082 39.027c-1.383 0-2.398-1.066-2.398-2.468 0-1.422 1.015-2.368 2.398-2.368h2.68v1.04h-2.68c-.781 0-1.355.578-1.355 1.382 0 .797.566 1.375 1.355 1.375h2.68v1.04ZM31.578 39.027V37.27l-2.531-3.079h1.394l1.7 2.137 1.699-2.137h1.32l-2.539 3.079v1.757ZM35.594 39.027v-4.836h3.574c.984 0 1.64.426 1.64 1.262 0 .586-.288.871-.562 1 .367.152.656.531.656 1.035 0 .961-.648 1.54-1.605 1.54Zm1.644-2.05v-.817h1.95c.382 0 .554-.152.554-.465 0-.36-.265-.472-.715-.472h-2.39v2.773h2.472c.442 0 .73-.16.73-.512 0-.32-.202-.507-.577-.507ZM41.574 39.027v-4.836h4.41v1.04H42.61v2.757h3.383v1.04Zm1.645-2.05v-.817h2.578v.817ZM50.988 39.027l-1.183-1.32h-1.508v-.883h1.883c.508 0 .789-.297.789-.812 0-.512-.297-.782-.79-.782h-2.492v3.797h-1.035v-4.836h3.528c1.136 0 1.808.7 1.808 1.797 0 .79-.37 1.34-.98 1.582l1.457 1.457ZM59.172 39.027l-1.184-1.316H56.48v-.887h1.883c.508 0 .79-.297.79-.808 0-.512-.294-.786-.79-.786h-2.492v3.797h-1.035v-4.836h3.527c1.137 0 1.813.7 1.813 1.797 0 .79-.375 1.344-.985 1.582l1.457 1.457ZM61.07 39.027v-4.836h1.043v4.836ZM62.934 39.027v-1.039h3.668c.375 0 .59-.191.59-.5 0-.324-.215-.511-.59-.511h-2.2c-.953 0-1.543-.57-1.543-1.391 0-.797.547-1.395 1.559-1.395h3.516v1.04h-3.516c-.293 0-.477.164-.477.464 0 .297.188.465.477.465h2.184c1.023 0 1.57.453 1.57 1.418 0 .828-.512 1.45-1.57 1.45ZM68.832 39.027v-4.836h1.043v4.836Zm3.918 0-2.387-2.05c-.18-.153-.215-.278-.215-.426 0-.172.063-.305.262-.473l2.246-1.887h1.555l-2.887 2.368 2.98 2.468ZM36.43 45.36l-.66-1.114h-1.997l.461-.781h1.067l-.864-1.453-1.984 3.347h-1.152l2.687-4.445c.117-.195.266-.324.489-.324.218 0 .367.129.484.324l2.687 4.445ZM40.328 43.871l-.656 1.238a.565.565 0 0 1-.516.317.584.584 0 0 1-.527-.317l-2.406-4.453h1.21l1.755 3.352.624-1.113-1.164-2.239h1.215l1.653 3.352 1.761-3.352h1.141l-2.414 4.453a.577.577 0 0 1-.52.317.555.555 0 0 1-.52-.317ZM48.176 45.36l-.664-1.114h-1.996l.46-.781h1.067l-.863-1.453-1.985 3.347h-1.152l2.687-4.445c.118-.195.266-.324.489-.324.218 0 .37.129.488.324l2.684 4.445ZM54.055 45.36l-1.153-1.282h-1.468v-.863h1.832c.496 0 .77-.29.77-.79 0-.495-.29-.76-.77-.76H50.84v3.694h-1.008v-4.707h3.434c1.105 0 1.761.68 1.761 1.746 0 .774-.363 1.309-.953 1.543l1.418 1.418ZM55.855 45.36v-4.708h2.782c1.36 0 2.34.942 2.34 2.305 0 1.367-.98 2.402-2.34 2.402Zm2.782-1.008c.77 0 1.328-.567 1.328-1.34 0-.785-.559-1.348-1.328-1.348h-1.774v2.688ZM61.59 45.36v-1.008h3.57c.363 0 .57-.188.57-.489 0-.316-.207-.496-.57-.496h-2.14c-.93 0-1.504-.558-1.504-1.355 0-.778.535-1.36 1.515-1.36h3.422v1.012h-3.422c-.285 0-.46.16-.46.453 0 .29.179.453.46.453h2.13c.991 0 1.526.438 1.526 1.38 0 .808-.503 1.41-1.527 1.41ZM41.984 27.926l1.485-1.332c.152-.137.34-.301.34-.532 0-.257-.22-.414-.47-.414-.296 0-.476.211-.495.485l-.813-.059c.051-.785.602-1.168 1.352-1.168.699 0 1.238.383 1.238 1.145 0 .492-.21.77-.504 1.023l-1.16.996h1.695v.711H41.98v-.855ZM47.063 24.906c1.132 0 1.421 1.067 1.421 1.969 0 .906-.289 1.969-1.422 1.969-1.136 0-1.421-1.063-1.421-1.969-.004-.902.285-1.969 1.422-1.969Zm0 3.196c.582 0 .609-.829.609-1.227 0-.398-.027-1.227-.61-1.227-.585 0-.613.829-.613 1.227 0 .398.028 1.227.614 1.227ZM49.469 27.926l1.484-1.332c.152-.137.34-.301.34-.532 0-.257-.223-.414-.469-.414-.297 0-.476.211-.496.485l-.812-.059c.047-.785.601-1.168 1.351-1.168.696 0 1.238.383 1.238 1.145 0 .492-.21.77-.503 1.023l-1.164.996h1.699v.711h-2.672v-.855ZM53.207 27.926l1.488-1.332c.153-.137.34-.301.34-.532 0-.257-.219-.414-.469-.414-.296 0-.476.211-.5.485l-.808-.059c.047-.785.597-1.168 1.351-1.168.696 0 1.239.383 1.239 1.145 0 .492-.211.77-.504 1.023l-1.164.996h1.699v.711h-2.672ZM26.89 80.07l2.137 3.602h-4.789l-.277-.477 4.207-.004-1.574-2.605Zm0 0" style="stroke:none;fill-rule:nonzero;fill:#fff;fill-opacity:1"></path>
  <path d="M25.45 82.64c-.063 0-.637.024-.637.024l2.042-3.57 2.47 4.094-.298.484-2.136-3.602Zm0 0" style="stroke:none;fill-rule:nonzero;fill:#fff;fill-opacity:1"></path>
  <path d="M26.855 79.094h-.52l-2.343 4.05 4.176.047-.32-.527-3.043-.012Zm0 0" style="stroke:none;fill-rule:nonzero;fill:#fff;fill-opacity:1"></path>
  <path d="M24.238 83.73a.061.061 0 0 1-.05-.03l-.278-.477a.076.076 0 0 1 0-.059.067.067 0 0 1 .05-.027h4.102l-1.519-2.52a.047.047 0 0 1 0-.055l.293-.519a.061.061 0 0 1 .05-.031c.02.004.04.011.052.031l2.136 3.602a.047.047 0 0 1 0 .054c-.008.02-.027.031-.05.031Zm-.175-.48.21.367h4.653l-2.035-3.433-.23.402 1.554 2.578c.012.016.012.04.004.059a.067.067 0 0 1-.051.027Zm0 0" style="stroke:none;fill-rule:nonzero;fill:#fff;fill-opacity:1"></path>
  <path d="M29.027 83.73a.061.061 0 0 1-.05-.03l-2.086-3.516-1.383 2.425 2.34-.004c.02 0 .039.012.05.028l.32.535c.012.02.012.039 0 .059-.007.015-.027.027-.05.027h-4.207a.054.054 0 0 1-.047-.027.053.053 0 0 1 0-.059l2.371-4.102a.061.061 0 0 1 .05-.03l.52.003c.016 0 .032.004.04.016 0 0 .003 0 0 0 0 .004.003.004.003.004l2.47 4.093c.01.016.01.04 0 .059l-.298.48c-.004.028-.023.04-.043.04Zm-2.136-3.718c.02 0 .039.011.047.027l2.09 3.523.226-.374-2.399-3.981-1.96 3.402.48-.004 1.46-2.562c.017-.02.032-.031.056-.031Zm-2.828 3.129h4.003l-.25-.418h-3.02c-.007-.004-.007 0-.01 0-.005-.004-.009-.004-.013-.008-.007-.004-.015-.008-.02-.02a.047.047 0 0 1 0-.054l2.009-3.485-.387-.004ZM32.836 82.152h-.211l-.332-.738h-1.8l-.337.738h-.21l1.406-3.07h.078Zm-1.445-2.75-.832 1.852h1.664ZM33.016 81.133c0-.598.37-1.063 1.015-1.063.356 0 .606.114.793.25v-1.187l.184-.04v3.06h-.184v-.56c-.172.481-.62.606-.879.606-.613 0-.93-.46-.93-1.066Zm.949.894c.293 0 .86-.191.86-1.039v-.476a1.21 1.21 0 0 0-.774-.274c-.547 0-.852.395-.852.903 0 .511.262.886.766.886ZM36.324 82.18l-1.047-2.075h.207l.868 1.754.863-1.754h.207l-1.043 2.075ZM37.914 80.098v2.047h-.187v-2.047ZM39.777 80.414c-.152-.117-.414-.18-.617-.18-.254 0-.555.086-.555.352 0 .582 1.313.254 1.313 1.023 0 .399-.36.59-.79.59-.202 0-.51-.047-.812-.246.036-.043.094-.121.106-.133.242.16.523.211.703.211.352 0 .613-.133.613-.41 0-.61-1.308-.293-1.308-1.039 0-.375.39-.516.734-.516.23 0 .5.075.645.172a2.763 2.763 0 0 0-.032.176ZM40.406 81.14c0 .567.336.891.89.891a1 1 0 0 0 .65-.226l.093.144c-.262.184-.465.25-.742.25-.668 0-1.07-.406-1.07-1.07 0-.645.418-1.063.976-1.063.52 0 .848.336.902.793.008.098.008.207.008.282Zm.012-.156h1.527c-.004-.5-.336-.754-.742-.754-.41 0-.738.274-.785.754ZM44.238 82.152v-1.066c0-.574-.191-.856-.668-.856-.297 0-.816.165-.816.91v1.012h-.188v-2.047h.188v.493c.168-.438.59-.535.84-.535.586 0 .832.374.832 1.023v1.07h-.188ZM35.258 83.414h-.281l-.051.14h-.114l.266-.679h.09l.262.68h-.121Zm-.246-.09h.21l-.105-.289ZM35.867 83.465h.336v.09h-.48V83.5l.312-.531h-.305v-.094h.45v.059ZM36.465 83.555v-.293l-.219-.387h.129l.145.277h.003l.145-.277h.121l-.223.395v.285ZM37.453 83.371h.004l.137-.496h.113l-.195.68h-.106l-.133-.496h-.003l-.141.496h-.102l-.187-.68h.113l.133.496.14-.496h.098ZM38.129 83.414h-.277l-.051.14h-.114l.266-.679h.09l.258.68h-.121Zm-.242-.09h.21l-.105-.289ZM38.613 83.555h-.086l-.261-.68h.12l.188.523h.004l.188-.523h.117ZM38.969 83.555v-.68h.418v.094h-.313v.191h.313v.09h-.313v.215h.313v.09ZM40.113 83.473c.051 0 .102-.016.149-.047l.058.074a.362.362 0 0 1-.207.066c-.203 0-.367-.136-.367-.351 0-.2.164-.352.367-.352.07 0 .133.02.188.059l-.047.078a.259.259 0 0 0-.14-.043.247.247 0 0 0-.255.258c-.004.16.102.258.254.258ZM40.71 83.566a.348.348 0 0 1-.35-.351c0-.195.152-.352.35-.352a.351.351 0 1 1 0 .703Zm0-.609c-.14 0-.237.113-.237.258 0 .144.101.258.238.258.14 0 .242-.114.242-.258 0-.145-.101-.258-.242-.258ZM41.598 83.555h-.07L41.304 83v.555h-.106v-.68h.164l.2.52.207-.52h.16v.68h-.106V83ZM42.309 82.875c.109 0 .242.059.242.207s-.13.207-.242.207h-.102v.266h-.105v-.68Zm-.102.32h.078c.09 0 .156-.027.156-.11 0-.073-.058-.116-.14-.116h-.094ZM42.98 83.414h-.277l-.05.14h-.118l.27-.679h.086l.261.68h-.12Zm-.246-.09h.215l-.105-.289h-.004ZM43.71 83.555l-.358-.485v.485h-.106v-.68h.094l.36.488v-.488h.1v.68ZM44.11 83.555v-.293l-.22-.387h.13l.144.277h.004l.145-.277h.12l-.222.395v.285ZM62.746 79.293c-.074.168-.152.34-.23.512-.184.41-.371.82-.555 1.234l-.375.82-.106.239a.854.854 0 0 1-.042.078c-.274-.602-.547-1.196-.82-1.785h-.016c-.27.59-.54 1.183-.813 1.789-.402-.88-.797-1.746-1.195-2.63-.196.427-.383.84-.578 1.263l-.114-.254-.03-.067c-.052-.07-.036-.137 0-.21.14-.305.276-.61.417-.919.012-.023.023-.047.04-.07h.566c.003.012.011.027.015.043.25.57.504 1.144.754 1.719.04.09.078.183.125.285l.824-1.805.828 1.805c.012-.028.02-.04.028-.055.246-.547.492-1.086.738-1.629.055-.12.105-.242.16-.367.125.004.254.004.38.004ZM56.957 79.293c.035.074.066.148.102.223l.644 1.418c.024.05.043.101.07.152.024.039.02.074 0 .113-.214.465-.425.934-.64 1.395-.051.12-.106.238-.16.355-.012.031-.024.047-.063.047-.219-.004-.437-.004-.66-.004h-.047c.059-.129.113-.254.172-.375.066-.156.137-.308.203-.46.055-.122.113-.243.168-.364.09-.195.18-.39.266-.586.015-.035.035-.066.015-.11a8.437 8.437 0 0 1-.199-.425l-.293-.656c-.11-.243-.219-.48-.328-.723h.75ZM64.156 79.293c.18.394.36.793.54 1.191l.34.746c.14.305.28.614.417.918.004.008.004.016.012.032-.125 0-.242 0-.36-.004-.015 0-.03-.024-.039-.043-.062-.125-.117-.258-.175-.387-.028-.058-.055-.113-.082-.176-.008-.027-.028-.035-.055-.035H63.68c-.09 0-.18.004-.274 0-.031 0-.047.012-.062.04-.082.19-.172.382-.258.573-.004.012-.02.028-.031.028-.117.004-.235 0-.36 0 .024-.055.04-.102.063-.149.133-.289.265-.578.394-.863l.364-.8c.136-.302.273-.602.41-.9l.07-.171h.16Zm-.633 1.898h1.122c-.188-.406-.375-.812-.563-1.226-.187.414-.371.82-.559 1.226ZM55.707 79.293c-.152.23-.3.46-.453.695-.39.598-.781 1.196-1.176 1.793-.008.012-.012.028-.023.043h1.804c-.02.051-.039.09-.054.133-.028.059-.055.121-.082.18-.008.011-.032.031-.047.031h-2.188c-.004 0-.008 0-.015-.004-.008-.043-.008-.082.02-.121.253-.383.503-.766.757-1.152.172-.262.344-.528.516-.793l.304-.465h-1.535c.043-.094.078-.176.117-.258.012-.027.024-.055.032-.082h2.023ZM70.375 81.832c.012.106-.063.176-.098.266-.023.066-.062.082-.132.082-.442-.004-.883-.004-1.325-.004h-.066V79.289h1.621c.004.129-.086.223-.137.328-.008.008-.035.012-.05.012-.34.004-.68.004-1.02.004h-.063v.87h1.036v.345H69.156a.229.229 0 0 0-.05.007v.961a.229.229 0 0 0 .05.008h1.156c.02.004.04.004.063.008ZM65.855 79.293c.313.68.622 1.36.934 2.05.316-.69.625-1.37.934-2.05h.382c-.101.227-.207.453-.312.68l-.27.59c-.16.351-.316.703-.48 1.058-.078.172-.156.348-.238.524-.004.007-.008.015-.02.03-.035-.081-.07-.155-.105-.23-.082-.175-.16-.351-.243-.527l-.433-.965a58.017 58.017 0 0 1-.395-.863c-.046-.098-.09-.2-.132-.297h.378ZM68.156 83.387c.008 0 .016-.004.02-.004.078 0 .078 0 .094.07.03.113.062.23.101.348.016-.059.035-.114.05-.172.02-.07.044-.14.06-.211.007-.035.03-.031.058-.031.031-.004.035.011.043.035l.094.36c0 .003.004.011.011.027l.102-.356c.02-.07.02-.07.106-.066-.016.058-.032.113-.047.172-.032.117-.067.234-.102.355-.02.066-.02.066-.101.059-.036-.137-.07-.274-.11-.414h-.012c-.015.058-.035.113-.05.171-.02.063-.035.122-.051.184-.02.066-.024.066-.102.059-.054-.196-.11-.387-.164-.586ZM60.246 83.39c.05-.019.078 0 .106.04.086.12.175.238.261.355.004.008.012.012.024.028v-.422h.082v.046c0 .16.004.32 0 .485 0 .016-.008.043-.02.05-.027.016-.054.005-.074-.023a41.367 41.367 0 0 0-.191-.261.779.779 0 0 0-.106-.126V83.903c0 .075 0 .075-.078.07-.004-.195-.004-.386-.004-.581ZM63.7 83.383c.054-.012.081.02.112.058.079.114.16.22.239.329.008.011.02.02.035.039V83.387h.082c0 .015.004.035.004.05 0 .157 0 .313-.004.47 0 .023-.008.054-.023.062-.028.015-.055 0-.075-.028-.097-.132-.191-.257-.285-.386h-.008V83.96h-.082v-.172c0-.133 0-.27.004-.406ZM66.902 83.723c.059.082.118.16.176.242-.082.023-.105.015-.152-.047l-.117-.172c-.012-.012-.032-.016-.043-.023-.008.015-.02.03-.02.047v.168c.004.042-.02.039-.047.039-.031 0-.05 0-.05-.04.003-.171 0-.343.003-.515 0-.012.012-.035.024-.035.074 0 .152-.004.226.008.086.011.13.07.137.152.008.062-.039.133-.105.164-.012.004-.02.004-.032.012Zm-.101-.075c.027-.003.054-.007.078-.015.043-.016.07-.059.062-.094-.015-.055-.09-.09-.168-.078-.05.008-.02.05-.027.074-.004.02 0 .04 0 .059-.004.039.008.062.055.054ZM66.316 83.867a.31.31 0 0 1-.242.117c-.176 0-.312-.109-.316-.304 0-.118.078-.239.176-.274a.308.308 0 0 1 .367.074.352.352 0 0 1-.047.04c-.05-.02-.094-.043-.14-.06-.157-.042-.286.103-.266.25a.223.223 0 0 0 .351.157.114.114 0 0 0 .028-.047c.003-.03 0-.062 0-.097h-.141c0-.024-.004-.047-.004-.07h.234v.214ZM67.316 83.676c0-.18.125-.301.305-.301.168 0 .3.137.297.305-.004.195-.14.3-.305.304a.293.293 0 0 1-.297-.308Zm.516.004c0-.133-.09-.23-.215-.23-.12 0-.215.1-.215.23 0 .12.094.226.211.226.121.004.219-.097.219-.226ZM65.047 83.867a.307.307 0 0 1-.25.117c-.176-.007-.305-.12-.309-.304 0-.137.086-.243.192-.285a.322.322 0 0 1 .351.082c-.047.054-.05.054-.105.015a.217.217 0 0 0-.25-.004c-.082.051-.117.149-.09.254.023.09.082.14.176.16a.245.245 0 0 0 .18-.043.058.058 0 0 0 .015-.035v-.101h-.133a.479.479 0 0 0-.008-.075h.23v.22ZM62.555 83.383c.078.004.152 0 .226.012.094.015.145.07.149.152.008.074-.043.14-.14.176.062.078.116.156.175.234-.043.035-.09.027-.121-.016-.043-.062-.086-.125-.133-.187-.016-.016-.04-.024-.07-.043v.195c0 .074-.004.074-.082.067-.004-.196-.004-.387-.004-.59Zm.086.265h.101c.008 0 .016-.003.024-.007.047-.012.078-.047.078-.086 0-.043-.04-.086-.086-.094-.04-.004-.078 0-.117 0v.187ZM70.2 83.383h.073c.004.16.004.32.004.48v.102h-.082c0-.047.004-.09 0-.133 0-.043-.004-.086-.007-.125h-.297v.2c0 .073 0 .073-.082.066v-.582c.074-.02.082-.012.082.058v.176h.296c.004-.016.008-.031.008-.043.004-.066.004-.133.004-.2ZM62.121 83.387h.086c-.008.156.02.308-.027.465-.028.093-.164.152-.25.125-.125-.036-.172-.086-.176-.215-.004-.125-.004-.246-.004-.375h.086v.093c0 .094-.004.188 0 .282.004.082.059.14.129.144.066.008.137-.047.148-.125a.758.758 0 0 0 .008-.133c.004-.085 0-.171 0-.261ZM61.016 83.887a.381.381 0 0 0 .054-.043c.051.023.094.047.137.058.05.016.09-.004.121-.039.043-.043.031-.101-.031-.129-.047-.023-.098-.043-.145-.062-.058-.024-.097-.078-.093-.137 0-.062.023-.117.086-.144.078-.036.203-.012.27.046-.036.063-.036.055-.102.032a.227.227 0 0 0-.126-.004c-.054.012-.062.086-.015.113.035.02.074.031.11.047.034.02.073.031.1.055.087.062.075.199-.015.261-.113.079-.273.04-.351-.054ZM69.293 83.457h-.148v-.07h.375v.07h-.145v.449c0 .07 0 .074-.082.067v-.516ZM63.262 83.973v-.586h.082v.519c0 .07-.004.074-.082.067ZM59.816 83.383h.075c0 .156 0 .312.004.469v.113h-.083v-.059c0-.176.004-.347.004-.523Zm0 0" style="stroke:none;fill-rule:nonzero;fill:#fff;fill-opacity:1"></path>
  <path d="M65.047 83.867v-.219h-.23c.003.028.007.051.007.075a.479.479 0 0 1-.008-.075c0-.003.032-.011.051-.011.051 0 .102-.004.153 0 .011 0 .03.011.03.02.005.07 0 .14-.003.21ZM66.316 83.867v-.215h-.234c.008-.004.016-.015.027-.015h.184c.012 0 .031.011.031.02 0 .07-.004.14-.008.21Zm0 0" style="stroke:none;fill-rule:nonzero;fill:#fff;fill-opacity:1"></path>
  <path d="M375.93 281.46h124.484" style="fill:none;stroke-width:3.3349;stroke-linecap:butt;stroke-linejoin:miter;stroke:#fff;stroke-opacity:1;stroke-miterlimit:10" transform="matrix(.11162 0 0 .11111 .024 0)"></path>
  <path d="M71.168 67.059h-1.074v1.691h.969c.601 0 1.382-.023 1.382-.832 0-.746-.675-.86-1.277-.86Zm0 0" style="stroke:none;fill-rule:nonzero;fill:#fff;fill-opacity:1"></path>
  <path d="M78.23 62.133v-6.586l.141-.07c0-.086-.11-.07-.11-.07h-.195V53.84h-.074l-.062-.098v-.281l-.043-.086-.028-.387-.043-.05-.039-.438-.054-.043-.059-.418-.035-.027-.027-.535-.063-.059-.027-.387-.04-.035v-.45l-.054-.241-.074-1.672-.055 1.672-.055.242v.45l-.043.034-.027.387-.059.059-.027.535-.039.027-.059.418-.054.043-.035.438-.047.05-.028.387-.043.086v.281l-.062.098h-.074v1.566h-.196s-.109-.015-.109.07l.14.07v5.97l-1.05-.125v-1.567l-1.09-.023.012-5.805h-.52c-.496-.926-.988-.394-1.234 0h-.57l.003 3.965-.312.117v2.781l-1.535.012v.914l-1.293.055-.008-5.426-.414-.184-1.84-.14-.016 3.687h-.355v2.414h-.883v-6.316l-2.066.23-.016 5.727H62.5v-.996h-.867v-2.43h-1.438l-.367.176v1.277h-.918v-.379h-.746v-1.914h-.32v-.129h-1.371v.13h-.309v3.011h-.746v.871h-.512v-6.898h-.097v-1.633h-.098l.016-.105h-.11v-.739h-.094v-.367h-.191v-.258l.02-.113h-.305v-.156h-.05l-.06-.473h-.082v-.316h-.046v-1.098s-.024-.168 0-.203v-.063l-.047-.03v-.126l-.094-.168h-.047v-.894h-.144v.894h-.036l-.105.156v.13l-.05.03v.063c.03.031 0 .203 0 .203v1.106h-.048v.316h-.035l-.058.473h-.094v.156h-.309l.024.105v.266h-.192v.367h-.094v.739h-.066l.016.105h-.14v1.633h-.099v7.578l-1.246.004v-4.516l-2.336-.484v4.187h-1.187v-.863h-.434l-.285-.648h-.363v-5.403H46v-.152h-1.531v.152h-.34v5.485h-.992v-3.278l-.805-2.492-.77 2.492v2.246h-.914v3.274h-.816v-6.598l-.457-.21h-1.941v3.542h-.52v2.258h-.516v-4.762l-1.214-.207-.457.207v5.832H34v-9.101l-1.61-.2-.761.387v2.715l-.664.379v4.434h-.399l-.261-14.274h-.535c.16 0 .257-.133.257-.133a2.367 2.367 0 0 0-.96-.254c.011-.421.05-2.25-.114-4.066v-.055c-.168 1.825-.125 3.68-.113 4.106a2.715 2.715 0 0 0-1.055.273c.078.035.16.13.238.13h-.398l-.188 12.718h-.667v-5.902l-.422-.235h-1.692l-.422.184v2.883h-.472v.894l-.422.102v3.543h-.512v-.996h-.476V58.02l-.579-.13H19.95v3.07l-.394.13v1.105h-.86v14.016h60.551V62.184ZM31.973 73.105h-1.465l-1.645-5.144h-.023l-1.645 5.144h-1.414l-2.215-7.433h1.793l1.196 4.766h.02l1.562-4.766h1.531l1.547 4.89h.023l1.254-4.89h1.668Zm5.863 0H36.19v-7.433h1.645Zm9.898 0h-2.152l-3.262-5.293h-.02v5.293h-1.648v-7.433h2.239l3.175 5.164h.02v-5.164h1.648Zm9.914 0h-2.152l-3.262-5.293h-.02v5.293H50.57v-7.433h2.235l3.175 5.164h.024v-5.164h1.644Zm8.164 0h-5.265v-7.433h5.074v1.512h-3.43v1.386h3.243v1.512H62.19v1.512h3.621Zm6.653 0-1.559-2.972h-.816v2.972h-1.645v-7.433h2.89c1.532 0 2.817.523 2.817 2.258 0 1.039-.558 1.847-1.613 2.035l1.898 3.14Zm0 0" style="stroke:none;fill-rule:nonzero;fill:#fff;fill-opacity:1"></path>
  <g clip-path="url(#c)">
    <use xlink:href="#d" mask="url(#e)"></use>
  </g>
</svg>
