<svg width="375" height="900" viewBox="0 0 375 900" fill="none" xmlns="http://www.w3.org/2000/svg">
<rect opacity="0.2" x="12" width="350" height="900" rx="8" fill="url(#paint0_linear)"/>
<g style="mix-blend-mode:overlay" opacity="0.5">
<path fill-rule="evenodd" clip-rule="evenodd" d="M318.842 64.8079V57.1718H330.707V27.6359H330.139L321.177 39.3748L315.119 34.6408L325.658 20.7568H340.173V57.1718H349.513V64.8079H318.842Z" fill="white"/>
</g>
<g style="mix-blend-mode:overlay" opacity="0.5">
<path fill-rule="evenodd" clip-rule="evenodd" d="M293.977 65.5652C288.213 65.5652 283.942 63.5667 281.166 59.5698C278.389 55.573 277 49.977 277 42.783C277 35.588 278.389 29.992 281.166 25.995C283.942 21.999 288.213 20 293.977 20C299.741 20 304.011 21.999 306.788 25.995C309.565 29.992 310.953 35.588 310.953 42.783C310.953 49.977 309.565 55.573 306.788 59.5698C304.011 63.5667 299.741 65.5652 293.977 65.5652ZM293.977 57.55C296.501 57.55 298.247 56.625 299.215 54.773C300.183 52.922 300.666 50.314 300.666 46.948V38.617C300.666 35.252 300.183 32.643 299.215 30.792C298.247 28.941 296.501 28.015 293.977 28.015C291.452 28.015 289.706 28.941 288.739 30.792C287.771 32.643 287.287 35.252 287.287 38.617V46.948C287.287 50.314 287.771 52.922 288.739 54.773C289.706 56.625 291.452 57.55 293.977 57.55Z" fill="white"/>
</g>
<path fill-rule="evenodd" clip-rule="evenodd" d="M21.9997 145.007C21.9957 145.556 21.5487 146.001 20.9997 146.001C20.4497 146.001 20.0027 145.556 19.9997 145.007L19.9997 145C19.9997 144.448 20.4477 144 20.9997 144C21.5517 144 21.9997 144.448 21.9997 145L21.9997 145.007ZM21.9997 187.007C21.9957 187.556 21.5487 188.001 20.9997 188.001C20.4497 188.001 20.0027 187.556 19.9997 187.007L19.9997 187.001C19.9997 186.449 20.4477 186.001 20.9997 186.001C21.5517 186.001 21.9997 186.449 21.9997 187.001L21.9997 187.007ZM21.9997 181.007C21.9957 181.556 21.5487 182.001 20.9997 182.001C20.4497 182.001 20.0027 181.556 19.9997 181.007L19.9997 181C19.9997 180.449 20.4477 180 20.9997 180C21.5517 180 21.9997 180.449 21.9997 181L21.9997 181.007ZM21.9997 139.007C21.9957 139.556 21.5487 140 20.9997 140C20.4497 140 20.0027 139.556 19.9997 139.007L19.9997 139C19.9997 138.448 20.4477 138 20.9997 138C21.5517 138 21.9997 138.448 21.9997 139L21.9997 139.007ZM21.9997 175.007C21.9957 175.556 21.5487 176.001 20.9997 176.001C20.4497 176.001 20.0027 175.556 19.9997 175.007L19.9997 175.001C19.9997 174.449 20.4477 174.001 20.9997 174.001C21.5517 174.001 21.9997 174.449 21.9997 175.001L21.9997 175.007ZM21.9997 109.007C21.9957 109.556 21.5487 110.001 20.9997 110.001C20.4497 110.001 20.0027 109.556 19.9997 109.007L19.9997 109.001C19.9997 108.449 20.4477 108.001 20.9997 108.001C21.5517 108.001 21.9997 108.449 21.9997 109.001L21.9997 109.007ZM21.9997 103.007C21.9957 103.556 21.5487 104.001 20.9997 104.001C20.4497 104.001 20.0027 103.556 19.9997 103.007L19.9997 103C19.9997 102.449 20.4477 102 20.9997 102C21.5517 102 21.9997 102.449 21.9997 103L21.9997 103.007ZM21.9997 97.007C21.9957 97.556 21.5487 98.001 20.9997 98.001C20.4497 98.001 20.0027 97.556 19.9997 97.007L19.9997 97C19.9997 96.448 20.4477 96 20.9997 96C21.5517 96 21.9997 96.448 21.9997 97L21.9997 97.007ZM21.9997 91.007C21.9957 91.556 21.5487 92 20.9997 92C20.4497 92 20.0027 91.556 19.9997 91.007L19.9997 91C19.9997 90.448 20.4477 90 20.9997 90C21.5517 90 21.9997 90.448 21.9997 91L21.9997 91.007ZM21.9997 85.007C21.9957 85.556 21.5487 86 20.9997 86C20.4497 86 20.0027 85.556 19.9997 85.007L19.9997 85C19.9997 84.448 20.4477 84 20.9997 84C21.5517 84 21.9997 84.448 21.9997 85L21.9997 85.007ZM21.9997 79.007C21.9957 79.556 21.5487 80 20.9997 80C20.4497 80 20.0027 79.556 19.9997 79.007L19.9997 79C19.9997 78.4481 20.4477 78 20.9997 78C21.5517 78 21.9997 78.4481 21.9997 79L21.9997 79.007ZM21.9997 73.0066C21.9957 73.5556 21.5487 74.0002 20.9997 74.0002C20.4497 74.0002 20.0027 73.5556 19.9997 73.0066L19.9997 73C19.9997 72.4481 20.4477 72 20.9997 72C21.5517 72 21.9997 72.4481 21.9997 73L21.9997 73.0066ZM21.9997 67.0066C21.9957 67.5555 21.5487 68.0001 20.9997 68.0001C20.4497 68.0001 20.0027 67.5555 19.9997 67.0066L19.9997 66.9999C19.9997 66.448 20.4477 65.9999 20.9997 65.9999C21.5517 65.9999 21.9997 66.448 21.9997 66.9999L21.9997 67.0066ZM21.9997 151.007C21.9957 151.556 21.5487 152.001 20.9997 152.001C20.4497 152.001 20.0027 151.556 19.9997 151.007L19.9997 151C19.9997 150.448 20.4477 150 20.9997 150C21.5517 150 21.9997 150.448 21.9997 151L21.9997 151.007ZM21.9997 157.007C21.9957 157.556 21.5487 158.001 20.9997 158.001C20.4497 158.001 20.0027 157.556 19.9997 157.007L19.9997 157.001C19.9997 156.449 20.4477 156.001 20.9997 156.001C21.5517 156.001 21.9997 156.449 21.9997 157.001L21.9997 157.007ZM21.9997 163.007C21.9957 163.556 21.5487 164.001 20.9997 164.001C20.4497 164.001 20.0027 163.556 19.9997 163.007L19.9997 163.001C19.9997 162.449 20.4477 162.001 20.9997 162.001C21.5517 162.001 21.9997 162.449 21.9997 163.001L21.9997 163.007ZM21.9997 169.007C21.9957 169.556 21.5487 170.001 20.9997 170.001C20.4497 170.001 20.0027 169.556 19.9997 169.007L19.9997 169.001C19.9997 168.449 20.4477 168.001 20.9997 168.001C21.5517 168.001 21.9997 168.449 21.9997 169.001L21.9997 169.007ZM21.9997 211.007C21.9957 211.556 21.5487 212.001 20.9997 212.001C20.4497 212.001 20.0027 211.556 19.9997 211.007L19.9997 211.001C19.9997 210.449 20.4477 210.001 20.9997 210.001C21.5517 210.001 21.9997 210.449 21.9997 211.001L21.9997 211.007ZM21.9997 205.007C21.9957 205.556 21.5487 206.001 20.9997 206.001C20.4497 206.001 20.0027 205.556 19.9997 205.007L19.9997 205.001C19.9997 204.449 20.4477 204.001 20.9997 204.001C21.5517 204.001 21.9997 204.449 21.9997 205.001L21.9997 205.007ZM21.9997 199.007C21.9957 199.556 21.5487 200.001 20.9997 200.001C20.4497 200.001 20.0027 199.556 19.9997 199.007L19.9997 199.001C19.9997 198.449 20.4477 198.001 20.9997 198.001C21.5517 198.001 21.9997 198.449 21.9997 199.001L21.9997 199.007ZM21.9997 193.007C21.9957 193.556 21.5487 194.001 20.9997 194.001C20.4497 194.001 20.0027 193.556 19.9997 193.007L19.9997 193.001C19.9997 192.449 20.4477 192.001 20.9997 192.001C21.5517 192.001 21.9997 192.449 21.9997 193.001L21.9997 193.007ZM21.9997 61.0064C21.9957 61.5554 21.5487 62 20.9997 62C20.4497 62 20.0027 61.5554 19.9997 61.0064L19.9997 60.9998C19.9997 60.4479 20.4477 59.9998 20.9997 59.9998C21.5517 59.9998 21.9997 60.4479 21.9997 60.9998L21.9997 61.0064ZM21.9997 115.007C21.9957 115.556 21.5487 116.001 20.9997 116.001C20.4497 116.001 20.0027 115.556 19.9997 115.007L19.9997 115C19.9997 114.449 20.4477 114 20.9997 114C21.5517 114 21.9997 114.449 21.9997 115L21.9997 115.007ZM21.9997 121.007C21.9957 121.556 21.5487 122 20.9997 122C20.4497 122 20.0027 121.556 19.9997 121.007L19.9997 121C19.9997 120.448 20.4477 120 20.9997 120C21.5517 120 21.9997 120.448 21.9997 121L21.9997 121.007ZM21.9997 133.007C21.9957 133.556 21.5487 134 20.9997 134C20.4497 134 20.0027 133.556 19.9997 133.007L19.9997 133C19.9997 132.448 20.4477 132 20.9997 132C21.5517 132 21.9997 132.448 21.9997 133L21.9997 133.007ZM21.9997 127.007C21.9957 127.556 21.5487 128.001 20.9997 128.001C20.4497 128.001 20.0027 127.556 19.9997 127.007L19.9997 127C19.9997 126.449 20.4477 126 20.9997 126C21.5517 126 21.9997 126.449 21.9997 127L21.9997 127.007ZM21.9997 49.0065C21.9957 49.5554 21.5487 50 20.9997 50C20.4497 50 20.0027 49.5554 19.9997 49.0065L19.9997 48.9999C19.9997 48.4479 20.4477 47.9999 20.9997 47.9999C21.5517 47.9999 21.9997 48.4479 21.9997 48.9999L21.9997 49.0065ZM21.9997 55.0066C21.9957 55.5555 21.5487 56.0001 20.9997 56.0001C20.4497 56.0001 20.0027 55.5555 19.9997 55.0066L19.9997 55C19.9997 54.448 20.4477 54 20.9997 54C21.5517 54 21.9997 54.448 21.9997 55L21.9997 55.0066ZM21.9997 43.0065C21.9957 43.5555 21.5487 44.0001 20.9997 44.0001C20.4497 44.0001 20.0027 43.5555 19.9997 43.0065L19.9997 42.9999C19.9997 42.448 20.4477 41.9999 20.9997 41.9999C21.5517 41.9999 21.9997 42.448 21.9997 42.9999L21.9997 43.0065ZM33.5457 73.0066C33.5417 73.5556 33.0947 74.0002 32.5457 74.0002C31.9957 74.0002 31.5487 73.5556 31.5457 73.0066L31.5457 73.0001C31.5457 72.4481 31.9937 72.0001 32.5457 72.0001C33.0967 72.0001 33.5457 72.4481 33.5457 73.0001L33.5457 73.0066ZM33.5457 31.0066C33.5417 31.5555 33.0947 32.0001 32.5457 32.0001C31.9957 32.0001 31.5487 31.5555 31.5457 31.0066L31.5457 31C31.5457 30.4481 31.9937 30 32.5457 30C33.0967 30 33.5457 30.4481 33.5457 31L33.5457 31.0066ZM33.5457 37.0066C33.5417 37.5555 33.0947 38.0001 32.5457 38.0001C31.9957 38.0001 31.5487 37.5555 31.5457 37.0066L31.5457 37C31.5457 36.4481 31.9937 36 32.5457 36C33.0967 36 33.5457 36.4481 33.5457 37L33.5457 37.0066ZM33.5457 43.0066C33.5417 43.5555 33.0947 44.0001 32.5457 44.0001C31.9957 44.0001 31.5487 43.5555 31.5457 43.0066L31.5457 43C31.5457 42.4481 31.9937 42 32.5457 42C33.0967 42 33.5457 42.4481 33.5457 43L33.5457 43.0066ZM33.5457 49.0065C33.5417 49.5554 33.0947 50 32.5457 50C31.9957 50 31.5487 49.5554 31.5457 49.0065L31.5457 48.9999C31.5457 48.448 31.9937 47.9999 32.5457 47.9999C33.0967 47.9999 33.5457 48.448 33.5457 48.9999L33.5457 49.0065ZM33.5457 61.0066C33.5417 61.5556 33.0947 62.0002 32.5457 62.0002C31.9957 62.0002 31.5487 61.5556 31.5457 61.0066L31.5457 61.0001C31.5457 60.4481 31.9937 60.0001 32.5457 60.0001C33.0967 60.0001 33.5457 60.4481 33.5457 61.0001L33.5457 61.0066ZM33.5457 67.0065C33.5417 67.5555 33.0947 68.0001 32.5457 68.0001C31.9957 68.0001 31.5487 67.5555 31.5457 67.0065L31.5457 67C31.5457 66.448 31.9937 66 32.5457 66C33.0967 66 33.5457 66.448 33.5457 67L33.5457 67.0065ZM33.5457 79.007C33.5417 79.555 33.0947 80 32.5457 80C31.9957 80 31.5487 79.555 31.5457 79.007L31.5457 79C31.5457 78.4481 31.9937 78 32.5457 78C33.0967 78 33.5457 78.4481 33.5457 79L33.5457 79.007ZM33.5457 55.0065C33.5417 55.5555 33.0947 56.0001 32.5457 56.0001C31.9957 56.0001 31.5487 55.5555 31.5457 55.0065L31.5457 55C31.5457 54.4481 31.9937 54 32.5457 54C33.0967 54 33.5457 54.4481 33.5457 55L33.5457 55.0065ZM33.5457 85.007C33.5417 85.555 33.0947 86 32.5457 86C31.9957 86 31.5487 85.555 31.5457 85.007L31.5457 85C31.5457 84.448 31.9937 84 32.5457 84C33.0967 84 33.5457 84.448 33.5457 85L33.5457 85.007ZM33.5457 103.007C33.5417 103.555 33.0947 104 32.5457 104C31.9957 104 31.5487 103.555 31.5457 103.007L31.5457 103C31.5457 102.448 31.9937 102 32.5457 102C33.0967 102 33.5457 102.448 33.5457 103L33.5457 103.007ZM33.5457 109.007C33.5417 109.556 33.0947 110 32.5457 110C31.9957 110 31.5487 109.556 31.5457 109.007L31.5457 109C31.5457 108.448 31.9937 108 32.5457 108C33.0967 108 33.5457 108.448 33.5457 109L33.5457 109.007ZM33.5457 133.007C33.5417 133.556 33.0947 134 32.5457 134C31.9957 134 31.5487 133.556 31.5457 133.007L31.5457 133C31.5457 132.448 31.9937 132 32.5457 132C33.0967 132 33.5457 132.448 33.5457 133L33.5457 133.007ZM33.5457 151.006C33.5417 151.555 33.0947 152 32.5457 152C31.9957 152 31.5487 151.555 31.5457 151.006L31.5457 151C31.5457 150.448 31.9937 150 32.5457 150C33.0967 150 33.5457 150.448 33.5457 151L33.5457 151.006ZM33.5457 157.006C33.5417 157.555 33.0947 158 32.5457 158C31.9957 158 31.5487 157.555 31.5457 157.006L31.5457 157C31.5457 156.448 31.9937 156 32.5457 156C33.0967 156 33.5457 156.448 33.5457 157L33.5457 157.006ZM33.5457 127.007C33.5417 127.555 33.0947 128 32.5457 128C31.9957 128 31.5487 127.555 31.5457 127.007L31.5457 127C31.5457 126.448 31.9937 126 32.5457 126C33.0967 126 33.5457 126.448 33.5457 127L33.5457 127.007ZM33.5457 91.006C33.5417 91.555 33.0947 92 32.5457 92C31.9957 92 31.5487 91.555 31.5457 91.006L31.5457 91C31.5457 90.448 31.9937 90 32.5457 90C33.0967 90 33.5457 90.448 33.5457 91L33.5457 91.006ZM33.5457 97.006C33.5417 97.555 33.0947 98 32.5457 98C31.9957 98 31.5487 97.555 31.5457 97.006L31.5457 97C31.5457 96.448 31.9937 96 32.5457 96C33.0967 96 33.5457 96.448 33.5457 97L33.5457 97.006ZM33.5457 115.007C33.5417 115.555 33.0947 116 32.5457 116C31.9957 116 31.5487 115.555 31.5457 115.007L31.5457 115C31.5457 114.448 31.9937 114 32.5457 114C33.0967 114 33.5457 114.448 33.5457 115L33.5457 115.007ZM33.5457 121.007C33.5417 121.555 33.0947 122 32.5457 122C31.9957 122 31.5487 121.555 31.5457 121.007L31.5457 121C31.5457 120.448 31.9937 120 32.5457 120C33.0967 120 33.5457 120.448 33.5457 121L33.5457 121.007ZM33.5457 163.006C33.5417 163.555 33.0947 164 32.5457 164C31.9957 164 31.5487 163.555 31.5457 163.006L31.5457 163C31.5457 162.448 31.9937 162 32.5457 162C33.0967 162 33.5457 162.448 33.5457 163L33.5457 163.006ZM33.5457 139.007C33.5417 139.555 33.0947 140 32.5457 140C31.9957 140 31.5487 139.555 31.5457 139.007L31.5457 139C31.5457 138.448 31.9937 138 32.5457 138C33.0967 138 33.5457 138.448 33.5457 139L33.5457 139.007ZM33.5457 145.007C33.5417 145.555 33.0947 146 32.5457 146C31.9957 146 31.5487 145.555 31.5457 145.007L31.5457 145C31.5457 144.448 31.9937 144 32.5457 144C33.0967 144 33.5457 144.448 33.5457 145L33.5457 145.007ZM43.9247 37.0066C43.9207 37.5555 43.4747 38.0001 42.9247 38.0001C42.3747 38.0001 41.9277 37.5555 41.9247 37.0066L41.9247 37C41.9247 36.4481 42.3727 36 42.9247 36C43.4767 36 43.9247 36.4481 43.9247 37L43.9247 37.0066ZM43.9247 127.007C43.9207 127.556 43.4747 128 42.9247 128C42.3747 128 41.9277 127.556 41.9247 127.007L41.9247 127C41.9247 126.448 42.3727 126 42.9247 126C43.4767 126 43.9247 126.448 43.9247 127L43.9247 127.007ZM43.9247 121.007C43.9207 121.556 43.4747 122 42.9247 122C42.3747 122 41.9277 121.556 41.9247 121.007L41.9247 121C41.9247 120.448 42.3727 120 42.9247 120C43.4767 120 43.9247 120.448 43.9247 121L43.9247 121.007ZM43.9247 115.007C43.9207 115.556 43.4747 116 42.9247 116C42.3747 116 41.9277 115.556 41.9247 115.007L41.9247 115C41.9247 114.448 42.3727 114 42.9247 114C43.4767 114 43.9247 114.448 43.9247 115L43.9247 115.007ZM43.9247 109.007C43.9207 109.556 43.4747 110 42.9247 110C42.3747 110 41.9277 109.556 41.9247 109.007L41.9247 109C41.9247 108.448 42.3727 108 42.9247 108C43.4767 108 43.9247 108.448 43.9247 109L43.9247 109.007ZM43.9247 103.007C43.9207 103.556 43.4747 104 42.9247 104C42.3747 104 41.9277 103.556 41.9247 103.007L41.9247 103C41.9247 102.448 42.3727 102 42.9247 102C43.4767 102 43.9247 102.448 43.9247 103L43.9247 103.007ZM43.9247 97.007C43.9207 97.556 43.4747 98 42.9247 98C42.3747 98 41.9277 97.556 41.9247 97.007L41.9247 97C41.9247 96.448 42.3727 96 42.9247 96C43.4767 96 43.9247 96.448 43.9247 97L43.9247 97.007ZM43.9247 91.007C43.9207 91.556 43.4747 92 42.9247 92C42.3747 92 41.9277 91.556 41.9247 91.007L41.9247 91C41.9247 90.448 42.3727 90 42.9247 90C43.4767 90 43.9247 90.448 43.9247 91L43.9247 91.007ZM43.9247 85.007C43.9207 85.556 43.4747 86 42.9247 86C42.3747 86 41.9277 85.556 41.9247 85.007L41.9247 85C41.9247 84.448 42.3727 84 42.9247 84C43.4767 84 43.9247 84.448 43.9247 85L43.9247 85.007ZM43.9247 79.007C43.9207 79.556 43.4747 80 42.9247 80C42.3747 80 41.9277 79.556 41.9247 79.007L41.9247 79C41.9247 78.4484 42.3727 78.0003 42.9247 78.0003C43.4767 78.0003 43.9247 78.4484 43.9247 79L43.9247 79.007ZM43.9247 73.0067C43.9207 73.5557 43.4747 74.0003 42.9247 74.0003C42.3747 74.0003 41.9277 73.5557 41.9247 73.0067L41.9247 73.0002C41.9247 72.4483 42.3727 72.0002 42.9247 72.0002C43.4767 72.0002 43.9247 72.4483 43.9247 73.0002L43.9247 73.0067ZM43.9247 67.0067C43.9207 67.5557 43.4747 68.0003 42.9247 68.0003C42.3747 68.0003 41.9277 67.5557 41.9247 67.0067L41.9247 67.0002C41.9247 66.4483 42.3727 66.0002 42.9247 66.0002C43.4767 66.0002 43.9247 66.4483 43.9247 67.0002L43.9247 67.0067ZM43.9247 61.0068C43.9207 61.5557 43.4747 62.0003 42.9247 62.0003C42.3747 62.0003 41.9277 61.5557 41.9247 61.0068L41.9247 61.0003C41.9247 60.4483 42.3727 60.0003 42.9247 60.0003C43.4767 60.0003 43.9247 60.4483 43.9247 61.0003L43.9247 61.0068ZM43.9247 55.0068C43.9207 55.5557 43.4747 56.0003 42.9247 56.0003C42.3747 56.0003 41.9277 55.5557 41.9247 55.0068L41.9247 55.0002C41.9247 54.4483 42.3727 54.0002 42.9247 54.0002C43.4767 54.0002 43.9247 54.4483 43.9247 55.0002L43.9247 55.0068ZM43.9247 49.0067C43.9207 49.5556 43.4747 50.0002 42.9247 50.0002C42.3747 50.0002 41.9277 49.5556 41.9247 49.0067L41.9247 49.0001C41.9247 48.4482 42.3727 48.0001 42.9247 48.0001C43.4767 48.0001 43.9247 48.4482 43.9247 49.0001L43.9247 49.0067ZM43.9247 43.0066C43.9207 43.5556 43.4747 44.0002 42.9247 44.0002C42.3747 44.0002 41.9277 43.5556 41.9247 43.0066L41.9247 43.0001C41.9247 42.4482 42.3727 42.0001 42.9247 42.0001C43.4767 42.0001 43.9247 42.4482 43.9247 43.0001L43.9247 43.0066ZM55.4707 67.0068C55.4667 67.5558 55.0197 68.0004 54.4707 68.0004C53.9207 68.0004 53.4737 67.5558 53.4707 67.0068L53.4707 67.0002C53.4707 66.4483 53.9187 66.0002 54.4707 66.0002C55.0227 66.0002 55.4707 66.4483 55.4707 67.0002L55.4707 67.0068ZM55.4707 79.007C55.4667 79.556 55.0197 80 54.4707 80C53.9207 80 53.4737 79.556 53.4707 79.007L53.4707 79C53.4707 78.4484 53.9187 78.0003 54.4707 78.0003C55.0227 78.0003 55.4707 78.4484 55.4707 79L55.4707 79.007ZM55.4707 73.007C55.4667 73.5559 55.0197 74.0005 54.4707 74.0005C53.9207 74.0005 53.4737 73.5559 53.4707 73.007L53.4707 73.0004C53.4707 72.4485 53.9187 72.0004 54.4707 72.0004C55.0227 72.0004 55.4707 72.4485 55.4707 73.0004L55.4707 73.007ZM55.4707 49.0067C55.4667 49.5556 55.0197 50.0002 54.4707 50.0002C53.9207 50.0002 53.4737 49.5556 53.4707 49.0067L53.4707 49.0001C53.4707 48.4482 53.9187 48.0001 54.4707 48.0001C55.0227 48.0001 55.4707 48.4482 55.4707 49.0001L55.4707 49.0067ZM55.4707 61.0068C55.4667 61.5558 55.0197 62.0004 54.4707 62.0004C53.9207 62.0004 53.4737 61.5558 53.4707 61.0068L53.4707 61.0002C53.4707 60.4483 53.9187 60.0002 54.4707 60.0002C55.0227 60.0002 55.4707 60.4483 55.4707 61.0002L55.4707 61.0068ZM55.4707 139.007C55.4667 139.556 55.0197 140 54.4707 140C53.9207 140 53.4737 139.556 53.4707 139.007L53.4707 139C53.4707 138.448 53.9187 138 54.4707 138C55.0227 138 55.4707 138.448 55.4707 139L55.4707 139.007ZM55.4707 133.007C55.4667 133.556 55.0197 134.001 54.4707 134.001C53.9207 134.001 53.4737 133.556 53.4707 133.007L53.4707 133C53.4707 132.449 53.9187 132 54.4707 132C55.0227 132 55.4707 132.449 55.4707 133L55.4707 133.007ZM55.4707 127.007C55.4667 127.556 55.0197 128 54.4707 128C53.9207 128 53.4737 127.556 53.4707 127.007L53.4707 127C53.4707 126.448 53.9187 126 54.4707 126C55.0227 126 55.4707 126.448 55.4707 127L55.4707 127.007ZM55.4707 121.007C55.4667 121.556 55.0197 122 54.4707 122C53.9207 122 53.4737 121.556 53.4707 121.007L53.4707 121C53.4707 120.448 53.9187 120 54.4707 120C55.0227 120 55.4707 120.448 55.4707 121L55.4707 121.007ZM55.4707 115.007C55.4667 115.556 55.0197 116.001 54.4707 116.001C53.9207 116.001 53.4737 115.556 53.4707 115.007L53.4707 115C53.4707 114.449 53.9187 114 54.4707 114C55.0227 114 55.4707 114.449 55.4707 115L55.4707 115.007ZM55.4707 109.007C55.4667 109.556 55.0197 110.001 54.4707 110.001C53.9207 110.001 53.4737 109.556 53.4707 109.007L53.4707 109.001C53.4707 108.449 53.9187 108.001 54.4707 108.001C55.0227 108.001 55.4707 108.449 55.4707 109.001L55.4707 109.007ZM55.4707 103.007C55.4667 103.556 55.0197 104.001 54.4707 104.001C53.9207 104.001 53.4737 103.556 53.4707 103.007L53.4707 103C53.4707 102.449 53.9187 102 54.4707 102C55.0227 102 55.4707 102.449 55.4707 103L55.4707 103.007ZM55.4707 31.0066C55.4667 31.5555 55.0197 32.0001 54.4707 32.0001C53.9207 32.0001 53.4737 31.5555 53.4707 31.0066L53.4707 31.0001C53.4707 30.4481 53.9187 30.0001 54.4707 30.0001C55.0227 30.0001 55.4707 30.4481 55.4707 31.0001L55.4707 31.0066ZM55.4707 169.007C55.4667 169.556 55.0197 170 54.4707 170C53.9207 170 53.4737 169.556 53.4707 169.007L53.4707 169C53.4707 168.449 53.9187 168 54.4707 168C55.0227 168 55.4707 168.449 55.4707 169L55.4707 169.007ZM55.4707 163.007C55.4667 163.556 55.0197 164 54.4707 164C53.9207 164 53.4737 163.556 53.4707 163.007L53.4707 163C53.4707 162.449 53.9187 162 54.4707 162C55.0227 162 55.4707 162.449 55.4707 163L55.4707 163.007ZM55.4707 157.007C55.4667 157.556 55.0197 158 54.4707 158C53.9207 158 53.4737 157.556 53.4707 157.007L53.4707 157C53.4707 156.448 53.9187 156 54.4707 156C55.0227 156 55.4707 156.448 55.4707 157L55.4707 157.007ZM55.4707 175.007C55.4667 175.556 55.0197 176 54.4707 176C53.9207 176 53.4737 175.556 53.4707 175.007L53.4707 175C53.4707 174.449 53.9187 174 54.4707 174C55.0227 174 55.4707 174.449 55.4707 175L55.4707 175.007ZM55.4707 37.0067C55.4667 37.5556 55.0197 38.0002 54.4707 38.0002C53.9207 38.0002 53.4737 37.5556 53.4707 37.0067L53.4707 37.0001C53.4707 36.4482 53.9187 36.0001 54.4707 36.0001C55.0227 36.0001 55.4707 36.4482 55.4707 37.0001L55.4707 37.0067ZM55.4707 43.0067C55.4667 43.5556 55.0197 44.0002 54.4707 44.0002C53.9207 44.0002 53.4737 43.5556 53.4707 43.0067L53.4707 43.0001C53.4707 42.4482 53.9187 42.0001 54.4707 42.0001C55.0227 42.0001 55.4707 42.4482 55.4707 43.0001L55.4707 43.0067ZM55.4707 151.007C55.4667 151.556 55.0197 152 54.4707 152C53.9207 152 53.4737 151.556 53.4707 151.007L53.4707 151C53.4707 150.448 53.9187 150 54.4707 150C55.0227 150 55.4707 150.448 55.4707 151L55.4707 151.007ZM55.4707 55.0067C55.4667 55.5557 55.0197 56.0003 54.4707 56.0003C53.9207 56.0003 53.4737 55.5557 53.4707 55.0067L53.4707 55.0001C53.4707 54.4482 53.9187 54.0001 54.4707 54.0001C55.0227 54.0001 55.4707 54.4482 55.4707 55.0001L55.4707 55.0067ZM55.4707 145.007C55.4667 145.556 55.0197 146 54.4707 146C53.9207 146 53.4737 145.556 53.4707 145.007L53.4707 145C53.4707 144.448 53.9187 144 54.4707 144C55.0227 144 55.4707 144.448 55.4707 145L55.4707 145.007ZM55.4707 85.007C55.4667 85.556 55.0197 86.001 54.4707 86.001C53.9207 86.001 53.4737 85.556 53.4707 85.007L53.4707 85C53.4707 84.448 53.9187 84 54.4707 84C55.0227 84 55.4707 84.448 55.4707 85L55.4707 85.007ZM55.4707 91.007C55.4667 91.556 55.0197 92 54.4707 92C53.9207 92 53.4737 91.556 53.4707 91.007L53.4707 91C53.4707 90.448 53.9187 90 54.4707 90C55.0227 90 55.4707 90.448 55.4707 91L55.4707 91.007ZM55.4707 97.007C55.4667 97.556 55.0197 98.001 54.4707 98.001C53.9207 98.001 53.4737 97.556 53.4707 97.007L53.4707 97C53.4707 96.449 53.9187 96 54.4707 96C55.0227 96 55.4707 96.449 55.4707 97L55.4707 97.007Z" fill="#4D72EF"/>
<path d="M13 725V302C13 297.582 16.5817 294 21 294H354C358.418 294 362 297.582 362 302V725" stroke="#E01A33" stroke-width="2"/>
<rect y="643" width="375" height="88" fill="url(#paint1_linear)"/>
<rect opacity="0.2" x="23" y="302" width="330" height="598" rx="8" fill="url(#paint2_linear)"/>
<path fill-rule="evenodd" clip-rule="evenodd" d="M33.4549 429.299C33.4519 429.848 33.0049 430.293 32.4549 430.293C31.9049 430.293 31.4589 429.848 31.4549 429.299L31.4549 429.293C31.4549 428.741 31.9029 428.293 32.4549 428.293C33.0069 428.293 33.4549 428.741 33.4549 429.293L33.4549 429.299ZM33.4549 339.299C33.4519 339.848 33.0049 340.293 32.4549 340.293C31.9049 340.293 31.4589 339.848 31.4549 339.299L31.4549 339.293C31.4549 338.741 31.9029 338.293 32.4549 338.293C33.0069 338.293 33.4549 338.741 33.4549 339.293L33.4549 339.299ZM33.4549 363.299C33.4519 363.848 33.0049 364.293 32.4549 364.293C31.9049 364.293 31.4589 363.848 31.4549 363.299L31.4549 363.293C31.4549 362.741 31.9029 362.293 32.4549 362.293C33.0069 362.293 33.4549 362.741 33.4549 363.293L33.4549 363.299ZM33.4549 351.299C33.4519 351.848 33.0049 352.293 32.4549 352.293C31.9049 352.293 31.4589 351.848 31.4549 351.299L31.4549 351.293C31.4549 350.741 31.9029 350.293 32.4549 350.293C33.0069 350.293 33.4549 350.741 33.4549 351.293L33.4549 351.299ZM33.4549 423.299C33.4519 423.848 33.0049 424.293 32.4549 424.293C31.9049 424.293 31.4589 423.848 31.4549 423.299L31.4549 423.293C31.4549 422.741 31.9029 422.293 32.4549 422.293C33.0069 422.293 33.4549 422.741 33.4549 423.293L33.4549 423.299ZM33.4549 417.299C33.4519 417.848 33.0049 418.293 32.4549 418.293C31.9049 418.293 31.4589 417.848 31.4549 417.299L31.4549 417.293C31.4549 416.741 31.9029 416.293 32.4549 416.293C33.0069 416.293 33.4549 416.741 33.4549 417.293L33.4549 417.299ZM33.4549 411.299C33.4519 411.848 33.0049 412.293 32.4549 412.293C31.9049 412.293 31.4589 411.848 31.4549 411.299L31.4549 411.293C31.4549 410.741 31.9029 410.293 32.4549 410.293C33.0069 410.293 33.4549 410.741 33.4549 411.293L33.4549 411.299ZM33.4549 369.299C33.4519 369.848 33.0049 370.293 32.4549 370.293C31.9049 370.293 31.4589 369.848 31.4549 369.299L31.4549 369.293C31.4549 368.741 31.9029 368.293 32.4549 368.293C33.0069 368.293 33.4549 368.741 33.4549 369.293L33.4549 369.299ZM33.4549 381.299C33.4519 381.848 33.0049 382.293 32.4549 382.293C31.9049 382.293 31.4589 381.848 31.4549 381.299L31.4549 381.293C31.4549 380.741 31.9029 380.293 32.4549 380.293C33.0069 380.293 33.4549 380.741 33.4549 381.293L33.4549 381.299ZM33.4549 345.299C33.4519 345.848 33.0049 346.293 32.4549 346.293C31.9049 346.293 31.4589 345.848 31.4549 345.299L31.4549 345.293C31.4549 344.741 31.9029 344.293 32.4549 344.293C33.0069 344.293 33.4549 344.741 33.4549 345.293L33.4549 345.299ZM33.4549 405.299C33.4519 405.848 33.0049 406.293 32.4549 406.293C31.9049 406.293 31.4589 405.848 31.4549 405.299L31.4549 405.293C31.4549 404.741 31.9029 404.293 32.4549 404.293C33.0069 404.293 33.4549 404.741 33.4549 405.293L33.4549 405.299ZM33.4549 375.299C33.4519 375.848 33.0049 376.293 32.4549 376.293C31.9049 376.293 31.4589 375.848 31.4549 375.299L31.4549 375.293C31.4549 374.741 31.9029 374.293 32.4549 374.293C33.0069 374.293 33.4549 374.741 33.4549 375.293L33.4549 375.299ZM33.4549 387.299C33.4519 387.848 33.0049 388.293 32.4549 388.293C31.9049 388.293 31.4589 387.848 31.4549 387.299L31.4549 387.293C31.4549 386.741 31.9029 386.293 32.4549 386.293C33.0069 386.293 33.4549 386.741 33.4549 387.293L33.4549 387.299ZM33.4549 393.299C33.4519 393.848 33.0049 394.293 32.4549 394.293C31.9049 394.293 31.4589 393.848 31.4549 393.299L31.4549 393.293C31.4549 392.741 31.9029 392.293 32.4549 392.293C33.0069 392.293 33.4549 392.741 33.4549 393.293L33.4549 393.299ZM33.4549 399.299C33.4519 399.848 33.0049 400.293 32.4549 400.293C31.9049 400.293 31.4589 399.848 31.4549 399.299L31.4549 399.293C31.4549 398.741 31.9029 398.293 32.4549 398.293C33.0069 398.293 33.4549 398.741 33.4549 399.293L33.4549 399.299ZM33.4549 357.299C33.4519 357.848 33.0049 358.293 32.4549 358.293C31.9049 358.293 31.4589 357.848 31.4549 357.299L31.4549 357.293C31.4549 356.741 31.9029 356.293 32.4549 356.293C33.0069 356.293 33.4549 356.741 33.4549 357.293L33.4549 357.299ZM45.0009 387.299C44.9979 387.848 44.5509 388.293 44.0009 388.293C43.4509 388.293 43.0049 387.848 43.0009 387.299L43.0009 387.293C43.0009 386.741 43.4489 386.293 44.0009 386.293C44.5529 386.293 45.0009 386.741 45.0009 387.293L45.0009 387.299ZM45.0009 381.299C44.9979 381.848 44.5509 382.293 44.0009 382.293C43.4509 382.293 43.0049 381.848 43.0009 381.299L43.0009 381.293C43.0009 380.741 43.4489 380.293 44.0009 380.293C44.5529 380.293 45.0009 380.741 45.0009 381.293L45.0009 381.299ZM45.0009 375.3C44.9979 375.848 44.5509 376.293 44.0009 376.293C43.4509 376.293 43.0049 375.848 43.0009 375.3L43.0009 375.293C43.0009 374.741 43.4489 374.293 44.0009 374.293C44.5529 374.293 45.0009 374.741 45.0009 375.293L45.0009 375.3ZM45.0009 363.3C44.9979 363.849 44.5509 364.293 44.0009 364.293C43.4509 364.293 43.0049 363.849 43.0009 363.3L43.0009 363.293C43.0009 362.741 43.4489 362.293 44.0009 362.293C44.5529 362.293 45.0009 362.741 45.0009 363.293L45.0009 363.3ZM45.0009 369.3C44.9979 369.849 44.5509 370.293 44.0009 370.293C43.4509 370.293 43.0049 369.849 43.0009 369.3L43.0009 369.293C43.0009 368.741 43.4489 368.293 44.0009 368.293C44.5529 368.293 45.0009 368.741 45.0009 369.293L45.0009 369.3ZM45.0009 333.299C44.9979 333.848 44.5509 334.293 44.0009 334.293C43.4509 334.293 43.0049 333.848 43.0009 333.299L43.0009 333.293C43.0009 332.741 43.4489 332.293 44.0009 332.293C44.5529 332.293 45.0009 332.741 45.0009 333.293L45.0009 333.299ZM45.0009 393.3C44.9979 393.848 44.5509 394.293 44.0009 394.293C43.4509 394.293 43.0049 393.848 43.0009 393.3L43.0009 393.293C43.0009 392.741 43.4489 392.293 44.0009 392.293C44.5529 392.293 45.0009 392.741 45.0009 393.293L45.0009 393.3ZM45.0009 399.3C44.9979 399.849 44.5509 400.293 44.0009 400.293C43.4509 400.293 43.0049 399.849 43.0009 399.3L43.0009 399.293C43.0009 398.741 43.4489 398.293 44.0009 398.293C44.5529 398.293 45.0009 398.741 45.0009 399.293L45.0009 399.3ZM45.0009 405.3C44.9979 405.849 44.5509 406.293 44.0009 406.293C43.4509 406.293 43.0049 405.849 43.0009 405.3L43.0009 405.293C43.0009 404.741 43.4489 404.293 44.0009 404.293C44.5529 404.293 45.0009 404.741 45.0009 405.293L45.0009 405.3ZM45.0009 411.3C44.9979 411.849 44.5509 412.293 44.0009 412.293C43.4509 412.293 43.0049 411.849 43.0009 411.3L43.0009 411.293C43.0009 410.741 43.4489 410.293 44.0009 410.293C44.5529 410.293 45.0009 410.741 45.0009 411.293L45.0009 411.3ZM45.0009 465.3C44.9979 465.849 44.5509 466.293 44.0009 466.293C43.4509 466.293 43.0049 465.849 43.0009 465.3L43.0009 465.293C43.0009 464.741 43.4489 464.293 44.0009 464.293C44.5529 464.293 45.0009 464.741 45.0009 465.293L45.0009 465.3ZM45.0009 339.3C44.9979 339.849 44.5509 340.293 44.0009 340.293C43.4509 340.293 43.0049 339.849 43.0009 339.3L43.0009 339.293C43.0009 338.741 43.4489 338.293 44.0009 338.293C44.5529 338.293 45.0009 338.741 45.0009 339.293L45.0009 339.3ZM45.0009 345.3C44.9979 345.848 44.5509 346.293 44.0009 346.293C43.4509 346.293 43.0049 345.848 43.0009 345.3L43.0009 345.293C43.0009 344.741 43.4489 344.293 44.0009 344.293C44.5529 344.293 45.0009 344.741 45.0009 345.293L45.0009 345.3ZM45.0009 351.3C44.9979 351.848 44.5509 352.293 44.0009 352.293C43.4509 352.293 43.0049 351.848 43.0009 351.3L43.0009 351.293C43.0009 350.741 43.4489 350.293 44.0009 350.293C44.5529 350.293 45.0009 350.741 45.0009 351.293L45.0009 351.3ZM45.0009 417.3C44.9979 417.849 44.5509 418.293 44.0009 418.293C43.4509 418.293 43.0049 417.849 43.0009 417.3L43.0009 417.293C43.0009 416.741 43.4489 416.293 44.0009 416.293C44.5529 416.293 45.0009 416.741 45.0009 417.293L45.0009 417.3ZM45.0009 447.3C44.9979 447.849 44.5509 448.293 44.0009 448.293C43.4509 448.293 43.0049 447.849 43.0009 447.3L43.0009 447.293C43.0009 446.741 43.4489 446.293 44.0009 446.293C44.5529 446.293 45.0009 446.741 45.0009 447.293L45.0009 447.3ZM45.0009 453.3C44.9979 453.849 44.5509 454.293 44.0009 454.293C43.4509 454.293 43.0049 453.849 43.0009 453.3L43.0009 453.293C43.0009 452.741 43.4489 452.293 44.0009 452.293C44.5529 452.293 45.0009 452.741 45.0009 453.293L45.0009 453.3ZM45.0009 459.3C44.9979 459.849 44.5509 460.293 44.0009 460.293C43.4509 460.293 43.0049 459.849 43.0009 459.3L43.0009 459.293C43.0009 458.741 43.4489 458.293 44.0009 458.293C44.5529 458.293 45.0009 458.741 45.0009 459.293L45.0009 459.3ZM45.0009 471.3C44.9979 471.849 44.5509 472.293 44.0009 472.293C43.4509 472.293 43.0049 471.849 43.0009 471.3L43.0009 471.293C43.0009 470.741 43.4489 470.293 44.0009 470.293C44.5529 470.293 45.0009 470.741 45.0009 471.293L45.0009 471.3ZM45.0009 477.3C44.9979 477.849 44.5509 478.293 44.0009 478.293C43.4509 478.293 43.0049 477.849 43.0009 477.3L43.0009 477.293C43.0009 476.741 43.4489 476.293 44.0009 476.293C44.5529 476.293 45.0009 476.741 45.0009 477.293L45.0009 477.3ZM45.0009 357.3C44.9979 357.849 44.5509 358.293 44.0009 358.293C43.4509 358.293 43.0049 357.849 43.0009 357.3L43.0009 357.293C43.0009 356.741 43.4489 356.293 44.0009 356.293C44.5529 356.293 45.0009 356.741 45.0009 357.293L45.0009 357.3ZM45.0009 435.3C44.9979 435.849 44.5509 436.293 44.0009 436.293C43.4509 436.293 43.0049 435.849 43.0009 435.3L43.0009 435.293C43.0009 434.741 43.4489 434.293 44.0009 434.293C44.5529 434.293 45.0009 434.741 45.0009 435.293L45.0009 435.3ZM45.0009 441.3C44.9979 441.849 44.5509 442.293 44.0009 442.293C43.4509 442.293 43.0049 441.849 43.0009 441.3L43.0009 441.293C43.0009 440.741 43.4489 440.293 44.0009 440.293C44.5529 440.293 45.0009 440.741 45.0009 441.293L45.0009 441.3ZM45.0009 423.3C44.9979 423.848 44.5509 424.293 44.0009 424.293C43.4509 424.293 43.0049 423.848 43.0009 423.3L43.0009 423.293C43.0009 422.741 43.4489 422.293 44.0009 422.293C44.5529 422.293 45.0009 422.741 45.0009 423.293L45.0009 423.3ZM45.0009 429.3C44.9979 429.848 44.5509 430.293 44.0009 430.293C43.4509 430.293 43.0049 429.848 43.0009 429.3L43.0009 429.293C43.0009 428.741 43.4489 428.293 44.0009 428.293C44.5529 428.293 45.0009 428.741 45.0009 429.293L45.0009 429.3ZM56.5469 399.299C56.5439 399.848 56.0969 400.293 55.5469 400.293C54.9969 400.293 54.5509 399.848 54.5469 399.299L54.5469 399.293C54.5469 398.741 54.9949 398.293 55.5469 398.293C56.0989 398.293 56.5469 398.741 56.5469 399.293L56.5469 399.299ZM56.5469 369.299C56.5439 369.848 56.0969 370.293 55.5469 370.293C54.9969 370.293 54.5509 369.848 54.5469 369.299L54.5469 369.293C54.5469 368.741 54.9949 368.293 55.5469 368.293C56.0989 368.293 56.5469 368.741 56.5469 369.293L56.5469 369.299ZM56.5469 363.299C56.5439 363.848 56.0969 364.293 55.5469 364.293C54.9969 364.293 54.5509 363.848 54.5469 363.299L54.5469 363.293C54.5469 362.741 54.9949 362.293 55.5469 362.293C56.0989 362.293 56.5469 362.741 56.5469 363.293L56.5469 363.299ZM56.5469 387.299C56.5439 387.848 56.0969 388.293 55.5469 388.293C54.9969 388.293 54.5509 387.848 54.5469 387.299L54.5469 387.293C54.5469 386.741 54.9949 386.293 55.5469 386.293C56.0989 386.293 56.5469 386.741 56.5469 387.293L56.5469 387.299ZM56.5469 381.299C56.5439 381.848 56.0969 382.293 55.5469 382.293C54.9969 382.293 54.5509 381.848 54.5469 381.299L54.5469 381.293C54.5469 380.741 54.9949 380.293 55.5469 380.293C56.0989 380.293 56.5469 380.741 56.5469 381.293L56.5469 381.299ZM56.5469 375.299C56.5439 375.848 56.0969 376.293 55.5469 376.293C54.9969 376.293 54.5509 375.848 54.5469 375.299L54.5469 375.293C54.5469 374.741 54.9949 374.293 55.5469 374.293C56.0989 374.293 56.5469 374.741 56.5469 375.293L56.5469 375.299ZM56.5469 357.3C56.5439 357.848 56.0969 358.293 55.5469 358.293C54.9969 358.293 54.5509 357.848 54.5469 357.3L54.5469 357.293C54.5469 356.741 54.9949 356.293 55.5469 356.293C56.0989 356.293 56.5469 356.741 56.5469 357.293L56.5469 357.3ZM56.5469 351.3C56.5439 351.848 56.0969 352.293 55.5469 352.293C54.9969 352.293 54.5509 351.848 54.5469 351.3L54.5469 351.293C54.5469 350.741 54.9949 350.293 55.5469 350.293C56.0989 350.293 56.5469 350.741 56.5469 351.293L56.5469 351.3ZM56.5469 339.3C56.5439 339.849 56.0969 340.293 55.5469 340.293C54.9969 340.293 54.5509 339.849 54.5469 339.3L54.5469 339.293C54.5469 338.741 54.9949 338.293 55.5469 338.293C56.0989 338.293 56.5469 338.741 56.5469 339.293L56.5469 339.3ZM56.5469 393.299C56.5439 393.848 56.0969 394.293 55.5469 394.293C54.9969 394.293 54.5509 393.848 54.5469 393.299L54.5469 393.293C54.5469 392.741 54.9949 392.293 55.5469 392.293C56.0989 392.293 56.5469 392.741 56.5469 393.293L56.5469 393.299ZM56.5469 345.3C56.5439 345.848 56.0969 346.293 55.5469 346.293C54.9969 346.293 54.5509 345.848 54.5469 345.3L54.5469 345.293C54.5469 344.741 54.9949 344.293 55.5469 344.293C56.0989 344.293 56.5469 344.741 56.5469 345.293L56.5469 345.3Z" fill="#4D72EF"/>
<path d="M327 731L321.804 723.5L332.196 723.5L327 731Z" fill="#4D72EF"/>
<path opacity="0.5" d="M327 721L321.804 713.5L332.196 713.5L327 721Z" fill="#4D72EF"/>
<path opacity="0.2" d="M327 711L321.804 703.5L332.196 703.5L327 711Z" fill="#4D72EF"/>
<rect opacity="0.2" x="33" y="603" width="310" height="272" rx="8" fill="url(#paint3_linear)"/>
<path fill-rule="evenodd" clip-rule="evenodd" d="M56 634.839C56 635.391 55.552 635.839 55 635.839C54.448 635.839 54 635.391 54 634.839C54 634.287 54.448 633.839 55 633.839C55.552 633.839 56 634.287 56 634.839ZM56 640.839C56 641.391 55.552 641.839 55 641.839C54.448 641.839 54 641.391 54 640.839C54 640.287 54.448 639.839 55 639.839C55.552 639.839 56 640.287 56 640.839ZM56 646.839C56 647.391 55.552 647.839 55 647.839C54.448 647.839 54 647.391 54 646.839C54 646.287 54.448 645.839 55 645.839C55.552 645.839 56 646.287 56 646.839ZM56 652.839C56 653.391 55.552 653.839 55 653.839C54.448 653.839 54 653.391 54 652.839C54 652.287 54.448 651.839 55 651.839C55.552 651.839 56 652.287 56 652.839ZM56 658.839C56 659.391 55.552 659.839 55 659.839C54.448 659.839 54 659.391 54 658.839C54 658.287 54.448 657.839 55 657.839C55.552 657.839 56 658.287 56 658.839ZM56 664.839C56 665.391 55.552 665.839 55 665.839C54.448 665.839 54 665.391 54 664.839C54 664.287 54.448 663.839 55 663.839C55.552 663.839 56 664.287 56 664.839ZM56 670.839C56 671.391 55.552 671.839 55 671.839C54.448 671.839 54 671.391 54 670.839C54 670.287 54.448 669.839 55 669.839C55.552 669.839 56 670.287 56 670.839ZM56 676.839C56 677.391 55.552 677.839 55 677.839C54.448 677.839 54 677.391 54 676.839C54 676.287 54.448 675.839 55 675.839C55.552 675.839 56 676.287 56 676.839ZM56 682.839C56 683.391 55.552 683.839 55 683.839C54.448 683.839 54 683.391 54 682.839C54 682.287 54.448 681.839 55 681.839C55.552 681.839 56 682.287 56 682.839ZM56 712.839C56 713.391 55.552 713.839 55 713.839C54.448 713.839 54 713.391 54 712.839C54 712.287 54.448 711.839 55 711.839C55.552 711.839 56 712.287 56 712.839ZM56 688.839C56 689.391 55.552 689.839 55 689.839C54.448 689.839 54 689.391 54 688.839C54 688.287 54.448 687.839 55 687.839C55.552 687.839 56 688.287 56 688.839ZM56 694.839C56 695.391 55.552 695.839 55 695.839C54.448 695.839 54 695.391 54 694.839C54 694.287 54.448 693.839 55 693.839C55.552 693.839 56 694.287 56 694.839ZM56 700.839C56 701.391 55.552 701.839 55 701.839C54.448 701.839 54 701.391 54 700.839C54 700.287 54.448 699.839 55 699.839C55.552 699.839 56 700.287 56 700.839ZM56 706.839C56 707.391 55.552 707.839 55 707.839C54.448 707.839 54 707.391 54 706.839C54 706.287 54.448 705.839 55 705.839C55.552 705.839 56 706.287 56 706.839Z" fill="#4D72EF"/>
<path fill-rule="evenodd" clip-rule="evenodd" d="M128.211 61.3136C127.343 61.8969 126.438 62.4244 125.498 62.8847C123.671 63.7795 121.722 64.4241 119.722 64.7949C117.228 65.257 114.656 65.2962 112.149 64.9128C110.04 64.5901 107.979 63.9652 106.046 63.0621C102.964 61.6225 100.223 59.4809 98.0743 56.8455C96.2869 54.6535 94.9152 52.128 94.0577 49.4325C93.2663 46.9446 92.9172 44.3224 93.0165 41.7141C93.1199 38.9965 93.7159 36.3031 94.776 33.7984C95.9088 31.122 97.5637 28.6733 99.6185 26.6186C101.673 24.5638 104.122 22.9089 106.798 21.7761C109.303 20.7159 111.996 20.1199 114.714 20.0165C117.322 19.9172 119.945 20.2663 122.433 21.0578C125.128 21.9153 127.654 23.2869 129.845 25.0743C132.481 27.2233 134.622 29.9644 136.062 33.0457C136.965 34.9787 137.59 37.0397 137.913 39.1488C138.296 41.6556 138.257 44.228 137.795 46.7215C137.424 48.7223 136.78 50.6709 135.885 52.4984C135.424 53.4384 134.897 54.3426 134.313 55.2114L146.309 67.2973C146.64 67.6325 146.917 68.016 147.123 68.4398C147.684 69.5897 147.692 70.9618 147.146 72.1185C146.923 72.5909 146.612 73.0133 146.239 73.3777C145.877 73.7302 145.438 74.0125 144.974 74.2106C144.495 74.4159 143.977 74.5317 143.456 74.5505C142.9 74.5705 142.342 74.4804 141.821 74.2866C141.248 74.0736 140.731 73.7372 140.297 73.3084L128.211 61.3136ZM144.895 71.892C144.909 71.8668 144.935 71.8501 144.954 71.8285C145.002 71.7739 145.048 71.7171 145.092 71.6583C145.202 71.508 145.295 71.3448 145.368 71.1729C145.621 70.5733 145.609 69.8808 145.316 69.2972C145.207 69.0802 145.06 68.8881 144.894 68.7115L133.067 56.8843C132.978 56.9926 132.889 57.1 132.799 57.206L132.751 57.2618L132.663 57.3645L132.574 57.4667L132.536 57.5094L132.519 57.5284L132.507 57.5418L132.484 57.5684L132.447 57.6091L132.426 57.6337L132.412 57.6485L132.394 57.6695L132.359 57.7079L132.331 57.7384L132.303 57.77L132.27 57.8058L132.236 57.8425L132.211 57.8701L132.181 57.9024L132.141 57.9461L132.119 57.9695L132.093 57.9976L132.045 58.049L131.948 58.1513L131.921 58.18C131.678 58.4339 131.43 58.6822 131.176 58.9245L131.151 58.948L131.049 59.0448L130.946 59.141L130.899 59.1847L130.87 59.2113L130.843 59.2365L130.802 59.2734L130.77 59.3027L130.738 59.3314L130.704 59.3623L130.669 59.3936L130.651 59.4103L130.634 59.4256L130.605 59.451L130.568 59.4839L130.545 59.5048L130.528 59.5192L130.505 59.5394L130.467 59.5735L130.437 59.5993L130.423 59.6121L130.405 59.6275L130.364 59.6626L130.262 59.7511L130.209 59.7961L130.158 59.839L130.055 59.9262C130.02 59.9551 129.985 59.984 129.95 60.0129L141.712 71.8942C141.905 72.075 142.122 72.2265 142.363 72.3376C142.915 72.5927 143.556 72.6206 144.124 72.398C144.327 72.3185 144.503 72.1977 144.675 72.0645C144.733 72.0193 144.79 71.9734 144.849 71.9286C144.864 71.9166 144.876 71.8945 144.895 71.892ZM114.587 22.0239C112.179 22.1396 109.797 22.6792 107.577 23.6188C105.137 24.6513 102.905 26.1597 101.032 28.0325C99.1596 29.9053 97.6513 32.1372 96.6188 34.5766C95.7084 36.7273 95.1736 39.0307 95.0359 41.3614H99.7746V43.3614H95.0147C95.0825 45.1728 95.387 46.9741 95.9261 48.7056C96.6927 51.1682 97.9293 53.4785 99.5471 55.4868C101.596 58.0305 104.247 60.0763 107.232 61.4047C109.013 62.1973 110.906 62.7327 112.838 62.9909C113.418 63.0685 114.002 63.1214 114.587 63.1493V58.1734C115.253 58.1734 115.92 58.1734 116.587 58.1734V63.1493C117.729 63.0945 118.867 62.9452 119.984 62.7017C121.831 62.2992 123.62 61.6387 125.286 60.7461C126.126 60.2965 126.931 59.7871 127.701 59.2283L127.749 59.1934L127.783 59.1684C129.456 57.9354 130.935 56.4557 132.168 54.783L132.219 54.7138L132.228 54.7016C132.787 53.9308 133.296 53.1259 133.746 52.2865C134.639 50.6202 135.299 48.831 135.702 46.984C135.961 45.7933 136.114 44.5795 136.159 43.3614H131.399C131.399 42.6948 131.399 42.0281 131.399 41.3614H136.137C136.107 40.8517 136.059 40.3434 135.991 39.8375C135.733 37.9057 135.197 36.0126 134.405 34.2319C133.076 31.2473 131.031 28.5962 128.487 26.5471C126.479 24.9294 124.168 23.6928 121.706 22.9261C120.046 22.4094 118.322 22.1081 116.587 22.0244V26.5494C115.92 26.5494 115.253 26.5494 114.587 26.5494V22.0239ZM123.229 51.5595C123.612 52.1226 124.135 52.5829 124.748 52.8905C122.312 55.0581 119.102 56.3763 115.587 56.3763C113.68 56.3763 111.863 55.9886 110.211 55.2877C110.72 54.831 111.111 54.2458 111.332 53.5836C112.652 54.0955 114.087 54.3763 115.587 54.3763C118.49 54.3763 121.149 53.3247 123.204 51.582L123.229 51.5595ZM115.587 28.7968C117.291 28.7968 118.953 29.1075 120.509 29.7027C120.071 30.2109 119.759 30.8278 119.62 31.5072C118.342 31.0396 116.982 30.7968 115.587 30.7968C109.08 30.7968 103.797 36.08 103.797 42.5866C103.797 44.8768 104.451 47.0154 105.583 48.8254C104.981 49.1623 104.476 49.6517 104.118 50.2406C102.652 48.0514 101.797 45.4181 101.797 42.5866C101.797 34.9754 107.975 28.7968 115.587 28.7968ZM129.376 42.5866C129.376 43.8015 129.219 44.9798 128.923 46.1023C128.386 45.7029 127.746 45.435 127.051 45.346C127.264 44.4617 127.376 43.5372 127.376 42.5866C127.376 40.1608 126.64 37.8488 125.299 35.905C125.911 35.6048 126.436 35.1515 126.823 34.5955C128.469 36.9042 129.376 39.6773 129.376 42.5866Z" fill="white" fill-opacity="0.5"/>
<path fill-rule="evenodd" clip-rule="evenodd" d="M107.539 50.3135C108.643 50.3135 109.539 51.2097 109.539 52.3135C109.539 53.4174 108.643 54.3135 107.539 54.3135C106.435 54.3135 105.539 53.4174 105.539 52.3135C105.539 51.2097 106.435 50.3135 107.539 50.3135ZM126.539 47.3135C127.643 47.3135 128.539 48.2097 128.539 49.3135C128.539 50.4174 127.643 51.3135 126.539 51.3135C125.435 51.3135 124.539 50.4174 124.539 49.3135C124.539 48.2097 125.435 47.3135 126.539 47.3135ZM115.539 36.3135C112.228 36.3135 109.539 39.002 109.539 42.3135C109.539 45.625 112.228 48.3135 115.539 48.3135C118.851 48.3135 121.539 45.625 121.539 42.3135C121.539 39.002 118.851 36.3135 115.539 36.3135ZM115.539 38.3135C117.747 38.3135 119.539 40.1059 119.539 42.3135C119.539 44.5212 117.747 46.3135 115.539 46.3135C113.331 46.3135 111.539 44.5212 111.539 42.3135C111.539 40.1059 113.331 38.3135 115.539 38.3135ZM123.539 30.3135C124.643 30.3135 125.539 31.2097 125.539 32.3135C125.539 33.4174 124.643 34.3135 123.539 34.3135C122.435 34.3135 121.539 33.4174 121.539 32.3135C121.539 31.2097 122.435 30.3135 123.539 30.3135Z" fill="#E01A33"/>
<path d="M134.09 351C134.094 350.171 134.028 349.341 133.893 348.52L138.403 344.977C137.636 342.5 136.394 340.2 134.745 338.204L129.335 340.08C127.924 338.784 126.271 337.776 124.469 337.113L123.69 331.463C121.156 330.908 118.533 330.851 115.968 331.297L114.846 336.905C113.006 337.49 111.294 338.425 109.805 339.659L104.516 337.552C102.748 339.474 101.368 341.718 100.451 344.159L104.739 347.892C104.506 348.915 104.382 349.957 104.368 351" stroke="#E01A33" stroke-width="2"/>
<path fill-rule="evenodd" clip-rule="evenodd" d="M105 376.493H100.855C97.621 376.493 95 379.114 95 382.348C95 388.747 95 389.48 95 389.517C95 389.892 94.5 389.886 94 389.786L93.906 389.804C93.439 389.885 93 389.869 93 389.517C93 389.48 93 388.747 93 382.348C93 378.01 96.517 374.493 100.855 374.493H105V376.493ZM145.67 389.804C145.203 389.885 144.764 389.869 144.764 389.517V382.348C144.764 379.114 142.142 376.493 138.909 376.493H134.764V374.493H138.909C143.247 374.493 146.764 378.01 146.764 382.348C146.764 388.747 146.764 389.48 146.764 389.517C146.764 389.892 146.264 389.886 145.764 389.786L145.67 389.804ZM115.855 372.493C112.621 372.493 110 375.114 110 378.348V389.493H108V378.348C108 374.01 111.517 370.493 115.855 370.493H124.145C128.483 370.493 132 374.01 132 378.348V389.493H130V378.348C130 375.114 127.378 372.493 124.145 372.493H115.855ZM110.479 365.941C109.541 368.033 107.439 369.493 105 369.493C101.688 369.493 99 366.804 99 363.493C99 360.181 101.688 357.493 105 357.493C106.289 357.493 107.484 357.9 108.462 358.593C108.913 358.912 109.537 358.806 109.856 358.355C110.175 357.905 110.069 357.28 109.619 356.961C108.313 356.037 106.72 355.493 105 355.493C100.585 355.493 97 359.077 97 363.493C97 367.908 100.585 371.493 105 371.493C108.252 371.493 111.053 369.548 112.304 366.759C112.529 366.256 112.304 365.664 111.8 365.438C111.296 365.212 110.704 365.438 110.479 365.941ZM127.851 366.759C129.101 369.548 131.903 371.493 135.155 371.493C139.57 371.493 143.155 367.908 143.155 363.493C143.155 359.077 139.57 355.493 135.155 355.493C133.435 355.493 131.841 356.037 130.536 356.961C130.086 357.28 129.979 357.905 130.298 358.355C130.617 358.806 131.242 358.912 131.692 358.593C132.671 357.9 133.866 357.493 135.155 357.493C138.466 357.493 141.155 360.181 141.155 363.493C141.155 366.804 138.466 369.493 135.155 369.493C132.715 369.493 130.614 368.033 129.676 365.941C129.45 365.438 128.858 365.212 128.355 365.438C127.851 365.664 127.625 366.256 127.851 366.759ZM120 351.493C115.585 351.493 112 355.077 112 359.493C112 363.908 115.585 367.493 120 367.493C124.415 367.493 128 363.908 128 359.493C128 355.077 124.415 351.493 120 351.493ZM120 353.493C123.311 353.493 126 356.181 126 359.493C126 362.804 123.311 365.493 120 365.493C116.688 365.493 114 362.804 114 359.493C114 356.181 116.688 353.493 120 353.493Z" fill="white" fill-opacity="0.5"/>
<path d="M111.947 351.519C111.947 347.391 115.299 344.039 119.428 344.039C123.557 344.039 126.908 347.391 126.908 351.519" stroke="#E01A33" stroke-width="2"/>
<path fill-rule="evenodd" clip-rule="evenodd" d="M106.501 341.519C107.318 341.519 107.981 342.183 107.981 343C107.981 343.817 107.318 344.481 106.501 344.481C105.684 344.481 105.02 343.817 105.02 343C105.02 342.183 105.684 341.519 106.501 341.519ZM119.429 334.558C120.246 334.558 120.909 335.222 120.909 336.039C120.909 336.856 120.246 337.519 119.429 337.519C118.612 337.519 117.948 336.856 117.948 336.039C117.948 335.222 118.612 334.558 119.429 334.558ZM133.152 342.039C133.969 342.039 134.632 342.702 134.632 343.519C134.632 344.337 133.969 345 133.152 345C132.335 345 131.671 344.337 131.671 343.519C131.671 342.702 132.335 342.039 133.152 342.039Z" fill="#E01A33"/>
<path fill-rule="evenodd" clip-rule="evenodd" d="M148 630V632.467H146V632H95V672H120.236V674H93V630H148Z" fill="white" fill-opacity="0.5"/>
<path fill-rule="evenodd" clip-rule="evenodd" d="M107 683H134V677H107V683ZM109 681H132V679H109V681ZM152.961 661.61C153.513 661.61 153.961 662.058 153.961 662.61V672.198C153.961 672.751 153.513 673.198 152.961 673.198H124C123.447 673.198 123 672.751 123 672.198V662.61C123 662.058 123.447 661.61 124 661.61H152.961ZM125 671.198H151.961V663.61H125V671.198ZM152.961 634.261C153.513 634.261 153.961 634.709 153.961 635.261V644.848C153.961 645.401 153.513 645.848 152.961 645.848H124C123.447 645.848 123 645.401 123 644.848V635.261C123 634.709 123.447 634.261 124 634.261H152.961ZM125 643.848H151.961V636.261H125V643.848ZM152.961 647.776C153.513 647.776 153.961 648.224 153.961 648.776V658.363C153.961 658.916 153.513 659.363 152.961 659.363H124C123.447 659.363 123 658.916 123 658.363V648.776C123 648.224 123.447 647.776 124 647.776H152.961ZM125 657.363H151.961V649.776H125V657.363Z" fill="white" fill-opacity="0.5"/>
<path fill-rule="evenodd" clip-rule="evenodd" d="M94.2363 666.57H120.236V664.57H94.2363V666.57Z" fill="white" fill-opacity="0.5"/>
<path fill-rule="evenodd" clip-rule="evenodd" d="M99 644H118V642H99V644Z" fill="white" fill-opacity="0.5"/>
<path fill-rule="evenodd" clip-rule="evenodd" d="M98.8398 650.598V660.99H101.159V650.598H98.8398Z" fill="white" fill-opacity="0.5"/>
<path fill-rule="evenodd" clip-rule="evenodd" d="M103.84 648V660.99H106.159V648H103.84Z" fill="white" fill-opacity="0.5"/>
<path fill-rule="evenodd" clip-rule="evenodd" d="M108.84 653.196V660.99H111.159V653.196H108.84Z" fill="white" fill-opacity="0.5"/>
<path fill-rule="evenodd" clip-rule="evenodd" d="M113.84 649.299V661.033H116.159V649.299H113.84Z" fill="white" fill-opacity="0.5"/>
<path fill-rule="evenodd" clip-rule="evenodd" d="M125 675V677H127V675H125Z" fill="white" fill-opacity="0.5"/>
<path fill-rule="evenodd" clip-rule="evenodd" d="M99 636H101V634H99V636Z" fill="#E01A33"/>
<path fill-rule="evenodd" clip-rule="evenodd" d="M103 636H105V634H103V636Z" fill="#E01A33"/>
<path fill-rule="evenodd" clip-rule="evenodd" d="M107 636H109V634H107V636Z" fill="#E01A33"/>
<path fill-rule="evenodd" clip-rule="evenodd" d="M130.113 667.188L132.626 664.676L134.04 666.09L130.113 670.016L127.26 667.163L128.674 665.749L130.113 667.188Z" fill="#E01A33"/>
<path fill-rule="evenodd" clip-rule="evenodd" d="M136.184 668.404H147.332V666.404H136.184V668.404Z" fill="#E01A33"/>
<path fill-rule="evenodd" clip-rule="evenodd" d="M130.113 639.839L132.626 637.327L134.04 638.741L130.113 642.667L127.26 639.814L128.674 638.4L130.113 639.839Z" fill="#E01A33"/>
<path fill-rule="evenodd" clip-rule="evenodd" d="M136.184 641.055H147.332V639.055H136.184V641.055Z" fill="#E01A33"/>
<path fill-rule="evenodd" clip-rule="evenodd" d="M130.113 653.354L132.626 650.842L134.04 652.256L130.113 656.182L127.26 653.329L128.674 651.915L130.113 653.354Z" fill="#E01A33"/>
<path fill-rule="evenodd" clip-rule="evenodd" d="M136.184 654.57H147.332V652.57H136.184V654.57Z" fill="#E01A33"/>
<path fill-rule="evenodd" clip-rule="evenodd" d="M115.115 674V677H116.883V674H115.115Z" fill="white" fill-opacity="0.5"/>
<path d="M293.026 281.168C292.363 281.168 291.766 281.065 291.234 280.86C290.702 280.645 290.249 280.333 289.876 279.922C289.503 279.502 289.213 278.984 289.008 278.368C288.803 277.743 288.7 277.015 288.7 276.184C288.7 275.363 288.803 274.635 289.008 274C289.213 273.356 289.503 272.819 289.876 272.39C290.249 271.951 290.702 271.62 291.234 271.396C291.766 271.172 292.363 271.06 293.026 271.06C293.931 271.06 294.678 271.247 295.266 271.62C295.854 271.984 296.325 272.563 296.68 273.356L294.846 274.308C294.715 273.897 294.51 273.571 294.23 273.328C293.959 273.076 293.558 272.95 293.026 272.95C292.401 272.95 291.897 273.155 291.514 273.566C291.141 273.967 290.954 274.555 290.954 275.33V276.898C290.954 277.673 291.141 278.265 291.514 278.676C291.897 279.077 292.401 279.278 293.026 279.278C293.549 279.278 293.964 279.138 294.272 278.858C294.589 278.569 294.823 278.223 294.972 277.822L296.708 278.83C296.344 279.577 295.863 280.155 295.266 280.566C294.678 280.967 293.931 281.168 293.026 281.168ZM302.579 273.65H304.511L301.683 282.134C301.496 282.703 301.23 283.123 300.885 283.394C300.549 283.665 300.064 283.8 299.429 283.8H298.141V282.19H299.527L299.779 281.378L297.203 273.65H299.261L300.339 277.08L300.871 279.208H300.955L301.501 277.08L302.579 273.65ZM305.564 270.64H307.636V274.882H307.706C307.808 274.471 308.042 274.135 308.406 273.874C308.779 273.613 309.204 273.482 309.68 273.482C310.613 273.482 311.318 273.809 311.794 274.462C312.27 275.115 312.508 276.067 312.508 277.318C312.508 278.569 312.27 279.525 311.794 280.188C311.318 280.841 310.613 281.168 309.68 281.168C309.437 281.168 309.208 281.131 308.994 281.056C308.779 280.991 308.583 280.897 308.406 280.776C308.238 280.645 308.093 280.496 307.972 280.328C307.85 280.151 307.762 279.964 307.706 279.768H307.636V281H305.564V270.64ZM308.994 279.488C309.386 279.488 309.708 279.353 309.96 279.082C310.221 278.802 310.352 278.429 310.352 277.962V276.688C310.352 276.221 310.221 275.853 309.96 275.582C309.708 275.302 309.386 275.162 308.994 275.162C308.602 275.162 308.275 275.26 308.014 275.456C307.762 275.643 307.636 275.904 307.636 276.24V278.41C307.636 278.746 307.762 279.012 308.014 279.208C308.275 279.395 308.602 279.488 308.994 279.488ZM317.147 281.168C316.587 281.168 316.088 281.079 315.649 280.902C315.211 280.715 314.837 280.459 314.529 280.132C314.231 279.796 314.002 279.39 313.843 278.914C313.694 278.438 313.619 277.906 313.619 277.318C313.619 276.739 313.694 276.217 313.843 275.75C313.993 275.274 314.212 274.868 314.501 274.532C314.8 274.196 315.164 273.939 315.593 273.762C316.023 273.575 316.513 273.482 317.063 273.482C317.67 273.482 318.188 273.585 318.617 273.79C319.056 273.995 319.411 274.271 319.681 274.616C319.961 274.961 320.162 275.363 320.283 275.82C320.414 276.268 320.479 276.739 320.479 277.234V277.85H315.761V277.962C315.761 278.447 315.892 278.835 316.153 279.124C316.415 279.404 316.825 279.544 317.385 279.544C317.815 279.544 318.165 279.46 318.435 279.292C318.706 279.115 318.958 278.905 319.191 278.662L320.227 279.95C319.901 280.333 319.471 280.631 318.939 280.846C318.417 281.061 317.819 281.168 317.147 281.168ZM317.105 275.008C316.685 275.008 316.354 275.148 316.111 275.428C315.878 275.699 315.761 276.063 315.761 276.52V276.632H318.337V276.506C318.337 276.058 318.235 275.699 318.029 275.428C317.833 275.148 317.525 275.008 317.105 275.008ZM321.943 281V273.65H324.015V275.246H324.085C324.122 275.041 324.187 274.845 324.281 274.658C324.374 274.462 324.495 274.289 324.645 274.14C324.803 273.991 324.99 273.874 325.205 273.79C325.419 273.697 325.671 273.65 325.961 273.65H326.325V275.582H325.807C325.2 275.582 324.747 275.661 324.449 275.82C324.159 275.979 324.015 276.273 324.015 276.702V281H321.943ZM331.771 281.168C331.127 281.168 330.539 281.061 330.007 280.846C329.475 280.631 329.023 280.314 328.649 279.894C328.276 279.465 327.987 278.937 327.781 278.312C327.576 277.677 327.473 276.945 327.473 276.114C327.473 275.283 327.576 274.555 327.781 273.93C327.987 273.295 328.276 272.768 328.649 272.348C329.023 271.919 329.475 271.597 330.007 271.382C330.539 271.167 331.127 271.06 331.771 271.06C332.415 271.06 333.003 271.167 333.535 271.382C334.067 271.597 334.52 271.919 334.893 272.348C335.267 272.768 335.556 273.295 335.761 273.93C335.967 274.555 336.069 275.283 336.069 276.114C336.069 276.945 335.967 277.677 335.761 278.312C335.556 278.937 335.267 279.465 334.893 279.894C334.52 280.314 334.067 280.631 333.535 280.846C333.003 281.061 332.415 281.168 331.771 281.168ZM331.771 279.278C332.415 279.278 332.915 279.068 333.269 278.648C333.633 278.228 333.815 277.626 333.815 276.842V275.386C333.815 274.602 333.633 274 333.269 273.58C332.915 273.16 332.415 272.95 331.771 272.95C331.127 272.95 330.623 273.16 330.259 273.58C329.905 274 329.727 274.602 329.727 275.386V276.842C329.727 277.626 329.905 278.228 330.259 278.648C330.623 279.068 331.127 279.278 331.771 279.278ZM337.734 273.65H339.806V274.882H339.876C339.978 274.471 340.212 274.135 340.576 273.874C340.949 273.613 341.374 273.482 341.85 273.482C342.783 273.482 343.488 273.809 343.964 274.462C344.44 275.115 344.678 276.067 344.678 277.318C344.678 278.569 344.44 279.525 343.964 280.188C343.488 280.841 342.783 281.168 341.85 281.168C341.607 281.168 341.378 281.131 341.164 281.056C340.949 280.991 340.753 280.897 340.576 280.776C340.408 280.645 340.263 280.496 340.142 280.328C340.02 280.151 339.932 279.964 339.876 279.768H339.806V283.8H337.734V273.65ZM341.164 279.488C341.556 279.488 341.878 279.353 342.13 279.082C342.391 278.802 342.522 278.429 342.522 277.962V276.688C342.522 276.221 342.391 275.853 342.13 275.582C341.878 275.302 341.556 275.162 341.164 275.162C340.772 275.162 340.445 275.26 340.184 275.456C339.932 275.643 339.806 275.904 339.806 276.24V278.41C339.806 278.746 339.932 279.012 340.184 279.208C340.445 279.395 340.772 279.488 341.164 279.488ZM348.743 281.168C348.034 281.168 347.436 281.056 346.951 280.832C346.466 280.599 346.032 280.272 345.649 279.852L346.867 278.62C347.128 278.909 347.418 279.138 347.735 279.306C348.052 279.474 348.412 279.558 348.813 279.558C349.224 279.558 349.508 279.497 349.667 279.376C349.826 279.245 349.905 279.073 349.905 278.858C349.905 278.513 349.658 278.307 349.163 278.242L348.365 278.144C346.713 277.939 345.887 277.183 345.887 275.876C345.887 275.521 345.952 275.199 346.083 274.91C346.223 274.611 346.414 274.359 346.657 274.154C346.909 273.939 347.208 273.776 347.553 273.664C347.908 273.543 348.304 273.482 348.743 273.482C349.126 273.482 349.462 273.51 349.751 273.566C350.05 273.613 350.311 273.687 350.535 273.79C350.768 273.883 350.978 274.005 351.165 274.154C351.361 274.294 351.552 274.453 351.739 274.63L350.549 275.848C350.316 275.615 350.05 275.433 349.751 275.302C349.462 275.162 349.163 275.092 348.855 275.092C348.5 275.092 348.248 275.148 348.099 275.26C347.95 275.372 347.875 275.521 347.875 275.708C347.875 275.904 347.926 276.058 348.029 276.17C348.141 276.273 348.346 276.347 348.645 276.394L349.471 276.506C351.086 276.721 351.893 277.458 351.893 278.718C351.893 279.073 351.818 279.399 351.669 279.698C351.52 279.997 351.305 280.258 351.025 280.482C350.754 280.697 350.423 280.865 350.031 280.986C349.648 281.107 349.219 281.168 348.743 281.168Z" fill="#E01A33"/>
<path d="M293.025 281.168C292.363 281.168 291.765 281.065 291.233 280.86C290.701 280.645 290.249 280.333 289.875 279.922C289.502 279.502 289.213 278.984 289.007 278.368C288.802 277.743 288.699 277.015 288.699 276.184C288.699 275.363 288.802 274.635 289.007 274C289.213 273.356 289.502 272.819 289.875 272.39C290.249 271.951 290.701 271.62 291.233 271.396C291.765 271.172 292.363 271.06 293.025 271.06C293.931 271.06 294.677 271.247 295.265 271.62C295.853 271.984 296.325 272.563 296.679 273.356L294.845 274.308C294.715 273.897 294.509 273.571 294.229 273.328C293.959 273.076 293.557 272.95 293.025 272.95C292.4 272.95 291.896 273.155 291.513 273.566C291.14 273.967 290.953 274.555 290.953 275.33V276.898C290.953 277.673 291.14 278.265 291.513 278.676C291.896 279.077 292.4 279.278 293.025 279.278C293.548 279.278 293.963 279.138 294.271 278.858C294.589 278.569 294.822 278.223 294.971 277.822L296.707 278.83C296.343 279.577 295.863 280.155 295.265 280.566C294.677 280.967 293.931 281.168 293.025 281.168Z" fill="#E01A33"/>
<path d="M302.578 273.65H304.51L301.682 282.134C301.496 282.703 301.23 283.123 300.884 283.394C300.548 283.665 300.063 283.8 299.428 283.8H298.14V282.19H299.526L299.778 281.378L297.202 273.65H299.26L300.338 277.08L300.87 279.208H300.954L301.5 277.08L302.578 273.65Z" fill="#E01A33"/>
<path d="M305.563 270.64H307.635V274.882H307.705C307.808 274.471 308.041 274.135 308.405 273.874C308.778 273.613 309.203 273.482 309.679 273.482C310.612 273.482 311.317 273.809 311.793 274.462C312.269 275.115 312.507 276.067 312.507 277.318C312.507 278.569 312.269 279.525 311.793 280.188C311.317 280.841 310.612 281.168 309.679 281.168C309.436 281.168 309.208 281.131 308.993 281.056C308.778 280.991 308.582 280.897 308.405 280.776C308.237 280.645 308.092 280.496 307.971 280.328C307.85 280.151 307.761 279.964 307.705 279.768H307.635V281H305.563V270.64ZM308.993 279.488C309.385 279.488 309.707 279.353 309.959 279.082C310.22 278.802 310.351 278.429 310.351 277.962V276.688C310.351 276.221 310.22 275.853 309.959 275.582C309.707 275.302 309.385 275.162 308.993 275.162C308.601 275.162 308.274 275.26 308.013 275.456C307.761 275.643 307.635 275.904 307.635 276.24V278.41C307.635 278.746 307.761 279.012 308.013 279.208C308.274 279.395 308.601 279.488 308.993 279.488Z" fill="#E01A33"/>
<path d="M317.146 281.168C316.586 281.168 316.087 281.079 315.648 280.902C315.21 280.715 314.836 280.459 314.528 280.132C314.23 279.796 314.001 279.39 313.842 278.914C313.693 278.438 313.618 277.906 313.618 277.318C313.618 276.739 313.693 276.217 313.842 275.75C313.992 275.274 314.211 274.868 314.5 274.532C314.799 274.196 315.163 273.939 315.592 273.762C316.022 273.575 316.512 273.482 317.062 273.482C317.669 273.482 318.187 273.585 318.616 273.79C319.055 273.995 319.41 274.271 319.68 274.616C319.96 274.961 320.161 275.363 320.282 275.82C320.413 276.268 320.478 276.739 320.478 277.234V277.85H315.76V277.962C315.76 278.447 315.891 278.835 316.152 279.124C316.414 279.404 316.824 279.544 317.384 279.544C317.814 279.544 318.164 279.46 318.434 279.292C318.705 279.115 318.957 278.905 319.19 278.662L320.226 279.95C319.9 280.333 319.47 280.631 318.938 280.846C318.416 281.061 317.818 281.168 317.146 281.168ZM317.104 275.008C316.684 275.008 316.353 275.148 316.11 275.428C315.877 275.699 315.76 276.063 315.76 276.52V276.632H318.336V276.506C318.336 276.058 318.234 275.699 318.028 275.428C317.832 275.148 317.524 275.008 317.104 275.008Z" fill="#E01A33"/>
<path d="M321.942 281V273.65H324.014V275.246H324.084C324.121 275.041 324.186 274.845 324.28 274.658C324.373 274.462 324.494 274.289 324.644 274.14C324.802 273.991 324.989 273.874 325.204 273.79C325.418 273.697 325.67 273.65 325.96 273.65H326.324V275.582H325.806C325.199 275.582 324.746 275.661 324.448 275.82C324.158 275.979 324.014 276.273 324.014 276.702V281H321.942Z" fill="#E01A33"/>
<path d="M331.771 281.168C331.127 281.168 330.539 281.061 330.007 280.846C329.475 280.631 329.022 280.314 328.649 279.894C328.275 279.465 327.986 278.937 327.781 278.312C327.575 277.677 327.473 276.945 327.473 276.114C327.473 275.283 327.575 274.555 327.781 273.93C327.986 273.295 328.275 272.768 328.649 272.348C329.022 271.919 329.475 271.597 330.007 271.382C330.539 271.167 331.127 271.06 331.771 271.06C332.415 271.06 333.003 271.167 333.535 271.382C334.067 271.597 334.519 271.919 334.893 272.348C335.266 272.768 335.555 273.295 335.761 273.93C335.966 274.555 336.069 275.283 336.069 276.114C336.069 276.945 335.966 277.677 335.761 278.312C335.555 278.937 335.266 279.465 334.893 279.894C334.519 280.314 334.067 280.631 333.535 280.846C333.003 281.061 332.415 281.168 331.771 281.168ZM331.771 279.278C332.415 279.278 332.914 279.068 333.269 278.648C333.633 278.228 333.815 277.626 333.815 276.842V275.386C333.815 274.602 333.633 274 333.269 273.58C332.914 273.16 332.415 272.95 331.771 272.95C331.127 272.95 330.623 273.16 330.259 273.58C329.904 274 329.727 274.602 329.727 275.386V276.842C329.727 277.626 329.904 278.228 330.259 278.648C330.623 279.068 331.127 279.278 331.771 279.278Z" fill="#E01A33"/>
<path d="M337.733 273.65H339.805V274.882H339.875C339.977 274.471 340.211 274.135 340.575 273.874C340.948 273.613 341.373 273.482 341.849 273.482C342.782 273.482 343.487 273.809 343.963 274.462C344.439 275.115 344.677 276.067 344.677 277.318C344.677 278.569 344.439 279.525 343.963 280.188C343.487 280.841 342.782 281.168 341.849 281.168C341.606 281.168 341.377 281.131 341.163 281.056C340.948 280.991 340.752 280.897 340.575 280.776C340.407 280.645 340.262 280.496 340.141 280.328C340.019 280.151 339.931 279.964 339.875 279.768H339.805V283.8H337.733V273.65ZM341.163 279.488C341.555 279.488 341.877 279.353 342.129 279.082C342.39 278.802 342.521 278.429 342.521 277.962V276.688C342.521 276.221 342.39 275.853 342.129 275.582C341.877 275.302 341.555 275.162 341.163 275.162C340.771 275.162 340.444 275.26 340.183 275.456C339.931 275.643 339.805 275.904 339.805 276.24V278.41C339.805 278.746 339.931 279.012 340.183 279.208C340.444 279.395 340.771 279.488 341.163 279.488Z" fill="#E01A33"/>
<path d="M348.742 281.168C348.033 281.168 347.436 281.056 346.95 280.832C346.465 280.599 346.031 280.272 345.648 279.852L346.866 278.62C347.128 278.909 347.417 279.138 347.734 279.306C348.052 279.474 348.411 279.558 348.812 279.558C349.223 279.558 349.508 279.497 349.666 279.376C349.825 279.245 349.904 279.073 349.904 278.858C349.904 278.513 349.657 278.307 349.162 278.242L348.364 278.144C346.712 277.939 345.886 277.183 345.886 275.876C345.886 275.521 345.952 275.199 346.082 274.91C346.222 274.611 346.414 274.359 346.656 274.154C346.908 273.939 347.207 273.776 347.552 273.664C347.907 273.543 348.304 273.482 348.742 273.482C349.125 273.482 349.461 273.51 349.75 273.566C350.049 273.613 350.31 273.687 350.534 273.79C350.768 273.883 350.978 274.005 351.164 274.154C351.36 274.294 351.552 274.453 351.738 274.63L350.548 275.848C350.315 275.615 350.049 275.433 349.75 275.302C349.461 275.162 349.162 275.092 348.854 275.092C348.5 275.092 348.248 275.148 348.098 275.26C347.949 275.372 347.874 275.521 347.874 275.708C347.874 275.904 347.926 276.058 348.028 276.17C348.14 276.273 348.346 276.347 348.644 276.394L349.47 276.506C351.085 276.721 351.892 277.458 351.892 278.718C351.892 279.073 351.818 279.399 351.668 279.698C351.519 279.997 351.304 280.258 351.024 280.482C350.754 280.697 350.422 280.865 350.03 280.986C349.648 281.107 349.218 281.168 348.742 281.168Z" fill="#E01A33"/>
<path d="M326.996 878.07L326.996 881.794L331 881.794L331 883.922L321.228 883.922L321.228 881.794L325.12 881.794L325.12 878.07L321.228 878.07L321.228 875.942L331 875.942L331 878.07L326.996 878.07Z" fill="#4D72EF"/>
<path d="M322.866 872.867C322.866 873.287 322.772 873.595 322.586 873.791C322.39 873.978 322.142 874.071 321.844 874.071L321.536 874.071C321.237 874.071 320.994 873.978 320.808 873.791C320.612 873.595 320.514 873.287 320.514 872.867C320.514 872.447 320.612 872.144 320.808 871.957C320.994 871.761 321.237 871.663 321.536 871.663L321.844 871.663C322.142 871.663 322.39 871.761 322.586 871.957C322.772 872.144 322.866 872.447 322.866 872.867ZM323.65 873.903L323.65 871.831L331 871.831L331 873.903L323.65 873.903Z" fill="#4D72EF"/>
<path d="M331.532 863.093C331.924 863.093 332.269 863.163 332.568 863.303C332.866 863.434 333.118 863.653 333.324 863.961C333.538 864.269 333.697 864.68 333.8 865.193C333.912 865.697 333.968 866.322 333.968 867.069C333.968 867.704 333.926 868.245 333.842 868.693C333.767 869.132 333.655 869.491 333.506 869.771C333.366 870.042 333.188 870.242 332.974 870.373C332.768 870.494 332.53 870.555 332.26 870.555C331.849 870.555 331.527 870.434 331.294 870.191C331.06 869.948 330.916 869.612 330.86 869.183L330.706 869.183C330.64 869.538 330.491 869.804 330.258 869.981C330.015 870.158 329.735 870.247 329.418 870.247C329.222 870.247 329.054 870.21 328.914 870.135C328.764 870.051 328.638 869.948 328.536 869.827C328.424 869.696 328.335 869.547 328.27 869.379C328.204 869.211 328.153 869.043 328.116 868.875L328.06 868.875C327.854 869.323 327.574 869.654 327.22 869.869C326.856 870.084 326.436 870.191 325.96 870.191C325.213 870.191 324.616 869.934 324.168 869.421C323.71 868.898 323.482 868.105 323.482 867.041C323.482 866.556 323.528 866.14 323.622 865.795L323.342 865.795C322.95 865.795 322.67 865.702 322.502 865.515C322.324 865.319 322.236 865.044 322.236 864.689L322.236 863.527L323.776 863.527L323.776 865.151L323.86 865.151C324.065 864.722 324.35 864.404 324.714 864.199C325.068 863.994 325.484 863.891 325.96 863.891C326.697 863.891 327.29 864.152 327.738 864.675C328.176 865.188 328.396 865.977 328.396 867.041C328.396 867.517 328.344 867.951 328.242 868.343C328.382 868.558 328.578 868.665 328.83 868.665C329.007 868.665 329.147 868.6 329.25 868.469C329.343 868.329 329.39 868.1 329.39 867.783L329.39 865.655C329.39 864.759 329.576 864.11 329.95 863.709C330.323 863.298 330.85 863.093 331.532 863.093ZM331.812 865.039C331.597 865.039 331.434 865.123 331.322 865.291C331.21 865.459 331.154 865.753 331.154 866.173L331.154 868.693C331.247 868.786 331.35 868.856 331.462 868.903C331.583 868.94 331.7 868.959 331.812 868.959C332.082 868.959 332.278 868.842 332.4 868.609C332.53 868.376 332.596 867.979 332.596 867.419L332.596 866.579C332.596 866.019 332.53 865.622 332.4 865.389C332.278 865.156 332.082 865.039 331.812 865.039ZM327.038 867.041C327.038 866.63 326.954 866.327 326.786 866.131C326.608 865.926 326.356 865.823 326.03 865.823L325.862 865.823C325.535 865.823 325.288 865.926 325.12 866.131C324.942 866.327 324.854 866.63 324.854 867.041C324.854 867.452 324.942 867.76 325.12 867.965C325.288 868.161 325.535 868.259 325.862 868.259L326.03 868.259C326.356 868.259 326.608 868.161 326.786 867.965C326.954 867.76 327.038 867.452 327.038 867.041Z" fill="#4D72EF"/>
<path d="M320.64 862.173L320.64 860.101L324.896 860.101L324.896 860.017C324.513 859.886 324.182 859.657 323.902 859.331C323.622 859.004 323.482 858.551 323.482 857.973C323.482 857.217 323.734 856.647 324.238 856.265C324.742 855.873 325.46 855.677 326.394 855.677L331 855.677L331 857.749L326.562 857.749C326.086 857.749 325.736 857.823 325.512 857.973C325.278 858.122 325.162 858.388 325.162 858.771C325.162 858.939 325.185 859.102 325.232 859.261C325.269 859.419 325.334 859.564 325.428 859.695C325.521 859.816 325.638 859.914 325.778 859.989C325.908 860.063 326.062 860.101 326.24 860.101L331 860.101L331 862.173L320.64 862.173Z" fill="#4D72EF"/>
<path d="M327.738 854.057L325.722 854.057L325.722 849.899L327.738 849.899L327.738 854.057Z" fill="#4D72EF"/>
<path d="M325.26 847.822L325.26 848.858L323.65 848.858L323.65 847.822L322.782 847.822C322.072 847.822 321.54 847.636 321.186 847.262C320.822 846.889 320.64 846.343 320.64 845.624L320.64 844.28L322.25 844.28L322.25 845.75L323.65 845.75L323.65 841.06L331 841.06L331 843.132L325.26 843.132L325.26 845.75L331 845.75L331 847.822L325.26 847.822ZM322.866 842.096C322.866 842.516 322.772 842.824 322.586 843.02C322.39 843.207 322.142 843.3 321.844 843.3L321.536 843.3C321.237 843.3 320.994 843.207 320.808 843.02C320.612 842.824 320.514 842.516 320.514 842.096C320.514 841.676 320.612 841.373 320.808 841.186C320.994 840.99 321.237 840.892 321.536 840.892L321.844 840.892C322.142 840.892 322.39 840.99 322.586 841.186C322.772 841.373 322.866 841.676 322.866 842.096Z" fill="#4D72EF"/>
<path d="M329.768 834.614L329.768 834.684C329.964 834.74 330.15 834.828 330.328 834.95C330.496 835.071 330.645 835.22 330.776 835.398C330.897 835.566 330.99 835.762 331.056 835.986C331.13 836.2 331.168 836.424 331.168 836.658C331.168 837.591 330.841 838.296 330.188 838.772C329.525 839.248 328.568 839.486 327.318 839.486C326.067 839.486 325.115 839.248 324.462 838.772C323.808 838.296 323.482 837.591 323.482 836.658C323.482 836.182 323.612 835.762 323.874 835.398C324.135 835.024 324.471 834.786 324.882 834.684L324.882 834.614L320.64 834.614L320.64 832.542L331 832.542L331 834.614L329.768 834.614ZM329.488 835.972C329.488 835.58 329.394 835.258 329.208 835.006C329.012 834.744 328.746 834.614 328.41 834.614L326.24 834.614C325.904 834.614 325.642 834.744 325.456 835.006C325.26 835.258 325.162 835.58 325.162 835.972C325.162 836.364 325.302 836.69 325.582 836.952C325.852 837.204 326.221 837.33 326.688 837.33L327.962 837.33C328.428 837.33 328.802 837.204 329.082 836.952C329.352 836.69 329.488 836.364 329.488 835.972Z" fill="#4D72EF"/>
<path d="M331.168 827.538C331.168 828.098 331.079 828.598 330.902 829.036C330.715 829.475 330.458 829.848 330.132 830.156C329.796 830.455 329.39 830.684 328.914 830.842C328.438 830.992 327.906 831.066 327.318 831.066C326.739 831.066 326.216 830.992 325.75 830.842C325.274 830.693 324.868 830.474 324.532 830.184C324.196 829.886 323.939 829.522 323.762 829.092C323.575 828.663 323.482 828.173 323.482 827.622C323.482 827.016 323.584 826.498 323.79 826.068C323.995 825.63 324.27 825.275 324.616 825.004C324.961 824.724 325.362 824.524 325.82 824.402C326.268 824.272 326.739 824.206 327.234 824.206L327.85 824.206L327.85 828.924L327.962 828.924C328.447 828.924 328.834 828.794 329.124 828.532C329.404 828.271 329.544 827.86 329.544 827.3C329.544 826.871 329.46 826.521 329.292 826.25C329.114 825.98 328.904 825.728 328.662 825.494L329.95 824.458C330.332 824.785 330.631 825.214 330.846 825.746C331.06 826.269 331.168 826.866 331.168 827.538ZM325.008 827.58C325.008 828 325.148 828.332 325.428 828.574C325.698 828.808 326.062 828.924 326.52 828.924L326.632 828.924L326.632 826.348L326.506 826.348C326.058 826.348 325.698 826.451 325.428 826.656C325.148 826.852 325.008 827.16 325.008 827.58Z" fill="#4D72EF"/>
<path d="M331 820.685C331 821.394 330.827 821.917 330.482 822.253C330.136 822.58 329.637 822.743 328.984 822.743L320.64 822.743L320.64 820.671L329.39 820.671L329.39 819.747L331 819.747L331 820.685Z" fill="#4D72EF"/>
<path d="M322.866 817.469C322.866 817.889 322.772 818.197 322.586 818.393C322.39 818.579 322.142 818.673 321.844 818.673L321.536 818.673C321.237 818.673 320.994 818.579 320.808 818.393C320.612 818.197 320.514 817.889 320.514 817.469C320.514 817.049 320.612 816.745 320.808 816.559C320.994 816.363 321.237 816.265 321.536 816.265L321.844 816.265C322.142 816.265 322.39 816.363 322.586 816.559C322.772 816.745 322.866 817.049 322.866 817.469ZM323.65 818.505L323.65 816.433L331 816.433L331 818.505L323.65 818.505Z" fill="#4D72EF"/>
<path d="M331 811.923C331 812.641 330.818 813.187 330.454 813.561C330.09 813.925 329.558 814.107 328.858 814.107L325.26 814.107L325.26 815.143L323.65 815.143L323.65 814.625C323.65 814.345 323.584 814.153 323.454 814.051C323.314 813.948 323.118 813.897 322.866 813.897L321.662 813.897L321.662 812.035L323.65 812.035L323.65 810.579L325.26 810.579L325.26 812.035L329.39 812.035L329.39 810.691L331 810.691L331 811.923Z" fill="#4D72EF"/>
<path d="M323.65 804.645L323.65 802.713L332.134 805.541C332.703 805.728 333.123 805.994 333.394 806.339C333.664 806.675 333.8 807.161 333.8 807.795L333.8 809.083L332.19 809.083L332.19 807.697L331.378 807.445L323.65 810.021L323.65 807.963L327.08 806.885L329.208 806.353L329.208 806.269L327.08 805.723L323.65 804.645Z" fill="#4D72EF"/>
<path d="M322.866 797.316C322.866 797.736 322.772 798.044 322.586 798.24C322.39 798.427 322.142 798.52 321.844 798.52L321.536 798.52C321.237 798.52 320.994 798.427 320.808 798.24C320.612 798.044 320.514 797.736 320.514 797.316C320.514 796.896 320.612 796.593 320.808 796.406C320.994 796.21 321.237 796.112 321.536 796.112L321.844 796.112C322.142 796.112 322.39 796.21 322.586 796.406C322.772 796.593 322.866 796.896 322.866 797.316ZM323.65 798.352L323.65 796.28L331 796.28L331 798.352L323.65 798.352Z" fill="#4D72EF"/>
<path d="M331 794.346L323.65 794.346L323.65 792.274L324.896 792.274L324.896 792.19C324.513 792.06 324.182 791.831 323.902 791.504C323.622 791.178 323.482 790.725 323.482 790.146C323.482 789.39 323.734 788.821 324.238 788.438C324.742 788.046 325.46 787.85 326.394 787.85L331 787.85L331 789.922L326.562 789.922C326.086 789.922 325.736 789.997 325.512 790.146C325.278 790.296 325.162 790.562 325.162 790.944C325.162 791.112 325.185 791.276 325.232 791.434C325.269 791.593 325.334 791.738 325.428 791.868C325.521 791.99 325.638 792.088 325.778 792.162C325.908 792.237 326.062 792.274 326.24 792.274L331 792.274L331 794.346Z" fill="#4D72EF"/>
<path d="M331.168 783.039C331.168 783.589 331.079 784.079 330.902 784.509C330.715 784.938 330.458 785.297 330.132 785.587C329.796 785.876 329.39 786.095 328.914 786.245C328.438 786.394 327.906 786.469 327.318 786.469C326.73 786.469 326.202 786.394 325.736 786.245C325.26 786.095 324.854 785.876 324.518 785.587C324.182 785.297 323.925 784.938 323.748 784.509C323.57 784.079 323.482 783.589 323.482 783.039C323.482 782.292 323.65 781.671 323.986 781.177C324.322 780.673 324.793 780.313 325.4 780.099L326.128 781.779C325.848 781.844 325.61 781.979 325.414 782.185C325.218 782.39 325.12 782.675 325.12 783.039C325.12 783.459 325.26 783.776 325.54 783.991C325.81 784.205 326.179 784.313 326.646 784.313L328.018 784.313C328.484 784.313 328.853 784.205 329.124 783.991C329.394 783.776 329.53 783.459 329.53 783.039C329.53 782.665 329.432 782.371 329.236 782.157C329.03 781.933 328.764 781.769 328.438 781.667L329.138 780.057C329.838 780.299 330.351 780.677 330.678 781.191C331.004 781.695 331.168 782.311 331.168 783.039Z" fill="#4D72EF"/>
<path d="M322.866 777.738C322.866 778.158 322.772 778.466 322.586 778.662C322.39 778.849 322.142 778.942 321.844 778.942L321.536 778.942C321.237 778.942 320.994 778.849 320.808 778.662C320.612 778.466 320.514 778.158 320.514 777.738C320.514 777.318 320.612 777.015 320.808 776.828C320.994 776.632 321.237 776.534 321.536 776.534L321.844 776.534C322.142 776.534 322.39 776.632 322.586 776.828C322.772 777.015 322.866 777.318 322.866 777.738ZM323.65 778.774L323.65 776.702L331 776.702L331 778.774L323.65 778.774Z" fill="#4D72EF"/>
<path d="M329.768 770.26L329.768 770.33C329.964 770.386 330.15 770.475 330.328 770.596C330.496 770.718 330.645 770.867 330.776 771.044C330.897 771.212 330.99 771.408 331.056 771.632C331.13 771.847 331.168 772.071 331.168 772.304C331.168 773.238 330.841 773.942 330.188 774.418C329.525 774.894 328.568 775.132 327.318 775.132C326.067 775.132 325.115 774.894 324.462 774.418C323.808 773.942 323.482 773.238 323.482 772.304C323.482 771.828 323.612 771.408 323.874 771.044C324.135 770.671 324.471 770.433 324.882 770.33L324.882 770.26L320.64 770.26L320.64 768.188L331 768.188L331 770.26L329.768 770.26ZM329.488 771.618C329.488 771.226 329.394 770.904 329.208 770.652C329.012 770.391 328.746 770.26 328.41 770.26L326.24 770.26C325.904 770.26 325.642 770.391 325.456 770.652C325.26 770.904 325.162 771.226 325.162 771.618C325.162 772.01 325.302 772.337 325.582 772.598C325.852 772.85 326.221 772.976 326.688 772.976L327.962 772.976C328.428 772.976 328.802 772.85 329.082 772.598C329.352 772.337 329.488 772.01 329.488 771.618Z" fill="#4D72EF"/>
<path d="M331.168 763.185C331.168 763.745 331.079 764.244 330.902 764.683C330.715 765.121 330.458 765.495 330.132 765.803C329.796 766.101 329.39 766.33 328.914 766.489C328.438 766.638 327.906 766.713 327.318 766.713C326.739 766.713 326.216 766.638 325.75 766.489C325.274 766.339 324.868 766.12 324.532 765.831C324.196 765.532 323.939 765.168 323.762 764.739C323.575 764.309 323.482 763.819 323.482 763.269C323.482 762.662 323.584 762.144 323.79 761.715C323.995 761.276 324.27 760.921 324.616 760.651C324.961 760.371 325.362 760.17 325.82 760.049C326.268 759.918 326.739 759.853 327.234 759.853L327.85 759.853L327.85 764.571L327.962 764.571C328.447 764.571 328.834 764.44 329.124 764.179C329.404 763.917 329.544 763.507 329.544 762.947C329.544 762.517 329.46 762.167 329.292 761.897C329.114 761.626 328.904 761.374 328.662 761.141L329.95 760.105C330.332 760.431 330.631 760.861 330.846 761.393C331.06 761.915 331.168 762.513 331.168 763.185ZM325.008 763.227C325.008 763.647 325.148 763.978 325.428 764.221C325.698 764.454 326.062 764.571 326.52 764.571L326.632 764.571L326.632 761.995L326.506 761.995C326.058 761.995 325.698 762.097 325.428 762.303C325.148 762.499 325.008 762.807 325.008 763.227Z" fill="#4D72EF"/>
<path d="M331 758.389L323.65 758.389L323.65 756.317L324.896 756.317L324.896 756.233C324.513 756.103 324.182 755.874 323.902 755.547C323.622 755.221 323.482 754.768 323.482 754.189C323.482 753.433 323.734 752.864 324.238 752.481C324.742 752.089 325.46 751.893 326.394 751.893L331 751.893L331 753.965L326.562 753.965C326.086 753.965 325.736 754.04 325.512 754.189C325.278 754.339 325.162 754.605 325.162 754.987C325.162 755.155 325.185 755.319 325.232 755.477C325.269 755.636 325.334 755.781 325.428 755.911C325.521 756.033 325.638 756.131 325.778 756.205C325.908 756.28 326.062 756.317 326.24 756.317L331 756.317L331 758.389Z" fill="#4D72EF"/>
<path d="M331 747.473C331 748.192 330.818 748.738 330.454 749.111C330.09 749.475 329.558 749.658 328.858 749.658L325.26 749.658L325.26 750.693L323.65 750.693L323.65 750.176C323.65 749.896 323.584 749.704 323.454 749.602C323.314 749.499 323.118 749.448 322.866 749.448L321.662 749.448L321.662 747.586L323.65 747.586L323.65 746.13L325.26 746.13L325.26 747.586L329.39 747.586L329.39 746.242L331 746.242L331 747.473Z" fill="#4D72EF"/>
<path d="M331.168 742.198C331.168 742.907 331.056 743.505 330.832 743.99C330.598 744.475 330.272 744.909 329.852 745.292L328.62 744.074C328.909 743.813 329.138 743.523 329.306 743.206C329.474 742.889 329.558 742.529 329.558 742.128C329.558 741.717 329.497 741.433 329.376 741.274C329.245 741.115 329.072 741.036 328.858 741.036C328.512 741.036 328.307 741.283 328.242 741.778L328.144 742.576C327.938 744.228 327.182 745.054 325.876 745.054C325.521 745.054 325.199 744.989 324.91 744.858C324.611 744.718 324.359 744.527 324.154 744.284C323.939 744.032 323.776 743.733 323.664 743.388C323.542 743.033 323.482 742.637 323.482 742.198C323.482 741.815 323.51 741.479 323.566 741.19C323.612 740.891 323.687 740.63 323.79 740.406C323.883 740.173 324.004 739.963 324.154 739.776C324.294 739.58 324.452 739.389 324.63 739.202L325.848 740.392C325.614 740.625 325.432 740.891 325.302 741.19C325.162 741.479 325.092 741.778 325.092 742.086C325.092 742.441 325.148 742.693 325.26 742.842C325.372 742.991 325.521 743.066 325.708 743.066C325.904 743.066 326.058 743.015 326.17 742.912C326.272 742.8 326.347 742.595 326.394 742.296L326.506 741.47C326.72 739.855 327.458 739.048 328.718 739.048C329.072 739.048 329.399 739.123 329.698 739.272C329.996 739.421 330.258 739.636 330.482 739.916C330.696 740.187 330.864 740.518 330.986 740.91C331.107 741.293 331.168 741.722 331.168 742.198Z" fill="#4D72EF"/>
<path d="M314 294V287.5" stroke="#E01A33" stroke-width="2"/>
<path d="M79 41H71C67.6863 41 65 43.6863 65 47V351" stroke="white"/>
<circle cx="82" cy="41" r="3.5" stroke="white"/>
<path d="M79 365H71C67.6863 365 65 367.686 65 371V641" stroke="white"/>
<circle cx="82" cy="365" r="3.5" stroke="white"/>
<path d="M79 657H71C67.6863 657 65 654.314 65 651V635.5" stroke="white"/>
<circle r="3.5" transform="matrix(1 0 0 -1 82 657)" stroke="white"/>
<g style="mix-blend-mode:overlay" opacity="0.5">
<path fill-rule="evenodd" clip-rule="evenodd" d="M277.974 673.565C272.212 673.565 267.942 671.567 265.165 667.57C262.388 663.573 261 657.977 261 650.783C261 643.588 262.388 637.992 265.165 633.995C267.942 629.999 272.212 628 277.974 628C283.744 628 288.014 629.999 290.784 633.995C293.564 637.992 294.954 643.588 294.954 650.783C294.954 657.977 293.564 663.573 290.784 667.57C288.014 671.567 283.744 673.565 277.974 673.565ZM277.974 665.55C280.504 665.55 282.244 664.625 283.214 662.773C284.184 660.922 284.664 658.314 284.664 654.948V646.617C284.664 643.252 284.184 640.643 283.214 638.792C282.244 636.941 280.504 636.015 277.974 636.015C275.452 636.015 273.706 636.941 272.738 638.792C271.771 640.643 271.287 643.252 271.287 646.617V654.948C271.287 658.314 271.771 660.922 272.738 662.773C273.706 664.625 275.452 665.55 277.974 665.55ZM313.444 646.176C315.804 646.176 317.514 645.723 318.584 644.819C319.664 643.914 320.194 642.789 320.194 641.442V641.001C320.194 639.402 319.684 638.119 318.654 637.151C317.624 636.183 316.154 635.699 314.264 635.699C312.494 635.699 310.834 636.152 309.274 637.056C307.724 637.961 306.394 639.255 305.304 640.938L299.374 635.384C300.214 634.29 301.114 633.291 302.084 632.386C303.054 631.482 304.144 630.703 305.364 630.051C306.584 629.399 307.954 628.894 309.464 628.536C310.984 628.179 312.684 628 314.584 628C316.934 628 319.074 628.274 320.984 628.82C322.904 629.367 324.544 630.156 325.904 631.187C327.274 632.218 328.324 633.448 329.064 634.879C329.804 636.309 330.164 637.908 330.164 639.675C330.164 641.064 329.944 642.326 329.504 643.462C329.064 644.598 328.454 645.587 327.674 646.428C326.894 647.27 326.004 647.953 324.994 648.479C323.984 649.005 322.914 649.373 321.774 649.584V649.962C323.074 650.215 324.284 650.625 325.404 651.193C326.514 651.761 327.484 652.487 328.304 653.37C329.124 654.254 329.764 655.295 330.234 656.494C330.694 657.693 330.924 659.05 330.924 660.565C330.924 662.542 330.524 664.33 329.724 665.929C328.924 667.528 327.794 668.895 326.314 670.031C324.844 671.167 323.074 672.04 321.014 672.65C318.954 673.26 316.684 673.565 314.204 673.565C311.974 673.565 309.994 673.334 308.274 672.871C306.544 672.408 305.044 671.788 303.754 671.009C302.474 670.231 301.354 669.337 300.414 668.327C299.464 667.317 298.634 666.244 297.924 665.108L304.924 659.681C305.894 661.49 307.084 662.973 308.494 664.13C309.904 665.287 311.804 665.866 314.204 665.866C316.344 665.866 318.024 665.329 319.214 664.257C320.414 663.184 321.014 661.722 321.014 659.87V659.492C321.014 657.683 320.334 656.326 318.964 655.421C317.594 654.517 315.714 654.064 313.314 654.064H309.344V646.176H313.444Z" fill="white"/>
</g>
<g style="mix-blend-mode:overlay" opacity="0.5">
<path fill-rule="evenodd" clip-rule="evenodd" d="M281.976 366.565C276.212 366.565 271.942 364.567 269.165 360.57C266.388 356.573 265 350.977 265 343.783C265 336.588 266.388 330.992 269.165 326.995C271.942 322.999 276.212 321 281.976 321C287.74 321 292.011 322.999 294.788 326.995C297.565 330.992 298.953 336.588 298.953 343.783C298.953 350.977 297.565 356.573 294.788 360.57C292.011 364.567 287.74 366.565 281.976 366.565ZM281.976 358.55C284.501 358.55 286.247 357.625 287.215 355.773C288.182 353.922 288.666 351.314 288.666 347.948V339.617C288.666 336.252 288.182 333.643 287.215 331.792C286.247 329.941 284.501 329.015 281.976 329.015C279.452 329.015 277.706 329.941 276.738 331.792C275.771 333.643 275.287 336.252 275.287 339.617V347.948C275.287 351.314 275.771 353.922 276.738 355.773C277.706 357.625 279.452 358.55 281.976 358.55ZM335.683 365.808H304.507V357.162L318.075 345.55C319.295 344.498 320.326 343.541 321.168 342.678C322.009 341.816 322.693 340.974 323.219 340.154C323.744 339.333 324.123 338.523 324.355 337.724C324.586 336.925 324.702 336.062 324.702 335.137V334.253C324.702 333.412 324.533 332.675 324.197 332.044C323.86 331.413 323.418 330.887 322.871 330.466C322.325 330.046 321.704 329.73 321.01 329.52C320.316 329.309 319.611 329.204 318.896 329.204C317.844 329.204 316.929 329.373 316.15 329.709C315.372 330.046 314.699 330.498 314.131 331.066C313.563 331.634 313.089 332.286 312.711 333.022C312.332 333.759 312.038 334.548 311.827 335.389L303.56 332.234C304.065 330.719 304.759 329.278 305.643 327.911C306.526 326.543 307.631 325.344 308.956 324.313C310.281 323.283 311.848 322.473 313.657 321.884C315.467 321.295 317.507 321 319.779 321C322.177 321 324.302 321.337 326.153 322.01C328.004 322.683 329.572 323.609 330.855 324.787C332.138 325.965 333.116 327.364 333.789 328.983C334.463 330.603 334.799 332.36 334.799 334.253C334.799 336.146 334.484 337.871 333.853 339.428C333.221 340.985 332.369 342.447 331.297 343.814C330.224 345.182 328.972 346.475 327.542 347.695C326.111 348.916 324.618 350.157 323.061 351.419L314.857 357.856H335.683V365.808Z" fill="white"/>
</g>
<defs>
<linearGradient id="paint0_linear" x1="187" y1="0" x2="187" y2="900" gradientUnits="userSpaceOnUse">
<stop stop-color="#4D72EF"/>
<stop offset="1" stop-color="#4D72EF" stop-opacity="0"/>
</linearGradient>
<linearGradient id="paint1_linear" x1="187.5" y1="643" x2="187.5" y2="731" gradientUnits="userSpaceOnUse">
<stop stop-color="#05122C" stop-opacity="0"/>
<stop offset="1" stop-color="#05122C"/>
</linearGradient>
<linearGradient id="paint2_linear" x1="188" y1="302" x2="188" y2="900" gradientUnits="userSpaceOnUse">
<stop stop-color="#4D72EF"/>
<stop offset="1" stop-color="#4D72EF" stop-opacity="0"/>
</linearGradient>
<linearGradient id="paint3_linear" x1="188" y1="603" x2="188" y2="875" gradientUnits="userSpaceOnUse">
<stop stop-color="#4D72EF"/>
<stop offset="1" stop-color="#4D72EF" stop-opacity="0"/>
</linearGradient>
</defs>
</svg>
