<svg xmlns="http://www.w3.org/2000/svg" xmlns:xlink="http://www.w3.org/1999/xlink" width="335" height="335" viewBox="0 0 335 335">
  <defs>
    <path id="cloud-threats@1x-a" d="M7.788,0.8 C3.955,0.8 0.842,3.912 0.842,7.746 C0.842,11.58 3.955,14.692 7.788,14.692 C11.622,14.692 14.735,11.58 14.735,7.746 C14.735,3.912 11.622,0.8 7.788,0.8 Z"/>
    <path id="cloud-threats@1x-c" d="M7.2222,0.747 C3.2763,0.747 0.0727,3.951 0.0727,7.897 C0.0727,11.8426 3.2763,15.0462 7.2222,15.0462 C11.1681,15.0462 14.3716,11.8426 14.3716,7.897 C14.3716,3.951 11.1681,0.747 7.2222,0.747 Z"/>
    <path id="cloud-threats@1x-e" d="M27.86,9.5854 L23.3015,14.8914 C23.2088,14.9992 23.069,15.0545 22.9276,15.0391 C22.7863,15.0236 22.6617,14.9395 22.5945,14.8142 C21.7392,13.2198 19.237,8.555 17.7271,5.74 C16.9632,4.3161 15.6425,3.2731 14.0803,2.8601 C11.9348,2.293 8.7313,1.4462 5.9333,0.7065 C4.6099,0.3567 3.1991,0.6778 2.1575,1.566 C1.1159,2.4541 0.5759,3.7964 0.7122,5.1584 C1.5035,13.0681 2.7979,26.0053 2.7979,26.0053 L3.7606,47.1374 L2.782,63.8094 C2.7653,63.9513 2.7567,64.0956 2.7567,64.2419 C2.7567,66.2628 4.3974,67.9035 6.4183,67.9035 C8.3215,67.9035 9.8876,66.4482 10.0634,64.5906 L10.0799,64.5914 L11.4787,47.553 L10.8173,33.281 C10.8173,33.281 13.3924,48.276 13.3924,48.276 L14.827,64.699 L14.837,64.6986 C14.9762,66.5928 16.5591,68.0884 18.4886,68.0884 C20.5095,68.0884 22.1502,66.4477 22.1502,64.4268 C22.1502,64.2947 22.1432,64.1643 22.1295,64.0358 L21.2192,46.8735 L18.8367,27.3282 L17.9365,17.5787 C17.9365,17.5787 19.0969,18.9524 20.2263,20.2894 C20.7629,20.9247 21.5455,21.3003 22.3769,21.3216 C23.2083,21.3428 24.0091,21.0077 24.5775,20.4006 L31.6802,12.8145 C31.7491,12.7488 31.8143,12.6793 31.8753,12.6061 L31.8787,12.6021 C32.2421,12.166 32.4609,11.605 32.4609,10.9934 C32.4609,9.6048 31.3335,8.4774 29.9449,8.4774 C29.0777,8.4774 28.3124,8.917 27.86,9.5854 Z"/>
  </defs>
  <g fill="none" fill-rule="evenodd" transform="translate(65 26)">
    <path fill="#EFF4F7" d="M63.0387,242.2636 C62.5066,241.9562 61.7849,241.7835 61.0323,241.7835 C60.2798,241.7835 59.5581,241.9562 59.0259,242.2636 C53.2621,245.5929 36.7005,255.1594 30.9367,258.4888 C30.4046,258.7961 30.1056,259.213 30.1056,259.6477 C30.1056,260.0824 30.4046,260.4993 30.9367,260.8067 C36.7005,264.136 53.2621,273.7025 59.0259,277.0319 C59.5581,277.3393 60.2798,277.5119 61.0323,277.5119 C61.7849,277.5119 62.5066,277.3393 63.0387,277.0319 C68.8025,273.7025 85.3641,264.136 91.128,260.8067 C91.6601,260.4993 91.959,260.0824 91.959,259.6477 C91.959,259.213 91.6601,258.7961 91.128,258.4888 C85.3641,255.1594 68.8025,245.5929 63.0387,242.2636 Z"/>
    <path stroke="#EFF4F7" stroke-linecap="round" stroke-linejoin="round" d="M37.2007 221.2903C36.8322 221.0774 36.3324 220.9578 35.8112 220.9578 35.29 220.9578 34.7901 221.0774 34.4216 221.2903 30.4298 223.5961 18.9597 230.2215 14.9679 232.5274 14.5993 232.7402 14.3923 233.0289 14.3923 233.33 14.3923 233.6311 14.5993 233.9198 14.9679 234.1326 18.9597 236.4385 30.4298 243.0639 34.4216 245.3697 34.7901 245.5826 35.29 245.7022 35.8112 245.7022 36.3324 245.7022 36.8322 245.5826 37.2007 245.3697 41.1926 243.0639 52.6626 236.4385 56.6545 234.1326 57.023 233.9198 57.2301 233.6311 57.2301 233.33 57.2301 233.0289 57.023 232.7402 56.6545 232.5274 52.6626 230.2215 41.1926 223.5961 37.2007 221.2903zM107.958 268.5744C107.753 268.4561 107.468 268.3937 107.165 268.4011 106.862 268.4086 106.567 268.4851 106.344 268.614 103.927 270.01 96.9826 274.0212 94.5659 275.4172 94.3428 275.5461 94.2102 275.7167 94.1973 275.8916 94.1845 276.0664 94.2924 276.2311 94.4973 276.3495 96.7172 277.6318 103.096 281.3162 105.316 282.5985 105.521 282.7168 105.806 282.7792 106.108 282.7718 106.411 282.7643 106.706 282.6878 106.93 282.5589 109.346 281.1629 116.291 277.1517 118.707 275.7557 118.93 275.6268 119.063 275.4562 119.076 275.2813 119.089 275.1065 118.981 274.9418 118.776 274.8234 116.556 273.5411 110.178 269.8567 107.958 268.5744zM179.958 182.68C179.753 182.562 179.468 182.5 179.165 182.507 178.862 182.514 178.567 182.591 178.344 182.72 175.927 184.1159 168.983 188.1271 166.566 189.5231 166.343 189.652 166.21 189.8226 166.197 189.9974 166.184 190.1723 166.292 190.337 166.497 190.4554 168.717 191.7377 175.096 195.4221 177.316 196.7044 177.521 196.8227 177.806 196.8851 178.108 196.8776 178.411 196.8702 178.706 196.7936 178.93 196.6648 181.346 195.2688 188.291 191.2576 190.707 189.8616 190.93 189.7327 191.063 189.5621 191.076 189.3872 191.089 189.2124 190.981 189.0477 190.776 188.9293 188.556 187.647 182.178 183.9626 179.958 182.68z"/>
    <path fill="#EFF4F7" d="M142.328,188.5692 C141.16,187.8944 139.554,187.5277 137.863,187.55 C136.172,187.5723 134.535,187.9816 133.312,188.688 C120.067,196.339 82.0077,218.3232 68.7622,225.9742 C67.5393,226.6805 66.8307,227.626 66.7921,228.6027 C66.7536,229.5794 67.3883,230.5072 68.5566,231.182 C81.2114,238.4918 117.574,259.4957 130.228,266.8055 C131.397,267.4804 133.003,267.847 134.694,267.8247 C136.385,267.8024 138.021,267.3931 139.244,266.6868 C152.49,259.0358 190.549,237.0515 203.794,229.4005 C205.017,228.6942 205.726,227.7487 205.765,226.772 C205.803,225.7954 205.168,224.8676 204,224.1927 C191.345,216.8829 154.983,195.879 142.328,188.5692 Z"/>
    <path fill="#3F6C9F" fill-opacity=".1" d="M148.744 186.2169C147.666 185.5943 146.337 185.5943 145.259 186.2169 133.468 193.024 65.3504 232.352 49.1134 241.7265 48.3968 242.1402 47.9554 242.9047 47.9554 243.7321 47.9554 244.5595 48.3968 245.3241 49.1134 245.7378 50.0899 246.3016 51.1177 246.895 51.9722 247.3884 53.1866 248.0895 54.6828 248.0895 55.8972 247.3884 68.2893 240.2338 135.684 201.3236 151.823 192.0058 152.539 191.5921 152.981 190.8275 152.981 190.0001 152.981 189.1727 152.539 188.4081 151.823 187.9944 150.761 187.3813 149.638 186.7333 148.744 186.2169zM141.068 209.1329C139.99 208.5103 138.661 208.5103 137.583 209.1329 131.623 212.5738 111.979 223.9152 103.942 228.5554 103.225 228.9691 102.784 229.7337 102.784 230.5611 102.784 231.3885 103.225 232.1531 103.942 232.5668 109.67 235.8736 120.911 242.3638 125.443 244.9801 126.657 245.6813 128.153 245.6813 129.368 244.9801 135.576 241.3955 154.848 230.2692 162.788 225.6846 163.505 225.2709 163.946 224.5063 163.946 223.6789 163.946 222.8515 163.505 222.0869 162.788 221.6732 156.966 218.3115 145.445 211.6599 141.068 209.1329z"/>
    <path fill="#EFF4F7" d="M113.634,24.747 C113.729,23.579 113.778,22.423 113.778,21.282 C113.778,2.442 100.532,-5.206 84.2159,4.214 C69.7706,12.554 57.7314,31.494 55.1608,48.802 C49.8447,48.085 43.5842,49.515 36.8853,53.382 C17.6316,64.499 2,91.573 2,113.806 C2,136.038 17.6314,145.063 36.8853,133.947 C36.8853,133.947 36.8853,133.947 36.8853,133.947 C36.8853,133.947 126.471,82.224 126.471,82.224 C142.787,72.804 156.034,49.861 156.034,31.021 C156.034,12.181 142.787,4.533 126.471,13.953 C121.873,16.608 117.518,20.338 113.634,24.747 Z"/>
    <path stroke="#01050C" stroke-linecap="round" stroke-linejoin="round" d="M113.634,24.747 C113.729,23.579 113.778,22.423 113.778,21.282 C113.778,2.442 100.532,-5.206 84.2159,4.214 C69.7706,12.554 57.7314,31.494 55.1608,48.802 C49.8447,48.085 43.5842,49.515 36.8853,53.382 C17.6316,64.499 2,91.573 2,113.806 C2,136.038 17.6314,145.063 36.8853,133.947 C36.8853,133.947 36.8853,133.947 36.8853,133.947 C36.8853,133.947 126.471,82.224 126.471,82.224 C142.787,72.804 156.034,49.861 156.034,31.021 C156.034,12.181 142.787,4.533 126.471,13.953 C121.873,16.608 117.518,20.338 113.634,24.747 Z"/>
    <path fill="#EFF4F7" d="M22.1909 155.58C22.206 155.395 22.2137 155.211 22.2137 155.03 22.2137 152.043 20.1134 150.831 17.5264 152.324 15.2361 153.647 13.3272 156.65 12.9196 159.394 12.0767 159.28 11.084 159.507 10.0219 160.12 6.9691 161.883 4.4906 166.176 4.4906 169.701 4.4906 173.226 6.9691 174.657 10.0219 172.894L24.2263 164.693C26.8132 163.2 28.9135 159.562 28.9135 156.575 28.9135 153.588 26.8132 152.375 24.2263 153.869 23.4971 154.29 22.8066 154.881 22.1909 155.58zM148.025 80.82C148.045 80.574 148.056 80.33 148.056 80.09 148.056 76.118 145.263 74.505 141.823 76.491 138.778 78.25 136.24 82.243 135.698 85.891 134.577 85.74 133.257 86.042 131.845 86.857 127.786 89.201 124.491 94.908 124.491 99.595 124.491 104.282 127.786 106.185 131.845 103.842L150.732 92.937C154.171 90.952 156.964 86.115 156.964 82.143 156.964 78.171 154.171 76.559 150.732 78.545 149.762 79.104 148.844 79.891 148.025 80.82zM28.2022 29.412C28.2262 29.117 28.2385 28.825 28.2385 28.537 28.2385 23.777 24.8921 21.845 20.7702 24.225 17.1209 26.332 14.0794 31.117 13.43 35.489 12.087 35.308 10.5054 35.669 8.8131 36.646 3.949 39.455 0 46.295 0 51.911 0 57.528 3.949 59.808 8.8131 56.999L31.4452 43.933C35.5671 41.553 38.9135 35.757 38.9135 30.997 38.9135 26.238 35.5671 24.306 31.4452 26.685 30.2834 27.356 29.1832 28.298 28.2022 29.412z"/>
    <path fill="#FFF" d="M122.256,29.338 C122.352,28.17 122.4,27.014 122.4,25.872 C122.4,7.032 109.154,-0.615 92.838,8.805 C78.3927,17.145 66.3534,36.085 63.7829,53.393 C58.4667,52.676 52.2063,54.106 45.5074,57.973 C26.2537,69.089 10.6221,96.164 10.6221,118.396 C10.6221,140.628 26.2535,149.653 45.5074,138.537 C45.5074,138.537 45.5074,138.537 45.5074,138.537 C45.5074,138.537 135.093,86.815 135.093,86.815 C151.409,77.395 164.656,54.451 164.656,35.612 C164.656,16.772 151.409,9.124 135.093,18.544 C130.495,21.199 126.14,24.929 122.256,29.338 Z"/>
    <path stroke="#01050C" stroke-linecap="round" stroke-linejoin="round" d="M122.256,29.338 C122.352,28.17 122.4,27.014 122.4,25.872 C122.4,7.032 109.154,-0.615 92.838,8.805 C78.3927,17.145 66.3534,36.085 63.7829,53.393 C58.4667,52.676 52.2063,54.106 45.5074,57.973 C26.2537,69.089 10.6221,96.164 10.6221,118.396 C10.6221,140.628 26.2535,149.653 45.5074,138.537 C45.5074,138.537 45.5074,138.537 45.5074,138.537 C45.5074,138.537 135.093,86.815 135.093,86.815 C151.409,77.395 164.656,54.451 164.656,35.612 C164.656,16.772 151.409,9.124 135.093,18.544 C130.495,21.199 126.14,24.929 122.256,29.338 Z"/>
    <path fill="#EFF4F7" d="M116.833,23.395 C116.833,22.68 116.452,22.02 115.833,21.663 C115.215,21.306 114.452,21.306 113.833,21.663 C105.27,26.607 80.8683,40.695 73.7052,44.831 C72.4676,45.545 71.7052,46.866 71.7052,48.295 L71.7052,110.547 C71.7052,111.262 72.0864,111.922 72.7052,112.279 C73.324,112.636 74.0864,112.636 74.7052,112.279 C83.2687,107.335 107.67,93.247 114.833,89.111 C116.071,88.397 116.833,87.076 116.833,85.647 C116.833,75.578 116.833,35.479 116.833,23.395 Z"/>
    <path stroke="#EFF4F7" stroke-linecap="round" stroke-linejoin="round" d="M116.833,23.395 C116.833,22.68 116.452,22.02 115.833,21.663 C115.215,21.306 114.452,21.306 113.833,21.663 C105.27,26.607 80.8683,40.695 73.7052,44.831 C72.4676,45.545 71.7052,46.866 71.7052,48.295 L71.7052,110.547 C71.7052,111.262 72.0864,111.922 72.7052,112.279 C73.324,112.636 74.0864,112.636 74.7052,112.279 C83.2687,107.335 107.67,93.247 114.833,89.111 C116.071,88.397 116.833,87.076 116.833,85.647 C116.833,75.578 116.833,35.479 116.833,23.395 Z"/>
    <path fill="#FFF" d="M113.324,30.261 C113.324,29.547 112.943,28.886 112.324,28.529 C111.705,28.172 110.943,28.172 110.324,28.529 C102.796,32.875 83.2584,44.155 76.944,47.801 C75.7063,48.515 74.9439,49.836 74.9439,51.265 C74.9439,60.269 74.9439,93.054 74.9439,103.837 C74.9439,104.552 75.3251,105.212 75.9439,105.569 C76.5627,105.926 77.3251,105.926 77.9439,105.569 C85.4719,101.223 105.01,89.943 111.324,86.297 C112.562,85.583 113.324,84.262 113.324,82.833 C113.324,73.829 113.324,41.044 113.324,30.261 Z"/>
    <path stroke="#01050C" stroke-linecap="round" stroke-linejoin="round" d="M113.324,30.261 C113.324,29.547 112.943,28.886 112.324,28.529 C111.705,28.172 110.943,28.172 110.324,28.529 C102.796,32.875 83.2584,44.155 76.944,47.801 C75.7063,48.515 74.9439,49.836 74.9439,51.265 C74.9439,60.269 74.9439,93.054 74.9439,103.837 C74.9439,104.552 75.3251,105.212 75.9439,105.569 C76.5627,105.926 77.3251,105.926 77.9439,105.569 C85.4719,101.223 105.01,89.943 111.324,86.297 C112.562,85.583 113.324,84.262 113.324,82.833 C113.324,73.829 113.324,41.044 113.324,30.261 Z"/>
    <path fill="#EFF4F7" d="M92.4104,53.362 C100.568,48.652 107.191,52.476 107.191,61.896 C107.191,71.316 100.568,82.787 92.4104,87.497 C84.2525,92.207 77.6294,88.383 77.6294,78.964 C77.6294,69.544 84.2525,58.072 92.4104,53.362 Z M92.4104,57.629 C98.5288,54.097 103.496,56.964 103.496,64.029 C103.496,71.094 98.5288,79.698 92.4104,83.23 C86.292,86.763 81.3246,83.895 81.3246,76.83 C81.3246,69.765 86.292,61.161 92.4104,57.629 Z"/>
    <path fill="#B1BBC9" d="M92.7065,50.95 C100.864,46.24 107.487,50.064 107.487,59.484 C107.487,68.904 100.864,80.376 92.7065,85.086 C84.5487,89.796 77.9255,85.972 77.9255,76.552 C77.9255,67.132 84.5487,55.66 92.7065,50.95 Z M81.6841,75.756 C82.2341,81.377 86.3069,83.755 91.4392,81.467 L91.4392,70.124 L81.6841,75.756 Z M93.9738,68.661 L93.9738,80.004 C99.1061,76.365 103.179,69.284 103.729,63.029 L93.9738,68.661 Z M91.4392,56.032 C86.3583,59.634 82.3157,66.61 81.7016,72.819 L91.4392,67.197 L91.4392,56.032 Z M103.711,60.112 C103.097,54.612 99.0547,52.304 93.9738,54.568 L93.9738,65.734 L103.711,60.112 Z"/>
    <path fill="#EFF4F7" d="M94.6035,52.266 C102.761,47.556 109.384,51.379 109.384,60.799 C109.384,70.219 102.761,81.691 94.6035,86.401 C86.4457,91.111 79.8225,87.287 79.8225,77.867 C79.8225,68.447 86.4457,56.975 94.6035,52.266 Z M83.5811,77.071 C84.1311,82.692 88.2039,85.07 93.3362,82.783 L93.3362,71.439 L83.5811,77.071 Z M95.8708,69.976 L95.8708,81.319 C101.003,77.68 105.076,70.6 105.626,64.344 L95.8708,69.976 Z M93.3362,57.347 C88.2553,60.949 84.2127,67.925 83.5986,74.135 L93.3362,68.513 L93.3362,57.347 Z M105.608,61.427 C104.994,55.927 100.952,53.619 95.8708,55.884 L95.8708,67.049 L105.608,61.427 Z"/>
    <path stroke="#E01A33" stroke-linecap="round" stroke-linejoin="round" d="M94.6035,52.266 C102.761,47.556 109.384,51.379 109.384,60.799 C109.384,70.219 102.761,81.691 94.6035,86.401 C86.4457,91.111 79.8225,87.287 79.8225,77.867 C79.8225,68.447 86.4457,56.975 94.6035,52.266 Z M83.5811,77.071 C84.1311,82.692 88.2039,85.07 93.3362,82.783 L93.3362,71.439 L83.5811,77.071 Z M95.8708,69.976 L95.8708,81.319 C101.003,77.68 105.076,70.6 105.626,64.344 L95.8708,69.976 Z M93.3362,57.347 C88.2553,60.949 84.2127,67.925 83.5986,74.135 L93.3362,68.513 L93.3362,57.347 Z M105.608,61.427 C104.994,55.927 100.952,53.619 95.8708,55.884 L95.8708,67.049 L105.608,61.427 Z"/>
    <path fill="#EFF4F7" d="M80.164,50.852 C81.2386,50.232 82.111,50.736 82.111,51.976 C82.111,53.217 81.2386,54.728 80.164,55.349 C79.0895,55.969 78.217,55.465 78.217,54.225 C78.217,52.984 79.0895,51.473 80.164,50.852 Z"/>
    <path stroke="#01050C" stroke-linecap="round" stroke-linejoin="round" d="M80.164,50.852 C81.2386,50.232 82.111,50.736 82.111,51.976 C82.111,53.217 81.2386,54.728 80.164,55.349 C79.0895,55.969 78.217,55.465 78.217,54.225 C78.217,52.984 79.0895,51.473 80.164,50.852 Z"/>
    <path fill="#EFF4F7" d="M80.164,94.568 C81.2386,93.947 82.111,94.451 82.111,95.692 C82.111,96.933 81.2386,98.444 80.164,99.064 C79.0895,99.685 78.217,99.181 78.217,97.94 C78.217,96.699 79.0895,95.188 80.164,94.568 Z"/>
    <path stroke="#01050C" stroke-linecap="round" stroke-linejoin="round" d="M80.164,94.568 C81.2386,93.947 82.111,94.451 82.111,95.692 C82.111,96.933 81.2386,98.444 80.164,99.064 C79.0895,99.685 78.217,99.181 78.217,97.94 C78.217,96.699 79.0895,95.188 80.164,94.568 Z"/>
    <path fill="#EFF4F7" d="M107.487,36.597 C108.562,35.977 109.434,36.48 109.434,37.721 C109.434,38.962 108.562,40.473 107.487,41.093 C106.413,41.714 105.54,41.21 105.54,39.969 C105.54,38.728 106.413,37.217 107.487,36.597 Z"/>
    <path stroke="#01050C" stroke-linecap="round" stroke-linejoin="round" d="M107.487,36.597 C108.562,35.977 109.434,36.48 109.434,37.721 C109.434,38.962 108.562,40.473 107.487,41.093 C106.413,41.714 105.54,41.21 105.54,39.969 C105.54,38.728 106.413,37.217 107.487,36.597 Z"/>
    <path fill="#EFF4F7" d="M107.487,80.312 C108.562,79.692 109.434,80.196 109.434,81.436 C109.434,82.677 108.562,84.188 107.487,84.809 C106.413,85.429 105.54,84.925 105.54,83.685 C105.54,82.444 106.413,80.933 107.487,80.312 Z"/>
    <path stroke="#01050C" stroke-linecap="round" stroke-linejoin="round" d="M107.487,80.312 C108.562,79.692 109.434,80.196 109.434,81.436 C109.434,82.677 108.562,84.188 107.487,84.809 C106.413,85.429 105.54,84.925 105.54,83.685 C105.54,82.444 106.413,80.933 107.487,80.312 Z"/>
    <path fill="#B1BBC9" d="M93.1587,73.19 C92.1995,73.058 91.56,72.201 91.56,70.803 C91.56,68.656 93.0693,66.042 94.9284,64.969 C95.6093,64.576 96.2434,64.443 96.7735,64.539 L96.7735,64.539 L99.1374,65.845 L98.2962,66.835 C98.2966,66.861 98.2968,66.887 98.2968,66.914 C98.2968,68.483 97.49,70.303 96.3295,71.587 L95.569,74.468 C95.569,74.468 93.2327,73.2 93.159,73.19 L93.1587,73.19 Z"/>
    <path stroke="#01050C" stroke-linecap="round" stroke-linejoin="round" d="M93.1587,73.19 C92.1995,73.058 91.56,72.201 91.56,70.803 C91.56,68.656 93.0693,66.042 94.9284,64.969 C95.6093,64.576 96.2434,64.443 96.7735,64.539 L96.7735,64.539 L99.1374,65.845 L98.2962,66.835 C98.2966,66.861 98.2968,66.887 98.2968,66.914 C98.2968,68.483 97.49,70.303 96.3295,71.587 L95.569,74.468 C95.569,74.468 93.2327,73.2 93.159,73.19 L93.1587,73.19 Z"/>
    <path fill="#FFF" d="M97.1215,66.235 C98.9806,65.162 100.49,66.033 100.49,68.18 C100.49,70.327 98.9806,72.941 97.1215,74.014 C95.2624,75.088 93.7531,74.216 93.7531,72.069 C93.7531,69.923 95.2624,67.308 97.1215,66.235 Z"/>
    <path stroke="#01050C" stroke-linecap="round" stroke-linejoin="round" d="M97.1215,66.235 C98.9806,65.162 100.49,66.033 100.49,68.18 C100.49,70.327 98.9806,72.941 97.1215,74.014 C95.2624,75.088 93.7531,74.216 93.7531,72.069 C93.7531,69.923 95.2624,67.308 97.1215,66.235 Z"/>
    <line x1="82.592" x2="93.988" y1="29.599" y2="23.02" stroke="#B1BBC9" stroke-linecap="round" stroke-linejoin="round" stroke-width="2"/>
    <line x1="32.662" x2="48.543" y1="95.247" y2="86.078" stroke="#B1BBC9" stroke-linecap="round" stroke-linejoin="round" stroke-width="2"/>
    <line x1="42.413" x2="50.109" y1="115.935" y2="111.491" stroke="#B1BBC9" stroke-linecap="round" stroke-linejoin="round" stroke-width="2"/>
    <line x1="26.631" x2="38.614" y1="110.599" y2="103.68" stroke="#B1BBC9" stroke-linecap="round" stroke-linejoin="round" stroke-width="2"/>
    <line x1="54.546" x2="59.84" y1="82.612" y2="79.556" stroke="#B1BBC9" stroke-linecap="round" stroke-linejoin="round" stroke-width="2"/>
    <line x1="56.112" x2="61.406" y1="108.025" y2="104.969" stroke="#B1BBC9" stroke-linecap="round" stroke-linejoin="round" stroke-width="2"/>
    <line x1="46.211" x2="62.581" y1="99.294" y2="89.843" stroke="#B1BBC9" stroke-linecap="round" stroke-linejoin="round" stroke-width="2"/>
    <line x1="123.711" x2="131.308" y1="47.755" y2="43.369" stroke="#B1BBC9" stroke-linecap="round" stroke-linejoin="round" stroke-width="2"/>
    <line x1="98.296" x2="102.094" y1="20.533" y2="18.34" stroke="#B1BBC9" stroke-linecap="round" stroke-linejoin="round" stroke-width="2"/>
    <line x1="138.905" x2="151.477" y1="38.982" y2="31.724" stroke="#B1BBC9" stroke-linecap="round" stroke-linejoin="round" stroke-width="2"/>
    <line x1="129.996" x2="142.568" y1="56.528" y2="49.27" stroke="#B1BBC9" stroke-linecap="round" stroke-linejoin="round" stroke-width="2"/>
    <path fill="#B1BBC9" d="M108.782,95.815 C108.617,95.231 108.692,94.606 108.989,94.077 C109.285,93.549 109.78,93.159 110.364,92.995 C110.364,92.995 110.365,92.995 110.365,92.995 C110.949,92.831 111.574,92.905 112.103,93.202 C112.631,93.499 113.021,93.993 113.185,94.577 C117.617,110.345 144.496,205.9658 148.928,221.7342 C149.092,222.3179 149.018,222.9428 148.721,223.4715 C148.424,224.0003 147.93,224.3895 147.346,224.5535 C147.345,224.5537 147.345,224.5539 147.344,224.554 C146.761,224.7181 146.136,224.6436 145.607,224.3469 C145.078,224.0502 144.689,223.5556 144.525,222.9719 C140.092,207.2035 113.214,111.583 108.782,95.815 Z"/>
    <path stroke="#01050C" stroke-linecap="round" stroke-linejoin="round" d="M108.782,95.815 C108.617,95.231 108.692,94.606 108.989,94.077 C109.285,93.549 109.78,93.159 110.364,92.995 C110.364,92.995 110.365,92.995 110.365,92.995 C110.949,92.831 111.574,92.905 112.103,93.202 C112.631,93.499 113.021,93.993 113.185,94.577 C117.617,110.345 144.496,205.9658 148.928,221.7342 C149.092,222.3179 149.018,222.9428 148.721,223.4715 C148.424,224.0003 147.93,224.3895 147.346,224.5535 C147.345,224.5537 147.345,224.5539 147.344,224.554 C146.761,224.7181 146.136,224.6436 145.607,224.3469 C145.078,224.0502 144.689,223.5556 144.525,222.9719 C140.092,207.2035 113.214,111.583 108.782,95.815 Z"/>
    <path fill="#D1D9E0" d="M119.668,225.5341 L142.857,212.0394 C144.06,212.5127 144.685,213.3468 144.465,214.7083 L121.276,228.203 L119.668,225.5341 Z"/>
    <path stroke="#01050C" stroke-linecap="round" stroke-linejoin="round" d="M119.668,225.5341 L142.857,212.0394 C144.06,212.5127 144.685,213.3468 144.465,214.7083 L121.276,228.203 L119.668,225.5341 Z"/>
    <path fill="#D1D9E0" d="M115.525,210.1677 L138.714,196.6731 C139.918,197.1464 140.542,197.9805 140.322,199.342 L117.133,212.8366 L115.525,210.1677 Z"/>
    <path stroke="#01050C" stroke-linecap="round" stroke-linejoin="round" d="M115.525,210.1677 L138.714,196.6731 C139.918,197.1464 140.542,197.9805 140.322,199.342 L117.133,212.8366 L115.525,210.1677 Z"/>
    <path fill="#D1D9E0" d="M102.461,164.069 L125.65,150.574 C126.854,151.047 127.479,151.882 127.258,153.243 L104.069,166.738 L102.461,164.069 Z"/>
    <path stroke="#01050C" stroke-linecap="round" stroke-linejoin="round" d="M102.461,164.069 L125.65,150.574 C126.854,151.047 127.479,151.882 127.258,153.243 L104.069,166.738 L102.461,164.069 Z"/>
    <path fill="#D1D9E0" d="M111.13,194.8014 L134.319,181.307 C135.522,181.78 136.147,182.614 135.927,183.9757 L112.738,197.4703 L111.13,194.8014 Z"/>
    <path stroke="#01050C" stroke-linecap="round" stroke-linejoin="round" d="M111.13,194.8014 L134.319,181.307 C135.522,181.78 136.147,182.614 135.927,183.9757 L112.738,197.4703 L111.13,194.8014 Z"/>
    <path fill="#D1D9E0" d="M97.9766,148.702 L121.166,135.208 C122.369,135.681 122.994,136.515 122.773,137.877 L99.5844,151.371 L97.9766,148.702 Z"/>
    <path stroke="#01050C" stroke-linecap="round" stroke-linejoin="round" d="M97.9766,148.702 L121.166,135.208 C122.369,135.681 122.994,136.515 122.773,137.877 L99.5844,151.371 L97.9766,148.702 Z"/>
    <path fill="#D1D9E0" d="M106.865,179.435 L130.054,165.94 C131.257,166.414 131.882,167.248 131.661,168.609 L108.472,182.104 L106.865,179.435 Z"/>
    <path stroke="#01050C" stroke-linecap="round" stroke-linejoin="round" d="M106.865,179.435 L130.054,165.94 C131.257,166.414 131.882,167.248 131.661,168.609 L108.472,182.104 L106.865,179.435 Z"/>
    <path fill="#D1D9E0" d="M93.9439,133.336 L117.133,119.841 C118.336,120.315 118.961,121.149 118.741,122.51 L95.5517,136.005 L93.9439,133.336 Z"/>
    <path stroke="#01050C" stroke-linecap="round" stroke-linejoin="round" d="M93.9439,133.336 L117.133,119.841 C118.336,120.315 118.961,121.149 118.741,122.51 L95.5517,136.005 L93.9439,133.336 Z"/>
    <path fill="#D1D9E0" d="M88.7392,117.97 L111.928,104.475 C113.132,104.948 113.757,105.783 113.536,107.144 L90.347,120.639 L88.7392,117.97 Z"/>
    <path stroke="#01050C" stroke-linecap="round" stroke-linejoin="round" d="M88.7392,117.97 L111.928,104.475 C113.132,104.948 113.757,105.783 113.536,107.144 L90.347,120.639 L88.7392,117.97 Z"/>
    <path fill="#D1D9E0" d="M85.6371,109.178 C85.473,108.595 85.5475,107.97 85.8442,107.441 C86.1409,106.912 86.6355,106.523 87.2192,106.359 C87.2198,106.359 87.2204,106.359 87.2209,106.358 C87.8046,106.194 88.4295,106.269 88.9583,106.566 C89.487,106.862 89.8762,107.357 90.0403,107.941 C94.467,123.689 121.281,219.0789 125.707,234.8271 C125.872,235.4108 125.797,236.0357 125.5,236.5644 C125.204,237.0931 124.709,237.4823 124.125,237.6464 C124.125,237.6466 124.124,237.6467 124.124,237.6469 C123.54,237.811 122.915,237.7365 122.386,237.4398 C121.858,237.1431 121.468,236.6485 121.304,236.0648 C116.878,220.3166 90.0638,124.927 85.6371,109.178 Z"/>
    <path stroke="#01050C" stroke-linecap="round" stroke-linejoin="round" d="M85.6371,109.178 C85.473,108.595 85.5475,107.97 85.8442,107.441 C86.1409,106.912 86.6355,106.523 87.2192,106.359 C87.2198,106.359 87.2204,106.359 87.2209,106.358 C87.8046,106.194 88.4295,106.269 88.9583,106.566 C89.487,106.862 89.8762,107.357 90.0403,107.941 C94.467,123.689 121.281,219.0789 125.707,234.8271 C125.872,235.4108 125.797,236.0357 125.5,236.5644 C125.204,237.0931 124.709,237.4823 124.125,237.6464 C124.125,237.6466 124.124,237.6467 124.124,237.6469 C123.54,237.811 122.915,237.7365 122.386,237.4398 C121.858,237.1431 121.468,236.6485 121.304,236.0648 C116.878,220.3166 90.0638,124.927 85.6371,109.178 Z"/>
    <path fill="#FFF" d="M106.318,75.922 C105.886,75.529 105.312,75.291 104.683,75.291 C103.334,75.291 102.239,76.387 102.239,77.736 C102.239,78.783 102.899,79.678 103.826,80.022 L113.397,87.626 C114.224,89.251 116.794,90.936 115.878,92.501 C114.811,94.325 112.016,93.282 110.062,93.328 C106.919,93.402 103.779,93.019 100.638,92.859 C99.6829,92.81 98.8,92.493 97.9677,91.98 L87.5508,85.063 L87.4863,85.015 L87.39,84.957 L87.3423,84.925 L87.3412,84.927 C86.9825,84.717 86.5651,84.597 86.12,84.597 C84.7709,84.597 83.6756,85.693 83.6756,87.042 C83.6756,87.978 84.2032,88.792 84.9775,89.202 L84.977,89.203 C84.977,89.203 93.451,95.358 96.1379,97.31 C96.6713,97.698 97.2722,97.982 97.9099,98.15 C100.575,98.848 107.839,100.753 107.839,100.753 L106.717,120.96 L106.163,137.989 L107.741,156.292 C107.901,158.108 109.427,159.534 111.284,159.534 C113.248,159.534 114.842,157.94 114.842,155.976 C114.842,155.887 114.838,155.798 114.831,155.71 L114.832,155.71 L113.397,138.953 L114.525,128.938 L115.067,137.989 L118.16,152.528 C118.403,154.255 119.889,155.585 121.682,155.585 C123.645,155.585 125.239,153.991 125.239,152.027 C125.239,151.848 125.226,151.672 125.2,151.499 L125.199,151.495 C125.183,151.385 125.161,151.277 125.135,151.171 L122.315,137.061 C122.315,137.061 121.489,120.026 121.259,115.291 C121.22,114.487 121.265,113.682 121.393,112.888 C121.94,109.496 123.51,99.772 124.206,95.46 C124.427,94.091 124.223,92.687 123.622,91.437 C122.445,88.99 120.561,85.071 120.561,85.071 L106.318,75.922 Z"/>
    <path stroke="#01050C" stroke-linecap="round" stroke-linejoin="round" d="M106.318,75.922 C105.886,75.529 105.312,75.291 104.683,75.291 C103.334,75.291 102.239,76.387 102.239,77.736 C102.239,78.783 102.899,79.678 103.826,80.022 L113.397,87.626 C114.224,89.251 116.794,90.936 115.878,92.501 C114.811,94.325 112.016,93.282 110.062,93.328 C106.919,93.402 103.779,93.019 100.638,92.859 C99.6829,92.81 98.8,92.493 97.9677,91.98 L87.5508,85.063 L87.4863,85.015 L87.39,84.957 L87.3423,84.925 L87.3412,84.927 C86.9825,84.717 86.5651,84.597 86.12,84.597 C84.7709,84.597 83.6756,85.693 83.6756,87.042 C83.6756,87.978 84.2032,88.792 84.9775,89.202 L84.977,89.203 C84.977,89.203 93.451,95.358 96.1379,97.31 C96.6713,97.698 97.2722,97.982 97.9099,98.15 C100.575,98.848 107.839,100.753 107.839,100.753 L106.717,120.96 L106.163,137.989 L107.741,156.292 C107.901,158.108 109.427,159.534 111.284,159.534 C113.248,159.534 114.842,157.94 114.842,155.976 C114.842,155.887 114.838,155.798 114.831,155.71 L114.832,155.71 L113.397,138.953 L114.525,128.938 L115.067,137.989 L118.16,152.528 C118.403,154.255 119.889,155.585 121.682,155.585 C123.645,155.585 125.239,153.991 125.239,152.027 C125.239,151.848 125.226,151.672 125.2,151.499 L125.199,151.495 C125.183,151.385 125.161,151.277 125.135,151.171 L122.315,137.061 C122.315,137.061 121.489,120.026 121.259,115.291 C121.22,114.487 121.265,113.682 121.393,112.888 C121.94,109.496 123.51,99.772 124.206,95.46 C124.427,94.091 124.223,92.687 123.622,91.437 C122.445,88.99 120.561,85.071 120.561,85.071 L106.318,75.922 Z"/>
    <line x1="115.365" x2="114.525" y1="124.065" y2="128.938" stroke="#01050C" stroke-linecap="round" stroke-linejoin="round"/>
    <line x1="110.39" x2="108.071" y1="100.688" y2="100.746" stroke="#01050C" stroke-linecap="round" stroke-linejoin="round"/>
    <line x1="118.179" x2="115.365" y1="92.131" y2="92.574" stroke="#01050C" stroke-linecap="round" stroke-linejoin="round"/>
    <path fill="#FFF" d="M117.788,76.345 C113.955,76.345 110.842,79.457 110.842,83.291 C110.842,87.125 113.955,90.237 117.788,90.237 C121.622,90.237 124.735,87.125 124.735,83.291 C124.735,79.457 121.622,76.345 117.788,76.345 Z"/>
    <g transform="translate(110 75.545)">
      <mask id="cloud-threats@1x-b" fill="#fff">
        <use xlink:href="#cloud-threats@1x-a"/>
      </mask>
      <path fill="#EFF4F7" d="M12.72,2.551 C13.965,3.864 14.735,5.68 14.735,7.685 C14.735,11.688 11.662,14.939 7.877,14.939 C7.085,14.939 6.325,14.797 5.617,14.535 C9.83,13.635 13.007,9.692 13.007,4.971 C13.007,4.136 12.907,3.325 12.72,2.551 Z" mask="url(#cloud-threats@1x-b)"/>
    </g>
    <path stroke="#01050C" stroke-linecap="round" stroke-linejoin="round" d="M117.788,76.345 C113.955,76.345 110.842,79.457 110.842,83.291 C110.842,87.125 113.955,90.237 117.788,90.237 C121.622,90.237 124.735,87.125 124.735,83.291 C124.735,79.457 121.622,76.345 117.788,76.345 Z"/>
    <path fill="#FFF" d="M63.2222,174.292 C59.2763,174.292 56.0727,177.496 56.0727,181.442 C56.0727,185.3876 59.2763,188.5912 63.2222,188.5912 C67.1681,188.5912 70.3716,185.3876 70.3716,181.442 C70.3716,177.496 67.1681,174.292 63.2222,174.292 Z"/>
    <g transform="translate(56 173.545)">
      <mask id="cloud-threats@1x-d" fill="#fff">
        <use xlink:href="#cloud-threats@1x-c"/>
      </mask>
      <path fill="#EFF4F7" d="M2.1294,2.658 C0.8854,3.972 0.1152,5.787 0.1152,7.792 C0.1152,11.7956 3.188,15.0462 6.9728,15.0462 C7.7645,15.0462 8.5251,14.904 9.2329,14.6423 C5.0194,13.7419 1.8429,9.799 1.8429,5.078 C1.8429,4.243 1.9424,3.432 2.1294,2.658 Z" mask="url(#cloud-threats@1x-d)"/>
    </g>
    <path stroke="#01050C" stroke-linecap="round" stroke-linejoin="round" d="M63.2222,174.292 C59.2763,174.292 56.0727,177.496 56.0727,181.442 C56.0727,185.3876 59.2763,188.5912 63.2222,188.5912 C67.1681,188.5912 70.3716,185.3876 70.3716,181.442 C70.3716,177.496 67.1681,174.292 63.2222,174.292 Z"/>
    <path fill="#EFF4F7" d="M85.4497,193.4672 C82.6193,192.4743 79.7604,191.2822 76.8575,189.8293 L66.5761,200.0195 L75.0911,204.2363 L85.4497,193.4672 Z"/>
    <path stroke="#01050C" stroke-linecap="round" stroke-linejoin="round" d="M85.4497,193.4672 C82.6193,192.4743 79.7604,191.2822 76.8575,189.8293 L66.5761,200.0195 L75.0911,204.2363 L85.4497,193.4672 Z"/>
    <path stroke="#B1BBC9" stroke-linecap="round" stroke-linejoin="round" d="M80.7176 195.2335C79.3277 194.8992 77.6926 194.0832 76.4858 193.2642M79.3012 196.9746C78.9108 196.8739 78.51 196.7603 77.9288 196.4244M76.4858 195.7768C75.8879 195.5387 75.4393 195.1795 74.9706 194.8367M77.8231 198.8669C76.605 198.5313 74.2293 197.0796 73.6333 196.5229"/>
    <path fill="#FFF" d="M77.86,199.1304 L73.3015,204.4364 C73.2088,204.5442 73.069,204.5995 72.9276,204.5841 C72.7863,204.5686 72.6617,204.4845 72.5945,204.3592 C71.7392,202.7648 69.237,198.1 67.7271,195.285 C66.9632,193.8611 65.6425,192.8181 64.0803,192.4051 C61.9348,191.838 58.7313,190.9912 55.9333,190.2515 C54.6099,189.9017 53.1991,190.2228 52.1575,191.111 C51.1159,191.9991 50.5759,193.3414 50.7122,194.7034 C51.5035,202.6131 52.7979,215.5503 52.7979,215.5503 L53.7606,236.6824 L52.782,253.3544 C52.7653,253.4963 52.7567,253.6406 52.7567,253.7869 C52.7567,255.8078 54.3974,257.4485 56.4183,257.4485 C58.3215,257.4485 59.8876,255.9932 60.0634,254.1356 L60.0799,254.1364 L61.4787,237.098 L60.8173,222.826 C60.8173,222.826 63.3924,237.821 63.3924,237.821 L64.827,254.244 L64.837,254.2436 C64.9762,256.1378 66.5591,257.6334 68.4886,257.6334 C70.5095,257.6334 72.1502,255.9927 72.1502,253.9718 C72.1502,253.8397 72.1432,253.7093 72.1295,253.5808 L71.2192,236.4185 L68.8367,216.8732 L67.9365,207.1237 C67.9365,207.1237 69.0969,208.4974 70.2263,209.8344 C70.7629,210.4697 71.5455,210.8453 72.3769,210.8666 C73.2083,210.8878 74.0091,210.5527 74.5775,209.9456 L81.6802,202.3595 C81.7491,202.2938 81.8143,202.2243 81.8753,202.1511 L81.8787,202.1471 C82.2421,201.711 82.4609,201.15 82.4609,200.5384 C82.4609,199.1498 81.3335,198.0224 79.9449,198.0224 C79.0777,198.0224 78.3124,198.462 77.86,199.1304 Z"/>
    <g transform="translate(50 189.545)">
      <mask id="cloud-threats@1x-f" fill="#fff">
        <use xlink:href="#cloud-threats@1x-e"/>
      </mask>
      <path fill="#EFF4F7" d="M11.594 33.3127C11.594 33.3127 13.0535 39.5821 13.2733 40.5264 13.2917 40.6054 13.3091 40.6847 13.3253 40.7642 13.5672 41.9465 15.5323 51.5506 15.7718 52.721 15.7877 52.7988 15.8024 52.8768 15.8158 52.9551 16.0065 54.065 17.4848 62.6697 17.4848 62.6697 17.4848 62.6697 17.4848 62.6699 17.4849 62.6704 17.666 63.5824 18.303 64.3374 19.1715 64.6695 20.04 65.0016 21.0182 64.8641 21.7615 64.3056 21.8561 64.2345 21.91 64.194 21.91 64.194L22.484 67.8893 11.8071 68.3657 10.8631 57.6439C11.6111 46.6554 9.5688 35.772 11.594 33.3127zM6.5664 30.0605L6.6847 38.3623C6.6847 38.3623 6.5871 50.7575 6.5775 51.9875 6.5769 52.0528 6.5756 52.1181 6.5734 52.1834 6.5364 53.2723 6.2036 63.075 6.2036 63.075 6.2036 63.075 6.2011 63.2764 6.197 63.5964 6.186 64.4697 6.6407 65.2829 7.3905 65.7307 8.1404 66.1786 9.0719 66.1934 9.8356 65.7696 9.8365 65.7691 9.837 65.7688 9.837 65.7688L9.6429 69.8847.086 67.8585 1.289 56.0881C2.4717 51.0828.086-4.3055.086-4.3055L7.5645 1.6243C7.5645 1.6243 7 2.2032 6.3346 2.8857 4.99 4.2646 4.319 6.1645 4.4994 8.0819 5.1251 14.7352 6.5664 30.0605 6.5664 30.0605z" mask="url(#cloud-threats@1x-f)"/>
    </g>
    <path stroke="#01050C" stroke-linecap="round" stroke-linejoin="round" d="M77.86,199.1304 L73.3015,204.4364 C73.2088,204.5442 73.069,204.5995 72.9276,204.5841 C72.7863,204.5686 72.6617,204.4845 72.5945,204.3592 C71.7392,202.7648 69.237,198.1 67.7271,195.285 C66.9632,193.8611 65.6425,192.8181 64.0803,192.4051 C61.9348,191.838 58.7313,190.9912 55.9333,190.2515 C54.6099,189.9017 53.1991,190.2228 52.1575,191.111 C51.1159,191.9991 50.5759,193.3414 50.7122,194.7034 C51.5035,202.6131 52.7979,215.5503 52.7979,215.5503 L53.7606,236.6824 L52.782,253.3544 C52.7653,253.4963 52.7567,253.6406 52.7567,253.7869 C52.7567,255.8078 54.3974,257.4485 56.4183,257.4485 C58.3215,257.4485 59.8876,255.9932 60.0634,254.1356 L60.0799,254.1364 L61.4787,237.098 L60.8173,222.826 C60.8173,222.826 63.3924,237.821 63.3924,237.821 L64.827,254.244 L64.837,254.2436 C64.9762,256.1378 66.5591,257.6334 68.4886,257.6334 C70.5095,257.6334 72.1502,255.9927 72.1502,253.9718 C72.1502,253.8397 72.1432,253.7093 72.1295,253.5808 L71.2192,236.4185 L68.8367,216.8732 L67.9365,207.1237 C67.9365,207.1237 69.0969,208.4974 70.2263,209.8344 C70.7629,210.4697 71.5455,210.8453 72.3769,210.8666 C73.2083,210.8878 74.0091,210.5527 74.5775,209.9456 L81.6802,202.3595 C81.7491,202.2938 81.8143,202.2243 81.8753,202.1511 L81.8787,202.1471 C82.2421,201.711 82.4609,201.15 82.4609,200.5384 C82.4609,199.1498 81.3335,198.0224 79.9449,198.0224 C79.0777,198.0224 78.3124,198.462 77.86,199.1304 Z"/>
    <line x1="59.672" x2="60.817" y1="221.503" y2="222.826" stroke="#01050C" stroke-linecap="round" stroke-linejoin="round"/>
    <polyline stroke="#01050C" stroke-linecap="round" stroke-linejoin="round" points="68.265 207.649 65.466 203.279 63.845 201.596"/>
  </g>
</svg>
