<svg xmlns="http://www.w3.org/2000/svg" xmlns:xlink="http://www.w3.org/1999/xlink" width="550" height="550" viewBox="0 0 550 550">
  <defs>
    <path id="cloud-monitoring@1x-a" d="M0.939142061,4.20290529 C0.939142061,2.8504429 1.66061838,1.60192201 2.83210028,0.925690808 C4.00235933,0.24945961 5.44531198,0.24945961 6.61679387,0.925690808 C29.7150418,14.2619972 116.295869,64.2493008 135.021237,75.0604401 C137.239471,76.3407549 138.606607,78.7081755 138.606607,81.2700279 C138.606607,99.4279972 138.606607,172.117593 138.606607,194.442883 C138.606607,195.795101 137.885131,197.044477 136.713649,197.720586 C135.54339,198.396695 134.100437,198.396695 132.928955,197.720586 C109.830708,184.38428 23.2486574,134.396365 4.52451253,123.586448 C2.30627855,122.304911 0.939142061,119.93749 0.939142061,117.375638 C0.939142061,99.2176685 0.939142061,26.5283175 0.939142061,4.20290529 Z"/>
    <path id="cloud-monitoring@1x-c" d="M11.0934933,0.22989415 C5.45607298,0.22989415 0.879100557,4.80698886 0.879100557,10.4442869 C0.879100557,16.081585 5.45607298,20.6586797 11.0934933,20.6586797 C16.7310359,20.6586797 21.3080084,16.081585 21.3080084,10.4442869 C21.3080084,4.80698886 16.7310359,0.22989415 11.0934933,0.22989415 Z"/>
    <path id="cloud-monitoring@1x-e" d="M39.3436936,13.7043816 L32.8308412,21.2847744 C32.6987744,21.4388524 32.4982284,21.518337 32.2964596,21.4963259 C32.0946908,21.4743148 31.916156,21.3544763 31.8207744,21.1747187 C30.5987891,18.8965655 27.0239351,12.2320808 24.8667209,8.21015599 C23.7754574,6.17657103 21.8886134,4.68592758 19.6565613,4.09651811 C16.5913875,3.28577437 12.0145373,2.0763844 8.01694708,1.01984958 C6.12631226,0.519707521 4.11070306,0.978272981 2.62262758,2.24758217 C1.13442981,3.51566852 0.362939276,5.43430641 0.557615599,7.3798468 C1.6882546,18.6801226 3.5374351,37.1633677 3.5374351,37.1633677 L4.91276462,67.3548284 L3.51481253,91.1739412 C3.49084485,91.3766883 3.47849415,91.5829816 3.47849415,91.7919652 C3.47849415,94.6792156 5.82268078,97.0232799 8.7099312,97.0232799 C11.4290409,97.0232799 13.6664735,94.944083 13.9176451,92.2900284 L13.941246,92.2912513 L15.9397354,67.9485178 L14.9947237,47.5583741 C14.9947237,47.5583741 18.6738861,68.9815741 18.6738861,68.9815741 L20.723368,92.4449624 L20.7376752,92.444351 C20.9365092,95.1506209 23.1980318,97.2874136 25.9546827,97.2874136 C28.8419331,97.2874136 31.1859975,94.9433493 31.1859975,92.0560989 C31.1859975,91.8674145 31.1759702,91.6810535 31.1564047,91.497505 L29.8559131,66.9778265 L26.4520123,39.0538802 L25.1659501,25.1244958 C25.1659501,25.1244958 26.823756,27.087156 28.437295,28.997234 C29.2040164,29.9045822 30.3221825,30.4414095 31.5099281,30.4719805 C32.6975515,30.5025515 33.8421309,30.0231978 34.6540975,29.1562033 L44.801234,18.3181616 C44.9002841,18.2240028 44.9932201,18.1249526 45.0800418,18.0197883 L45.0849331,18.0148969 C45.6046407,17.3912479 45.9164652,16.5902869 45.9164652,15.7159554 C45.9164652,13.732507 44.3059833,12.1220251 42.3225348,12.1220251 C41.0837967,12.1220251 39.9905766,12.7493426 39.3436936,13.7043816 Z"/>
    <path id="cloud-monitoring@1x-g" d="M54.3699666,1.34390251 C54.9557075,0.913462396 55.6784067,0.659111421 56.4585794,0.659111421 C58.4077883,0.659111421 59.9901448,2.24146797 59.9901448,4.19067688 C59.9901448,5.21419499 59.5535905,6.13744011 58.8553482,6.78310028 L58.8712451,6.8014429 C58.8712451,6.8014429 50.9081031,15.8382396 47.4817019,19.7268747 C46.5205487,20.817649 45.0800418,21.3581448 43.6395348,21.1673816 C41.751468,20.917922 39.0514345,20.5620752 36.9126852,20.2795989 C36.0310167,20.1622061 35.1420111,20.4190028 34.4584429,20.9864011 C33.7748747,21.5537994 33.3591086,22.381663 33.310195,23.2682228 C32.9152173,30.5930418 32.0262117,47.064224 32.0262117,47.064224 L34.4376546,73.7034532 L35.3926936,99.4105106 C35.3951393,99.4650493 35.397585,99.5198326 35.3988078,99.5748604 L35.3988078,99.5763279 C35.4000306,99.6130131 35.4000306,99.6496983 35.4000306,99.6863836 C35.4000306,102.522642 33.0974206,104.825374 30.260429,104.825374 C27.4246602,104.825374 25.1220501,102.522642 25.1220501,99.6863836 C25.1220501,99.6254861 25.123273,99.5647109 25.1257187,99.5043025 L25.1220501,99.5043025 L23.9872535,75.0959025 L21.5745877,59.7790825 L19.9665515,98.562837 L19.9665515,98.585215 C19.9665515,101.421351 17.6639415,103.724083 14.8281727,103.724083 C11.9924039,103.724083 9.68979387,101.421351 9.68979387,98.585215 C9.68979387,98.5625925 9.68979387,98.5400922 9.68979387,98.5175919 L9.68490251,98.5174696 L9.69223955,98.4017889 C9.69590808,98.3105649 9.70079944,98.2199524 9.70935933,98.1299513 L11.1241866,75.0959025 L10.0456407,45.2042825 L8.87049025,33.6955123 L7.56205014,39.9611061 L7.7833844,54.2092852 L7.77727019,54.2092852 C7.79072145,54.336583 7.7980585,54.4659596 7.7980585,54.5969259 C7.7980585,56.545768 6.21570195,58.1280022 4.26649304,58.1280022 C2.31850696,58.1280022 0.736150418,56.545768 0.736150418,54.5969259 C0.736150418,54.4659596 0.743487465,54.336583 0.756938719,54.2092852 L0.721476323,54.2092852 C0.721476323,54.2092852 0.475685237,41.6864128 0.437777159,39.7466198 C0.434108635,39.5795797 0.443891365,39.4124173 0.465902507,39.2467223 C0.667671309,37.7532663 1.73643454,29.8324345 2.5924234,23.4920028 C3.26009471,18.5443872 6.9616351,14.5469192 11.8444401,13.5026128 C17.5844568,12.2748802 24.1168747,10.8783955 27.6533315,10.1226797 C29.3702006,9.75460446 31.1482117,9.77416992 32.8565209,10.1764847 C35.0454067,10.6937465 38.1599833,11.4286741 40.3488691,11.9447131 C41.9642423,12.3262396 43.6627688,11.8505543 44.8477019,10.6864095 C47.9427131,7.64275766 53.7267521,1.95410028 53.7267521,1.95410028 C53.8783844,1.76945125 54.0471365,1.60069916 54.2330084,1.45028969 L54.3565153,1.32678273 L54.3699666,1.34390251 Z"/>
    <path id="cloud-monitoring@1x-i" d="M10.3415682,0.750824513 C15.8798162,0.750824513 20.3762033,5.2472117 20.3762033,10.7854596 C20.3762033,16.3224847 15.8798162,20.8188719 10.3415682,20.8188719 C4.80454318,20.8188719 0.308155989,16.3224847 0.308155989,10.7854596 C0.308155989,5.2472117 4.80454318,0.750824513 10.3415682,0.750824513 Z"/>
  </defs>
  <g fill="none" fill-rule="evenodd" transform="translate(67 55)">
    <path fill="#FFF" d="M212.490674,151.879326 C212.490674,150.526864 213.21215,149.278343 214.383632,148.602111 C215.553891,147.92588 216.996844,147.92588 218.168326,148.602111 C241.266574,161.938418 327.847401,211.925721 346.572769,222.736861 C348.791003,224.017175 350.158139,226.384596 350.158139,228.946448 C350.158139,247.104418 350.158139,319.794013 350.158139,342.119303 C350.158139,343.471521 349.436663,344.720898 348.265181,345.397007 C347.094922,346.073116 345.651969,346.073116 344.480487,345.397007 C321.38224,332.060701 234.800189,282.072786 216.076045,271.262869 C213.857811,269.981331 212.490674,267.613911 212.490674,265.052058 C212.490674,246.894089 212.490674,174.204738 212.490674,151.879326 Z"/>
    <g transform="translate(211.552 147.676)">
      <mask id="cloud-monitoring@1x-b" fill="#fff">
        <use xlink:href="#cloud-monitoring@1x-a"/>
      </mask>
      <path fill="#EFF4F7" d="M-0.308155989,-104.905103 C-0.308155989,-106.257565 0.413320334,-107.507309 1.58480223,-108.18354 C2.75506128,-108.858549 4.19801393,-108.858549 5.36949582,-108.18354 C28.4677437,-94.847234 115.048571,-44.8587075 133.773939,-34.0487911 C135.992173,-32.7672535 137.359309,-30.3998329 137.359309,-27.8379805 L137.359309,86.999039 L-0.308155989,7.51680501 C-0.308155989,7.51680501 -0.308155989,-79.9774847 -0.308155989,-104.905103 Z" mask="url(#cloud-monitoring@1x-b)"/>
      <path stroke="#01050C" stroke-linecap="round" stroke-linejoin="round" d="M-0.308155989,-104.905103 C-0.308155989,-106.257565 0.413320334,-107.507309 1.58480223,-108.18354 C2.75506128,-108.858549 4.19801393,-108.858549 5.36949582,-108.18354 C28.4677437,-94.847234 115.048571,-44.8587075 133.773939,-34.0487911 C135.992173,-32.7672535 137.359309,-30.3998329 137.359309,-27.8379805 L137.359309,86.999039 L-0.308155989,7.51680501 C-0.308155989,7.51680501 -0.308155989,-79.9774847 -0.308155989,-104.905103 Z" mask="url(#cloud-monitoring@1x-b)"/>
      <path fill="#3F6C9F" fill-opacity=".2" d="M86.3509331,47.5208329 C86.3509331,46.1695933 87.0724095,44.9198496 88.2438914,44.2436184 C89.4141504,43.5673872 90.8571031,43.5673872 92.028585,44.2436184 C108.705694,53.8722702 157.228033,81.8863398 170.835811,89.7430947 C173.054045,91.0234095 174.421181,93.3908301 174.421181,95.9526825 C174.421181,105.247499 174.421181,127.837045 174.421181,139.062727 C174.421181,140.415189 173.699705,141.66371 172.528223,142.339942 C171.357964,143.016173 169.915011,143.016173 168.743529,142.339942 C152.066421,132.71129 103.544081,104.69722 89.9363036,96.8404652 C87.7180696,95.5601504 86.3509331,93.1927298 86.3509331,90.6308774 C86.3509331,81.3360613 86.3509331,58.7465153 86.3509331,47.5208329 Z" mask="url(#cloud-monitoring@1x-b)"/>
    </g>
    <path stroke="#01050C" stroke-linecap="round" stroke-linejoin="round" d="M212.490674,151.879326 C212.490674,150.526864 213.21215,149.278343 214.383632,148.602111 C215.553891,147.92588 216.996844,147.92588 218.168326,148.602111 C241.266574,161.938418 327.847401,211.925721 346.572769,222.736861 C348.791003,224.017175 350.158139,226.384596 350.158139,228.946448 C350.158139,247.104418 350.158139,319.794013 350.158139,342.119303 C350.158139,343.471521 349.436663,344.720898 348.265181,345.397007 C347.094922,346.073116 345.651969,346.073116 344.480487,345.397007 C321.38224,332.060701 234.800189,282.072786 216.076045,271.262869 C213.857811,269.981331 212.490674,267.613911 212.490674,265.052058 C212.490674,246.894089 212.490674,174.204738 212.490674,151.879326 Z"/>
    <path fill="#EFF4F7" d="M221.950574,175.272279 C221.950574,172.685969 222.99488,171.203886 224.282532,171.962047 C234.582524,178.02734 275.951242,202.383891 286.251234,208.447961 C287.538886,209.206123 288.583192,211.917162 288.583192,214.502248 L288.583192,291.756465 C288.583192,294.341552 287.538886,295.823635 286.251234,295.065474 C275.951242,289.001404 234.582524,264.644852 224.282532,258.580783 C222.99488,257.822621 221.950574,255.111582 221.950574,252.525273 L221.950574,175.272279 Z"/>
    <path fill="#4D72EF" d="M319.331535,309.596496 C319.331535,297.748387 311.013769,283.342095 300.754131,277.418652 C290.49327,271.495209 282.175504,276.297306 282.175504,288.144192 L292.67115,294.204593 C292.67115,289.050318 296.289538,286.960482 300.754131,289.538231 C305.217501,292.114758 308.835889,298.383042 308.835889,303.536095 L319.331535,309.596496 Z"/>
    <path stroke="#FFF" stroke-linecap="round" stroke-linejoin="round" d="M319.331535,309.596496 C319.331535,297.748387 311.013769,283.342095 300.754131,277.418652 C290.49327,271.495209 282.175504,276.297306 282.175504,288.144192 L292.67115,294.204593 C292.67115,289.050318 296.289538,286.960482 300.754131,289.538231 C305.217501,292.114758 308.835889,298.383042 308.835889,303.536095 L319.331535,309.596496 Z"/>
    <path fill="#7390F2" d="M297.16876,275.751919 C288.45724,272.70093 282.175504,277.893114 282.175504,288.144192 L292.67115,294.204593 C292.67115,289.743669 295.404201,287.485081 299.193786,288.813086 L297.16876,275.751919 Z"/>
    <path stroke="#FFF" stroke-linecap="round" stroke-linejoin="round" d="M297.16876,275.751919 C288.45724,272.70093 282.175504,277.893114 282.175504,288.144192 L292.67115,294.204593 C292.67115,289.743669 295.404201,287.485081 299.193786,288.813086 L297.16876,275.751919 Z"/>
    <path fill="#A3B6F5" d="M286.845535,276.617691 C283.837345,278.804131 282.175504,282.904318 282.175504,288.144192 L292.67115,294.204593 C292.67115,291.923994 293.39385,290.141092 294.703513,289.189721 L286.845535,276.617691 Z"/>
    <path stroke="#FFF" stroke-linecap="round" stroke-linejoin="round" d="M286.845535,276.617691 C283.837345,278.804131 282.175504,282.904318 282.175504,288.144192 L292.67115,294.204593 C292.67115,291.923994 293.39385,290.141092 294.703513,289.189721 L286.845535,276.617691 Z"/>
    <polyline stroke="#B1BBC9" stroke-linecap="round" stroke-linejoin="round" points="228.604 237.634 239.824 250.632 258.669 248.308 266.874 271.024 272.022 273.996"/>
    <polyline stroke="#5A6D83" stroke-linecap="round" stroke-linejoin="round" points="225.219 252.29 238.668 238.79 252.402 262.669 266.874 259.729 272.022 266.471"/>
    <path fill="#EFF4F7" d="M280.022081,243.272033 C279.923031,244.213621 280.006184,245.235916 279.740827,246.047883 C279.513379,246.74368 278.892175,247.070178 278.987557,248.099811 C279.181989,250.176195 280.588256,252.153529 281.055382,254.203011 C281.380657,255.63129 281.765852,257.167178 281.793978,258.531869 C281.813543,259.491799 281.71327,260.406485 281.956616,261.455682 C282.334474,263.089398 282.461649,265.290513 283.211251,266.810504 C283.355546,267.102763 283.976749,268.430769 284.244552,268.308485 C285.482067,267.738641 284.306916,264.318354 284.776487,262.954886 C285.069969,262.101343 285.923513,261.767507 286.415095,261.220897 C287.21361,260.33556 288.297047,258.539206 288.718928,257.106036 C289.337685,255.003972 288.430337,253.124465 287.242958,251.193599 C286.780724,250.441552 286.539825,249.594123 285.9871,248.925228 C285.395245,248.207421 284.237214,248.538811 283.919276,247.495727 C283.190462,245.096513 280.43051,242.226504 280.022081,243.272033 Z M326.092624,276.91851 C325.347914,276.623805 324.465022,276.77666 324.271813,277.893114 C324.203334,278.286869 324.336624,279.224788 323.979554,279.287153 C323.193267,279.424111 322.164858,278.702635 321.586454,279.469357 C321.26607,279.896128 321.039844,282.031209 321.586454,282.730674 C322.211326,283.526744 322.982939,284.012212 323.63349,284.066017 C324.243688,284.116153 324.617877,283.488836 325.347914,284.188301 C326.420345,285.215487 326.289501,288.84488 327.540468,288.792298 C328.759641,288.739716 329.479894,286.569173 329.827181,285.133557 C329.947019,284.637084 330.400694,284.92812 330.531538,284.49768 C330.716187,283.887482 330.313872,282.664641 330.264958,281.933382 C330.219713,281.246145 330.332214,279.99151 329.945797,279.278593 C329.137499,277.783058 328.894153,280.845053 328.033273,280.431733 C327.484217,280.168822 327.506228,279.194217 327.341145,278.508203 C327.257992,278.159694 326.549967,277.09949 326.092624,276.91851 Z M295.395641,243.272033 C294.696175,243.651114 293.753365,245.29339 293.503905,245.996524 C293.292354,246.590825 293.192081,247.14844 293.17863,247.931058 C293.167624,248.59017 293.390181,249.248058 293.59195,249.949969 C294.306089,252.436006 295.705019,253.043758 297.077047,253.740777 C297.798524,254.10763 298.968783,254.371763 299.366206,255.791482 C299.799092,257.342045 299.457919,259.000217 299.543518,260.46029 C299.664579,262.540343 300.272331,264.866187 300.428855,266.996376 C300.548694,268.622755 301.101418,270.762727 302.348716,271.084334 C302.940571,271.238412 303.433376,270.288265 303.692618,269.737986 C304.421432,268.186201 304.475237,265.987532 304.947253,264.202184 C305.177148,263.336412 305.334894,262.29822 305.848487,261.806638 C306.496593,261.185435 307.770794,261.56207 308.004357,260.114226 C308.045933,259.851315 308.380992,258.462167 308.165772,257.999933 C307.878404,257.37873 305.506092,255.001526 305.921858,254.302061 C306.265476,253.726103 307.350136,254.825437 307.841719,254.424345 C308.159657,254.165103 308.034928,252.970387 308.447025,252.909245 C309.57693,252.741716 311.292577,255.123811 312.138783,256.669482 C312.422482,257.189189 312.987435,258.090423 313.084039,258.716518 C313.184312,259.370738 312.962978,262.015744 313.468011,262.561131 C316.190056,265.503287 314.819251,259.425766 316.805145,260.221836 C317.946056,260.679178 318.893758,262.896189 319.462379,264.372159 C319.717953,265.032493 319.742409,265.873808 320.304916,266.186855 C321.103432,266.631969 321.372457,265.131543 321.5889,264.399061 C321.965535,263.122415 321.647596,261.848214 321.810234,260.560563 C321.887273,259.955256 322.384969,259.236226 322.194206,258.445047 C321.842028,256.978861 321.121774,256.115535 321.899501,255.187398 C323.023292,253.843496 324.712036,258.168685 325.560688,256.25127 C325.817485,255.670421 325.718435,254.324072 325.221961,253.568357 C325.163265,253.479089 323.626153,251.938309 323.878058,251.741432 C325.228075,250.683674 327.239649,254.357089 328.632465,254.293501 C329.256114,254.265376 329.002986,251.976217 328.705836,251.313437 C328.1311,250.025786 326.608663,249.383794 325.827267,248.643975 C323.926972,246.843953 321.981432,245.09529 320.023663,243.706142 C318.797153,242.836702 317.587763,242.691184 316.361253,241.827858 C315.829318,241.453669 315.233794,240.238164 314.766669,239.62063 C313.932691,238.517627 312.78322,237.470875 311.857529,237.298454 C311.303582,237.195735 310.750858,238.191128 310.352212,238.465045 C309.411847,239.110705 308.400557,239.284348 307.132471,238.729178 C307.035866,238.687602 306.129741,238.331755 305.951206,238.111643 C304.328496,236.113521 302.808504,232.186978 300.915546,233.682513 C300.642852,233.898955 300.411735,234.249911 300.222195,234.610649 C299.693928,235.60971 301.221256,236.778747 301.787432,237.529571 C302.04912,237.876858 302.680106,238.869805 302.290019,239.235435 C301.204136,240.24917 298.855058,238.361103 297.431671,238.573877 C297.233571,238.603226 295.956925,238.873474 296.102443,239.307582 C296.518209,240.551212 297.63344,241.158964 298.302334,241.306928 C299.597323,241.594295 300.190401,240.349443 301.668816,241.491577 C302.312031,241.989273 303.104432,242.584797 303.707292,243.312387 C303.998329,243.663343 304.141401,243.903019 304.385969,244.326123 C306.462354,247.907825 302.971142,248.049674 301.787432,247.735404 C301.26161,247.594777 300.17695,247.050613 299.690259,246.396393 C299.124084,245.634563 298.356139,244.176936 297.697028,243.722039 C296.861827,243.146081 296.024181,242.932084 295.395641,243.272033 Z M277.89556,220.552866 C278.821251,221.000426 279.926699,221.368501 280.686084,221.317142 C282.28556,221.207086 283.61112,220.089409 285.515084,221.188744 C286.229223,221.600841 288.618655,222.690393 288.940262,224.281309 C289.172602,225.42222 288.228568,226.000624 287.656279,225.918694 C287.203827,225.855106 286.56795,225.238794 286.091042,224.994226 C284.924451,224.396256 283.07307,224.272749 282.547248,225.542058 C282.319799,226.091114 282.731897,226.725769 283.121983,226.818705 C284.069685,227.043708 284.888989,227.262596 285.868485,228.061111 C286.256125,228.376604 286.69268,228.733674 286.676783,229.406237 C286.618086,231.889827 284.500125,230.949462 283.403237,231.397022 C282.159607,231.903279 282.168167,234.561735 280.952663,235.234298 C279.980504,235.771125 278.190265,233.911184 277.098267,234.145969 C276.863482,234.196106 277.086039,235.032529 277.171638,235.280766 C277.675448,236.751844 278.169476,237.6971 278.146242,239.166955 C278.138905,239.649978 278.064312,240.43871 277.628981,240.090201 C276.924624,239.527694 277.006554,238.101861 276.463613,237.423184 C275.60151,236.348306 274.206248,235.542454 273.435858,234.389315 C272.61044,233.154245 271.858393,229.545641 271.97334,228.228641 C272.168994,226.009184 273.468875,224.496529 273.022538,221.886986 C272.555412,219.16005 270.988953,219.628398 269.87739,219.020646 C269.590022,218.8629 268.559167,218.14876 268.696125,217.43829 C268.771942,217.043312 269.31366,216.834206 269.53744,216.680128 C269.887173,216.440451 270.496148,215.969657 270.940039,216.011234 C272.263153,216.135964 273.789259,218.29061 275.074465,219.169833 C275.841187,219.694432 277.177752,219.636958 277.89556,220.552866 C277.814852,220.513735 277.736591,220.474604 277.659552,220.435474 L277.260905,220.217808 C277.386858,220.289955 277.520148,220.363326 277.659552,220.435474 L277.910234,220.571209 L277.89556,220.552866 Z"/>
    <path fill="#5A6D83" d="M323.604142,278.686738 C323.615148,278.427496 323.637159,277.972599 323.668953,277.789173 C323.781454,277.141067 324.076159,276.730192 324.432006,276.481955 C324.960273,276.111435 325.674412,276.095538 326.317627,276.349889 C326.569532,276.450162 326.893585,276.721632 327.178507,277.067696 C327.557588,277.52993 327.874304,278.109557 327.936669,278.365131 C328.018599,278.709972 328.055284,279.126961 328.13966,279.491368 C328.154334,279.558624 328.171454,279.623435 328.192242,279.683354 C328.227705,279.629549 328.260721,279.572075 328.286401,279.524384 C328.412354,279.282262 328.532192,279.025465 328.654476,278.831033 C328.902713,278.437279 329.226766,278.255075 329.512911,278.25263 C329.77093,278.250184 330.152457,278.376136 330.483847,278.987557 C330.673387,279.33729 330.774883,279.789741 330.820128,280.265426 C330.876379,280.85239 330.848253,281.476039 330.875156,281.891805 C330.903281,282.318577 331.058582,282.916546 331.136844,283.454596 C331.205323,283.926613 331.211437,284.36439 331.116056,284.676214 C331.048799,284.897549 330.939967,285.039398 330.818905,285.144563 C330.718632,285.231384 330.519309,285.313315 330.401916,285.357337 C330.176914,286.267131 329.808838,287.423939 329.285462,288.228568 C328.825674,288.934148 328.232596,289.37437 327.56737,289.402496 C326.960841,289.428175 326.469259,289.017301 326.152543,288.248134 C325.87129,287.564565 325.695201,286.556944 325.437181,285.702178 C325.303891,285.25951 325.163265,284.857195 324.924811,284.629747 C324.831875,284.540479 324.76095,284.483006 324.687579,284.468331 C324.555513,284.442652 324.449125,284.522136 324.33051,284.56249 C324.096947,284.640752 323.854825,284.698226 323.583354,284.674992 C322.803181,284.611404 321.854256,284.063571 321.105877,283.107309 C320.76715,282.674423 320.615518,281.807429 320.650981,280.972228 C320.68522,280.141919 320.901663,279.364192 321.09854,279.101281 C321.47273,278.606031 321.953306,278.471518 322.487688,278.503312 C322.761604,278.519209 323.053864,278.586465 323.341231,278.641493 C323.429276,278.658613 323.518543,278.675733 323.604142,278.686738 Z M329.508019,279.817866 C329.406524,280.018412 329.302582,280.229964 329.191304,280.407276 C328.814669,281.006468 328.312081,281.243699 327.767916,280.983234 C327.404733,280.808368 327.158942,280.469641 327.017092,280.023304 C326.885025,279.607538 326.849563,279.075602 326.746844,278.650053 C326.707713,278.488638 326.475373,278.137682 326.233251,277.844201 C326.10363,277.686454 325.982568,277.532376 325.867621,277.487131 C325.616939,277.388081 325.338131,277.34039 325.131471,277.484685 C324.996958,277.578844 324.916251,277.751265 324.874674,277.997056 C324.824538,278.286869 324.869783,278.856713 324.776847,279.194217 C324.664345,279.606315 324.405103,279.833763 324.083496,279.890014 C323.700747,279.956047 323.267861,279.874117 322.843535,279.789741 C322.676006,279.755501 322.510922,279.722485 322.353175,279.721262 C322.249234,279.721262 322.148961,279.739604 322.075591,279.837432 C322.043797,279.880231 322.0279,279.960939 322.003443,280.058766 C321.934964,280.319231 321.887273,280.666518 321.872599,281.023588 C321.86037,281.31707 321.870153,281.619111 321.914175,281.885691 C321.945969,282.075231 321.983877,282.245206 322.068253,282.352816 C322.568396,282.991139 323.163919,283.414242 323.683627,283.457042 C323.777786,283.464379 323.858493,283.430139 323.939201,283.403237 C324.061485,283.362883 324.1801,283.318861 324.302384,283.289513 C324.724265,283.188017 325.181607,283.181903 325.771017,283.746855 C326.087733,284.05012 326.337192,284.529474 326.527955,285.095649 C326.761518,285.791446 326.920487,286.630315 327.123479,287.316329 C327.199295,287.573125 327.280003,287.804242 327.380276,287.987669 C327.410847,288.045142 327.443864,288.096501 327.480549,288.139301 C327.494,288.155198 327.495223,288.1821 327.514788,288.180918 C327.82539,288.167426 328.046724,287.889841 328.260721,287.56212 C328.72907,286.841866 329.039671,285.791446 329.23288,284.990485 C329.319702,284.629747 329.498237,284.453657 329.687777,284.337487 C329.758702,284.293465 329.87854,284.24822 329.966585,284.217649 C329.987373,284.053788 329.958025,283.848351 329.926231,283.630685 C329.844301,283.059618 329.685331,282.424964 329.65476,281.973735 C329.632749,281.627671 329.648646,281.139758 329.622967,280.648175 C329.60707,280.358362 329.582613,280.066103 329.508019,279.817866 Z M301.788655,238.85024 C301.773981,238.784206 301.748301,238.680265 301.718953,238.611786 C301.599114,238.326864 301.409574,238.044387 301.299518,237.897646 C300.949786,237.435412 300.25032,236.814209 299.859011,236.172217 C299.484822,235.555905 299.368652,234.917582 299.681699,234.325727 C299.912816,233.886727 300.203852,233.46607 300.536465,233.203159 C300.974242,232.857095 301.40346,232.727474 301.815557,232.739702 C302.38051,232.755599 302.941794,233.060086 303.470061,233.587131 C304.478905,234.592306 305.42783,236.48771 306.407326,237.701992 C306.472136,237.733786 307.304891,238.137323 307.378262,238.169117 C308.412786,238.621568 309.239426,238.488279 310.006148,237.961234 C310.113758,237.886641 310.228705,237.737454 310.360772,237.587045 C310.56254,237.358373 310.781429,237.121142 311.003986,236.958504 C311.317033,236.731056 311.648423,236.63812 311.970031,236.698039 C313.004554,236.890025 314.322777,238.018708 315.254582,239.252554 C315.539504,239.629189 315.87334,240.225936 316.210844,240.724855 C316.383265,240.979206 316.547125,241.210323 316.713432,241.327716 C317.939942,242.191042 319.149331,242.33656 320.378287,243.208446 C322.358067,244.612267 324.325618,246.379273 326.247925,248.198861 C326.62456,248.55593 327.180953,248.886097 327.711666,249.284744 C328.343875,249.760429 328.934507,250.324159 329.264674,251.063978 C329.501905,251.594691 329.720794,253.035198 329.582613,253.863061 C329.468889,254.544184 329.070242,254.885357 328.660591,254.904922 C328.269281,254.922042 327.832727,254.76185 327.38639,254.454916 C326.888694,254.112521 326.355535,253.581808 325.824822,253.095117 C325.532563,252.824869 325.242749,252.568072 324.961496,252.387092 C325.313674,252.794298 325.70376,253.189276 325.733109,253.232075 C326.08651,253.770125 326.282164,254.557635 326.306621,255.252209 C326.324964,255.751128 326.251593,256.202357 326.120749,256.498284 C325.872513,257.058345 325.535008,257.274788 325.219515,257.339599 C324.812309,257.423975 324.307276,257.212423 323.819362,256.772201 C323.445173,256.433474 323.048972,255.963903 322.662554,255.678981 C322.608749,255.638627 322.554944,255.603164 322.502362,255.576262 C322.474237,255.561588 322.430214,255.545691 322.408203,255.539577 C322.397198,255.549359 322.378855,255.565256 322.36785,255.578708 C322.057248,255.950451 322.157521,256.311189 322.296925,256.746521 C322.439997,257.195304 322.644212,257.699114 322.788507,258.301975 C322.910791,258.810677 322.827638,259.297368 322.685788,259.753487 C322.587961,260.071426 322.451003,260.366131 322.416763,260.637602 C322.249234,261.95827 322.562281,263.264265 322.175864,264.571482 C322.031568,265.059396 321.849365,265.848128 321.548546,266.299357 C321.333326,266.622187 321.055741,266.814173 320.751253,266.865532 C320.529919,266.902217 320.281682,266.874092 320.006543,266.721237 C319.660479,266.528028 319.430585,266.218649 319.272838,265.834677 C319.11876,265.458042 319.046613,264.992139 318.892535,264.59227 C318.564813,263.741173 318.108694,262.633279 317.557192,261.789518 C317.253928,261.324838 316.939657,260.933529 316.577696,260.789234 C316.548348,260.777006 316.506772,260.767223 316.48476,260.763554 C316.463972,260.790457 316.413836,260.857713 316.389379,260.90785 C316.323345,261.046031 316.271986,261.211114 316.225518,261.387203 C316.143588,261.691691 316.08,262.025526 316.007852,262.334905 C315.919808,262.710318 315.815866,263.053936 315.678908,263.307064 C315.534613,263.574866 315.347518,263.763184 315.133521,263.870794 C314.88773,263.994301 314.594248,264.033432 314.235955,263.906256 C313.927799,263.796201 313.523039,263.521061 313.019228,262.976897 C312.810123,262.750671 312.64137,262.278655 312.574114,261.683131 C312.46039,260.685292 312.549657,259.264351 312.478733,258.809454 C312.391911,258.240833 311.859975,257.434981 311.601955,256.962964 C311.120156,256.081295 310.342429,254.912259 309.564702,254.152875 C309.334808,253.930318 309.108582,253.743223 308.889694,253.623384 C308.84078,253.596482 308.793089,253.572025 308.747844,253.55246 C308.723387,253.664961 308.692816,253.804365 308.675696,253.903415 C308.596212,254.344861 308.436019,254.728833 308.228136,254.897585 C307.88085,255.182507 307.364811,255.165387 306.831652,254.958727 C306.777847,254.937939 306.710591,254.913482 306.643334,254.887802 C306.726487,255.043103 306.834097,255.208187 306.95149,255.378162 C307.595928,256.306298 308.542407,257.356719 308.720942,257.743136 C308.816323,257.947351 308.861568,258.271404 308.844448,258.639479 C308.816323,259.249677 308.639011,260.018844 308.607217,260.212053 C308.442134,261.234348 307.906529,261.608538 307.3,261.840877 C307.117797,261.910579 306.925811,261.964384 306.739939,262.023081 C306.568741,262.078109 306.397543,262.125799 306.271591,262.248084 C306.080827,262.430287 305.97444,262.724992 305.87539,263.044153 C305.745769,263.466033 305.65161,263.933159 305.539109,264.358708 C305.057309,266.178295 304.98883,268.416095 304.245343,269.998451 C304.064362,270.382423 303.776994,270.927811 303.434599,271.268983 C303.068969,271.63339 302.637306,271.791136 302.195861,271.676189 C301.544086,271.50866 301.009705,270.990175 300.625733,270.257694 C300.15127,269.3479 299.896919,268.09571 299.818657,267.041621 C299.663357,264.907763 299.054382,262.579474 298.932097,260.495752 C298.850167,259.076033 299.197454,257.463106 298.776797,255.955343 C298.594593,255.302345 298.193501,254.972178 297.786295,254.748398 C297.437786,254.557635 297.083162,254.43046 296.799462,254.286164 C295.297813,253.521889 293.786382,252.839543 293.003763,250.118721 C292.784875,249.355669 292.554981,248.637861 292.567209,247.921276 C292.581883,247.059173 292.695607,246.445306 292.927947,245.792309 C293.090585,245.334967 293.519802,244.510772 294.002825,243.835763 C294.363563,243.333175 294.764655,242.918632 295.103382,242.735206 C295.901897,242.30232 296.982889,242.486969 298.044315,243.219451 C298.353694,243.432226 298.692421,243.825981 299.020142,244.288214 C299.434685,244.875178 299.843114,245.577089 300.180618,246.030763 C300.589047,246.578596 301.503733,247.027379 301.943955,247.144772 C302.302248,247.240153 302.912446,247.282953 303.463947,247.160669 C303.767212,247.094635 304.058248,246.983357 304.24412,246.766914 C304.376187,246.612836 304.436106,246.402507 304.41654,246.128591 C304.388415,245.73239 304.211103,245.243253 303.857702,244.633056 C303.632699,244.245415 303.503078,244.024081 303.236499,243.702474 C302.664209,243.010345 301.906047,242.449061 301.294627,241.975822 C300.650189,241.476903 300.235646,241.613861 299.805206,241.749596 C299.31607,241.903674 298.812259,242.045524 298.170267,241.903674 C297.365638,241.725139 296.021735,240.996326 295.522816,239.500791 C295.396864,239.126602 295.527708,238.741407 295.944696,238.457708 C296.358017,238.176454 297.171206,237.994251 297.341181,237.969794 C298.132359,237.851178 299.190117,238.274281 300.191624,238.627682 C300.587825,238.768309 300.973019,238.893039 301.320306,238.919942 C301.49395,238.933393 301.656588,238.927279 301.788655,238.85024 Z M311.791496,237.908652 C311.745028,237.944114 311.578721,238.067621 311.489454,238.16178 C311.199641,238.466267 310.922056,238.814777 310.698276,238.968855 C309.58549,239.733131 308.389552,239.945905 306.887903,239.28924 C306.815755,239.258669 306.326618,239.063014 305.973217,238.871028 C305.743323,238.745075 305.563565,238.603226 305.476744,238.496838 C304.515591,237.313128 303.596014,235.439735 302.606735,234.452903 C302.332819,234.180209 302.072354,233.96988 301.780095,233.962306 C301.621125,233.957652 301.463379,234.028577 301.29585,234.161866 C301.081852,234.331841 300.911877,234.614318 300.762691,234.896794 C300.692989,235.028861 300.727228,235.167042 300.784702,235.306446 C300.853181,235.471529 300.960791,235.634167 301.081852,235.794359 C301.46827,236.305507 301.991646,236.786084 302.275345,237.161496 C302.497903,237.456201 302.924674,238.143437 303.006604,238.677819 C303.071415,239.089916 302.965028,239.440872 302.707008,239.681772 C302.126159,240.224713 301.283621,240.236942 300.350593,239.965471 C299.818657,239.811393 299.251259,239.575384 298.70954,239.394404 C298.276655,239.248886 297.868226,239.126602 297.522162,239.179184 C297.442677,239.190189 297.154086,239.250109 296.889953,239.347936 C296.860604,239.358942 296.826365,239.372393 296.793348,239.38829 C297.183435,240.196588 297.952602,240.602571 298.434401,240.710181 C298.96756,240.827574 299.351532,240.596457 299.758738,240.487624 C300.403175,240.315203 301.08063,240.265067 302.043006,241.008554 C302.718014,241.530708 303.545877,242.159248 304.178086,242.922301 C304.493579,243.302604 304.650103,243.561847 304.91546,244.019189 C305.947538,245.800869 305.729872,246.911209 305.173479,247.56176 C304.822524,247.971412 304.299148,248.229432 303.726858,248.355384 C302.965028,248.522914 302.123713,248.45688 301.629685,248.326036 C301.018265,248.163398 299.766075,247.521407 299.1999,246.760799 C298.857504,246.301011 298.441738,245.589318 298.021081,244.993794 C297.791187,244.667295 297.567407,244.376259 297.349741,244.22585 C296.739543,243.803969 296.146465,243.560624 295.686677,243.810084 C295.466565,243.929922 295.230557,244.222181 294.996994,244.54868 C294.587343,245.119747 294.216822,245.815543 294.079864,246.201961 C293.890323,246.73512 293.801056,247.237708 293.789728,247.942064 C293.780267,248.543702 293.995487,249.140448 294.178914,249.781217 C294.825797,252.032468 296.111003,252.564404 297.354632,253.196613 C298.189833,253.620939 299.495827,253.9829 299.954393,255.626398 C300.399507,257.21976 300.065671,258.924401 300.153716,260.424827 C300.274777,262.502435 300.882529,264.82461 301.039053,266.952354 C301.105086,267.848696 301.305632,268.91746 301.710393,269.691518 C301.90727,270.069376 302.13961,270.382423 302.468554,270.483919 C302.485674,270.472914 302.513799,270.454571 302.529696,270.44112 C302.57861,270.399543 302.623855,270.348184 302.667877,270.293156 C302.867201,270.044919 303.02617,269.717198 303.138671,269.477521 C303.854033,267.956306 303.893164,265.795546 304.356621,264.04566 C304.498471,263.508833 304.617086,262.907195 304.801735,262.403384 C304.955813,261.981504 305.158805,261.619543 305.425384,261.365192 C305.751883,261.052145 306.193329,260.913964 306.638443,260.775783 C306.969833,260.671841 307.312228,260.560563 307.400273,260.016398 C307.42473,259.863543 307.553128,259.31571 307.60571,258.805786 C307.628944,258.584451 307.66563,258.3729 307.611825,258.25673 C307.413724,257.829958 306.204334,256.561872 305.640604,255.600719 C305.449841,255.27422 305.323889,254.970955 305.281089,254.725164 C305.230953,254.431682 305.279866,254.184669 305.396036,253.990237 C305.646719,253.568357 306.035582,253.447295 306.523496,253.55246 C306.739939,253.598928 306.988175,253.705315 307.232744,253.803142 C307.285326,253.82393 307.358696,253.845942 307.422284,253.864284 C307.463861,253.641727 307.547014,253.233298 307.613047,253.027861 C307.752451,252.591306 308.033705,252.352852 308.357758,252.303939 C308.829774,252.234237 309.394727,252.432337 309.95968,252.873783 C310.959964,253.657624 312.04707,255.230198 312.674387,256.376 C312.986212,256.944621 313.582958,257.938791 313.688123,258.623582 C313.749265,259.025897 313.697905,260.160694 313.754156,261.125515 C313.770053,261.406769 313.795733,261.670903 313.842201,261.889791 C313.862989,261.991287 313.918017,262.135582 313.925354,262.15637 C314.130791,262.377705 314.30688,262.53912 314.462181,262.649175 C314.501312,262.677301 314.551448,262.704203 314.593025,262.724992 C314.635825,262.633279 314.710418,262.465749 314.74588,262.337351 C314.825365,262.052429 314.888953,261.727153 314.959877,261.412883 C315.051591,261.014237 315.157978,260.63271 315.307164,260.340451 C315.471025,260.015175 315.692359,259.781613 315.95527,259.654437 C316.240192,259.515033 316.59237,259.477125 317.032593,259.654437 C317.584095,259.874549 318.119699,260.412599 318.581933,261.120624 C319.17868,262.034086 319.677599,263.231248 320.033446,264.152047 C320.16429,264.491997 320.23766,264.878415 320.350162,265.220811 C320.39663,265.36266 320.434538,265.503287 320.526251,265.595 C320.595953,265.46171 320.724351,265.203691 320.783047,265.012928 C320.869869,264.730451 320.938348,264.443084 321.003159,264.225418 C321.173134,263.64946 321.179248,263.073501 321.168242,262.49632 C321.156014,261.827426 321.118106,261.157309 321.203705,260.483524 C321.239167,260.204716 321.345554,259.902674 321.454387,259.584735 C321.560774,259.275357 321.685504,258.942744 321.599905,258.58812 C321.423816,257.856861 321.156014,257.274788 321.030061,256.761195 C320.853972,256.050724 320.894326,255.435635 321.42993,254.794866 C321.859148,254.281273 322.336056,254.217685 322.830084,254.38766 C323.287426,254.54663 323.794905,255.027206 324.266922,255.504114 C324.449125,255.686318 324.626437,255.864852 324.798858,256.000588 C324.84288,256.034827 324.902799,256.071513 324.95049,256.099638 C324.968833,256.069067 324.988398,256.034827 325.00185,256.004256 C325.076443,255.835504 325.094786,255.577485 325.085003,255.295008 C325.067883,254.830329 324.95905,254.299616 324.727933,253.93154 L324.72671,253.930318 C324.515159,253.695532 323.634713,252.768618 323.376694,252.286819 C323.111337,251.791568 323.300877,251.416156 323.500201,251.259632 C324.252248,250.671446 325.188944,250.963705 326.120749,251.727981 C326.719942,252.21834 327.336253,252.882343 327.913435,253.326234 C328.073627,253.449741 328.221591,253.564688 328.36344,253.628276 C328.384228,253.454632 328.409908,253.190499 328.400125,252.991175 C328.374446,252.439674 328.271727,251.838036 328.14822,251.562897 C327.902429,251.015064 327.445086,250.613972 326.976738,250.261794 C326.405671,249.832577 325.81137,249.470616 325.40661,249.087866 C323.528326,247.308632 321.606019,245.578312 319.670262,244.205061 C318.443752,243.335621 317.234362,243.190103 316.009075,242.328 C315.749833,242.144574 315.467357,241.808292 315.198331,241.409646 C314.873056,240.92907 314.553894,240.353111 314.278755,239.989928 C313.557279,239.034889 312.598571,238.087187 311.791496,237.908652 Z M279.452237,243.050699 C279.432671,243.100836 279.41922,243.154641 279.414329,243.208446 C279.318947,244.106011 279.413106,245.083061 279.159978,245.85712 C279.059705,246.16283 278.86405,246.381719 278.713641,246.643407 C278.487415,247.033493 278.316217,247.47983 278.379805,248.157284 C278.482524,249.256618 278.897067,250.332719 279.358078,251.402705 C279.77629,252.378532 280.233632,253.349468 280.458635,254.338747 C280.775351,255.726671 281.155655,257.218538 281.182557,258.544097 C281.203345,259.545604 281.107964,260.499421 281.359869,261.592641 C281.74751,263.269156 281.894251,265.52163 282.662195,267.080752 C282.793039,267.344886 283.287067,268.347616 283.627017,268.670446 C283.943733,268.972487 284.275123,268.967596 284.500125,268.863655 C285.047958,268.611749 285.357337,268.023563 285.425816,267.210373 C285.493072,266.411858 285.347554,265.36266 285.290081,264.438192 C285.258287,263.935604 285.243613,263.475816 285.354891,263.154209 C285.489404,262.7629 285.796337,262.53056 286.08615,262.304334 C286.368627,262.084223 286.64988,261.873894 286.869992,261.630549 C287.713752,260.693852 288.859554,258.793557 289.305891,257.278457 C289.974786,255.006418 289.047872,252.961827 287.763889,250.873214 C287.286981,250.097933 287.028961,249.22727 286.459117,248.535142 C286.143624,248.153616 285.720521,247.972635 285.283967,247.830786 C285.150677,247.787986 285.017387,247.747632 284.891435,247.696273 C284.726351,247.629017 284.572273,247.539749 284.505017,247.317192 C283.952292,245.501273 282.313685,243.442008 281.235139,242.754772 C280.360808,242.197156 279.702919,242.408708 279.452237,243.050699 Z M280.591925,243.814975 C280.540565,244.657513 280.55524,245.524507 280.321677,246.237423 C280.214067,246.567591 280.037978,246.831724 279.865557,247.103195 C279.709033,247.347763 279.556178,247.603337 279.596532,248.04356 C279.688245,249.019387 280.072217,249.970758 280.480646,250.919682 C280.929429,251.963989 281.410006,253.007072 281.650905,254.067276 C281.985964,255.535908 282.377273,257.115819 282.405398,258.518418 C282.423741,259.439217 282.319799,260.313549 282.552139,261.317501 C282.920214,262.909641 283.029047,265.059396 283.759084,266.540256 C283.812889,266.649089 284.012212,266.996376 284.185855,267.297195 C284.220095,267.085643 284.226209,266.842298 284.220095,266.584279 C284.204198,265.84446 284.086805,264.990916 284.055011,264.249875 C284.030554,263.665357 284.066017,263.140758 284.198084,262.755563 C284.385178,262.215067 284.736134,261.829872 285.131111,261.50215 C285.418479,261.263696 285.733972,261.064373 285.961421,260.812468 C286.713468,259.977267 287.73454,258.283632 288.133187,256.933616 C288.701808,255.001526 287.812802,253.288326 286.722028,251.513983 C286.274468,250.786393 286.049465,249.962198 285.515084,249.314092 C285.379348,249.149008 285.186139,249.087866 284.997822,249.024279 C284.785047,248.952131 284.569827,248.889766 284.370504,248.804167 C283.910716,248.604844 283.525521,248.300357 283.334758,247.673039 C282.928774,246.337696 281.842891,244.847053 280.958777,244.076663 C280.846276,243.978836 280.709318,243.887123 280.591925,243.814975 Z M277.686454,234.812418 C277.709688,234.927365 277.732922,235.033752 277.750042,235.082666 C278.280755,236.630783 278.78212,237.629844 278.757663,239.176738 C278.751549,239.566825 278.680624,240.097538 278.5241,240.364117 C278.379805,240.611131 278.173145,240.740752 277.946919,240.777437 C277.759825,240.808008 277.517702,240.783552 277.247454,240.568331 C276.87571,240.271181 276.644593,239.806501 276.485624,239.28068 C276.327877,238.759749 276.270404,238.160557 275.985482,237.805933 C275.113596,236.717604 273.707329,235.895855 272.927156,234.729265 C272.049156,233.41471 271.242081,229.576212 271.364365,228.174836 C271.447518,227.239362 271.711652,226.421281 271.97334,225.601978 C272.319404,224.523432 272.667914,223.439994 272.419677,221.989705 C272.286387,221.211978 272.067499,220.74363 271.769125,220.453816 C271.482981,220.176231 271.135694,220.075958 270.794521,219.981799 C270.375086,219.864407 269.958097,219.761688 269.583908,219.557474 C269.376025,219.442526 268.845312,219.08668 268.489465,218.635451 C268.177641,218.239251 268.008889,217.773348 268.09571,217.32212 C268.151961,217.027415 268.329273,216.774287 268.571396,216.573741 C268.780501,216.40132 269.047081,216.275368 269.191376,216.176318 C269.420047,216.019794 269.75266,215.774003 270.085273,215.611365 C270.400766,215.456064 270.722373,215.376579 270.998735,215.402259 C271.630944,215.462178 272.319404,215.877944 272.995635,216.46124 C273.827167,217.177825 274.664813,218.14876 275.420529,218.666022 C275.759256,218.898362 276.23005,218.986407 276.688616,219.131925 C277.276802,219.320242 277.847869,219.575816 278.277086,220.057616 C279.078047,220.433028 279.998847,220.750967 280.644507,220.706944 C281.417343,220.654362 282.121699,220.351097 282.865187,220.200688 C283.765198,220.018485 284.708008,220.016039 285.820794,220.659253 C286.267131,220.91605 287.335894,221.432089 288.195552,222.157234 C288.855886,222.713627 289.385376,223.395972 289.539454,224.160248 C289.88185,225.846546 288.416886,226.643838 287.57068,226.524 C287.317552,226.488538 287.01551,226.347911 286.711022,226.147365 C286.402866,225.944373 286.081259,225.676571 285.812234,225.53839 C285.323097,225.287708 284.692111,225.13363 284.127159,225.177652 C283.689382,225.211891 283.282175,225.364747 283.112201,225.776844 C283.059618,225.901574 283.114646,226.036086 283.184348,226.132691 C283.210028,226.169376 283.266279,226.217067 283.277284,226.22685 C284.305694,226.471418 285.191031,226.720877 286.254903,227.586649 C286.77461,228.009752 287.308992,228.518454 287.288203,229.420911 C287.264969,230.408967 286.950699,230.970251 286.547162,231.313869 C286.144847,231.653819 285.619025,231.785886 285.057741,231.828685 C284.556376,231.86537 284.021994,231.805451 283.634354,231.963198 C283.441145,232.04146 283.313969,232.218772 283.194131,232.424209 C283.018042,232.727474 282.879861,233.095549 282.739234,233.468515 C282.541134,233.99556 282.339365,234.529942 282.071563,234.953045 C281.847783,235.305223 281.577535,235.586476 281.248591,235.76868 C280.714209,236.064607 279.986618,235.931318 279.226011,235.566911 C278.815136,235.370033 278.385919,235.120574 277.97749,234.935925 C277.877217,234.891903 277.77939,234.846657 277.686454,234.812418 Z M276.683724,220.419577 C276.466058,220.333978 276.237387,220.271613 276.017276,220.205579 C275.540368,220.06373 275.084248,219.918212 274.729624,219.674866 C273.942114,219.135593 273.062891,218.132864 272.19712,217.38693 C271.742223,216.994398 271.308114,216.660563 270.882565,216.620209 C270.765173,216.609203 270.637997,216.697248 270.504708,216.771841 C270.269922,216.905131 270.047365,217.07266 269.883504,217.185162 C269.788123,217.249972 269.640159,217.325788 269.489749,217.419947 C269.424939,217.459078 269.318552,217.552014 269.294095,217.574025 C269.284312,217.684081 269.372357,217.780685 269.450618,217.878513 C269.684181,218.175663 270.033914,218.409226 270.170872,218.483819 C270.586638,218.711267 271.073329,218.768741 271.533117,218.930156 C272.424568,219.243203 273.285448,219.800819 273.625398,221.784267 C273.866298,223.197872 273.642518,224.315549 273.324579,225.379421 C273.043326,226.322231 272.676474,227.216128 272.583538,228.281223 C272.474705,229.51507 273.171724,232.89378 273.94456,234.049365 C274.300407,234.582524 274.80544,235.030084 275.316588,235.473975 C275.897437,235.979008 276.486847,236.475482 276.940521,237.040435 C277.192426,237.355928 277.345281,237.803487 277.477348,238.275504 C277.336721,237.333916 276.962532,236.557412 276.593234,235.478866 C276.502744,235.214733 276.332769,234.444343 276.413476,234.114175 C276.495407,233.775448 276.713072,233.603028 276.969869,233.548 C277.282916,233.480744 277.63754,233.517429 278.012953,233.63849 C278.436056,233.775448 278.89829,234.023685 279.353187,234.262139 C279.66868,234.426 279.979281,234.586192 280.266649,234.671791 C280.41339,234.714591 280.545457,234.759836 280.656735,234.698694 C280.918423,234.554398 281.078616,234.264585 281.230248,233.942978 C281.436908,233.505201 281.599546,233.00139 281.786641,232.541602 C282.111916,231.745532 282.539911,231.088866 283.17212,230.830847 C283.662479,230.631524 284.332596,230.655981 284.966028,230.60829 C285.25951,230.586279 285.546877,230.558153 285.755983,230.380841 C285.961421,230.205975 286.054357,229.895373 286.065362,229.391563 C286.076368,228.947671 285.738864,228.743457 285.48329,228.535574 C284.591838,227.809206 283.84346,227.618443 282.981357,227.413006 C282.702549,227.346972 282.402953,227.145203 282.187733,226.840716 C281.893028,226.427396 281.760961,225.841655 281.982295,225.308496 C282.272109,224.607808 282.845621,224.200602 283.543864,224.034295 C284.434092,223.821521 285.5481,224.029404 286.36985,224.450061 C286.629092,224.583351 286.933579,224.814468 287.233175,225.023574 C287.419047,225.153195 287.589022,225.292599 287.741877,225.313387 C288.041474,225.356187 288.463354,225.00034 288.34107,224.40237 C288.238351,223.893669 287.848265,223.463228 287.406819,223.091485 C286.614418,222.422591 285.621471,221.955465 285.209373,221.718234 C284.244552,221.160618 283.453373,221.296354 282.684206,221.499345 C282.040992,221.66932 281.406337,221.880872 280.72766,221.926117 C279.920585,221.981145 278.755217,221.630189 277.756156,221.163064 C277.708465,221.150836 277.661997,221.132493 277.617975,221.108036 C277.617975,221.108036 277.367292,220.972301 277.379521,220.978415 C277.231557,220.902599 277.088485,220.824337 276.955195,220.747298 C276.823128,220.670259 276.730192,220.552866 276.683724,220.419577 Z"/>
    <line x1="231.055" x2="260.057" y1="187.88" y2="205.11" stroke="#5A6D83" stroke-linecap="round" stroke-linejoin="round"/>
    <line x1="231.055" x2="245.741" y1="196.309" y2="205.034" stroke="#5A6D83" stroke-linecap="round" stroke-linejoin="round"/>
    <line x1="231.055" x2="236.033" y1="204.773" y2="207.73" stroke="#5A6D83" stroke-linecap="round" stroke-linejoin="round"/>
    <line x1="231" x2="238.438" y1="213.327" y2="217.746" stroke="#5A6D83" stroke-linecap="round" stroke-linejoin="round"/>
    <line x1="241.293" x2="245.932" y1="210.856" y2="213.611" stroke="#5A6D83" stroke-linecap="round" stroke-linejoin="round"/>
    <line x1="243.376" x2="253.254" y1="220.681" y2="226.55" stroke="#5A6D83" stroke-linecap="round" stroke-linejoin="round"/>
    <path fill="#3F6C9F" fill-opacity=".1" d="M218.222131,358.305808 C219.365487,357.645352 220.966187,357.303445 222.673273,357.355416 C224.380359,357.407264 226.053206,357.848832 227.323738,358.582659 C241.085593,366.532106 280.629833,389.373801 294.391688,397.323248 C295.66222,398.057197 296.426496,399.023364 296.516986,400.009341 C296.606253,400.995318 296.014398,401.920275 294.871042,402.580731 C282.486106,409.734842 246.898981,430.291047 234.514045,437.445157 C233.369465,438.105614 231.768766,438.44752 230.06168,438.39555 C228.354593,438.343701 226.681747,437.902133 225.411214,437.168306 C211.649359,429.21886 172.10512,406.377164 158.343265,398.427718 C157.072733,397.693769 156.308457,396.727602 156.219189,395.741625 C156.128699,394.755648 156.720554,393.830691 157.863911,393.170234 C170.248847,386.016124 205.837195,365.459918 218.222131,358.305808 Z"/>
    <path fill="#FFF" fill-opacity=".9" d="M300.640407,191.350195 C300.640407,189.997733 301.361883,188.747989 302.532142,188.071758 C303.703624,187.396749 305.146577,187.396749 306.316836,188.071758 C322.993944,197.700409 371.516284,225.715702 385.124061,233.571234 C387.342295,234.852772 388.709432,237.220192 388.709432,239.782045 C388.709432,249.076861 388.709432,271.666407 388.709432,282.890866 C388.709432,284.243329 387.987955,285.493072 386.817696,286.169304 C385.646214,286.845535 384.203262,286.845535 383.033003,286.169304 C366.355894,276.540652 317.832331,248.525359 304.225777,240.669827 C302.00632,239.38829 300.640407,237.022092 300.640407,234.46024 C300.640407,225.164201 300.640407,202.575877 300.640407,191.350195 Z"/>
    <path stroke="#01050C" stroke-linecap="round" stroke-linejoin="round" stroke-opacity=".9" d="M300.640407,191.350195 C300.640407,189.997733 301.361883,188.747989 302.532142,188.071758 C303.703624,187.396749 305.146577,187.396749 306.316836,188.071758 C322.993944,197.700409 371.516284,225.715702 385.124061,233.571234 C387.342295,234.852772 388.709432,237.220192 388.709432,239.782045 C388.709432,249.076861 388.709432,271.666407 388.709432,282.890866 C388.709432,284.243329 387.987955,285.493072 386.817696,286.169304 C385.646214,286.845535 384.203262,286.845535 383.033003,286.169304 C366.355894,276.540652 317.832331,248.525359 304.225777,240.669827 C302.00632,239.38829 300.640407,237.022092 300.640407,234.46024 C300.640407,225.164201 300.640407,202.575877 300.640407,191.350195 Z"/>
    <path fill="#EFF4F7" d="M382.243047 252.487365C382.243047 250.347393 381.099691 248.368836 379.245864 247.300072 367.328053 240.427705 323.329003 215.053749 310.577214 207.700805 309.858184 207.286262 308.972847 207.286262 308.253816 207.700805 307.534786 208.116571 307.092117 208.883292 307.092117 209.713602 307.092117 215.522097 307.092117 226.15837 307.092117 231.613465 307.092117 233.735095 308.215908 235.698978 310.045279 236.775078 321.892164 243.741604 365.951134 269.649942 378.74083 277.170415 379.458638 277.593518 380.348866 277.598409 381.072788 277.185089 381.79671 276.770546 382.243047 276.001379 382.243047 275.167401 382.243047 269.184039 382.243047 258.105097 382.243047 252.487365zM329.48234 207.931922C328.110312 207.139521 326.996304 207.783958 326.996304 209.36876 326.996304 210.953563 328.110312 212.883206 329.48234 213.675607 330.854368 214.468008 331.969599 213.824794 331.969599 212.239992 331.969599 210.655189 330.854368 208.724323 329.48234 207.931922z"/>
    <path stroke="#01050C" stroke-linecap="round" stroke-linejoin="round" d="M329.48234,207.931922 C328.110312,207.139521 326.996304,207.783958 326.996304,209.36876 C326.996304,210.953563 328.110312,212.883206 329.48234,213.675607 C330.854368,214.468008 331.969599,213.824794 331.969599,212.239992 C331.969599,210.655189 330.854368,208.724323 329.48234,207.931922 Z"/>
    <path fill="#EFF4F7" d="M319.817003,202.352097 C318.444975,201.559696 317.330967,202.202911 317.330967,203.787713 C317.330967,205.372515 318.444975,207.303382 319.817003,208.095783 C321.190253,208.888184 322.304262,208.244969 322.304262,206.660167 C322.304262,205.075365 321.190253,203.144499 319.817003,202.352097 Z"/>
    <path stroke="#01050C" stroke-linecap="round" stroke-linejoin="round" d="M319.817003,202.352097 C318.444975,201.559696 317.330967,202.202911 317.330967,203.787713 C317.330967,205.372515 318.444975,207.303382 319.817003,208.095783 C321.190253,208.888184 322.304262,208.244969 322.304262,206.660167 C322.304262,205.075365 321.190253,203.144499 319.817003,202.352097 Z"/>
    <path fill="#EFF4F7" d="M310.152889,196.772273 C308.779638,195.979872 307.66563,196.623086 307.66563,198.207889 C307.66563,199.792691 308.779638,201.722334 310.152889,202.514735 C311.524916,203.307136 312.638925,202.663922 312.638925,201.07912 C312.638925,199.494318 311.524916,197.564674 310.152889,196.772273 Z"/>
    <path stroke="#01050C" stroke-linecap="round" stroke-linejoin="round" d="M310.152889,196.772273 C308.779638,195.979872 307.66563,196.623086 307.66563,198.207889 C307.66563,199.792691 308.779638,201.722334 310.152889,202.514735 C311.524916,203.307136 312.638925,202.663922 312.638925,201.07912 C312.638925,199.494318 311.524916,197.564674 310.152889,196.772273 Z"/>
    <path fill="#FFF" d="M317.76263,219.432744 C318.279891,218.691702 319.164006,218.295501 320.061571,218.404334 C320.959136,218.513167 321.723412,219.107468 322.049911,219.951228 C323.940423,224.843816 327.053777,232.899894 329.240217,238.556758 C329.614407,239.524025 329.336822,240.620914 328.549312,241.295922 C327.761802,241.969708 326.634343,242.074872 325.736777,241.556387 C321.017833,238.831897 314.701858,235.185384 311.354942,233.253295 C310.761864,232.9109 310.339983,232.334942 310.190797,231.666047 C310.04161,230.997153 310.181014,230.296465 310.572323,229.735181 C312.411476,227.099958 315.53339,222.628028 317.76263,219.432744 Z"/>
    <path stroke="#E01A33" stroke-linecap="round" stroke-linejoin="round" d="M317.76263,219.432744 C318.279891,218.691702 319.164006,218.295501 320.061571,218.404334 C320.959136,218.513167 321.723412,219.107468 322.049911,219.951228 C323.940423,224.843816 327.053777,232.899894 329.240217,238.556758 C329.614407,239.524025 329.336822,240.620914 328.549312,241.295922 C327.761802,241.969708 326.634343,242.074872 325.736777,241.556387 C321.017833,238.831897 314.701858,235.185384 311.354942,233.253295 C310.761864,232.9109 310.339983,232.334942 310.190797,231.666047 C310.04161,230.997153 310.181014,230.296465 310.572323,229.735181 C312.411476,227.099958 315.53339,222.628028 317.76263,219.432744 Z"/>
    <line x1="319.253" x2="319.253" y1="222.879" y2="229.571" stroke="#E01A33" stroke-linecap="round" stroke-linejoin="round"/>
    <path fill="#E01A33" d="M319.253273,231.708847 C319.867139,232.062248 320.364836,232.926797 320.364836,233.634822 C320.364836,234.34407 319.867139,234.63266 319.253273,234.278036 C318.639407,233.923412 318.140487,233.060086 318.140487,232.350838 C318.140487,231.641591 318.639407,231.354223 319.253273,231.708847 Z"/>
    <line x1="336.313" x2="364.66" y1="230.782" y2="247.148" stroke="#5A6D83" stroke-linecap="round" stroke-linejoin="round" stroke-width="2"/>
    <line x1="335.315" x2="360.732" y1="244.683" y2="259.357" stroke="#B1BBC9" stroke-linecap="round" stroke-linejoin="round"/>
    <line x1="335.427" x2="351.974" y1="237.493" y2="247.047" stroke="#B1BBC9" stroke-linecap="round" stroke-linejoin="round"/>
    <line x1="357.95" x2="376.002" y1="250.497" y2="260.919" stroke="#B1BBC9" stroke-linecap="round" stroke-linejoin="round"/>
    <path stroke="#EFF4F7" stroke-linecap="round" stroke-linejoin="round" d="M183.372379,322.228935 C182.721827,321.853033 181.838936,321.641849 180.919359,321.641849 C179.99856,321.641849 179.115669,321.853033 178.465117,322.228935 C171.41666,326.30014 151.165187,337.998451 144.11673,342.069778 C143.466178,342.44568 143.100549,342.955482 143.100549,343.486929 C143.100549,344.018498 143.466178,344.528301 144.11673,344.904202 C151.165187,348.975407 171.41666,360.67384 178.465117,364.745045 C179.115669,365.120947 179.99856,365.332131 180.919359,365.332131 C181.838936,365.332131 182.721827,365.120947 183.372379,364.745045 C190.420836,360.67384 210.672309,348.975407 217.720766,344.904202 C218.371318,344.528301 218.736947,344.018498 218.736947,343.486929 C218.736947,342.955482 218.371318,342.44568 217.720766,342.069778 C210.672309,337.998451 190.420836,326.30014 183.372379,322.228935 Z"/>
    <path fill="#3F6C9F" fill-opacity=".1" d="M182.54207,307.366033 C182.191114,307.163042 181.714206,307.05054 181.215287,307.051753 C180.716368,307.054209 180.235791,307.170379 179.881167,307.375816 C176.036554,309.596496 164.989407,315.977281 161.144794,318.198206 C160.788947,318.403154 160.588401,318.680372 160.58471,318.968596 C160.582287,319.256819 160.777942,319.53257 161.128897,319.735195 C164.928265,321.929706 175.844568,328.235531 179.643936,330.430164 C179.994891,330.632667 180.471799,330.745535 180.970719,330.743842 C181.469638,330.742111 181.948992,330.625941 182.304838,330.420993 C186.149451,328.200191 197.196599,321.818794 201.041212,319.597992 C201.395836,319.393044 201.597604,319.115826 201.600101,318.827602 C201.603719,318.539378 201.408064,318.263628 201.057109,318.061003 C197.257741,315.866003 186.341437,309.561033 182.54207,307.366033 Z"/>
    <path stroke="#EFF4F7" stroke-linecap="round" stroke-linejoin="round" d="M146.987961,406.365547 C146.737279,406.220763 146.388769,406.14458 146.018248,406.153629 C145.64895,406.1628 145.286989,406.256347 145.014295,406.413972 C142.058688,408.121058 133.567279,413.026119 130.611671,414.733205 C130.338978,414.890829 130.177563,415.099446 130.161666,415.313321 C130.145769,415.527074 130.277836,415.728475 130.528518,415.87326 C133.243226,417.441309 141.042507,421.946745 143.757214,423.514795 C144.007897,423.659457 144.356407,423.735762 144.726928,423.726591 C145.097448,423.717542 145.458187,423.623872 145.73088,423.46637 C148.686487,421.759284 157.177897,416.854223 160.133504,415.147137 C160.406198,414.989513 160.568836,414.780896 160.58351,414.567021 C160.599407,414.353268 160.46734,414.151866 160.216657,414.007082 C157.503173,412.439033 149.702669,407.933596 146.987961,406.365547 Z"/>
    <path fill="#3F6C9F" fill-opacity=".1" d="M114.131073 342.127007C113.350167 341.676023 112.276512 341.430966 111.146362 341.445762 110.016213 341.460681 108.922136 341.734353 108.104789 342.20637 99.2514189 347.320414 73.8124084 362.014808 64.9590379 367.12873 64.1416908 367.600869 63.6679621 368.232833 63.6421602 368.885708 63.6164805 369.538461 64.0406841 370.158686 64.8215905 370.60967 73.2801056 375.495654 97.5848086 389.534727 106.043324 394.420712 106.82423 394.871818 107.897885 395.116753 109.028035 395.101957 110.158184 395.087038 111.25226 394.813488 112.069608 394.341349 120.922978 389.227305 146.361866 374.532911 155.215237 369.418989 156.033318 368.94685 156.506557 368.314886 156.532237 367.662011 156.557916 367.009258 156.133591 366.389033 155.353418 365.938049 146.893802 361.052065 122.589833 347.012992 114.131073 342.127007zM192.302788 254.730056C190.984565 253.969448 189.359409 253.969448 188.041187 254.730056 173.623889 263.055159 90.3260231 311.147058 70.4706279 322.609972 69.5943398 323.115862 69.0545777 324.050724 69.0545777 325.062625 69.0545777 326.074404 69.5943398 327.009266 70.4706279 327.515155 70.6962421 327.645388 70.9186769 327.773908 71.1345084 327.898516 72.6195267 328.75585 74.4491418 328.75585 75.9341602 327.898516 91.0876086 319.149576 173.500382 271.568579 193.235816 260.174145 194.112593 259.667889 194.651866 258.733638 194.651866 257.722348 194.651866 256.709836 194.112593 255.775585 193.235816 255.269329 192.915432 255.083457 192.601162 254.902476 192.302788 254.730056zM279.787295 328.749247C278.46785 327.987906 276.843916 327.987906 275.524471 328.749247 271.265315 331.208625 261.628103 336.772552 256.028713 340.005255 255.153159 340.511145 254.612663 341.446007 254.612663 342.457786 254.612663 343.469687 255.153159 344.404549 256.028713 344.910438 263.033148 348.95413 276.779106 356.890736 282.321022 360.090056 283.805552 360.94739 285.634922 360.94739 287.120674 360.090056 291.505783 357.55853 300.862964 352.15565 306.347407 348.989348 307.224184 348.483458 307.763457 347.548474 307.763457 346.536695 307.763457 345.524916 307.224184 344.589932 306.347407 344.084042 299.226802 339.973339 285.138448 331.839366 279.787295 328.749247z"/>
    <path fill="#EFF4F7" d="M151.324156,33.340766 C151.450109,31.7865348 151.514919,30.2457549 151.514919,28.7257632 C151.514919,3.63795265 133.875435,-6.54709192 112.148236,5.99803621 C92.9118432,17.1038802 76.8794164,42.3262033 73.456317,65.3743148 C66.3769223,64.4204986 58.0400799,66.3232396 49.1192086,71.4738468 C23.4795298,86.2775627 2.66334819,122.331813 2.66334819,151.938022 C2.66334819,181.544231 23.4792852,193.562315 49.1192086,178.759822 C49.1192086,178.759822 49.1192086,178.759822 49.1192086,178.759822 C49.1192086,178.759822 168.418253,109.882067 168.418253,109.882067 C190.145696,97.3369387 207.786404,66.7842507 207.786404,41.6952173 C207.786404,16.6074067 190.145696,6.42236212 168.418253,18.9674903 C162.294265,22.5027242 156.495552,27.4699053 151.324156,33.340766 Z"/>
    <path stroke="#01050C" stroke-linecap="round" stroke-linejoin="round" d="M151.324156,33.340766 C151.450109,31.7865348 151.514919,30.2457549 151.514919,28.7257632 C151.514919,3.63795265 133.875435,-6.54709192 112.148236,5.99803621 C92.9118432,17.1038802 76.8794164,42.3262033 73.456317,65.3743148 C66.3769223,64.4204986 58.0400799,66.3232396 49.1192086,71.4738468 C23.4795298,86.2775627 2.66334819,122.331813 2.66334819,151.938022 C2.66334819,181.544231 23.4792852,193.562315 49.1192086,178.759822 C49.1192086,178.759822 49.1192086,178.759822 49.1192086,178.759822 C49.1192086,178.759822 168.418253,109.882067 168.418253,109.882067 C190.145696,97.3369387 207.786404,66.7842507 207.786404,41.6952173 C207.786404,16.6074067 190.145696,6.42236212 168.418253,18.9674903 C162.294265,22.5027242 156.495552,27.4699053 151.324156,33.340766 Z"/>
    <path fill="#EFF4F7" d="M29.5510588 207.567515C29.5711134 207.321724 29.5813852 207.077156 29.5813852 206.836256 29.5813852 202.858354 26.7845028 201.242981 23.3395145 203.232543 20.2895039 204.993435 17.7474616 208.992125 17.2046423 212.647198 16.0821964 212.495565 14.760305 212.797607 13.3459669 213.614465 9.2806312 215.961097 5.98006045 221.67788 5.98006045 226.372368 5.98006045 231.066855 9.28050891 232.972042 13.3458446 230.624187L32.2614864 219.704214C35.7064747 217.714652 38.5034794 212.870978 38.5034794 208.893075 38.5034794 204.915173 35.7064747 203.299799 32.2614864 205.289362 31.2905504 205.849423 30.3709738 206.636933 29.5510588 207.567515zM197.122006 108.012343C197.148908 107.684621 197.162359 107.359345 197.162359 107.038961 197.162359 101.750173 193.443699 99.6028635 188.862936 102.247869 184.806772 104.588387 181.426838 109.906524 180.705362 114.764872 179.213496 114.564326 177.45505 114.965418 175.57432 116.051301 170.169362 119.171992 165.780585 126.773173 165.780585 133.014554 165.780585 139.255936 170.169362 141.789663 175.57432 138.668972L200.725719 124.148955C205.306482 121.50395 209.025142 115.062022 209.025142 109.773234 209.025142 104.484446 205.306482 102.337136 200.725719 104.982142 199.434398 105.726852 198.211557 106.774827 197.122006 108.012343zM37.5561443 39.5540223C37.5881827 39.1602674 37.6045688 38.7714039 37.6045688 38.3874318 37.6045688 32.0494457 33.1481685 29.4765877 27.6592011 32.6461922 22.7995078 35.45139 18.7492131 41.8236156 17.8844198 47.6467855 16.0960145 47.404663 13.9897928 47.8864624 11.7362187 49.1875655 5.25882869 52.9270139 0 62.0347354 0 69.5148552 0 76.9937521 5.25870641 80.0300669 11.7362187 76.2906184L41.8748526 58.8895877C47.3638201 55.7212061 51.8202203 48.0026323 51.8202203 41.6646462 51.8202203 35.3266602 47.3638201 32.7538022 41.8748526 35.9221838 40.3277139 36.8160808 38.8626279 38.0707159 37.5561443 39.5540223z"/>
    <path fill="#FFF" d="M162.805412,39.4549721 C162.932588,37.8995181 162.997398,36.359961 162.997398,34.8399694 C162.997398,9.75093593 145.357914,-0.432885794 123.630471,12.1110195 C104.393589,23.2168635 88.3612841,48.4391866 84.9380624,71.4872981 C77.8586677,70.5334819 69.5218253,72.4374457 60.6010763,77.5868301 C34.9612752,92.390546 14.1450936,128.444797 14.1450936,158.051006 C14.1450936,187.657214 34.9610306,199.675298 60.6010763,184.872805 C60.6010763,184.872805 60.6010763,184.872805 60.6010763,184.872805 C60.6010763,184.872805 179.900733,115.99505 179.900733,115.99505 C201.628175,103.451145 219.26766,72.897234 219.26766,47.8094234 C219.26766,22.72039 201.628175,12.5365682 179.900733,25.0804735 C173.776744,28.6157075 167.976808,33.5828886 162.805412,39.4549721 Z"/>
    <path stroke="#01050C" stroke-linecap="round" stroke-linejoin="round" d="M162.805412,39.4549721 C162.932588,37.8995181 162.997398,36.359961 162.997398,34.8399694 C162.997398,9.75093593 145.357914,-0.432885794 123.630471,12.1110195 C104.393589,23.2168635 88.3612841,48.4391866 84.9380624,71.4872981 C77.8586677,70.5334819 69.5218253,72.4374457 60.6010763,77.5868301 C34.9612752,92.390546 14.1450936,128.444797 14.1450936,158.051006 C14.1450936,187.657214 34.9610306,199.675298 60.6010763,184.872805 C60.6010763,184.872805 60.6010763,184.872805 60.6010763,184.872805 C60.6010763,184.872805 179.900733,115.99505 179.900733,115.99505 C201.628175,103.451145 219.26766,72.897234 219.26766,47.8094234 C219.26766,22.72039 201.628175,12.5365682 179.900733,25.0804735 C173.776744,28.6157075 167.976808,33.5828886 162.805412,39.4549721 Z"/>
    <line x1="105.163" x2="120.338" y1="50.113" y2="41.352" stroke="#B1BBC9" stroke-linecap="round" stroke-linejoin="round" stroke-width="2"/>
    <line x1="128.415" x2="143.592" y1="49.685" y2="40.924" stroke="#B1BBC9" stroke-linecap="round" stroke-linejoin="round" stroke-width="2"/>
    <line x1="43.495" x2="64.643" y1="127.223" y2="115.013" stroke="#B1BBC9" stroke-linecap="round" stroke-linejoin="round" stroke-width="2"/>
    <line x1="56.48" x2="66.729" y1="154.774" y2="148.856" stroke="#B1BBC9" stroke-linecap="round" stroke-linejoin="round" stroke-width="2"/>
    <line x1="35.463" x2="51.421" y1="147.668" y2="138.454" stroke="#B1BBC9" stroke-linecap="round" stroke-linejoin="round" stroke-width="2"/>
    <line x1="72.638" x2="79.687" y1="110.398" y2="106.328" stroke="#B1BBC9" stroke-linecap="round" stroke-linejoin="round" stroke-width="2"/>
    <line x1="74.723" x2="81.773" y1="144.24" y2="140.171" stroke="#B1BBC9" stroke-linecap="round" stroke-linejoin="round" stroke-width="2"/>
    <line x1="61.538" x2="83.338" y1="132.613" y2="120.027" stroke="#B1BBC9" stroke-linecap="round" stroke-linejoin="round" stroke-width="2"/>
    <line x1="100.168" x2="121.317" y1="93.102" y2="80.891" stroke="#B1BBC9" stroke-linecap="round" stroke-linejoin="round" stroke-width="2"/>
    <line x1="113.153" x2="123.402" y1="120.652" y2="114.734" stroke="#B1BBC9" stroke-linecap="round" stroke-linejoin="round" stroke-width="2"/>
    <line x1="92.136" x2="108.095" y1="113.546" y2="104.332" stroke="#B1BBC9" stroke-linecap="round" stroke-linejoin="round" stroke-width="2"/>
    <line x1="129.311" x2="136.36" y1="76.276" y2="72.206" stroke="#B1BBC9" stroke-linecap="round" stroke-linejoin="round" stroke-width="2"/>
    <line x1="131.397" x2="138.446" y1="110.118" y2="106.048" stroke="#B1BBC9" stroke-linecap="round" stroke-linejoin="round" stroke-width="2"/>
    <line x1="118.212" x2="140.01" y1="98.491" y2="85.905" stroke="#B1BBC9" stroke-linecap="round" stroke-linejoin="round" stroke-width="2"/>
    <line x1="151.519" x2="173.317" y1="98.046" y2="85.459" stroke="#B1BBC9" stroke-linecap="round" stroke-linejoin="round" stroke-width="2"/>
    <line x1="149.98" x2="160.097" y1="66.576" y2="60.736" stroke="#B1BBC9" stroke-linecap="round" stroke-linejoin="round" stroke-width="2"/>
    <line x1="128.061" x2="133.118" y1="36.83" y2="33.908" stroke="#B1BBC9" stroke-linecap="round" stroke-linejoin="round" stroke-width="2"/>
    <line x1="172.955" x2="189.697" y1="53.312" y2="43.647" stroke="#B1BBC9" stroke-linecap="round" stroke-linejoin="round" stroke-width="2"/>
    <line x1="161.092" x2="177.833" y1="76.676" y2="67.01" stroke="#B1BBC9" stroke-linecap="round" stroke-linejoin="round" stroke-width="2"/>
    <path fill="#EFF4F7" d="M321.879936,95.4977855 C321.813903,94.700493 321.780886,93.9105376 321.780886,93.1315877 C321.780886,80.2685209 330.825019,75.0469889 341.965103,81.4779109 C351.827318,87.1726825 360.047256,100.104228 361.802033,111.920543 C365.432649,111.431407 369.706479,112.407234 374.279905,115.048571 C387.425448,122.637524 398.098407,141.123214 398.098407,156.302343 C398.098407,171.481471 387.425448,177.643368 374.279905,170.053192 L313.11461,134.739983 C301.975749,128.309061 292.931616,112.643242 292.931616,99.7813983 C292.931616,86.9183315 301.975749,81.6967994 313.11461,88.1277214 C316.254866,89.9399721 319.227593,92.4871504 321.879936,95.4977855 Z"/>
    <path stroke="#01050C" stroke-linecap="round" stroke-linejoin="round" d="M321.879936,95.4977855 C321.813903,94.700493 321.780886,93.9105376 321.780886,93.1315877 C321.780886,80.2685209 330.825019,75.0469889 341.965103,81.4779109 C351.827318,87.1726825 360.047256,100.104228 361.802033,111.920543 C365.432649,111.431407 369.706479,112.407234 374.279905,115.048571 C387.425448,122.637524 398.098407,141.123214 398.098407,156.302343 C398.098407,171.481471 387.425448,177.643368 374.279905,170.053192 L313.11461,134.739983 C301.975749,128.309061 292.931616,112.643242 292.931616,99.7813983 C292.931616,86.9183315 301.975749,81.6967994 313.11461,88.1277214 C316.254866,89.9399721 319.227593,92.4871504 321.879936,95.4977855 Z"/>
    <path fill="#FFF" d="M315.993178,98.6319276 C315.927145,97.8346351 315.894128,97.0446797 315.894128,96.2657298 C315.894128,83.402663 324.938262,78.1811309 336.078345,84.6120529 C345.94056,90.3068245 354.160499,103.23837 355.915276,115.055908 C359.545891,114.565549 363.819721,115.541376 368.393148,118.182713 C381.538691,125.771666 392.211649,144.257357 392.211649,159.436485 C392.211649,174.615613 381.538691,180.77751 368.393148,173.188557 L307.227852,137.874125 C296.088992,131.443203 287.044858,115.778607 287.044858,102.91554 C287.044858,90.0524735 296.088992,84.8309415 307.227852,91.2618635 C310.368109,93.075337 313.340836,95.6212925 315.993178,98.6319276 Z"/>
    <path stroke="#01050C" stroke-linecap="round" stroke-linejoin="round" d="M315.993178,98.6319276 C315.927145,97.8346351 315.894128,97.0446797 315.894128,96.2657298 C315.894128,83.402663 324.938262,78.1811309 336.078345,84.6120529 C345.94056,90.3068245 354.160499,103.23837 355.915276,115.055908 C359.545891,114.565549 363.819721,115.541376 368.393148,118.182713 C381.538691,125.771666 392.211649,144.257357 392.211649,159.436485 C392.211649,174.615613 381.538691,180.77751 368.393148,173.188557 L307.227852,137.874125 C296.088992,131.443203 287.044858,115.778607 287.044858,102.91554 C287.044858,90.0524735 296.088992,84.8309415 307.227852,91.2618635 C310.368109,93.075337 313.340836,95.6212925 315.993178,98.6319276 Z"/>
    <line x1="333.624" x2="325.844" y1="103.877" y2="99.385" stroke="#B1BBC9" stroke-linecap="round" stroke-linejoin="round" stroke-width="2"/>
    <line x1="377.163" x2="366.32" y1="143.631" y2="137.372" stroke="#B1BBC9" stroke-linecap="round" stroke-linejoin="round" stroke-width="2"/>
    <line x1="370.506" x2="365.252" y1="157.756" y2="154.722" stroke="#B1BBC9" stroke-linecap="round" stroke-linejoin="round" stroke-width="2"/>
    <line x1="381.282" x2="373.1" y1="154.113" y2="149.39" stroke="#B1BBC9" stroke-linecap="round" stroke-linejoin="round" stroke-width="2"/>
    <line x1="362.223" x2="358.608" y1="135.005" y2="132.918" stroke="#B1BBC9" stroke-linecap="round" stroke-linejoin="round" stroke-width="2"/>
    <line x1="361.153" x2="357.539" y1="152.356" y2="150.269" stroke="#B1BBC9" stroke-linecap="round" stroke-linejoin="round" stroke-width="2"/>
    <line x1="367.913" x2="356.736" y1="146.395" y2="139.942" stroke="#B1BBC9" stroke-linecap="round" stroke-linejoin="round" stroke-width="2"/>
    <line x1="348.107" x2="337.265" y1="126.137" y2="119.876" stroke="#B1BBC9" stroke-linecap="round" stroke-linejoin="round" stroke-width="2"/>
    <line x1="341.45" x2="336.195" y1="140.261" y2="137.227" stroke="#B1BBC9" stroke-linecap="round" stroke-linejoin="round" stroke-width="2"/>
    <line x1="352.225" x2="344.044" y1="136.618" y2="131.894" stroke="#B1BBC9" stroke-linecap="round" stroke-linejoin="round" stroke-width="2"/>
    <line x1="333.166" x2="329.551" y1="117.51" y2="115.424" stroke="#B1BBC9" stroke-linecap="round" stroke-linejoin="round" stroke-width="2"/>
    <line x1="332.097" x2="328.482" y1="134.861" y2="132.775" stroke="#B1BBC9" stroke-linecap="round" stroke-linejoin="round" stroke-width="2"/>
    <line x1="338.857" x2="327.68" y1="128.9" y2="122.447" stroke="#B1BBC9" stroke-linecap="round" stroke-linejoin="round" stroke-width="2"/>
    <line x1="321.78" x2="310.603" y1="128.672" y2="122.219" stroke="#B1BBC9" stroke-linecap="round" stroke-linejoin="round" stroke-width="2"/>
    <line x1="322.568" x2="317.381" y1="112.537" y2="109.542" stroke="#B1BBC9" stroke-linecap="round" stroke-linejoin="round" stroke-width="2"/>
    <line x1="310.789" x2="302.206" y1="105.737" y2="100.78" stroke="#B1BBC9" stroke-linecap="round" stroke-linejoin="round" stroke-width="2"/>
    <line x1="316.871" x2="308.288" y1="117.716" y2="112.759" stroke="#B1BBC9" stroke-linecap="round" stroke-linejoin="round" stroke-width="2"/>
    <path fill="#FFF" d="M108.920791,254.293501 C103.283371,254.293501 98.7063986,258.870596 98.7063986,264.507894 C98.7063986,270.145192 103.283371,274.722287 108.920791,274.722287 C114.558334,274.722287 119.135306,270.145192 119.135306,264.507894 C119.135306,258.870596 114.558334,254.293501 108.920791,254.293501 Z"/>
    <g transform="translate(97.827 254.064)">
      <mask id="cloud-monitoring@1x-d" fill="#fff">
        <use xlink:href="#cloud-monitoring@1x-c"/>
      </mask>
      <path fill="#EFF4F7" d="M3.81758802,2.95927577 C2.0401883,4.83633705 0.939875766,7.42998329 0.939875766,10.2938774 C0.939875766,16.0143287 5.32999805,20.6586797 10.7372797,20.6586797 C11.8684078,20.6586797 12.9550245,20.455688 13.9661919,20.0814986 C7.94651142,18.7950696 3.40830306,13.162663 3.40830306,6.41747075 C3.40830306,5.22397772 3.55027493,4.06472423 3.81758802,2.95927577 Z" mask="url(#cloud-monitoring@1x-d)"/>
    </g>
    <path stroke="#01050C" stroke-linecap="round" stroke-linejoin="round" d="M108.920791,254.293501 C103.283371,254.293501 98.7063986,258.870596 98.7063986,264.507894 C98.7063986,270.145192 103.283371,274.722287 108.920791,274.722287 C114.558334,274.722287 119.135306,270.145192 119.135306,264.507894 C119.135306,258.870596 114.558334,254.293501 108.920791,254.293501 Z"/>
    <path fill="#EFF4F7" d="M140.676877,281.687591 C136.632942,280.269095 132.548652,278.5669 128.401997,276.490515 L113.712617,291.049663 L125.878053,297.074602 L140.676877,281.687591 Z"/>
    <path stroke="#01050C" stroke-linecap="round" stroke-linejoin="round" d="M140.676877,281.687591 C136.632942,280.269095 132.548652,278.5669 128.401997,276.490515 L113.712617,291.049663 L125.878053,297.074602 L140.676877,281.687591 Z"/>
    <path stroke="#B1BBC9" stroke-linecap="round" stroke-linejoin="round" d="M133.917011 284.211535C131.931117 283.734627 129.594267 282.568036 127.870061 281.397777M131.893209 286.698794C131.335593 286.555721 130.762081 286.393084 129.931772 285.912507M127.870061 284.988039C127.016518 284.648089 126.375749 284.134496 125.705632 283.645359M129.781362 289.402496C128.041259 288.923142 124.646652 286.849203 123.795554 286.054357"/>
    <path fill="#FFF" d="M129.833944,289.779131 L123.321092,297.359524 C123.189025,297.513602 122.988479,297.593086 122.78671,297.571075 C122.584942,297.549064 122.406407,297.429226 122.311025,297.249468 C121.08904,294.971315 117.514186,288.30683 115.356972,284.284905 C114.265708,282.25132 112.378864,280.760677 110.146812,280.171267 C107.081638,279.360524 102.504788,278.151134 98.5071978,277.094599 C96.616563,276.594457 94.6009538,277.053022 93.1128783,278.322331 C91.6246805,279.590418 90.85319,281.509056 91.0478663,283.454596 C92.1785053,294.754872 94.0276858,313.238117 94.0276858,313.238117 L95.4030153,343.429578 L94.0050632,367.248691 C93.9810955,367.451438 93.9687448,367.657731 93.9687448,367.866714 C93.9687448,370.753965 96.3129315,373.098029 99.2001819,373.098029 C101.919292,373.098029 104.156724,371.018832 104.407896,368.364778 L104.431497,368.366001 L106.429986,344.023267 L105.484974,323.633123 C105.484974,323.633123 109.164137,345.056323 109.164137,345.056323 L111.213619,368.519712 L111.227926,368.5191 C111.42676,371.22537 113.688282,373.362163 116.444933,373.362163 C119.332184,373.362163 121.676248,371.018099 121.676248,368.130848 C121.676248,367.942164 121.666221,367.755803 121.646655,367.572254 L120.346164,343.052576 L116.942263,315.12863 L115.656201,301.199245 C115.656201,301.199245 117.314007,303.161905 118.927546,305.071983 C119.694267,305.979331 120.812433,306.516159 122.000179,306.54673 C123.187802,306.577301 124.332382,306.097947 125.144348,305.230953 L135.291485,294.392911 C135.390535,294.298752 135.483471,294.199702 135.570292,294.094538 L135.575184,294.089646 C136.094891,293.465997 136.406716,292.665036 136.406716,291.790705 C136.406716,289.807256 134.796234,288.196774 132.812786,288.196774 C131.574047,288.196774 130.480827,288.824092 129.833944,289.779131 Z"/>
    <g transform="translate(90.49 276.075)">
      <mask id="cloud-monitoring@1x-f" fill="#fff">
        <use xlink:href="#cloud-monitoring@1x-e"/>
      </mask>
      <path fill="#EFF4F7" d="M16.1044521 47.6036192C16.1044521 47.6036192 18.2158097 56.6729435 18.5094139 57.9341819 18.5319142 58.0307864 18.5530694 58.1276354 18.5728794 58.2248513 18.8969323 59.8083084 21.7574025 73.7888075 22.0781538 75.3561231 22.0975969 75.4512602 22.1155727 75.5466418 22.1319588 75.6423903 22.3861875 77.1222727 24.5205345 89.5457281 24.5205345 89.5457281 24.5205345 89.5457281 24.5207791 89.5468287 24.5212682 89.5490298 24.7797769 90.8516003 25.6895708 91.9297794 26.9298986 92.4041195 28.1702265 92.8783373 29.5672003 92.681949 30.628871 91.8842897 30.7650955 91.7819379 30.8428682 91.7234861 30.8428682 91.7234861L31.6630279 97.0029808 16.4089396 97.6836142 15.060268 82.365449C16.1289089 66.6662465 13.2110875 51.1170866 16.1044521 47.6036192zM8.92148273 42.9570671L9.09047939 54.817771C9.09047939 54.817771 8.95009721 72.6675844 8.9371351 74.3042351 8.93652368 74.3842089 8.9348117 74.4640604 8.93212145 74.543912 8.88296323 75.9939571 8.40324262 90.1247435 8.40324262 90.1247435 8.40324262 90.1247435 8.39957409 90.4129671 8.39382674 90.8705543 8.37792981 92.1180969 9.02750306 93.2796738 10.098712 93.9194643 11.1697986 94.5592549 12.5004944 94.58041 13.5915134 93.9749813 13.5933476 93.9740031 13.5942036 93.9735139 13.5942036 93.9735139L13.3168632 99.8539128-.336892758 96.9588362 1.38181058 80.1425682C3.07141031 72.9916373-.336892758-6.14110864-.336892758-6.14110864L10.3474379 2.33073538C10.3474379 2.33073538 9.28038663 3.42517827 8.15402758 4.57954039 6.50991755 6.26583844 5.6892688 8.58923677 5.90986936 10.9346462 6.76867075 20.0656017 8.92148273 42.9570671 8.92148273 42.9570671z" mask="url(#cloud-monitoring@1x-f)"/>
    </g>
    <path stroke="#01050C" stroke-linecap="round" stroke-linejoin="round" d="M129.833944,289.779131 L123.321092,297.359524 C123.189025,297.513602 122.988479,297.593086 122.78671,297.571075 C122.584942,297.549064 122.406407,297.429226 122.311025,297.249468 C121.08904,294.971315 117.514186,288.30683 115.356972,284.284905 C114.265708,282.25132 112.378864,280.760677 110.146812,280.171267 C107.081638,279.360524 102.504788,278.151134 98.5071978,277.094599 C96.616563,276.594457 94.6009538,277.053022 93.1128783,278.322331 C91.6246805,279.590418 90.85319,281.509056 91.0478663,283.454596 C92.1785053,294.754872 94.0276858,313.238117 94.0276858,313.238117 L95.4030153,343.429578 L94.0050632,367.248691 C93.9810955,367.451438 93.9687448,367.657731 93.9687448,367.866714 C93.9687448,370.753965 96.3129315,373.098029 99.2001819,373.098029 C101.919292,373.098029 104.156724,371.018832 104.407896,368.364778 L104.431497,368.366001 L106.429986,344.023267 L105.484974,323.633123 C105.484974,323.633123 109.164137,345.056323 109.164137,345.056323 L111.213619,368.519712 L111.227926,368.5191 C111.42676,371.22537 113.688282,373.362163 116.444933,373.362163 C119.332184,373.362163 121.676248,371.018099 121.676248,368.130848 C121.676248,367.942164 121.666221,367.755803 121.646655,367.572254 L120.346164,343.052576 L116.942263,315.12863 L115.656201,301.199245 C115.656201,301.199245 117.314007,303.161905 118.927546,305.071983 C119.694267,305.979331 120.812433,306.516159 122.000179,306.54673 C123.187802,306.577301 124.332382,306.097947 125.144348,305.230953 L135.291485,294.392911 C135.390535,294.298752 135.483471,294.199702 135.570292,294.094538 L135.575184,294.089646 C136.094891,293.465997 136.406716,292.665036 136.406716,291.790705 C136.406716,289.807256 134.796234,288.196774 132.812786,288.196774 C131.574047,288.196774 130.480827,288.824092 129.833944,289.779131 Z"/>
    <line x1="103.848" x2="105.485" y1="321.743" y2="323.633" stroke="#01050C" stroke-linecap="round" stroke-linejoin="round"/>
    <polyline stroke="#01050C" stroke-linecap="round" stroke-linejoin="round" points="116.126 301.95 112.126 295.706 109.811 293.302"/>
    <path fill="#FFF" d="M272.035705,287.201382 C272.621446,286.770942 273.344145,286.516591 274.124318,286.516591 C276.073526,286.516591 277.655883,288.098947 277.655883,290.048156 C277.655883,291.071674 277.219329,291.994919 276.521086,292.640579 L276.536983,292.658922 C276.536983,292.658922 268.573841,301.695719 265.14744,305.584354 C264.186287,306.675128 262.74578,307.215624 261.305273,307.024861 C259.417206,306.775401 256.717173,306.419554 254.578423,306.137078 C253.696755,306.019685 252.807749,306.276482 252.124181,306.84388 C251.440613,307.411279 251.024847,308.239142 250.975933,309.125702 C250.580955,316.450521 249.69195,332.921703 249.69195,332.921703 L252.103393,359.560932 L253.058432,385.26799 C253.060877,385.322528 253.063323,385.377312 253.064546,385.43234 L253.064546,385.433807 C253.065769,385.470492 253.065769,385.507177 253.065769,385.543863 C253.065769,388.380121 250.763159,390.682853 247.926167,390.682853 C245.090398,390.682853 242.787788,388.380121 242.787788,385.543863 C242.787788,385.482965 242.789011,385.42219 242.791457,385.361782 L242.787788,385.361782 L241.652992,360.953382 L239.240326,345.636562 L237.63229,384.420316 L237.63229,384.442694 C237.63229,387.27883 235.32968,389.581562 232.493911,389.581562 C229.658142,389.581562 227.355532,387.27883 227.355532,384.442694 C227.355532,384.420072 227.355532,384.397571 227.355532,384.375071 L227.350641,384.374949 L227.357978,384.259268 C227.361646,384.168044 227.366538,384.077431 227.375097,383.98743 L228.789925,360.953382 L227.711379,331.061762 L226.536228,319.552991 L225.227788,325.818585 L225.449123,340.066764 L225.443008,340.066764 C225.45646,340.194062 225.463797,340.323439 225.463797,340.454405 C225.463797,342.403247 223.88144,343.985481 221.932231,343.985481 C219.984245,343.985481 218.401889,342.403247 218.401889,340.454405 C218.401889,340.323439 218.409226,340.194062 218.422677,340.066764 L218.387214,340.066764 C218.387214,340.066764 218.141423,327.543892 218.103515,325.604099 C218.099847,325.437059 218.10963,325.269896 218.131641,325.104201 C218.333409,323.610745 219.402173,315.689914 220.258162,309.349482 C220.925833,304.401866 224.627373,300.404398 229.510178,299.360092 C235.250195,298.132359 241.782613,296.735875 245.31907,295.980159 C247.035939,295.612084 248.81395,295.631649 250.522259,296.033964 C252.711145,296.551226 255.825721,297.286153 258.014607,297.802192 C259.629981,298.183719 261.328507,297.708033 262.51344,296.543889 C265.608451,293.500237 271.39249,287.811579 271.39249,287.811579 C271.544123,287.62693 271.712875,287.458178 271.898747,287.307769 L272.022253,287.184262 L272.035705,287.201382 Z"/>
    <g transform="translate(217.666 285.857)">
      <mask id="cloud-monitoring@1x-h" fill="#fff">
        <use xlink:href="#cloud-monitoring@1x-g"/>
      </mask>
      <path fill="#EFF4F7" d="M43.3900752 9.8536546C43.3900752 9.8536546 39.4207326 11.8383259 35.7571003 13.6701421 32.0078691 15.5447577 29.5401755 19.2744234 29.2833788 23.4589861 28.8676128 30.2115153 28.2659749 39.984707 28.0911086 42.8380847 28.0580919 43.3776022 28.0642061 43.9188318 28.1094513 44.457371 28.5068747 49.1132167 30.4903231 72.3685997 30.6933148 74.750939 30.7043203 74.8822721 30.7128802 75.0139721 30.7189944 75.1456721 30.8082618 77.2866226 31.5994401 96.0957549 31.5994401 96.0957549 31.5994401 96.0957549 31.5921031 96.1756064 31.577429 96.3201462 31.3940028 98.1601554 30.260429 99.7696591 28.5900279 100.561938 26.9196267 101.354339 24.9557437 101.21359 23.4149638 100.191172 23.4137409 100.190072 23.4125181 100.18946 23.4125181 100.18946L22.9380557 107.981772 43.3900752 106.728604 48.729 83.9573437 70.6190808-11.8750111 52.8316323-9.06247632C52.8316323-9.06247632 53.9603148-8.49752368 55.321337-7.81762396 56.3815404-7.2881337 57.1127994-6.27195265 57.2791058-5.09802507 57.4466351-3.92532033 57.0259777-2.74527855 56.1565376-1.94064903 51.2529443 2.58875487 43.3900752 9.8536546 43.3900752 9.8536546zM20.7675125 58.2098103L19.0469749 60.1568181 18.1579694 74.9969747C18.1579694 74.9969747 17.436493 86.76621 16.913117 95.3271992 16.8030613 97.1281997 15.7391894 98.7335457 14.1238162 99.5376861 12.5084429 100.341704 10.5861365 100.222477 9.08326462 99.224761 9.08081894 99.2234159 9.0795961 99.2226822 9.0795961 99.2226822L8.6051337 107.014993 22.8292228 104.339172C22.6140028 88.613434 24.3663343 71.4320256 20.7675125 58.2098103zM8.46572981 25.6136323C8.46572981 25.6136323 6.01637883 36.8788125 5.52235097 39.1536641 5.46487744 39.4175532 5.4428663 39.6879234 5.45754039 39.9574376 5.53335655 41.3728763 5.79259889 46.2203412 6.00781894 50.2511928 6.07874373 51.5752852 5.4844429 52.8472847 4.42301671 53.6422538 3.36159053 54.4372228 1.97366574 54.6501195.722699164 54.2097744.722699164 54.2095298.721476323 54.2092852.721476323 54.2092852L4.00602786 62.2229306 9.74604457 60.2145362 9.74604457 40.1020997 8.46572981 25.6136323z" mask="url(#cloud-monitoring@1x-h)"/>
    </g>
    <path stroke="#01050C" stroke-linecap="round" stroke-linejoin="round" d="M272.035705,287.201382 C272.621446,286.770942 273.344145,286.516591 274.124318,286.516591 C276.073526,286.516591 277.655883,288.098947 277.655883,290.048156 C277.655883,291.071674 277.219329,291.994919 276.521086,292.640579 L276.536983,292.658922 C276.536983,292.658922 268.573841,301.695719 265.14744,305.584354 C264.186287,306.675128 262.74578,307.215624 261.305273,307.024861 C259.417206,306.775401 256.717173,306.419554 254.578423,306.137078 C253.696755,306.019685 252.807749,306.276482 252.124181,306.84388 C251.440613,307.411279 251.024847,308.239142 250.975933,309.125702 C250.580955,316.450521 249.69195,332.921703 249.69195,332.921703 L252.103393,359.560932 L253.058432,385.26799 C253.060877,385.322528 253.063323,385.377312 253.064546,385.43234 L253.064546,385.433807 C253.065769,385.470492 253.065769,385.507177 253.065769,385.543863 C253.065769,388.380121 250.763159,390.682853 247.926167,390.682853 C245.090398,390.682853 242.787788,388.380121 242.787788,385.543863 C242.787788,385.482965 242.789011,385.42219 242.791457,385.361782 L242.787788,385.361782 L241.652992,360.953382 L239.240326,345.636562 L237.63229,384.420316 L237.63229,384.442694 C237.63229,387.27883 235.32968,389.581562 232.493911,389.581562 C229.658142,389.581562 227.355532,387.27883 227.355532,384.442694 C227.355532,384.420072 227.355532,384.397571 227.355532,384.375071 L227.350641,384.374949 L227.357978,384.259268 C227.361646,384.168044 227.366538,384.077431 227.375097,383.98743 L228.789925,360.953382 L227.711379,331.061762 L226.536228,319.552991 L225.227788,325.818585 L225.449123,340.066764 L225.443008,340.066764 C225.45646,340.194062 225.463797,340.323439 225.463797,340.454405 C225.463797,342.403247 223.88144,343.985481 221.932231,343.985481 C219.984245,343.985481 218.401889,342.403247 218.401889,340.454405 C218.401889,340.323439 218.409226,340.194062 218.422677,340.066764 L218.387214,340.066764 C218.387214,340.066764 218.141423,327.543892 218.103515,325.604099 C218.099847,325.437059 218.10963,325.269896 218.131641,325.104201 C218.333409,323.610745 219.402173,315.689914 220.258162,309.349482 C220.925833,304.401866 224.627373,300.404398 229.510178,299.360092 C235.250195,298.132359 241.782613,296.735875 245.31907,295.980159 C247.035939,295.612084 248.81395,295.631649 250.522259,296.033964 C252.711145,296.551226 255.825721,297.286153 258.014607,297.802192 C259.629981,298.183719 261.328507,297.708033 262.51344,296.543889 C265.608451,293.500237 271.39249,287.811579 271.39249,287.811579 C271.544123,287.62693 271.712875,287.458178 271.898747,287.307769 L272.022253,287.184262 L272.035705,287.201382 Z"/>
    <polyline stroke="#01050C" stroke-linecap="round" stroke-linejoin="round" points="225.387 310.569 226.392 312.377 226.551 319.947"/>
    <line x1="238.634" x2="239.277" y1="344.267" y2="345.761" stroke="#01050C" stroke-linecap="round" stroke-linejoin="round"/>
    <path fill="#FFF" d="M235.344354,273.15705 C240.882602,273.15705 245.378989,277.653437 245.378989,283.191685 C245.378989,288.72871 240.882602,293.225097 235.344354,293.225097 C229.807329,293.225097 225.310942,288.72871 225.310942,283.191685 C225.310942,277.653437 229.807329,273.15705 235.344354,273.15705 Z"/>
    <g transform="translate(225.003 272.406)">
      <mask id="cloud-monitoring@1x-j" fill="#fff">
        <use xlink:href="#cloud-monitoring@1x-i"/>
      </mask>
      <path fill="#EFF4F7" d="M9.94659053,0.0171197772 L10.1336852,0.00733704735 C15.7868802,0.00733704735 20.3762033,4.59666017 20.3762033,10.2498552 C20.3762033,15.9030501 15.7868802,20.4923733 10.1336852,20.4923733 C8.94752925,20.4923733 7.80784123,20.2893816 6.75008357,19.9066323 C12.3176797,19.8149192 16.805507,15.264727 16.805507,9.67389694 C16.805507,5.20808078 13.94039,1.40504457 9.94659053,0.0171197772 Z" mask="url(#cloud-monitoring@1x-j)"/>
    </g>
    <path stroke="#01050C" stroke-linecap="round" stroke-linejoin="round" d="M235.344354,273.15705 C240.882602,273.15705 245.378989,277.653437 245.378989,283.191685 C245.378989,288.72871 240.882602,293.225097 235.344354,293.225097 C229.807329,293.225097 225.310942,288.72871 225.310942,283.191685 C225.310942,277.653437 229.807329,273.15705 235.344354,273.15705 Z"/>
    <path stroke="#E01A33" stroke-dasharray="0 6 0 0" stroke-linecap="round" stroke-linejoin="round" stroke-width="2" d="M130.310852,159.825348 C130.310852,159.825348 130.310852,197.635599 130.310852,214.047351 C130.310852,215.585685 131.131379,217.006627 132.463053,217.775794 C133.794727,218.543738 135.434557,218.543738 136.766231,217.775794 C148.625345,210.929106 172.671295,197.046189 172.671295,197.046189 L210.795816,219.057331"/>
    <line x1="334.889" x2="334.889" y1="164.444" y2="197.483" stroke="#E01A33" stroke-dasharray="0 6 0 0" stroke-linecap="round" stroke-linejoin="round" stroke-width="2"/>
    <path fill="#EFF4F7" d="M412.581738,199.551791 C412.554836,199.222847 412.540162,198.896348 412.540162,198.574741 C412.540162,193.266387 416.273496,191.111741 420.870156,193.766529 C424.939772,196.115607 428.333156,201.453309 429.057078,206.33 C430.555058,206.127008 432.318396,206.530546 434.206462,207.620097 C439.630986,210.751794 444.03566,218.3811 444.03566,224.644493 C444.03566,230.909109 439.630986,233.451396 434.206462,230.319699 L408.964574,215.7471 C404.366691,213.092312 400.634579,206.62715 400.634579,201.318797 C400.634579,196.011666 404.366691,193.855797 408.964574,196.510585 C410.259563,197.258964 411.487295,198.309384 412.581738,199.551791 Z"/>
  </g>
</svg>
