<svg xmlns="http://www.w3.org/2000/svg" xmlns:xlink="http://www.w3.org/1999/xlink" width="335" height="335" viewBox="0 0 335 335">
  <defs>
    <path id="compromise-of-trusted-hosts@1x-a" d="M0.7722,26.334 C0.7722,25.714 1.1988,25.119 1.9583,24.68 C10.185,19.928 33.822,6.275 42.048,1.523 C42.808,1.084 43.838,0.838 44.912,0.838 C45.986,0.838 47.016,1.084 47.775,1.523 C56.002,6.275 79.639,19.928 87.865,24.68 C88.625,25.119 89.051,25.714 89.051,26.334 L89.051,111.2305 C89.051,111.8509 88.625,112.4459 87.865,112.8846 C79.639,117.6364 56.002,131.29 47.775,136.0417 C47.016,136.4804 45.986,136.7269 44.912,136.7269 C43.838,136.7269 42.808,136.4804 42.048,136.0417 C33.822,131.29 10.185,117.6364 1.9583,112.8846 C1.199,112.446 0.7722,111.8512 0.7722,111.2305 L0.7722,26.334 Z"/>
    <path id="compromise-of-trusted-hosts@1x-c" d="M29.6219,18.4744 C29.6219,17.2141 28.9495,16.0495 27.8581,15.4194 C22.6221,12.3964 7.217,3.502 2.1208,0.56 C1.7787,0.362 1.3574,0.362 1.0154,0.56 C0.6734,0.757 0.4627,1.122 0.4627,1.517 C0.4627,3.691 0.4627,7.2205 0.4627,9.4323 C0.4627,10.6755 1.1259,11.8242 2.2025,12.4458 C7.3543,15.4202 22.5005,24.1648 27.7809,27.2134 C28.1606,27.4327 28.6285,27.4327 29.0082,27.2134 C29.3879,26.9942 29.6219,26.589 29.6219,26.1505 L29.6219,18.4744 Z"/>
  </defs>
  <g fill="none" fill-rule="evenodd">
    <g opacity=".1" transform="translate(34 186)">
      <path fill="#3F6C9F" d="M26.3734,0.4377 C26.8587,0.1574 27.5168,-4.61852778e-14 28.2031,-4.61852778e-14 C28.8893,-4.61852778e-14 29.5475,0.1574 30.0328,0.4377 C35.289,3.4739 50.3921,12.1979 55.6483,15.2341 C56.1336,15.5144 56.4062,15.8945 56.4062,16.2909 C56.4062,16.6873 56.1336,17.0675 55.6483,17.3478 C50.3921,20.384 35.289,29.108 30.0328,32.1441 C29.5475,32.4244 28.8893,32.5819 28.2031,32.5819 C27.5168,32.5819 26.8587,32.4244 26.3734,32.1441 C21.1172,29.108 6.0141,20.384 0.7579,17.3478 C0.2726,17.0675 -4.97379915e-14,16.6873 -4.97379915e-14,16.2909 C-4.97379915e-14,15.8945 0.2726,15.5144 0.7579,15.2341 C6.0141,12.1979 21.1172,3.4739 26.3734,0.4377 Z"/>
      <path stroke="#3F6C9F" stroke-linecap="round" stroke-linejoin="round" stroke-width="2" d="M41.8345,25.0081 C41.8345,25.0081 51.307,30.477 55.6769,33 C57.0144,33.7722 58.6624,33.7722 60,33 C62.7593365,31.4069005 71.3434668,26.019449 75.9053923,23.3856087 C81.2771336,20.2842188 86.0912,17.5048 86.0912,17.5048"/>
    </g>
    <g transform="translate(38 61)">
      <path stroke="#E01A33" stroke-linecap="round" stroke-linejoin="round" stroke-width="1.5" d="M70.5107 92.01C70.5107 92.01 75.225 94.732 77.8111 96.225 78.8327 96.815 80.0913 96.815 81.1129 96.225 82.2864 95.547 83.8849 94.624 85.2207 93.853 86.7949 92.944 88.7344 92.944 90.3086 93.853 94.58 96.319 102.733 101.026 102.733 101.026M185.361 88.813C185.361 88.813 182.71 90.343 180.688 91.511 180.223 91.779 179.936 92.276 179.936 92.813 179.936 93.35 180.223 93.846 180.688 94.114 181.896 94.812 183.414 95.688 184.779 96.476 185.516 96.902 185.97 97.688 185.97 98.539 185.97 99.39 185.516 100.176 184.779 100.602 180.673 102.972 174.495 106.539 174.495 106.539"/>
      <path fill="#B1BBC9" d="M199.956,52.386 C201.154,51.681 202.957,51.599 203.984,52.204 C212.197,57.039 254.084,79.934 254.084,79.934 C254.084,79.934 254.091,81.944 254.084,82.334 C254.074,82.796 253.736,83.284 253.086,83.667 C246.106,87.777 224.274,100.631 217.294,104.74 C216.096,105.446 214.292,105.527 213.265,104.923 C205.052,100.087 172.512,80.929 164.299,76.093 C162.426,74.99 163.166,73.045 163.166,73.045 C163.166,73.045 192.975,56.496 199.956,52.386 Z"/>
      <path stroke="#01050C" stroke-linecap="round" stroke-linejoin="round" d="M199.956,52.386 C201.154,51.681 202.957,51.599 203.984,52.204 C212.197,57.039 254.084,79.934 254.084,79.934 C254.084,79.934 254.091,81.944 254.084,82.334 C254.074,82.796 253.736,83.284 253.086,83.667 C246.106,87.777 224.274,100.631 217.294,104.74 C216.096,105.446 214.292,105.527 213.265,104.923 C205.052,100.087 172.512,80.929 164.299,76.093 C162.426,74.99 163.166,73.045 163.166,73.045 C163.166,73.045 192.975,56.496 199.956,52.386 Z"/>
      <path fill="#3F6C9F" fill-opacity=".2" d="M214.901,105.299 C214.901,105.299 216.401,105.334 218.034,105.372 C220.711,105.435 223.351,104.739 225.648,103.363 C233.273,98.797 251.178,88.075 257.854,84.077 C258.391,83.755 258.719,83.173 258.71602,82.547 C258.712,81.92 258.379,81.342 257.838,81.025 C250.556,76.763 230.396,64.963 230.396,64.963 L214.901,63.957 L214.901,105.299 Z"/>
      <path fill="#FFF" d="M199.956,49.787 C201.154,49.082 202.957,49 203.984,49.604 C212.197,54.44 245.183,73.861 253.396,78.696 C254.423,79.301 254.284,80.363 253.086,81.068 C246.106,85.178 224.274,98.031 217.294,102.141 C216.096,102.846 214.292,102.928 213.265,102.324 C205.052,97.488 172.066,78.067 163.853,73.232 C162.827,72.627 162.965,71.565 164.164,70.86 C171.144,66.75 192.975,53.897 199.956,49.787 Z"/>
      <path stroke="#01050C" stroke-linecap="round" stroke-linejoin="round" d="M199.956,49.787 C201.154,49.082 202.957,49 203.984,49.604 C212.197,54.44 245.183,73.861 253.396,78.696 C254.423,79.301 254.284,80.363 253.086,81.068 C246.106,85.178 224.274,98.031 217.294,102.141 C216.096,102.846 214.292,102.928 213.265,102.324 C205.052,97.488 172.066,78.067 163.853,73.232 C162.827,72.627 162.965,71.565 164.164,70.86 C171.144,66.75 192.975,53.897 199.956,49.787 Z"/>
      <path fill="#EFF4F7" d="M199.838,54.432 C200.399,54.102 201.549,54.243 202.406,54.748 C209.265,58.787 236.812,75.005 243.671,79.043 C244.528,79.548 244.769,80.225 244.208,80.556 C240.939,82.48 230.715,88.5 227.446,90.424 C226.885,90.754 225.735,90.613 224.878,90.108 C218.019,86.07 190.472,69.851 183.613,65.813 C182.755,65.308 182.515,64.631 183.076,64.301 C186.345,62.376 196.569,56.357 199.838,54.432 Z"/>
      <path stroke="#01050C" stroke-linecap="round" stroke-linejoin="round" d="M199.838,54.432 C200.399,54.102 201.549,54.243 202.406,54.748 C209.265,58.787 236.812,75.005 243.671,79.043 C244.528,79.548 244.769,80.225 244.208,80.556 C240.939,82.48 230.715,88.5 227.446,90.424 C226.885,90.754 225.735,90.613 224.878,90.108 C218.019,86.07 190.472,69.851 183.613,65.813 C182.755,65.308 182.515,64.631 183.076,64.301 C186.345,62.376 196.569,56.357 199.838,54.432 Z"/>
      <path fill="#EFF4F7" d="M192.392,75.656 C192.655,75.501 193.119,75.524 193.43,75.706 C195.912,77.168 205.882,83.038 208.364,84.499 C208.675,84.682 208.713,84.955 208.45,85.11 C206.92,86.011 202.132,88.83 200.601,89.731 C200.338,89.886 199.874,89.863 199.563,89.681 C197.081,88.219 187.111,82.349 184.629,80.888 C184.319,80.705 184.28,80.432 184.543,80.277 C186.074,79.376 190.861,76.557 192.392,75.656 Z"/>
      <path stroke="#01050C" stroke-linecap="round" stroke-linejoin="round" d="M192.392,75.656 C192.655,75.501 193.119,75.524 193.43,75.706 C195.912,77.168 205.882,83.038 208.364,84.499 C208.675,84.682 208.713,84.955 208.45,85.11 C206.92,86.011 202.132,88.83 200.601,89.731 C200.338,89.886 199.874,89.863 199.563,89.681 C197.081,88.219 187.111,82.349 184.629,80.888 C184.319,80.705 184.28,80.432 184.543,80.277 C186.074,79.376 190.861,76.557 192.392,75.656 Z"/>
      <path fill="#EFF4F7" d="M255.981,77.198 C256.408,76.981 256.682,76.421 256.682,75.612 L256.682,33.466 C256.682,32.055 255.85,30.421 254.823,29.817 C246.61,24.981 213.624,5.561 205.411,0.725 C204.997,0.481 204.615,0.442 204.306,0.575 L204.299,0.57 L202.035,1.734 L203.552,3.956 L203.552,44.331 C203.552,45.742 204.385,47.375 205.411,47.98 L252.556,75.737 L254.087,77.98 L255.854,77.25 C255.897,77.236 255.939,77.219 255.979,77.199 L255.981,77.198 Z"/>
      <path stroke="#01050C" stroke-linecap="round" stroke-linejoin="round" d="M255.981,77.198 C256.408,76.981 256.682,76.421 256.682,75.612 L256.682,33.466 C256.682,32.055 255.85,30.421 254.823,29.817 C246.61,24.981 213.624,5.561 205.411,0.725 C204.997,0.481 204.615,0.442 204.306,0.575 L204.299,0.57 L202.035,1.734 L203.552,3.956 L203.552,44.331 C203.552,45.742 204.385,47.375 205.411,47.98 L252.556,75.737 L254.087,77.98 L255.854,77.25 C255.897,77.236 255.939,77.219 255.979,77.199 L255.981,77.198 Z"/>
      <path fill="#FFF" d="M201.309,3.329 C201.309,1.918 202.141,1.265 203.168,1.869 C211.381,6.705 244.367,26.125 252.58,30.961 C253.606,31.565 254.439,33.199 254.439,34.61 L254.439,76.756 C254.439,78.167 253.606,78.82 252.58,78.216 C244.367,73.38 211.381,53.959 203.168,49.124 C202.141,48.519 201.309,46.886 201.309,45.475 L201.309,3.329 Z"/>
      <path stroke="#01050C" stroke-linecap="round" stroke-linejoin="round" d="M201.309,3.329 C201.309,1.918 202.141,1.265 203.168,1.869 C211.381,6.705 244.367,26.125 252.58,30.961 C253.606,31.565 254.439,33.199 254.439,34.61 L254.439,76.756 C254.439,78.167 253.606,78.82 252.58,78.216 C244.367,73.38 211.381,53.959 203.168,49.124 C202.141,48.519 201.309,46.886 201.309,45.475 L201.309,3.329 Z"/>
      <path fill="#EFF4F7" d="M204.675,7.982 C204.675,6.75 205.402,6.179 206.299,6.707 C213.471,10.93 242.276,27.889 249.449,32.112 C250.345,32.64 251.072,34.066 251.072,35.298 L251.072,72.103 C251.072,73.335 250.345,73.906 249.449,73.378 C242.276,69.155 213.471,52.196 206.299,47.973 C205.402,47.445 204.675,46.018 204.675,44.786 L204.675,7.982 Z"/>
      <path stroke="#01050C" stroke-linecap="round" stroke-linejoin="round" d="M204.675,7.982 C204.675,6.75 205.402,6.179 206.299,6.707 C213.471,10.93 242.276,27.889 249.449,32.112 C250.345,32.64 251.072,34.066 251.072,35.298 L251.072,72.103 C251.072,73.335 250.345,73.906 249.449,73.378 C242.276,69.155 213.471,52.196 206.299,47.973 C205.402,47.445 204.675,46.018 204.675,44.786 L204.675,7.982 Z"/>
      <line x1="246.62" x2="242.95" y1="37.001" y2="34.883" stroke="#B1BBC9" stroke-linecap="round" stroke-linejoin="round"/>
      <line x1="239.281" x2="232.152" y1="32.764" y2="28.648" stroke="#B1BBC9" stroke-linecap="round" stroke-linejoin="round"/>
      <line x1="246.62" x2="239.281" y1="43.246" y2="39.008" stroke="#B1BBC9" stroke-linecap="round" stroke-linejoin="round"/>
      <line x1="246.62" x2="242.95" y1="49.49" y2="47.371" stroke="#B1BBC9" stroke-linecap="round" stroke-linejoin="round"/>
      <line x1="246.62" x2="239.281" y1="55.734" y2="51.497" stroke="#B1BBC9" stroke-linecap="round" stroke-linejoin="round"/>
      <line x1="246.62" x2="240.751" y1="61.979" y2="58.591" stroke="#B1BBC9" stroke-linecap="round" stroke-linejoin="round"/>
      <line x1="237.313" x2="233.964" y1="56.606" y2="54.672" stroke="#B1BBC9" stroke-linecap="round" stroke-linejoin="round"/>
      <line x1="212.294" x2="208.625" y1="19.088" y2="16.969" stroke="#B1BBC9" stroke-linecap="round" stroke-linejoin="round"/>
      <line x1="222.079" x2="215.964" y1="24.737" y2="21.206" stroke="#B1BBC9" stroke-linecap="round" stroke-linejoin="round"/>
      <line x1="215.964" x2="208.625" y1="26.744" y2="22.507" stroke="#B1BBC9" stroke-linecap="round" stroke-linejoin="round"/>
      <line x1="212.294" x2="208.625" y1="29.829" y2="27.711" stroke="#B1BBC9" stroke-linecap="round" stroke-linejoin="round"/>
      <line x1="214.128" x2="208.625" y1="36.975" y2="33.798" stroke="#B1BBC9" stroke-linecap="round" stroke-linejoin="round"/>
      <line x1="214.493" x2="208.625" y1="44.194" y2="40.806" stroke="#B1BBC9" stroke-linecap="round" stroke-linejoin="round"/>
      <line x1="218.204" x2="216.21" y1="46.336" y2="45.185" stroke="#B1BBC9" stroke-linecap="round" stroke-linejoin="round"/>
      <path fill="#FFF" d="M227.717,30.082 C222.813,27.251 218.832,29.549 218.832,35.212 C218.832,40.874 222.813,47.77 227.717,50.601 C232.621,53.432 236.602,51.134 236.602,45.471 C236.602,39.809 232.621,32.913 227.717,30.082 Z"/>
      <path stroke="#E01A33" stroke-linejoin="round" d="M227.717,30.082 C222.813,27.251 218.832,29.549 218.832,35.212 C218.832,40.874 222.813,47.77 227.717,50.601 C232.621,53.432 236.602,51.134 236.602,45.471 C236.602,39.809 232.621,32.913 227.717,30.082 Z"/>
      <path fill="#E01A33" d="M227.442 41.565C227.362 41.572 227.307 41.633 227.294 41.732 227.281 41.83 227.311 41.954 227.375 42.068 228.347 43.688 229.97 44.807 231.336 44.685 232.701 44.563 233.376 43.239 233.062 41.558 233.037 41.443 232.973 41.325 232.889 41.237 232.805 41.15 232.71 41.103 232.632 41.11 231.614 41.192 228.457 41.474 227.442 41.565zM225.324 40.496C225.409 40.366 225.415 40.198 225.337 40.063 224.869 39.243 223.178 36.303 222.441 35.021 222.379 34.912 222.259 34.85 222.135 34.862 222.011 34.874 221.905 34.957 221.865 35.075 221.481 36.717 221.739 39.474 223.043 41.016 223.247 41.247 223.547 41.37 223.855 41.35 224.655 41.331 225 40.987 225.324 40.496z"/>
      <path fill="#B1BBC9" d="M58.9685,54.364 C57.7705,53.659 55.967,53.577 54.9402,54.181 C46.7272,59.017 4.8407,81.911 4.8407,81.911 C4.8407,81.911 4.8331,83.922 4.8407,84.311 C4.8499,84.774 5.1881,85.262 5.8384,85.645 C12.8188,89.755 34.6503,102.608 41.6307,106.718 C42.8287,107.423 44.6322,107.505 45.659,106.901 C53.872,102.065 86.4128,82.906 94.626,78.071 C96.499,76.968 95.759,75.023 95.759,75.023 C95.759,75.023 65.9489,58.474 58.9685,54.364 Z"/>
      <path stroke="#01050C" stroke-linecap="round" stroke-linejoin="round" d="M58.9685,54.364 C57.7705,53.659 55.967,53.577 54.9402,54.181 C46.7272,59.017 4.8407,81.911 4.8407,81.911 C4.8407,81.911 4.8331,83.922 4.8407,84.311 C4.8499,84.774 5.1881,85.262 5.8384,85.645 C12.8188,89.755 34.6503,102.608 41.6307,106.718 C42.8287,107.423 44.6322,107.505 45.659,106.901 C53.872,102.065 86.4128,82.906 94.626,78.071 C96.499,76.968 95.759,75.023 95.759,75.023 C95.759,75.023 65.9489,58.474 58.9685,54.364 Z"/>
      <path fill="#3F6C9F" fill-opacity=".2" d="M44.0233,107.277 C44.0233,107.277 42.5235,107.312 40.89,107.35 C38.2133,107.413 35.5735,106.716 33.2764,105.341 C25.6516,100.775 7.7468,90.052 1.0707,86.054 C0.5332,85.733 0.2055,85.151 0.208676777,84.524 C0.2118,83.898 0.5454,83.32 1.086,83.003 C8.3681,78.741 28.5284,66.941 28.5284,66.941 L44.0233,65.935 L44.0233,107.277 Z"/>
      <path fill="#FFF" d="M58.9685,51.765 C57.7705,51.059 55.967,50.978 54.9402,51.582 C46.7272,56.418 13.7413,75.839 5.5282,80.674 C4.5015,81.279 4.6404,82.34 5.8384,83.046 C12.8188,87.156 34.6503,100.009 41.6307,104.119 C42.8287,104.824 44.6322,104.906 45.659,104.301 C53.872,99.466 86.8579,80.045 95.071,75.21 C96.098,74.605 95.959,73.543 94.761,72.838 C87.7804,68.728 65.9489,55.875 58.9685,51.765 Z"/>
      <path stroke="#01050C" stroke-linecap="round" stroke-linejoin="round" d="M58.9685,51.765 C57.7705,51.059 55.967,50.978 54.9402,51.582 C46.7272,56.418 13.7413,75.839 5.5282,80.674 C4.5015,81.279 4.6404,82.34 5.8384,83.046 C12.8188,87.156 34.6503,100.009 41.6307,104.119 C42.8287,104.824 44.6322,104.906 45.659,104.301 C53.872,99.466 86.8579,80.045 95.071,75.21 C96.098,74.605 95.959,73.543 94.761,72.838 C87.7804,68.728 65.9489,55.875 58.9685,51.765 Z"/>
      <path fill="#EFF4F7" d="M59.0866,56.41 C58.5256,56.08 57.3757,56.221 56.5182,56.726 C49.6594,60.764 22.1122,76.983 15.2534,81.021 C14.396,81.526 14.1557,82.203 14.7167,82.533 C17.9856,84.458 28.2093,90.477 31.4782,92.402 C32.0393,92.732 33.1892,92.591 34.0466,92.086 C40.9055,88.048 68.4526,71.829 75.3115,67.791 C76.1689,67.286 76.4092,66.609 75.8481,66.279 C72.5793,64.354 62.3555,58.335 59.0866,56.41 Z"/>
      <path stroke="#01050C" stroke-linecap="round" stroke-linejoin="round" d="M59.0866,56.41 C58.5256,56.08 57.3757,56.221 56.5182,56.726 C49.6594,60.764 22.1122,76.983 15.2534,81.021 C14.396,81.526 14.1557,82.203 14.7167,82.533 C17.9856,84.458 28.2093,90.477 31.4782,92.402 C32.0393,92.732 33.1892,92.591 34.0466,92.086 C40.9055,88.048 68.4526,71.829 75.3115,67.791 C76.1689,67.286 76.4092,66.609 75.8481,66.279 C72.5793,64.354 62.3555,58.335 59.0866,56.41 Z"/>
      <path fill="#EFF4F7" d="M66.5322,77.633 C66.2694,77.479 65.8049,77.501 65.4945,77.684 C63.0122,79.146 53.0424,85.015 50.5601,86.477 C50.2498,86.66 50.2112,86.933 50.474,87.088 C52.0048,87.989 56.7926,90.808 58.3234,91.709 C58.5861,91.864 59.0507,91.841 59.361,91.658 C61.8433,90.197 71.8131,84.327 74.2954,82.866 C74.6057,82.683 74.6443,82.409 74.3816,82.255 C72.8508,81.353 68.063,78.535 66.5322,77.633 Z"/>
      <path stroke="#01050C" stroke-linecap="round" stroke-linejoin="round" d="M66.5322,77.633 C66.2694,77.479 65.8049,77.501 65.4945,77.684 C63.0122,79.146 53.0424,85.015 50.5601,86.477 C50.2498,86.66 50.2112,86.933 50.474,87.088 C52.0048,87.989 56.7926,90.808 58.3234,91.709 C58.5861,91.864 59.0507,91.841 59.361,91.658 C61.8433,90.197 71.8131,84.327 74.2954,82.866 C74.6057,82.683 74.6443,82.409 74.3816,82.255 C72.8508,81.353 68.063,78.535 66.5322,77.633 Z"/>
      <path fill="#EFF4F7" d="M2.9436,79.175 C2.516,78.959 2.242,78.399 2.242,77.59 L2.242,35.444 C2.242,34.033 3.0743,32.399 4.1011,31.795 C12.3141,26.959 45.3,7.538 53.5131,2.703 C53.927,2.459 54.3094,2.42 54.6182,2.553 L54.6254,2.548 L56.8891,3.712 L55.3721,5.934 L55.3721,46.309 C55.3721,47.72 54.5398,49.353 53.5131,49.958 L6.3688,77.714 L4.8373,79.958 L3.0706,79.228 C3.0275,79.214 2.9857,79.197 2.9453,79.176 L2.9436,79.175 Z"/>
      <path stroke="#01050C" stroke-linecap="round" stroke-linejoin="round" d="M2.9436,79.175 C2.516,78.959 2.242,78.399 2.242,77.59 L2.242,35.444 C2.242,34.033 3.0743,32.399 4.1011,31.795 C12.3141,26.959 45.3,7.538 53.5131,2.703 C53.927,2.459 54.3094,2.42 54.6182,2.553 L54.6254,2.548 L56.8891,3.712 L55.3721,5.934 L55.3721,46.309 C55.3721,47.72 54.5398,49.353 53.5131,49.958 L6.3688,77.714 L4.8373,79.958 L3.0706,79.228 C3.0275,79.214 2.9857,79.197 2.9453,79.176 L2.9436,79.175 Z"/>
      <path fill="#FFF" d="M57.6157,5.307 C57.6157,3.896 56.7833,3.242 55.7566,3.847 C47.5436,8.682 14.5576,28.103 6.3446,32.939 C5.3179,33.543 4.4855,35.177 4.4855,36.588 L4.4855,78.734 C4.4855,80.144 5.3179,80.798 6.3446,80.193 C14.5576,75.358 47.5436,55.937 55.7566,51.102 C56.7833,50.497 57.6157,48.863 57.6157,47.453 L57.6157,5.307 Z"/>
      <path stroke="#01050C" stroke-linecap="round" stroke-linejoin="round" d="M57.6157,5.307 C57.6157,3.896 56.7833,3.242 55.7566,3.847 C47.5436,8.682 14.5576,28.103 6.3446,32.939 C5.3179,33.543 4.4855,35.177 4.4855,36.588 L4.4855,78.734 C4.4855,80.144 5.3179,80.798 6.3446,80.193 C14.5576,75.358 47.5436,55.937 55.7566,51.102 C56.7833,50.497 57.6157,48.863 57.6157,47.453 L57.6157,5.307 Z"/>
      <path fill="#EFF4F7" d="M54.249,9.959 C54.249,8.727 53.5222,8.157 52.6255,8.685 C45.4534,12.907 16.6478,29.867 9.4757,34.09 C8.5791,34.617 7.8522,36.044 7.8522,37.276 L7.8522,74.081 C7.8522,75.313 8.5791,75.884 9.4757,75.356 C16.6478,71.133 45.4534,54.173 52.6255,49.951 C53.5222,49.423 54.249,47.996 54.249,46.764 L54.249,9.959 Z"/>
      <path stroke="#01050C" stroke-linecap="round" stroke-linejoin="round" d="M54.249,9.959 C54.249,8.727 53.5222,8.157 52.6255,8.685 C45.4534,12.907 16.6478,29.867 9.4757,34.09 C8.5791,34.617 7.8522,36.044 7.8522,37.276 L7.8522,74.081 C7.8522,75.313 8.5791,75.884 9.4757,75.356 C16.6478,71.133 45.4534,54.173 52.6255,49.951 C53.5222,49.423 54.249,47.996 54.249,46.764 L54.249,9.959 Z"/>
      <line x1="12.305" x2="15.974" y1="39.973" y2="37.854" stroke="#B1BBC9" stroke-linecap="round" stroke-linejoin="round"/>
      <line x1="19.644" x2="26.772" y1="35.735" y2="31.62" stroke="#B1BBC9" stroke-linecap="round" stroke-linejoin="round"/>
      <line x1="12.305" x2="19.644" y1="46.217" y2="41.98" stroke="#B1BBC9" stroke-linecap="round" stroke-linejoin="round"/>
      <line x1="12.305" x2="15.974" y1="52.462" y2="50.343" stroke="#B1BBC9" stroke-linecap="round" stroke-linejoin="round"/>
      <line x1="12.305" x2="19.644" y1="58.706" y2="54.469" stroke="#B1BBC9" stroke-linecap="round" stroke-linejoin="round"/>
      <line x1="12.305" x2="18.173" y1="64.95" y2="61.562" stroke="#B1BBC9" stroke-linecap="round" stroke-linejoin="round"/>
      <line x1="21.611" x2="24.96" y1="59.578" y2="57.644" stroke="#B1BBC9" stroke-linecap="round" stroke-linejoin="round"/>
      <line x1="46.63" x2="50.3" y1="22.059" y2="19.941" stroke="#B1BBC9" stroke-linecap="round" stroke-linejoin="round"/>
      <line x1="36.846" x2="42.961" y1="27.708" y2="24.178" stroke="#B1BBC9" stroke-linecap="round" stroke-linejoin="round"/>
      <line x1="42.961" x2="50.3" y1="29.716" y2="25.478" stroke="#B1BBC9" stroke-linecap="round" stroke-linejoin="round"/>
      <line x1="46.63" x2="50.3" y1="32.801" y2="30.682" stroke="#B1BBC9" stroke-linecap="round" stroke-linejoin="round"/>
      <line x1="44.797" x2="50.3" y1="39.947" y2="36.77" stroke="#B1BBC9" stroke-linecap="round" stroke-linejoin="round"/>
      <line x1="44.431" x2="50.3" y1="47.165" y2="43.777" stroke="#B1BBC9" stroke-linecap="round" stroke-linejoin="round"/>
      <line x1="40.72" x2="42.714" y1="49.308" y2="48.157" stroke="#B1BBC9" stroke-linecap="round" stroke-linejoin="round"/>
      <path stroke="#E01A33" stroke-linecap="round" stroke-linejoin="round" stroke-width="1.5" d="M133.544,84.117 C131.688,83.045 129.4,83.045 127.544,84.117 C116.102,90.723 75.1644,114.3585 61.4684,122.2658 C60.5402,122.8017 59.9684,123.7921 59.9684,124.8639 C59.9684,125.9357 60.5402,126.9261 61.4684,127.462 C75.1644,135.3693 116.102,159.005 127.544,165.6107 C129.4,166.6825 131.688,166.6825 133.544,165.6107 C144.985,159.005 185.923,135.3693 199.619,127.462 C200.548,126.9261 201.119,125.9357 201.119,124.8639 C201.119,123.7921 200.548,122.8017 199.619,122.2658 C185.923,114.3585 144.985,90.723 133.544,84.117 Z"/>
      <path fill="#EFF4F7" d="M132.919,90.142 C131.062,89.07 128.775,89.07 126.919,90.142 C116.813,95.977 83.97,114.9386 71.9039,121.9049 C70.9757,122.4408 70.4039,123.4312 70.4039,124.503 C70.4039,125.5748 70.9757,126.5652 71.9039,127.1011 C84.1609,134.1777 117.906,153.6606 128.169,159.5858 C130.025,160.6576 132.313,160.6576 134.169,159.5858 C144.275,153.751 177.118,134.7893 189.184,127.8229 C190.112,127.287 190.684,126.2967 190.684,125.2249 C190.684,124.1531 190.112,123.1627 189.184,122.6268 C176.927,115.5502 143.181,96.067 132.919,90.142 Z"/>
      <path fill="#5A6D83" fill-opacity=".21" d="M132.619,150.4877 C132.619,150.4877 137.395,150.5999 141.042,150.6855 C143.703,150.7479 146.328,150.0595 148.616,148.699 C156.273,144.1469 174.504,133.3082 183.1,128.1972 C184.068,127.6216 184.66,126.5771 184.65602,125.4508 C184.653,124.3245 184.054,123.2841 183.082,122.7152 C174.486,117.6842 156.994,107.446 156.994,107.446 L132.619,112.565 L132.619,150.4877 Z"/>
      <path fill="#FFF" d="M87.7722,39.778 C87.7722,39.158 88.1988,38.563 88.9583,38.124 C97.185,33.372 120.822,19.719 129.048,14.967 C129.808,14.528 130.838,14.282 131.912,14.282 C132.986,14.282 134.016,14.528 134.775,14.967 C143.002,19.719 166.639,33.372 174.865,38.124 C175.625,38.563 176.051,39.158 176.051,39.778 L176.051,124.6745 C176.051,125.2949 175.625,125.8899 174.865,126.3286 C166.639,131.0804 143.002,144.734 134.775,149.4857 C134.016,149.9244 132.986,150.1709 131.912,150.1709 C130.838,150.1709 129.808,149.9244 129.048,149.4857 C120.822,144.734 97.185,131.0804 88.9583,126.3286 C88.199,125.89 87.7722,125.2952 87.7722,124.6745 L87.7722,39.778 Z"/>
      <g transform="translate(87 13.444)">
        <mask id="compromise-of-trusted-hosts@1x-b" fill="#fff">
          <use xlink:href="#compromise-of-trusted-hosts@1x-a"/>
        </mask>
        <polygon fill="#EFF4F7" points="89.458 -17.07 44.912 7.145 44.912 178.494 89.458 154.279" mask="url(#compromise-of-trusted-hosts@1x-b)"/>
        <path stroke="#01050C" stroke-linecap="round" stroke-linejoin="round" d="M89.024,55.45 C89.024,56.071 88.597,56.666 87.838,57.104 C79.612,61.856 55.974,75.51 47.748,80.261 C46.989,80.7 45.958,80.947 44.884,80.947 C43.81,80.947 42.78,80.7 42.021,80.261 C33.795,75.51 10.157,61.856 1.931,57.104 C1.1716,56.666 0.7449,56.071 0.7449,55.45" mask="url(#compromise-of-trusted-hosts@1x-b)"/>
        <path fill="#01050C" d="M79.776 72.3C80.654 71.793 81.367 72.205 81.367 73.219 81.367 74.233 80.654 75.468 79.776 75.975 78.898 76.482 78.185 76.07 78.185 75.056 78.185 74.042 78.898 72.807 79.776 72.3zM23.083 80.35C22.205 79.843 21.492 80.255 21.492 81.269 21.492 82.283 22.205 83.518 23.083 84.025 23.962 84.532 24.675 84.121 24.675 83.107 24.675 82.092 23.962 80.857 23.083 80.35zM15.93 76.221C15.052 75.714 14.339 76.125 14.339 77.139 14.339 78.154 15.052 79.389 15.93 79.896 16.809 80.403 17.522 79.991 17.522 78.977 17.522 77.963 16.809 76.728 15.93 76.221zM8.778 72.091C7.899 71.584 7.186 71.996 7.186 73.01 7.186 74.024 7.899 75.259 8.778 75.766 9.656 76.273 10.369 75.861 10.369 74.847 10.369 73.833 9.656 72.598 8.778 72.091z" mask="url(#compromise-of-trusted-hosts@1x-b)"/>
        <line x1="54.137" x2="74.236" y1="88.387" y2="76.783" stroke="#01050C" stroke-linecap="round" stroke-linejoin="round" mask="url(#compromise-of-trusted-hosts@1x-b)"/>
        <path stroke="#01050C" stroke-linecap="round" stroke-linejoin="round" d="M89.024,82.613 C89.024,83.233 88.597,83.828 87.838,84.267 C79.612,89.019 55.974,102.6722 47.748,107.4239 C46.989,107.8626 45.958,108.1091 44.884,108.1091 C43.81,108.1091 42.78,107.8626 42.021,107.4239 C33.795,102.6722 10.157,89.019 1.931,84.267 C1.1716,83.828 0.7449,83.233 0.7449,82.613" mask="url(#compromise-of-trusted-hosts@1x-b)"/>
        <path fill="#01050C" d="M79.776 99.463C80.654 98.956 81.367 99.367 81.367 100.3814 81.367 101.3955 80.654 102.6305 79.776 103.1376 78.898 103.6446 78.185 103.233 78.185 102.2188 78.185 101.2047 78.898 99.97 79.776 99.463zM23.083 107.5129C22.205 107.0059 21.492 107.4176 21.492 108.4317 21.492 109.4458 22.205 110.6808 23.083 111.1878 23.962 111.6949 24.675 111.2832 24.675 110.2691 24.675 109.255 23.962 108.02 23.083 107.5129zM15.93 103.3833C15.052 102.8762 14.339 103.2879 14.339 104.302 14.339 105.3161 15.052 106.5511 15.93 107.0582 16.809 107.5653 17.522 107.1536 17.522 106.1395 17.522 105.1254 16.809 103.8904 15.93 103.3833zM8.778 99.254C7.899 98.747 7.186 99.158 7.186 100.1724 7.186 101.1865 7.899 102.4215 8.778 102.9286 9.656 103.4356 10.369 103.0239 10.369 102.0098 10.369 100.9957 9.656 99.761 8.778 99.254z" mask="url(#compromise-of-trusted-hosts@1x-b)"/>
        <line x1="54.137" x2="74.236" y1="115.55" y2="103.946" stroke="#01050C" stroke-linecap="round" stroke-linejoin="round" mask="url(#compromise-of-trusted-hosts@1x-b)"/>
        <path fill="#FFF" d="M47.775,1.523 C47.016,1.084 45.986,0.838 44.912,0.838 C43.838,0.838 42.808,1.084 42.048,1.523 C33.822,6.275 10.185,19.928 1.9583,24.68 C1.1988,25.119 0.7722,25.714 0.7722,26.334 C0.7722,26.955 1.1988,27.55 1.9583,27.988 C10.185,32.74 33.822,46.394 42.048,51.145 C42.808,51.584 43.838,51.831 44.912,51.831 C45.986,51.831 47.016,51.584 47.775,51.145 C56.002,46.394 79.639,32.74 87.865,27.988 C88.625,27.55 89.051,26.955 89.051,26.334 C89.051,25.714 88.625,25.119 87.865,24.68 C79.639,19.928 56.002,6.275 47.775,1.523 Z" mask="url(#compromise-of-trusted-hosts@1x-b)"/>
        <path stroke="#01050C" stroke-linecap="round" stroke-linejoin="round" d="M47.775,1.523 C47.016,1.084 45.986,0.838 44.912,0.838 C43.838,0.838 42.808,1.084 42.048,1.523 C33.822,6.275 10.185,19.928 1.9583,24.68 C1.1988,25.119 0.7722,25.714 0.7722,26.334 C0.7722,26.955 1.1988,27.55 1.9583,27.988 C10.185,32.74 33.822,46.394 42.048,51.145 C42.808,51.584 43.838,51.831 44.912,51.831 C45.986,51.831 47.016,51.584 47.775,51.145 C56.002,46.394 79.639,32.74 87.865,27.988 C88.625,27.55 89.051,26.955 89.051,26.334 C89.051,25.714 88.625,25.119 87.865,24.68 C79.639,19.928 56.002,6.275 47.775,1.523 Z" mask="url(#compromise-of-trusted-hosts@1x-b)"/>
      </g>
      <path stroke="#01050C" stroke-linecap="round" stroke-linejoin="round" d="M87.7722,39.778 C87.7722,39.158 88.1988,38.563 88.9583,38.124 C97.185,33.372 120.822,19.719 129.048,14.967 C129.808,14.528 130.838,14.282 131.912,14.282 C132.986,14.282 134.016,14.528 134.775,14.967 C143.002,19.719 166.639,33.372 174.865,38.124 C175.625,38.563 176.051,39.158 176.051,39.778 L176.051,124.6745 C176.051,125.2949 175.625,125.8899 174.865,126.3286 C166.639,131.0804 143.002,144.734 134.775,149.4857 C134.016,149.9244 132.986,150.1709 131.912,150.1709 C130.838,150.1709 129.808,149.9244 129.048,149.4857 C120.822,144.734 97.185,131.0804 88.9583,126.3286 C88.199,125.89 87.7722,125.2952 87.7722,124.6745 L87.7722,39.778 Z"/>
      <path fill="#01050C" d="M110.083 65.225C109.205 64.718 108.492 65.129 108.492 66.143 108.492 67.157 109.205 68.392 110.083 68.9 110.962 69.407 111.675 68.995 111.675 67.981 111.675 66.967 110.962 65.732 110.083 65.225zM102.93 61.095C102.052 60.588 101.339 61 101.339 62.014 101.339 63.028 102.052 64.263 102.93 64.77 103.809 65.277 104.522 64.865 104.522 63.851 104.522 62.837 103.809 61.602 102.93 61.095zM95.778 56.965C94.899 56.458 94.186 56.87 94.186 57.884 94.186 58.898 94.899 60.133 95.778 60.64 96.656 61.147 97.369 60.736 97.369 59.722 97.369 58.707 96.656 57.472 95.778 56.965zM166.776 57.342C167.654 56.835 168.367 57.247 168.367 58.261 168.367 59.275 167.654 60.51 166.776 61.017 165.898 61.524 165.185 61.112 165.185 60.098 165.185 59.084 165.898 57.849 166.776 57.342z"/>
      <line x1="141.137" x2="161.236" y1="74.464" y2="62.859" stroke="#01050C" stroke-linecap="round" stroke-linejoin="round"/>
      <path fill="#EFF4F7" d="M232.859 121.1011C233.175 120.9183 233.605 120.8156 234.052 120.8156 234.5 120.8156 234.929 120.9183 235.246 121.1011 238.675 123.0818 248.527 128.7728 251.956 130.7534 252.273 130.9363 252.45 131.1843 252.45 131.4429 252.45 131.7015 252.273 131.9495 251.956 132.1323 248.527 134.1129 238.675 139.804 235.246 141.7846 234.929 141.9675 234.5 142.0702 234.052 142.0702 233.605 142.0702 233.175 141.9675 232.859 141.7846 229.43 139.804 219.577 134.1129 216.149 132.1323 215.832 131.9495 215.654 131.7015 215.654 131.4429 215.654 131.1843 215.832 130.9363 216.149 130.7534 219.577 128.7728 229.43 123.0818 232.859 121.1011zM115.849 180.7474C117.706 179.6756 119.993 179.6756 121.849 180.7474 127.299 183.8937 138.851 190.563 145.248 194.2566 146.176 194.7925 146.748 195.7829 146.748 196.8547 146.748 197.9265 146.176 198.9169 145.248 199.4528 140.302 202.3082 132.497 206.8148 128.247 209.2685 126.39 210.3403 124.103 210.3403 122.247 209.2685 116.797 206.1222 105.246 199.4529 98.848 195.7593 97.92 195.2234 97.348 194.233 97.348 193.1612 97.348 192.0894 97.92 191.099 98.848 190.5631 103.794 187.7077 111.599 183.2011 115.849 180.7474z"/>
      <path fill="#5A6D83" d="M52.6112,168.5103 C54.4676,167.4385 56.7548,167.4385 58.6112,168.5103 C65.5188,172.4985 82.579,182.3482 90.7475,187.0643 C91.6757,187.6002 92.2475,188.5905 92.2475,189.6623 C92.2475,190.7341 91.6757,191.7245 90.7475,192.2604 C82.4477,197.0523 64.938,207.1615 57.9224,211.2119 C56.066,212.2837 53.7788,212.2837 51.9224,211.2119 C45.0148,207.2238 27.9546,197.3741 19.7861,192.658 C18.8579,192.1221 18.2861,191.1318 18.2861,190.06 C18.2861,188.9882 18.8579,187.9978 19.7861,187.4619 C28.0859,182.67 45.5956,172.5608 52.6112,168.5103 Z"/>
      <path stroke="#01050C" stroke-linecap="round" stroke-linejoin="round" d="M52.6112,168.5103 C54.4676,167.4385 56.7548,167.4385 58.6112,168.5103 C65.5188,172.4985 82.579,182.3482 90.7475,187.0643 C91.6757,187.6002 92.2475,188.5905 92.2475,189.6623 C92.2475,190.7341 91.6757,191.7245 90.7475,192.2604 C82.4477,197.0523 64.938,207.1615 57.9224,211.2119 C56.066,212.2837 53.7788,212.2837 51.9224,211.2119 C45.0148,207.2238 27.9546,197.3741 19.7861,192.658 C18.8579,192.1221 18.2861,191.1318 18.2861,190.06 C18.2861,188.9882 18.8579,187.9978 19.7861,187.4619 C28.0859,182.67 45.5956,172.5608 52.6112,168.5103 Z"/>
      <path fill="#FFF" d="M52.9116,166.2582 C54.768,165.1864 57.0552,165.1864 58.9117,166.2582 C65.7612,170.2128 82.5817,179.9241 90.6795,184.5994 C91.6077,185.1353 92.1795,186.1257 92.1795,187.1975 C92.1795,188.2693 91.6077,189.2597 90.6795,189.7956 C82.5132,194.5104 65.4605,204.3557 58.5547,208.3428 C56.6983,209.4146 54.4111,209.4146 52.5547,208.3428 C45.7052,204.3883 28.8847,194.6769 20.7868,190.0016 C19.8586,189.4658 19.2868,188.4754 19.2868,187.4036 C19.2868,186.3318 19.8586,185.3414 20.7868,184.8055 C28.9531,180.0907 46.0058,170.2453 52.9116,166.2582 Z"/>
      <path stroke="#01050C" stroke-linecap="round" stroke-linejoin="round" d="M52.9116,166.2582 C54.768,165.1864 57.0552,165.1864 58.9117,166.2582 C65.7612,170.2128 82.5817,179.9241 90.6795,184.5994 C91.6077,185.1353 92.1795,186.1257 92.1795,187.1975 C92.1795,188.2693 91.6077,189.2597 90.6795,189.7956 C82.5132,194.5104 65.4605,204.3557 58.5547,208.3428 C56.6983,209.4146 54.4111,209.4146 52.5547,208.3428 C45.7052,204.3883 28.8847,194.6769 20.7868,190.0016 C19.8586,189.4658 19.2868,188.4754 19.2868,187.4036 C19.2868,186.3318 19.8586,185.3414 20.7868,184.8055 C28.9531,180.0907 46.0058,170.2453 52.9116,166.2582 Z"/>
      <path stroke="#E01A33" stroke-linecap="round" stroke-linejoin="round" stroke-width="1.5" d="M161.462,149.3139 C161.462,149.3139 166.176,152.0357 168.762,153.5288 C169.784,154.1186 171.042,154.1186 172.064,153.5288 C173.237,152.8513 174.836,151.9284 176.172,151.1571 C177.746,150.2483 179.685,150.2483 181.259,151.1571 C185.531,153.6235 193.684,158.3304 193.684,158.3304"/>
      <path fill="#B1BBC9" d="M218.946,148.6696 C217.748,147.9642 215.944,147.8824 214.918,148.4869 C206.705,153.3224 164.818,176.2169 164.818,176.2169 C164.818,176.2169 164.811,178.2271 164.818,178.6169 C164.827,179.0797 165.166,179.5676 165.816,179.9505 C172.796,184.0602 194.628,196.9138 201.608,201.0236 C202.806,201.7289 204.61,201.8107 205.636,201.2062 C213.849,196.3707 246.39,177.2119 254.603,172.3764 C256.476,171.2737 255.736,169.3288 255.736,169.3288 C255.736,169.3288 225.926,152.7793 218.946,148.6696 Z"/>
      <path stroke="#01050C" stroke-linecap="round" stroke-linejoin="round" d="M218.946,148.6696 C217.748,147.9642 215.944,147.8824 214.918,148.4869 C206.705,153.3224 164.818,176.2169 164.818,176.2169 C164.818,176.2169 164.811,178.2271 164.818,178.6169 C164.827,179.0797 165.166,179.5676 165.816,179.9505 C172.796,184.0602 194.628,196.9138 201.608,201.0236 C202.806,201.7289 204.61,201.8107 205.636,201.2062 C213.849,196.3707 246.39,177.2119 254.603,172.3764 C256.476,171.2737 255.736,169.3288 255.736,169.3288 C255.736,169.3288 225.926,152.7793 218.946,148.6696 Z"/>
      <path fill="#3F6C9F" fill-opacity=".2" d="M204.139,202.4136 C204.139,202.4136 206.95,202.0436 209.243,201.7419 C211.164,201.4891 213.013,200.8451 214.675,199.8496 C223.758,194.4101 254.765,175.8418 263.925,170.3562 C264.463,170.0344 264.79,169.4529 264.78702,168.8265 C264.784,168.2001 264.451,167.6218 263.911,167.3052 C255.005,162.0891 226.127,145.1741 226.127,145.1741 L212.155,163.6513 L204.139,202.4136 Z"/>
      <path fill="#FFF" d="M218.946,146.0703 C217.748,145.365 215.944,145.2832 214.918,145.8877 C206.705,150.7232 173.719,170.144 165.506,174.9795 C164.479,175.584 164.618,176.6459 165.816,177.3512 C172.796,181.461 194.628,194.3146 201.608,198.4243 C202.806,199.1297 204.61,199.2114 205.636,198.6069 C213.849,193.7714 246.835,174.3506 255.048,169.5151 C256.075,168.9106 255.936,167.8487 254.738,167.1434 C247.758,163.0336 225.926,150.1801 218.946,146.0703 Z"/>
      <path stroke="#01050C" stroke-linecap="round" stroke-linejoin="round" d="M218.946,146.0703 C217.748,145.365 215.944,145.2832 214.918,145.8877 C206.705,150.7232 173.719,170.144 165.506,174.9795 C164.479,175.584 164.618,176.6459 165.816,177.3512 C172.796,181.461 194.628,194.3146 201.608,198.4243 C202.806,199.1297 204.61,199.2114 205.636,198.6069 C213.849,193.7714 246.835,174.3506 255.048,169.5151 C256.075,168.9106 255.936,167.8487 254.738,167.1434 C247.758,163.0336 225.926,150.1801 218.946,146.0703 Z"/>
      <path fill="#EFF4F7" d="M230.671,157.4167 C230.11,157.0864 228.96,157.2279 228.102,157.7327 C221.244,161.7709 193.696,177.9896 186.838,182.0278 C185.98,182.5327 185.74,183.2097 186.301,183.54 C189.57,185.4646 199.794,191.4839 203.062,193.4085 C203.623,193.7388 204.773,193.5974 205.631,193.0925 C212.49,189.0543 240.037,172.8356 246.896,168.7974 C247.753,168.2926 247.993,167.6156 247.432,167.2852 C244.163,165.3607 233.94,159.3413 230.671,157.4167 Z"/>
      <path stroke="#01050C" stroke-linecap="round" stroke-linejoin="round" d="M230.671,157.4167 C230.11,157.0864 228.96,157.2279 228.102,157.7327 C221.244,161.7709 193.696,177.9896 186.838,182.0278 C185.98,182.5327 185.74,183.2097 186.301,183.54 C189.57,185.4646 199.794,191.4839 203.062,193.4085 C203.623,193.7388 204.773,193.5974 205.631,193.0925 C212.49,189.0543 240.037,172.8356 246.896,168.7974 C247.753,168.2926 247.993,167.6156 247.432,167.2852 C244.163,165.3607 233.94,159.3413 230.671,157.4167 Z"/>
      <path fill="#EFF4F7" d="M204.132,159.0188 C203.869,158.8641 203.404,158.8868 203.094,159.0695 C200.612,160.531 190.642,166.4008 188.159,167.8623 C187.849,168.045 187.811,168.3185 188.073,168.4732 C189.604,169.3745 194.392,172.1934 195.923,173.0947 C196.185,173.2494 196.65,173.2266 196.96,173.0439 C199.443,171.5824 209.412,165.7126 211.895,164.2511 C212.205,164.0684 212.244,163.7949 211.981,163.6402 C210.45,162.7389 205.662,159.9201 204.132,159.0188 Z"/>
      <path stroke="#01050C" stroke-linecap="round" stroke-linejoin="round" d="M204.132,159.0188 C203.869,158.8641 203.404,158.8868 203.094,159.0695 C200.612,160.531 190.642,166.4008 188.159,167.8623 C187.849,168.045 187.811,168.3185 188.073,168.4732 C189.604,169.3745 194.392,172.1934 195.923,173.0947 C196.185,173.2494 196.65,173.2266 196.96,173.0439 C199.443,171.5824 209.412,165.7126 211.895,164.2511 C212.205,164.0684 212.244,163.7949 211.981,163.6402 C210.45,162.7389 205.662,159.9201 204.132,159.0188 Z"/>
      <path fill="#EFF4F7" d="M205.655,198.1533 C205.227,197.9371 204.953,197.3769 204.953,196.5676 L204.953,154.4214 C204.953,153.0107 205.786,151.3771 206.812,150.7726 C215.025,145.937 248.011,126.5162 256.224,121.6807 C256.638,121.437 257.021,121.3978 257.33,121.5303 L257.337,121.5258 L259.6,122.6899 L258.083,124.912 L258.083,165.2866 C258.083,166.6973 257.251,168.331 256.224,168.9355 L209.08,196.6922 L207.549,198.9355 L205.782,198.2059 C205.739,198.1918 205.697,198.1745 205.657,198.1542 L205.655,198.1533 Z"/>
      <path stroke="#01050C" stroke-linecap="round" stroke-linejoin="round" d="M205.655,198.1533 C205.227,197.9371 204.953,197.3769 204.953,196.5676 L204.953,154.4214 C204.953,153.0107 205.786,151.3771 206.812,150.7726 C215.025,145.937 248.011,126.5162 256.224,121.6807 C256.638,121.437 257.021,121.3978 257.33,121.5303 L257.337,121.5258 L259.6,122.6899 L258.083,124.912 L258.083,165.2866 C258.083,166.6973 257.251,168.331 256.224,168.9355 L209.08,196.6922 L207.549,198.9355 L205.782,198.2059 C205.739,198.1918 205.697,198.1745 205.657,198.1542 L205.655,198.1533 Z"/>
      <path fill="#FFF" d="M260.327,124.2844 C260.327,122.8737 259.495,122.2202 258.468,122.8247 C250.255,127.6602 217.269,147.081 209.056,151.9165 C208.029,152.521 207.197,154.1547 207.197,155.5654 L207.197,197.7115 C207.197,199.1222 208.029,199.7758 209.056,199.1713 C217.269,194.3358 250.255,174.9149 258.468,170.0794 C259.495,169.4749 260.327,167.8413 260.327,166.4306 L260.327,124.2844 Z"/>
      <path stroke="#01050C" stroke-linecap="round" stroke-linejoin="round" d="M260.327,124.2844 C260.327,122.8737 259.495,122.2202 258.468,122.8247 C250.255,127.6602 217.269,147.081 209.056,151.9165 C208.029,152.521 207.197,154.1547 207.197,155.5654 L207.197,197.7115 C207.197,199.1222 208.029,199.7758 209.056,199.1713 C217.269,194.3358 250.255,174.9149 258.468,170.0794 C259.495,169.4749 260.327,167.8413 260.327,166.4306 L260.327,124.2844 Z"/>
      <path fill="#FFF" d="M32.0419,32.111 C36.9457,29.28 40.927,31.578 40.927,37.241 C40.927,42.903 36.9457,49.799 32.0419,52.63 C27.138,55.461 23.1568,53.163 23.1568,47.5 C23.1568,41.838 27.138,34.942 32.0419,32.111 Z"/>
      <path stroke="#E01A33" stroke-linejoin="round" d="M32.0419,32.111 C36.9457,29.28 40.927,31.578 40.927,37.241 C40.927,42.903 36.9457,49.799 32.0419,52.63 C27.138,55.461 23.1568,53.163 23.1568,47.5 C23.1568,41.838 27.138,34.942 32.0419,32.111 Z"/>
      <path fill="#E01A33" d="M32.3168 43.594C32.3971 43.601 32.4516 43.662 32.4647 43.761 32.4778 43.859 32.4478 43.983 32.3836 44.097 31.4119 45.717 29.789 46.836 28.4233 46.714 27.0576 46.592 26.3825 45.268 26.6971 43.587 26.7223 43.472 26.786 43.354 26.87 43.266 26.954 43.179 27.0489 43.132 27.1273 43.139 28.1453 43.221 31.3021 43.503 32.3168 43.594zM34.4352 42.525C34.3495 42.395 34.3444 42.227 34.4221 42.092 34.8903 41.272 36.5806 38.332 37.3182 37.05 37.3799 36.941 37.4995 36.879 37.6237 36.891 37.7478 36.903 37.8536 36.986 37.894 37.104 38.2779 38.746 38.0203 41.503 36.7161 43.045 36.5116 43.276 36.212 43.399 35.9043 43.379 35.1042 43.36 34.759 43.016 34.4352 42.525z"/>
      <path fill="#FFF" fill-opacity=".9" d="M54.3083,129.4991 C53.771,129.1827 53.4411,128.6056 53.4411,127.9821 C53.4411,121.2586 53.4411,82.783 53.4411,71.549 C53.4411,70.917 53.7794,70.334 54.3278,70.021 C54.8761,69.707 55.5504,69.711 56.0947,70.032 C64.3575,74.897 89.4283,89.657 95.371,93.156 C96.159,93.62 96.644,94.467 96.644,95.383 C96.644,103.012 96.644,138.068 96.644,150.2439 C96.644,151.1014 96.184,151.8931 95.44,152.3187 C94.695,152.7443 93.78,152.7384 93.041,152.3034 C83.7259,146.819 59.227,132.395 54.3083,129.4991 Z"/>
      <path stroke="#B1BBC9" stroke-linecap="round" stroke-linejoin="round" stroke-opacity=".9" d="M54.3083,129.4991 C53.771,129.1827 53.4411,128.6056 53.4411,127.9821 C53.4411,121.2586 53.4411,82.783 53.4411,71.549 C53.4411,70.917 53.7794,70.334 54.3278,70.021 C54.8761,69.707 55.5504,69.711 56.0947,70.032 C64.3575,74.897 89.4283,89.657 95.371,93.156 C96.159,93.62 96.644,94.467 96.644,95.383 C96.644,103.012 96.644,138.068 96.644,150.2439 C96.644,151.1014 96.184,151.8931 95.44,152.3187 C94.695,152.7443 93.78,152.7384 93.041,152.3034 C83.7259,146.819 59.227,132.395 54.3083,129.4991 Z"/>
      <path fill="#FFF" d="M74.6183,90.09 C70.4761,87.699 67.1132,89.641 67.1132,94.424 C67.1132,99.207 70.4761,105.031 74.6183,107.423 C78.7605,109.814 82.1234,107.873 82.1234,103.09 C82.1234,98.307 78.7605,92.482 74.6183,90.09 Z"/>
      <path stroke="#E01A33" stroke-linejoin="round" d="M74.6183,90.09 C70.4761,87.699 67.1132,89.641 67.1132,94.424 C67.1132,99.207 70.4761,105.031 74.6183,107.423 C78.7605,109.814 82.1234,107.873 82.1234,103.09 C82.1234,98.307 78.7605,92.482 74.6183,90.09 Z"/>
      <path fill="#E01A33" d="M74.3861 99.79C74.3183 99.796 74.2722 99.848 74.2612 99.931 74.2501 100.014 74.2754 100.119 74.3297 100.215 75.1505 101.583 76.5213 102.528 77.6749 102.425 78.8284 102.322 79.3987 101.204 79.1329 99.784 79.1117 99.687 79.0578 99.587 78.9869 99.513 78.9159 99.44 78.8358 99.4 78.7695 99.406 77.9097 99.475 75.2432 99.713 74.3861 99.79zM72.572 98.924C72.6596 98.794 72.6655 98.625 72.5873 98.489 72.1822 97.777 70.8641 95.484 70.2235 94.37 70.161 94.26 70.0397 94.198 69.9143 94.211 69.7889 94.225 69.6833 94.311 69.6453 94.431 69.3631 95.837 69.6028 98.082 70.6844 99.343 70.9453 99.635 71.3533 99.748 71.7273 99.631 72.1251 99.48 72.3575 99.242 72.572 98.924z"/>
      <path fill="#FFF" d="M89.6219,125.9184 C89.6219,124.6581 88.9495,123.4935 87.8581,122.8634 C82.6221,119.8404 67.217,110.946 62.1208,108.004 C61.7787,107.806 61.3574,107.806 61.0154,108.004 C60.6734,108.201 60.4627,108.566 60.4627,108.961 C60.4627,111.135 60.4627,114.6645 60.4627,116.8763 C60.4627,118.1195 61.1259,119.2682 62.2025,119.8898 C67.3543,122.8642 82.5005,131.6088 87.7809,134.6574 C88.1606,134.8767 88.6285,134.8767 89.0082,134.6574 C89.3879,134.4382 89.6219,134.033 89.6219,133.5945 L89.6219,125.9184 Z"/>
      <g transform="translate(60 107.444)">
        <mask id="compromise-of-trusted-hosts@1x-d" fill="#fff">
          <use xlink:href="#compromise-of-trusted-hosts@1x-c"/>
        </mask>
        <polygon fill="#5A6D83" points="14.826 3.751 -1.809 -5.853 -1.809 13.468 14.826 23.072" mask="url(#compromise-of-trusted-hosts@1x-d)"/>
      </g>
      <path stroke="#5A6D83" stroke-linecap="round" stroke-linejoin="round" d="M89.6219,125.9184 C89.6219,124.6581 88.9495,123.4935 87.8581,122.8634 C82.6221,119.8404 67.217,110.946 62.1208,108.004 C61.7787,107.806 61.3574,107.806 61.0154,108.004 C60.6734,108.201 60.4627,108.566 60.4627,108.961 C60.4627,111.135 60.4627,114.6645 60.4627,116.8763 C60.4627,118.1195 61.1259,119.2682 62.2025,119.8898 C67.3543,122.8642 82.5005,131.6088 87.7809,134.6574 C88.1606,134.8767 88.6285,134.8767 89.0082,134.6574 C89.3879,134.4382 89.6219,134.033 89.6219,133.5945 L89.6219,125.9184 Z"/>
      <path fill="#E01A33" d="M83.5724,125.5859 C83.646,125.6976 83.6703,125.8347 83.6395,125.9649 C83.6088,126.0951 83.5256,126.2068 83.4098,126.2737 C82.7216,126.671 81.412,127.4271 80.754,127.807 C80.6721,127.8543 80.5712,127.8541 80.4895,127.8067 C80.4077,127.7592 80.3576,127.6716 80.3580963,127.5771 C80.364,126.3932 80.3798,123.2241 80.3875,121.6607 C80.3881,121.541 80.4671,121.4357 80.5818,121.4016 C80.6966,121.3675 80.8202,121.4125 80.8862,121.5125 C81.6224,122.6289 82.9835,124.693 83.5724,125.5859 Z"/>
      <polygon fill="#FFF" points="66.543 114.021 65.161 113.223 65.161 118.133 66.543 118.931"/>
      <polygon fill="#FFF" points="69.522 115.741 68.14 114.944 68.14 119.854 69.522 120.652"/>
      <path fill="#B1BBC9" d="M66.7285 81.375C66.0294 80.972 65.4618 81.299 65.4618 82.107 65.4618 82.914 66.0294 83.897 66.7285 84.301 67.4276 84.704 67.9951 84.377 67.9951 83.569 67.9951 82.762 67.4276 81.779 66.7285 81.375zM62.122 78.716C61.4229 78.312 60.8554 78.64 60.8554 79.447 60.8554 80.254 61.4229 81.237 62.122 81.641 62.8211 82.045 63.3887 81.717 63.3887 80.91 63.3887 80.103 62.8211 79.119 62.122 78.716zM57.8805 76.267C57.1815 75.863 56.6139 76.191 56.6139 76.998 56.6139 77.806 57.1815 78.789 57.8805 79.192 58.5796 79.596 59.1472 79.268 59.1472 78.461 59.1472 77.654 58.5796 76.671 57.8805 76.267z"/>
      <path fill="#3F6C9F" fill-opacity=".12" d="M54.8652,182.1073 C62.2878,183.3379 67.9332,187.3051 67.4642,190.9611 C66.9952,194.617 60.5883,196.5862 53.1657,195.3556 C45.7432,194.1251 40.0978,190.1579 40.5667,186.5019 C41.0357,182.8459 47.4427,180.8768 54.8652,182.1073 Z"/>
      <path fill="#FFF" d="M46.3584,187.3109 L46.3584,187.3109 L45.9529,158.6441 L45.3965,150.7345 C45.3965,150.7345 45.1417,141.047 44.9681,134.4495 C44.9295,132.9811 45.5528,131.573 46.6658,130.6143 C47.7789,129.6556 49.2638,129.2478 50.7103,129.5037 C53.4902,129.9953 56.5047,130.5284 57.9328,130.7809 C58.4894,130.8793 59.0245,131.0742 59.514,131.3569 C61.5793,132.5493 67.256,135.8267 67.256,135.8267 L74.3823,131.3543 C74.4301,131.3218 74.4792,131.291 74.5294,131.262 L74.5296,131.2618 C74.8765,131.0616 75.2789,130.9469 75.7079,130.9469 C77.0113,130.9469 78.0695,132.0051 78.0695,133.3086 C78.0695,134.183 77.5932,134.947 76.8862,135.3553 L76.8862,135.3553 C76.8862,135.3553 71.742,139.2776 69.376,141.0817 C68.6528,141.6331 67.6936,141.7652 66.8484,141.4298 C64.5232,140.5072 60.0371,138.7272 60.0371,138.7272 L60.0371,155.4661 L60.8857,172.9821 L60.0371,190.7109 L60.037,190.7109 C60.0376,190.7354 60.0378,190.7599 60.0378,190.7845 C60.0378,192.6814 58.4978,194.2215 56.6009,194.2215 C54.704,194.2215 53.1639,192.6814 53.1639,190.7845 C53.1639,190.7438 53.1646,190.7031 53.1661,190.6627 L53.1639,190.6627 L53.1639,187.9584 C52.8465,189.5282 51.4579,190.7116 49.7951,190.7116 C47.9103,190.7116 46.3778,189.1911 46.3584,187.3109 Z"/>
      <path stroke="#01050C" stroke-linecap="round" stroke-linejoin="round" d="M46.3584,187.3109 L46.3584,187.3109 L45.9529,158.6441 L45.3965,150.7345 C45.3965,150.7345 45.1417,141.047 44.9681,134.4495 C44.9295,132.9811 45.5528,131.573 46.6658,130.6143 C47.7789,129.6556 49.2638,129.2478 50.7103,129.5037 C53.4902,129.9953 56.5047,130.5284 57.9328,130.7809 C58.4894,130.8793 59.0245,131.0742 59.514,131.3569 C61.5793,132.5493 67.256,135.8267 67.256,135.8267 L74.3823,131.3543 C74.4301,131.3218 74.4792,131.291 74.5294,131.262 L74.5296,131.2618 C74.8765,131.0616 75.2789,130.9469 75.7079,130.9469 C77.0113,130.9469 78.0695,132.0051 78.0695,133.3086 C78.0695,134.183 77.5932,134.947 76.8862,135.3553 L76.8862,135.3553 C76.8862,135.3553 71.742,139.2776 69.376,141.0817 C68.6528,141.6331 67.6936,141.7652 66.8484,141.4298 C64.5232,140.5072 60.0371,138.7272 60.0371,138.7272 L60.0371,155.4661 L60.8857,172.9821 L60.0371,190.7109 L60.037,190.7109 C60.0376,190.7354 60.0378,190.7599 60.0378,190.7845 C60.0378,192.6814 58.4978,194.2215 56.6009,194.2215 C54.704,194.2215 53.1639,192.6814 53.1639,190.7845 C53.1639,190.7438 53.1646,190.7031 53.1661,190.6627 L53.1639,190.6627 L53.1639,187.9584 C52.8465,189.5282 51.4579,190.7116 49.7951,190.7116 C47.9103,190.7116 46.3778,189.1911 46.3584,187.3109 Z"/>
      <path fill="#FFF" d="M52.4527,113.6755 C56.1565,113.6755 59.1635,116.6825 59.1635,120.3863 C59.1635,124.0901 56.1565,127.0972 52.4527,127.0972 C48.7489,127.0972 45.7418,124.0901 45.7418,120.3863 C45.7418,116.6825 48.7489,113.6755 52.4527,113.6755 Z"/>
      <path stroke="#01050C" stroke-linecap="round" stroke-linejoin="round" d="M52.4527,113.6755 C56.1565,113.6755 59.1635,116.6825 59.1635,120.3863 C59.1635,124.0901 56.1565,127.0972 52.4527,127.0972 C48.7489,127.0972 45.7418,124.0901 45.7418,120.3863 C45.7418,116.6825 48.7489,113.6755 52.4527,113.6755 Z"/>
      <line x1="58.599" x2="60.037" y1="137.897" y2="138.727" stroke="#01050C" stroke-linecap="round" stroke-linejoin="round"/>
      <polyline stroke="#01050C" stroke-linecap="round" stroke-linejoin="round" points="52.177 159.278 53.164 173.162 53.164 189.949"/>
      <path fill="#EFF4F7" d="M234.467,149.2933 C239.296,146.5052 243.217,148.7688 243.217,154.3451 C243.217,159.9213 239.296,166.7122 234.467,169.5003 C229.638,172.2884 225.717,170.0248 225.717,164.4485 C225.717,158.8723 229.638,152.0814 234.467,149.2933 Z"/>
      <path stroke="#B1BBC9" stroke-linecap="round" stroke-linejoin="round" d="M234.467,153.2933 C237.384,151.609 239.753,152.9764 239.753,156.3451 C239.753,159.7137 237.384,163.816 234.467,165.5003 C231.55,167.1846 229.181,165.8172 229.181,162.4485 C229.181,159.0799 231.55,154.9776 234.467,153.2933 Z"/>
    </g>
    <g stroke="#3F6C9F" stroke-linecap="round" stroke-linejoin="round" stroke-width="2" opacity=".1" transform="translate(118 255)">
      <path d="M0,3.9399 C0,3.9399 9.5589,9.4588 14.4179,12.2641 C16.1295,13.2523 18.2381,13.2523 19.9497,12.2641 C24.7732,9.4793 34.2155,4.0278 34.2155,4.0278"/>
      <path d="M34.3344,0.6988 C35.9584,-0.2388 38.5954,-0.2388 40.2194,0.6988 C41.8433,1.6364 41.8433,3.1589 40.2194,4.0965 C38.5954,5.0341 35.9584,5.0341 34.3344,4.0965 C32.7105,3.1589 32.7105,1.6364 34.3344,0.6988 Z"/>
    </g>
  </g>
</svg>
