<?xml version="1.0" encoding="UTF-8"?>
<svg xmlns="http://www.w3.org/2000/svg" width="120" height="94">
  <path d="M91.305 10.246c3.004.04 4.77 1.164 5.277 3.363.02.098.04.192.055.286-2.645.714-4.43-.489-5.332-3.649Zm3.773 5.207c1.277 0 2.332.207 3.137.621a77.182 77.182 0 0 0-1.653-2.445c.641.789 1.258 1.582 1.86 2.371-.824-1.73-.281-3.516 1.633-5.379 1.597 2.785 1.297 4.793-.899 6.074.582.508.977 1.184 1.184 2.047 1.988 2.992 3.492 5.942 4.543 8.856-.246-1.672.582-3.27 2.496-4.832 1.45 3.18.828 5.359-1.86 6.488a1.506 1.506 0 0 1-.128-.227 28.73 28.73 0 0 1 .902 3.461c-.059-1.675.879-3.293 2.816-4.87 1.614 3.554.918 5.976-2.046 7.257a5.339 5.339 0 0 1-.567-1.203c.207 1.41.3 2.8.3 4.152.474-1.578 1.825-2.894 4.04-3.965.488 3.871-.883 6.09-4.094 6.657a3.79 3.79 0 0 1-.074-.473 22.871 22.871 0 0 1-.621 3.535c.996-1.183 2.574-2.012 4.75-2.5-.656 3.965-2.59 5.883-5.781 5.734a29.425 29.425 0 0 1-1.86 3.872c1.801-2.086 4.336-2.688 7.64-1.805-2.776 3.273-5.444 4.117-8.034 2.539a41.136 41.136 0 0 1-2.594 3.684c2.555-1.954 5.445-2.012 8.676-.168-3.867 2.78-6.91 2.988-9.086.64-2.727 3.328-6.238 6.578-10.555 9.754l-1.598-.976c6.422-3.985 11.157-8.364 14.18-13.122-2.988-.996-3.664-3.402-2.027-7.218 2.57 1.804 3.433 3.851 2.644 6.183 1.653-2.855 2.707-5.828 3.137-8.93-3.004-.242-4.242-2.238-3.7-5.976 2.368.918 3.665 2.234 3.927 3.965.074-1.524.039-3.063-.133-4.645 0 .227-.02.473-.055.735-3.082.093-4.621-1.75-4.582-5.508 2.477.64 3.961 1.785 4.469 3.457a42.213 42.213 0 0 0-.903-3.984c-2.648.675-4.414-.582-5.332-3.758 2.274.035 3.848.656 4.75 1.879-.43-1.242-.937-2.5-1.539-3.762.094.266.168.547.227.848-2.816.77-4.715-.528-5.691-3.875 2.515.02 4.207.754 5.09 2.203a61.701 61.701 0 0 0-1.919-3.63c-2.515.509-4.187-.734-5.07-3.76Zm6.895 5.735c-1.559-2.106-1.164-4.286 1.183-6.579 1.746 3.043 1.352 5.243-1.183 6.579Zm-.903 18.406c3.172 1.785 4.168 4.097 2.97 6.937-3.196-.66-4.188-2.972-2.97-6.937ZM88.902 76.89c-.433.601-.957 1.015-1.597 1.261l3.57 5.434h-2.48l-3.23-4.984c-.321 0-.77-.016-1.353-.055v5.039h-2.214v-12.05c.109 0 .562-.02 1.37-.06a47.631 47.631 0 0 1 1.97-.054c3.042 0 4.582 1.183 4.582 3.535a3.24 3.24 0 0 1-.618 1.934Zm7.98-29.797c3.024 2.668 3.532 5.472 1.485 8.441-3.324-1.41-3.832-4.21-1.484-8.441Zm6.97-22.43c-1.317-2.234-.696-4.379 1.855-6.465 1.43 3.196.809 5.34-1.855 6.465Zm-52.774-9.926c.66 0 1.184.153 1.578.453.375.32.563.73.563 1.258 0 .508-.242 1.13-.73 1.863l-1.352 2.028h2.441v1.035h-4.246v-.336l2.047-3.027c.414-.621.621-1.13.621-1.543 0-.489-.3-.735-.902-.735-.45 0-.805.246-1.07.735l-.79-.621c.153-.32.395-.582.735-.79.355-.206.73-.32 1.105-.32Zm-5.05 0c.656 0 1.183.153 1.577.453.375.32.563.73.563 1.258 0 .508-.242 1.13-.73 1.863l-1.352 2.028h2.441v1.035h-4.246v-.336l2.047-3.027c.414-.621.621-1.13.621-1.543 0-.489-.3-.735-.902-.735-.45 0-.809.246-1.07.735l-.79-.621c.153-.32.395-.582.735-.79.355-.206.71-.32 1.105-.32Zm-3.118 5.793c-.414.617-.976.918-1.707.918-.808 0-1.39-.281-1.766-.844-.374-.582-.562-1.484-.562-2.707 0-.882.203-1.636.637-2.257.433-.621 1.015-.922 1.746-.922 1.523 0 2.273 1.11 2.273 3.308 0 1.075-.207 1.883-.62 2.504Zm-.582-2.52c0-.886-.074-1.488-.242-1.823-.172-.34-.453-.508-.848-.508-.77 0-1.144.77-1.144 2.332 0 .863.074 1.504.246 1.918.168.41.45.617.844.617.414 0 .714-.188.902-.563.168-.355.242-1.015.242-1.972Zm-24.281 3.231c-2.555-1.332-2.93-3.515-1.184-6.578 2.348 2.274 2.723 4.473 1.184 6.578Zm5.39-7.555a72.845 72.845 0 0 0-1.652 2.442c.824-.41 1.875-.617 3.137-.617-.883 3.023-2.555 4.265-5.035 3.703a61.607 61.607 0 0 0-1.914 3.629c.882-1.45 2.57-2.184 5.09-2.203-.997 3.347-2.895 4.644-5.711 3.875.058-.301.132-.582.226-.848a40.232 40.232 0 0 0-1.539 3.762c.898-1.223 2.477-1.844 4.75-1.88-.922 3.177-2.703 4.434-5.332 3.759a43.506 43.506 0 0 0-.902 3.984c.508-1.672 1.988-2.816 4.468-3.457.04 3.758-1.484 5.602-4.582 5.508a4.973 4.973 0 0 1-.054-.735 29.498 29.498 0 0 0-.133 4.645c.262-1.73 1.578-3.047 3.926-3.965.543 3.738-.696 5.75-3.7 5.977.45 3.101 1.5 6.09 3.133 8.93-.804-2.333.078-4.38 2.649-6.184 1.652 3.816.976 6.222-2.028 7.218 3.024 4.758 7.758 9.137 14.18 13.122l-1.598.976c-4.32-3.156-7.847-6.41-10.554-9.754-2.196 2.348-5.219 2.121-9.09-.64 3.23-1.844 6.125-1.786 8.68.168a40.353 40.353 0 0 1-2.594-3.684c-2.59 1.598-5.258.754-8.04-2.54 3.29-.882 5.845-.28 7.645 1.806a32 32 0 0 1-1.86-3.871c-3.19.148-5.124-1.77-5.784-5.735 2.18.488 3.758 1.317 4.754 2.5a23.631 23.631 0 0 1-.621-3.535c-.02.152-.036.3-.075.473-3.21-.567-4.582-2.786-4.093-6.657 2.234 1.07 3.566 2.387 4.035 3.965 0-1.37.097-2.761.3-4.152a5.158 5.158 0 0 1-.562 1.203c-2.965-1.223-3.66-3.648-2.047-7.203 1.934 1.582 2.856 3.2 2.817 4.871.226-1.164.527-2.313.902-3.461-.04.078-.074.152-.133.227-2.684-1.145-3.285-3.309-1.86-6.485 1.919 1.559 2.743 3.156 2.5 4.832 1.052-2.898 2.571-5.847 4.544-8.855.207-.867.601-1.543 1.183-2.051-2.195-1.277-2.496-3.29-.902-6.07 1.918 1.86 2.46 3.644 1.637 5.375.582-.809 1.199-1.598 1.84-2.367.507-2.22 2.269-3.329 5.277-3.368-.922 3.14-2.707 4.364-5.336 3.649.02-.114.039-.188.058-.281Zm12.524 1.051c.66 0 1.184.153 1.578.453.375.32.563.73.563 1.258 0 .508-.243 1.13-.73 1.863L36.02 20.34h2.44v1.035h-4.245v-.336l2.047-3.027c.414-.621.62-1.13.62-1.543 0-.489-.3-.735-.902-.735-.449 0-.808.246-1.07.735l-.789-.621c.152-.32.395-.582.734-.79.336-.206.711-.32 1.106-.32Zm1.672 31.32 4.828 12.223h-2.367l-.864-2.445h-4.132l-.844 2.445h-2.387l4.828-12.222Zm.996 8.16-1.465-4.472-1.426 4.473Zm-1.973 17.317 2.442 7.274 2.254-7.274h2.253L39.7 83.754h-.902l-2.61-7.613-2.554 7.613h-.903l-3.96-12.219h2.253l2.254 7.274 2.442-7.274ZM18.95 39.648c1.219 3.97.223 6.282-2.969 6.938-1.218-2.84-.222-5.152 2.97-6.938Zm2.684 15.942c-2.047-2.969-1.54-5.77 1.484-8.438 2.348 4.227 1.86 7.028-1.484 8.438Zm44.36-5.32c.581-.657 1.331-.977 2.269-.977.715 0 1.258.113 1.636.34l-.867 1.765a2.151 2.151 0 0 0-1.199-.355c-.488 0-.902.207-1.258.637-.379.433-.566.96-.566 1.582v5.02H63.96V49.46h2.047v.809Zm10.25-4.098 2.085-.469v12.594h-2.086v-.524c-.168.188-.449.356-.844.508a4.16 4.16 0 0 1-1.257.188c-1.239 0-2.196-.395-2.891-1.184-.715-.773-1.07-1.863-1.07-3.254 0-1.39.394-2.52 1.199-3.402.808-.883 1.824-1.316 3.023-1.316.676 0 1.278.132 1.825.414v-3.555Zm8.714 3.742-.602 1.598c-.449-.375-1.07-.563-1.859-.563-.73 0-1.086.281-1.086.844 0 .227.11.434.356.621.226.188.73.434 1.52.734.769.301 1.316.657 1.651 1.09.34.434.508.957.508 1.578 0 .829-.3 1.47-.902 1.938-.598.469-1.426.695-2.477.695-.582 0-1.05-.039-1.41-.133-.355-.093-.804-.28-1.37-.582l.734-1.636a3.252 3.252 0 0 0 2.082.734c.808 0 1.203-.281 1.203-.863 0-.34-.114-.602-.356-.809-.246-.226-.715-.472-1.41-.754-1.52-.636-2.27-1.523-2.27-2.648 0-.774.282-1.375.864-1.805.582-.433 1.312-.64 2.215-.64.937-.02 1.8.187 2.609.601Zm-40.977-.453 1.766 5.266 2.16-5.266h.73l2.22 5.32 1.914-5.32h2.027l-3.305 8.988h-.75l-2.441-5.414-2.422 5.434h-.754L41.82 49.48h2.16Zm14.348-.168c1.352 0 2.348.3 2.969.922.617.62.918 1.785.918 3.476v1.883c0 1.184.226 1.918.695 2.219-.168.3-.355.469-.562.523-.207.079-.45.114-.735.114-.281 0-.543-.114-.785-.336-.246-.227-.394-.453-.473-.7-.187.301-.503.547-.957.754a3.909 3.909 0 0 1-1.464.282c-.957 0-1.707-.227-2.254-.696-.543-.488-.805-1.164-.805-2.03 0-1.032.375-1.84 1.145-2.427.77-.562 1.859-.843 3.25-.843.242 0 .523.039.843.113 0-1.035-.656-1.543-1.972-1.543-.77 0-1.41.113-1.934.36l-.414-1.583c.734-.32 1.559-.488 2.535-.488Zm1.07 4.758c-1.632 0-2.441.527-2.441 1.578 0 .809.453 1.203 1.371 1.203 1.238 0 1.86-.621 1.86-1.86v-.847a5.496 5.496 0 0 0-.79-.074ZM47.043 71.535v12.05h-2.16v-12.05Zm3.547 0 5.672 7.274v-7.274h2.047v12.219h-.864l-5.84-7.652v7.484H49.56v-12.05Zm11.25 0 5.672 7.274v-7.274h2.047v12.219h-.864l-5.84-7.652v7.484H60.81v-12.05ZM76.242 51.57c-.43-.34-.879-.508-1.367-.508-.828 0-1.45.243-1.879.75-.453.489-.676 1.204-.676 2.145 0 1.84.883 2.762 2.649 2.762.203 0 .449-.055.73-.168.301-.133.489-.246.563-.36v-4.62ZM74.16 76.254h4v1.824h-3.98v3.59h5.48v1.918h-7.605v-12.05h7.703v1.917h-5.563v2.8Zm9.672.469c.395.039.695.054.898.054.903 0 1.563-.109 1.973-.355.414-.262.621-.75.621-1.484 0-.583-.226-.997-.676-1.243-.433-.242-1.128-.355-2.085-.355-.243 0-.489.02-.731.055Zm-69.523-58.47c2.554 2.087 3.156 4.231 1.859 6.47-2.684-1.13-3.305-3.274-1.86-6.47Zm0 0" style="stroke:none;fill-rule:evenodd;fill:#999;fill-opacity:1"></path>
  <path d="M93.598 24.195c.316.47.468 1.016.468 1.657 0 .918-.28 1.652-.847 2.199-.563.543-1.258.808-2.102.808-.133 0-.3 0-.527-.02l-.297-.058c-.04 0-.172.059-.395.172-.246.113-.359.223-.359.336 0 .188.168.285.527.285.149 0 .395-.039.75-.113.375-.078.696-.113.957-.113 1.825 0 2.723.73 2.723 2.199 0 .828-.355 1.465-1.086 1.918-.734.469-1.617.695-2.648.695a5.381 5.381 0 0 1-3.305-1.09l1.18-1.468c.66.601 1.39.902 2.199.902.527 0 .957-.074 1.312-.223.36-.172.528-.394.528-.68 0-.468-.395-.695-1.184-.695-.207 0-.508.02-.918.074-.414.04-.715.06-.922.06-1.297 0-1.933-.454-1.933-1.372 0-.266.094-.527.3-.793.223-.242.47-.43.75-.563-.917-.582-1.37-1.43-1.37-2.539 0-.843.32-1.539.956-2.105.641-.563 1.41-.844 2.329-.844.714 0 1.316.13 1.804.395l.73-.848 1.298 1.149Zm-1.825.563c-.261-.281-.601-.41-1.011-.41-.434 0-.77.129-1.035.41-.282.265-.41.601-.41 1.035 0 .469.128.848.39 1.129.266.3.621.45 1.074.45.45 0 .785-.13 1.031-.411.227-.285.336-.66.336-1.148-.015-.434-.128-.77-.375-1.055ZM72.996 20.64v2.312h2.195v1.524h-2.195v3.515c0 .582.074.996.242 1.242.188.227.508.34.957.34.453 0 .868-.113 1.262-.36v1.712c-.434.152-1.055.226-1.86.226-.808 0-1.429-.226-1.859-.675-.433-.454-.64-1.094-.64-1.918v-4.082h-.918v-1.524h.918V21.32Zm5.332-.47c.207.208.3.454.3.755 0 .3-.093.562-.3.789-.226.207-.488.3-.789.3-.3 0-.543-.093-.75-.3a1.122 1.122 0 0 1-.3-.79c0-.3.093-.546.3-.753.207-.207.45-.3.75-.3.3-.02.563.093.79.3Zm-45.766 2.032c-.43-.433-1.124-.64-2.082-.64-.921 0-1.671.378-2.253 1.148-.602.77-.903 1.746-.903 2.914 0 1.164.262 2.086.809 2.781.543.696 1.258 1.035 2.16 1.035 1.05 0 1.855-.359 2.437-1.09l.903 1.579c-.79.847-1.953 1.258-3.473 1.258-1.539 0-2.723-.508-3.57-1.52-.863-1.016-1.293-2.39-1.293-4.137 0-1.636.469-2.988 1.426-4.082.937-1.09 2.14-1.633 3.586-1.633 1.257 0 2.273.243 3.023.75Zm8.903 4.774c0 1.28-.34 2.296-1.031 3.027-.696.754-1.637 1.129-2.82 1.129-1.22 0-2.157-.375-2.833-1.13-.695-.769-1.035-1.784-1.035-3.026 0-1.239.356-2.235 1.07-3.008.715-.77 1.653-1.145 2.817-1.145 1.222 0 2.16.375 2.836 1.13.656.71.996 1.726.996 3.023Zm-2.48 1.937c.34-.45.507-1.09.507-1.937 0-1.766-.617-2.649-1.879-2.649-.597 0-1.07.227-1.406.695-.34.47-.508 1.11-.508 1.938 0 1.766.64 2.648 1.914 2.648.582 0 1.035-.226 1.371-.695Zm47.023-5.227c.547.567.808 1.356.808 2.387V31h-1.859v-4.64c0-.7-.129-1.188-.394-1.489-.262-.316-.696-.469-1.293-.469a1.89 1.89 0 0 0-.868.227c-.316.148-.562.336-.73.582V31h-1.879v-8.047h1.352l.34.754c.507-.602 1.257-.902 2.273-.902.957 0 1.707.3 2.25.883ZM76.582 31v-6.484h-1.031v-1.543h2.91v8.047h-1.879Zm-12.094-2.95c0 1.032.45 1.54 1.371 1.54.434 0 .825-.113 1.184-.336.375-.227.617-.473.73-.754v-5.547h1.88V31h-1.88v-.676c-.261.227-.617.414-1.09.582a4.197 4.197 0 0 1-1.292.227c-1.86 0-2.782-.977-2.782-2.953v-5.227h1.88Zm-5.218-3.066c-.38-.375-.997-.562-1.86-.562-.453 0-.847.168-1.203.508v4.21c.336.282.73.415 1.203.415.863 0 1.48-.207 1.86-.621.375-.414.562-1.055.562-1.938-.02-.957-.187-1.617-.562-2.012Zm-3.063-2.03v.566c.469-.473 1.05-.696 1.746-.696 2.555 0 3.813 1.41 3.813 4.211 0 1.336-.34 2.348-1.036 3.027-.71.715-1.667 1.07-2.89 1.07a3.829 3.829 0 0 1-1.633-.339v3.348h-1.86V22.953ZM53.277 31h-1.859v-5.04c0-1.05-.469-1.577-1.426-1.577-.285 0-.547.074-.808.246a1.345 1.345 0 0 0-.528.562v5.79h-1.875v-5.32c0-.395-.113-.712-.36-.958-.241-.226-.581-.34-1.03-.34-.227 0-.47.078-.754.246-.282.168-.469.356-.582.582v5.774H42.18v-8.047h1.293l.359.695c.523-.566 1.2-.847 2.027-.847 1.07 0 1.88.28 2.422.867.227-.266.547-.473.977-.621a3.293 3.293 0 0 1 1.258-.246c.882 0 1.578.265 2.086.789.488.508.73 1.203.73 2.09V31Zm0 0" style="stroke:none;fill-rule:evenodd;fill:#006;fill-opacity:1"></path>
  <path d="M33.465 32.598c1.37 0 2.367.265 3.004.793l-.617 1.804c-.754-.527-1.543-.793-2.368-.793-.488 0-.863.133-1.129.395a1.334 1.334 0 0 0-.394.98c0 .696.754 1.41 2.254 2.141.808.395 1.37.754 1.71 1.074.356.336.618.715.805 1.145.192.433.286.922.286 1.468 0 .958-.38 1.747-1.149 2.368-.75.62-1.765.922-3.023.922-1.106 0-2.102-.282-3.004-.848l.789-1.918c.828.601 1.633.902 2.441.902 1.239 0 1.86-.43 1.86-1.312 0-.395-.133-.774-.414-1.149-.301-.355-.903-.77-1.801-1.242-.922-.45-1.543-.824-1.86-1.125a2.78 2.78 0 0 1-.734-1.035 3.56 3.56 0 0 1-.242-1.355c0-.918.336-1.672 1.012-2.274.66-.64 1.523-.941 2.574-.941Zm6.703 9.984c.453.395 1.035.582 1.766.582.941 0 1.632-.242 2.105-.734l.79 1.543c-.716.582-1.767.867-3.177.867-1.332 0-2.382-.38-3.136-1.149-.77-.789-1.145-1.879-1.145-3.254 0-1.37.414-2.48 1.258-3.308.844-.863 1.86-1.297 3.023-1.297 1.258 0 2.274.375 3.024 1.148.77.75 1.144 1.711 1.144 2.875 0 .247-.054.622-.168 1.13h-6.195c.035.675.281 1.222.711 1.597Zm35.793-6.578h4.434l2.367 6.016 2.14-6.016h2.102L83.21 46.098c-.227.562-.695 1.035-1.406 1.43-.715.374-1.543.562-2.48.562v-1.805c1.558 0 2.327-.375 2.327-1.144 0-.528-.207-1.317-.636-2.391l-2.668-6.617v1.484H75.96v3.801c0 .637.094 1.07.281 1.312.207.266.547.399 1.035.399.489 0 .938-.133 1.352-.399v1.864c-.469.168-1.125.246-1.992.246-.88 0-1.54-.246-1.989-.735-.468-.488-.695-1.183-.695-2.105v-4.383h-1.016v-1.633h1.016v-1.77l2.027-.73v2.52Zm-7.023.074v-.074h3.136v8.684h-2.047v-7.032h-1.09v-1.148l-.695 1.375a2.153 2.153 0 0 0-1.18-.34c-.472 0-.882.207-1.242.621-.375.434-.562.957-.562 1.578v4.946H63.23v-8.684h2.028v.789c.562-.64 1.316-.961 2.254-.961.601 0 1.07.074 1.425.246Zm2.14-3.422c.34 0 .621.114.848.336.222.227.336.492.336.809 0 .34-.114.62-.336.847-.227.227-.508.34-.848.34-.316 0-.582-.113-.805-.34a1.148 1.148 0 0 1-.34-.847c0-.317.114-.582.34-.809.223-.222.489-.336.805-.336ZM56.32 36.004v5.488c0 1.13.489 1.692 1.485 1.692.468 0 .898-.114 1.293-.356.394-.246.66-.527.789-.848v-5.96h2.027v8.687h-2.027v-.734c-.282.246-.676.453-1.184.64a4.472 4.472 0 0 1-1.406.242c-2.012 0-3.004-1.07-3.004-3.195v-5.656Zm-3.57 6.41.734 1.598c-.582.355-1.09.582-1.523.695-.45.094-.977.133-1.574.133-1.356 0-2.407-.399-3.176-1.188-.77-.789-1.145-1.879-1.145-3.25 0-1.375.414-2.484 1.258-3.308.844-.848 1.992-1.262 3.457-1.262 1.012 0 1.895.281 2.645.867l-.864 1.52c-.468-.45-1.105-.676-1.914-.676-.77 0-1.37.246-1.804.754-.45.508-.676 1.203-.676 2.105 0 1.84.863 2.762 2.594 2.762.73 0 1.406-.262 1.988-.75Zm-11.059-4.871c-1.148 0-1.859.621-2.14 1.879h4.242c-.133-1.258-.844-1.879-2.102-1.879Zm0 0" style="stroke:none;fill-rule:evenodd;fill:#000;fill-opacity:1"></path>
</svg>
