<?xml version="1.0" encoding="UTF-8"?>
<!-- Generator: Adobe Illustrator 27.0.1, SVG Export Plug-In . SVG Version: 6.00 Build 0)  -->
<svg xmlns="http://www.w3.org/2000/svg" xmlns:xlink="http://www.w3.org/1999/xlink" version="1.1" id="Layer_1" x="0px" y="0px" viewBox="0 0 638.6 500" style="enable-background:new 0 0 638.6 500;" xml:space="preserve">
<style type="text/css">
	.st0{fill-rule:evenodd;clip-rule:evenodd;fill:#999999;}
	.st1{fill-rule:evenodd;clip-rule:evenodd;fill:#000066;}
	.st2{fill-rule:evenodd;clip-rule:evenodd;}
</style>
<g>
	<path class="st0" d="M486,54.5c16,0.2,25.4,6.2,28.1,17.9c0.1,0.5,0.2,1,0.3,1.5C500.3,77.7,490.8,71.3,486,54.5z M506.1,82.2   c6.8,0,12.4,1.1,16.7,3.3c-2.8-4.3-5.7-8.6-8.8-13c3.4,4.2,6.7,8.4,9.9,12.6c-4.4-9.2-1.5-18.7,8.7-28.6   c8.5,14.8,6.9,25.5-4.8,32.3c3.1,2.7,5.2,6.3,6.3,10.9c10.6,15.9,18.6,31.6,24.2,47.1c-1.3-8.9,3.1-17.4,13.3-25.7   c7.7,16.9,4.4,28.5-9.9,34.5c-0.3-0.4-0.5-0.8-0.7-1.2c2,6.1,3.6,12.2,4.8,18.4c-0.3-8.9,4.7-17.5,15-25.9   c8.6,18.9,4.9,31.8-10.9,38.6c-1.3-2.1-2.3-4.2-3-6.4c1.1,7.5,1.6,14.9,1.6,22.1c2.5-8.4,9.7-15.4,21.5-21.1   c2.6,20.6-4.7,32.4-21.8,35.4c-0.2-0.9-0.3-1.7-0.4-2.5c-0.6,6.3-1.7,12.6-3.3,18.8c5.3-6.3,13.7-10.7,25.3-13.3   c-3.5,21.1-13.8,31.3-30.8,30.5c-2.7,6.9-6,13.8-9.9,20.6c9.6-11.1,23.1-14.3,40.7-9.6c-14.8,17.4-29,21.9-42.8,13.5   c-4.1,6.6-8.7,13.1-13.8,19.6c13.6-10.4,29-10.7,46.2-0.9c-20.6,14.8-36.8,15.9-48.4,3.4c-14.5,17.7-33.2,35-56.2,51.9l-8.5-5.2   c34.2-21.2,59.4-44.5,75.5-69.8c-15.9-5.3-19.5-18.1-10.8-38.4c13.7,9.6,18.3,20.5,14.1,32.9c8.8-15.2,14.4-31,16.7-47.5   c-16-1.3-22.6-11.9-19.7-31.8c12.6,4.9,19.5,11.9,20.9,21.1c0.4-8.1,0.2-16.3-0.7-24.7c0,1.2-0.1,2.5-0.3,3.9   c-16.4,0.5-24.6-9.3-24.4-29.3c13.2,3.4,21.1,9.5,23.8,18.4c-1.2-6.9-2.8-14-4.8-21.2c-14.1,3.6-23.5-3.1-28.4-20   c12.1,0.2,20.5,3.5,25.3,10c-2.3-6.6-5-13.3-8.2-20c0.5,1.4,0.9,2.9,1.2,4.5c-15,4.1-25.1-2.8-30.3-20.6c13.4,0.1,22.4,4,27.1,11.7   c-3.1-6.4-6.5-12.8-10.2-19.3C519.7,104.9,510.8,98.3,506.1,82.2z M542.8,112.7c-8.3-11.2-6.2-22.8,6.3-35   C558.4,93.9,556.3,105.6,542.8,112.7z M538,210.6c16.9,9.5,22.2,21.8,15.8,36.9C536.8,244,531.5,231.7,538,210.6z M473.2,409   c-2.3,3.2-5.1,5.4-8.5,6.7l19,28.9h-13.2l-17.2-26.5c-1.7,0-4.1-0.1-7.2-0.3v26.8h-11.8v-64.1c0.6,0,3-0.1,7.3-0.3   c4.3-0.2,7.8-0.3,10.5-0.3c16.2,0,24.4,6.3,24.4,18.8C476.5,402.5,475.4,405.9,473.2,409z M515.7,250.5   c16.1,14.2,18.8,29.1,7.9,44.9C505.9,287.9,503.2,273,515.7,250.5z M552.8,131.2c-7-11.9-3.7-23.3,9.9-34.4   C570.3,113.8,567,125.2,552.8,131.2z M271.8,78.4c3.5,0,6.3,0.8,8.4,2.4c2,1.7,3,3.9,3,6.7c0,2.7-1.3,6-3.9,9.9l-7.2,10.8h13v5.5   h-22.6v-1.8l10.9-16.1c2.2-3.3,3.3-6,3.3-8.2c0-2.6-1.6-3.9-4.8-3.9c-2.4,0-4.3,1.3-5.7,3.9l-4.2-3.3c0.8-1.7,2.1-3.1,3.9-4.2   C267.8,79,269.8,78.4,271.8,78.4z M244.9,78.4c3.5,0,6.3,0.8,8.4,2.4c2,1.7,3,3.9,3,6.7c0,2.7-1.3,6-3.9,9.9l-7.2,10.8h13v5.5   h-22.6v-1.8l10.9-16.1c2.2-3.3,3.3-6,3.3-8.2c0-2.6-1.6-3.9-4.8-3.9c-2.4,0-4.3,1.3-5.7,3.9l-4.2-3.3c0.8-1.7,2.1-3.1,3.9-4.2   C240.9,79,242.8,78.4,244.9,78.4z M228.3,109.2c-2.2,3.3-5.2,4.9-9.1,4.9c-4.3,0-7.4-1.5-9.4-4.5c-2-3.1-3-7.9-3-14.4   c0-4.7,1.1-8.7,3.4-12c2.3-3.3,5.4-4.9,9.3-4.9c8.1,0,12.1,5.9,12.1,17.6C231.6,101.6,230.5,105.9,228.3,109.2z M225.2,95.8   c0-4.7-0.4-7.9-1.3-9.7c-0.9-1.8-2.4-2.7-4.5-2.7c-4.1,0-6.1,4.1-6.1,12.4c0,4.6,0.4,8,1.3,10.2c0.9,2.2,2.4,3.3,4.5,3.3   c2.2,0,3.8-1,4.8-3C224.8,104.4,225.2,100.9,225.2,95.8z M95.9,113c-13.6-7.1-15.6-18.7-6.3-35C102.1,90.1,104.1,101.8,95.9,113z    M124.6,72.8c-3.1,4.4-6,8.7-8.8,13c4.4-2.2,10-3.3,16.7-3.3c-4.7,16.1-13.6,22.7-26.8,19.7c-3.7,6.5-7.1,12.9-10.2,19.3   c4.7-7.7,13.7-11.6,27.1-11.7c-5.3,17.8-15.4,24.7-30.4,20.6c0.3-1.6,0.7-3.1,1.2-4.5c-3.2,6.8-5.9,13.5-8.2,20   c4.8-6.5,13.2-9.8,25.3-10c-4.9,16.9-14.4,23.6-28.4,20c-2,7.3-3.6,14.4-4.8,21.2c2.7-8.9,10.6-15,23.8-18.4   c0.2,20-7.9,29.8-24.4,29.3c-0.2-1.4-0.3-2.7-0.3-3.9c-0.9,8.4-1.1,16.6-0.7,24.7c1.4-9.2,8.4-16.2,20.9-21.1   c2.9,19.9-3.7,30.6-19.7,31.8c2.4,16.5,8,32.4,16.7,47.5c-4.3-12.4,0.4-23.3,14.1-32.9c8.8,20.3,5.2,33.1-10.8,38.4   c16.1,25.3,41.3,48.6,75.5,69.8l-8.5,5.2c-23-16.8-41.8-34.1-56.2-51.9c-11.7,12.5-27.8,11.3-48.4-3.4c17.2-9.8,32.6-9.5,46.2,0.9   c-5.1-6.5-9.7-13-13.8-19.6c-13.8,8.5-28,4-42.8-13.5c17.5-4.7,31.1-1.5,40.7,9.6c-3.9-6.9-7.2-13.8-9.9-20.6   c-17,0.8-27.3-9.4-30.8-30.5c11.6,2.6,20,7,25.3,13.3c-1.6-6.3-2.7-12.6-3.3-18.8c-0.1,0.8-0.2,1.6-0.4,2.5   c-17.1-3-24.4-14.8-21.8-35.4c11.9,5.7,19,12.7,21.5,21.1c0-7.3,0.5-14.7,1.6-22.1c-0.7,2.2-1.7,4.3-3,6.4   C53,179,49.3,166.1,57.9,147.2c10.3,8.4,15.2,17,15,25.9c1.2-6.2,2.8-12.3,4.8-18.4c-0.2,0.4-0.4,0.8-0.7,1.2   c-14.3-6.1-17.5-17.6-9.9-34.5c10.2,8.3,14.6,16.8,13.3,25.7c5.6-15.4,13.7-31.1,24.2-47.1c1.1-4.6,3.2-8.2,6.3-10.9   c-11.7-6.8-13.3-17.5-4.8-32.3c10.2,9.9,13.1,19.4,8.7,28.6C117.9,81.1,121.2,76.9,124.6,72.8c2.7-11.8,12.1-17.7,28.1-17.9   c-4.9,16.7-14.4,23.2-28.4,19.4C124.4,73.7,124.5,73.3,124.6,72.8z M191.3,78.4c3.5,0,6.3,0.8,8.4,2.4c2,1.7,3,3.9,3,6.7   c0,2.7-1.3,6-3.9,9.9l-7.2,10.8h13v5.5H182v-1.8l10.9-16.1c2.2-3.3,3.3-6,3.3-8.2c0-2.6-1.6-3.9-4.8-3.9c-2.4,0-4.3,1.3-5.7,3.9   l-4.2-3.3c0.8-1.7,2.1-3.1,3.9-4.2C187.2,79,189.2,78.4,191.3,78.4z M200.2,245l25.7,65h-12.6l-4.6-13h-22l-4.5,13h-12.7l25.7-65   H200.2z M205.5,288.4l-7.8-23.8l-7.6,23.8H205.5z M195,380.5l13,38.7l12-38.7h12l-20.8,65h-4.8L192.5,405l-13.6,40.5h-4.8l-21.1-65   h12l12,38.7l13-38.7H195z M100.7,210.9c6.5,21.1,1.2,33.4-15.8,36.9C78.4,232.7,83.7,220.4,100.7,210.9z M115,295.7   c-10.9-15.8-8.2-30.7,7.9-44.9C135.4,273.3,132.8,288.2,115,295.7z M351.2,267.4c3.1-3.5,7.1-5.2,12.1-5.2c3.8,0,6.7,0.6,8.7,1.8   l-4.6,9.4c-2-1.3-4.1-1.9-6.4-1.9c-2.6,0-4.8,1.1-6.7,3.4c-2,2.3-3,5.1-3,8.4V310h-10.9v-46.9h10.9V267.4z M405.8,245.6l11.1-2.5   v67h-11.1v-2.8c-0.9,1-2.4,1.9-4.5,2.7c-2.2,0.7-4.4,1-6.7,1c-6.6,0-11.7-2.1-15.4-6.3c-3.8-4.1-5.7-9.9-5.7-17.3   c0-7.4,2.1-13.4,6.4-18.1c4.3-4.7,9.7-7,16.1-7c3.6,0,6.8,0.7,9.7,2.2V245.6z M452.2,265.5L449,274c-2.4-2-5.7-3-9.9-3   c-3.9,0-5.8,1.5-5.8,4.5c0,1.2,0.6,2.3,1.9,3.3c1.2,1,3.9,2.3,8.1,3.9c4.1,1.6,7,3.5,8.8,5.8c1.8,2.3,2.7,5.1,2.7,8.4   c0,4.4-1.6,7.8-4.8,10.3c-3.2,2.5-7.6,3.7-13.2,3.7c-3.1,0-5.6-0.2-7.5-0.7c-1.9-0.5-4.3-1.5-7.3-3.1l3.9-8.7   c3.3,2.6,7,3.9,11.1,3.9c4.3,0,6.4-1.5,6.4-4.6c0-1.8-0.6-3.2-1.9-4.3c-1.3-1.2-3.8-2.5-7.5-4c-8.1-3.4-12.1-8.1-12.1-14.1   c0-4.1,1.5-7.3,4.6-9.6c3.1-2.3,7-3.4,11.8-3.4C443.3,262.2,447.9,263.3,452.2,265.5z M234,263.1l9.4,28l11.5-28h3.9l11.8,28.3   l10.2-28.3h10.8l-17.6,47.8h-4L257,282.1l-12.9,28.9h-4l-17.6-47.8H234z M310.4,262.2c7.2,0,12.5,1.6,15.8,4.9   c3.3,3.3,4.9,9.5,4.9,18.5v10c0,6.3,1.2,10.2,3.7,11.8c-0.9,1.6-1.9,2.5-3,2.8c-1.1,0.4-2.4,0.6-3.9,0.6c-1.5,0-2.9-0.6-4.2-1.8   c-1.3-1.2-2.1-2.4-2.5-3.7c-1,1.6-2.7,2.9-5.1,4c-2.5,1-5.1,1.5-7.8,1.5c-5.1,0-9.1-1.2-12-3.7c-2.9-2.6-4.3-6.2-4.3-10.8   c0-5.5,2-9.8,6.1-12.9c4.1-3,9.9-4.5,17.3-4.5c1.3,0,2.8,0.2,4.5,0.6c0-5.5-3.5-8.2-10.5-8.2c-4.1,0-7.5,0.6-10.3,1.9l-2.2-8.4   C300.8,263.1,305.2,262.2,310.4,262.2z M316.1,287.5c-8.7,0-13,2.8-13,8.4c0,4.3,2.4,6.4,7.3,6.4c6.6,0,9.9-3.3,9.9-9.9v-4.5   C318.4,287.6,317,287.5,316.1,287.5z M250.3,380.5v64.1h-11.5v-64.1H250.3z M269.2,380.5l30.2,38.7v-38.7h10.9v65h-4.6l-31.1-40.7   v39.8h-10.9v-64.1H269.2z M329.1,380.5l30.2,38.7v-38.7h10.9v65h-4.6l-31.1-40.7v39.8h-10.9v-64.1H329.1z M405.8,274.3   c-2.3-1.8-4.7-2.7-7.3-2.7c-4.4,0-7.7,1.3-10,4c-2.4,2.6-3.6,6.4-3.6,11.4c0,9.8,4.7,14.7,14.1,14.7c1.1,0,2.4-0.3,3.9-0.9   c1.6-0.7,2.6-1.3,3-1.9V274.3z M394.7,405.6H416v9.7h-21.2v19.1h29.2v10.2h-40.5v-64.1h41v10.2h-29.6V405.6z M446.2,408.1   c2.1,0.2,3.7,0.3,4.8,0.3c4.8,0,8.3-0.6,10.5-1.9c2.2-1.4,3.3-4,3.3-7.9c0-3.1-1.2-5.3-3.6-6.6c-2.3-1.3-6-1.9-11.1-1.9   c-1.3,0-2.6,0.1-3.9,0.3V408.1z M76,97.1c13.6,11.1,16.8,22.5,9.9,34.4C71.6,125.5,68.3,114.1,76,97.1z"></path>
	<path class="st1" d="M498.2,128.7c1.7,2.5,2.5,5.4,2.5,8.8c0,4.9-1.5,8.8-4.5,11.7c-3,2.9-6.7,4.3-11.2,4.3c-0.7,0-1.6,0-2.8-0.1   l-1.6-0.3c-0.2,0-0.9,0.3-2.1,0.9c-1.3,0.6-1.9,1.2-1.9,1.8c0,1,0.9,1.5,2.8,1.5c0.8,0,2.1-0.2,4-0.6c2-0.4,3.7-0.6,5.1-0.6   c9.7,0,14.5,3.9,14.5,11.7c0,4.4-1.9,7.8-5.8,10.2c-3.9,2.5-8.6,3.7-14.1,3.7c-6.5,0-12.4-1.9-17.6-5.8l6.3-7.8   c3.5,3.2,7.4,4.8,11.7,4.8c2.8,0,5.1-0.4,7-1.2c1.9-0.9,2.8-2.1,2.8-3.6c0-2.5-2.1-3.7-6.3-3.7c-1.1,0-2.7,0.1-4.9,0.4   c-2.2,0.2-3.8,0.3-4.9,0.3c-6.9,0-10.3-2.4-10.3-7.3c0-1.4,0.5-2.8,1.6-4.2c1.2-1.3,2.5-2.3,4-3c-4.9-3.1-7.3-7.6-7.3-13.5   c0-4.5,1.7-8.2,5.1-11.2c3.4-3,7.5-4.5,12.4-4.5c3.8,0,7,0.7,9.6,2.1l3.9-4.5l6.9,6.1L498.2,128.7z M488.5,131.7   c-1.4-1.5-3.2-2.2-5.4-2.2c-2.3,0-4.1,0.7-5.5,2.2c-1.5,1.4-2.2,3.2-2.2,5.5c0,2.5,0.7,4.5,2.1,6c1.4,1.6,3.3,2.4,5.7,2.4   c2.4,0,4.2-0.7,5.5-2.2c1.2-1.5,1.8-3.5,1.8-6.1C490.4,135,489.8,133.2,488.5,131.7z M388.5,109.8v12.3h11.7v8.1h-11.7v18.7   c0,3.1,0.4,5.3,1.3,6.6c1,1.2,2.7,1.8,5.1,1.8c2.4,0,4.6-0.6,6.7-1.9v9.1c-2.3,0.8-5.6,1.2-9.9,1.2c-4.3,0-7.6-1.2-9.9-3.6   c-2.3-2.4-3.4-5.8-3.4-10.2v-21.7h-4.9v-8.1h4.9v-8.7L388.5,109.8z M416.9,107.3c1.1,1.1,1.6,2.4,1.6,4c0,1.6-0.5,3-1.6,4.2   c-1.2,1.1-2.6,1.6-4.2,1.6c-1.6,0-2.9-0.5-4-1.6c-1.1-1.2-1.6-2.6-1.6-4.2c0-1.6,0.5-2.9,1.6-4c1.1-1.1,2.4-1.6,4-1.6   C414.3,105.6,415.7,106.2,416.9,107.3z M173.2,118.1c-2.3-2.3-6-3.4-11.1-3.4c-4.9,0-8.9,2-12,6.1c-3.2,4.1-4.8,9.3-4.8,15.5   c0,6.2,1.4,11.1,4.3,14.8c2.9,3.7,6.7,5.5,11.5,5.5c5.6,0,9.9-1.9,13-5.8l4.8,8.4c-4.2,4.5-10.4,6.7-18.5,6.7   c-8.2,0-14.5-2.7-19-8.1c-4.6-5.4-6.9-12.7-6.9-22c0-8.7,2.5-15.9,7.6-21.7c5-5.8,11.4-8.7,19.1-8.7c6.7,0,12.1,1.3,16.1,4   L173.2,118.1z M220.6,143.5c0,6.8-1.8,12.2-5.5,16.1c-3.7,4-8.7,6-15,6c-6.5,0-11.5-2-15.1-6c-3.7-4.1-5.5-9.5-5.5-16.1   c0-6.6,1.9-11.9,5.7-16c3.8-4.1,8.8-6.1,15-6.1c6.5,0,11.5,2,15.1,6C218.8,131.2,220.6,136.6,220.6,143.5z M207.4,153.8   c1.8-2.4,2.7-5.8,2.7-10.3c0-9.4-3.3-14.1-10-14.1c-3.2,0-5.7,1.2-7.5,3.7c-1.8,2.5-2.7,5.9-2.7,10.3c0,9.4,3.4,14.1,10.2,14.1   C203.2,157.5,205.6,156.3,207.4,153.8z M457.8,126c2.9,3,4.3,7.2,4.3,12.7v26.2h-9.9v-24.7c0-3.7-0.7-6.3-2.1-7.9   c-1.4-1.7-3.7-2.5-6.9-2.5c-1.5,0-3,0.4-4.6,1.2c-1.7,0.8-3,1.8-3.9,3.1v30.8h-10v-42.8h7.2l1.8,4c2.7-3.2,6.7-4.8,12.1-4.8   C450.9,121.3,454.9,122.9,457.8,126z M407.6,164.9v-34.5h-5.5v-8.2h15.5v42.8H407.6z M343.2,149.2c0,5.5,2.4,8.2,7.3,8.2   c2.3,0,4.4-0.6,6.3-1.8c2-1.2,3.3-2.5,3.9-4v-29.5h10v42.8h-10v-3.6c-1.4,1.2-3.3,2.2-5.8,3.1c-2.5,0.8-4.8,1.2-6.9,1.2   c-9.9,0-14.8-5.2-14.8-15.7v-27.8h10V149.2z M315.4,132.9c-2-2-5.3-3-9.9-3c-2.4,0-4.5,0.9-6.4,2.7V155c1.8,1.5,3.9,2.2,6.4,2.2   c4.6,0,7.9-1.1,9.9-3.3c2-2.2,3-5.6,3-10.3C318.3,138.5,317.4,135,315.4,132.9z M299.1,122.1v3c2.5-2.5,5.6-3.7,9.3-3.7   c13.6,0,20.3,7.5,20.3,22.4c0,7.1-1.8,12.5-5.5,16.1c-3.8,3.8-8.9,5.7-15.4,5.7c-3.2,0-6.1-0.6-8.7-1.8v17.8h-9.9v-59.5H299.1z    M283.5,164.9h-9.9v-26.8c0-5.6-2.5-8.4-7.6-8.4c-1.5,0-2.9,0.4-4.3,1.3c-1.3,0.8-2.2,1.8-2.8,3v30.8h-10v-28.3   c0-2.1-0.6-3.8-1.9-5.1c-1.3-1.2-3.1-1.8-5.5-1.8c-1.2,0-2.5,0.4-4,1.3c-1.5,0.9-2.5,1.9-3.1,3.1v30.7h-10v-42.8h6.9l1.9,3.7   c2.8-3,6.4-4.5,10.8-4.5c5.7,0,10,1.5,12.9,4.6c1.2-1.4,2.9-2.5,5.2-3.3c2.2-0.9,4.4-1.3,6.7-1.3c4.7,0,8.4,1.4,11.1,4.2   c2.6,2.7,3.9,6.4,3.9,11.1V164.9z"></path>
	<path class="st2" d="M178,173.4c7.3,0,12.6,1.4,16,4.2l-3.3,9.6c-4-2.8-8.2-4.2-12.6-4.2c-2.6,0-4.6,0.7-6,2.1   c-1.4,1.4-2.1,3.1-2.1,5.2c0,3.7,4,7.5,12,11.4c4.3,2.1,7.3,4,9.1,5.7c1.9,1.8,3.3,3.8,4.3,6.1c1,2.3,1.5,4.9,1.5,7.8   c0,5.1-2,9.3-6.1,12.6c-4,3.3-9.4,4.9-16.1,4.9c-5.9,0-11.2-1.5-16-4.5l4.2-10.2c4.4,3.2,8.7,4.8,13,4.8c6.6,0,9.9-2.3,9.9-7   c0-2.1-0.7-4.1-2.2-6.1c-1.6-1.9-4.8-4.1-9.6-6.6c-4.9-2.4-8.2-4.4-9.9-6c-1.7-1.5-3-3.3-3.9-5.5c-0.9-2.2-1.3-4.6-1.3-7.2   c0-4.9,1.8-8.9,5.4-12.1C167.8,175,172.4,173.4,178,173.4z M213.7,226.5c2.4,2.1,5.5,3.1,9.4,3.1c5,0,8.7-1.3,11.2-3.9l4.2,8.2   c-3.8,3.1-9.4,4.6-16.9,4.6c-7.1,0-12.7-2-16.7-6.1c-4.1-4.2-6.1-10-6.1-17.3c0-7.3,2.2-13.2,6.7-17.6c4.5-4.6,9.9-6.9,16.1-6.9   c6.7,0,12.1,2,16.1,6.1c4.1,4,6.1,9.1,6.1,15.3c0,1.3-0.3,3.3-0.9,6h-33C210.1,221.6,211.4,224.5,213.7,226.5z M404.3,191.5h23.6   l12.6,32l11.4-32h11.2l-20.2,53.7c-1.2,3-3.7,5.5-7.5,7.6c-3.8,2-8.2,3-13.2,3v-9.6c8.3,0,12.4-2,12.4-6.1c0-2.8-1.1-7-3.4-12.7   L417,192.2v7.9h-12.7v20.2c0,3.4,0.5,5.7,1.5,7c1.1,1.4,2.9,2.1,5.5,2.1c2.6,0,5-0.7,7.2-2.1v9.9c-2.5,0.9-6,1.3-10.6,1.3   c-4.7,0-8.2-1.3-10.6-3.9c-2.5-2.6-3.7-6.3-3.7-11.2v-23.3h-5.4v-8.7h5.4V182l10.8-3.9V191.5z M366.9,191.9v-0.4h16.7v46.2h-10.9   v-37.4h-5.8v-6.1l-3.7,7.3c-1.9-1.2-4-1.8-6.3-1.8c-2.5,0-4.7,1.1-6.6,3.3c-2,2.3-3,5.1-3,8.4v26.3h-10.8v-46.2h10.8v4.2   c3-3.4,7-5.1,12-5.1C362.5,190.6,365,191,366.9,191.9z M378.3,173.7c1.8,0,3.3,0.6,4.5,1.8c1.2,1.2,1.8,2.6,1.8,4.3   c0,1.8-0.6,3.3-1.8,4.5c-1.2,1.2-2.7,1.8-4.5,1.8c-1.7,0-3.1-0.6-4.3-1.8c-1.2-1.2-1.8-2.7-1.8-4.5c0-1.7,0.6-3.1,1.8-4.3   C375.2,174.3,376.6,173.7,378.3,173.7z M299.7,191.5v29.2c0,6,2.6,9,7.9,9c2.5,0,4.8-0.6,6.9-1.9c2.1-1.3,3.5-2.8,4.2-4.5v-31.7   h10.8v46.2h-10.8v-3.9c-1.5,1.3-3.6,2.4-6.3,3.4c-2.7,0.9-5.2,1.3-7.5,1.3c-10.7,0-16-5.7-16-17v-30.1H299.7z M280.7,225.6l3.9,8.5   c-3.1,1.9-5.8,3.1-8.1,3.7c-2.4,0.5-5.2,0.7-8.4,0.7c-7.2,0-12.8-2.1-16.9-6.3s-6.1-10-6.1-17.3c0-7.3,2.2-13.2,6.7-17.6   c4.5-4.5,10.6-6.7,18.4-6.7c5.4,0,10.1,1.5,14.1,4.6l-4.6,8.1c-2.5-2.4-5.9-3.6-10.2-3.6c-4.1,0-7.3,1.3-9.6,4   c-2.4,2.7-3.6,6.4-3.6,11.2c0,9.8,4.6,14.7,13.8,14.7C274,229.6,277.6,228.2,280.7,225.6z M221.8,199.7c-6.1,0-9.9,3.3-11.4,10H233   C232.3,203,228.5,199.7,221.8,199.7z"></path>
</g>
</svg>
