<svg xmlns="http://www.w3.org/2000/svg" xmlns:xlink="http://www.w3.org/1999/xlink" width="1468" height="233"><defs><path id="a" d="M.5 0h1384.86v234H.5z"/></defs><g fill="none" fill-rule="evenodd"><g transform="translate(66 -1)"><mask id="b" fill="#fff"><use xlink:href="#a"/></mask><path fill="#223151" fill-opacity=".2" d="M1202.79 80.009c16.42.513 31.1 14.697 31.21 31.926v79.767s4.18 2.115 7.04 4.772c5.62 5.209 8.91 12.82 8.96 20.465V243h-40v-16.702s-4.18-2.115-7.04-4.772c-5.62-5.209-8.91-12.82-8.96-20.465V126.57c0-3.629-2.94-6.57-6.57-6.57h-9.49s-6.18-.201-10.95-1.951c-12.16-4.454-20.91-16.618-20.99-29.986V-17h40v89.951c0 3.87 3.14 7.009 7.01 7.012 3.28-.009 7.06-.003 9.78.046z" mask="url(#b)"/><path fill="#223151" fill-opacity=".2" d="M1186 142.063c-.08 13.14-10.97 25.37-24.14 29.99a16.284 16.284 0 00-10.85 15.36C1151 207.483 1151 243 1151 243h-40v-77.063s.25-6.495 2.08-11.309c3.47-9.112 13.09-16.243 23.28-19.175a13.33 13.33 0 009.57-12.787c.07-28.356.07-102.039.07-129.314 0-5.717 4.63-10.352 10.35-10.352H1186v159.063z" mask="url(#b)"/><path fill="#223151" d="M1104.7 38.75c1.94 0 3.5 1.568 3.5 3.5s-1.56 3.5-3.5 3.5c-1.93 0-3.5-1.568-3.5-3.5s1.57-3.5 3.5-3.5zm-53 0c1.94 0 3.5 1.568 3.5 3.5s-1.56 3.5-3.5 3.5c-1.93 0-3.5-1.568-3.5-3.5s1.57-3.5 3.5-3.5zm280.16-23.269c1.94 0 3.5 1.569 3.5 3.5 0 1.932-1.56 3.5-3.5 3.5-1.93 0-3.5-1.568-3.5-3.5 0-1.931 1.57-3.5 3.5-3.5zm50 0c1.94 0 3.5 1.569 3.5 3.5 0 1.932-1.56 3.5-3.5 3.5-1.93 0-3.5-1.568-3.5-3.5 0-1.931 1.57-3.5 3.5-3.5zm-84.82 47c1.93 0 3.5 1.569 3.5 3.5 0 1.932-1.57 3.5-3.5 3.5s-3.5-1.568-3.5-3.5c0-1.931 1.57-3.5 3.5-3.5zm-25 82c1.93 0 3.5 1.569 3.5 3.5 0 1.932-1.57 3.5-3.5 3.5s-3.5-1.568-3.5-3.5c0-1.931 1.57-3.5 3.5-3.5zM146 47.75c1.932 0 3.5 1.568 3.5 3.5s-1.568 3.5-3.5 3.5a3.501 3.501 0 01-3.5-3.5c0-1.932 1.568-3.5 3.5-3.5zm41 149.5c1.932 0 3.5 1.568 3.5 3.5s-1.568 3.5-3.5 3.5a3.501 3.501 0 01-3.5-3.5c0-1.932 1.568-3.5 3.5-3.5zm-72.5-67.5c1.932 0 3.5 1.568 3.5 3.5s-1.568 3.5-3.5 3.5a3.501 3.501 0 01-3.5-3.5c0-1.932 1.568-3.5 3.5-3.5zM4 75c1.932 0 3.5 1.568 3.5 3.5S5.932 82 4 82a3.501 3.501 0 01-3.5-3.5C.5 76.568 2.068 75 4 75zm90.5-41c1.932 0 3.5 1.568 3.5 3.5S96.432 41 94.5 41a3.501 3.501 0 01-3.5-3.5c0-1.932 1.568-3.5 3.5-3.5zM477 67.75c1.932 0 3.5 1.568 3.5 3.5s-1.568 3.5-3.5 3.5a3.501 3.501 0 01-3.5-3.5c0-1.932 1.568-3.5 3.5-3.5z" mask="url(#b)"/></g><path fill="#223151" d="M1375 83v158h2V83zM1349.73 190v51h2v-51zM404 248a1 1 0 00-2 0h2zm243-2.98a1 1 0 002 0 1 1 0 00-2 0zM404 240a1 1 0 00-2 0 1 1 0 002 0zm243-2.98a1 1 0 002 0 1 1 0 00-2 0zM404 232a1 1 0 00-2 0 1 1 0 002 0zm243-2.98a1 1 0 002 0 1 1 0 00-2 0zM404 224a1 1 0 00-2 0 1 1 0 002 0zm243-2.98a1 1 0 002 0 1 1 0 00-2 0zM404 216a1 1 0 00-2 0 1 1 0 002 0zm243-2.98a1 1 0 002 0 1 1 0 00-2 0zM404 208a1 1 0 00-2 0 1 1 0 002 0zm243-2.98a1 1 0 002 0 1 1 0 00-2 0zM404 200a1 1 0 00-2 0 1 1 0 002 0zm243-2.98a1 1 0 002 0 1 1 0 00-2 0zM404 192a1 1 0 00-2 0 1 1 0 002 0zm243-2.98a1 1 0 002 0 1 1 0 00-2 0zM404 184a1 1 0 00-2 0 1 1 0 002 0zm243-2.98a1 1 0 002 0 1 1 0 00-2 0zM404 176a1 1 0 00-2 0 1 1 0 002 0zm243-2.98a1 1 0 002 0 1 1 0 00-2 0zM404 168a1 1 0 00-2 0 1 1 0 002 0zm242.658-2.767a1 1 0 001.964-.379 1 1 0 10-1.964.379zM404 160a1 1 0 00-2 0 1 1 0 002 0zm239.764-1.732a1 1 0 001.655-1.123 1 1 0 00-1.655 1.123zm-5.399-5.275a1 1 0 101.084-1.68 1 1 0 10-1.084 1.68zM404 152a1 1 0 00-2 0 1 1 0 002 0zm227.334-1.736a1 1 0 10.333-1.972 1 1 0 00-.333 1.972zM511.516 150a1 1 0 000-2 1 1 0 000 2zm8 0a1 1 0 000-2 1 1 0 000 2zm8 0a1 1 0 000-2 1 1 0 000 2zm8 0a1 1 0 000-2 1 1 0 000 2zm64 0a1 1 0 000-2 1 1 0 000 2zm-8 0a1 1 0 000-2 1 1 0 000 2zm-48 0a1 1 0 000-2 1 1 0 000 2zm8 0a1 1 0 000-2 1 1 0 000 2zm24 0a1 1 0 000-2 1 1 0 000 2zm40 0a1 1 0 000-2 1 1 0 000 2zm-8 0a1 1 0 000-2 1 1 0 000 2zm-24 0a1 1 0 000-2 1 1 0 000 2zm-24 0a1 1 0 000-2 1 1 0 000 2zm8 0a1 1 0 000-2 1 1 0 000 2zm56 0a1 1 0 000-2 1 1 0 000 2zm-120.065-.045a1 1 0 00.132-1.996 1.001 1.001 0 00-.132 1.996zm-8.049-2.208a1.001 1.001 0 00.905-1.784 1 1 0 10-.905 1.784zM404 144a1 1 0 00-2 0 1 1 0 002 0zm84.866-1.445a1.001 1.001 0 001.533-1.285 1.001 1.001 0 00-1.533 1.285zM404 136a1 1 0 00-2 0 1 1 0 002 0zm80.894-.786a1.001 1.001 0 001.915-.58 1 1 0 00-1.915.58zM404 128a1 1 0 00-2 0 1 1 0 002 0zm80-.992a1 1 0 002 0 1 1 0 00-2 0zM404 120a1 1 0 00-2 0 1 1 0 002 0zm80-.992a1 1 0 002 0 1 1 0 00-2 0zM404 112a1 1 0 00-2 0 1 1 0 002 0zm80-.992a1 1 0 002 0 1 1 0 00-2 0zM404 104a1 1 0 00-2 0 1 1 0 002 0zm80-.992a1 1 0 002 0 1 1 0 00-2 0zM404 96a1 1 0 00-2 0 1 1 0 002 0zm80-.992a1 1 0 002 0 1 1 0 00-2 0zm-79.654-6.794a1 1 0 00-1.964-.381 1 1 0 001.964.381zm79.106-.92a.999.999 0 101.941-.479.999.999 0 10-1.941.479zm-76.205-6.042a1 1 0 00-1.654-1.125 1.002 1.002 0 00.264 1.39c.457.31 1.079.191 1.39-.265zm72.957-.766a1 1 0 001.596-1.206 1.001 1.001 0 00-1.596 1.206zm-67.553-4.503a1 1 0 00-1.083-1.682 1.001 1.001 0 001.083 1.682zm61.893-.49a1 1 0 00.997-1.734 1 1 0 00-.997 1.734zm-54.86-2.233a1 1 0 10-.331-1.972 1 1 0 00.331 1.972zm47.699-.132a1 1 0 00.231-1.987 1 1 0 00-.231 1.987zM459.504 73a1 1 0 000-2 1 1 0 000 2zm-8 0a1 1 0 000-2 1 1 0 000 2zm-8 0a1 1 0 000-2 1 1 0 000 2zm-8 0a1 1 0 000-2 1 1 0 000 2zm-8 0a1 1 0 000-2 1 1 0 000 2z"/><path fill="#223151" fill-opacity=".2" d="M423 92v176h-40V91.824C383 69.83 400.83 52 422.824 52h42.352C487.17 52 505 69.83 505 91.824V129h123.176C650.17 129 668 146.83 668 168.824V268h-40v-99H504.824A39.827 39.827 0 01465 129.176V92h-42z"/><path fill="#223151" d="M861 57a1 1 0 002 0 1 1 0 00-2 0zm0-8a1 1 0 002 0h-2zM861 8v36h2V8zM800.009 232.746a1 1 0 002 0 1 1 0 00-2 0zm0-8a1 1 0 002 0 1 1 0 00-2 0zm0-8a1 1 0 002 0 1 1 0 00-2 0zm0-8a1 1 0 002 0 1 1 0 00-2 0zm0-8a1 1 0 002 0 1 1 0 00-2 0zm0-8a1 1 0 002 0 1 1 0 00-2 0zm0-8a1 1 0 002 0 1 1 0 00-2 0zm0-8a1 1 0 002 0 1 1 0 00-2 0zm0-8a1 1 0 002 0 1 1 0 00-2 0zm0-8v.001a1.001 1.001 0 002 0v-.001a1.001 1.001 0 00-2 0zm0-8a1 1 0 002 0 1 1 0 00-2 0zm0-8v.001a1 1 0 002 0v-.001a1.001 1.001 0 00-2 0zm0-8a1 1 0 002 0 1 1 0 00-2 0zm0-8a1 1 0 002 0 1 1 0 00-2 0zm0-8a1 1 0 002 0 1 1 0 00-2 0zm0-8a1 1 0 002 0 1 1 0 00-2 0zm0-8a1 1 0 002 0 1 1 0 00-2 0zm0-8a1 1 0 002 0 1 1 0 00-2 0zm.013-8.044a1 1 0 001.998.088 1 1 0 00-1.998-.088zm3.138-7.907c-.36.418-.314 1.05.104 1.411a1 1 0 10-.104-1.411zm7.355-4.275a1 1 0 00.381 1.963h.001a1 1 0 00-.382-1.963zm48.177-.239a1 1 0 000 2 1.001 1.001 0 000-2zm-8 0a1 1 0 000 2 1.001 1.001 0 000-2zm-8 0a1 1 0 000 2 1.001 1.001 0 000-2zm-8 0a1 1 0 000 2 1.001 1.001 0 000-2zm-16 0a1 1 0 000 2 1.001 1.001 0 000-2zm8 0a1 1 0 000 2 1.001 1.001 0 000-2zm39.43-.988a1 1 0 00.83 1.819 1 1 0 00-.83-1.819zm5.214-4.966a1 1 0 001.776.919 1 1 0 10-1.776-.919zM872.559 63a1 1 0 002 0 1 1 0 00-2 0zm0-8a1 1 0 002 0 1 1 0 00-2 0zm0-8a1 1 0 002 0 1 1 0 00-2 0zm0-8a1 1 0 002 0 1 1 0 00-2 0zm0-8a1 1 0 002 0 1 1 0 00-2 0zm0-8a1 1 0 002 0 1 1 0 00-2 0zm0-8a1 1 0 002 0 1 1 0 00-2 0zm0-8a1 1 0 002 0 1 1 0 00-2 0zm0-8a1 1 0 002 0h-2zM612 44a1 1 0 000-2 1 1 0 000 2zm8 0a1 1 0 000-2 1 1 0 000 2zm8 0a1 1 0 000-2 1 1 0 000 2zm-64 0a1 1 0 000-2v2zm8 0a1 1 0 000-2 1 1 0 000 2zm8 0a1 1 0 000-2 1 1 0 000 2zm8 0a1 1 0 000-2 1 1 0 000 2zm8 0a1 1 0 000-2 1 1 0 000 2zm8 0a1 1 0 000-2 1 1 0 000 2zM483 216a1 1 0 000-2 1 1 0 000 2zm8 0a1 1 0 000-2 1 1 0 000 2zm32 0a1 1 0 000-2 1 1 0 000 2zm8 0a1 1 0 000-2 1 1 0 000 2zm-56 0a1 1 0 000-2v2zm24 0a1 1 0 000-2 1 1 0 000 2zm8 0a1 1 0 000-2 1 1 0 000 2zm8 0a1 1 0 000-2 1 1 0 000 2zm24 0a1 1 0 000-2 1 1 0 000 2zM548 216h31.729v-2H548zM507 1v15.622c0 7.43 6.024 13.454 13.454 13.454h10.092A11.455 11.455 0 01542 41.53V72h2V41.53a13.454 13.454 0 00-13.454-13.454h-10.092c-6.326 0-11.454-5.128-11.454-11.454V1h-2zM137 82.625a1 1 0 002 0 1 1 0 00-2 0zm0-8a1 1 0 002 0 1 1 0 00-2 0zm0-8a1 1 0 002 0h-2zm-22-21a1 1 0 002 0 1 1 0 00-2 0zm0-8a1 1 0 002 0 1 1 0 00-2 0zm0-8a1 1 0 002 0h-2zM69 103a1 1 0 002 0 1 1 0 00-2 0zm0-8a1 1 0 002 0 1 1 0 00-2 0zm0-8a1 1 0 002 0h-2zM330 51h38v-2h-38z"/><path fill="#223151" d="M242 51a1 1 0 000-2 1 1 0 000 2zm-8 0a1 1 0 000-2 1 1 0 000 2zm16 0a1 1 0 000-2 1 1 0 000 2zm8 0a1 1 0 000-2 1 1 0 000 2zm8 0a1 1 0 000-2 1 1 0 000 2zm8 0a1 1 0 000-2 1 1 0 000 2zm8 0a1 1 0 000-2 1 1 0 000 2zm8 0a1 1 0 000-2 1 1 0 000 2zm8 0a1 1 0 000-2 1 1 0 000 2zm16 0a1 1 0 000-2 1 1 0 000 2zm8 0a1 1 0 000-2 1 1 0 000 2zm-96 0a1 1 0 000-2v2zm80 0a1 1 0 000-2 1 1 0 000 2zm24 0a1 1 0 000-2 1 1 0 000 2zM91.484 112.038a1 1 0 001.849.764 1 1 0 00-1.849-.764zm5.641-6.368a1 1 0 00.981 1.743.999.999 0 10-.981-1.743zm8.153-1.698a1 1 0 00.142 1.995 1 1 0 00-.142-1.995zm6.619-2.83a1 1 0 001.344 1.48 1 1 0 10-1.344-1.48zm3.451-6.317a1 1 0 001.972.332 1 1 0 00-1.972-.332zM115.5 87a1 1 0 002 0 1 1 0 00-2 0zm0-8a1 1 0 002 0 1 1 0 00-2 0zm0-8a1 1 0 002 0 1 1 0 00-2 0zm0-8a1 1 0 002 0 1 1 0 00-2 0zm0-8a1 1 0 002 0h-2zm45-17.5h17.376A6.124 6.124 0 01184 43.624v.002c0 2.155.856 4.221 2.379 5.745a8.127 8.127 0 005.745 2.379H209v-2h-16.876A6.12 6.12 0 01186 43.626v-.002a8.124 8.124 0 00-8.124-8.124H160.5v2zM180 133h62.531c5.229 0 9.469 4.24 9.469 9.469v55.281h2v-55.281c0-6.334-5.135-11.469-11.469-11.469H180v2zM56 146.5V242h2v-95.5zM31.5 1.966l-1.241 36.34A13 13 0 0043.25 51.75h1.198c6.034 0 10.942 4.861 11 10.894l.729 75.866 2-.02-.73-75.865C57.38 55.494 51.58 49.75 44.45 49.75h-1.198a10.999 10.999 0 01-10.993-11.376l1.241-36.34-1.998-.068z"/><path fill="#223151" d="M43.5 1.976l-.705 29.337a12.997 12.997 0 0012.997 13.312h1.525c5.96 0 10.836 4.747 10.996 10.706L69 81.027l2-.054-.688-25.696c-.188-7.041-5.95-12.652-12.995-12.652h-1.525a10.998 10.998 0 01-10.997-11.264L45.5 2.024l-2-.048z"/><path fill="#223151" fill-opacity=".2" d="M136.5 121.819c-16.532-3.242-29-17.809-29-35.289V-1h39v84.647c16.268 1.519 29 15.213 29 31.881v67.514h9.753c16.705 0 30.247 13.541 30.247 30.246V240h-39v-17.958h-9.753c-16.705 0-30.247-13.542-30.247-30.247v-69.976z"/><path fill="#223151" d="M126-1v104.303a15.198 15.198 0 01-15.197 15.197h-.14A14.662 14.662 0 0096 133.163v4.337h2v-4.337a12.663 12.663 0 0112.663-12.663h.14A17.197 17.197 0 00128 103.303V-1h-2zM96 146.5v37h2v-37zM96 191v50h2v-50zM52.586 186H-4v2h56.586zM102 186H61.586v2H102z"/><path fill="#223151" fill-opacity=".2" d="M107 99.706V-1h40v104.303c0 9.6-3.814 18.807-10.602 25.595A36.11 36.11 0 01117 138.955V240H77V133.163c0-8.928 3.547-17.49 9.86-23.803A33.623 33.623 0 01107 99.706z"/><path fill="#223151" d="M126-1v87.53c0 9.648 7.822 17.47 17.47 17.47h.002c6.367 0 11.528 5.161 11.528 11.528v76.267c0 6.487 5.259 11.747 11.747 11.747h18.506c5.383 0 9.747 4.363 9.747 9.746V240h2v-26.712c0-6.487-5.259-11.746-11.747-11.746h-18.506c-5.383 0-9.747-4.364-9.747-9.747v-76.267c0-7.471-6.057-13.528-13.528-13.528h-.002c-8.544 0-15.47-6.926-15.47-15.47V-1h-2zM-2 143.5h98.867a8.133 8.133 0 018.133 8.133V240h2v-88.367c0-5.596-4.537-10.133-10.133-10.133H-2v2zM111 188h19.867a8.133 8.133 0 018.133 8.133V240h2v-43.867c0-5.596-4.537-10.133-10.133-10.133H111v2z"/><path fill="#223151" d="M226 233.918a1 1 0 002 0 1 1 0 00-2 0zm0-8a1 1 0 002 0 1 1 0 00-2 0zm0-8a1 1 0 002 0 1 1 0 00-2 0zm0-8a1 1 0 002 0 1 1 0 00-2 0zm0-8a1 1 0 002 0 1 1 0 00-2 0zm0-8a1 1 0 002 0 1 1 0 00-2 0zm0-8a1 1 0 002 0 1 1 0 00-2 0zm0-8a1 1 0 002 0 1 1 0 00-2 0zm0-8a1 1 0 002 0 1 1 0 00-2 0zm-.849-7.406a1 1 0 001.791-.892 1 1 0 00-1.791.892zm-5.401-4.293a1 1 0 00.461-1.946 1 1 0 00-.461 1.946zM156 158a1 1 0 000-2 1 1 0 000 2zm-16 0a1 1 0 000-2 1 1 0 000 2zm8 0a1 1 0 000-2 1 1 0 000 2zm-24 0a1 1 0 000-2 1 1 0 000 2zm8 0a1 1 0 000-2 1 1 0 000 2zm32 0a1 1 0 000-2 1 1 0 000 2zm8 0a1 1 0 000-2 1 1 0 000 2zm-136 0a1 1 0 000-2 1 1 0 000 2zm-16 0a1 1 0 000-2 1 1 0 000 2zm80 0a1 1 0 000-2 1 1 0 000 2zm8 0a1 1 0 000-2 1 1 0 000 2zm8 0a1 1 0 000-2 1 1 0 000 2zm64 0a1 1 0 000-2 1 1 0 000 2zm8 0a1 1 0 000-2 1 1 0 000 2zm8 0a1 1 0 000-2 1 1 0 000 2zm8 0a1 1 0 000-2 1 1 0 000 2zm8 0a1 1 0 000-2 1 1 0 000 2zm-136 0a1 1 0 000-2 1 1 0 000 2zm-8 0a1 1 0 000-2 1 1 0 000 2zm-8 0a1 1 0 000-2 1 1 0 000 2zm-16 0a1 1 0 000-2 1 1 0 000 2zm-16 0a1 1 0 000-2 1 1 0 000 2zm-16 0a1 1 0 000-2 1 1 0 000 2zm80 0a1 1 0 000-2 1 1 0 000 2zm-8 0a1 1 0 000-2 1 1 0 000 2zm-32 0a1 1 0 000-2 1 1 0 000 2zm-48 0a1 1 0 000-2v2z"/><path fill="#223151" d="M363 248v-15.867c0-5.596-4.537-10.133-10.133-10.133H201v2h151.867a8.133 8.133 0 018.133 8.133V248h2zm-187 0v-15.867a8.133 8.133 0 018.133-8.133H191v-2h-6.867c-5.596 0-10.133 4.537-10.133 10.133V248h2zm153-31.25a1 1 0 000-2 1 1 0 000 2zm8 0a1 1 0 000-2 1 1 0 000 2zm-24 0a1 1 0 000-2 1 1 0 000 2zm8 0a1 1 0 000-2 1 1 0 000 2zm-16 0a1 1 0 000-2v2zm40 0a1 1 0 000-2 1 1 0 000 2zm-332-94a1 1 0 000-2 1 1 0 000 2zm8 0a1 1 0 000-2 1 1 0 000 2zm8 0a1 1 0 000-2 1 1 0 000 2zm8 0a1 1 0 000-2 1 1 0 000 2zm-32 0a1 1 0 000-2v2zm40 0a1 1 0 000-2 1 1 0 000 2zm156-59a1 1 0 000-2 1 1 0 000 2zm8 0a1 1 0 000-2 1 1 0 000 2zm8 0a1 1 0 000-2 1 1 0 000 2zm8 0a1 1 0 000-2 1 1 0 000 2zm-32 0a1 1 0 000-2v2zm40 0a1 1 0 000-2 1 1 0 000 2z"/><path fill="#223151" d="M201 63.75a1 1 0 000-2 1 1 0 000 2zm8 0a1 1 0 000-2 1 1 0 000 2zm8 0a1 1 0 000-2 1 1 0 000 2zm8 0a1 1 0 000-2 1 1 0 000 2zm-32 0a1 1 0 000-2v2zm40 0a1 1 0 000-2 1 1 0 000 2z"/><path fill="#223151" d="M201 63.75a1 1 0 000-2 1 1 0 000 2zm8 0a1 1 0 000-2 1 1 0 000 2zm8 0a1 1 0 000-2 1 1 0 000 2zm8 0a1 1 0 000-2 1 1 0 000 2zm-32 0a1 1 0 000-2v2zm40 0a1 1 0 000-2 1 1 0 000 2zM1386.54 164c0 .552.45 1 1 1s1-.448 1-1-.45-1-1-1-1 .448-1 1zm0-8c0 .552.45 1 1 1s1-.448 1-1-.45-1-1-1-1 .448-1 1zm0-8c0 .552.45 1 1 1s1-.448 1-1h-2zm-49.5 27c0 .552.45 1 1 1s1-.448 1-1-.45-1-1-1-1 .448-1 1zm0-8c0 .552.45 1 1 1s1-.448 1-1-.45-1-1-1-1 .448-1 1zm0-8c0 .552.45 1 1 1s1-.448 1-1h-2zm76.5-68h-14.24c-7.05 0-12.76 5.715-12.76 12.766V141.5h2v-37.734c0-5.946 4.82-10.766 10.76-10.766h14.24v-2zm-244.12 126.025c0 .552.45 1 1 1s1-.448 1-1-.45-1-1-1-1 .448-1 1zm0-8c0 .552.45 1 1 1s1-.448 1-1-.45-1-1-1-1 .448-1 1zm0-8c0 .552.45 1 1 1s1-.448 1-1-.45-1-1-1-1 .448-1 1zm0-8c0 .552.45 1 1 1s1-.448 1-1-.45-1-1-1-1 .448-1 1zm0-8c0 .552.45 1 1 1s1-.448 1-1-.45-1-1-1-1 .448-1 1zm0-8c0 .552.45 1 1 1s1-.448 1-1-.45-1-1-1-1 .448-1 1zm0-8c0 .552.45 1 1 1s1-.448 1-1-.45-1-1-1-1 .448-1 1zm0-8c0 .552.45 1 1 1s1-.448 1-1-.45-1-1-1-1 .448-1 1zm.73-8.167c-.12.538.22 1.074.76 1.195a.994.994 0 001.19-.757 1.004 1.004 0 00-.75-1.195 1.004 1.004 0 00-1.2.757zm2.9-7.724a.997.997 0 00.4 1.355c.49.263 1.09.082 1.36-.403a1.002 1.002 0 00-1.76-.952zm4.88-6.649a.992.992 0 00.02 1.414.995.995 0 001.41-.022.992.992 0 00-.02-1.414.996.996 0 00-1.41.022zm6.5-5.078a.995.995 0 00-.36 1.367c.27.477.89.64 1.36.363.48-.276.64-.889.37-1.366a1.004 1.004 0 00-1.37-.364zm7.56-3.127a.996.996 0 00-.63 1.264c.17.524.74.808 1.26.635.52-.174.81-.74.64-1.264a1.008 1.008 0 00-1.27-.635zm6.5-3.798a1 1 0 00-.07 1.413c.37.408 1.01.438 1.42.066.4-.371.43-1.004.06-1.412a.998.998 0 00-1.41-.067zm4.4-6.11a.99.99 0 00.51 1.318c.5.222 1.09-.007 1.32-.512a1.002 1.002 0 00-.52-1.318.992.992 0 00-1.31.512zm1.53-7.372c0 .552.45 1 1 1s1-.448 1-1-.45-1-1-1-1 .448-1 1zm0-8c0 .552.45 1 1 1s1-.448 1-1-.45-1-1-1-1 .448-1 1zm0-8c0 .552.45 1 1 1s1-.448 1-1-.45-1-1-1-1 .448-1 1zm0-8c0 .552.45 1 1 1s1-.448 1-1-.45-1-1-1-1 .448-1 1zm0-8c0 .552.45 1 1 1s1-.448 1-1h-2zm83.31 89.413c0 .552.45 1 1 1s1-.448 1-1-.45-1-1-1-1 .448-1 1zm0-8c0 .552.45 1 1 1s1-.448 1-1-.45-1-1-1-1 .448-1 1zm0-8c0 .552.45 1 1 1s1-.448 1-1-.45-1-1-1-1 .448-1 1zm0-8c0 .552.45 1 1 1s1-.448 1-1-.45-1-1-1-1 .448-1 1zm0-8c0 .552.45 1 1 1s1-.448 1-1-.45-1-1-1-1 .448-1 1zm0-8c0 .552.45 1 1 1s1-.448 1-1-.45-1-1-1-1 .448-1 1zm0-8c0 .552.45 1 1 1s1-.448 1-1-.45-1-1-1-1 .448-1 1zm0-8c0 .552.45 1 1 1s1-.448 1-1-.45-1-1-1-1 .448-1 1zm-.65-7.679c.15.533.7.848 1.23.704a.996.996 0 00.7-1.227.994.994 0 00-1.22-.704c-.54.145-.85.694-.71 1.227zm-3.41-6.722c.35.431.98.502 1.41.158.43-.345.5-.974.16-1.406a1.007 1.007 0 00-1.41-.158c-.43.345-.5.974-.16 1.406zm-5.79-4.826a.999.999 0 00.94-1.764.996.996 0 00-1.35.411.997.997 0 00.41 1.353zm-7.23-2.124a.991.991 0 001.07-.916.993.993 0 00-.91-1.078 1.007 1.007 0 00-1.08.916c-.04.55.37 1.033.92 1.078zm-7.92-.062c.55 0 1-.448 1-1s-.45-1-1-1v2zm101-29h-14.24c-7.05 0-12.76 5.715-12.76 12.766V147.5h2V76.766c0-5.946 4.82-10.766 10.76-10.766h14.24v-2zm66.63 29c.56 0 1-.448 1-1s-.44-1-1-1c-.55 0-1 .448-1 1s.45 1 1 1zm8 0c.56 0 1-.448 1-1s-.44-1-1-1c-.55 0-1 .448-1 1s.45 1 1 1zm8 0c.56 0 1-.448 1-1s-.44-1-1-1c-.55 0-1 .448-1 1s.45 1 1 1zm8 0c.56 0 1-.448 1-1s-.44-1-1-1c-.55 0-1 .448-1 1s.45 1 1 1zm8 0c.56 0 1-.448 1-1s-.44-1-1-1c-.55 0-1 .448-1 1s.45 1 1 1zm-40 0c.56 0 1-.448 1-1s-.44-1-1-1v2zm48 0c.56 0 1-.448 1-1s-.44-1-1-1c-.55 0-1 .448-1 1s.45 1 1 1zM1132 217h19v-2h-19zM1087.36 217c.56 0 1-.448 1-1s-.44-1-1-1c-.55 0-1 .448-1 1s.45 1 1 1zm8 0c.56 0 1-.448 1-1s-.44-1-1-1c-.55 0-1 .448-1 1s.45 1 1 1zm16 0c.56 0 1-.448 1-1s-.44-1-1-1c-.55 0-1 .448-1 1s.45 1 1 1zm-32 0c.56 0 1-.448 1-1s-.44-1-1-1v2zm24 0c.56 0 1-.448 1-1s-.44-1-1-1c-.55 0-1 .448-1 1s.45 1 1 1zm24 0c.56 0 1-.448 1-1s-.44-1-1-1c-.55 0-1 .448-1 1s.45 1 1 1zm-8 0c.56 0 1-.448 1-1s-.44-1-1-1c-.55 0-1 .448-1 1s.45 1 1 1zm184-203c.56 0 1-.448 1-1s-.44-1-1-1c-.55 0-1 .448-1 1s.45 1 1 1zm16 0c.56 0 1-.448 1-1s-.44-1-1-1c-.55 0-1 .448-1 1s.45 1 1 1zm8 0c.56 0 1-.448 1-1s-.44-1-1-1c-.55 0-1 .448-1 1s.45 1 1 1zm-32 0c.56 0 1-.448 1-1s-.44-1-1-1v2zm16 0c.56 0 1-.448 1-1s-.44-1-1-1c-.55 0-1 .448-1 1s.45 1 1 1zm24 0c.56 0 1-.448 1-1s-.44-1-1-1c-.55 0-1 .448-1 1s.45 1 1 1zm8 0c.56 0 1-.448 1-1s-.44-1-1-1c-.55 0-1 .448-1 1s.45 1 1 1zm-280 28c.56 0 1-.448 1-1s-.44-1-1-1c-.55 0-1 .448-1 1s.45 1 1 1zm8 0c.56 0 1-.448 1-1s-.44-1-1-1c-.55 0-1 .448-1 1s.45 1 1 1zm24 0c.56 0 1-.448 1-1s-.44-1-1-1c-.55 0-1 .448-1 1s.45 1 1 1zm-40 0c.56 0 1-.448 1-1s-.44-1-1-1v2zm24 0c.56 0 1-.448 1-1s-.44-1-1-1c-.55 0-1 .448-1 1s.45 1 1 1zm8 0c.56 0 1-.448 1-1s-.44-1-1-1c-.55 0-1 .448-1 1s.45 1 1 1zm16 0c.56 0 1-.448 1-1s-.44-1-1-1c-.55 0-1 .448-1 1s.45 1 1 1zM1119.36 42h51v-2h-51zM1398.19 19h51v-2h-51zM1231 79v62c0 6.075-4.92 11-11 11h-11c-7.18 0-13 5.82-13 13v77h2v-77c0-6.075 4.92-11 11-11h11c7.18 0 13-5.82 13-13V79h-2z"/><path fill="#223151" d="M1231-18V87c0 7.18 5.82 13 13 13h24a10.994 10.994 0 0111 11v89c0 2.387.95 4.676 2.64 6.364A8.972 8.972 0 001288 209v-1 1c1.86 0 3.64.738 4.95 2.05A7.011 7.011 0 011295 216v26h2v-26c0-2.387-.95-4.676-2.64-6.364A8.972 8.972 0 001288 207v0a6.99 6.99 0 01-4.95-2.05A7.011 7.011 0 011281 200v-89c0-3.448-1.37-6.754-3.81-9.192A12.994 12.994 0 001268 98h-24c-6.08 0-11-4.925-11-11V-18h-2zM1380 187h87v-2h-87z"/><path fill="#223151" d="M1285 187h87v-2h-87zM1213 240v-42.425c0-2.933 1.17-5.745 3.25-7.81a11.023 11.023 0 017.84-3.19l50.63.425.02-2-50.63-.425a12.988 12.988 0 00-9.26 3.77 12.969 12.969 0 00-3.85 9.23V240h2zm256.73-162h-107c-7.18 0-13 5.82-13 13v90h2V91c0-6.075 4.92-11 11-11h107v-2z"/><path fill="#223151" fill-opacity=".2" d="M1396 75v165h-40V67a31.996 31.996 0 0132-32h81.73v40H1396z"/><path fill="#223151" d="M1469.73 54H1388c-3.45 0-6.75 1.37-9.19 3.808A12.993 12.993 0 001375 67v7h2v-7a10.994 10.994 0 0111-11h81.73v-2zM1359-15v28a10.994 10.994 0 01-11 11h-111v2h111c3.45 0 6.75-1.37 9.19-3.808A12.993 12.993 0 001361 13v-28h-2zm-161 0v28c0 7.18 5.82 13 13 13h16v-2h-16c-6.08 0-11-4.925-11-11v-28h-2z"/></g></svg>