<svg xmlns="http://www.w3.org/2000/svg" xmlns:xlink="http://www.w3.org/1999/xlink" width="335" height="335" viewBox="0 0 335 335">
  <defs>
    <path id="credential-access@1x-a" d="M54.6741,0.065 C56.2093,0.77 60.5023,2.979 61.746,4.152 C62.6796,5.032 60.6313,4.778 61.3835,5.907 L61.3835,5.907 L56.6879,14.855 C57.9997,17.555 58.7336,20.844 58.851,24.549 L58.851,24.549 L65.4252,24.02 C65.2146,28.306 64.4053,32.867 63.0306,37.517 L63.0306,37.517 L55.8799,41.295 C54.3566,45.515 52.3003,49.68 49.8191,53.57 L49.8191,53.57 L51.7061,60.453 C48.7557,64.562 45.4791,68.276 42.0107,71.442 L42.0107,71.442 L37.7895,67.205 C34.5782,69.766 31.28,71.671 28.0687,72.817 L28.0687,72.817 L24.1366,86.657 C20.6681,87.496 16.0391,83.79 14.1521,82.135 L14.1521,82.135 L16.0391,73.073 C13.5579,72.048 12.9292,74.869 9.8995,76.362 L9.8995,76.362 L2.8276,72.275 C1.4529,69.212 0.6436,65.586 0.433,61.544 L0.433,61.544 L7.0072,54.481 C7.1246,50.641 7.8585,46.504 9.1703,42.289 L9.1703,42.289 L4.4747,38.763 C6.2289,34.105 8.4964,29.512 11.1841,25.174 L11.1841,25.174 L17.495,25.429 C20.1225,21.666 23.0941,18.298 26.2532,15.502 L26.2532,15.502 L27.5485,6.627 C31.1107,3.881 34.7475,1.781 38.3096,0.414 L38.3096,0.414 L45.3816,4.5 L39.605,7.794 C42.7641,6.941 45.7357,6.878 48.3632,7.607 L48.3632,7.607 M43.2939,34.606 C43.2939,28.001 38.6496,25.319 32.9291,28.622 C27.2086,31.925 22.5643,39.969 22.5643,46.574 C22.5643,53.18 27.2086,55.861 32.9291,52.558"/>
    <path id="credential-access@1x-c" d="M31.1633,0.698 C32.031,1.097 34.456,2.344 35.158,3.007 C35.686,3.504 34.529,3.36 34.954,3.998 L34.954,3.998 L32.301,9.053 C33.042,10.579 33.457,12.437 33.523,14.53 L33.523,14.53 L37.237,14.231 C37.118,16.652 36.661,19.229 35.884,21.856 L35.884,21.856 L31.8445,23.991 C30.9839,26.375 29.8222,28.727 28.4205,30.925 L28.4205,30.925 L29.4865,34.814 C27.8197,37.135 25.9687,39.233 24.0092,41.022 L24.0092,41.022 L21.6245,38.628 C19.8103,40.075 17.947,41.151 16.1328,41.799 L16.1328,41.799 L13.9114,49.618 C11.9519,50.091 9.3368,47.998 8.2707,47.063 L8.2707,47.063 L9.3368,41.943 C7.9351,41.364 7.5799,42.958 5.8683,43.801 L5.8683,43.801 L1.8731,41.493 C1.0964,39.762 0.6392,37.713 0.5203,35.43 L0.5203,35.43 L4.2343,31.44 C4.3006,29.27 4.7152,26.934 5.4563,24.552 L5.4563,24.552 L2.8036,22.56 C3.7946,19.928 5.0756,17.334 6.594,14.883 L6.594,14.883 L10.1593,15.027 C11.6437,12.901 13.3224,10.999 15.1071,9.419 L15.1071,9.419 L15.8389,4.405 C17.8514,2.854 19.9059,1.667 21.9183,0.895 L21.9183,0.895 L25.9135,3.204 L22.6501,5.064 C24.4348,4.583 26.1136,4.547 27.598,4.959 L27.598,4.959 M24.7341,20.212 C24.7341,16.48 22.1104,14.965 18.8786,16.831 C15.6469,18.697 13.0231,23.241 13.0231,26.973 C13.0231,30.705 15.6469,32.22 18.8786,30.354"/>
    <path id="credential-access@1x-e" d="M31.184,0.923 C32.052,1.321 34.477,2.569 35.18,3.231 C35.707,3.729 34.55,3.585 34.975,4.223 L34.975,4.223 L32.322,9.2779 C33.063,10.8034 33.478,12.6616 33.544,14.7546 L33.544,14.7546 L37.258,14.4559 C37.139,16.8767 36.682,19.4536 35.905,22.0808 L35.905,22.0808 L31.866,24.2152 C31.005,26.599 29.843,28.9519 28.442,31.1498 L28.442,31.1498 L29.508,35.038 C27.841,37.3595 25.99,39.4575 24.03,41.2462 L24.03,41.2462 L21.646,38.8526 C19.831,40.2997 17.968,41.3754 16.154,42.0232 L16.154,42.0232 L13.933,49.8419 C11.973,50.3159 9.358,48.2221 8.292,47.287 L8.292,47.287 L9.358,42.1678 C7.956,41.5884 7.601,43.1822 5.889,44.0257 L5.889,44.0257 L1.894,41.7171 C1.118,39.9867 0.66,37.9378 0.541,35.6543 L0.541,35.6543 L4.255,31.6644 C4.322,29.4949 4.736,27.1579 5.477,24.7766 L5.477,24.7766 L2.825,22.7846 C3.816,20.1528 5.097,17.5585 6.615,15.1079 L6.615,15.1079 L10.18,15.2517 C11.665,13.1257 13.344,11.223 15.128,9.6437 L15.128,9.6437 L15.86,4.629 C17.873,3.078 19.927,1.892 21.939,1.119 L21.939,1.119 L25.935,3.428 L22.671,5.289 C24.456,4.807 26.135,4.772 27.619,5.183 L27.619,5.183 M24.755,20.4362 C24.755,16.7046 22.132,15.1897 18.9,17.0556 C15.668,18.9214 13.044,23.4659 13.044,27.1976 C13.044,30.9293 15.668,32.4441 18.9,30.5782"/>
  </defs>
  <g fill="none" fill-rule="evenodd" transform="translate(55 46)">
    <path fill="#D1D9E0" d="M38.3096,55.02 C34.7475,56.387 31.1107,58.487 27.5485,61.233 L26.2532,70.108 C23.0941,72.904 20.1225,76.272 17.495,80.035 L11.1841,79.78 C8.4964,84.118 6.2289,88.711 4.4747,93.369 L9.1703,96.895 C7.8585,101.11 7.1246,105.247 7.0072,109.087 L0.433,116.15 C0.6436,120.192 1.4529,123.818 2.8276,126.881 L9.8995,130.968 C12.9292,129.475 13.5579,126.654 16.0391,127.679 L14.1521,136.741 C16.0391,138.396 20.6681,142.102 24.1366,141.263 L28.0687,127.423 C31.28,126.277 34.5782,124.372 37.7895,121.811 L42.0107,126.048 C45.4791,122.882 48.7557,119.168 51.7061,115.059 L49.8191,108.176 C52.3003,104.286 54.3566,100.121 55.8799,95.901 L63.0306,92.123 C64.4053,87.473 65.2146,82.912 65.4252,78.626 L58.851,79.155 C58.7336,75.45 57.9997,72.161 56.6879,69.461 L61.3835,60.513 C60.6313,59.384 62.6796,59.638 61.746,58.758 C60.5023,57.585 56.2093,55.376 54.6741,54.671 L48.3632,62.213 C45.7357,61.484 42.7641,61.547 39.605,62.4 L45.3816,59.106 L38.3096,55.02 Z M32.9291,83.228 C38.6496,79.925 43.2939,82.607 43.2939,89.212 C43.2939,95.818 38.6496,103.862 32.9291,107.164 C27.2086,110.467 22.5643,107.786 22.5643,101.18 C22.5643,94.575 27.2086,86.531 32.9291,83.228 Z"/>
    <g transform="translate(0 54.606)">
      <mask id="credential-access@1x-b" fill="#fff">
        <use xlink:href="#credential-access@1x-a"/>
      </mask>
      <line x1="27.733" x2="34.62" y1="6.88" y2="10.713" stroke="#5A6D83" stroke-linecap="round" stroke-linejoin="round" mask="url(#credential-access@1x-b)"/>
      <line x1="11.212" x2="18.099" y1="25.355" y2="29.188" stroke="#5A6D83" stroke-linecap="round" stroke-linejoin="round" mask="url(#credential-access@1x-b)"/>
      <line x1="4.324" x2="11.212" y1="38.834" y2="42.667" stroke="#5A6D83" stroke-linecap="round" stroke-linejoin="round" mask="url(#credential-access@1x-b)"/>
      <line x1=".433" x2="7.32" y1="61.517" y2="65.35" stroke="#5A6D83" stroke-linecap="round" stroke-linejoin="round" mask="url(#credential-access@1x-b)"/>
    </g>
    <path stroke="#5A6D83" stroke-linecap="round" stroke-linejoin="round" d="M38.3096,55.02 C34.7475,56.387 31.1107,58.487 27.5485,61.233 L26.2532,70.108 C23.0941,72.904 20.1225,76.272 17.495,80.035 L11.1841,79.78 C8.4964,84.118 6.2289,88.711 4.4747,93.369 L9.1703,96.895 C7.8585,101.11 7.1246,105.247 7.0072,109.087 L0.433,116.15 C0.6436,120.192 1.4529,123.818 2.8276,126.881 L9.8995,130.968 C12.9292,129.475 13.5579,126.654 16.0391,127.679 L14.1521,136.741 C16.0391,138.396 20.6681,142.102 24.1366,141.263 L28.0687,127.423 C31.28,126.277 34.5782,124.372 37.7895,121.811 L42.0107,126.048 C45.4791,122.882 48.7557,119.168 51.7061,115.059 L49.8191,108.176 C52.3003,104.286 54.3566,100.121 55.8799,95.901 L63.0306,92.123 C64.4053,87.473 65.2146,82.912 65.4252,78.626 L58.851,79.155 C58.7336,75.45 57.9997,72.161 56.6879,69.461 L61.3835,60.513 C60.6313,59.384 62.6796,59.638 61.746,58.758 C60.5023,57.585 56.2093,55.376 54.6741,54.671 L48.3632,62.213 C45.7357,61.484 42.7641,61.547 39.605,62.4 L45.3816,59.106 L38.3096,55.02 Z M32.9291,83.228 C38.6496,79.925 43.2939,82.607 43.2939,89.212 C43.2939,95.818 38.6496,103.862 32.9291,107.164 C27.2086,110.467 22.5643,107.786 22.5643,101.18 C22.5643,94.575 27.2086,86.531 32.9291,83.228 Z"/>
    <path fill="#EFF4F7" d="M45.3816,59.106 C41.8194,60.473 38.1826,62.573 34.6205,65.319 L33.3251,74.195 C30.166,76.99 27.1944,80.358 24.5669,84.121 L18.256,83.867 C15.5683,88.205 13.3008,92.797 11.5466,97.455 L16.2422,100.981 C14.9304,105.197 14.1965,109.333 14.0791,113.174 L7.5049,120.236 C7.7155,124.278 8.5248,127.905 9.8995,130.968 L17.0502,126.489 C18.5735,128.95 20.6298,130.74 23.111,131.766 L21.224,140.827 C24.1744,141.529 27.451,141.46 30.9194,140.621 L35.1406,131.51 C38.3519,130.363 41.6501,128.459 44.8614,125.897 L49.0826,130.134 C52.551,126.968 55.8276,123.254 58.778,119.145 L56.891,112.263 C59.3722,108.372 61.4285,104.207 62.9518,99.988 L70.1025,96.21 C71.4772,91.559 72.2865,86.998 72.4971,82.713 L65.9229,83.241 C65.8055,79.537 65.0716,76.248 63.7598,73.547 L68.4554,64.599 C66.7012,61.966 64.4337,59.992 61.746,58.758 L55.4351,66.3 C52.8076,65.57 49.836,65.634 46.6769,66.486 L45.3816,59.106 Z M40.001,87.314 C45.7215,84.012 50.3658,86.693 50.3658,93.299 C50.3658,99.904 45.7215,107.948 40.001,111.251 C34.2805,114.554 29.6362,111.872 29.6362,105.267 C29.6362,98.661 34.2805,90.617 40.001,87.314 Z"/>
    <path stroke="#5A6D83" stroke-linecap="round" stroke-linejoin="round" d="M45.3816,59.106 C41.8194,60.473 38.1826,62.573 34.6205,65.319 L33.3251,74.195 C30.166,76.99 27.1944,80.358 24.5669,84.121 L18.256,83.867 C15.5683,88.205 13.3008,92.797 11.5466,97.455 L16.2422,100.981 C14.9304,105.197 14.1965,109.333 14.0791,113.174 L7.5049,120.236 C7.7155,124.278 8.5248,127.905 9.8995,130.968 L17.0502,126.489 C18.5735,128.95 20.6298,130.74 23.111,131.766 L21.224,140.827 C24.1744,141.529 27.451,141.46 30.9194,140.621 L35.1406,131.51 C38.3519,130.363 41.6501,128.459 44.8614,125.897 L49.0826,130.134 C52.551,126.968 55.8276,123.254 58.778,119.145 L56.891,112.263 C59.3722,108.372 61.4285,104.207 62.9518,99.988 L70.1025,96.21 C71.4772,91.559 72.2865,86.998 72.4971,82.713 L65.9229,83.241 C65.8055,79.537 65.0716,76.248 63.7598,73.547 L68.4554,64.599 C66.7012,61.966 64.4337,59.992 61.746,58.758 L55.4351,66.3 C52.8076,65.57 49.836,65.634 46.6769,66.486 L45.3816,59.106 Z M40.001,87.314 C45.7215,84.012 50.3658,86.693 50.3658,93.299 C50.3658,99.904 45.7215,107.948 40.001,111.251 C34.2805,114.554 29.6362,111.872 29.6362,105.267 C29.6362,98.661 34.2805,90.617 40.001,87.314 Z"/>
    <path stroke="#5A6D83" stroke-linecap="round" stroke-linejoin="round" d="M28.5052 119.181C25.494 117.359 23.6373 113.562 23.6373 108.197 23.6373 105.802 24.0073 103.292 24.6849 100.776M30.8206 87.964C33.6193 84.041 37.0443 80.706 40.7417 78.572 50.1819 73.121 57.8461 77.546 57.8461 88.447 57.8461 99.347 50.1819 112.622 40.7417 118.072"/>
    <path fill="#D1D9E0" d="M89.9183,40.501 C87.9059,41.273 85.8514,42.46 83.8389,44.011 L83.1071,49.025 C81.3224,50.605 79.6437,52.507 78.1593,54.633 L74.594,54.489 C73.0756,56.94 71.7946,59.534 70.8036,62.166 L73.4563,64.158 C72.7152,66.54 72.3006,68.876 72.2343,71.046 L68.5203,75.036 C68.6392,77.319 69.0964,79.368 69.8731,81.099 L73.8683,83.407 C75.5799,82.564 75.9351,80.97 77.3368,81.549 L76.2707,86.669 C77.3368,87.604 79.9519,89.697 81.9114,89.224 L84.1328,81.405 C85.947,80.757 87.8103,79.681 89.6245,78.234 L92.0092,80.628 C93.9687,78.839 95.8197,76.741 97.4865,74.42 L96.4205,70.531 C97.8222,68.333 98.9839,65.981 99.8445,63.597 L103.884,61.462 C104.661,58.835 105.118,56.258 105.237,53.837 L101.523,54.136 C101.457,52.043 101.042,50.185 100.301,48.659 L102.954,43.604 C102.529,42.966 103.686,43.11 103.158,42.613 C102.456,41.95 100.031,40.703 99.1633,40.304 L95.598,44.565 C94.1136,44.153 92.4348,44.189 90.6501,44.67 L93.9135,42.81 L89.9183,40.501 Z M86.8786,56.437 C90.1104,54.571 92.7341,56.086 92.7341,59.818 C92.7341,63.55 90.1104,68.094 86.8786,69.96 C83.6469,71.826 81.0231,70.311 81.0231,66.579 C81.0231,62.847 83.6469,58.303 86.8786,56.437 Z"/>
    <g transform="translate(68 39.606)">
      <mask id="credential-access@1x-d" fill="#fff">
        <use xlink:href="#credential-access@1x-c"/>
      </mask>
      <line x1="15.943" x2="19.834" y1="4.548" y2="6.714" stroke="#5A6D83" stroke-linecap="round" stroke-linejoin="round" mask="url(#credential-access@1x-d)"/>
      <line x1="6.61" x2="10.501" y1="14.985" y2="17.151" stroke="#5A6D83" stroke-linecap="round" stroke-linejoin="round" mask="url(#credential-access@1x-d)"/>
      <line x1="2.719" x2="6.61" y1="22.6" y2="24.766" stroke="#5A6D83" stroke-linecap="round" stroke-linejoin="round" mask="url(#credential-access@1x-d)"/>
      <line x1=".52" x2="4.411" y1="35.415" y2="37.58" stroke="#5A6D83" stroke-linecap="round" stroke-linejoin="round" mask="url(#credential-access@1x-d)"/>
    </g>
    <path stroke="#5A6D83" stroke-linecap="round" stroke-linejoin="round" d="M89.9183,40.501 C87.9059,41.273 85.8514,42.46 83.8389,44.011 L83.1071,49.025 C81.3224,50.605 79.6437,52.507 78.1593,54.633 L74.594,54.489 C73.0756,56.94 71.7946,59.534 70.8036,62.166 L73.4563,64.158 C72.7152,66.54 72.3006,68.876 72.2343,71.046 L68.5203,75.036 C68.6392,77.319 69.0964,79.368 69.8731,81.099 L73.8683,83.407 C75.5799,82.564 75.9351,80.97 77.3368,81.549 L76.2707,86.669 C77.3368,87.604 79.9519,89.697 81.9114,89.224 L84.1328,81.405 C85.947,80.757 87.8103,79.681 89.6245,78.234 L92.0092,80.628 C93.9687,78.839 95.8197,76.741 97.4865,74.42 L96.4205,70.531 C97.8222,68.333 98.9839,65.981 99.8445,63.597 L103.884,61.462 C104.661,58.835 105.118,56.258 105.237,53.837 L101.523,54.136 C101.457,52.043 101.042,50.185 100.301,48.659 L102.954,43.604 C102.529,42.966 103.686,43.11 103.158,42.613 C102.456,41.95 100.031,40.703 99.1633,40.304 L95.598,44.565 C94.1136,44.153 92.4348,44.189 90.6501,44.67 L93.9135,42.81 L89.9183,40.501 Z M86.8786,56.437 C90.1104,54.571 92.7341,56.086 92.7341,59.818 C92.7341,63.55 90.1104,68.094 86.8786,69.96 C83.6469,71.826 81.0231,70.311 81.0231,66.579 C81.0231,62.847 83.6469,58.303 86.8786,56.437 Z"/>
    <path fill="#FFF" d="M93.9135,42.81 C91.9011,43.582 89.8466,44.768 87.8342,46.32 L87.1023,51.334 C85.3176,52.913 83.6389,54.816 82.1545,56.942 L78.5892,56.798 C77.0708,59.249 75.7898,61.843 74.7988,64.475 L77.4515,66.467 C76.7104,68.848 76.2958,71.185 76.2295,73.355 L72.5155,77.344 C72.6345,79.628 73.0916,81.677 73.8683,83.407 L77.908,80.877 C78.7686,82.267 79.9303,83.279 81.332,83.858 L80.266,88.977 C81.9328,89.374 83.7838,89.335 85.7433,88.861 L88.128,83.713 C89.9422,83.066 91.8055,81.99 93.6197,80.543 L96.0044,82.936 C97.9639,81.148 99.8149,79.05 101.482,76.728 L100.416,72.84 C101.817,70.642 102.979,68.289 103.84,65.905 L107.879,63.771 C108.656,61.144 109.113,58.567 109.232,56.146 L105.518,56.445 C105.452,54.352 105.037,52.494 104.296,50.968 L106.949,45.913 C105.958,44.425 104.677,43.31 103.158,42.613 L99.5932,46.874 C98.1088,46.462 96.43,46.497 94.6453,46.979 L93.9135,42.81 Z M90.8738,58.746 C94.1056,56.88 96.7293,58.395 96.7293,62.126 C96.7293,65.858 94.1056,70.403 90.8738,72.268 C87.6421,74.134 85.0184,72.619 85.0184,68.888 C85.0184,65.156 87.6421,60.612 90.8738,58.746 Z"/>
    <path stroke="#5A6D83" stroke-linecap="round" stroke-linejoin="round" d="M93.9135,42.81 C91.9011,43.582 89.8466,44.768 87.8342,46.32 L87.1023,51.334 C85.3176,52.913 83.6389,54.816 82.1545,56.942 L78.5892,56.798 C77.0708,59.249 75.7898,61.843 74.7988,64.475 L77.4515,66.467 C76.7104,68.848 76.2958,71.185 76.2295,73.355 L72.5155,77.344 C72.6345,79.628 73.0916,81.677 73.8683,83.407 L77.908,80.877 C78.7686,82.267 79.9303,83.279 81.332,83.858 L80.266,88.977 C81.9328,89.374 83.7838,89.335 85.7433,88.861 L88.128,83.713 C89.9422,83.066 91.8055,81.99 93.6197,80.543 L96.0044,82.936 C97.9639,81.148 99.8149,79.05 101.482,76.728 L100.416,72.84 C101.817,70.642 102.979,68.289 103.84,65.905 L107.879,63.771 C108.656,61.144 109.113,58.567 109.232,56.146 L105.518,56.445 C105.452,54.352 105.037,52.494 104.296,50.968 L106.949,45.913 C105.958,44.425 104.677,43.31 103.158,42.613 L99.5932,46.874 C98.1088,46.462 96.43,46.497 94.6453,46.979 L93.9135,42.81 Z M90.8738,58.746 C94.1056,56.88 96.7293,58.395 96.7293,62.126 C96.7293,65.858 94.1056,70.403 90.8738,72.268 C87.6421,74.134 85.0184,72.619 85.0184,68.888 C85.0184,65.156 87.6421,60.612 90.8738,58.746 Z"/>
    <path stroke="#5A6D83" stroke-linecap="round" stroke-linejoin="round" d="M84.3794 76.749C82.6782 75.719 81.6293 73.574 81.6293 70.543 81.6293 69.19 81.8384 67.772 82.2212 66.351M85.6874 59.113C87.2686 56.897 89.2035 55.012 91.2923 53.807 96.6255 50.727 100.955 53.227 100.955 59.385 100.955 65.544 96.6255 73.043 91.2923 76.122"/>
    <path fill="#D1D9E0" d="M201.614,5.215 C201.614,5.215 194.373,1.035 194.263,0.971 C192.883,0.174 191.182,0.174 189.802,0.971 C165.665,14.907 60.6836,75.518 44.1553,85.06 C42.3505,86.102 41.2387,88.028 41.2387,90.112 C41.2387,107.941 41.2387,205.7987 41.2387,231.7743 C41.2387,233.3683 42.0891,234.8413 43.4696,235.6383 C43.5174,235.6659 49.4869,237.4361 49.4869,237.4361 L60.4984,228.3827 L193.578,151.5493 C195.382,150.5074 196.494,148.5817 196.494,146.4977 L196.494,13.679 L201.614,5.215 Z"/>
    <path stroke="#05122C" stroke-linecap="round" stroke-linejoin="round" d="M201.614,5.215 C201.614,5.215 194.373,1.035 194.263,0.971 C192.883,0.174 191.182,0.174 189.802,0.971 C165.665,14.907 60.6836,75.518 44.1553,85.06 C42.3505,86.102 41.2387,88.028 41.2387,90.112 C41.2387,107.941 41.2387,205.7987 41.2387,231.7743 C41.2387,233.3683 42.0891,234.8413 43.4696,235.6383 C43.5174,235.6659 49.4869,237.4361 49.4869,237.4361 L60.4984,228.3827 L193.578,151.5493 C195.382,150.5074 196.494,148.5817 196.494,146.4977 L196.494,13.679 L201.614,5.215 Z"/>
    <path fill="#FFF" d="M46.3581,92.208 C46.3581,90.462 47.2897,88.849 48.802,87.976 C66.1339,77.969 170.523,17.7 196.006,2.987 C197.162,2.32 198.588,2.32 199.744,2.987 C200.901,3.655 201.614,4.889 201.614,6.225 C201.614,32.495 201.614,130.568 201.614,148.4923 C201.614,150.2385 200.682,151.8521 199.17,152.7252 C181.838,162.7318 77.449,223.0007 51.966,237.7133 C50.8093,238.3811 49.3841,238.3811 48.2274,237.7133 C47.0707,237.0455 46.3581,235.8113 46.3581,234.4756 C46.3581,208.2057 46.3581,110.133 46.3581,92.208 Z"/>
    <path stroke="#05122C" stroke-linecap="round" stroke-linejoin="round" d="M46.3581,92.208 C46.3581,90.462 47.2897,88.849 48.802,87.976 C66.1339,77.969 170.523,17.7 196.006,2.987 C197.162,2.32 198.588,2.32 199.744,2.987 C200.901,3.655 201.614,4.889 201.614,6.225 C201.614,32.495 201.614,130.568 201.614,148.4923 C201.614,150.2385 200.682,151.8521 199.17,152.7252 C181.838,162.7318 77.449,223.0007 51.966,237.7133 C50.8093,238.3811 49.3841,238.3811 48.2274,237.7133 C47.0707,237.0455 46.3581,235.8113 46.3581,234.4756 C46.3581,208.2057 46.3581,110.133 46.3581,92.208 Z"/>
    <path stroke="#EFF4F7" stroke-linecap="round" stroke-linejoin="round" stroke-width="2" d="M57.5185 104.695C57.5185 104.695 171.718 38.762 191.729 27.209 192.342 26.854 193.098 26.854 193.712 27.209 194.325 27.563 194.703 28.217 194.703 28.926 194.703 37.112 194.703 57.094 194.703 57.094M194.703 123.981C194.703 123.981 194.703 135.846 194.703 141.122 194.703 142.656 193.885 144.073 192.557 144.84 175.133 154.8993 57.5185 222.8042 57.5185 222.8042"/>
    <path fill="#3F6C9F" fill-opacity=".2" d="M92.438 95.834C92.438 94.87 91.9238 93.979 91.0891 93.497 90.2544 93.015 89.2259 93.015 88.3912 93.497 80.92 97.811 65.1455 106.918 58.7993 110.582 57.1103 111.557 56.0698 113.36 56.0698 115.31 56.0698 123.471 56.0698 145.277 56.0698 154.1739 56.0698 154.9704 56.4947 155.7063 57.1844 156.1045 57.8741 156.5027 58.7239 156.5027 59.4136 156.1045 66.4826 152.0232 82.8417 142.578 89.5195 138.723 91.3255 137.68 92.438 135.753 92.438 133.668L92.438 95.834zM92.438 149.2742C92.438 148.3103 91.9238 147.4197 91.0891 146.9377 90.2544 146.4558 89.2259 146.4558 88.3912 146.9378 80.92 151.2513 65.1455 160.3586 58.7993 164.0226 57.1103 164.9978 56.0698 166.8 56.0698 168.7503 56.0698 176.9118 56.0698 198.7172 56.0698 207.6144 56.0698 208.4108 56.4947 209.1468 57.1844 209.545 57.8741 209.9432 58.7239 209.9432 59.4136 209.545 66.4826 205.4637 82.8417 196.0188 89.5195 192.1634 91.3255 191.1207 92.438 189.1937 92.438 187.1083L92.438 149.2742z"/>
    <path fill="#FFF" d="M95.7668,97.756 C95.7668,96.792 95.2526,95.901 94.4179,95.419 C93.5832,94.937 92.5547,94.937 91.72,95.419 C84.2488,99.733 68.4743,108.84 62.1281,112.504 C60.4391,113.479 59.3986,115.281 59.3986,117.232 C59.3986,125.393 59.3986,147.1986 59.3986,156.0958 C59.3986,156.8923 59.8235,157.6282 60.5132,158.0264 C61.2029,158.4246 62.0527,158.4246 62.7424,158.0264 C69.8114,153.9451 86.1705,144.5 92.8483,140.645 C94.6543,139.602 95.7668,137.675 95.7668,135.59 L95.7668,97.756 Z"/>
    <path stroke="#01050C" stroke-linecap="round" stroke-linejoin="round" d="M95.7668,97.756 C95.7668,96.792 95.2526,95.901 94.4179,95.419 C93.5832,94.937 92.5547,94.937 91.72,95.419 C84.2488,99.733 68.4743,108.84 62.1281,112.504 C60.4391,113.479 59.3986,115.281 59.3986,117.232 C59.3986,125.393 59.3986,147.1986 59.3986,156.0958 C59.3986,156.8923 59.8235,157.6282 60.5132,158.0264 C61.2029,158.4246 62.0527,158.4246 62.7424,158.0264 C69.8114,153.9451 86.1705,144.5 92.8483,140.645 C94.6543,139.602 95.7668,137.675 95.7668,135.59 L95.7668,97.756 Z"/>
    <path fill="#FFF" d="M119.96,83.788 C119.96,82.824 119.446,81.933 118.611,81.451 C117.776,80.969 116.748,80.969 115.913,81.451 C112.44,83.456 107.531,86.291 104.506,88.037 C102.816,89.013 101.776,90.815 101.776,92.765 C101.776,100.927 101.776,122.732 101.776,131.629 C101.776,132.426 102.201,133.162 102.891,133.56 C103.58,133.958 104.43,133.958 105.12,133.56 C108.536,131.587 113.788,128.555 117.042,126.677 C118.848,125.634 119.96,123.707 119.96,121.622 C119.96,113.542 119.96,93.05 119.96,83.788 Z"/>
    <path stroke="#B1BBC9" stroke-linecap="round" stroke-linejoin="round" d="M119.96,83.788 C119.96,82.824 119.446,81.933 118.611,81.451 C117.776,80.969 116.748,80.969 115.913,81.451 C112.44,83.456 107.531,86.291 104.506,88.037 C102.816,89.013 101.776,90.815 101.776,92.765 C101.776,100.927 101.776,122.732 101.776,131.629 C101.776,132.426 102.201,133.162 102.891,133.56 C103.58,133.958 104.43,133.958 105.12,133.56 C108.536,131.587 113.788,128.555 117.042,126.677 C118.848,125.634 119.96,123.707 119.96,121.622 C119.96,113.542 119.96,93.05 119.96,83.788 Z"/>
    <line x1="107.17" x2="116.214" y1="106.306" y2="111.679" stroke="#05122C" stroke-linecap="round" stroke-linejoin="round" stroke-width="2"/>
    <line x1="116.214" x2="107.17" y1="101.084" y2="116.9" stroke="#05122C" stroke-linecap="round" stroke-linejoin="round" stroke-width="2"/>
    <path fill="#FFF" d="M142.278,70.902 C142.278,69.938 141.764,69.048 140.929,68.566 C140.095,68.084 139.066,68.084 138.232,68.566 C134.759,70.571 129.849,73.405 126.824,75.152 C125.135,76.127 124.094,77.929 124.094,79.88 C124.094,88.041 124.094,109.847 124.094,118.744 C124.094,119.54 124.519,120.276 125.209,120.674 C125.899,121.073 126.748,121.073 127.438,120.674 C130.854,118.702 136.106,115.67 139.36,113.791 C141.166,112.749 142.278,110.822 142.278,108.736 C142.278,100.656 142.278,80.165 142.278,70.902 Z"/>
    <path stroke="#E01A33" stroke-linecap="round" stroke-linejoin="round" d="M142.278,70.902 C142.278,69.938 141.764,69.048 140.929,68.566 C140.095,68.084 139.066,68.084 138.232,68.566 C134.759,70.571 129.849,73.405 126.824,75.152 C125.135,76.127 124.094,77.929 124.094,79.88 C124.094,88.041 124.094,109.847 124.094,118.744 C124.094,119.54 124.519,120.276 125.209,120.674 C125.899,121.073 126.748,121.073 127.438,120.674 C130.854,118.702 136.106,115.67 139.36,113.791 C141.166,112.749 142.278,110.822 142.278,108.736 C142.278,100.656 142.278,80.165 142.278,70.902 Z"/>
    <polyline stroke="#E01A33" stroke-linecap="round" stroke-linejoin="round" stroke-width="2" points="138.532 88.199 132.363 102.74 128.228 98.209"/>
    <path fill="#FFF" d="M164.597,58.017 C164.597,57.053 164.082,56.162 163.248,55.68 C162.413,55.198 161.385,55.198 160.55,55.68 C157.077,57.685 152.167,60.52 149.142,62.267 C147.453,63.242 146.413,65.044 146.413,66.994 C146.413,75.156 146.413,96.961 146.413,105.858 C146.413,106.655 146.837,107.391 147.527,107.789 C148.217,108.187 149.067,108.187 149.756,107.789 C153.173,105.816 158.425,102.784 161.678,100.906 C163.484,99.863 164.597,97.936 164.597,95.851 C164.597,87.771 164.597,67.279 164.597,58.017 Z"/>
    <path stroke="#B1BBC9" stroke-linecap="round" stroke-linejoin="round" d="M164.597,58.017 C164.597,57.053 164.082,56.162 163.248,55.68 C162.413,55.198 161.385,55.198 160.55,55.68 C157.077,57.685 152.167,60.52 149.142,62.267 C147.453,63.242 146.413,65.044 146.413,66.994 C146.413,75.156 146.413,96.961 146.413,105.858 C146.413,106.655 146.837,107.391 147.527,107.789 C148.217,108.187 149.067,108.187 149.756,107.789 C153.173,105.816 158.425,102.784 161.678,100.906 C163.484,99.863 164.597,97.936 164.597,95.851 C164.597,87.771 164.597,67.279 164.597,58.017 Z"/>
    <line x1="151.806" x2="160.85" y1="80.535" y2="85.908" stroke="#05122C" stroke-linecap="round" stroke-linejoin="round" stroke-width="2"/>
    <line x1="160.85" x2="151.806" y1="75.314" y2="91.129" stroke="#05122C" stroke-linecap="round" stroke-linejoin="round" stroke-width="2"/>
    <path fill="#FFF" d="M186.915,45.131 C186.915,44.167 186.401,43.277 185.566,42.795 C184.731,42.313 183.703,42.313 182.868,42.795 C179.395,44.8 174.486,47.634 171.46,49.381 C169.771,50.356 168.731,52.158 168.731,54.109 C168.731,62.27 168.731,84.076 168.731,92.973 C168.731,93.769 169.156,94.505 169.845,94.903 C170.535,95.302 171.385,95.302 172.075,94.903 C175.491,92.931 180.743,89.899 183.996,88.02 C185.802,86.978 186.915,85.051 186.915,82.965 C186.915,74.885 186.915,54.394 186.915,45.131 Z"/>
    <path stroke="#B1BBC9" stroke-linecap="round" stroke-linejoin="round" d="M186.915,45.131 C186.915,44.167 186.401,43.277 185.566,42.795 C184.731,42.313 183.703,42.313 182.868,42.795 C179.395,44.8 174.486,47.634 171.46,49.381 C169.771,50.356 168.731,52.158 168.731,54.109 C168.731,62.27 168.731,84.076 168.731,92.973 C168.731,93.769 169.156,94.505 169.845,94.903 C170.535,95.302 171.385,95.302 172.075,94.903 C175.491,92.931 180.743,89.899 183.996,88.02 C185.802,86.978 186.915,85.051 186.915,82.965 C186.915,74.885 186.915,54.394 186.915,45.131 Z"/>
    <line x1="174.125" x2="183.169" y1="67.65" y2="73.023" stroke="#05122C" stroke-linecap="round" stroke-linejoin="round" stroke-width="2"/>
    <line x1="183.169" x2="174.125" y1="62.428" y2="78.244" stroke="#05122C" stroke-linecap="round" stroke-linejoin="round" stroke-width="2"/>
    <path fill="#FFF" d="M164.789,112.276 C164.789,111.312 164.275,110.421 163.44,109.939 C162.606,109.457 161.577,109.457 160.742,109.939 C157.27,111.944 152.36,114.779 149.335,116.526 C147.646,117.501 146.605,119.303 146.605,121.253 C146.605,129.415 146.605,151.2202 146.605,160.1175 C146.605,160.9139 147.03,161.6498 147.72,162.048 C148.409,162.4463 149.259,162.4463 149.949,162.048 C153.365,160.0756 158.617,157.0434 161.871,155.165 C163.677,154.1223 164.789,152.1953 164.789,150.1099 C164.789,142.03 164.789,121.539 164.789,112.276 Z"/>
    <path stroke="#E01A33" stroke-linecap="round" stroke-linejoin="round" d="M164.789,112.276 C164.789,111.312 164.275,110.421 163.44,109.939 C162.606,109.457 161.577,109.457 160.742,109.939 C157.27,111.944 152.36,114.779 149.335,116.526 C147.646,117.501 146.605,119.303 146.605,121.253 C146.605,129.415 146.605,151.2202 146.605,160.1175 C146.605,160.9139 147.03,161.6498 147.72,162.048 C148.409,162.4463 149.259,162.4463 149.949,162.048 C153.365,160.0756 158.617,157.0434 161.871,155.165 C163.677,154.1223 164.789,152.1953 164.789,150.1099 C164.789,142.03 164.789,121.539 164.789,112.276 Z"/>
    <polyline stroke="#E01A33" stroke-linecap="round" stroke-linejoin="round" stroke-width="2" points="161.043 129.573 154.873 144.114 150.739 139.583"/>
    <path fill="#FFF" d="M119.96,138.158 C119.96,137.194 119.446,136.304 118.611,135.822 C117.776,135.34 116.748,135.34 115.913,135.822 C112.44,137.827 107.531,140.661 104.506,142.408 C102.816,143.383 101.776,145.185 101.776,147.1355 C101.776,155.297 101.776,177.1024 101.776,185.9996 C101.776,186.796 102.201,187.532 102.891,187.9302 C103.58,188.3284 104.43,188.3284 105.12,187.9302 C108.536,185.9578 113.788,182.9255 117.042,181.0472 C118.848,180.0045 119.96,178.0775 119.96,175.9921 C119.96,167.9119 119.96,147.4207 119.96,138.158 Z"/>
    <path stroke="#E01A33" stroke-linecap="round" stroke-linejoin="round" d="M119.96,138.158 C119.96,137.194 119.446,136.304 118.611,135.822 C117.776,135.34 116.748,135.34 115.913,135.822 C112.44,137.827 107.531,140.661 104.506,142.408 C102.816,143.383 101.776,145.185 101.776,147.1355 C101.776,155.297 101.776,177.1024 101.776,185.9996 C101.776,186.796 102.201,187.532 102.891,187.9302 C103.58,188.3284 104.43,188.3284 105.12,187.9302 C108.536,185.9578 113.788,182.9255 117.042,181.0472 C118.848,180.0045 119.96,178.0775 119.96,175.9921 C119.96,167.9119 119.96,147.4207 119.96,138.158 Z"/>
    <polyline stroke="#E01A33" stroke-linecap="round" stroke-linejoin="round" stroke-width="2" points="116.214 155.455 110.044 169.996 105.91 165.465"/>
    <path fill="#FFF" d="M142.278,125.273 C142.278,124.309 141.764,123.418 140.929,122.936 C140.095,122.454 139.066,122.454 138.232,122.936 C134.759,124.941 129.849,127.776 126.824,129.522 C125.135,130.498 124.094,132.3 124.094,134.25 C124.094,142.412 124.094,164.2169 124.094,173.1142 C124.094,173.9106 124.519,174.6465 125.209,175.0447 C125.899,175.4429 126.748,175.4429 127.438,175.0447 C130.854,173.0723 136.106,170.0401 139.36,168.1617 C141.166,167.119 142.278,165.192 142.278,163.1066 C142.278,155.0265 142.278,134.535 142.278,125.273 Z"/>
    <path stroke="#B1BBC9" stroke-linecap="round" stroke-linejoin="round" d="M142.278,125.273 C142.278,124.309 141.764,123.418 140.929,122.936 C140.095,122.454 139.066,122.454 138.232,122.936 C134.759,124.941 129.849,127.776 126.824,129.522 C125.135,130.498 124.094,132.3 124.094,134.25 C124.094,142.412 124.094,164.2169 124.094,173.1142 C124.094,173.9106 124.519,174.6465 125.209,175.0447 C125.899,175.4429 126.748,175.4429 127.438,175.0447 C130.854,173.0723 136.106,170.0401 139.36,168.1617 C141.166,167.119 142.278,165.192 142.278,163.1066 C142.278,155.0265 142.278,134.535 142.278,125.273 Z"/>
    <line x1="129.488" x2="138.532" y1="147.791" y2="153.164" stroke="#05122C" stroke-linecap="round" stroke-linejoin="round" stroke-width="2"/>
    <line x1="138.532" x2="129.488" y1="142.569" y2="158.385" stroke="#05122C" stroke-linecap="round" stroke-linejoin="round" stroke-width="2"/>
    <path fill="#FFF" d="M186.915,99.502 C186.915,98.538 186.401,97.647 185.566,97.165 C184.731,96.683 183.703,96.683 182.868,97.165 C179.395,99.17 174.486,102.005 171.46,103.751 C169.771,104.727 168.731,106.529 168.731,108.479 C168.731,116.641 168.731,138.446 168.731,147.3432 C168.731,148.1397 169.156,148.8756 169.845,149.2738 C170.535,149.672 171.385,149.672 172.075,149.2738 C175.491,147.3014 180.743,144.269 183.996,142.391 C185.802,141.348 186.915,139.421 186.915,137.336 C186.915,129.256 186.915,108.764 186.915,99.502 Z"/>
    <path stroke="#B1BBC9" stroke-linecap="round" stroke-linejoin="round" d="M186.915,99.502 C186.915,98.538 186.401,97.647 185.566,97.165 C184.731,96.683 183.703,96.683 182.868,97.165 C179.395,99.17 174.486,102.005 171.46,103.751 C169.771,104.727 168.731,106.529 168.731,108.479 C168.731,116.641 168.731,138.446 168.731,147.3432 C168.731,148.1397 169.156,148.8756 169.845,149.2738 C170.535,149.672 171.385,149.672 172.075,149.2738 C175.491,147.3014 180.743,144.269 183.996,142.391 C185.802,141.348 186.915,139.421 186.915,137.336 C186.915,129.256 186.915,108.764 186.915,99.502 Z"/>
    <line x1="174.125" x2="183.169" y1="122.02" y2="127.393" stroke="#05122C" stroke-linecap="round" stroke-linejoin="round" stroke-width="2"/>
    <line x1="183.169" x2="174.125" y1="116.798" y2="132.614" stroke="#05122C" stroke-linecap="round" stroke-linejoin="round" stroke-width="2"/>
    <path fill="#FFF" d="M95.7668,151.9339 C95.7668,150.97 95.2526,150.0793 94.4179,149.5974 C93.5832,149.1155 92.5547,149.1155 91.72,149.5974 C84.2488,153.9109 68.4743,163.0183 62.1281,166.6823 C60.4391,167.6575 59.3986,169.4596 59.3986,171.41 C59.3986,179.5715 59.3986,201.3768 59.3986,210.2741 C59.3986,211.0705 59.8235,211.8064 60.5132,212.2047 C61.2029,212.6029 62.0527,212.6029 62.7424,212.2046 C69.8114,208.1234 86.1705,198.6785 92.8483,194.823 C94.6543,193.7803 95.7668,191.8533 95.7668,189.7679 C95.7668,181.6878 95.7668,161.1965 95.7668,151.9339 Z"/>
    <path stroke="#01050C" stroke-linecap="round" stroke-linejoin="round" d="M95.7668,151.9339 C95.7668,150.97 95.2526,150.0793 94.4179,149.5974 C93.5832,149.1155 92.5547,149.1155 91.72,149.5974 C84.2488,153.9109 68.4743,163.0183 62.1281,166.6823 C60.4391,167.6575 59.3986,169.4596 59.3986,171.41 C59.3986,179.5715 59.3986,201.3768 59.3986,210.2741 C59.3986,211.0705 59.8235,211.8064 60.5132,212.2047 C61.2029,212.6029 62.0527,212.6029 62.7424,212.2046 C69.8114,208.1234 86.1705,198.6785 92.8483,194.823 C94.6543,193.7803 95.7668,191.8533 95.7668,189.7679 C95.7668,181.6878 95.7668,161.1965 95.7668,151.9339 Z"/>
    <path fill="#D1D9E0" d="M78.4337,110.15 C81.5409,108.356 84.0635,109.813 84.0635,113.4 C84.0635,116.988 81.5409,121.358 78.4337,123.152 C75.3265,124.946 72.8038,123.489 72.8038,119.901 C72.8038,116.313 75.3265,111.944 78.4337,110.15 Z"/>
    <path stroke="#05122C" stroke-linecap="round" stroke-linejoin="round" d="M78.4337,110.15 C81.5409,108.356 84.0635,109.813 84.0635,113.4 C84.0635,116.988 81.5409,121.358 78.4337,123.152 C75.3265,124.946 72.8038,123.489 72.8038,119.901 C72.8038,116.313 75.3265,111.944 78.4337,110.15 Z"/>
    <path fill="#EFF4F7" d="M86.887,137.545 C86.887,137.545 86.887,135.943 86.887,133.82 C86.887,131.08 85.9442,128.996 84.2658,128.027 C82.5875,127.058 80.3112,127.283 77.9377,128.653 C77.9368,128.654 77.9359,128.655 77.9351,128.655 C75.5615,130.025 73.2852,132.428 71.6069,135.335 C69.9286,138.242 68.9857,141.415 68.9857,144.156 C68.9857,146.2784 68.9857,147.8806 68.9857,147.8806 L82.1275,140.293"/>
    <path stroke="#05122C" stroke-linecap="round" stroke-linejoin="round" d="M86.887,137.545 C86.887,137.545 86.887,135.943 86.887,133.82 C86.887,131.08 85.9442,128.996 84.2658,128.027 C82.5875,127.058 80.3112,127.283 77.9377,128.653 C77.9368,128.654 77.9359,128.655 77.9351,128.655 C75.5615,130.025 73.2852,132.428 71.6069,135.335 C69.9286,138.242 68.9857,141.415 68.9857,144.156 C68.9857,146.2784 68.9857,147.8806 68.9857,147.8806 L82.1275,140.293"/>
    <path fill="#EFF4F7" d="M88.8762,171.8888 C88.8762,171.4558 88.6453,171.0558 88.2703,170.8393 C87.8954,170.6229 87.4335,170.6229 87.0586,170.8393 C82.8504,173.269 72.4972,179.2464 68.555,181.5224 C67.5906,182.0792 66.9965,183.1082 66.9965,184.2218 C66.9965,187.2659 66.9965,193.468 66.9965,197.2448 C66.9965,197.8942 67.343,198.4943 67.9054,198.8191 C68.4679,199.1438 69.1608,199.1438 69.7232,198.8191 C74.562,196.0254 84.4528,190.3149 87.7664,188.4018 C88.4532,188.0053 88.8762,187.2725 88.8762,186.4795 C88.8762,183.4164 88.8762,175.6465 88.8762,171.8888 Z"/>
    <path stroke="#05122C" stroke-linecap="round" stroke-linejoin="round" d="M88.8762,171.8888 C88.8762,171.4558 88.6453,171.0558 88.2703,170.8393 C87.8954,170.6229 87.4335,170.6229 87.0586,170.8393 C82.8504,173.269 72.4972,179.2464 68.555,181.5224 C67.5906,182.0792 66.9965,183.1082 66.9965,184.2218 C66.9965,187.2659 66.9965,193.468 66.9965,197.2448 C66.9965,197.8942 67.343,198.4943 67.9054,198.8191 C68.4679,199.1438 69.1608,199.1438 69.7232,198.8191 C74.562,196.0254 84.4528,190.3149 87.7664,188.4018 C88.4532,188.0053 88.8762,187.2725 88.8762,186.4795 C88.8762,183.4164 88.8762,175.6465 88.8762,171.8888 Z"/>
    <path stroke="#05122C" stroke-linecap="round" stroke-linejoin="round" d="M82.365,167.7418 C82.365,167.0388 81.99,166.3892 81.3812,166.0377 C80.7725,165.6863 80.0224,165.6863 79.4136,166.0377 C77.9872,166.8613 76.3099,167.8297 75.022,168.5732 C73.7426,169.3119 72.9545,170.677 72.9545,172.1543 C72.9545,174.8848 72.9545,178.9824 72.9545,178.9824 L82.365,173.5492 C82.365,173.5492 82.365,170.3664 82.365,167.7418 Z"/>
    <path fill="#FFF" d="M77.5827,186.6068 C76.5356,186.8133 75.7789,186.1111 75.7789,184.7695 C75.7789,183.0972 76.9546,181.0607 78.4029,180.2246 C79.8511,179.3884 81.0269,180.0673 81.0269,181.7396 C81.0269,182.8494 80.509,184.1197 79.7373,185.093 C79.7373,185.093 79.7373,187.0473 79.7373,188.0844 C79.7373,188.474 79.5295,188.834 79.1921,189.0287 C78.9896,189.1457 78.7536,189.2819 78.5257,189.4135 C78.3312,189.5258 78.0916,189.5258 77.8971,189.4135 C77.7025,189.3012 77.5827,189.0937 77.5827,188.8691 C77.5827,187.8906 77.5827,186.6068 77.5827,186.6068 Z"/>
    <path stroke="#01050C" stroke-linecap="round" stroke-linejoin="round" d="M77.5827,186.6068 C76.5356,186.8133 75.7789,186.1111 75.7789,184.7695 C75.7789,183.0972 76.9546,181.0607 78.4029,180.2246 C79.8511,179.3884 81.0269,180.0673 81.0269,181.7396 C81.0269,182.8494 80.509,184.1197 79.7373,185.093 C79.7373,185.093 79.7373,187.0473 79.7373,188.0844 C79.7373,188.474 79.5295,188.834 79.1921,189.0287 C78.9896,189.1457 78.7536,189.2819 78.5257,189.4135 C78.3312,189.5258 78.0916,189.5258 77.8971,189.4135 C77.7025,189.3012 77.5827,189.0937 77.5827,188.8691 C77.5827,187.8906 77.5827,186.6068 77.5827,186.6068 Z"/>
    <path fill="#D1D9E0" d="M205.939,139.725 C203.927,140.498 201.873,141.684 199.86,143.235 L199.128,148.2497 C197.344,149.829 195.665,151.7317 194.18,153.8577 L190.615,153.7139 C189.097,156.1645 187.816,158.7588 186.825,161.3906 L189.477,163.3826 C188.736,165.7639 188.322,168.1009 188.255,170.2704 L184.541,174.2603 C184.66,176.5438 185.118,178.5927 185.894,180.3231 L189.889,182.6317 C191.601,181.7882 191.956,180.1944 193.358,180.7738 L192.292,185.893 C193.358,186.8281 195.973,188.9219 197.933,188.4479 L200.154,180.6292 C201.968,179.9814 203.831,178.9057 205.646,177.4586 L208.03,179.8522 C209.99,178.0635 211.841,175.9655 213.508,173.644 L212.442,169.7558 C213.843,167.5579 215.005,165.205 215.866,162.8212 L219.905,160.6868 C220.682,158.0596 221.139,155.4827 221.258,153.0619 L217.544,153.3606 C217.478,151.2676 217.063,149.4094 216.322,147.8839 L218.975,142.829 C218.55,142.191 219.707,142.335 219.18,141.837 C218.477,141.175 216.052,139.927 215.184,139.529 L211.619,143.789 C210.135,143.378 208.456,143.413 206.671,143.895 L209.935,142.034 L205.939,139.725 Z M202.9,155.6616 C206.132,153.7957 208.755,155.3106 208.755,159.0422 C208.755,162.7739 206.132,167.3184 202.9,169.1842 C199.668,171.0501 197.044,169.5353 197.044,165.8036 C197.044,162.0719 199.668,157.5274 202.9,155.6616 Z"/>
    <g transform="translate(184 138.606)">
      <mask id="credential-access@1x-f" fill="#fff">
        <use xlink:href="#credential-access@1x-e"/>
      </mask>
      <line x1="15.964" x2="19.855" y1="4.772" y2="6.938" stroke="#05122C" stroke-linecap="round" stroke-linejoin="round" mask="url(#credential-access@1x-f)"/>
      <line x1="6.631" x2="10.522" y1="15.21" y2="17.375" stroke="#05122C" stroke-linecap="round" stroke-linejoin="round" mask="url(#credential-access@1x-f)"/>
      <line x1="2.74" x2="6.631" y1="22.825" y2="24.99" stroke="#05122C" stroke-linecap="round" stroke-linejoin="round" mask="url(#credential-access@1x-f)"/>
      <line x1=".541" x2="4.432" y1="35.639" y2="37.805" stroke="#05122C" stroke-linecap="round" stroke-linejoin="round" mask="url(#credential-access@1x-f)"/>
    </g>
    <path stroke="#5A6D83" stroke-linecap="round" stroke-linejoin="round" d="M205.939,139.725 C203.927,140.498 201.873,141.684 199.86,143.235 L199.128,148.2497 C197.344,149.829 195.665,151.7317 194.18,153.8577 L190.615,153.7139 C189.097,156.1645 187.816,158.7588 186.825,161.3906 L189.477,163.3826 C188.736,165.7639 188.322,168.1009 188.255,170.2704 L184.541,174.2603 C184.66,176.5438 185.118,178.5927 185.894,180.3231 L189.889,182.6317 C191.601,181.7882 191.956,180.1944 193.358,180.7738 L192.292,185.893 C193.358,186.8281 195.973,188.9219 197.933,188.4479 L200.154,180.6292 C201.968,179.9814 203.831,178.9057 205.646,177.4586 L208.03,179.8522 C209.99,178.0635 211.841,175.9655 213.508,173.644 L212.442,169.7558 C213.843,167.5579 215.005,165.205 215.866,162.8212 L219.905,160.6868 C220.682,158.0596 221.139,155.4827 221.258,153.0619 L217.544,153.3606 C217.478,151.2676 217.063,149.4094 216.322,147.8839 L218.975,142.829 C218.55,142.191 219.707,142.335 219.18,141.837 C218.477,141.175 216.052,139.927 215.184,139.529 L211.619,143.789 C210.135,143.378 208.456,143.413 206.671,143.895 L209.935,142.034 L205.939,139.725 Z M202.9,155.6616 C206.132,153.7957 208.755,155.3106 208.755,159.0422 C208.755,162.7739 206.132,167.3184 202.9,169.1842 C199.668,171.0501 197.044,169.5353 197.044,165.8036 C197.044,162.0719 199.668,157.5274 202.9,155.6616 Z"/>
    <path fill="#EFF4F7" d="M209.935,142.034 C207.922,142.806 205.868,143.993 203.855,145.544 L203.124,150.5582 C201.339,152.1375 199.66,154.0403 198.176,156.1662 L194.61,156.0224 C193.092,158.473 191.811,161.0674 190.82,163.6992 L193.473,165.6912 C192.732,168.0725 192.317,170.4094 192.251,172.579 L188.537,176.5689 C188.656,178.8523 189.113,180.9013 189.889,182.6317 L193.929,180.1014 C194.79,181.4916 195.951,182.503 197.353,183.0824 L196.287,188.2015 C197.954,188.5983 199.805,188.5589 201.764,188.085 L204.149,182.9378 C205.963,182.29 207.827,181.2142 209.641,179.7672 L212.026,182.1607 C213.985,180.3721 215.836,178.274 217.503,175.9526 L216.437,172.0644 C217.839,169.8664 219,167.5136 219.861,165.1297 L223.901,162.9953 C224.677,160.3681 225.134,157.7913 225.253,155.3704 L221.539,155.6692 C221.473,153.5762 221.058,151.718 220.317,150.1924 L222.97,145.137 C221.979,143.65 220.698,142.535 219.18,141.837 L215.614,146.098 C214.13,145.6861 212.451,145.7218 210.667,146.2033 L209.935,142.034 Z M206.895,157.9701 C210.127,156.1043 212.75,157.6191 212.75,161.3508 C212.75,165.0825 210.127,169.6269 206.895,171.4928 C203.663,173.3586 201.04,171.8438 201.04,168.1121 C201.04,164.3804 203.663,159.836 206.895,157.9701 Z"/>
    <path stroke="#5A6D83" stroke-linecap="round" stroke-linejoin="round" d="M209.935,142.034 C207.922,142.806 205.868,143.993 203.855,145.544 L203.124,150.5582 C201.339,152.1375 199.66,154.0403 198.176,156.1662 L194.61,156.0224 C193.092,158.473 191.811,161.0674 190.82,163.6992 L193.473,165.6912 C192.732,168.0725 192.317,170.4094 192.251,172.579 L188.537,176.5689 C188.656,178.8523 189.113,180.9013 189.889,182.6317 L193.929,180.1014 C194.79,181.4916 195.951,182.503 197.353,183.0824 L196.287,188.2015 C197.954,188.5983 199.805,188.5589 201.764,188.085 L204.149,182.9378 C205.963,182.29 207.827,181.2142 209.641,179.7672 L212.026,182.1607 C213.985,180.3721 215.836,178.274 217.503,175.9526 L216.437,172.0644 C217.839,169.8664 219,167.5136 219.861,165.1297 L223.901,162.9953 C224.677,160.3681 225.134,157.7913 225.253,155.3704 L221.539,155.6692 C221.473,153.5762 221.058,151.718 220.317,150.1924 L222.97,145.137 C221.979,143.65 220.698,142.535 219.18,141.837 L215.614,146.098 C214.13,145.6861 212.451,145.7218 210.667,146.2033 L209.935,142.034 Z M206.895,157.9701 C210.127,156.1043 212.75,157.6191 212.75,161.3508 C212.75,165.0825 210.127,169.6269 206.895,171.4928 C203.663,173.3586 201.04,171.8438 201.04,168.1121 C201.04,164.3804 203.663,159.836 206.895,157.9701 Z"/>
    <path stroke="#B1BBC9" stroke-linecap="round" stroke-linejoin="round" d="M200.401 175.9729C198.699 174.9434 197.65 172.7987 197.65 169.7677 197.65 168.4146 197.86 166.9967 198.242 165.5752M201.709 158.337C203.29 156.121 205.225 154.2369 207.313 153.0309 212.647 149.9518 216.976 152.4517 216.976 158.6098 216.976 164.768 212.647 172.2675 207.313 175.3466"/>
    <path stroke="#01050C" stroke-linecap="round" stroke-linejoin="round" d="M45.1147 36.4C45.1147 36.4 45.1147 30.763 45.1147 26.361 45.1147 25.302 45.6795 24.324 46.5964 23.795 47.5133 23.265 48.643 23.265 49.5599 23.795 55.9538 27.486 67.6425 34.235 73.7048 37.735 76.1045 39.12 77.5827 41.681 77.5827 44.451 77.5827 57.923 77.5827 97.159 77.5827 97.159M81.0269 206.6139L81.0269 239.4663C81.0269 240.5692 80.4161 241.5813 79.4405 242.0955 78.4648 242.6096 77.2846 242.5412 76.3749 241.9177 70.7658 238.0734 62.0822 232.1221 62.0822 232.1221"/>
    <polygon fill="#EFF4F7" points="136.497 12.283 111.692 26.604 111.692 31.378 136.497 17.057"/>
    <polygon fill="#EFF4F7" points="31.476 216.498 6.671 230.819 6.671 235.592 31.476 221.271"/>
    <polygon fill="#EFF4F7" points="35.061 148.023 22.658 155.183 22.658 159.957 35.061 152.796"/>
    <polygon fill="#EFF4F7" points="168.731 2.251 143.926 16.572 143.926 21.346 168.731 7.025"/>
    <line x1="45.546" x2="45.546" y1="40.925" y2="50.473" stroke="#E01A33" stroke-dasharray="0 3 0 0" stroke-linecap="round" stroke-linejoin="round"/>
    <path stroke="#01050C" stroke-linecap="round" stroke-linejoin="round" d="M201.67 42.038C201.67 42.038 206.959 45.091 210.896 47.364 211.762 47.864 212.295 48.787 212.295 49.786 212.295 50.785 211.762 51.709 210.896 52.208 205.903 55.091 198.23 59.521 198.23 59.521M201.949 98.349C201.949 98.349 207.05 101.295 210.896 103.515 211.762 104.015 212.295 104.938 212.295 105.937 212.295 106.937 211.762 107.86 210.896 108.359 204.929 111.805 194.703 117.708 194.703 117.708"/>
    <path fill="#FFF" d="M194.703,56.783 C196.985,55.466 198.838,56.536 198.838,59.17 C198.838,61.805 196.985,65.013 194.703,66.331 C192.422,67.648 190.569,66.579 190.569,63.944 C190.569,61.309 192.422,58.101 194.703,56.783 Z"/>
    <path stroke="#E01A33" stroke-linecap="round" stroke-linejoin="round" d="M194.703,56.783 C196.985,55.466 198.838,56.536 198.838,59.17 C198.838,61.805 196.985,65.013 194.703,66.331 C192.422,67.648 190.569,66.579 190.569,63.944 C190.569,61.309 192.422,58.101 194.703,56.783 Z"/>
    <path fill="#FFF" d="M77.5827,87.611 C79.8644,86.294 81.7168,87.363 81.7168,89.998 C81.7168,92.633 79.8644,95.841 77.5827,97.159 C75.301,98.476 73.4486,97.406 73.4486,94.772 C73.4486,92.137 75.301,88.929 77.5827,87.611 Z"/>
    <path stroke="#E01A33" stroke-linecap="round" stroke-linejoin="round" d="M77.5827,87.611 C79.8644,86.294 81.7168,87.363 81.7168,89.998 C81.7168,92.633 79.8644,95.841 77.5827,97.159 C75.301,98.476 73.4486,97.406 73.4486,94.772 C73.4486,92.137 75.301,88.929 77.5827,87.611 Z"/>
    <path fill="#FFF" d="M81.7168,205.3715 C83.9985,204.0541 85.851,205.1236 85.851,207.7583 C85.851,210.393 83.9985,213.6015 81.7168,214.9188 C79.4352,216.2362 77.5827,215.1667 77.5827,212.532 C77.5827,209.8973 79.4352,206.6888 81.7168,205.3715 Z"/>
    <path stroke="#E01A33" stroke-linecap="round" stroke-linejoin="round" d="M81.7168,205.3715 C83.9985,204.0541 85.851,205.1236 85.851,207.7583 C85.851,210.393 83.9985,213.6015 81.7168,214.9188 C79.4352,216.2362 77.5827,215.1667 77.5827,212.532 C77.5827,209.8973 79.4352,206.6888 81.7168,205.3715 Z"/>
    <path fill="#FFF" d="M194.703,112.902 C196.985,111.585 198.838,112.654 198.838,115.289 C198.838,117.924 196.985,121.132 194.703,122.449 C192.422,123.767 190.569,122.697 190.569,120.063 C190.569,117.428 192.422,114.219 194.703,112.902 Z"/>
    <path stroke="#E01A33" stroke-linecap="round" stroke-linejoin="round" d="M194.703,112.902 C196.985,111.585 198.838,112.654 198.838,115.289 C198.838,117.924 196.985,121.132 194.703,122.449 C192.422,123.767 190.569,122.697 190.569,120.063 C190.569,117.428 192.422,114.219 194.703,112.902 Z"/>
    <line x1="161.99" x2="186.915" y1="170.818" y2="185.208" stroke="#5A6D83" stroke-dasharray="0 3 0 0" stroke-linecap="round" stroke-linejoin="round"/>
    <line x1="19.073" x2="38.646" y1="144.422" y2="155.722" stroke="#5A6D83" stroke-dasharray="0 3 0 0" stroke-linecap="round" stroke-linejoin="round"/>
    <line x1="38.646" x2="64.612" y1="65.252" y2="80.243" stroke="#5A6D83" stroke-dasharray="0 3 0 0" stroke-linecap="round" stroke-linejoin="round"/>
    <line x1="16.791" x2="33.143" y1="91.049" y2="100.49" stroke="#5A6D83" stroke-dasharray="0 3 0 0" stroke-linecap="round" stroke-linejoin="round"/>
    <line x1="103.75" x2="112.193" y1="40.304" y2="45.179" stroke="#5A6D83" stroke-dasharray="0 3 0 0" stroke-linecap="round" stroke-linejoin="round"/>
    <line x1="198.23" x2="213.953" y1="129.494" y2="138.572" stroke="#5A6D83" stroke-dasharray="0 3 0 0" stroke-linecap="round" stroke-linejoin="round"/>
    <line x1="176.68" x2="186.892" y1="150.545" y2="156.441" stroke="#5A6D83" stroke-dasharray="0 3 0 0" stroke-linecap="round" stroke-linejoin="round"/>
    <path fill="#EFF4F7" d="M171.158,24.923 C172.497,24.149 173.585,24.777 173.585,26.324 C173.585,27.87 172.497,29.754 171.158,30.527 C169.818,31.301 168.731,30.673 168.731,29.126 C168.731,27.579 169.818,25.696 171.158,24.923 Z"/>
    <path stroke="#01050C" stroke-linecap="round" stroke-linejoin="round" d="M171.158,24.923 C172.497,24.149 173.585,24.777 173.585,26.324 C173.585,27.87 172.497,29.754 171.158,30.527 C169.818,31.301 168.731,30.673 168.731,29.126 C168.731,27.579 169.818,25.696 171.158,24.923 Z"/>
    <path fill="#EFF4F7" d="M180.59,19.477 C181.929,18.703 183.017,19.331 183.017,20.878 C183.017,22.425 181.929,24.308 180.59,25.081 C179.251,25.855 178.163,25.227 178.163,23.68 C178.163,22.134 179.251,20.25 180.59,19.477 Z"/>
    <path stroke="#01050C" stroke-linecap="round" stroke-linejoin="round" d="M180.59,19.477 C181.929,18.703 183.017,19.331 183.017,20.878 C183.017,22.425 181.929,24.308 180.59,25.081 C179.251,25.855 178.163,25.227 178.163,23.68 C178.163,22.134 179.251,20.25 180.59,19.477 Z"/>
    <path fill="#EFF4F7" d="M190.022,14.031 C191.362,13.258 192.449,13.886 192.449,15.432 C192.449,16.979 191.362,18.862 190.022,19.636 C188.683,20.409 187.596,19.781 187.596,18.235 C187.596,16.688 188.683,14.804 190.022,14.031 Z"/>
    <path stroke="#01050C" stroke-linecap="round" stroke-linejoin="round" d="M190.022,14.031 C191.362,13.258 192.449,13.886 192.449,15.432 C192.449,16.979 191.362,18.862 190.022,19.636 C188.683,20.409 187.596,19.781 187.596,18.235 C187.596,16.688 188.683,14.804 190.022,14.031 Z"/>
  </g>
</svg>
