<?xml version="1.0" encoding="UTF-8"?><svg id="Layer_1" xmlns="http://www.w3.org/2000/svg" viewBox="0 0 670 350"><defs><style>.cls-1{fill:#4d4d4f;}.cls-2{fill:#a8aeb6;}.cls-3{fill:#14487f;}</style></defs><rect class="cls-2" x="173" y="20" width=".5" height="310"/><rect class="cls-3" x="173.25" y="286.66" width="7.03" height="36.35"/><rect class="cls-3" x="173.25" y="234.72" width="212.01" height="36.35"/><rect class="cls-3" x="173.25" y="182.79" width="268.26" height="36.35"/><rect class="cls-3" x="173.25" y="130.86" width="352.63" height="36.35"/><rect class="cls-3" x="173.25" y="78.92" width="415.91" height="36.35"/><rect class="cls-3" x="173.25" y="26.99" width="437" height="36.35"/><g><path class="cls-1" d="M616.21,322.63v3.94h-1.31v-3.87c0-.54-.11-.93-.32-1.18-.21-.25-.54-.38-.99-.38-.53,0-.95,.16-1.27,.49-.32,.33-.48,.77-.48,1.33v3.61h-1.31v-6.34h1.29v1.01c.21-.38,.5-.67,.87-.87,.37-.2,.79-.3,1.26-.3,1.52,0,2.28,.85,2.28,2.56Z"/><path class="cls-1" d="M624.36,321.08v.96h-6.34v-.96h6.34Zm0,2.6v.96h-6.34v-.96h6.34Z"/><path class="cls-1" d="M629.21,325.46h2.02v1.11h-5.36v-1.11h2v-6.46l-1.6,.98-.57-1,2.55-1.57h.96v8.06Z"/><path class="cls-1" d="M639.5,323.6v1.07h-1.34v1.9h-1.31v-1.9h-4.12v-1l4.34-6.27h1.09v6.2h1.34Zm-5.46,0h2.81v-4.06l-2.81,4.06Z"/><path class="cls-1" d="M647.02,325.46v1.11h-6.01v-1l3.16-3.46c.41-.44,.7-.84,.88-1.21,.18-.36,.27-.72,.27-1.08,0-.47-.13-.82-.4-1.07-.27-.24-.66-.36-1.16-.36-.86,0-1.71,.33-2.55,1l-.47-.99c.36-.34,.82-.61,1.38-.81,.55-.2,1.11-.3,1.68-.3,.88,0,1.57,.22,2.08,.66,.51,.44,.77,1.03,.77,1.77,0,.53-.12,1.03-.34,1.51s-.61,1.01-1.15,1.6l-2.46,2.63h4.32Z"/></g><g><path class="cls-1" d="M47.13,256.02h-1.48l-1.56-2.94c-.17-.31-.38-.53-.62-.66-.24-.12-.55-.19-.94-.19h-1.51v3.78h-1.33v-9.17h3.9c1.01,0,1.79,.23,2.32,.68,.53,.45,.8,1.11,.8,1.98,0,.7-.2,1.28-.59,1.73-.39,.45-.96,.74-1.68,.86,.45,.14,.82,.48,1.12,1.01l1.57,2.91Zm-3.69-4.86c.68,0,1.18-.13,1.5-.4,.33-.26,.49-.67,.49-1.23s-.16-.96-.48-1.22-.82-.38-1.51-.38h-2.43v3.22h2.43Z"/><path class="cls-1" d="M53.02,250.16c.41,.42,.62,1.07,.62,1.94v3.93h-1.26v-1.05c-.16,.37-.41,.66-.73,.85-.33,.2-.7,.29-1.14,.29s-.8-.08-1.14-.25-.62-.41-.81-.71c-.19-.3-.29-.64-.29-1.01,0-.46,.12-.82,.36-1.09,.24-.26,.63-.45,1.18-.57,.55-.11,1.31-.17,2.27-.17h.3v-.38c0-.49-.1-.84-.31-1.05-.2-.22-.54-.33-.99-.33-.72,0-1.44,.22-2.16,.66l-.39-.92c.34-.23,.75-.42,1.23-.57,.48-.14,.94-.21,1.38-.21,.85,0,1.48,.21,1.89,.64Zm-1.11,4.49c.3-.33,.46-.74,.46-1.25v-.34h-.23c-.68,0-1.2,.03-1.56,.09-.36,.06-.62,.16-.78,.31-.16,.14-.23,.35-.23,.62,0,.3,.11,.56,.33,.76,.22,.2,.5,.31,.85,.31,.48,0,.87-.16,1.17-.49Z"/><path class="cls-1" d="M61.13,252.08v3.94h-1.31v-3.87c0-.54-.11-.93-.32-1.18-.21-.25-.54-.38-.99-.38-.53,0-.95,.17-1.27,.49-.32,.33-.48,.77-.48,1.33v3.61h-1.31v-6.34h1.29v1.01c.21-.38,.5-.67,.87-.87,.37-.2,.79-.3,1.26-.3,1.52,0,2.27,.85,2.27,2.56Z"/><path class="cls-1" d="M62.52,255.3l.4-.95c.65,.5,1.41,.75,2.27,.75,.42,0,.75-.07,.98-.21,.23-.14,.34-.34,.34-.6,0-.23-.08-.4-.23-.53-.15-.13-.41-.24-.79-.33l-1.05-.23c-.56-.13-.99-.34-1.27-.64-.29-.29-.43-.67-.43-1.12,0-.57,.23-1.04,.7-1.39,.46-.36,1.07-.53,1.83-.53,.45,0,.88,.07,1.29,.21,.41,.14,.76,.34,1.05,.6l-.4,.92c-.62-.49-1.27-.74-1.94-.74-.4,0-.71,.08-.94,.23-.23,.16-.34,.37-.34,.64,0,.22,.07,.39,.21,.53,.14,.13,.37,.24,.68,.31l1.08,.25c.62,.14,1.07,.35,1.35,.64s.43,.67,.43,1.14c0,.57-.23,1.02-.7,1.36-.46,.33-1.09,.5-1.88,.5-1.1,0-1.98-.27-2.64-.81Z"/><path class="cls-1" d="M70.3,255.71c-.47-.27-.84-.65-1.09-1.15-.26-.5-.38-1.08-.38-1.74s.13-1.25,.38-1.75c.26-.5,.62-.88,1.09-1.15,.47-.27,1.02-.4,1.64-.4s1.17,.13,1.64,.4c.47,.27,.84,.65,1.09,1.15,.26,.5,.38,1.08,.38,1.75s-.13,1.24-.38,1.74c-.26,.5-.62,.88-1.09,1.15-.47,.27-1.02,.4-1.64,.4s-1.17-.13-1.64-.4Zm2.98-1.21c.31-.38,.46-.94,.46-1.68s-.16-1.28-.47-1.67-.75-.58-1.33-.58-1.01,.19-1.33,.58-.47,.94-.47,1.67,.15,1.3,.46,1.68c.31,.38,.75,.57,1.33,.57s1.02-.19,1.33-.57Z"/><path class="cls-1" d="M85.93,252.08v3.94h-1.31v-3.89c0-.54-.09-.93-.28-1.18-.19-.25-.49-.37-.9-.37-.48,0-.85,.17-1.13,.49s-.42,.78-.42,1.35v3.59h-1.31v-3.89c0-.54-.1-.93-.29-1.18-.19-.25-.49-.37-.9-.37-.49,0-.87,.17-1.14,.49-.28,.33-.42,.78-.42,1.35v3.59h-1.31v-6.34h1.29v.96c.2-.36,.47-.63,.81-.83,.34-.2,.72-.29,1.16-.29,.98,0,1.62,.41,1.91,1.22,.2-.38,.49-.68,.86-.9,.37-.22,.79-.33,1.26-.33,1.42,0,2.13,.85,2.13,2.56Z"/><path class="cls-1" d="M96.32,249.68h1.3l-2.43,6.34h-1.18l-1.68-4.54-1.68,4.54h-1.2l-2.42-6.34h1.36l1.72,4.77,1.73-4.77h1.03l1.73,4.8,1.72-4.8Z"/><path class="cls-1" d="M103.19,250.16c.41,.42,.62,1.07,.62,1.94v3.93h-1.26v-1.05c-.16,.37-.41,.66-.73,.85-.33,.2-.7,.29-1.14,.29s-.8-.08-1.14-.25-.62-.41-.81-.71c-.19-.3-.29-.64-.29-1.01,0-.46,.12-.82,.36-1.09,.24-.26,.63-.45,1.18-.57,.55-.11,1.31-.17,2.27-.17h.3v-.38c0-.49-.1-.84-.31-1.05-.2-.22-.54-.33-.99-.33-.72,0-1.44,.22-2.16,.66l-.39-.92c.34-.23,.75-.42,1.23-.57,.48-.14,.94-.21,1.38-.21,.85,0,1.48,.21,1.89,.64Zm-1.11,4.49c.3-.33,.46-.74,.46-1.25v-.34h-.23c-.68,0-1.2,.03-1.56,.09-.36,.06-.62,.16-.78,.31-.16,.14-.23,.35-.23,.62,0,.3,.11,.56,.33,.76,.22,.2,.5,.31,.85,.31,.48,0,.87-.16,1.17-.49Z"/><path class="cls-1" d="M109.46,250.62l-.79,.08c-.62,.06-1.07,.25-1.35,.57-.27,.32-.41,.73-.41,1.22v3.52h-1.31v-6.34h1.27v1.11c.34-.75,1.03-1.16,2.07-1.24l.43-.03,.09,1.11Z"/><path class="cls-1" d="M115.66,253.07h-4.49c.1,1.34,.76,2.02,2,2.02,.73,0,1.39-.24,1.98-.71l.4,.92c-.29,.25-.66,.45-1.09,.6-.43,.15-.88,.22-1.33,.22-1.01,0-1.81-.29-2.4-.87-.58-.58-.88-1.38-.88-2.41,0-.65,.13-1.23,.38-1.73,.26-.5,.62-.89,1.08-1.17,.46-.28,.99-.42,1.58-.42,.86,0,1.53,.28,2.02,.83s.73,1.32,.73,2.3v.42Zm-3.93-2.11c-.3,.32-.48,.77-.54,1.36h3.34c-.03-.59-.18-1.04-.45-1.36s-.66-.47-1.15-.47-.9,.16-1.2,.47Z"/><path class="cls-1" d="M125.08,250.16c.41,.42,.62,1.07,.62,1.94v3.93h-1.26v-1.05c-.16,.37-.41,.66-.73,.85-.33,.2-.7,.29-1.14,.29s-.8-.08-1.14-.25-.62-.41-.81-.71c-.19-.3-.29-.64-.29-1.01,0-.46,.12-.82,.36-1.09,.24-.26,.63-.45,1.18-.57,.55-.11,1.31-.17,2.27-.17h.3v-.38c0-.49-.1-.84-.31-1.05-.2-.22-.54-.33-.99-.33-.72,0-1.44,.22-2.16,.66l-.39-.92c.34-.23,.75-.42,1.23-.57,.48-.14,.94-.21,1.38-.21,.85,0,1.48,.21,1.89,.64Zm-1.11,4.49c.3-.33,.46-.74,.46-1.25v-.34h-.23c-.68,0-1.2,.03-1.56,.09-.36,.06-.62,.16-.78,.31-.16,.14-.23,.35-.23,.62,0,.3,.11,.56,.33,.76,.22,.2,.5,.31,.85,.31,.48,0,.87-.16,1.17-.49Z"/><path class="cls-1" d="M131.08,255.06l-.06,1c-.22,.04-.44,.05-.68,.05-.82,0-1.44-.2-1.84-.6-.4-.4-.6-.99-.6-1.75v-3.07h-1.23v-1.01h1.23v-1.91h1.31v1.91h1.74v1.01h-1.74v3.02c0,.93,.43,1.39,1.29,1.39,.2,0,.39-.01,.58-.04Z"/><path class="cls-1" d="M135.65,255.06l-.06,1c-.22,.04-.44,.05-.68,.05-.82,0-1.44-.2-1.84-.6-.4-.4-.6-.99-.6-1.75v-3.07h-1.23v-1.01h1.23v-1.91h1.31v1.91h1.74v1.01h-1.74v3.02c0,.93,.43,1.39,1.29,1.39,.2,0,.39-.01,.58-.04Z"/><path class="cls-1" d="M141.19,250.16c.41,.42,.62,1.07,.62,1.94v3.93h-1.26v-1.05c-.16,.37-.41,.66-.73,.85-.33,.2-.7,.29-1.14,.29s-.8-.08-1.14-.25-.62-.41-.81-.71c-.19-.3-.29-.64-.29-1.01,0-.46,.12-.82,.36-1.09,.24-.26,.63-.45,1.18-.57,.55-.11,1.31-.17,2.27-.17h.3v-.38c0-.49-.1-.84-.31-1.05-.2-.22-.54-.33-.99-.33-.72,0-1.44,.22-2.16,.66l-.39-.92c.34-.23,.75-.42,1.23-.57,.48-.14,.94-.21,1.38-.21,.85,0,1.48,.21,1.89,.64Zm-1.11,4.49c.3-.33,.46-.74,.46-1.25v-.34h-.23c-.68,0-1.2,.03-1.56,.09-.36,.06-.62,.16-.78,.31-.16,.14-.23,.35-.23,.62,0,.3,.11,.56,.33,.76,.22,.2,.5,.31,.85,.31,.48,0,.87-.16,1.17-.49Z"/><path class="cls-1" d="M144.71,255.71c-.47-.27-.84-.65-1.09-1.14-.26-.49-.38-1.06-.38-1.72s.13-1.24,.4-1.74c.26-.5,.64-.89,1.12-1.17s1.04-.42,1.68-.42c.44,0,.87,.07,1.28,.22s.75,.35,1.01,.6l-.4,.94c-.57-.47-1.17-.7-1.78-.7s-1.08,.2-1.42,.59-.51,.95-.51,1.67,.17,1.26,.51,1.64,.81,.58,1.43,.58,1.21-.23,1.78-.7l.4,.95c-.28,.25-.62,.45-1.04,.59-.42,.14-.85,.21-1.3,.21-.64,0-1.2-.13-1.67-.4Z"/><path class="cls-1" d="M155.86,256.02h-1.66l-3-2.99v2.99h-1.31v-9.17h1.31v5.68l2.78-2.85h1.62l-3,3.04,3.26,3.29Z"/></g><g><path class="cls-1" d="M73.88,37.36c.29,.39,.44,.86,.44,1.42,0,.77-.28,1.38-.85,1.83-.57,.45-1.35,.68-2.35,.68h-4.35v-9.17h4.22c.95,0,1.71,.21,2.27,.64,.56,.42,.84,1.01,.84,1.74,0,.48-.13,.9-.38,1.25-.26,.36-.61,.62-1.06,.79,.53,.16,.94,.43,1.23,.81Zm-5.14-1.5h1.91c.52,0,.9-.09,1.15-.27,.25-.18,.37-.45,.37-.81s-.12-.66-.37-.84c-.25-.18-.63-.27-1.15-.27h-1.91v2.18Zm3.31,3.61c.24-.18,.36-.48,.36-.88s-.12-.71-.36-.9c-.24-.19-.63-.29-1.17-.29h-2.14v2.34h2.14c.54,0,.93-.09,1.17-.27Z"/><path class="cls-1" d="M81.71,34.91v6.38h-1.91v-.91c-.2,.33-.46,.58-.79,.75-.33,.17-.69,.26-1.1,.26-.81,0-1.41-.22-1.8-.67-.39-.45-.59-1.12-.59-2.02v-3.8h1.96v3.83c0,.38,.08,.66,.24,.84,.16,.18,.41,.27,.73,.27,.38,0,.69-.13,.93-.39,.24-.26,.36-.6,.36-1.03v-3.54h1.96Z"/><path class="cls-1" d="M84.05,41.19c-.49-.13-.91-.33-1.27-.58l.52-1.35c.35,.23,.73,.42,1.14,.55,.42,.13,.84,.19,1.26,.19,.3,0,.54-.05,.71-.15s.25-.24,.25-.41c0-.16-.06-.28-.18-.36-.12-.09-.34-.16-.66-.23l-1.04-.23c-.62-.14-1.07-.35-1.36-.64-.29-.29-.44-.69-.44-1.19,0-.4,.11-.75,.34-1.05,.23-.3,.55-.54,.98-.71,.42-.17,.9-.26,1.44-.26,.46,0,.91,.07,1.34,.21,.43,.14,.82,.33,1.17,.58l-.52,1.3c-.68-.47-1.34-.7-2-.7-.3,0-.54,.05-.71,.16-.17,.1-.26,.25-.26,.44,0,.14,.05,.25,.16,.32s.29,.15,.55,.22l1.08,.25c.65,.15,1.12,.37,1.42,.67,.3,.3,.45,.7,.45,1.22,0,.62-.24,1.1-.73,1.45s-1.16,.53-2.02,.53c-.59,0-1.13-.07-1.62-.2Z"/><path class="cls-1" d="M89.48,31.84h2.11v1.83h-2.11v-1.83Zm.06,9.45v-6.38h1.96v6.38h-1.96Z"/><path class="cls-1" d="M98.72,35.42c.37,.45,.56,1.12,.56,2.02v3.85h-1.96v-3.76c0-.43-.08-.75-.24-.95-.16-.2-.41-.3-.75-.3-.41,0-.73,.13-.98,.39-.25,.26-.37,.61-.37,1.04v3.58h-1.96v-6.38h1.91v.91c.23-.35,.52-.61,.88-.79,.36-.18,.76-.27,1.22-.27,.76,0,1.33,.22,1.7,.67Z"/><path class="cls-1" d="M106.5,38.47h-4.16c.06,.51,.23,.88,.5,1.11s.66,.34,1.16,.34c.33,0,.66-.05,.98-.16,.33-.11,.62-.26,.89-.46l.52,1.31c-.31,.24-.69,.43-1.14,.57s-.89,.21-1.35,.21c-1.07,0-1.92-.3-2.54-.89-.62-.59-.93-1.4-.93-2.42,0-.65,.13-1.23,.4-1.73,.27-.5,.64-.9,1.12-1.18,.48-.28,1.02-.42,1.62-.42,.89,0,1.6,.29,2.13,.87s.79,1.37,.79,2.37v.48Zm-3.75-2.01c-.22,.24-.36,.58-.41,1.03h2.51c-.03-.46-.14-.81-.34-1.04s-.49-.35-.86-.35-.67,.12-.89,.36Z"/><path class="cls-1" d="M108.52,41.19c-.49-.13-.91-.33-1.27-.58l.52-1.35c.35,.23,.73,.42,1.14,.55,.42,.13,.84,.19,1.26,.19,.3,0,.54-.05,.71-.15s.25-.24,.25-.41c0-.16-.06-.28-.18-.36-.12-.09-.34-.16-.66-.23l-1.04-.23c-.62-.14-1.07-.35-1.36-.64-.29-.29-.44-.69-.44-1.19,0-.4,.11-.75,.34-1.05,.23-.3,.55-.54,.98-.71,.42-.17,.9-.26,1.44-.26,.46,0,.91,.07,1.34,.21,.43,.14,.82,.33,1.17,.58l-.52,1.3c-.68-.47-1.34-.7-2-.7-.3,0-.54,.05-.71,.16-.17,.1-.26,.25-.26,.44,0,.14,.05,.25,.16,.32s.29,.15,.55,.22l1.08,.25c.65,.15,1.12,.37,1.42,.67,.3,.3,.45,.7,.45,1.22,0,.62-.24,1.1-.73,1.45s-1.16,.53-2.02,.53c-.59,0-1.13-.07-1.62-.2Z"/><path class="cls-1" d="M114.85,41.19c-.49-.13-.91-.33-1.27-.58l.52-1.35c.35,.23,.73,.42,1.14,.55,.42,.13,.84,.19,1.26,.19,.3,0,.54-.05,.71-.15s.25-.24,.25-.41c0-.16-.06-.28-.18-.36-.12-.09-.34-.16-.66-.23l-1.04-.23c-.62-.14-1.07-.35-1.36-.64-.29-.29-.44-.69-.44-1.19,0-.4,.11-.75,.34-1.05,.23-.3,.55-.54,.98-.71,.42-.17,.9-.26,1.44-.26,.46,0,.91,.07,1.34,.21,.43,.14,.82,.33,1.17,.58l-.52,1.3c-.68-.47-1.34-.7-2-.7-.3,0-.54,.05-.71,.16-.17,.1-.26,.25-.26,.44,0,.14,.05,.25,.16,.32s.29,.15,.55,.22l1.08,.25c.65,.15,1.12,.37,1.42,.67,.3,.3,.45,.7,.45,1.22,0,.62-.24,1.1-.73,1.45s-1.16,.53-2.02,.53c-.59,0-1.13-.07-1.62-.2Z"/><path class="cls-1" d="M129.72,38.47h-4.16c.06,.51,.23,.88,.5,1.11s.66,.34,1.16,.34c.33,0,.66-.05,.98-.16,.33-.11,.62-.26,.89-.46l.52,1.31c-.31,.24-.69,.43-1.14,.57s-.89,.21-1.35,.21c-1.07,0-1.92-.3-2.54-.89-.62-.59-.93-1.4-.93-2.42,0-.65,.13-1.23,.4-1.73,.27-.5,.64-.9,1.12-1.18,.48-.28,1.02-.42,1.62-.42,.89,0,1.6,.29,2.13,.87s.79,1.37,.79,2.37v.48Zm-3.75-2.01c-.22,.24-.36,.58-.41,1.03h2.51c-.03-.46-.14-.81-.34-1.04s-.49-.35-.86-.35-.67,.12-.89,.36Z"/><path class="cls-1" d="M140.39,35.41c.35,.44,.53,1.12,.53,2.03v3.85h-1.96v-3.78c0-.43-.07-.75-.2-.94-.13-.19-.36-.29-.68-.29-.37,0-.66,.13-.87,.39-.21,.26-.31,.62-.31,1.09v3.52h-1.96v-3.78c0-.43-.07-.75-.2-.94-.13-.19-.36-.29-.68-.29-.37,0-.66,.13-.87,.39-.21,.26-.31,.62-.31,1.09v3.52h-1.96v-6.38h1.91v.86c.2-.33,.47-.58,.8-.75s.72-.26,1.15-.26c.94,0,1.58,.39,1.9,1.18,.21-.36,.5-.65,.87-.86,.37-.21,.78-.32,1.24-.32,.73,0,1.27,.22,1.62,.66Z"/><path class="cls-1" d="M147.35,35.43c.45,.45,.68,1.15,.68,2.09v3.77h-1.86v-.95c-.13,.33-.35,.59-.65,.77-.3,.19-.66,.28-1.07,.28-.43,0-.83-.09-1.18-.26-.35-.17-.63-.42-.83-.73s-.31-.66-.31-1.04c0-.47,.12-.84,.36-1.1,.24-.27,.62-.46,1.15-.58,.53-.12,1.25-.18,2.17-.18h.34v-.23c0-.38-.08-.65-.25-.81-.17-.16-.45-.23-.86-.23-.31,0-.66,.06-1.04,.17-.38,.11-.75,.27-1.09,.47l-.52-1.31c.36-.23,.81-.41,1.35-.57,.53-.15,1.03-.23,1.49-.23,.95,0,1.66,.23,2.11,.68Zm-1.54,4.23c.23-.26,.35-.59,.35-.99v-.22h-.22c-.7,0-1.19,.06-1.48,.17-.28,.11-.42,.32-.42,.61,0,.23,.08,.43,.24,.58,.16,.16,.36,.23,.6,.23,.38,0,.69-.13,.92-.38Z"/><path class="cls-1" d="M149.44,31.84h2.11v1.83h-2.11v-1.83Zm.06,9.45v-6.38h1.96v6.38h-1.96Z"/><path class="cls-1" d="M152.97,41.29v-9.17h1.96v9.17h-1.96Z"/><path class="cls-1" d="M82.53,56.11c-.6-.59-.9-1.39-.9-2.41,0-.67,.14-1.25,.43-1.76,.29-.51,.69-.9,1.21-1.18s1.12-.42,1.81-.42c.47,0,.92,.07,1.35,.21,.43,.14,.78,.34,1.05,.58l-.52,1.34c-.25-.2-.53-.35-.83-.46-.3-.11-.59-.16-.88-.16-.51,0-.91,.15-1.19,.45-.28,.3-.42,.75-.42,1.35s.14,1.05,.42,1.36c.28,.31,.68,.46,1.19,.46,.29,0,.58-.05,.88-.16,.3-.11,.57-.26,.83-.46l.52,1.35c-.29,.24-.65,.43-1.09,.57-.44,.14-.91,.21-1.4,.21-1.04,0-1.86-.29-2.46-.88Z"/><path class="cls-1" d="M89.65,56.58c-.51-.27-.91-.66-1.18-1.16s-.42-1.09-.42-1.76,.14-1.26,.42-1.76,.67-.88,1.18-1.15c.51-.27,1.1-.4,1.78-.4s1.27,.13,1.78,.4c.51,.27,.91,.65,1.18,1.15,.28,.5,.42,1.09,.42,1.76s-.14,1.26-.42,1.76c-.28,.5-.67,.88-1.18,1.16-.51,.27-1.1,.41-1.78,.41s-1.27-.14-1.78-.41Zm3.21-2.92c0-.62-.12-1.07-.37-1.38-.25-.3-.6-.46-1.06-.46-.95,0-1.43,.61-1.43,1.83s.48,1.83,1.43,1.83,1.43-.61,1.43-1.83Z"/><path class="cls-1" d="M105.5,51.01c.35,.44,.53,1.12,.53,2.03v3.85h-1.96v-3.78c0-.43-.07-.75-.2-.94-.13-.19-.36-.29-.68-.29-.37,0-.66,.13-.87,.39-.21,.26-.31,.62-.31,1.09v3.52h-1.96v-3.78c0-.43-.07-.75-.2-.94-.13-.19-.36-.29-.68-.29-.37,0-.66,.13-.87,.39-.21,.26-.31,.62-.31,1.09v3.52h-1.96v-6.38h1.91v.86c.2-.33,.47-.58,.8-.75s.72-.26,1.15-.26c.94,0,1.58,.39,1.9,1.18,.21-.36,.5-.65,.87-.86,.37-.21,.78-.32,1.24-.32,.73,0,1.27,.22,1.62,.66Z"/><path class="cls-1" d="M112.93,50.77c.43,.28,.76,.68,1,1.18,.24,.51,.36,1.09,.36,1.75s-.12,1.24-.36,1.74c-.24,.5-.57,.88-.99,1.15-.42,.27-.91,.4-1.47,.4-.43,0-.83-.09-1.18-.27-.35-.18-.62-.43-.81-.75v3.25h-1.96v-8.72h1.94v.9c.19-.33,.46-.59,.82-.77,.36-.19,.75-.28,1.2-.28,.55,0,1.03,.14,1.46,.42Zm-.97,4.26c.25-.31,.38-.75,.38-1.33s-.13-1.05-.38-1.37c-.25-.32-.61-.49-1.07-.49s-.81,.16-1.07,.47-.38,.77-.38,1.36,.13,1.03,.38,1.35c.25,.32,.61,.47,1.07,.47s.81-.15,1.07-.46Z"/><path class="cls-1" d="M120.04,51.96l-1.1,.12c-.55,.05-.93,.21-1.16,.46-.23,.26-.34,.6-.34,1.02v3.33h-1.96v-6.38h1.89v1.08c.32-.74,.98-1.14,1.99-1.21l.57-.04,.12,1.62Z"/><path class="cls-1" d="M121.85,56.58c-.51-.27-.91-.66-1.18-1.16s-.42-1.09-.42-1.76,.14-1.26,.42-1.76,.67-.88,1.18-1.15c.51-.27,1.1-.4,1.78-.4s1.27,.13,1.78,.4c.51,.27,.91,.65,1.18,1.15,.28,.5,.42,1.09,.42,1.76s-.14,1.26-.42,1.76c-.28,.5-.67,.88-1.18,1.16-.51,.27-1.1,.41-1.78,.41s-1.27-.14-1.78-.41Zm3.21-2.92c0-.62-.12-1.07-.37-1.38-.25-.3-.6-.46-1.06-.46-.95,0-1.43,.61-1.43,1.83s.48,1.83,1.43,1.83,1.43-.61,1.43-1.83Z"/><path class="cls-1" d="M137.7,51.01c.35,.44,.53,1.12,.53,2.03v3.85h-1.96v-3.78c0-.43-.07-.75-.2-.94-.13-.19-.36-.29-.68-.29-.37,0-.66,.13-.87,.39-.21,.26-.31,.62-.31,1.09v3.52h-1.96v-3.78c0-.43-.07-.75-.2-.94-.13-.19-.36-.29-.68-.29-.37,0-.66,.13-.87,.39-.21,.26-.31,.62-.31,1.09v3.52h-1.96v-6.38h1.91v.86c.2-.33,.47-.58,.8-.75s.72-.26,1.15-.26c.94,0,1.58,.39,1.9,1.18,.21-.36,.5-.65,.87-.86,.37-.21,.78-.32,1.24-.32,.73,0,1.27,.22,1.62,.66Z"/><path class="cls-1" d="M139.65,47.44h2.11v1.83h-2.11v-1.83Zm.06,9.45v-6.38h1.96v6.38h-1.96Z"/><path class="cls-1" d="M144.02,56.79c-.49-.13-.91-.33-1.27-.58l.52-1.35c.35,.23,.73,.42,1.14,.55,.42,.13,.84,.19,1.26,.19,.3,0,.54-.05,.71-.15s.25-.24,.25-.41c0-.16-.06-.28-.18-.36-.12-.09-.34-.16-.66-.23l-1.04-.23c-.62-.14-1.07-.35-1.36-.64-.29-.29-.44-.69-.44-1.19,0-.4,.11-.75,.34-1.05,.23-.3,.55-.54,.98-.71,.42-.17,.9-.26,1.44-.26,.46,0,.91,.07,1.34,.21,.43,.14,.82,.33,1.17,.58l-.52,1.3c-.68-.47-1.34-.7-2-.7-.3,0-.54,.05-.71,.16-.17,.1-.26,.25-.26,.44,0,.14,.05,.25,.16,.32s.29,.15,.55,.22l1.08,.25c.65,.15,1.12,.37,1.42,.67,.3,.3,.45,.7,.45,1.22,0,.62-.24,1.1-.73,1.45s-1.16,.53-2.02,.53c-.59,0-1.13-.07-1.62-.2Z"/><path class="cls-1" d="M155.26,54.07h-4.16c.06,.51,.23,.88,.5,1.11s.66,.34,1.16,.34c.33,0,.66-.05,.98-.16,.33-.11,.62-.26,.89-.46l.52,1.31c-.31,.24-.69,.43-1.14,.57s-.89,.21-1.35,.21c-1.07,0-1.92-.3-2.54-.89-.62-.59-.93-1.4-.93-2.42,0-.65,.13-1.23,.4-1.73,.27-.5,.64-.9,1.12-1.18,.48-.28,1.02-.42,1.62-.42,.89,0,1.6,.29,2.13,.87s.79,1.37,.79,2.37v.48Zm-3.75-2.01c-.22,.24-.36,.58-.41,1.03h2.51c-.03-.46-.14-.81-.34-1.04s-.49-.35-.86-.35-.67,.12-.89,.36Z"/></g><g><path class="cls-1" d="M57.91,136.07h3.8c.97,0,1.72,.24,2.26,.71,.54,.48,.81,1.15,.81,2.03s-.27,1.54-.81,2.03c-.54,.49-1.29,.73-2.26,.73h-2.46v3.67h-1.34v-9.17Zm3.65,4.42c1.28,0,1.92-.56,1.92-1.68s-.64-1.66-1.92-1.66h-2.31v3.34h2.31Z"/><path class="cls-1" d="M71.7,138.89v6.34h-1.27v-1.03c-.2,.36-.47,.64-.83,.83-.35,.19-.74,.29-1.18,.29-1.54,0-2.31-.85-2.31-2.55v-3.89h1.31v3.87c0,.51,.1,.89,.31,1.13s.53,.36,.96,.36c.51,0,.92-.16,1.23-.49,.31-.33,.46-.77,.46-1.31v-3.56h1.31Z"/><path class="cls-1" d="M78.41,139.14c.42,.27,.76,.65,.99,1.14,.24,.49,.36,1.07,.36,1.73s-.12,1.23-.36,1.73c-.24,.5-.57,.89-1,1.17-.43,.28-.92,.42-1.46,.42-.48,0-.9-.1-1.26-.31-.36-.2-.64-.5-.83-.88v1.09h-1.31v-9.17h1.31v3.86c.19-.38,.47-.68,.83-.88,.36-.21,.78-.31,1.26-.31,.55,0,1.04,.13,1.47,.4Zm-.46,4.55c.32-.4,.47-.96,.47-1.68s-.16-1.26-.47-1.64c-.31-.39-.75-.58-1.33-.58s-1.01,.19-1.32,.58c-.31,.39-.46,.94-.46,1.66s.15,1.27,.46,1.66c.31,.39,.75,.58,1.32,.58s1-.2,1.32-.6Z"/><path class="cls-1" d="M81.21,145.23v-9.17h1.31v9.17h-1.31Z"/><path class="cls-1" d="M84.27,136.06h1.51v1.37h-1.51v-1.37Zm.09,9.18v-6.34h1.31v6.34h-1.31Z"/><path class="cls-1" d="M88.62,144.92c-.47-.27-.84-.65-1.09-1.14-.26-.49-.38-1.06-.38-1.72s.13-1.24,.4-1.74c.26-.5,.64-.89,1.12-1.17s1.04-.42,1.68-.42c.44,0,.87,.07,1.28,.22s.75,.35,1.01,.6l-.4,.94c-.57-.47-1.17-.7-1.78-.7s-1.08,.2-1.42,.59-.51,.95-.51,1.67,.17,1.26,.51,1.64,.81,.58,1.43,.58,1.21-.23,1.78-.7l.4,.95c-.28,.25-.62,.45-1.04,.59s-.85,.21-1.3,.21c-.64,0-1.2-.13-1.67-.4Z"/><path class="cls-1" d="M93.79,145.23v-9.17h1.31v9.17h-1.31Z"/><path class="cls-1" d="M101.43,138.9h1.31l-3.78,8.67h-1.33l1.1-2.5-2.67-6.18h1.38l1.98,4.85,2-4.85Z"/><path class="cls-1" d="M112.56,142.28h-4.49c.1,1.34,.76,2.02,2,2.02,.73,0,1.39-.24,1.98-.71l.4,.92c-.29,.25-.66,.45-1.09,.6-.43,.15-.88,.22-1.33,.22-1.01,0-1.81-.29-2.4-.87s-.88-1.38-.88-2.41c0-.65,.13-1.23,.38-1.73,.26-.5,.62-.89,1.08-1.17,.46-.28,.99-.42,1.58-.42,.86,0,1.53,.28,2.02,.83s.73,1.32,.73,2.3v.42Zm-3.93-2.11c-.3,.32-.48,.77-.54,1.36h3.34c-.03-.59-.18-1.04-.45-1.36s-.66-.47-1.15-.47-.9,.16-1.2,.47Z"/><path class="cls-1" d="M117.2,141.97l2.65,3.26h-1.57l-1.85-2.31-1.83,2.31h-1.57l2.65-3.26-2.51-3.08h1.59l1.68,2.15,1.69-2.15h1.57l-2.5,3.08Z"/><path class="cls-1" d="M125.63,139.15c.43,.28,.76,.67,1,1.17,.24,.5,.36,1.08,.36,1.74s-.12,1.22-.35,1.72c-.23,.49-.57,.88-.99,1.14s-.92,.4-1.48,.4c-.48,0-.9-.1-1.26-.31-.36-.2-.64-.5-.83-.88v3.43h-1.31v-8.68h1.31v1.04c.19-.38,.47-.68,.83-.88,.36-.21,.78-.31,1.26-.31,.55,0,1.03,.14,1.46,.42Zm-.45,4.56c.31-.39,.47-.93,.47-1.64s-.16-1.28-.47-1.68c-.32-.4-.76-.6-1.32-.6s-1.01,.19-1.32,.58c-.31,.39-.46,.94-.46,1.66s.15,1.27,.46,1.66c.31,.39,.75,.58,1.32,.58s1.01-.19,1.33-.58Z"/><path class="cls-1" d="M129.55,144.92c-.47-.27-.84-.65-1.09-1.15-.26-.5-.38-1.08-.38-1.74s.13-1.25,.38-1.75c.26-.5,.62-.88,1.09-1.15,.47-.27,1.02-.4,1.64-.4s1.17,.13,1.64,.4c.47,.27,.84,.65,1.09,1.15,.26,.5,.38,1.08,.38,1.75s-.13,1.24-.38,1.74c-.26,.5-.62,.88-1.09,1.15-.47,.27-1.02,.4-1.64,.4s-1.17-.13-1.64-.4Zm2.98-1.21c.31-.38,.46-.94,.46-1.68s-.16-1.28-.47-1.67c-.31-.39-.75-.58-1.33-.58s-1.01,.19-1.33,.58c-.31,.39-.47,.94-.47,1.67s.15,1.3,.46,1.68,.75,.57,1.33,.57,1.02-.19,1.33-.57Z"/><path class="cls-1" d="M135.37,144.52l.4-.95c.65,.5,1.41,.75,2.27,.75,.42,0,.75-.07,.98-.21,.23-.14,.34-.34,.34-.6,0-.23-.08-.4-.23-.53-.15-.13-.41-.24-.79-.32l-1.05-.23c-.56-.13-.99-.34-1.27-.64-.29-.29-.43-.67-.43-1.12,0-.57,.23-1.04,.7-1.39,.46-.36,1.07-.53,1.83-.53,.45,0,.88,.07,1.29,.21,.41,.14,.76,.34,1.05,.6l-.4,.92c-.62-.49-1.27-.74-1.94-.74-.4,0-.71,.08-.94,.23-.23,.16-.34,.37-.34,.64,0,.22,.07,.39,.21,.53,.14,.13,.37,.24,.68,.31l1.08,.25c.62,.14,1.07,.35,1.35,.64,.29,.29,.43,.67,.43,1.14,0,.57-.23,1.02-.7,1.36-.46,.33-1.09,.5-1.88,.5-1.1,0-1.98-.27-2.64-.81Z"/><path class="cls-1" d="M147.47,142.28h-4.49c.1,1.34,.76,2.02,2,2.02,.73,0,1.39-.24,1.98-.71l.4,.92c-.29,.25-.66,.45-1.09,.6-.43,.15-.88,.22-1.33,.22-1.01,0-1.81-.29-2.4-.87s-.88-1.38-.88-2.41c0-.65,.13-1.23,.38-1.73,.26-.5,.62-.89,1.08-1.17,.46-.28,.99-.42,1.58-.42,.86,0,1.53,.28,2.02,.83s.73,1.32,.73,2.3v.42Zm-3.93-2.11c-.3,.32-.48,.77-.54,1.36h3.34c-.03-.59-.18-1.04-.45-1.36s-.66-.47-1.15-.47-.9,.16-1.2,.47Z"/><path class="cls-1" d="M154.77,136.07v9.17h-1.3v-1.09c-.19,.38-.47,.67-.83,.88-.36,.2-.78,.31-1.26,.31-.55,0-1.03-.14-1.46-.42-.43-.28-.76-.67-1-1.17-.24-.5-.36-1.08-.36-1.73s.12-1.23,.36-1.73c.24-.49,.57-.88,.99-1.14,.42-.27,.91-.4,1.47-.4,.48,0,.89,.1,1.25,.31,.36,.2,.63,.49,.83,.86v-3.83h1.31Zm-1.76,7.63c.31-.39,.46-.94,.46-1.66s-.15-1.27-.46-1.66c-.31-.39-.75-.58-1.32-.58s-1.02,.19-1.33,.58c-.32,.39-.47,.93-.47,1.64s.16,1.27,.48,1.67c.32,.4,.76,.6,1.33,.6s1.01-.19,1.32-.58Z"/><path class="cls-1" d="M29.77,151.67v9.17h-1.3v-1.09c-.19,.38-.47,.67-.83,.88-.36,.2-.78,.31-1.26,.31-.55,0-1.03-.14-1.46-.42-.43-.28-.76-.67-1-1.17-.24-.5-.36-1.08-.36-1.73s.12-1.23,.36-1.73c.24-.49,.57-.88,.99-1.14,.42-.27,.91-.4,1.47-.4,.48,0,.89,.1,1.25,.31,.36,.2,.63,.49,.83,.86v-3.83h1.31Zm-1.76,7.63c.31-.39,.46-.94,.46-1.66s-.15-1.27-.46-1.66c-.31-.39-.75-.58-1.32-.58s-1.02,.19-1.33,.58c-.32,.39-.47,.93-.47,1.64s.16,1.27,.48,1.67c.32,.4,.76,.6,1.33,.6s1.01-.19,1.32-.58Z"/><path class="cls-1" d="M36.15,154.97c.41,.42,.62,1.07,.62,1.94v3.93h-1.26v-1.05c-.16,.37-.41,.66-.73,.85-.33,.2-.7,.29-1.14,.29s-.8-.08-1.14-.25-.62-.4-.81-.71c-.19-.3-.29-.64-.29-1.01,0-.46,.12-.82,.36-1.09,.24-.26,.63-.45,1.18-.57,.55-.11,1.31-.17,2.27-.17h.3v-.38c0-.49-.1-.84-.31-1.05-.2-.22-.54-.33-.99-.33-.72,0-1.44,.22-2.16,.66l-.39-.92c.34-.23,.75-.42,1.23-.57,.48-.14,.94-.21,1.38-.21,.85,0,1.48,.21,1.89,.64Zm-1.11,4.49c.3-.32,.46-.74,.46-1.25v-.34h-.23c-.68,0-1.2,.03-1.56,.09-.36,.06-.62,.16-.78,.31-.16,.14-.23,.35-.23,.62,0,.3,.11,.56,.33,.76,.22,.2,.5,.31,.85,.31,.48,0,.87-.16,1.17-.49Z"/><path class="cls-1" d="M42.15,159.87l-.06,1c-.22,.03-.44,.05-.68,.05-.82,0-1.44-.2-1.84-.6-.4-.4-.6-.99-.6-1.75v-3.07h-1.23v-1.01h1.23v-1.91h1.31v1.91h1.74v1.01h-1.74v3.02c0,.93,.43,1.39,1.29,1.39,.2,0,.39-.01,.58-.04Z"/><path class="cls-1" d="M47.69,154.97c.41,.42,.62,1.07,.62,1.94v3.93h-1.26v-1.05c-.16,.37-.41,.66-.73,.85-.33,.2-.7,.29-1.14,.29s-.8-.08-1.14-.25-.62-.4-.81-.71c-.19-.3-.29-.64-.29-1.01,0-.46,.12-.82,.36-1.09,.24-.26,.63-.45,1.18-.57,.55-.11,1.31-.17,2.27-.17h.3v-.38c0-.49-.1-.84-.31-1.05-.2-.22-.54-.33-.99-.33-.72,0-1.44,.22-2.16,.66l-.39-.92c.34-.23,.75-.42,1.23-.57,.48-.14,.94-.21,1.38-.21,.85,0,1.48,.21,1.89,.64Zm-1.11,4.49c.3-.32,.46-.74,.46-1.25v-.34h-.23c-.68,0-1.2,.03-1.56,.09-.36,.06-.62,.16-.78,.31-.16,.14-.23,.35-.23,.62,0,.3,.11,.56,.33,.76,.22,.2,.5,.31,.85,.31,.48,0,.87-.16,1.17-.49Z"/><path class="cls-1" d="M54.98,154.74c.42,.27,.76,.65,.99,1.14,.24,.49,.36,1.07,.36,1.73s-.12,1.23-.36,1.73c-.24,.5-.57,.89-1,1.17-.43,.28-.92,.42-1.46,.42-.48,0-.9-.1-1.26-.31-.36-.2-.64-.5-.83-.88v1.09h-1.31v-9.17h1.31v3.86c.19-.38,.47-.68,.83-.88,.36-.21,.78-.31,1.26-.31,.55,0,1.04,.13,1.47,.4Zm-.46,4.55c.32-.4,.47-.96,.47-1.68s-.16-1.26-.47-1.64c-.31-.39-.75-.58-1.33-.58s-1.01,.19-1.32,.58c-.31,.39-.46,.94-.46,1.66s.15,1.27,.46,1.66c.31,.39,.75,.58,1.32,.58s1-.2,1.32-.6Z"/><path class="cls-1" d="M62.33,154.97c.41,.42,.62,1.07,.62,1.94v3.93h-1.26v-1.05c-.16,.37-.41,.66-.73,.85-.33,.2-.7,.29-1.14,.29s-.8-.08-1.14-.25-.62-.4-.81-.71c-.19-.3-.29-.64-.29-1.01,0-.46,.12-.82,.36-1.09,.24-.26,.63-.45,1.18-.57,.55-.11,1.31-.17,2.27-.17h.3v-.38c0-.49-.1-.84-.31-1.05-.2-.22-.54-.33-.99-.33-.72,0-1.44,.22-2.16,.66l-.39-.92c.34-.23,.75-.42,1.23-.57,.48-.14,.94-.21,1.38-.21,.85,0,1.48,.21,1.89,.64Zm-1.11,4.49c.3-.32,.46-.74,.46-1.25v-.34h-.23c-.68,0-1.2,.03-1.56,.09-.36,.06-.62,.16-.78,.31-.16,.14-.23,.35-.23,.62,0,.3,.11,.56,.33,.76,.22,.2,.5,.31,.85,.31,.48,0,.87-.16,1.17-.49Z"/><path class="cls-1" d="M64.34,160.12l.4-.95c.65,.5,1.41,.75,2.27,.75,.42,0,.75-.07,.98-.21,.23-.14,.34-.34,.34-.6,0-.23-.08-.4-.23-.53-.15-.13-.41-.24-.79-.32l-1.05-.23c-.56-.13-.99-.34-1.27-.64-.29-.29-.43-.67-.43-1.12,0-.57,.23-1.04,.7-1.39,.46-.36,1.07-.53,1.83-.53,.45,0,.88,.07,1.29,.21,.41,.14,.76,.34,1.05,.6l-.4,.92c-.62-.49-1.27-.74-1.94-.74-.4,0-.71,.08-.94,.23-.23,.16-.34,.37-.34,.64,0,.22,.07,.39,.21,.53,.14,.13,.37,.24,.68,.31l1.08,.25c.62,.14,1.07,.35,1.35,.64,.29,.29,.43,.67,.43,1.14,0,.57-.23,1.02-.7,1.36-.46,.33-1.09,.5-1.88,.5-1.1,0-1.98-.27-2.64-.81Z"/><path class="cls-1" d="M76.44,157.88h-4.49c.1,1.34,.76,2.02,2,2.02,.73,0,1.39-.24,1.98-.71l.4,.92c-.29,.25-.66,.45-1.09,.6-.43,.15-.88,.22-1.33,.22-1.01,0-1.81-.29-2.4-.87s-.88-1.38-.88-2.41c0-.65,.13-1.23,.38-1.73,.26-.5,.62-.89,1.08-1.17,.46-.28,.99-.42,1.58-.42,.86,0,1.53,.28,2.02,.83s.73,1.32,.73,2.3v.42Zm-3.93-2.11c-.3,.32-.48,.77-.54,1.36h3.34c-.03-.59-.18-1.04-.45-1.36s-.66-.47-1.15-.47-.9,.16-1.2,.47Z"/><path class="cls-1" d="M82.43,160.52c-.47-.27-.84-.65-1.09-1.15-.26-.5-.38-1.08-.38-1.74s.13-1.25,.38-1.75c.26-.5,.62-.88,1.09-1.15,.47-.27,1.02-.4,1.64-.4s1.17,.13,1.64,.4c.47,.27,.84,.65,1.09,1.15,.26,.5,.38,1.08,.38,1.75s-.13,1.24-.38,1.74c-.26,.5-.62,.88-1.09,1.15-.47,.27-1.02,.4-1.64,.4s-1.17-.13-1.64-.4Zm2.98-1.21c.31-.38,.46-.94,.46-1.68s-.16-1.28-.47-1.67c-.31-.39-.75-.58-1.33-.58s-1.01,.19-1.33,.58c-.31,.39-.47,.94-.47,1.67s.15,1.3,.46,1.68,.75,.57,1.33,.57,1.02-.19,1.33-.57Z"/><path class="cls-1" d="M92.51,155.44l-.79,.08c-.62,.06-1.07,.25-1.35,.57-.27,.32-.41,.73-.41,1.22v3.52h-1.31v-6.34h1.27v1.11c.34-.75,1.03-1.16,2.07-1.24l.43-.03,.09,1.1Z"/><path class="cls-1" d="M100.7,155.44l-.79,.08c-.62,.06-1.07,.25-1.35,.57-.27,.32-.41,.73-.41,1.22v3.52h-1.31v-6.34h1.27v1.11c.34-.75,1.03-1.16,2.07-1.24l.43-.03,.09,1.1Z"/><path class="cls-1" d="M106.9,157.88h-4.49c.1,1.34,.76,2.02,2,2.02,.73,0,1.39-.24,1.98-.71l.4,.92c-.29,.25-.66,.45-1.09,.6-.43,.15-.88,.22-1.33,.22-1.01,0-1.81-.29-2.4-.87s-.88-1.38-.88-2.41c0-.65,.13-1.23,.38-1.73,.26-.5,.62-.89,1.08-1.17,.46-.28,.99-.42,1.58-.42,.86,0,1.53,.28,2.02,.83s.73,1.32,.73,2.3v.42Zm-3.93-2.11c-.3,.32-.48,.77-.54,1.36h3.34c-.03-.59-.18-1.04-.45-1.36s-.66-.47-1.15-.47-.9,.16-1.2,.47Z"/><path class="cls-1" d="M113.21,154.75c.43,.28,.76,.67,1,1.17,.24,.5,.36,1.08,.36,1.74s-.12,1.22-.35,1.72c-.23,.49-.57,.88-.99,1.14s-.92,.4-1.48,.4c-.48,0-.9-.1-1.26-.31-.36-.2-.64-.5-.83-.88v3.43h-1.31v-8.68h1.31v1.04c.19-.38,.47-.68,.83-.88,.36-.21,.78-.31,1.26-.31,.55,0,1.03,.14,1.46,.42Zm-.45,4.56c.31-.39,.47-.93,.47-1.64s-.16-1.28-.47-1.68c-.32-.4-.76-.6-1.32-.6s-1.01,.19-1.32,.58c-.31,.39-.46,.94-.46,1.66s.15,1.27,.46,1.66c.31,.39,.75,.58,1.32,.58s1.01-.19,1.33-.58Z"/><path class="cls-1" d="M117.14,160.52c-.47-.27-.84-.65-1.09-1.15-.26-.5-.38-1.08-.38-1.74s.13-1.25,.38-1.75c.26-.5,.62-.88,1.09-1.15,.47-.27,1.02-.4,1.64-.4s1.17,.13,1.64,.4c.47,.27,.84,.65,1.09,1.15,.26,.5,.38,1.08,.38,1.75s-.13,1.24-.38,1.74c-.26,.5-.62,.88-1.09,1.15-.47,.27-1.02,.4-1.64,.4s-1.17-.13-1.64-.4Zm2.98-1.21c.31-.38,.46-.94,.46-1.68s-.16-1.28-.47-1.67c-.31-.39-.75-.58-1.33-.58s-1.01,.19-1.33,.58c-.31,.39-.47,.94-.47,1.67s.15,1.3,.46,1.68,.75,.57,1.33,.57,1.02-.19,1.33-.57Z"/><path class="cls-1" d="M122.96,160.12l.4-.95c.65,.5,1.41,.75,2.27,.75,.42,0,.75-.07,.98-.21,.23-.14,.34-.34,.34-.6,0-.23-.08-.4-.23-.53-.15-.13-.41-.24-.79-.32l-1.05-.23c-.56-.13-.99-.34-1.27-.64-.29-.29-.43-.67-.43-1.12,0-.57,.23-1.04,.7-1.39,.46-.36,1.07-.53,1.83-.53,.45,0,.88,.07,1.29,.21,.41,.14,.76,.34,1.05,.6l-.4,.92c-.62-.49-1.27-.74-1.94-.74-.4,0-.71,.08-.94,.23-.23,.16-.34,.37-.34,.64,0,.22,.07,.39,.21,.53,.14,.13,.37,.24,.68,.31l1.08,.25c.62,.14,1.07,.35,1.35,.64,.29,.29,.43,.67,.43,1.14,0,.57-.23,1.02-.7,1.36-.46,.33-1.09,.5-1.88,.5-1.1,0-1.98-.27-2.64-.81Z"/><path class="cls-1" d="M129.53,151.66h1.51v1.37h-1.51v-1.37Zm.09,9.18v-6.34h1.31v6.34h-1.31Z"/><path class="cls-1" d="M136.36,159.87l-.06,1c-.22,.03-.44,.05-.68,.05-.82,0-1.44-.2-1.84-.6-.4-.4-.6-.99-.6-1.75v-3.07h-1.23v-1.01h1.23v-1.91h1.31v1.91h1.74v1.01h-1.74v3.02c0,.93,.43,1.39,1.29,1.39,.2,0,.39-.01,.58-.04Z"/><path class="cls-1" d="M138.47,160.52c-.47-.27-.84-.65-1.09-1.15-.26-.5-.38-1.08-.38-1.74s.13-1.25,.38-1.75c.26-.5,.62-.88,1.09-1.15,.47-.27,1.02-.4,1.64-.4s1.17,.13,1.64,.4c.47,.27,.84,.65,1.09,1.15,.26,.5,.38,1.08,.38,1.75s-.13,1.24-.38,1.74c-.26,.5-.62,.88-1.09,1.15-.47,.27-1.02,.4-1.64,.4s-1.17-.13-1.64-.4Zm2.98-1.21c.31-.38,.46-.94,.46-1.68s-.16-1.28-.47-1.67c-.31-.39-.75-.58-1.33-.58s-1.01,.19-1.33,.58c-.31,.39-.47,.94-.47,1.67s.15,1.3,.46,1.68,.75,.57,1.33,.57,1.02-.19,1.33-.57Z"/><path class="cls-1" d="M148.55,155.44l-.79,.08c-.62,.06-1.07,.25-1.35,.57-.27,.32-.41,.73-.41,1.22v3.52h-1.31v-6.34h1.27v1.11c.34-.75,1.03-1.16,2.07-1.24l.43-.03,.09,1.1Z"/><path class="cls-1" d="M154.34,154.5h1.31l-3.78,8.67h-1.33l1.1-2.5-2.67-6.18h1.38l1.98,4.85,2-4.85Z"/></g><g><path class="cls-1" d="M78.51,204.37v-9.17h1.34v9.17h-1.34Z"/><path class="cls-1" d="M87.52,200.43v3.94h-1.31v-3.87c0-.54-.11-.93-.32-1.18-.21-.25-.54-.38-.99-.38-.53,0-.95,.17-1.27,.49-.32,.33-.48,.77-.48,1.33v3.61h-1.31v-6.34h1.29v1.01c.21-.38,.5-.67,.87-.87,.37-.2,.79-.3,1.26-.3,1.52,0,2.27,.85,2.27,2.56Z"/><path class="cls-1" d="M88.91,203.66l.4-.95c.65,.5,1.41,.75,2.27,.75,.42,0,.75-.07,.98-.21,.23-.14,.34-.34,.34-.6,0-.23-.08-.4-.23-.53-.15-.13-.41-.24-.79-.33l-1.05-.23c-.56-.13-.99-.34-1.27-.64-.29-.29-.43-.67-.43-1.12,0-.57,.23-1.04,.7-1.39,.46-.36,1.07-.53,1.83-.53,.45,0,.88,.07,1.29,.21,.41,.14,.76,.34,1.05,.6l-.4,.92c-.62-.49-1.27-.74-1.94-.74-.4,0-.71,.08-.94,.23-.23,.16-.34,.37-.34,.64,0,.22,.07,.39,.21,.53,.14,.13,.37,.24,.68,.31l1.08,.25c.62,.14,1.07,.35,1.35,.64s.43,.67,.43,1.14c0,.57-.23,1.02-.7,1.36-.46,.33-1.09,.5-1.88,.5-1.1,0-1.98-.27-2.64-.81Z"/><path class="cls-1" d="M95.49,195.2h1.51v1.37h-1.51v-1.37Zm.09,9.18v-6.34h1.31v6.34h-1.31Z"/><path class="cls-1" d="M104.57,195.21v9.17h-1.3v-1.09c-.19,.38-.47,.67-.83,.88-.36,.2-.78,.3-1.26,.3-.55,0-1.03-.14-1.46-.42-.43-.28-.76-.67-1-1.17-.24-.5-.36-1.08-.36-1.73s.12-1.24,.36-1.73c.24-.49,.57-.88,.99-1.14s.91-.4,1.47-.4c.48,0,.89,.1,1.25,.31,.36,.2,.63,.49,.83,.86v-3.83h1.31Zm-1.76,7.63c.31-.39,.46-.94,.46-1.66s-.15-1.27-.46-1.66c-.31-.39-.75-.58-1.32-.58s-1.02,.19-1.33,.58c-.32,.39-.47,.93-.47,1.64s.16,1.27,.48,1.67c.32,.4,.76,.6,1.33,.6s1.01-.19,1.32-.58Z"/><path class="cls-1" d="M111.84,201.42h-4.49c.1,1.34,.76,2.02,2,2.02,.73,0,1.39-.24,1.98-.71l.4,.92c-.29,.25-.66,.45-1.09,.6-.43,.15-.88,.22-1.33,.22-1.01,0-1.81-.29-2.4-.87-.58-.58-.88-1.38-.88-2.41,0-.65,.13-1.23,.38-1.73,.26-.5,.62-.89,1.08-1.17,.46-.28,.99-.42,1.58-.42,.86,0,1.53,.28,2.02,.83s.73,1.32,.73,2.3v.42Zm-3.93-2.11c-.3,.32-.48,.77-.54,1.36h3.34c-.03-.59-.18-1.04-.45-1.36s-.66-.47-1.15-.47-.9,.16-1.2,.47Z"/><path class="cls-1" d="M117.15,198.98l-.79,.08c-.62,.06-1.07,.25-1.35,.57-.27,.32-.41,.73-.41,1.22v3.52h-1.31v-6.34h1.27v1.11c.34-.75,1.03-1.16,2.07-1.24l.43-.03,.09,1.11Z"/><path class="cls-1" d="M125.06,203.41l-.06,1c-.22,.04-.44,.05-.68,.05-.82,0-1.44-.2-1.84-.6-.4-.4-.6-.99-.6-1.75v-3.07h-1.23v-1.01h1.23v-1.91h1.31v1.91h1.74v1.01h-1.74v3.02c0,.93,.43,1.39,1.29,1.39,.2,0,.39-.01,.58-.04Z"/><path class="cls-1" d="M131.76,200.43v3.94h-1.31v-3.87c0-.54-.11-.93-.32-1.18-.21-.25-.54-.38-.99-.38-.53,0-.95,.17-1.27,.49-.32,.33-.48,.77-.48,1.33v3.61h-1.31v-9.17h1.31v3.78c.22-.36,.51-.64,.87-.83,.36-.19,.78-.29,1.23-.29,1.52,0,2.27,.85,2.27,2.56Z"/><path class="cls-1" d="M137.41,198.98l-.79,.08c-.62,.06-1.07,.25-1.35,.57-.27,.32-.41,.73-.41,1.22v3.52h-1.31v-6.34h1.27v1.11c.34-.75,1.03-1.16,2.07-1.24l.43-.03,.09,1.11Z"/><path class="cls-1" d="M143.61,201.42h-4.49c.1,1.34,.76,2.02,2,2.02,.73,0,1.39-.24,1.98-.71l.4,.92c-.29,.25-.66,.45-1.09,.6-.43,.15-.88,.22-1.33,.22-1.01,0-1.81-.29-2.4-.87-.58-.58-.88-1.38-.88-2.41,0-.65,.13-1.23,.38-1.73,.26-.5,.62-.89,1.08-1.17,.46-.28,.99-.42,1.58-.42,.86,0,1.53,.28,2.02,.83s.73,1.32,.73,2.3v.42Zm-3.93-2.11c-.3,.32-.48,.77-.54,1.36h3.34c-.03-.59-.18-1.04-.45-1.36s-.66-.47-1.15-.47-.9,.16-1.2,.47Z"/><path class="cls-1" d="M149.6,198.51c.41,.42,.62,1.07,.62,1.94v3.93h-1.26v-1.05c-.16,.37-.41,.66-.73,.85-.33,.2-.7,.29-1.14,.29s-.8-.08-1.14-.25-.62-.41-.81-.71c-.19-.3-.29-.64-.29-1.01,0-.46,.12-.82,.36-1.09,.24-.26,.63-.45,1.18-.57,.55-.11,1.31-.17,2.27-.17h.3v-.38c0-.49-.1-.84-.31-1.05-.2-.22-.54-.33-.99-.33-.72,0-1.44,.22-2.16,.66l-.39-.92c.34-.23,.75-.42,1.23-.57,.48-.14,.94-.21,1.38-.21,.85,0,1.48,.21,1.89,.64Zm-1.11,4.49c.3-.33,.46-.74,.46-1.25v-.34h-.23c-.68,0-1.2,.03-1.56,.09-.36,.06-.62,.16-.78,.31-.16,.14-.23,.35-.23,.62,0,.3,.11,.56,.33,.76,.22,.2,.5,.31,.85,.31,.48,0,.87-.16,1.17-.49Z"/><path class="cls-1" d="M155.6,203.41l-.06,1c-.22,.04-.44,.05-.68,.05-.82,0-1.44-.2-1.84-.6-.4-.4-.6-.99-.6-1.75v-3.07h-1.23v-1.01h1.23v-1.91h1.31v1.91h1.74v1.01h-1.74v3.02c0,.93,.43,1.39,1.29,1.39,.2,0,.39-.01,.58-.04Z"/></g><g><path class="cls-1" d="M42.7,85.92c-.59-.19-1.1-.47-1.53-.84l.48-.99c.45,.36,.92,.63,1.4,.79,.48,.16,1.02,.24,1.62,.24,.68,0,1.21-.13,1.59-.38,.37-.26,.56-.62,.56-1.09,0-.4-.17-.7-.52-.89-.35-.19-.9-.38-1.66-.55-.73-.16-1.33-.33-1.79-.53-.47-.2-.83-.47-1.1-.81-.26-.34-.4-.78-.4-1.31s.14-1.01,.42-1.42c.28-.41,.68-.73,1.2-.96s1.12-.34,1.81-.34c.64,0,1.25,.1,1.81,.29,.57,.19,1.03,.47,1.4,.84l-.47,.99c-.42-.35-.86-.6-1.31-.77s-.92-.25-1.42-.25c-.66,0-1.18,.14-1.55,.41s-.57,.65-.57,1.14c0,.42,.16,.73,.49,.94,.33,.21,.86,.41,1.59,.58,.76,.17,1.38,.35,1.85,.54,.47,.19,.85,.44,1.13,.77,.28,.33,.42,.75,.42,1.27s-.14,.99-.42,1.39c-.28,.4-.68,.71-1.21,.92-.52,.22-1.15,.33-1.87,.33s-1.36-.1-1.96-.29Z"/><path class="cls-1" d="M55.21,79.76v6.34h-1.27v-1.03c-.2,.36-.47,.64-.83,.83-.35,.19-.74,.29-1.18,.29-1.54,0-2.31-.85-2.31-2.55v-3.89h1.31v3.87c0,.51,.1,.89,.31,1.13s.53,.36,.96,.36c.51,0,.92-.16,1.23-.49,.31-.33,.46-.77,.46-1.31v-3.56h1.31Z"/><path class="cls-1" d="M61.92,80.02c.43,.28,.76,.67,1,1.17,.24,.5,.36,1.08,.36,1.74s-.12,1.22-.35,1.72c-.23,.49-.57,.88-.99,1.14s-.92,.4-1.48,.4c-.48,0-.9-.1-1.26-.31-.36-.2-.64-.5-.83-.88v3.43h-1.31v-8.68h1.31v1.04c.19-.38,.47-.68,.83-.88,.36-.21,.78-.31,1.26-.31,.55,0,1.03,.14,1.46,.42Zm-.45,4.56c.31-.39,.47-.93,.47-1.64s-.16-1.28-.47-1.68c-.32-.4-.76-.6-1.32-.6s-1.01,.19-1.32,.58c-.31,.39-.46,.94-.46,1.66s.15,1.27,.46,1.66c.31,.39,.75,.58,1.32,.58s1.01-.19,1.33-.58Z"/><path class="cls-1" d="M69.6,80.02c.43,.28,.76,.67,1,1.17,.24,.5,.36,1.08,.36,1.74s-.12,1.22-.35,1.72c-.23,.49-.57,.88-.99,1.14s-.92,.4-1.48,.4c-.48,0-.9-.1-1.26-.31-.36-.2-.64-.5-.83-.88v3.43h-1.31v-8.68h1.31v1.04c.19-.38,.47-.68,.83-.88,.36-.21,.78-.31,1.26-.31,.55,0,1.03,.14,1.46,.42Zm-.45,4.56c.31-.39,.47-.93,.47-1.64s-.16-1.28-.47-1.68c-.32-.4-.76-.6-1.32-.6s-1.01,.19-1.32,.58c-.31,.39-.46,.94-.46,1.66s.15,1.27,.46,1.66c.31,.39,.75,.58,1.32,.58s1.01-.19,1.33-.58Z"/><path class="cls-1" d="M72.41,86.1v-9.17h1.31v9.17h-1.31Z"/><path class="cls-1" d="M80.06,79.77h1.31l-3.78,8.67h-1.33l1.1-2.5-2.67-6.18h1.38l1.98,4.85,2-4.85Z"/><path class="cls-1" d="M86.86,85.79c-.47-.27-.84-.65-1.09-1.14-.26-.49-.38-1.06-.38-1.72s.13-1.24,.4-1.74c.26-.5,.64-.89,1.12-1.17s1.04-.42,1.68-.42c.44,0,.87,.07,1.28,.22s.75,.35,1.01,.6l-.4,.94c-.57-.47-1.17-.7-1.78-.7s-1.08,.2-1.42,.59-.51,.95-.51,1.67,.17,1.26,.51,1.64,.81,.58,1.43,.58,1.21-.23,1.78-.7l.4,.95c-.28,.25-.62,.45-1.04,.59s-.85,.21-1.3,.21c-.64,0-1.2-.13-1.67-.4Z"/><path class="cls-1" d="M97.72,82.16v3.94h-1.31v-3.87c0-.54-.11-.93-.32-1.18-.21-.25-.54-.38-.99-.38-.53,0-.95,.17-1.27,.49-.32,.33-.48,.77-.48,1.33v3.61h-1.31v-9.17h1.31v3.78c.22-.36,.51-.64,.87-.83,.36-.19,.78-.29,1.23-.29,1.52,0,2.27,.85,2.27,2.56Z"/><path class="cls-1" d="M104.06,80.24c.41,.42,.62,1.07,.62,1.94v3.93h-1.26v-1.05c-.16,.37-.41,.66-.73,.85-.33,.2-.7,.29-1.14,.29s-.8-.08-1.14-.25-.62-.4-.81-.71c-.19-.3-.29-.64-.29-1.01,0-.46,.12-.82,.36-1.09,.24-.26,.63-.45,1.18-.57,.55-.11,1.31-.17,2.27-.17h.3v-.38c0-.49-.1-.84-.31-1.05-.2-.22-.54-.33-.99-.33-.72,0-1.44,.22-2.16,.66l-.39-.92c.34-.23,.75-.42,1.23-.57,.48-.14,.94-.21,1.38-.21,.85,0,1.48,.21,1.89,.64Zm-1.11,4.49c.3-.32,.46-.74,.46-1.25v-.34h-.23c-.68,0-1.2,.03-1.56,.09-.36,.06-.62,.16-.78,.31-.16,.14-.23,.35-.23,.62,0,.3,.11,.56,.33,.76,.22,.2,.5,.31,.85,.31,.48,0,.87-.16,1.17-.49Z"/><path class="cls-1" d="M106.38,76.92h1.51v1.37h-1.51v-1.37Zm.09,9.18v-6.34h1.31v6.34h-1.31Z"/><path class="cls-1" d="M115.31,82.16v3.94h-1.31v-3.87c0-.54-.11-.93-.32-1.18-.21-.25-.54-.38-.99-.38-.53,0-.95,.17-1.27,.49-.32,.33-.48,.77-.48,1.33v3.61h-1.31v-6.34h1.29v1.01c.21-.38,.5-.67,.87-.87,.37-.2,.79-.3,1.26-.3,1.52,0,2.27,.85,2.27,2.56Z"/><path class="cls-1" d="M125.08,80.24c.41,.42,.62,1.07,.62,1.94v3.93h-1.26v-1.05c-.16,.37-.41,.66-.73,.85-.33,.2-.7,.29-1.14,.29s-.8-.08-1.14-.25-.62-.4-.81-.71c-.19-.3-.29-.64-.29-1.01,0-.46,.12-.82,.36-1.09,.24-.26,.63-.45,1.18-.57,.55-.11,1.31-.17,2.27-.17h.3v-.38c0-.49-.1-.84-.31-1.05-.2-.22-.54-.33-.99-.33-.72,0-1.44,.22-2.16,.66l-.39-.92c.34-.23,.75-.42,1.23-.57,.48-.14,.94-.21,1.38-.21,.85,0,1.48,.21,1.89,.64Zm-1.11,4.49c.3-.32,.46-.74,.46-1.25v-.34h-.23c-.68,0-1.2,.03-1.56,.09-.36,.06-.62,.16-.78,.31-.16,.14-.23,.35-.23,.62,0,.3,.11,.56,.33,.76,.22,.2,.5,.31,.85,.31,.48,0,.87-.16,1.17-.49Z"/><path class="cls-1" d="M131.08,85.14l-.06,1c-.22,.03-.44,.05-.68,.05-.82,0-1.44-.2-1.84-.6-.4-.4-.6-.99-.6-1.75v-3.07h-1.23v-1.01h1.23v-1.91h1.31v1.91h1.74v1.01h-1.74v3.02c0,.93,.43,1.39,1.29,1.39,.2,0,.39-.01,.58-.04Z"/><path class="cls-1" d="M135.64,85.14l-.06,1c-.22,.03-.44,.05-.68,.05-.82,0-1.44-.2-1.84-.6-.4-.4-.6-.99-.6-1.75v-3.07h-1.23v-1.01h1.23v-1.91h1.31v1.91h1.74v1.01h-1.74v3.02c0,.93,.43,1.39,1.29,1.39,.2,0,.39-.01,.58-.04Z"/><path class="cls-1" d="M141.19,80.24c.41,.42,.62,1.07,.62,1.94v3.93h-1.26v-1.05c-.16,.37-.41,.66-.73,.85-.33,.2-.7,.29-1.14,.29s-.8-.08-1.14-.25-.62-.4-.81-.71c-.19-.3-.29-.64-.29-1.01,0-.46,.12-.82,.36-1.09,.24-.26,.63-.45,1.18-.57,.55-.11,1.31-.17,2.27-.17h.3v-.38c0-.49-.1-.84-.31-1.05-.2-.22-.54-.33-.99-.33-.72,0-1.44,.22-2.16,.66l-.39-.92c.34-.23,.75-.42,1.23-.57,.48-.14,.94-.21,1.38-.21,.85,0,1.48,.21,1.89,.64Zm-1.11,4.49c.3-.32,.46-.74,.46-1.25v-.34h-.23c-.68,0-1.2,.03-1.56,.09-.36,.06-.62,.16-.78,.31-.16,.14-.23,.35-.23,.62,0,.3,.11,.56,.33,.76,.22,.2,.5,.31,.85,.31,.48,0,.87-.16,1.17-.49Z"/><path class="cls-1" d="M144.71,85.79c-.47-.27-.84-.65-1.09-1.14-.26-.49-.38-1.06-.38-1.72s.13-1.24,.4-1.74c.26-.5,.64-.89,1.12-1.17s1.04-.42,1.68-.42c.44,0,.87,.07,1.28,.22s.75,.35,1.01,.6l-.4,.94c-.57-.47-1.17-.7-1.78-.7s-1.08,.2-1.42,.59-.51,.95-.51,1.67,.17,1.26,.51,1.64,.81,.58,1.43,.58,1.21-.23,1.78-.7l.4,.95c-.28,.25-.62,.45-1.04,.59s-.85,.21-1.3,.21c-.64,0-1.2-.13-1.67-.4Z"/><path class="cls-1" d="M155.86,86.1h-1.66l-3-2.99v2.99h-1.31v-9.17h1.31v5.68l2.78-2.85h1.62l-3,3.04,3.26,3.29Z"/><path class="cls-1" d="M29.18,101.23c-.25-.95-.38-1.93-.38-2.94s.13-1.99,.38-2.94c.25-.94,.67-1.95,1.26-3l.9,.36c-.43,1.03-.74,1.99-.92,2.88-.18,.89-.27,1.79-.27,2.7s.09,1.81,.27,2.7c.18,.89,.48,1.85,.92,2.88l-.9,.36c-.59-1.05-1.01-2.05-1.26-3Z"/><path class="cls-1" d="M32.61,92.52h1.51v1.37h-1.51v-1.37Zm.09,9.18v-6.34h1.31v6.34h-1.31Z"/><path class="cls-1" d="M41.54,97.76v3.94h-1.31v-3.87c0-.54-.11-.93-.32-1.18-.21-.25-.54-.38-.99-.38-.53,0-.95,.17-1.27,.49-.32,.33-.48,.77-.48,1.33v3.61h-1.31v-6.34h1.29v1.01c.21-.38,.5-.67,.87-.87,.37-.2,.79-.3,1.26-.3,1.52,0,2.27,.85,2.27,2.56Z"/><path class="cls-1" d="M44.44,101.39c-.47-.27-.84-.65-1.09-1.14-.26-.49-.38-1.06-.38-1.72s.13-1.24,.4-1.74c.26-.5,.64-.89,1.12-1.17s1.04-.42,1.68-.42c.44,0,.87,.07,1.28,.22s.75,.35,1.01,.6l-.4,.94c-.57-.47-1.17-.7-1.78-.7s-1.08,.2-1.42,.59-.51,.95-.51,1.67,.17,1.26,.51,1.64,.81,.58,1.43,.58,1.21-.23,1.78-.7l.4,.95c-.28,.25-.62,.45-1.04,.59s-.85,.21-1.3,.21c-.64,0-1.2-.13-1.67-.4Z"/><path class="cls-1" d="M49.52,92.52h1.51v1.37h-1.51v-1.37Zm.09,9.18v-6.34h1.31v6.34h-1.31Z"/><path class="cls-1" d="M58.61,92.54v9.17h-1.3v-1.09c-.19,.38-.47,.67-.83,.88-.36,.2-.78,.31-1.26,.31-.55,0-1.03-.14-1.46-.42-.43-.28-.76-.67-1-1.17-.24-.5-.36-1.08-.36-1.73s.12-1.23,.36-1.73c.24-.49,.57-.88,.99-1.14,.42-.27,.91-.4,1.47-.4,.48,0,.89,.1,1.25,.31,.36,.2,.63,.49,.83,.86v-3.83h1.31Zm-1.76,7.63c.31-.39,.46-.94,.46-1.66s-.15-1.27-.46-1.66c-.31-.39-.75-.58-1.32-.58s-1.02,.19-1.33,.58c-.32,.39-.47,.93-.47,1.64s.16,1.27,.48,1.67c.32,.4,.76,.6,1.33,.6s1.01-.19,1.32-.58Z"/><path class="cls-1" d="M65.87,98.75h-4.49c.1,1.34,.76,2.02,2,2.02,.73,0,1.39-.24,1.98-.71l.4,.92c-.29,.25-.66,.45-1.09,.6-.43,.15-.88,.22-1.33,.22-1.01,0-1.81-.29-2.4-.87s-.88-1.38-.88-2.41c0-.65,.13-1.23,.38-1.73,.26-.5,.62-.89,1.08-1.17,.46-.28,.99-.42,1.58-.42,.86,0,1.53,.28,2.02,.83s.73,1.32,.73,2.3v.42Zm-3.93-2.11c-.3,.32-.48,.77-.54,1.36h3.34c-.03-.59-.18-1.04-.45-1.36s-.66-.47-1.15-.47-.9,.16-1.2,.47Z"/><path class="cls-1" d="M73.01,97.76v3.94h-1.31v-3.87c0-.54-.11-.93-.32-1.18-.21-.25-.54-.38-.99-.38-.53,0-.95,.17-1.27,.49-.32,.33-.48,.77-.48,1.33v3.61h-1.31v-6.34h1.29v1.01c.21-.38,.5-.67,.87-.87,.37-.2,.79-.3,1.26-.3,1.52,0,2.27,.85,2.27,2.56Z"/><path class="cls-1" d="M78.39,100.74l-.06,1c-.22,.03-.44,.05-.68,.05-.82,0-1.44-.2-1.84-.6-.4-.4-.6-.99-.6-1.75v-3.07h-1.23v-1.01h1.23v-1.91h1.31v1.91h1.74v1.01h-1.74v3.02c0,.93,.43,1.39,1.29,1.39,.2,0,.39-.01,.58-.04Z"/><path class="cls-1" d="M83.94,101.39c-.47-.27-.84-.65-1.09-1.15-.26-.5-.38-1.08-.38-1.74s.13-1.25,.38-1.75c.26-.5,.62-.88,1.09-1.15,.47-.27,1.02-.4,1.64-.4s1.17,.13,1.64,.4c.47,.27,.84,.65,1.09,1.15,.26,.5,.38,1.08,.38,1.75s-.13,1.24-.38,1.74c-.26,.5-.62,.88-1.09,1.15-.47,.27-1.02,.4-1.64,.4s-1.17-.13-1.64-.4Zm2.98-1.21c.31-.38,.46-.94,.46-1.68s-.16-1.28-.47-1.67c-.31-.39-.75-.58-1.33-.58s-1.01,.19-1.33,.58c-.31,.39-.47,.94-.47,1.67s.15,1.3,.46,1.68,.75,.57,1.33,.57,1.02-.19,1.33-.57Z"/><path class="cls-1" d="M94.02,96.31l-.79,.08c-.62,.06-1.07,.25-1.35,.57-.27,.32-.41,.73-.41,1.22v3.52h-1.31v-6.34h1.27v1.11c.34-.75,1.03-1.16,2.07-1.24l.43-.03,.09,1.1Z"/><path class="cls-1" d="M94.82,92.52h1.51v1.37h-1.51v-1.37Zm.09,9.18v-6.34h1.31v6.34h-1.31Z"/><path class="cls-1" d="M103.96,95.36v5.84c0,.97-.26,1.7-.77,2.2s-1.28,.74-2.28,.74c-.55,0-1.06-.07-1.55-.21-.49-.14-.93-.35-1.31-.62l.4-.95c.42,.27,.82,.46,1.2,.58s.8,.18,1.24,.18c1.19,0,1.78-.6,1.78-1.81v-1c-.18,.38-.46,.68-.83,.89-.37,.21-.81,.32-1.3,.32-.55,0-1.05-.13-1.48-.39-.43-.26-.77-.63-1.01-1.1s-.36-1.03-.36-1.65,.12-1.17,.36-1.65c.24-.48,.58-.85,1.01-1.11,.43-.26,.92-.4,1.48-.4,.49,0,.91,.1,1.28,.31,.37,.21,.65,.5,.84,.88v-1.04h1.3Zm-1.78,4.55c.32-.37,.48-.89,.48-1.55s-.16-1.16-.47-1.54-.76-.57-1.33-.57-1.02,.19-1.35,.56c-.32,.37-.49,.89-.49,1.55s.16,1.17,.49,1.55c.33,.37,.78,.56,1.34,.56s1.01-.19,1.33-.56Z"/><path class="cls-1" d="M105.71,92.52h1.51v1.37h-1.51v-1.37Zm.09,9.18v-6.34h1.31v6.34h-1.31Z"/><path class="cls-1" d="M114.64,97.76v3.94h-1.31v-3.87c0-.54-.11-.93-.32-1.18-.21-.25-.54-.38-.99-.38-.53,0-.95,.17-1.27,.49-.32,.33-.48,.77-.48,1.33v3.61h-1.31v-6.34h1.29v1.01c.21-.38,.5-.67,.87-.87,.37-.2,.79-.3,1.26-.3,1.52,0,2.27,.85,2.27,2.56Z"/><path class="cls-1" d="M120.97,95.84c.41,.42,.62,1.07,.62,1.94v3.93h-1.26v-1.05c-.16,.37-.41,.66-.73,.85-.33,.2-.7,.29-1.14,.29s-.8-.08-1.14-.25-.62-.4-.81-.71c-.19-.3-.29-.64-.29-1.01,0-.46,.12-.82,.36-1.09,.24-.26,.63-.45,1.18-.57,.55-.11,1.31-.17,2.27-.17h.3v-.38c0-.49-.1-.84-.31-1.05-.2-.22-.54-.33-.99-.33-.72,0-1.44,.22-2.16,.66l-.39-.92c.34-.23,.75-.42,1.23-.57,.48-.14,.94-.21,1.38-.21,.85,0,1.48,.21,1.89,.64Zm-1.11,4.49c.3-.32,.46-.74,.46-1.25v-.34h-.23c-.68,0-1.2,.03-1.56,.09-.36,.06-.62,.16-.78,.31-.16,.14-.23,.35-.23,.62,0,.3,.11,.56,.33,.76,.22,.2,.5,.31,.85,.31,.48,0,.87-.16,1.17-.49Z"/><path class="cls-1" d="M126.97,100.74l-.06,1c-.22,.03-.44,.05-.68,.05-.82,0-1.44-.2-1.84-.6-.4-.4-.6-.99-.6-1.75v-3.07h-1.23v-1.01h1.23v-1.91h1.31v1.91h1.74v1.01h-1.74v3.02c0,.93,.43,1.39,1.29,1.39,.2,0,.39-.01,.58-.04Z"/><path class="cls-1" d="M133.41,98.75h-4.49c.1,1.34,.76,2.02,2,2.02,.73,0,1.39-.24,1.98-.71l.4,.92c-.29,.25-.66,.45-1.09,.6-.43,.15-.88,.22-1.33,.22-1.01,0-1.81-.29-2.4-.87s-.88-1.38-.88-2.41c0-.65,.13-1.23,.38-1.73,.26-.5,.62-.89,1.08-1.17,.46-.28,.99-.42,1.58-.42,.86,0,1.53,.28,2.02,.83s.73,1.32,.73,2.3v.42Zm-3.93-2.11c-.3,.32-.48,.77-.54,1.36h3.34c-.03-.59-.18-1.04-.45-1.36s-.66-.47-1.15-.47-.9,.16-1.2,.47Z"/><path class="cls-1" d="M140.7,92.54v9.17h-1.3v-1.09c-.19,.38-.47,.67-.83,.88-.36,.2-.78,.31-1.26,.31-.55,0-1.03-.14-1.46-.42-.43-.28-.76-.67-1-1.17-.24-.5-.36-1.08-.36-1.73s.12-1.23,.36-1.73c.24-.49,.57-.88,.99-1.14,.42-.27,.91-.4,1.47-.4,.48,0,.89,.1,1.25,.31,.36,.2,.63,.49,.83,.86v-3.83h1.31Zm-1.76,7.63c.31-.39,.46-.94,.46-1.66s-.15-1.27-.46-1.66c-.31-.39-.75-.58-1.32-.58s-1.02,.19-1.33,.58c-.32,.39-.47,.93-.47,1.64s.16,1.27,.48,1.67c.32,.4,.76,.6,1.33,.6s1.01-.19,1.32-.58Z"/><path class="cls-1" d="M145.88,92.52h1.51v1.37h-1.51v-1.37Zm.09,9.18v-6.34h1.31v6.34h-1.31Z"/><path class="cls-1" d="M154.81,97.76v3.94h-1.31v-3.87c0-.54-.11-.93-.32-1.18-.21-.25-.54-.38-.99-.38-.53,0-.95,.17-1.27,.49-.32,.33-.48,.77-.48,1.33v3.61h-1.31v-6.34h1.29v1.01c.21-.38,.5-.67,.87-.87,.37-.2,.79-.3,1.26-.3,1.52,0,2.27,.85,2.27,2.56Z"/><path class="cls-1" d="M37.52,111.44c.41,.42,.62,1.07,.62,1.94v3.93h-1.26v-1.05c-.16,.37-.41,.66-.73,.85-.33,.2-.7,.29-1.14,.29s-.8-.08-1.14-.25-.62-.4-.81-.71c-.19-.3-.29-.64-.29-1.01,0-.46,.12-.82,.36-1.09,.24-.26,.63-.45,1.18-.57,.55-.11,1.31-.17,2.27-.17h.3v-.38c0-.49-.1-.84-.31-1.05-.2-.22-.54-.33-.99-.33-.72,0-1.44,.22-2.16,.66l-.39-.92c.34-.23,.75-.42,1.23-.57,.48-.14,.94-.21,1.38-.21,.85,0,1.48,.21,1.89,.64Zm-1.11,4.49c.3-.32,.46-.74,.46-1.25v-.34h-.23c-.68,0-1.2,.03-1.56,.09-.36,.06-.62,.16-.78,.31-.16,.14-.23,.35-.23,.62,0,.3,.11,.56,.33,.76,.22,.2,.5,.31,.85,.31,.48,0,.87-.16,1.17-.49Z"/><path class="cls-1" d="M46.95,116.34l-.06,1c-.22,.03-.44,.05-.68,.05-.82,0-1.44-.2-1.84-.6-.4-.4-.6-.99-.6-1.75v-3.07h-1.23v-1.01h1.23v-1.91h1.31v1.91h1.74v1.01h-1.74v3.02c0,.93,.43,1.39,1.29,1.39,.2,0,.39-.01,.58-.04Z"/><path class="cls-1" d="M53.64,113.36v3.94h-1.31v-3.87c0-.54-.11-.93-.32-1.18-.21-.25-.54-.38-.99-.38-.53,0-.95,.17-1.27,.49-.32,.33-.48,.77-.48,1.33v3.61h-1.31v-9.17h1.31v3.78c.22-.36,.51-.64,.87-.83,.36-.19,.78-.29,1.23-.29,1.52,0,2.27,.85,2.27,2.56Z"/><path class="cls-1" d="M55.34,108.12h1.51v1.37h-1.51v-1.37Zm.09,9.18v-6.34h1.31v6.34h-1.31Z"/><path class="cls-1" d="M62.44,111.91l-.79,.08c-.62,.06-1.07,.25-1.35,.57-.27,.32-.41,.73-.41,1.22v3.52h-1.31v-6.34h1.27v1.11c.34-.75,1.03-1.16,2.07-1.24l.43-.03,.09,1.1Z"/><path class="cls-1" d="M69.06,108.14v9.17h-1.3v-1.09c-.19,.38-.47,.67-.83,.88-.36,.2-.78,.31-1.26,.31-.55,0-1.03-.14-1.46-.42-.43-.28-.76-.67-1-1.17-.24-.5-.36-1.08-.36-1.73s.12-1.23,.36-1.73c.24-.49,.57-.88,.99-1.14,.42-.27,.91-.4,1.47-.4,.48,0,.89,.1,1.25,.31,.36,.2,.63,.49,.83,.86v-3.83h1.31Zm-1.76,7.63c.31-.39,.46-.94,.46-1.66s-.15-1.27-.46-1.66c-.31-.39-.75-.58-1.32-.58s-1.02,.19-1.33,.58c-.32,.39-.47,.93-.47,1.64s.16,1.27,.48,1.67c.32,.4,.76,.6,1.33,.6s1.01-.19,1.32-.58Z"/><path class="cls-1" d="M70.89,114.36v-1.05h3.76v1.05h-3.76Z"/><path class="cls-1" d="M81.34,111.22c.43,.28,.76,.67,1,1.17,.24,.5,.36,1.08,.36,1.74s-.12,1.22-.35,1.72c-.23,.49-.57,.88-.99,1.14s-.92,.4-1.48,.4c-.48,0-.9-.1-1.26-.31-.36-.2-.64-.5-.83-.88v3.43h-1.31v-8.68h1.31v1.04c.19-.38,.47-.68,.83-.88,.36-.21,.78-.31,1.26-.31,.55,0,1.03,.14,1.46,.42Zm-.45,4.56c.31-.39,.47-.93,.47-1.64s-.16-1.28-.47-1.68c-.32-.4-.76-.6-1.32-.6s-1.01,.19-1.32,.58c-.31,.39-.46,.94-.46,1.66s.15,1.27,.46,1.66c.31,.39,.75,.58,1.32,.58s1.01-.19,1.33-.58Z"/><path class="cls-1" d="M88.7,111.44c.41,.42,.62,1.07,.62,1.94v3.93h-1.26v-1.05c-.16,.37-.41,.66-.73,.85-.33,.2-.7,.29-1.14,.29s-.8-.08-1.14-.25-.62-.4-.81-.71c-.19-.3-.29-.64-.29-1.01,0-.46,.12-.82,.36-1.09,.24-.26,.63-.45,1.18-.57,.55-.11,1.31-.17,2.27-.17h.3v-.38c0-.49-.1-.84-.31-1.05-.2-.22-.54-.33-.99-.33-.72,0-1.44,.22-2.16,.66l-.39-.92c.34-.23,.75-.42,1.23-.57,.48-.14,.94-.21,1.38-.21,.85,0,1.48,.21,1.89,.64Zm-1.11,4.49c.3-.32,.46-.74,.46-1.25v-.34h-.23c-.68,0-1.2,.03-1.56,.09-.36,.06-.62,.16-.78,.31-.16,.14-.23,.35-.23,.62,0,.3,.11,.56,.33,.76,.22,.2,.5,.31,.85,.31,.48,0,.87-.16,1.17-.49Z"/><path class="cls-1" d="M94.97,111.91l-.79,.08c-.62,.06-1.07,.25-1.35,.57-.27,.32-.41,.73-.41,1.22v3.52h-1.31v-6.34h1.27v1.11c.34-.75,1.03-1.16,2.07-1.24l.43-.03,.09,1.1Z"/><path class="cls-1" d="M100,116.34l-.06,1c-.22,.03-.44,.05-.68,.05-.82,0-1.44-.2-1.84-.6-.4-.4-.6-.99-.6-1.75v-3.07h-1.23v-1.01h1.23v-1.91h1.31v1.91h1.74v1.01h-1.74v3.02c0,.93,.43,1.39,1.29,1.39,.2,0,.39-.01,.58-.04Z"/><path class="cls-1" d="M105.59,110.97h1.31l-3.78,8.67h-1.33l1.1-2.5-2.67-6.18h1.38l1.98,4.85,2-4.85Z"/><path class="cls-1" d="M115.78,110.97h1.31l-2.76,6.33h-1.18l-2.73-6.33h1.38l1.98,4.85,2-4.85Z"/><path class="cls-1" d="M123.39,114.35h-4.49c.1,1.34,.76,2.02,2,2.02,.73,0,1.39-.24,1.98-.71l.4,.92c-.29,.25-.66,.45-1.09,.6-.43,.15-.88,.22-1.33,.22-1.01,0-1.81-.29-2.4-.87s-.88-1.38-.88-2.41c0-.65,.13-1.23,.38-1.73,.26-.5,.62-.89,1.08-1.17,.46-.28,.99-.42,1.58-.42,.86,0,1.53,.28,2.02,.83s.73,1.32,.73,2.3v.42Zm-3.93-2.11c-.3,.32-.48,.77-.54,1.36h3.34c-.03-.59-.18-1.04-.45-1.36s-.66-.47-1.15-.47-.9,.16-1.2,.47Z"/><path class="cls-1" d="M130.52,113.36v3.94h-1.31v-3.87c0-.54-.11-.93-.32-1.18-.21-.25-.54-.38-.99-.38-.53,0-.95,.17-1.27,.49-.32,.33-.48,.77-.48,1.33v3.61h-1.31v-6.34h1.29v1.01c.21-.38,.5-.67,.87-.87,.37-.2,.79-.3,1.26-.3,1.52,0,2.27,.85,2.27,2.56Z"/><path class="cls-1" d="M138.17,108.14v9.17h-1.3v-1.09c-.19,.38-.47,.67-.83,.88-.36,.2-.78,.31-1.26,.31-.55,0-1.03-.14-1.46-.42-.43-.28-.76-.67-1-1.17-.24-.5-.36-1.08-.36-1.73s.12-1.23,.36-1.73c.24-.49,.57-.88,.99-1.14,.42-.27,.91-.4,1.47-.4,.48,0,.89,.1,1.25,.31,.36,.2,.63,.49,.83,.86v-3.83h1.31Zm-1.76,7.63c.31-.39,.46-.94,.46-1.66s-.15-1.27-.46-1.66c-.31-.39-.75-.58-1.32-.58s-1.02,.19-1.33,.58c-.32,.39-.47,.93-.47,1.64s.16,1.27,.48,1.67c.32,.4,.76,.6,1.33,.6s1.01-.19,1.32-.58Z"/><path class="cls-1" d="M141.11,116.99c-.47-.27-.84-.65-1.09-1.15-.26-.5-.38-1.08-.38-1.74s.13-1.25,.38-1.75c.26-.5,.62-.88,1.09-1.15,.47-.27,1.02-.4,1.64-.4s1.17,.13,1.64,.4c.47,.27,.84,.65,1.09,1.15,.26,.5,.38,1.08,.38,1.75s-.13,1.24-.38,1.74c-.26,.5-.62,.88-1.09,1.15-.47,.27-1.02,.4-1.64,.4s-1.17-.13-1.64-.4Zm2.98-1.21c.31-.38,.46-.94,.46-1.68s-.16-1.28-.47-1.67c-.31-.39-.75-.58-1.33-.58s-1.01,.19-1.33,.58c-.31,.39-.47,.94-.47,1.67s.15,1.3,.46,1.68,.75,.57,1.33,.57,1.02-.19,1.33-.57Z"/><path class="cls-1" d="M151.19,111.91l-.79,.08c-.62,.06-1.07,.25-1.35,.57-.27,.32-.41,.73-.41,1.22v3.52h-1.31v-6.34h1.27v1.11c.34-.75,1.03-1.16,2.07-1.24l.43-.03,.09,1.1Z"/><path class="cls-1" d="M151.83,119.46c.43-1.03,.74-1.99,.92-2.88,.18-.89,.27-1.79,.27-2.7s-.09-1.81-.27-2.7c-.18-.89-.48-1.85-.92-2.88l.9-.36c.58,1.06,1,2.06,1.25,3,.25,.94,.38,1.92,.38,2.94s-.13,2-.38,2.94c-.25,.95-.67,1.95-1.25,3l-.9-.36Z"/></g><g><path class="cls-1" d="M401.19,251.97c.28,.38,.42,.85,.42,1.42,0,.8-.28,1.43-.84,1.89-.56,.46-1.33,.69-2.29,.69-.61,0-1.19-.1-1.74-.29-.55-.2-1.02-.47-1.39-.81l.48-.99c.82,.67,1.69,1,2.61,1,.62,0,1.08-.13,1.4-.4s.47-.66,.47-1.18-.16-.89-.49-1.15-.82-.38-1.48-.38h-1.13v-1.08h.92c.63,0,1.12-.13,1.45-.4,.33-.26,.5-.65,.5-1.16,0-.46-.14-.81-.42-1.06s-.67-.37-1.17-.37c-.88,0-1.72,.33-2.55,1l-.47-.99c.36-.35,.82-.62,1.37-.81,.55-.2,1.12-.29,1.71-.29,.86,0,1.54,.21,2.05,.64,.51,.42,.77,1,.77,1.73,0,.51-.13,.96-.38,1.35-.25,.39-.6,.67-1.05,.84,.54,.16,.95,.42,1.23,.8Z"/><path class="cls-1" d="M408.99,251.97c.28,.38,.42,.85,.42,1.42,0,.8-.28,1.43-.84,1.89-.56,.46-1.33,.69-2.29,.69-.61,0-1.19-.1-1.74-.29-.55-.2-1.02-.47-1.39-.81l.48-.99c.82,.67,1.69,1,2.61,1,.62,0,1.08-.13,1.4-.4s.47-.66,.47-1.18-.16-.89-.49-1.15-.82-.38-1.48-.38h-1.13v-1.08h.92c.63,0,1.12-.13,1.45-.4,.33-.26,.5-.65,.5-1.16,0-.46-.14-.81-.42-1.06s-.67-.37-1.17-.37c-.88,0-1.72,.33-2.55,1l-.47-.99c.36-.35,.82-.62,1.37-.81,.55-.2,1.12-.29,1.71-.29,.86,0,1.54,.21,2.05,.64,.51,.42,.77,1,.77,1.73,0,.51-.13,.96-.38,1.35-.25,.39-.6,.67-1.05,.84,.54,.16,.95,.42,1.23,.8Z"/><path class="cls-1" d="M411.56,251.48c-.4-.48-.6-1.17-.6-2.09s.2-1.61,.6-2.09c.4-.47,.95-.71,1.65-.71s1.27,.24,1.66,.71,.6,1.17,.6,2.09-.2,1.63-.6,2.1c-.4,.47-.95,.71-1.66,.71s-1.25-.24-1.65-.71Zm2.5-.63c.18-.31,.27-.79,.27-1.46s-.09-1.14-.27-1.44c-.18-.3-.46-.46-.85-.46s-.66,.15-.84,.45c-.18,.3-.27,.78-.27,1.45s.09,1.16,.27,1.46c.18,.31,.46,.46,.84,.46s.66-.15,.85-.46Zm.1,5.36l-.91-.52,5.4-9.32,.91,.52-5.4,9.32Zm3.77-.96c-.4-.47-.6-1.17-.6-2.1s.2-1.61,.6-2.09c.4-.47,.95-.71,1.66-.71s1.25,.24,1.66,.71c.4,.47,.6,1.17,.6,2.09s-.2,1.62-.6,2.09c-.4,.48-.95,.71-1.66,.71s-1.27-.24-1.66-.71Zm2.5-.64c.18-.31,.27-.79,.27-1.46s-.09-1.14-.27-1.45c-.18-.31-.46-.46-.83-.46s-.66,.15-.85,.46c-.18,.3-.27,.79-.27,1.46s.09,1.15,.27,1.46c.18,.31,.46,.46,.85,.46s.66-.15,.84-.46Z"/></g><g><path class="cls-1" d="M625.82,43.42c.42,.25,.75,.6,.99,1.05,.24,.45,.36,.96,.36,1.53s-.13,1.13-.4,1.61c-.27,.47-.64,.84-1.12,1.11s-1.01,.4-1.61,.4c-1.19,0-2.11-.39-2.76-1.18-.65-.79-.97-1.92-.97-3.38,0-1,.16-1.87,.47-2.59,.31-.72,.76-1.28,1.34-1.66s1.27-.58,2.07-.58c.56,0,1.11,.09,1.64,.27s.98,.43,1.35,.76l-.65,1.44c-.8-.59-1.55-.88-2.26-.88-.59,0-1.05,.24-1.38,.72-.33,.48-.52,1.18-.55,2.1,.2-.33,.48-.59,.84-.79,.36-.2,.77-.29,1.22-.29,.54,0,1.02,.13,1.44,.38Zm-.92,3.72c.25-.27,.37-.62,.37-1.07s-.12-.78-.37-1.05-.57-.4-.98-.4-.74,.13-.99,.4c-.25,.27-.38,.62-.38,1.05s.12,.79,.38,1.06c.25,.27,.58,.41,.99,.41s.73-.13,.98-.4Z"/><path class="cls-1" d="M633.59,43.44c.44,.25,.79,.59,1.03,1.03,.24,.44,.36,.95,.36,1.53,0,.62-.15,1.16-.44,1.62-.29,.47-.7,.83-1.24,1.09s-1.15,.38-1.87,.38c-.58,0-1.16-.09-1.73-.28-.57-.19-1.04-.44-1.39-.75l.64-1.44c.84,.59,1.68,.88,2.51,.88,.53,0,.93-.12,1.2-.36,.27-.24,.41-.6,.41-1.08,0-.45-.14-.81-.42-1.07-.28-.26-.67-.39-1.15-.39-.3,0-.6,.06-.9,.17-.3,.11-.57,.27-.81,.47h-1.16v-5.42h5.9v1.55h-3.93v2.04c.42-.23,.91-.35,1.47-.35s1.07,.12,1.51,.37Z"/><path class="cls-1" d="M636.52,44.57c-.42-.48-.63-1.18-.63-2.1s.21-1.58,.64-2.06c.42-.48,1-.72,1.74-.72s1.33,.24,1.75,.72c.42,.48,.63,1.17,.63,2.07s-.21,1.62-.63,2.09c-.42,.48-1,.71-1.75,.71s-1.33-.24-1.75-.72Zm2.33-.86c.12-.24,.18-.65,.18-1.22s-.06-.94-.19-1.19-.32-.37-.58-.37-.45,.12-.57,.36c-.12,.24-.18,.64-.18,1.2s.06,.97,.18,1.21c.12,.25,.31,.37,.57,.37s.46-.12,.58-.36Zm.74,5.68l-1.27-.74,5.34-9.2,1.26,.74-5.33,9.2Zm3.63-1.02c-.42-.48-.63-1.18-.63-2.1s.21-1.59,.63-2.07,1-.71,1.75-.71,1.32,.24,1.74,.72c.42,.48,.64,1.17,.64,2.07s-.21,1.61-.63,2.09c-.42,.48-1,.72-1.75,.72s-1.33-.24-1.75-.72Zm2.33-.86c.12-.24,.18-.65,.18-1.22s-.06-.96-.19-1.2c-.13-.25-.32-.37-.58-.37s-.45,.12-.58,.37c-.13,.25-.19,.65-.19,1.2s.06,.98,.18,1.22c.12,.24,.32,.36,.58,.36s.46-.12,.58-.36Z"/></g><g><path class="cls-1" d="M540.73,147.28c.43,.24,.77,.58,1.01,1.03,.24,.44,.36,.95,.36,1.52s-.13,1.11-.4,1.56c-.26,.45-.64,.8-1.13,1.05-.49,.25-1.06,.37-1.71,.37-.56,0-1.12-.1-1.67-.3s-1.01-.47-1.37-.81l.47-.99c.82,.67,1.69,1,2.59,1,.61,0,1.08-.16,1.42-.49s.51-.78,.51-1.37-.17-1.01-.51-1.35-.79-.51-1.35-.51c-.81,0-1.47,.31-1.99,.94h-.86v-5.38h5.62v1.08h-4.29v2.89c.48-.4,1.08-.6,1.81-.6,.57,0,1.08,.12,1.51,.36Z"/><path class="cls-1" d="M549.16,148.81c.28,.38,.42,.85,.42,1.42,0,.8-.28,1.43-.84,1.89-.56,.46-1.33,.69-2.29,.69-.61,0-1.19-.1-1.74-.29-.55-.2-1.02-.47-1.39-.81l.48-.99c.82,.67,1.69,1,2.61,1,.62,0,1.08-.13,1.4-.4s.47-.66,.47-1.18-.16-.89-.49-1.15c-.33-.26-.82-.38-1.48-.38h-1.13v-1.08h.92c.63,0,1.12-.13,1.45-.4,.33-.26,.5-.65,.5-1.16,0-.46-.14-.81-.42-1.06s-.67-.37-1.17-.37c-.88,0-1.72,.33-2.55,1l-.47-.99c.36-.35,.82-.62,1.37-.81,.55-.2,1.12-.29,1.71-.29,.86,0,1.54,.21,2.05,.64s.77,1,.77,1.73c0,.51-.13,.96-.38,1.35-.25,.39-.6,.67-1.05,.84,.54,.16,.95,.42,1.23,.8Z"/><path class="cls-1" d="M551.73,148.32c-.4-.48-.6-1.17-.6-2.09s.2-1.61,.6-2.09,.95-.71,1.65-.71,1.26,.24,1.66,.71c.4,.47,.6,1.17,.6,2.09s-.2,1.63-.6,2.1c-.4,.47-.95,.71-1.66,.71s-1.25-.24-1.65-.71Zm2.5-.63c.18-.31,.27-.79,.27-1.46s-.09-1.14-.27-1.44c-.18-.3-.46-.46-.84-.46s-.66,.15-.84,.45-.27,.78-.27,1.45,.09,1.16,.27,1.46,.46,.46,.84,.46,.66-.15,.84-.46Zm.1,5.36l-.91-.52,5.39-9.32,.91,.52-5.39,9.32Zm3.77-.96c-.4-.47-.6-1.17-.6-2.1s.2-1.61,.6-2.09c.4-.47,.95-.71,1.66-.71s1.25,.24,1.66,.71c.4,.47,.6,1.17,.6,2.09s-.2,1.62-.6,2.09-.95,.71-1.66,.71-1.27-.24-1.66-.71Zm2.5-.64c.18-.31,.27-.79,.27-1.46s-.09-1.14-.27-1.45-.46-.46-.83-.46-.66,.15-.84,.46c-.18,.3-.27,.79-.27,1.46s.09,1.15,.27,1.46c.18,.31,.46,.46,.84,.46s.66-.15,.84-.46Z"/></g><g><path class="cls-1" d="M458.4,201.67v1.07h-1.34v1.9h-1.31v-1.9h-4.12v-1l4.34-6.27h1.09v6.2h1.34Zm-5.46,0h2.81v-4.06l-2.81,4.06Z"/><path class="cls-1" d="M463.76,203.53h2.01v1.11h-5.36v-1.11h2v-6.46l-1.6,.98-.57-1,2.55-1.57h.96v8.06Z"/><path class="cls-1" d="M467.87,200.24c-.4-.48-.6-1.17-.6-2.09s.2-1.61,.6-2.09c.4-.47,.95-.71,1.65-.71s1.27,.24,1.66,.71,.6,1.17,.6,2.09-.2,1.63-.6,2.1c-.4,.47-.95,.71-1.66,.71s-1.25-.24-1.65-.71Zm2.5-.63c.18-.31,.27-.79,.27-1.46s-.09-1.14-.27-1.44c-.18-.3-.46-.46-.85-.46s-.66,.15-.84,.45c-.18,.3-.27,.78-.27,1.45s.09,1.16,.27,1.46c.18,.31,.46,.46,.84,.46s.66-.15,.85-.46Zm.1,5.36l-.91-.52,5.39-9.32,.91,.52-5.39,9.32Zm3.77-.96c-.4-.47-.6-1.17-.6-2.1s.2-1.61,.6-2.09c.4-.47,.95-.71,1.66-.71s1.25,.24,1.66,.71c.4,.47,.6,1.17,.6,2.09s-.2,1.62-.6,2.09-.95,.71-1.66,.71-1.27-.24-1.66-.71Zm2.5-.64c.18-.31,.27-.79,.27-1.46s-.09-1.14-.27-1.45-.46-.46-.83-.46-.66,.15-.84,.46-.27,.79-.27,1.46,.09,1.15,.27,1.46c.18,.31,.46,.46,.84,.46s.66-.15,.84-.46Z"/></g><g><path class="cls-1" d="M604.38,95.62c.43,.25,.76,.59,1,1.03,.24,.44,.36,.95,.36,1.52s-.13,1.08-.38,1.54-.61,.81-1.07,1.07c-.46,.26-.98,.38-1.55,.38-1.14,0-2.01-.39-2.62-1.16s-.92-1.88-.92-3.32c0-1.02,.14-1.9,.43-2.63s.7-1.29,1.25-1.68,1.2-.58,1.95-.58c.54,0,1.06,.09,1.57,.29,.51,.19,.96,.46,1.34,.82l-.48,.99c-.81-.67-1.61-1-2.39-1s-1.32,.33-1.73,.98-.61,1.58-.61,2.79v.04c.19-.45,.5-.8,.93-1.06,.43-.25,.91-.38,1.45-.38s1.05,.12,1.47,.37Zm-.42,3.94c.32-.34,.48-.79,.48-1.36s-.16-1.01-.49-1.35-.76-.51-1.29-.51-.98,.17-1.33,.51c-.35,.34-.52,.79-.52,1.34s.17,1.01,.51,1.35,.79,.52,1.35,.52,.97-.17,1.29-.51Z"/><path class="cls-1" d="M613.37,99.96v1.11h-6.01v-1l3.16-3.46c.41-.44,.7-.84,.88-1.21,.18-.36,.27-.72,.27-1.08,0-.47-.13-.82-.4-1.07-.27-.24-.66-.36-1.16-.36-.86,0-1.71,.33-2.55,1l-.47-.99c.36-.34,.82-.61,1.38-.81,.55-.2,1.11-.3,1.68-.3,.88,0,1.57,.22,2.08,.66,.51,.44,.77,1.03,.77,1.77,0,.53-.12,1.03-.34,1.51s-.61,1.01-1.15,1.6l-2.46,2.63h4.32Z"/><path class="cls-1" d="M615.37,96.67c-.4-.48-.6-1.17-.6-2.09s.2-1.61,.6-2.09c.4-.47,.95-.71,1.65-.71s1.27,.24,1.66,.71,.6,1.17,.6,2.09-.2,1.63-.6,2.1c-.4,.47-.95,.71-1.66,.71s-1.25-.24-1.65-.71Zm2.5-.63c.18-.31,.27-.79,.27-1.46s-.09-1.14-.27-1.44c-.18-.3-.46-.46-.85-.46s-.66,.15-.84,.45c-.18,.3-.27,.78-.27,1.45s.09,1.16,.27,1.46c.18,.31,.46,.46,.84,.46s.66-.15,.85-.46Zm.1,5.36l-.91-.52,5.4-9.32,.91,.52-5.4,9.32Zm3.77-.96c-.4-.47-.6-1.17-.6-2.1s.2-1.61,.6-2.09c.4-.47,.95-.71,1.66-.71s1.25,.24,1.66,.71c.4,.47,.6,1.17,.6,2.09s-.2,1.62-.6,2.09c-.4,.48-.95,.71-1.66,.71s-1.27-.24-1.66-.71Zm2.5-.64c.18-.31,.27-.79,.27-1.46s-.09-1.14-.27-1.45c-.18-.31-.46-.46-.83-.46s-.66,.15-.85,.46c-.18,.3-.27,.79-.27,1.46s.09,1.15,.27,1.46c.18,.31,.46,.46,.85,.46s.66-.15,.84-.46Z"/></g><g><path class="cls-1" d="M88.82,299.08h3.21c1.48,0,2.63,.4,3.45,1.2,.81,.8,1.22,1.92,1.22,3.38s-.41,2.58-1.22,3.39c-.81,.8-1.96,1.2-3.45,1.2h-3.21v-9.17Zm3.13,8.05c2.25,0,3.38-1.16,3.38-3.47s-1.13-3.46-3.38-3.46h-1.79v6.93h1.79Z"/><path class="cls-1" d="M99.47,307.93c-.47-.27-.84-.65-1.09-1.15-.26-.5-.38-1.08-.38-1.74s.13-1.25,.38-1.75c.26-.5,.62-.88,1.09-1.15,.47-.27,1.02-.4,1.64-.4s1.17,.13,1.64,.4c.47,.27,.84,.65,1.09,1.15,.26,.5,.38,1.08,.38,1.75s-.13,1.24-.38,1.74c-.26,.5-.62,.88-1.09,1.15-.47,.27-1.02,.4-1.64,.4s-1.17-.13-1.64-.4Zm2.98-1.21c.31-.38,.46-.94,.46-1.68s-.16-1.29-.47-1.67c-.31-.38-.75-.58-1.33-.58s-1.01,.19-1.33,.58c-.31,.39-.47,.94-.47,1.67s.15,1.3,.46,1.68c.31,.38,.75,.57,1.33,.57s1.02-.19,1.33-.57Z"/><path class="cls-1" d="M111.39,304.31v3.94h-1.31v-3.87c0-.54-.11-.93-.32-1.18-.21-.25-.54-.38-.99-.38-.53,0-.95,.17-1.27,.49-.32,.33-.48,.77-.48,1.33v3.61h-1.31v-6.34h1.29v1.01c.21-.38,.5-.67,.87-.87s.79-.3,1.26-.3c1.52,0,2.27,.85,2.27,2.56Z"/><path class="cls-1" d="M114.35,299.08v1.05c0,.41-.07,.78-.2,1.11-.13,.33-.36,.66-.68,.99l-.57-.46c.36-.39,.57-.77,.62-1.14h-.71v-1.55h1.55Z"/><path class="cls-1" d="M119.69,307.28l-.06,1c-.22,.03-.44,.05-.68,.05-.82,0-1.44-.2-1.84-.6s-.6-.99-.6-1.75v-3.07h-1.23v-1.01h1.23v-1.91h1.31v1.91h1.74v1.01h-1.74v3.02c0,.93,.43,1.39,1.29,1.39,.2,0,.39-.01,.58-.04Z"/><path class="cls-1" d="M130.11,308.25h-1.66l-3-2.99v2.99h-1.31v-9.17h1.31v5.68l2.78-2.85h1.62l-3,3.04,3.26,3.29Z"/><path class="cls-1" d="M136.54,304.31v3.94h-1.31v-3.87c0-.54-.11-.93-.32-1.18-.21-.25-.54-.38-.99-.38-.53,0-.95,.17-1.27,.49-.32,.33-.48,.77-.48,1.33v3.61h-1.31v-6.34h1.29v1.01c.21-.38,.5-.67,.87-.87s.79-.3,1.26-.3c1.52,0,2.27,.85,2.27,2.56Z"/><path class="cls-1" d="M139.45,307.93c-.47-.27-.84-.65-1.09-1.15-.26-.5-.38-1.08-.38-1.74s.13-1.25,.38-1.75c.26-.5,.62-.88,1.09-1.15,.47-.27,1.02-.4,1.64-.4s1.17,.13,1.64,.4c.47,.27,.84,.65,1.09,1.15,.26,.5,.38,1.08,.38,1.75s-.13,1.24-.38,1.74c-.26,.5-.62,.88-1.09,1.15-.47,.27-1.02,.4-1.64,.4s-1.17-.13-1.64-.4Zm2.98-1.21c.31-.38,.46-.94,.46-1.68s-.16-1.29-.47-1.67c-.31-.38-.75-.58-1.33-.58s-1.01,.19-1.33,.58c-.31,.39-.47,.94-.47,1.67s.15,1.3,.46,1.68c.31,.38,.75,.57,1.33,.57s1.02-.19,1.33-.57Z"/><path class="cls-1" d="M154.17,301.9h1.3l-2.43,6.34h-1.18l-1.68-4.54-1.68,4.54h-1.2l-2.42-6.34h1.36l1.72,4.77,1.73-4.77h1.03l1.73,4.8,1.72-4.8Z"/></g><g><path class="cls-1" d="M196.09,300.55v1.05l-5.15,2.24,5.15,2.24v1.05l-6.34-2.78v-1.01l6.34-2.78Z"/><path class="cls-1" d="M201.75,306.43h2.02v1.11h-5.36v-1.11h2v-6.46l-1.6,.98-.57-1,2.55-1.57h.96v8.06Z"/><path class="cls-1" d="M205.86,303.15c-.4-.48-.6-1.17-.6-2.09s.2-1.61,.6-2.09c.4-.47,.95-.71,1.65-.71s1.27,.24,1.66,.71c.4,.47,.6,1.17,.6,2.09s-.2,1.63-.6,2.1c-.4,.47-.95,.71-1.66,.71s-1.25-.24-1.65-.71Zm2.5-.63c.18-.31,.27-.79,.27-1.46s-.09-1.14-.27-1.44c-.18-.3-.46-.46-.85-.46s-.66,.15-.84,.45c-.18,.3-.27,.78-.27,1.45s.09,1.16,.27,1.46c.18,.31,.46,.46,.84,.46s.66-.15,.85-.46Zm.1,5.36l-.91-.52,5.4-9.32,.91,.52-5.4,9.32Zm3.77-.96c-.4-.47-.6-1.17-.6-2.1s.2-1.61,.6-2.09c.4-.47,.95-.71,1.66-.71s1.25,.24,1.66,.71c.4,.47,.6,1.17,.6,2.09s-.2,1.62-.6,2.09c-.4,.48-.95,.71-1.66,.71s-1.27-.24-1.66-.71Zm2.5-.64c.18-.31,.27-.79,.27-1.46s-.09-1.14-.27-1.45c-.18-.31-.46-.46-.83-.46s-.66,.15-.85,.46-.27,.79-.27,1.46,.09,1.15,.27,1.46c.18,.31,.46,.46,.85,.46s.66-.15,.84-.46Z"/></g></svg>