<?xml version="1.0" encoding="UTF-8"?>
<svg xmlns="http://www.w3.org/2000/svg" width="70" height="94" viewBox="0 0 70 93">
  <path d="M16 14.043c0-1.797-.41-2.531-1.566-2.531-1.317 0-1.649 1.226-1.649 4.738 0 3.672.578 4.406 1.649 4.406.992 0 1.648-.488 1.648-3.101h2.64c0 2.613-.66 4.898-4.12 4.898-3.957 0-4.454-2.613-4.454-6.367 0-3.758.497-6.371 4.454-6.371 3.789 0 4.035 2.613 4.035 4.41H16ZM23.254 9.879l1.73 4.738 1.813-4.738h2.887l-3.38 7.43v4.82h-2.636v-4.82l-3.383-7.43ZM31.578 9.879h4.371c2.14 0 3.707.734 3.707 3.105 0 1.305-.66 2.368-1.976 2.692 1.484.164 2.39 1.226 2.39 2.86 0 1.96-.992 3.593-4.039 3.593h-4.453Zm2.64 5.062h.739c1.484 0 2.063-.488 2.063-1.632 0-1.145-.579-1.633-1.895-1.633h-.992v3.265Zm0 5.391h.989c1.234 0 2.14-.41 2.14-1.879s-.824-1.797-1.976-1.797H34.22ZM49.879 9.879v2.043h-4.7v2.855h4.368v2.043H45.18v3.266h4.863v2.043h-7.5V9.879ZM52.27 9.879h4.863c2.14 0 3.46 1.062 3.46 3.184 0 1.632-.66 2.695-2.144 3.023 1.813.246 2.063 1.14 2.063 3.754 0 1.308.082 1.96.574 2.207v.082h-2.883c-.246-.328-.332-.817-.332-1.309l-.082-2.367c0-.98-.492-1.55-1.566-1.55h-1.399v5.144h-2.636V9.879Zm2.636 5.39h1.153c1.238 0 1.98-.492 1.98-1.796 0-1.145-.66-1.715-1.816-1.715h-1.235v3.512ZM11.55 29.723v.242c0 .734.247 1.308 1.153 1.308.578 0 1.074-.328 1.074-.98 0-.734-.414-1.063-1.566-1.387-1.566-.492-2.309-1.144-2.309-2.531 0-1.637 1.07-2.453 2.72-2.453 1.566 0 2.718.656 2.718 2.207v.246h-1.73c0-.738-.247-1.227-.989-1.227-.824 0-.988.489-.988.98 0 .49.164.817.906 1.142l1.402.574c1.317.57 1.649 1.14 1.649 2.203 0 1.715-1.156 2.531-3.05 2.531-1.977 0-2.802-.898-2.802-2.367v-.328h1.813ZM21.938 24.086v1.39h-3.133v1.958h2.965v1.39h-2.965v2.203h3.297v1.387h-5.028v-8.328ZM27.129 26.863c0-1.226-.246-1.715-1.07-1.715-.91 0-1.075.817-1.075 3.184 0 2.531.332 2.941 1.157 2.941.656 0 1.07-.328 1.07-2.125h1.812c0 1.797-.492 3.348-2.8 3.348-2.637 0-2.97-1.797-2.97-4.328 0-2.531.333-4.324 2.97-4.324 2.554 0 2.718 1.71 2.718 2.937H27.13ZM32.156 24.086v5.797c0 .816.246 1.472 1.07 1.472.825 0 1.075-.656 1.075-1.472v-5.797h1.812v5.797c0 2.125-1.402 2.695-2.804 2.695-1.399 0-2.801-.488-2.801-2.695v-5.797ZM37.598 24.086h3.297c1.484 0 2.308.734 2.308 2.125 0 1.059-.496 1.875-1.484 2.039 1.234.164 1.398.734 1.398 2.531 0 .899.086 1.309.414 1.473v.078h-1.894c-.168-.242-.25-.57-.25-.898l-.082-1.551c0-.653-.328-1.059-1.07-1.059h-.989v3.508H37.43v-8.246Zm1.812 3.594h.742c.825 0 1.317-.328 1.317-1.227 0-.734-.41-1.14-1.235-1.14h-.824ZM45.016 32.332v-8.246h1.812v8.246ZM53.75 24.086v1.39h-1.895v6.856h-1.812v-6.855h-1.895v-1.391ZM56.719 24.086l1.152 3.184 1.238-3.184h1.895l-2.309 4.98v3.266h-1.812v-3.266l-2.309-4.98ZM10.563 37.234h3.87v.977h-2.718v1.96h2.555v.981h-2.555v2.285h2.8v.981h-3.953ZM17.156 40.742l-1.73-3.508h1.234l1.152 2.368 1.157-2.368h1.234l-1.73 3.508 1.812 3.594h-1.234l-1.238-2.531-1.317 2.53h-1.238ZM25.316 41.805v.164c0 1.304-.496 2.531-2.226 2.531-1.813 0-2.39-1.145-2.39-3.676s.577-3.672 2.39-3.672c2.058 0 2.144 1.47 2.144 2.203v.165h-1.156v-.083c0-.652-.164-1.386-.988-1.386s-1.238.488-1.238 2.773c0 2.29.414 2.86 1.238 2.86.988 0 1.07-1.063 1.07-1.715v-.082h1.156ZM26.387 37.234h3.875v.977h-2.723v1.96h2.555v.981h-2.555v2.285h2.805v.981h-3.957ZM31.25 37.234h1.152v6.121h2.805v.98h-3.875v-7.1ZM36.113 37.234h1.153v6.121h2.804v.98h-3.875v-7.1ZM40.895 37.234h3.87v.977h-2.718v1.96h2.555v.981h-2.555v2.285h2.805v.981h-3.957ZM45.922 37.234h1.402l2.059 5.305v-5.305h1.07v7.102h-1.398l-2.063-5.387v5.387h-1.07ZM56.309 41.805v.164c0 1.304-.496 2.531-2.227 2.531-1.812 0-2.39-1.145-2.39-3.676s.578-3.672 2.39-3.672c2.059 0 2.14 1.47 2.14 2.203v.165H55.07v-.083c0-.652-.164-1.386-.988-1.386s-1.238.488-1.238 2.773c0 2.29.414 2.86 1.238 2.86.988 0 1.07-1.063 1.07-1.715v-.082h1.157ZM57.379 37.234h3.875v.977H58.53v1.96h2.555v.981H58.53v2.285h2.805v.981h-3.957ZM18.39 46.215h1.403l1.895 7.101h-1.153l-.414-1.714h-2.058l-.497 1.714h-1.152Zm1.485 4.41-.824-3.512-.906 3.512ZM22.512 46.215h1.156l.906 5.469.906-5.47h1.235l.992 5.552.906-5.551h1.153l-1.403 7.101h-1.316l-.906-5.304-.907 5.304h-1.32ZM32.57 46.215h1.48l1.9 7.101h-1.157l-.41-1.714H32.32l-.492 1.714h-1.32Zm1.563 4.41-.824-3.512-.825 3.512ZM37.598 46.215h2.554c.989 0 1.813.488 1.813 1.797 0 .898-.41 1.633-1.153 1.715.743.082 1.07.488 1.153 1.468v1.47c0 .327.164.491.328.651h-1.316a1.243 1.243 0 0 1-.164-.652c0-.406 0-.816-.083-1.305 0-.734-.25-1.144-1.074-1.144h-.906v3.101h-1.152Zm2.058 3.183c.742 0 1.157-.406 1.157-1.144 0-.734-.333-1.14-1.075-1.14h-.988v2.284ZM44.027 46.215h2.059c2.227 0 2.555 1.469 2.555 3.512 0 2.12-.246 3.507-2.555 3.507h-2.059Zm1.153 6.203h.906c.906 0 1.32-.652 1.32-2.691 0-1.961-.332-2.696-1.32-2.696h-.906ZM51.527 51.113v.164c0 .899.41 1.305 1.153 1.305.742 0 1.07-.488 1.07-1.059 0-.738-.41-1.062-.988-1.226l-.825-.246c-1.07-.406-1.484-.899-1.484-1.957 0-1.309.91-2.043 2.227-2.043 1.812 0 2.062 1.144 2.062 1.879v.164h-1.156v-.164c0-.653-.328-1.063-.988-1.063-.496 0-.989.246-.989 1.063 0 .57.328.898 1.07 1.222l.743.246c.988.329 1.484.899 1.484 1.88 0 1.468-.906 2.12-2.39 2.12-1.813 0-2.145-1.14-2.145-2.203v-.164h1.156ZM30.012 83.855h-3.215c0-.898.414-1.55 1.156-2.285l.41-.41c.496-.406.578-.652.578-1.222 0-.41-.164-.657-.496-.657-.574 0-.574.492-.574.98h-.988v-.163c0-.977.492-1.551 1.648-1.551 1.07 0 1.563.492 1.563 1.39 0 .653-.246 1.141-.824 1.633l-.575.57c-.332.247-.496.57-.578.735h1.977v.98ZM32.816 78.629c1.235 0 1.649.652 1.649 2.531 0 1.469-.082 2.778-1.649 2.778-1.238 0-1.648-.653-1.648-2.532 0-1.469.082-2.777 1.648-2.777Zm-.578 3.023c0 1.305.082 1.633.578 1.633.493 0 .579-.41.579-1.715v-.574c0-1.305-.086-1.633-.579-1.633-.496 0-.578.41-.578 1.715ZM38.832 83.855h-3.215c0-.898.414-1.55 1.156-2.285l.41-.41c.497-.406.579-.652.579-1.222 0-.41-.164-.657-.496-.657-.575 0-.575.492-.575.98H35.7v-.163c0-.977.496-1.551 1.649-1.551 1.074 0 1.566.492 1.566 1.39 0 .653-.246 1.141-.824 1.633l-.574.57c-.332.247-.496.57-.578.735h1.976v.98ZM43.285 83.855H40.07c0-.898.41-1.55 1.153-2.285l.414-.41c.492-.406.574-.652.574-1.222 0-.41-.164-.657-.492-.657-.578 0-.578.492-.578.98h-.989v-.163c0-.977.493-1.551 1.649-1.551 1.07 0 1.566.492 1.566 1.39 0 .653-.25 1.141-.824 1.633l-.578.57c-.328.247-.496.57-.578.735h1.98v.98ZM12.457 69.402l-1.895-1.304-1.898 1.304.742-2.12-1.976-1.31h2.39l.742-2.12.743 2.12h2.304l-1.894 1.31ZM24.242 69.648h-1.48l-.66-4.574-.743 4.574h-1.402l-1.234-6.289h1.234l.742 4.657.742-4.657h1.235l.742 4.657.742-4.657h1.238ZM27.047 63.36h1.316v6.288h-1.316ZM34.547 69.648h-1.484l-1.567-4.41v4.41h-1.152V63.36h1.484l1.567 4.328V63.36h1.152ZM40.73 69.648h-1.484l-1.566-4.41v4.41h-1.157V63.36h1.485l1.566 4.328V63.36h1.156ZM46.332 69.648h-3.625V63.36h3.543v1.063h-2.309v1.469h2.145v1.062H43.94v1.715h2.391ZM62.57 69.402l-1.894-1.304-1.98 1.304.742-2.12-1.895-1.31h2.39l.743-2.12.66 2.12h2.39l-1.898 1.31ZM52.02 68.504c0-1.305-.165-1.797-.989-1.957.742-.164 1.07-.738 1.07-1.555 0-1.058-.656-1.633-1.73-1.633h-2.39v6.29h1.32v-2.696h.66c.492 0 .742.328.742.817v1.226c0 .242 0 .488.164.652h1.403v-.082c-.168-.082-.168-.41-.25-1.062Zm-2.141-2.367h-.496V64.34h.578c.578 0 .906.328.906.898-.082.653-.414.899-.988.899Zm0 0" style="stroke:none;fill-rule:nonzero;fill:#fff;fill-opacity:1"></path>
  <path d="m80.6 101.198-26.9 6.2c-7.198 1.704-14.7 1.603-21.899 0l-26.6-6.1V5.603h75.3v95.596Zm0 0" style="fill:none;stroke-width:.75;stroke-linecap:round;stroke-linejoin:round;stroke:#fff;stroke-opacity:1;stroke-miterlimit:10" transform="matrix(.82425 0 0 .8165 .01 0)"></path>
</svg>
