<svg xmlns="http://www.w3.org/2000/svg" xmlns:xlink="http://www.w3.org/1999/xlink" width="66" height="90" viewBox="0 0 66 90">
  <defs>
    <polygon id="cybersecurity_award_2020_winner_gold-a" points=".011 .024 .011 15.934 63.752 15.934 63.752 15.934 63.752 .024 63.752 .024"/>
  </defs>
  <g fill="none" fill-rule="evenodd">
    <path fill="#41423C" d="M65.1359903 82.5363799L42.2505195 87.7865016C36.1196347 89.1931169 29.7493831 89.1889773 23.6203247 87.7743263L.92137987 82.5363799.92137987 1.08540584 65.1359903 1.08540584 65.1359903 82.5363799zM65.2142289 74.6509578C65.2142289 74.5137419 65.1997403 72.6745373 65.1886607 72.5389042"/>
    <path fill="#41423C" d="M65.1886607,72.5389407 L65.1886607,0.909801136 L1.00826299,0.909801136 L1.00826299,72.718892 C1.0048539,72.7947443 0.993774351,74.5742898 0.993774351,74.6509943"/>
    <polygon fill="#FFFFFE" points="1.237 38.362 64.945 38.362 64.945 1.102 1.237 1.102"/>
    <polygon fill="#41423C" points="1.172 59.504 64.945 59.504 64.945 31.926 1.172 31.926"/>
    <path fill="#41423C" d="M12.983267,10.9547484 C12.983267,9.09375 12.5867167,8.28810877 11.359444,8.28810877 C9.98119724,8.28810877 9.65989042,9.59476461 9.65989042,13.2094968 C9.65989042,17.0746753 10.2262865,17.7720779 11.3973093,17.7720779 C12.3790057,17.7720779 13.0964976,17.2893263 13.0964976,14.5336851 L15.8156128,14.5336851 C15.8156128,17.2893263 15.0981209,19.6688718 11.5292898,19.6688718 C7.45055601,19.6688718 6.94077516,16.9131088 6.94077516,13.0305195 C6.94077516,9.14695617 7.45055601,6.39131494 11.5292898,6.39131494 C15.4194278,6.39131494 15.7023823,9.09375 15.7023823,10.9547484 L12.983267,10.9547484 Z"/>
    <polygon fill="#41423C" points="20.478 6.642 22.253 11.581 22.29 11.581 24.179 6.642 27.124 6.642 23.631 14.391 23.631 19.418 20.912 19.418 20.912 14.391 17.419 6.642"/>
    <path fill="#41423C" d="M31.7861201,17.5215706 L32.8435471,17.5215706 C34.1465503,17.5215706 35.0337662,17.0746144 35.0337662,15.5889813 C35.0337662,14.1042005 34.1465503,13.674655 32.9567776,13.674655 L31.7861201,13.674655 L31.7861201,17.5215706 Z M31.7861201,11.8852476 L32.5601055,11.8852476 C34.0520698,11.8852476 34.7315747,11.4016437 34.7315747,10.2032265 C34.7315747,8.98630276 34.1086851,8.53861607 32.7678166,8.53861607 L31.7861201,8.53861607 L31.7861201,11.8852476 Z M29.0670049,6.64182224 L33.6175325,6.64182224 C35.8456169,6.64182224 37.4506899,7.42907873 37.4506899,9.88106737 C37.4506899,11.2585836 36.7520698,12.3146713 35.4115666,12.6726258 L35.4115666,12.7084213 C36.9030438,12.9048093 37.8664773,13.9784294 37.8664773,15.6788352 C37.8664773,17.6830154 36.8278003,19.4183644 33.6555195,19.4183644 L29.0670049,19.4183644 L29.0670049,6.64182224 Z"/>
    <polygon fill="#41423C" points="48.042 6.642 48.042 8.753 43.227 8.753 43.227 11.76 47.759 11.76 47.759 13.871 43.227 13.871 43.227 17.307 48.231 17.307 48.231 19.418 40.508 19.418 40.508 6.642"/>
    <path fill="#41423C" d="M53.2514976 12.2248295L54.3842898 12.2248295C55.6871713 12.2248295 56.4237784 11.6880195 56.4237784 10.3105032 56.4237784 9.12949675 55.7629018 8.53862825 54.5352638 8.53862825L53.2514976 8.53862825 53.2514976 12.2248295zM50.5323823 6.64183442L55.5553125 6.64183442C57.7833969 6.64183442 59.1428937 7.75125 59.1428937 9.93440747 59.1428937 11.6346916 58.4250365 12.7800244 56.895694 13.0837987L56.895694 13.1195942C58.7463433 13.3526299 59.0292979 14.3188636 59.0671631 17.0205682 59.0862784 18.3630195 59.1616437 19.0605438 59.6714245 19.3109903L59.6714245 19.4183766 56.72597 19.4183766C56.4616437 19.0605438 56.4046631 18.5777922 56.3859131 18.0766558L56.3101826 15.624789C56.2726826 14.622638 55.8004018 14.014237 54.7054748 14.014237L53.2514976 14.014237 53.2514976 19.4183766 50.5323823 19.4183766 50.5323823 6.64183442zM8.39565341 27.377642L8.39565341 27.6314976C8.39565341 28.4412784 8.63782062 28.9606778 9.60624594 28.9606778 10.1671631 28.9606778 10.7023904 28.6219602 10.7023904 27.8970414 10.7023904 27.1120982 10.2816112 26.8224472 9.07101867 26.4238271 7.43976867 25.8920089 6.68782062 25.2519521 6.68782062 23.8138028 6.68782062 22.1342167 7.77105925 21.2769521 9.50421672 21.2769521 11.1355885 21.2769521 12.3207346 21.9411161 12.3207346 23.5964732L12.3207346 23.8379099 10.5621307 23.8379099C10.5621307 23.0288596 10.2691924 22.5577963 9.56789367 22.5577963 8.73984984 22.5577963 8.52300731 23.0529667 8.52300731 23.5599472 8.52300731 24.0917654 8.68859172 24.4179424 9.4659862 24.7318222L10.8808807 25.3118547C12.2570576 25.8794683 12.6141599 26.5444846 12.6141599 27.5957021 12.6141599 29.4193222 11.4414326 30.2407914 9.45344562 30.2407914 7.37609172 30.2407914 6.56046672 29.3227719 6.56046672 27.7280479L6.56046672 27.377642 8.39565341 27.377642z"/>
    <polygon fill="#41423C" points="19.113 21.446 19.113 22.872 15.863 22.872 15.863 24.902 18.922 24.902 18.922 26.326 15.863 26.326 15.863 28.646 19.24 28.646 19.24 30.072 14.028 30.072 14.028 21.446"/>
    <path fill="#41423C" d="M24.4906169 24.3572362C24.4906169 23.1013515 24.2230032 22.557845 23.3944724 22.557845 22.4639123 22.557845 22.2475568 23.4392167 22.2475568 25.879517 22.2475568 28.4895414 22.6299838 28.9607265 23.4199188 28.9607265 24.0827435 28.9607265 24.5671997 28.6344278 24.5671997 26.7734294L26.4023864 26.7734294C26.4023864 28.6344278 25.9180519 30.2407183 23.5092857 30.2407183 20.7565666 30.2407183 20.4123701 28.3805722 20.4123701 25.7588596 20.4123701 23.1371469 20.7565666 21.2768791 23.5092857 21.2768791 26.1344075 21.2768791 26.3258036 23.1013515 26.3258036 24.3572362L24.4906169 24.3572362zM29.6641802 21.4458604L29.6641802 27.4625406C29.6641802 28.3198052 29.8805357 28.9607143 30.734513 28.9607143 31.5884903 28.9607143 31.805211 28.3198052 31.805211 27.4625406L31.805211 21.4458604 33.6405195 21.4458604 33.6405195 27.4625406C33.6405195 29.661526 32.225625 30.2407062 30.734513 30.2407062 29.243401 30.2407062 27.8289935 29.7696429 27.8289935 27.4625406L27.8289935 21.4458604 29.6641802 21.4458604zM37.1823214 25.2153409L37.9471753 25.2153409C38.8264773 25.2153409 39.3233523 24.8532468 39.3233523 23.9228084 39.3233523 23.1254464 38.8772484 22.7268263 38.0492045 22.7268263L37.1823214 22.7268263 37.1823214 25.2153409zM35.3471347 21.4458604L38.7371104 21.4458604C40.2410065 21.4458604 41.1586607 22.1948864 41.1586607 23.6689529 41.1586607 24.8167208 40.6746916 25.5898539 39.642224 25.7954951L39.642224 25.8196023C40.8910471 25.9760552 41.0824432 26.6285308 41.1078896 28.4530032 41.1203084 29.3593344 41.1715666 29.8303977 41.5156412 29.9993912L41.5156412 30.0718344 39.527289 30.0718344C39.3487987 29.8303977 39.3109334 29.5042208 39.2980276 29.1662338L39.2472565 27.5108766C39.2214448 26.8341721 38.9030601 26.4238636 38.1636526 26.4238636L37.1823214 26.4238636 37.1823214 30.0718344 35.3471347 30.0718344 35.3471347 21.4458604z"/>
    <polygon fill="#41423C" points="42.981 30.072 44.816 30.072 44.816 21.446 42.981 21.446"/>
    <polygon fill="#41423C" points="52.004 21.446 52.004 22.872 50.016 22.872 50.016 30.072 48.18 30.072 48.18 22.872 46.192 22.872 46.192 21.446"/>
    <polygon fill="#41423C" points="55.1 21.446 56.298 24.78 56.323 24.78 57.598 21.446 59.586 21.446 57.228 26.677 57.228 30.072 55.393 30.072 55.393 26.677 53.035 21.446"/>
    <polygon fill="#FFFFFE" points="7.374 35.173 11.374 35.173 11.374 36.168 8.555 36.168 8.555 38.22 11.209 38.22 11.209 39.215 8.555 39.215 8.555 41.578 11.458 41.578 11.458 42.573 7.374 42.573"/>
    <polygon fill="#FFFFFE" points="14.19 38.811 12.407 35.173 13.713 35.173 14.895 37.629 16.055 35.173 17.33 35.173 15.537 38.811 17.424 42.573 16.118 42.573 14.833 39.899 13.516 42.573 12.241 42.573"/>
    <path fill="#FFFFFE" d="M22.6021388,39.9195414 L22.6021388,40.075142 C22.6021388,41.4118709 22.0632589,42.7185268 20.3220657,42.7185268 C18.4564407,42.7185268 17.8759213,41.5158482 17.8759213,38.8724635 C17.8759213,36.229931 18.4564407,35.0272524 20.3324148,35.0272524 C22.4365544,35.0272524 22.5609862,36.5820414 22.5609862,37.3494521 L22.5609862,37.484233 L21.3791274,37.484233 L21.3791274,37.3594359 C21.3791274,36.6753044 21.1717817,35.8879261 20.3220657,35.9187297 C19.45153,35.9187297 19.0574148,36.4579748 19.0574148,38.8416599 C19.0574148,41.2254667 19.45153,41.8271713 20.3220657,41.8271713 C21.3066843,41.8271713 21.4206453,40.7285917 21.4206453,40.0443385 L21.4206453,39.9195414 L22.6021388,39.9195414 Z"/>
    <polygon fill="#FFFFFE" points="23.71 35.173 27.711 35.173 27.711 36.168 24.892 36.168 24.892 38.22 27.545 38.22 27.545 39.215 24.892 39.215 24.892 41.578 27.794 41.578 27.794 42.573 23.71 42.573"/>
    <polygon fill="#FFFFFE" points="28.816 35.173 29.998 35.173 29.998 41.578 32.858 41.578 32.858 42.573 28.816 42.573"/>
    <polygon fill="#FFFFFE" points="33.777 35.173 34.958 35.173 34.958 41.578 37.819 41.578 37.819 42.573 33.777 42.573"/>
    <polygon fill="#FFFFFE" points="38.805 35.173 42.806 35.173 42.806 36.168 39.987 36.168 39.987 38.22 42.64 38.22 42.64 39.215 39.987 39.215 39.987 41.578 42.889 41.578 42.889 42.573 38.805 42.573"/>
    <polygon fill="#FFFFFE" points="43.979 35.173 45.419 35.173 47.565 40.687 47.586 40.687 47.586 35.173 48.705 35.173 48.705 42.573 47.264 42.573 45.119 36.914 45.098 36.914 45.098 42.573 43.979 42.573"/>
    <path fill="#FFFFFE" d="M54.7055114,39.9195414 L54.7055114,40.075142 C54.7055114,41.4118709 54.1666315,42.7185268 52.4253166,42.7185268 C50.5598133,42.7185268 49.9792938,41.5158482 49.9792938,38.8724635 C49.9792938,36.229931 50.5598133,35.0272524 52.4357873,35.0272524 C54.5399269,35.0272524 54.6643588,36.5820414 54.6643588,37.3494521 L54.6643588,37.484233 L53.4825,37.484233 L53.4825,37.3594359 C53.4825,36.6753044 53.2751542,35.8879261 52.4253166,35.9187297 C51.5549026,35.9187297 51.1607873,36.4579748 51.1607873,38.8416599 C51.1607873,41.2254667 51.5549026,41.8271713 52.4253166,41.8271713 C53.4100568,41.8271713 53.5240179,40.7285917 53.5240179,40.0443385 L53.5240179,39.9195414 L54.7055114,39.9195414 Z"/>
    <polygon fill="#FFFFFE" points="55.814 35.173 59.814 35.173 59.814 36.168 56.996 36.168 56.996 38.22 59.649 38.22 59.649 39.215 56.996 39.215 56.996 41.578 59.898 41.578 59.898 42.573 55.814 42.573"/>
    <path fill="#FFFFFE" d="M16.9857955,49.1913312 L16.1355925,45.5425081 L16.1147727,45.5425081 L15.2337662,49.1913312 L16.9857955,49.1913312 Z M15.4103084,44.5479058 L16.923336,44.5479058 L18.8717532,51.9479464 L17.6387581,51.9479464 L17.1826705,50.1343101 L15.0161932,50.1343101 L14.539651,51.9479464 L13.3061688,51.9479464 L15.4103084,44.5479058 Z"/>
    <polygon fill="#FFFFFE" points="19.682 44.548 20.874 44.548 21.848 50.3 21.869 50.3 22.843 44.548 24.087 44.548 25.082 50.332 25.103 50.332 26.067 44.548 27.238 44.548 25.766 51.948 24.398 51.948 23.444 46.372 23.424 46.372 22.481 51.948 21.112 51.948"/>
    <path fill="#FFFFFE" d="M31.6999797 49.1913312L30.8497768 45.5425081 30.828957 45.5425081 29.9479505 49.1913312 31.6999797 49.1913312zM30.1244927 44.5479058L31.6375203 44.5479058 33.5859375 51.9479464 32.3529424 51.9479464 31.8968547 50.1343101 29.7303774 50.1343101 29.2538352 51.9479464 28.0203531 51.9479464 30.1244927 44.5479058zM37.437358 47.8438393C38.1940544 47.8438393 38.6192167 47.3877516 38.6192167 46.6411607 38.6192167 45.8537825 38.2770901 45.4393344 37.4999391 45.4393344L36.4945008 45.4393344 36.4945008 47.8438393 37.437358 47.8438393zM35.312642 44.5479789L37.9246144 44.5479789C38.9609781 44.5479789 39.8007102 45.0656737 39.8007102 46.4547565 39.8007102 47.4085714 39.3759131 48.1443263 38.5672281 48.2682711L38.5672281 48.2890909C39.302983 48.3615341 39.6867492 48.7659984 39.728267 49.8022403 39.7382508 50.2791477 39.7485998 50.8600325 39.7694196 51.3054058 39.7902394 51.6682305 39.9662946 51.844651 40.122017 51.9478977L38.7848011 51.9478977C38.6709619 51.8131169 38.6192167 51.5850731 38.5880479 51.2954221 38.5464083 50.8493182 38.5567573 50.4347484 38.5359375 49.8962338 38.5156047 49.0873052 38.2667411 48.7351948 37.4582995 48.7351948L36.4945008 48.7351948 36.4945008 51.9478977 35.312642 51.9478977 35.312642 44.5479789zM43.1490706 51.0565057L44.1232183 51.0565057C45.0974878 51.0565057 45.5019521 50.4140138 45.5019521 48.2475365 45.5019521 46.1642167 45.1494765 45.4392979 44.1232183 45.4392979L43.1490706 45.4392979 43.1490706 51.0565057zM41.9672119 44.5479424L44.0712297 44.5479424C46.3929424 44.5479424 46.6834456 46.0610917 46.6834456 48.2475365 46.6834456 50.4348336 46.3929424 51.9478612 44.0712297 51.9478612L41.9672119 51.9478612 41.9672119 44.5479424zM49.6947321 49.6574148L49.6947321 49.843819C49.6947321 50.7460106 50.0887256 51.20222 50.9073945 51.20222 51.6534984 51.20222 52.0266721 50.6736891 52.0266721 50.1234862 52.0266721 49.346944 51.6331656 49.0049391 50.9698539 48.8076989L50.1611688 48.5280317C49.0834091 48.1134619 48.6167289 47.5533969 48.6167289 46.4963352 48.6167289 45.148892 49.5291477 44.4023011 50.9177435 44.4023011 52.8146591 44.4023011 53.0112906 45.5841599 53.0112906 46.3515706L53.0112906 46.517155 51.8299188 46.517155 51.8299188 46.3615544C51.8299188 45.6881372 51.5294318 45.2936567 50.7931899 45.2936567 50.2857224 45.2936567 49.7983442 45.5741761 49.7983442 46.3615544 49.7983442 46.9940625 50.1195292 47.3153693 50.9073945 47.6157346L51.7056088 47.9062378C52.7524432 48.279168 53.2081656 48.8492167 53.2081656 49.8646388 53.2081656 51.4402476 52.2547159 52.0935755 50.7626299 52.0935755 48.9276867 52.0935755 48.5132386 50.8700771 48.5132386 49.8338352L48.5132386 49.6574148 49.6947321 49.6574148z"/>
    <g transform="translate(1.193 57.906)">
      <mask id="cybersecurity_award_2020_winner_gold-b" fill="#fff">
        <use xlink:href="#cybersecurity_award_2020_winner_gold-a"/>
      </mask>
      <polygon points=".011 .024 .011 15.934 63.752 15.934 63.752 15.934 63.752 .024 63.752 .024" mask="url(#cybersecurity_award_2020_winner_gold-b)"/>
    </g>
    <g transform="translate(.768 1.031)">
      <polygon fill="#FFFFFE" points="6.572 61.968 7.325 64.17 9.763 64.17 7.79 65.53 8.544 67.73 6.572 66.37 4.6 67.73 5.353 65.53 3.381 64.17 5.818 64.17"/>
      <polygon fill="#FFFFFE" points="58.368 61.968 59.122 64.17 61.559 64.17 59.587 65.53 60.341 67.73 58.368 66.37 56.396 67.73 57.15 65.53 55.177 64.17 57.615 64.17"/>
      <polygon fill="#FFFFFE" points="15.064 61.444 16.337 61.444 17.065 66.312 17.084 66.312 17.858 61.444 19.131 61.444 19.905 66.312 19.924 66.312 20.652 61.444 21.924 61.444 20.726 68.027 19.241 68.027 18.504 63.251 18.485 63.251 17.748 68.027 16.263 68.027"/>
      <polygon fill="#FFFFFE" points="23.62 68.027 24.948 68.027 24.948 61.444 23.62 61.444"/>
      <polygon fill="#FFFFFE" points="28.562 61.444 30.166 65.952 30.185 65.952 30.185 61.444 31.402 61.444 31.402 68.027 29.89 68.027 28.267 63.417 28.248 63.417 28.248 68.027 27.032 68.027 27.032 61.444"/>
      <polygon fill="#FFFFFE" points="34.951 61.444 36.556 65.952 36.574 65.952 36.574 61.444 37.791 61.444 37.791 68.027 36.279 68.027 34.656 63.417 34.638 63.417 34.638 68.027 33.421 68.027 33.421 61.444"/>
      <polygon fill="#FFFFFE" points="43.489 61.444 43.489 62.532 41.137 62.532 41.137 64.08 43.35 64.08 43.35 65.169 41.137 65.169 41.137 66.94 43.581 66.94 43.581 68.027 39.81 68.027 39.81 61.444"/>
      <path fill="#FFFFFE" d="M46.6688676,64.3202283 L47.2223579,64.3202283 C47.8582751,64.3202283 48.2181777,64.0438485 48.2181777,63.3339053 C48.2181777,62.7255043 47.8952881,62.4208777 47.2960186,62.4208777 L46.6688676,62.4208777 L46.6688676,64.3202283 Z M45.341392,61.4438079 L47.7937459,61.4438079 C48.8819764,61.4438079 49.5456533,62.0155611 49.5456533,63.1400741 C49.5456533,64.016454 49.1952475,64.606592 48.4482913,64.7630449 L48.4482913,64.7813079 C49.3521874,64.9011131 49.4903774,65.3988404 49.5086403,66.7913322 C49.5182589,67.4830124 49.5549066,67.8425498 49.8037702,67.9714865 L49.8037702,68.0272494 L48.3654991,68.0272494 C48.2364407,67.8425498 48.2085592,67.5936861 48.1994277,67.335691 L48.1629017,66.0722576 C48.1441517,65.5561456 47.9135511,65.2423874 47.3788108,65.2423874 L46.6688676,65.2423874 L46.6688676,68.0272494 L45.341392,68.0272494 L45.341392,61.4438079 Z"/>
      <path fill="#1E1D19" fill-rule="nonzero" d="M64.3677962,-0.476251838 L0.1531858,-0.476251838 C-0.139889834,-0.476251838 -0.377474577,-0.238667094 -0.377474577,0.0544085396 L-0.377474577,81.5053826 C-0.377474577,81.75249 -0.206912296,81.966893 0.0338676436,82.0224547 L22.7328124,87.2604011 C28.9401089,88.6931103 35.3917444,88.6973205 41.6009922,87.2727263 L64.4864519,82.0226071 C64.7275506,81.967297 64.8984566,81.7527442 64.8984566,81.5053826 L64.8984566,0.0544085396 C64.8984566,-0.238667094 64.6608718,-0.476251838 64.3677962,-0.476251838 Z M63.8371294,0.585040431 L63.8371294,81.0826819 L41.3636697,86.2382797 L41.1277353,86.2916785 C35.1477537,87.6265946 28.9436123,87.6046948 22.9714749,86.2262629 L0.683692722,81.0832884 L0.683692722,0.585040431 L63.8371294,0.585040431 Z"/>
      <path fill="#FFFFFE" d="M26.6878449 82.8019816L23.2536728 82.8019816C23.2536728 81.8095709 23.6555803 81.1245871 24.4824066 80.3602202L24.9393465 79.9349361C25.4352475 79.4862754 25.5221793 79.2341244 25.5221793 78.6589621 25.5221793 78.1944735 25.3254261 77.9658209 24.9707589 77.9658209 24.4036322 77.9658209 24.3487215 78.4618436 24.3406858 79.0527121L23.2536728 79.0527121 23.2536728 78.8398874C23.2536728 77.8082722 23.7969358 77.2254394 24.986465 77.2254394 26.1050121 77.2254394 26.6563108 77.7848956 26.6563108 78.7454069 26.6563108 79.4700822 26.4281452 79.9426066 25.7899147 80.5177689L25.1598416 81.1006017C24.8290381 81.3998712 24.6399553 81.7069329 24.5846793 81.9197576L26.6878449 81.9197576 26.6878449 82.8019816zM29.0664894 80.4467016C29.0664894 81.8491772 29.192504 82.1718233 29.6808563 82.1718233 30.177366 82.1718233 30.2952231 81.7308331 30.2952231 80.2971886L30.2952231 79.6904921C30.2952231 78.2889905 30.1692085 77.9658574 29.6808563 77.9658574 29.1844683 77.9658574 29.0664894 78.4068477 29.0664894 79.8404921L29.0664894 80.4467016zM29.6808563 77.2254759C31.0279342 77.2254759 31.4294764 77.9578217 31.4294764 79.9349727 31.4294764 81.4863525 31.3430316 82.9122048 29.6808563 82.9122048 28.3337783 82.9122048 27.9323579 82.1794938 27.9323579 80.2027081 27.9323579 78.6588769 28.0188027 77.2254759 29.6808563 77.2254759L29.6808563 77.2254759zM36.0445941 82.8019816L32.6105438 82.8019816C32.6105438 81.8095709 33.0119642 81.1245871 33.8392775 80.3602202L34.2960957 79.9349361C34.7924837 79.4862754 34.8789285 79.2341244 34.8789285 78.6589621 34.8789285 78.1944735 34.68181 77.9658209 34.327508 77.9658209 33.7603814 77.9658209 33.7051054 78.4618436 33.697435 79.0527121L32.6105438 79.0527121 32.6105438 78.8398874C32.6105438 77.8082722 33.154172 77.2254394 34.3432142 77.2254394 35.4617613 77.2254394 36.01306 77.7848956 36.01306 78.7454069 36.01306 79.4700822 35.7844074 79.9426066 35.1466639 80.5177689L34.5165908 81.1006017C34.1856655 81.3998712 33.9968262 81.7069329 33.9417938 81.9197576L36.0445941 81.9197576 36.0445941 82.8019816zM38.4232994 80.4467016C38.4232994 81.8491772 38.549314 82.1718233 39.0376663 82.1718233 39.5335673 82.1718233 39.6520332 81.7308331 39.6520332 80.2971886L39.6520332 79.6904921C39.6520332 78.2889905 39.5260186 77.9658574 39.0376663 77.9658574 38.5416436 77.9658574 38.4232994 78.4068477 38.4232994 79.8404921L38.4232994 80.4467016zM39.0376663 77.2254759C40.3842572 77.2254759 40.7861647 77.9578217 40.7861647 79.9349727 40.7861647 81.4863525 40.6993546 82.9122048 39.0376663 82.9122048 37.6909537 82.9122048 37.2891679 82.1794938 37.2891679 80.2027081 37.2891679 78.6588769 37.3758563 77.2254759 39.0376663 77.2254759L39.0376663 77.2254759z"/>
    </g>
  </g>
</svg>
