<svg xmlns="http://www.w3.org/2000/svg" xmlns:xlink="http://www.w3.org/1999/xlink" width="335" height="335" viewBox="0 0 335 335">
  <defs>
    <path id="data-exfiltration@1x-a" d="M0.028,2.062 C0.028,0.705 0.829,0.077 1.816,0.658 C9.711,5.307 41.421,23.976 49.316,28.625 C50.303,29.206 51.103,30.776 51.103,32.132 L51.103,72.648 C51.103,74.0041 50.303,74.6324 49.316,74.0513 C41.421,69.4029 9.711,50.733 1.816,46.085 C0.829,45.504 0.028,43.933 0.028,42.577"/>
    <path id="data-exfiltration@1x-c" d="M0.6912,28.7 C0.6912,28.017 1.1609,27.362 1.9969,26.879 C11.0526,21.648 37.073,6.618 46.1287,1.387 C46.9648,0.904 48.0987,0.633 49.281,0.633 C50.4633,0.633 51.5972,0.904 52.4333,1.387 C61.489,6.618 87.509,21.648 96.565,26.879 C97.401,27.362 97.871,28.017 97.871,28.7 L97.871,122.1557 C97.871,122.8387 97.401,123.4937 96.565,123.9766 C87.509,129.2074 61.489,144.2376 52.4333,149.4685 C51.5972,149.9514 50.4633,150.2227 49.281,150.2227 C48.0987,150.2227 46.9648,149.9514 46.1287,149.4685 C37.073,144.2376 11.0526,129.2074 1.9969,123.9766 C1.1611,123.4938 0.6912,122.839 0.6912,122.1557 L0.6912,28.7 Z"/>
    <path id="data-exfiltration@1x-e" d="M23.626,1.1741 C22.737,0.6605 21.641,0.6605 20.751,1.1741 C16.619,3.5598 4.745,10.4152 0.687,12.7579 C0.403,12.9221 0.228,13.2256 0.228,13.554 C0.228,13.8823 0.403,14.1858 0.687,14.35 C4.185,16.3693 13.377,21.6765 16.938,23.7322 C17.827,24.2458 18.923,24.2458 19.813,23.7322 C23.638,21.524 34.095,15.4866 38.847,12.7426 C39.344,12.4558 39.65,11.9259 39.65,11.3523 C39.65,10.7788 39.344,10.2488 38.847,9.962"/>
    <path id="data-exfiltration@1x-g" d="M0.715,9.9576 C0.367,10.1588 0.152,10.5306 0.152,10.9329 C0.152,11.3353 0.367,11.7071 0.715,11.9083 C5.012,14.3892 16.307,20.9102 20.399,23.2725 C21.331,23.8111 22.481,23.8111 23.414,23.2725 C26.92,21.248 35.605,16.2337 39.284,14.11 C39.632,13.9088 39.847,13.537 39.847,13.1346 C39.847,12.7322 39.632,12.3604 39.284,12.1592 C34.986,9.6783 23.692,3.1573 19.6,0.795 C18.667,0.2565 17.518,0.2565 16.585,0.795"/>
    <polygon id="data-exfiltration@1x-i" points="17.614 .694 .306 10.686 .306 23.896 23.336 37.192 50.03 21.781"/>
  </defs>
  <g fill="none" fill-rule="evenodd" transform="translate(14 64)">
    <path fill="#EFF4F7" d="M220.684,87.032 C218.828,85.96 216.54,85.96 214.684,87.032 C204.687,92.803 172.466,111.4062 160.533,118.2958 C159.604,118.8317 159.033,119.8221 159.033,120.8939 C159.033,121.9657 159.604,122.9561 160.533,123.492 C174.846,131.7557 219.081,157.2947 231.028,164.1922 C232.884,165.264 235.171,165.264 237.028,164.1922 C247.025,158.4203 279.246,139.8175 291.179,132.9279 C292.107,132.392 292.679,131.4016 292.679,130.3298 C292.679,129.258 292.107,128.2676 291.179,127.7317 C276.866,119.468 232.631,93.929 220.684,87.032 Z"/>
    <path fill="#B1BBC9" d="M213.833,95.81 C215.152,95.034 217.137,94.944 218.267,95.609 C227.309,100.932 273.418,126.1351 273.418,126.1351 C273.418,126.1351 273.427,128.348 273.418,128.777 C273.408,129.2865 273.036,129.8236 272.32,130.2451 C264.636,134.7692 240.603,148.9187 232.919,153.4429 C231.6,154.2193 229.615,154.3093 228.485,153.6439 C219.443,148.3208 183.622,127.2304 174.581,121.9074 C172.519,120.6935 173.334,118.5525 173.334,118.5525 C173.334,118.5525 206.149,100.334 213.833,95.81 Z"/>
    <path stroke="#01050C" stroke-linecap="round" stroke-linejoin="round" d="M213.833,95.81 C215.152,95.034 217.137,94.944 218.267,95.609 C227.309,100.932 273.418,126.1351 273.418,126.1351 C273.418,126.1351 273.427,128.348 273.418,128.777 C273.408,129.2865 273.036,129.8236 272.32,130.2451 C264.636,134.7692 240.603,148.9187 232.919,153.4429 C231.6,154.2193 229.615,154.3093 228.485,153.6439 C219.443,148.3208 183.622,127.2304 174.581,121.9074 C172.519,120.6935 173.334,118.5525 173.334,118.5525 C173.334,118.5525 206.149,100.334 213.833,95.81 Z"/>
    <path fill="#3F6C9F" fill-opacity=".2" d="M230.285,154.0578 C230.285,154.0578 232.197,154.1027 234.147,154.1485 C236.824,154.2113 239.464,153.5146 241.761,152.1389 C250.037,147.1828 270.592,134.8733 277.827,130.5406 C278.365,130.2188 278.693,129.6371 278.689036,129.0107 C278.686,128.3842 278.353,127.8059 277.812,127.4894 C270.028,122.9337 247.342,109.6556 247.342,109.6556 L230.285,108.5479 L230.285,154.0578 Z"/>
    <path fill="#FFF" d="M213.833,92.949 C215.152,92.173 217.137,92.083 218.267,92.748 C227.309,98.071 263.62,119.4499 272.661,124.773 C273.792,125.4384 273.639,126.6073 272.32,127.3838 C264.636,131.9079 240.603,146.0574 232.919,150.5815 C231.6,151.358 229.615,151.448 228.485,150.7826 C219.443,145.4595 183.132,124.0806 174.091,118.7576 C172.96,118.0921 173.113,116.9232 174.432,116.1467 C182.116,111.6226 206.149,97.473 213.833,92.949 Z"/>
    <path stroke="#01050C" stroke-linecap="round" stroke-linejoin="round" d="M213.833,92.949 C215.152,92.173 217.137,92.083 218.267,92.748 C227.309,98.071 263.62,119.4499 272.661,124.773 C273.792,125.4384 273.639,126.6073 272.32,127.3838 C264.636,131.9079 240.603,146.0574 232.919,150.5815 C231.6,151.358 229.615,151.448 228.485,150.7826 C219.443,145.4595 183.132,124.0806 174.091,118.7576 C172.96,118.0921 173.113,116.9232 174.432,116.1467 C182.116,111.6226 206.149,97.473 213.833,92.949 Z"/>
    <path fill="#EFF4F7" d="M213.703,98.063 C214.321,97.699 215.586,97.855 216.53,98.41 C224.081,102.856 254.405,120.7098 261.956,125.1551 C262.9,125.7109 263.164,126.4561 262.546,126.8198 C258.948,128.9384 247.693,135.5646 244.095,137.6833 C243.477,138.0469 242.212,137.8912 241.268,137.3354 C233.717,132.8901 203.393,115.0361 195.842,110.5908 C194.898,110.0351 194.634,109.2898 195.252,108.9261 C198.85,106.808 210.105,100.181 213.703,98.063 Z"/>
    <path stroke="#01050C" stroke-linecap="round" stroke-linejoin="round" d="M213.703,98.063 C214.321,97.699 215.586,97.855 216.53,98.41 C224.081,102.856 254.405,120.7098 261.956,125.1551 C262.9,125.7109 263.164,126.4561 262.546,126.8198 C258.948,128.9384 247.693,135.5646 244.095,137.6833 C243.477,138.0469 242.212,137.8912 241.268,137.3354 C233.717,132.8901 203.393,115.0361 195.842,110.5908 C194.898,110.0351 194.634,109.2898 195.252,108.9261 C198.85,106.808 210.105,100.181 213.703,98.063 Z"/>
    <path fill="#EFF4F7" d="M205.507,121.4257 C205.796,121.2554 206.307,121.2804 206.649,121.4815 C209.382,123.0904 220.357,129.552 223.089,131.1608 C223.431,131.362 223.473,131.6631 223.184,131.8333 C221.499,132.8255 216.228,135.9286 214.543,136.9207 C214.254,137.091 213.743,137.066 213.401,136.8649 C210.668,135.256 199.693,128.7944 196.961,127.1856 C196.619,126.9844 196.577,126.6833 196.866,126.5131 C198.551,125.5209 203.822,122.4178 205.507,121.4257 Z"/>
    <path stroke="#01050C" stroke-linecap="round" stroke-linejoin="round" d="M205.507,121.4257 C205.796,121.2554 206.307,121.2804 206.649,121.4815 C209.382,123.0904 220.357,129.552 223.089,131.1608 C223.431,131.362 223.473,131.6631 223.184,131.8333 C221.499,132.8255 216.228,135.9286 214.543,136.9207 C214.254,137.091 213.743,137.066 213.401,136.8649 C210.668,135.256 199.693,128.7944 196.961,127.1856 C196.619,126.9844 196.577,126.6833 196.866,126.5131 C198.551,125.5209 203.822,122.4178 205.507,121.4257 Z"/>
    <path fill="#EFF4F7" d="M275.507,123.1232 C275.977,122.8852 276.279,122.2686 276.279,121.3776 L276.279,74.982 C276.279,73.429 275.363,71.631 274.232,70.965 C265.191,65.642 228.88,44.263 219.839,38.94 C219.383,38.672 218.962,38.629 218.622,38.775 L218.614,38.77 L216.122,40.051 L217.792,42.497 L217.792,86.943 C217.792,88.496 218.708,90.294 219.839,90.96 L271.736,121.5148 L273.422,123.9843 L275.367,123.1812 C275.414,123.1656 275.46,123.1466 275.505,123.1242 L275.507,123.1232 Z"/>
    <path stroke="#01050C" stroke-linecap="round" stroke-linejoin="round" d="M275.507,123.1232 C275.977,122.8852 276.279,122.2686 276.279,121.3776 L276.279,74.982 C276.279,73.429 275.363,71.631 274.232,70.965 C265.191,65.642 228.88,44.263 219.839,38.94 C219.383,38.672 218.962,38.629 218.622,38.775 L218.614,38.77 L216.122,40.051 L217.792,42.497 L217.792,86.943 C217.792,88.496 218.708,90.294 219.839,90.96 L271.736,121.5148 L273.422,123.9843 L275.367,123.1812 C275.414,123.1656 275.46,123.1466 275.505,123.1242 L275.507,123.1232 Z"/>
    <path fill="#FFF" d="M215.322,41.807 C215.322,40.254 216.239,39.534 217.369,40.2 C226.41,45.523 262.722,66.902 271.763,72.225 C272.893,72.89 273.809,74.689 273.809,76.241 L273.809,122.6369 C273.809,124.1899 272.893,124.9093 271.763,124.2439 C262.722,118.9208 226.41,97.542 217.369,92.219 C216.239,91.553 215.322,89.755 215.322,88.202 L215.322,41.807 Z"/>
    <path stroke="#01050C" stroke-linecap="round" stroke-linejoin="round" d="M215.322,41.807 C215.322,40.254 216.239,39.534 217.369,40.2 C226.41,45.523 262.722,66.902 271.763,72.225 C272.893,72.89 273.809,74.689 273.809,76.241 L273.809,122.6369 C273.809,124.1899 272.893,124.9093 271.763,124.2439 C262.722,118.9208 226.41,97.542 217.369,92.219 C216.239,91.553 215.322,89.755 215.322,88.202 L215.322,41.807 Z"/>
    <path fill="#EFF4F7" d="M219.028,46.929 C219.028,45.572 219.829,44.944 220.816,45.525 C228.711,50.174 260.421,68.843 268.316,73.492 C269.303,74.073 270.103,75.643 270.103,76.999 L270.103,117.515 C270.103,118.8711 269.303,119.4994 268.316,118.9183 C260.421,114.2699 228.711,95.6 220.816,90.952 C219.829,90.371 219.028,88.8 219.028,87.444 L219.028,46.929 Z"/>
    <g transform="translate(219 44.867)">
      <mask id="data-exfiltration@1x-b" fill="#fff">
        <use xlink:href="#data-exfiltration@1x-a"/>
      </mask>
      <line x1="46.202" x2="42.162" y1="34.007" y2="31.675" stroke="#B1BBC9" stroke-linecap="round" stroke-linejoin="round" mask="url(#data-exfiltration@1x-b)"/>
      <line x1="38.123" x2="30.275" y1="29.343" y2="24.812" stroke="#B1BBC9" stroke-linecap="round" stroke-linejoin="round" mask="url(#data-exfiltration@1x-b)"/>
      <line x1="46.202" x2="38.123" y1="40.881" y2="36.217" stroke="#B1BBC9" stroke-linecap="round" stroke-linejoin="round" mask="url(#data-exfiltration@1x-b)"/>
      <line x1="46.202" x2="42.162" y1="47.755" y2="45.423" stroke="#B1BBC9" stroke-linecap="round" stroke-linejoin="round" mask="url(#data-exfiltration@1x-b)"/>
      <line x1="46.202" x2="38.123" y1="54.629" y2="49.965" stroke="#B1BBC9" stroke-linecap="round" stroke-linejoin="round" mask="url(#data-exfiltration@1x-b)"/>
      <line x1="46.202" x2="39.741" y1="61.503" y2="57.773" stroke="#B1BBC9" stroke-linecap="round" stroke-linejoin="round" mask="url(#data-exfiltration@1x-b)"/>
      <line x1="35.957" x2="32.27" y1="55.588" y2="53.46" stroke="#B1BBC9" stroke-linecap="round" stroke-linejoin="round" mask="url(#data-exfiltration@1x-b)"/>
      <line x1="8.416" x2="4.376" y1="14.287" y2="11.955" stroke="#B1BBC9" stroke-linecap="round" stroke-linejoin="round" mask="url(#data-exfiltration@1x-b)"/>
      <line x1="19.186" x2="12.455" y1="20.506" y2="16.62" stroke="#B1BBC9" stroke-linecap="round" stroke-linejoin="round" mask="url(#data-exfiltration@1x-b)"/>
      <line x1="12.455" x2="4.376" y1="22.716" y2="18.051" stroke="#B1BBC9" stroke-linecap="round" stroke-linejoin="round" mask="url(#data-exfiltration@1x-b)"/>
      <line x1="8.416" x2="4.376" y1="26.112" y2="23.78" stroke="#B1BBC9" stroke-linecap="round" stroke-linejoin="round" mask="url(#data-exfiltration@1x-b)"/>
      <line x1="10.434" x2="4.376" y1="33.978" y2="30.481" stroke="#B1BBC9" stroke-linecap="round" stroke-linejoin="round" mask="url(#data-exfiltration@1x-b)"/>
      <line x1="10.836" x2="4.376" y1="41.925" y2="38.195" stroke="#B1BBC9" stroke-linecap="round" stroke-linejoin="round" mask="url(#data-exfiltration@1x-b)"/>
      <line x1="14.921" x2="12.726" y1="44.284" y2="43.016" stroke="#B1BBC9" stroke-linecap="round" stroke-linejoin="round" mask="url(#data-exfiltration@1x-b)"/>
    </g>
    <path stroke="#01050C" stroke-linecap="round" stroke-linejoin="round" d="M219.028,46.929 C219.028,45.572 219.829,44.944 220.816,45.525 C228.711,50.174 260.421,68.843 268.316,73.492 C269.303,74.073 270.103,75.643 270.103,76.999 L270.103,117.515 C270.103,118.8711 269.303,119.4994 268.316,118.9183 C260.421,114.2699 228.711,95.6 220.816,90.952 C219.829,90.371 219.028,88.8 219.028,87.444 L219.028,46.929 Z"/>
    <path fill="#EFF4F7" d="M76.4655,80.014 C74.6091,78.942 72.322,78.942 70.4656,80.014 C58.6919,86.811 15.6015,111.6895 1.5,119.831 C0.5718,120.3669 0,121.3573 0,122.4291 C0,123.5009 0.5718,124.4913 1.5,125.0271 C15.8132,133.2909 60.048,158.8298 71.9949,165.7274 C73.8513,166.7992 76.1385,166.7992 77.9949,165.7274 C89.7685,158.9299 132.859,134.0516 146.96,125.9101 C147.889,125.3742 148.46,124.3838 148.46,123.312 C148.46,122.2402 147.889,121.2498 146.96,120.7139 C132.647,112.4502 88.4124,86.911 76.4655,80.014 Z"/>
    <path fill="#5A6D83" fill-opacity=".2" d="M68.5449,151.4773 C68.5449,151.4773 78.1363,151.6381 83.7817,151.7328 C86.4112,151.7769 89.0011,151.0884 91.2617,149.7444 C99.717,144.7173 121.445,131.7993 131.01,126.1129 C131.978,125.5373 132.57,124.4928 132.56602,123.3665 C132.562,122.2402 131.963,121.1998 130.991,120.6309 C121.713,115.2006 101.804,103.548 101.804,103.548 L68.5449,109.7307 L68.5449,151.4773 Z"/>
    <path fill="#FFF" d="M23.6912,29.567 C23.6912,28.884 24.1609,28.229 24.9969,27.746 C34.0526,22.515 60.073,7.485 69.1287,2.254 C69.9648,1.771 71.0987,1.5 72.281,1.5 C73.4633,1.5 74.5972,1.771 75.4333,2.254 C84.489,7.485 110.509,22.515 119.565,27.746 C120.401,28.229 120.871,28.884 120.871,29.567 L120.871,123.0227 C120.871,123.7057 120.401,124.3607 119.565,124.8436 C110.509,130.0744 84.489,145.1046 75.4333,150.3355 C74.5972,150.8184 73.4633,151.0897 72.281,151.0897 C71.0987,151.0897 69.9648,150.8184 69.1287,150.3355 C60.073,145.1046 34.0526,130.0744 24.9969,124.8436 C24.1611,124.3608 23.6912,123.706 23.6912,123.0227 L23.6912,29.567 Z"/>
    <g transform="translate(23 .867)">
      <mask id="data-exfiltration@1x-d" fill="#fff">
        <use xlink:href="#data-exfiltration@1x-c"/>
      </mask>
      <polygon fill="#EFF4F7" points="98.318 -19.081 49.281 7.576 49.281 196.201 98.318 169.544" mask="url(#data-exfiltration@1x-d)"/>
      <path stroke="#01050C" stroke-linecap="round" stroke-linejoin="round" d="M97.841,60.751 C97.841,61.434 97.371,62.089 96.535,62.572 C87.479,67.803 61.459,82.833 52.4033,88.064 C51.5672,88.547 50.4333,88.818 49.251,88.818 C48.0687,88.818 46.9348,88.547 46.0987,88.064 C37.043,82.833 11.0226,67.803 1.9669,62.572 C1.1309,62.089 0.6612,61.434 0.6612,60.751" mask="url(#data-exfiltration@1x-d)"/>
      <path fill="#01050C" d="M87.661 79.3C88.628 78.742 89.412 79.195 89.412 80.312 89.412 81.428 88.628 82.787 87.661 83.346 86.694 83.904 85.909 83.451 85.909 82.334 85.909 81.218 86.694 79.858 87.661 79.3zM25.2518 88.162C24.285 87.604 23.5 88.057 23.5 89.173 23.5 90.29 24.285 91.649 25.2518 92.208 26.2186 92.766 27.0035 92.313 27.0035 91.196 27.0035 90.08 26.2186 88.72 25.2518 88.162zM17.3778 83.616C16.411 83.058 15.6261 83.511 15.6261 84.627 15.6261 85.744 16.411 87.103 17.3778 87.662 18.3446 88.22 19.1296 87.767 19.1296 86.65 19.1296 85.534 18.3446 84.174 17.3778 83.616zM9.5039 79.07C8.5371 78.512 7.7522 78.965 7.7522 80.081 7.7522 81.198 8.5371 82.557 9.5039 83.116 10.4707 83.674 11.2556 83.221 11.2556 82.104 11.2556 80.988 10.4707 79.628 9.5039 79.07z" mask="url(#data-exfiltration@1x-d)"/>
      <line x1="59.436" x2="81.562" y1="97.009" y2="84.235" stroke="#01050C" stroke-linecap="round" stroke-linejoin="round" mask="url(#data-exfiltration@1x-d)"/>
      <path stroke="#01050C" stroke-linecap="round" stroke-linejoin="round" d="M97.841,90.653 C97.841,91.336 97.371,91.991 96.535,92.473 C87.479,97.704 61.459,112.7345 52.4033,117.9653 C51.5672,118.4483 50.4333,118.7196 49.251,118.7196 C48.0687,118.7196 46.9348,118.4483 46.0987,117.9653 C37.043,112.7345 11.0226,97.704 1.9669,92.473 C1.1309,91.991 0.6612,91.336 0.6612,90.653" mask="url(#data-exfiltration@1x-d)"/>
      <path fill="#01050C" d="M25.2518 118.0633C24.285 117.5051 23.5 117.9583 23.5 119.0747 23.5 120.191 24.285 121.5506 25.2518 122.1087 26.2186 122.6669 27.0035 122.2138 27.0035 121.0974 27.0035 119.981 26.2186 118.6215 25.2518 118.0633zM17.3778 113.5173C16.411 112.9591 15.6261 113.4123 15.6261 114.5287 15.6261 115.645 16.411 117.0045 17.3778 117.5627 18.3446 118.1209 19.1296 117.6677 19.1296 116.5514 19.1296 115.435 18.3446 114.0755 17.3778 113.5173zM9.5039 108.9713C8.5371 108.4131 7.7522 108.8663 7.7522 109.9827 7.7522 111.099 8.5371 112.4585 9.5039 113.0167 10.4707 113.5749 11.2556 113.1217 11.2556 112.0054 11.2556 110.889 10.4707 109.5295 9.5039 108.9713z" mask="url(#data-exfiltration@1x-d)"/>
      <path fill="#FFF" d="M52.4333,1.387 C51.5972,0.904 50.4633,0.633 49.281,0.633 C48.0987,0.633 46.9648,0.904 46.1287,1.387 C37.073,6.618 11.0526,21.648 1.9969,26.879 C1.1609,27.362 0.6912,28.017 0.6912,28.7 C0.6912,29.383 1.1609,30.038 1.9969,30.521 C11.0526,35.752 37.073,50.782 46.1287,56.013 C46.9648,56.496 48.0987,56.767 49.281,56.767 C50.4633,56.767 51.5972,56.496 52.4333,56.013 C61.489,50.782 87.509,35.752 96.565,30.521 C97.401,30.038 97.871,29.383 97.871,28.7 C97.871,28.017 97.401,27.362 96.565,26.879 C87.509,21.648 61.489,6.618 52.4333,1.387 Z" mask="url(#data-exfiltration@1x-d)"/>
      <path stroke="#01050C" stroke-linecap="round" stroke-linejoin="round" d="M52.4333,1.387 C51.5972,0.904 50.4633,0.633 49.281,0.633 C48.0987,0.633 46.9648,0.904 46.1287,1.387 C37.073,6.618 11.0526,21.648 1.9969,26.879 C1.1609,27.362 0.6912,28.017 0.6912,28.7 C0.6912,29.383 1.1609,30.038 1.9969,30.521 C11.0526,35.752 37.073,50.782 46.1287,56.013 C46.9648,56.496 48.0987,56.767 49.281,56.767 C50.4633,56.767 51.5972,56.496 52.4333,56.013 C61.489,50.782 87.509,35.752 96.565,30.521 C97.401,30.038 97.871,29.383 97.871,28.7 C97.871,28.017 97.401,27.362 96.565,26.879 C87.509,21.648 61.489,6.618 52.4333,1.387 Z" mask="url(#data-exfiltration@1x-d)"/>
    </g>
    <path stroke="#01050C" stroke-linecap="round" stroke-linejoin="round" d="M23.6912,29.567 C23.6912,28.884 24.1609,28.229 24.9969,27.746 C34.0526,22.515 60.073,7.485 69.1287,2.254 C69.9648,1.771 71.0987,1.5 72.281,1.5 C73.4633,1.5 74.5972,1.771 75.4333,2.254 C84.489,7.485 110.509,22.515 119.565,27.746 C120.401,28.229 120.871,28.884 120.871,29.567 L120.871,123.0227 C120.871,123.7057 120.401,124.3607 119.565,124.8436 C110.509,130.0744 84.489,145.1046 75.4333,150.3355 C74.5972,150.8184 73.4633,151.0897 72.281,151.0897 C71.0987,151.0897 69.9648,150.8184 69.1287,150.3355 C60.073,145.1046 34.0526,130.0744 24.9969,124.8436 C24.1611,124.3608 23.6912,123.706 23.6912,123.0227 L23.6912,29.567 Z"/>
    <path fill="#01050C" d="M48.2518 57.579C47.285 57.021 46.5 57.474 46.5 58.59 46.5 59.707 47.285 61.066 48.2518 61.624 49.2186 62.182 50.0035 61.729 50.0035 60.613 50.0035 59.497 49.2186 58.137 48.2518 57.579zM40.3778 53.033C39.411 52.475 38.6261 52.928 38.6261 54.044 38.6261 55.161 39.411 56.52 40.3778 57.078 41.3446 57.636 42.1296 57.183 42.1296 56.067 42.1296 54.951 41.3446 53.591 40.3778 53.033zM32.5039 48.487C31.5371 47.929 30.7522 48.382 30.7522 49.498 30.7522 50.615 31.5371 51.974 32.5039 52.532 33.4707 53.09 34.2556 52.637 34.2556 51.521 34.2556 50.405 33.4707 49.045 32.5039 48.487zM110.661 48.902C111.628 48.343 112.412 48.797 112.412 49.913 112.412 51.029 111.628 52.389 110.661 52.947 109.694 53.505 108.909 53.052 108.909 51.936 108.909 50.819 109.694 49.46 110.661 48.902z"/>
    <line x1="82.436" x2="104.562" y1="67.749" y2="54.975" stroke="#01050C" stroke-linecap="round" stroke-linejoin="round"/>
    <polygon fill="#3F6C9F" fill-opacity=".3" points="102.972 123.466 82.737 135.149 82.737 145.913 102.972 134.23"/>
    <polygon fill="#3F6C9F" points="113.244 104.579 82.737 122.192 82.737 135.402 113.244 117.789"/>
    <polygon stroke="#000" stroke-linecap="round" stroke-linejoin="round" points="113.244 104.579 82.737 122.192 82.737 135.402 113.244 117.789"/>
    <path fill="#FFF" d="M241.845,72.686 C236.447,69.569 232.064,72.1 232.064,78.333 C232.064,84.566 236.447,92.158 241.845,95.274 C247.243,98.391 251.626,95.861 251.626,89.627 C251.626,83.394 247.243,75.803 241.845,72.686 Z"/>
    <path stroke="#E01A33" stroke-linejoin="round" d="M241.845,72.686 C236.447,69.569 232.064,72.1 232.064,78.333 C232.064,84.566 236.447,92.158 241.845,95.274 C247.243,98.391 251.626,95.861 251.626,89.627 C251.626,83.394 247.243,75.803 241.845,72.686 Z"/>
    <path fill="#E01A33" d="M241.543 85.327C241.454 85.334 241.394 85.402 241.38 85.51 241.365 85.619 241.398 85.756 241.469 85.881 242.539 87.664 244.325 88.895 245.829 88.761 247.332 88.627 248.075 87.169 247.729 85.32 247.701 85.193 247.631 85.063 247.538 84.966 247.446 84.87 247.342 84.818 247.255 84.826 246.135 84.916 242.66 85.227 241.543 85.327zM239.215 84.143C239.306 84.005 239.306 83.826 239.215 83.688 238.692 82.894 236.902 80.188 236.149 79.05 236.083 78.95 235.966 78.895 235.847 78.909 235.728 78.923 235.627 79.002 235.586 79.115 235.095 80.722 235.241 83.042 236.695 84.72 236.883 84.933 237.154 85.056 237.439 85.058 238.437 85.111 238.838 84.717 239.215 84.143z"/>
    <path fill="#B1BBC9" fill-opacity=".2" d="M81.6426,135.9568 C81.6426,135.9568 136.628,167.7027 150.798,175.8836 C152.839,177.0621 155.354,177.0621 157.395,175.8836 C175.774,165.2728 264.707,113.9271 264.707,113.9271 L230.884,94.926 C230.884,94.926 173.245,128.2039 156.625,137.7993 C153.881,139.384 150.499,139.384 147.754,137.7993 C137.331,131.7814 112.15,117.2428 112.15,117.2428"/>
    <polygon fill="#3F6C9F" fill-opacity=".1" points="229.439 103.047 209.313 114.666 224.132 123.222 244.258 111.603"/>
    <polygon fill="#3F6C9F" fill-opacity=".1" points="200.972 101.582 188.31 108.892 205.778 118.978 218.441 111.667"/>
    <polygon fill="#3F6C9F" fill-opacity=".1" points="180.721 140.376 168.059 147.687 185.528 157.772 198.19 150.462"/>
    <polygon fill="#3F6C9F" fill-opacity=".1" points="101.113 135.304 88.451 142.614 105.919 152.7 118.582 145.389"/>
    <polygon fill="#3F6C9F" fill-opacity=".1" points="138.247 163.456 125.585 170.767 148.026 183.723 160.688 176.412"/>
    <polygon fill="#3F6C9F" fill-opacity=".1" points="125.585 149.153 112.923 156.463 135.364 169.419 148.026 162.109"/>
    <polygon fill="#3F6C9F" fill-opacity=".1" points="141.277 137.071 128.614 144.382 151.055 157.338 163.718 150.028"/>
    <polygon fill="#3F6C9F" fill-opacity=".2" points="213.354 133.847 203.375 139.609 220.844 149.694 230.823 143.933"/>
    <polygon fill="#3F6C9F" fill-opacity=".1" points="207.111 140.968 192.189 149.583 209.658 159.668 224.58 151.053"/>
    <path fill="#EFF4F7" d="M135.626,139.0411 C134.737,138.5275 133.641,138.5275 132.751,139.0411 C128.619,141.4268 116.745,148.2822 112.687,150.6249 C112.403,150.7891 112.228,151.0926 112.228,151.421 C112.228,151.7493 112.403,152.0528 112.687,152.217 C116.185,154.2363 125.377,159.5435 128.938,161.5992 C129.827,162.1128 130.923,162.1128 131.813,161.5992 C135.638,159.391 146.095,153.3536 150.847,150.6096 C151.344,150.3228 151.65,149.7929 151.65,149.2193 C151.65,148.6458 151.344,148.1158 150.847,147.829 C146.829,145.5092 138.879,140.9187 135.626,139.0411 Z"/>
    <g transform="translate(112 137.867)">
      <mask id="data-exfiltration@1x-f" fill="#fff">
        <use xlink:href="#data-exfiltration@1x-e"/>
      </mask>
      <line x1="20.264" x2="18.318" y1="10.852" y2="21.476" stroke="#000" stroke-linecap="round" stroke-linejoin="round" mask="url(#data-exfiltration@1x-f)"/>
      <line x1="20.485" x2="36.224" y1="10.979" y2="10.444" stroke="#000" stroke-linecap="round" stroke-linejoin="round" mask="url(#data-exfiltration@1x-f)"/>
      <path fill="#FFF" d="M2.341,15.3048 C2.341,15.3048 17.877,13.4099 21.892,12.9203 C22.446,12.8526 22.889,12.4248 22.975,11.8728 C23.391,9.201 24.559,1.7125 24.559,1.7125" mask="url(#data-exfiltration@1x-f)"/>
      <path stroke="#000" stroke-linecap="round" stroke-linejoin="round" d="M2.341,15.3048 C2.341,15.3048 17.877,13.4099 21.892,12.9203 C22.446,12.8526 22.889,12.4248 22.975,11.8728 C23.391,9.201 24.559,1.7125 24.559,1.7125" mask="url(#data-exfiltration@1x-f)"/>
      <polygon fill="#3F6C9F" fill-opacity=".2" points="23.465 -2.341 10.803 4.97 33.244 17.926 45.906 10.616" mask="url(#data-exfiltration@1x-f)"/>
    </g>
    <path stroke="#000" stroke-linecap="round" stroke-linejoin="round" d="M135.626,139.0411 C134.737,138.5275 133.641,138.5275 132.751,139.0411 C128.619,141.4268 116.745,148.2822 112.687,150.6249 C112.403,150.7891 112.228,151.0926 112.228,151.421 C112.228,151.7493 112.403,152.0528 112.687,152.217 C116.185,154.2363 125.377,159.5435 128.938,161.5992 C129.827,162.1128 130.923,162.1128 131.813,161.5992 C135.638,159.391 146.095,153.3536 150.847,150.6096 C151.344,150.3228 151.65,149.7929 151.65,149.2193 C151.65,148.6458 151.344,148.1158 150.847,147.829 C146.829,145.5092 138.879,140.9187 135.626,139.0411 Z"/>
    <path fill="#EFF4F7" d="M149.715,162.8246 C149.367,163.0258 149.152,163.3976 149.152,163.7999 C149.152,164.2023 149.367,164.5741 149.715,164.7753 C154.012,167.2562 165.307,173.7772 169.399,176.1395 C170.331,176.6781 171.481,176.6781 172.414,176.1395 C175.92,174.115 184.605,169.1007 188.284,166.977 C188.632,166.7758 188.847,166.404 188.847,166.0016 C188.847,165.5992 188.632,165.2274 188.284,165.0262 C183.986,162.5453 172.692,156.0243 168.6,153.662 C167.667,153.1235 166.518,153.1235 165.585,153.662 C162.079,155.6865 153.394,160.7008 149.715,162.8246 Z"/>
    <g transform="translate(149 152.867)">
      <mask id="data-exfiltration@1x-h" fill="#fff">
        <use xlink:href="#data-exfiltration@1x-g"/>
      </mask>
      <line x1="17.226" x2="35.627" y1="12.044" y2="13.168" stroke="#000" stroke-linecap="round" stroke-linejoin="round" mask="url(#data-exfiltration@1x-h)"/>
      <line x1="17.446" x2="16.519" y1="11.917" y2="2.83" stroke="#000" stroke-linecap="round" stroke-linejoin="round" mask="url(#data-exfiltration@1x-h)"/>
      <path fill="#FFF" d="M24.939,22.392 C24.939,22.392 21.857,13.9692 20.894,11.3385 C20.722,10.8684 20.286,10.5463 19.786,10.5203 C16.11,10.3293 1.396,9.5645 1.396,9.5645" mask="url(#data-exfiltration@1x-h)"/>
      <path stroke="#000" stroke-linecap="round" stroke-linejoin="round" d="M24.939,22.392 C24.939,22.392 21.857,13.9692 20.894,11.3385 C20.722,10.8684 20.286,10.5463 19.786,10.5203 C16.11,10.3293 1.396,9.5645 1.396,9.5645" mask="url(#data-exfiltration@1x-h)"/>
    </g>
    <path stroke="#000" stroke-linecap="round" stroke-linejoin="round" d="M149.715,162.8246 C149.367,163.0258 149.152,163.3976 149.152,163.7999 C149.152,164.2023 149.367,164.5741 149.715,164.7753 C154.012,167.2562 165.307,173.7772 169.399,176.1395 C170.331,176.6781 171.481,176.6781 172.414,176.1395 C175.92,174.115 184.605,169.1007 188.284,166.977 C188.632,166.7758 188.847,166.404 188.847,166.0016 C188.847,165.5992 188.632,165.2274 188.284,165.0262 C183.986,162.5453 172.692,156.0243 168.6,153.662 C167.667,153.1235 166.518,153.1235 165.585,153.662 C162.079,155.6865 153.394,160.7008 149.715,162.8246 Z"/>
    <path fill="#FFF" d="M185.604,151.4531 C186.532,151.989 187.676,151.989 188.604,151.4531 C191.752,149.6356 199.016,145.4416 202.164,143.6241 C202.473,143.4454 202.664,143.1153 202.664,142.7581 C202.664,142.4008 202.473,142.0707 202.164,141.892 C197.433,139.1605 182.858,130.7458 178.127,128.0143 C177.199,127.4784 176.055,127.4784 175.127,128.0143 C171.979,129.8318 164.715,134.0259 161.567,135.8434 C161.257,136.022 161.067,136.3521 161.067,136.7094 C161.067,137.0666 161.257,137.3968 161.567,137.5754 C166.298,140.3069 180.873,148.7216 185.604,151.4531 Z"/>
    <path stroke="#01050C" stroke-linecap="round" stroke-linejoin="round" d="M185.604,151.4531 C186.532,151.989 187.676,151.989 188.604,151.4531 C191.752,149.6356 199.016,145.4416 202.164,143.6241 C202.473,143.4454 202.664,143.1153 202.664,142.7581 C202.664,142.4008 202.473,142.0707 202.164,141.892 C197.433,139.1605 182.858,130.7458 178.127,128.0143 C177.199,127.4784 176.055,127.4784 175.127,128.0143 C171.979,129.8318 164.715,134.0259 161.567,135.8434 C161.257,136.022 161.067,136.3521 161.067,136.7094 C161.067,137.0666 161.257,137.3968 161.567,137.5754 C166.298,140.3069 180.873,148.7216 185.604,151.4531 Z"/>
    <path fill="#EFF4F7" d="M170.128,138.8737 C171.227,139.5081 173.027,139.4986 174.146,138.8525 C175.266,138.2064 175.282,137.1668 174.183,136.5323 C173.084,135.8979 171.284,135.9074 170.165,136.5535 C169.046,137.1997 169.029,138.2393 170.128,138.8737 Z"/>
    <path stroke="#01050C" stroke-linecap="round" stroke-linejoin="round" d="M170.128,138.8737 C171.227,139.5081 173.027,139.4986 174.146,138.8525 C175.266,138.2064 175.282,137.1668 174.183,136.5323 C173.084,135.8979 171.284,135.9074 170.165,136.5535 C169.046,137.1997 169.029,138.2393 170.128,138.8737 Z"/>
    <path fill="#EFF4F7" d="M179.142,132.065 C179.142,132.065 181.192,133.3325 182.494,134.1371 C182.714,134.2733 182.847,134.5154 182.843088,134.7746 C182.839,135.0337 182.699,135.2717 182.475,135.4013 C182.18,135.5712 181.814,135.7827 181.362,136.0435 C179.701,137.0027 177.032,137.0168 175.401,136.075 C175.259,135.9933 175.117,135.9112 174.975,135.8295 C173.344,134.8877 173.369,133.3466 175.03,132.3874 C176.711,131.4168 177.21,131.129 177.21,131.129"/>
    <path stroke="#01050C" stroke-linecap="round" stroke-linejoin="round" d="M179.142,132.065 C179.142,132.065 181.192,133.3325 182.494,134.1371 C182.714,134.2733 182.847,134.5154 182.843088,134.7746 C182.839,135.0337 182.699,135.2717 182.475,135.4013 C182.18,135.5712 181.814,135.7827 181.362,136.0435 C179.701,137.0027 177.032,137.0168 175.401,136.075 C175.259,135.9933 175.117,135.9112 174.975,135.8295 C173.344,134.8877 173.369,133.3466 175.03,132.3874 C176.711,131.4168 177.21,131.129 177.21,131.129"/>
    <line x1="191.394" x2="189.077" y1="140.533" y2="139.195" stroke="#01050C" stroke-linecap="round" stroke-linejoin="round"/>
    <line x1="184.405" x2="181.45" y1="142.599" y2="140.892" stroke="#01050C" stroke-linecap="round" stroke-linejoin="round"/>
    <line x1="188.283" x2="178.419" y1="148.141" y2="142.446" stroke="#01050C" stroke-linecap="round" stroke-linejoin="round"/>
    <line x1="195.788" x2="193.471" y1="143.071" y2="141.732" stroke="#01050C" stroke-linecap="round" stroke-linejoin="round"/>
    <line x1="190.778" x2="186.143" y1="146.278" y2="143.602" stroke="#01050C" stroke-linecap="round" stroke-linejoin="round"/>
    <polygon fill="#3F6C9F" fill-opacity=".2" points="201.179 138.508 187.104 146.635 196.95 152.319 211.025 144.193"/>
    <polygon fill="#FFF" points="213.594 129.529 187.7 144.479 206.766 155.487 232.661 140.537"/>
    <polygon stroke="#000" stroke-linecap="round" stroke-linejoin="round" points="213.594 129.529 187.7 144.479 206.766 155.487 232.661 140.537"/>
    <line x1="212.089" x2="221.554" y1="134.801" y2="140.265" stroke="#000" stroke-linecap="round" stroke-linejoin="round"/>
    <line x1="208.46" x2="215.717" y1="136.896" y2="141.085" stroke="#000" stroke-linecap="round" stroke-linejoin="round"/>
    <line x1="204.462" x2="208.46" y1="139.204" y2="141.512" stroke="#000" stroke-linecap="round" stroke-linejoin="round"/>
    <line x1="210.907" x2="215.902" y1="142.925" y2="145.809" stroke="#000" stroke-linecap="round" stroke-linejoin="round"/>
    <polygon fill="#FFF" points="230.541 92.663 207.927 105.719 226.994 116.728 249.608 103.672"/>
    <polygon stroke="#000" stroke-linecap="round" stroke-linejoin="round" points="230.541 92.663 207.927 105.719 226.994 116.728 249.608 103.672"/>
    <line x1="227.765" x2="237.229" y1="97.479" y2="102.944" stroke="#000" stroke-linecap="round" stroke-linejoin="round"/>
    <line x1="224.136" x2="231.393" y1="99.574" y2="103.764" stroke="#000" stroke-linecap="round" stroke-linejoin="round"/>
    <line x1="220.138" x2="224.136" y1="101.883" y2="104.191" stroke="#000" stroke-linecap="round" stroke-linejoin="round"/>
    <line x1="226.583" x2="231.578" y1="105.603" y2="108.488" stroke="#000" stroke-linecap="round" stroke-linejoin="round"/>
    <line x1="226.583" x2="255.133" y1="90.378" y2="106.862" stroke="#E01A33" stroke-linecap="round" stroke-linejoin="round"/>
    <path fill="#FFF" d="M139.868,155.1768 C138.94,154.6409 137.797,154.6409 136.869,155.1768 C133.72,156.9943 126.456,161.1884 123.308,163.0059 C122.999,163.1845 122.808,163.5147 122.808,163.8719 C122.808,164.2292 122.999,164.5593 123.308,164.7379 C128.039,167.4695 142.614,175.8841 147.345,178.6157 C148.273,179.1516 149.417,179.1516 150.345,178.6157 C153.493,176.7981 160.757,172.6041 163.905,170.7866 C164.215,170.608 164.405,170.2778 164.405,169.9206 C164.405,169.5633 164.215,169.2332 163.905,169.0546 C159.174,166.323 144.6,157.9084 139.868,155.1768 Z"/>
    <path stroke="#01050C" stroke-linecap="round" stroke-linejoin="round" d="M139.868,155.1768 C138.94,154.6409 137.797,154.6409 136.869,155.1768 C133.72,156.9943 126.456,161.1884 123.308,163.0059 C122.999,163.1845 122.808,163.5147 122.808,163.8719 C122.808,164.2292 122.999,164.5593 123.308,164.7379 C128.039,167.4695 142.614,175.8841 147.345,178.6157 C148.273,179.1516 149.417,179.1516 150.345,178.6157 C153.493,176.7981 160.757,172.6041 163.905,170.7866 C164.215,170.608 164.405,170.2778 164.405,169.9206 C164.405,169.5633 164.215,169.2332 163.905,169.0546 C159.174,166.323 144.6,157.9084 139.868,155.1768 Z"/>
    <path fill="#EFF4F7" d="M155.344,167.7563 C154.246,167.1219 152.445,167.1314 151.326,167.7775 C150.207,168.4236 150.19,169.4632 151.289,170.0976 C152.388,170.732 154.189,170.7225 155.308,170.0764 C156.427,169.4303 156.443,168.3907 155.344,167.7563 Z"/>
    <path stroke="#01050C" stroke-linecap="round" stroke-linejoin="round" d="M155.344,167.7563 C154.246,167.1219 152.445,167.1314 151.326,167.7775 C150.207,168.4236 150.19,169.4632 151.289,170.0976 C152.388,170.732 154.189,170.7225 155.308,170.0764 C156.427,169.4303 156.443,168.3907 155.344,167.7563 Z"/>
    <path fill="#EFF4F7" d="M146.33,174.565 C146.33,174.565 144.28,173.2975 142.978,172.4929 C142.758,172.3566 142.625,172.1145 142.628912,171.8554 C142.633,171.5962 142.773,171.3582 142.998,171.2286 C143.292,171.0588 143.658,170.8473 144.11,170.5864 C145.771,169.6273 148.44,169.6132 150.072,170.555 C150.213,170.6367 150.355,170.7188 150.497,170.8005 C152.128,171.7423 152.104,173.2834 150.442,174.2425 C148.761,175.2132 148.263,175.501 148.263,175.501"/>
    <path stroke="#01050C" stroke-linecap="round" stroke-linejoin="round" d="M146.33,174.565 C146.33,174.565 144.28,173.2975 142.978,172.4929 C142.758,172.3566 142.625,172.1145 142.628912,171.8554 C142.633,171.5962 142.773,171.3582 142.998,171.2286 C143.292,171.0588 143.658,170.8473 144.11,170.5864 C145.771,169.6273 148.44,169.6132 150.072,170.555 C150.213,170.6367 150.355,170.7188 150.497,170.8005 C152.128,171.7423 152.104,173.2834 150.442,174.2425 C148.761,175.2132 148.263,175.501 148.263,175.501"/>
    <line x1="134.078" x2="136.396" y1="166.097" y2="167.435" stroke="#01050C" stroke-linecap="round" stroke-linejoin="round"/>
    <line x1="141.067" x2="144.022" y1="164.031" y2="165.738" stroke="#01050C" stroke-linecap="round" stroke-linejoin="round"/>
    <line x1="137.189" x2="147.053" y1="158.489" y2="164.184" stroke="#01050C" stroke-linecap="round" stroke-linejoin="round"/>
    <line x1="129.684" x2="132.001" y1="163.559" y2="164.898" stroke="#01050C" stroke-linecap="round" stroke-linejoin="round"/>
    <line x1="134.694" x2="139.329" y1="160.352" y2="163.028" stroke="#01050C" stroke-linecap="round" stroke-linejoin="round"/>
    <polygon fill="#FFF" points="134.173 124.229 160.067 139.179 141 150.187 115.106 135.237"/>
    <polygon stroke="#000" stroke-linecap="round" stroke-linejoin="round" points="134.173 124.229 160.067 139.179 141 150.187 115.106 135.237"/>
    <line x1="135.677" x2="126.213" y1="129.501" y2="134.966" stroke="#000" stroke-linecap="round" stroke-linejoin="round"/>
    <line x1="139.306" x2="132.049" y1="131.596" y2="135.786" stroke="#000" stroke-linecap="round" stroke-linejoin="round"/>
    <line x1="143.304" x2="139.306" y1="133.905" y2="136.213" stroke="#000" stroke-linecap="round" stroke-linejoin="round"/>
    <line x1="136.859" x2="131.864" y1="137.625" y2="140.51" stroke="#000" stroke-linecap="round" stroke-linejoin="round"/>
    <g transform="translate(83 111.867)">
      <mask id="data-exfiltration@1x-j" fill="#fff">
        <use xlink:href="#data-exfiltration@1x-i"/>
      </mask>
      <polygon fill="#FFF" points="8.482 2.197 34.376 17.147 15.31 28.155 -10.585 13.205" mask="url(#data-exfiltration@1x-j)"/>
      <polygon fill="#3F6C9F" fill-opacity=".2" points="10.839 3.915 16.292 6.706 -.263 16.264 -.263 10.325" mask="url(#data-exfiltration@1x-j)"/>
      <polygon stroke="#000" stroke-linecap="round" stroke-linejoin="round" points="8.482 2.197 34.376 17.147 15.31 28.155 -10.585 13.205" mask="url(#data-exfiltration@1x-j)"/>
      <line x1="9.987" x2=".522" y1="7.469" y2="12.933" stroke="#000" stroke-linecap="round" stroke-linejoin="round" mask="url(#data-exfiltration@1x-j)"/>
      <line x1="13.616" x2="6.359" y1="9.564" y2="13.754" stroke="#000" stroke-linecap="round" stroke-linejoin="round" mask="url(#data-exfiltration@1x-j)"/>
      <line x1="17.614" x2="13.616" y1="11.872" y2="14.181" stroke="#000" stroke-linecap="round" stroke-linejoin="round" mask="url(#data-exfiltration@1x-j)"/>
      <line x1="11.169" x2="6.174" y1="15.593" y2="18.477" stroke="#000" stroke-linecap="round" stroke-linejoin="round" mask="url(#data-exfiltration@1x-j)"/>
    </g>
    <line x1="125.522" x2="115.282" y1="126.443" y2="120.532" stroke="#3F6C9F" stroke-linecap="round" stroke-linejoin="round" stroke-opacity=".4"/>
    <line x1="122.486" x2="112.247" y1="161.704" y2="155.792" stroke="#3F6C9F" stroke-linecap="round" stroke-linejoin="round" stroke-opacity=".4"/>
    <line x1="130.642" x2="125.522" y1="156.996" y2="154.04" stroke="#3F6C9F" stroke-linecap="round" stroke-linejoin="round" stroke-opacity=".4"/>
    <line x1="98.942" x2="88.451" y1="144.758" y2="138.701" stroke="#3F6C9F" stroke-linecap="round" stroke-linejoin="round" stroke-opacity=".4"/>
    <line x1="207.9" x2="200.952" y1="115.035" y2="119.526" stroke="#3F6C9F" stroke-linecap="round" stroke-linejoin="round" stroke-opacity=".4"/>
    <line x1="197.883" x2="190.934" y1="151.243" y2="155.734" stroke="#3F6C9F" stroke-linecap="round" stroke-linejoin="round" stroke-opacity=".4"/>
    <line x1="219.636" x2="207.9" y1="116.57" y2="124.155" stroke="#3F6C9F" stroke-linecap="round" stroke-linejoin="round" stroke-opacity=".4"/>
    <line x1="202.614" x2="199.289" y1="158.363" y2="160.513" stroke="#3F6C9F" stroke-linecap="round" stroke-linejoin="round" stroke-opacity=".4"/>
    <line x1="165.287" x2="161.366" y1="179.366" y2="182.178" stroke="#3F6C9F" stroke-linecap="round" stroke-linejoin="round" stroke-opacity=".4"/>
    <path stroke="#E01A33" stroke-linecap="round" stroke-linejoin="round" stroke-width="1.5" d="M259.689,137.8697 C259.689,137.8697 262.254,139.3509 264.505,140.6504 C265.191,141.0464 265.613,141.7783 265.613,142.5704 C265.613,143.3626 265.191,144.0945 264.505,144.4905 C248.045,153.9939 175.439,195.9127 159.243,205.2634 C157.259,206.4092 154.811,206.4012 152.834,205.2422 C136.061,195.4102 58.504,149.9487 45.0324,142.052 C43.7951,141.3268 43.0349,140 43.0349,138.5658 C43.0349,134.8827 43.0349,127.8252 43.0349,125.0759 C43.0349,124.373 43.4099,123.7236 44.0185,123.3722 C45.2764,122.646 47.2938,121.4812 47.2938,121.4812"/>
  </g>
</svg>
