<svg xmlns="http://www.w3.org/2000/svg" xmlns:xlink="http://www.w3.org/1999/xlink" width="550" height="487" viewBox="0 0 550 487">
  <defs>
    <path id="digital-brain-dark@1x-a" d="M8.052,0.072 C12.341,0.072 15.823,3.554 15.823,7.842 C15.823,12.131 12.341,15.613 8.052,15.613 C3.763,15.613 0.281,12.131 0.281,7.842 C0.281,3.554 3.763,0.072 8.052,0.072 Z"/>
    <path id="digital-brain-dark@1x-c" d="M29.998,2.1 C32.289,3.977 33.539,6.84 33.36,9.796 C32.891,17.528 32.382,25.916 32.382,25.916 L31.336,48.885 L32.4,67.006 C32.418,67.16 32.427,67.317 32.427,67.476 C32.427,69.673 30.644,71.456 28.447,71.456 C26.379,71.456 24.676,69.874 24.485,67.855 L24.467,67.856 L22.947,49.337 L23.666,33.824 C23.666,33.824 20.867,50.122 20.867,50.122 L19.308,67.973 L19.297,67.972 C19.145,70.031 17.425,71.657 15.328,71.657 C13.131,71.657 11.348,69.874 11.348,67.677 C11.348,67.534 11.355,67.392 11.37,67.252 L12.36,48.598 L14.949,27.354 L15.928,16.757 C15.928,16.757 14.667,18.25 13.439,19.703 C12.856,20.394 12.005,20.802 11.101,20.825 C10.1978,20.848 9.3274,20.484 8.7096,19.824 L0.9895,11.578 C0.9146,11.507 0.8437,11.431 0.7774,11.352 L0.7737,11.348 C0.3786,10.874 0.1409,10.264 0.1409,9.599 C0.1409,8.09 1.3663,6.864 2.8756,6.864 C3.8181,6.864 4.6499,7.342 5.1417,8.069 L10.0965,13.836 C10.1972,13.953 10.3492,14.013 10.5028,13.996 C10.6564,13.98 10.7919,13.888 10.8649,13.752 C11.795,12.019 14.514,6.949 16.155,3.889 C16.986,2.341 18.421,1.208 20.119,0.759 C20.479,0.664 21.063,0.509 21.792,0.317 C24.655,-0.44 27.707,0.223 29.998,2.1 Z"/>
    <path id="digital-brain-dark@1x-e" d="M3.6421,0.267 C4.2603,0.267 4.8319,0.468 5.2949,0.808 L5.2949,0.808 L5.306,0.795 L5.4052,0.894 C5.551,1.012 5.6845,1.145 5.8036,1.291 C5.8036,1.291 11.0657,6.534 13.1941,8.655 C13.7768,9.235 14.4326,9.738 15.1449,10.149 C17.5134,11.516 22.9795,14.672 22.9795,14.672 C22.9795,14.672 32.585,16.533 38.7863,17.735 C41.8757,18.334 44.2676,20.789 44.7848,23.894 C45.1669,26.187 45.8219,30.941 46.2194,33.871 C46.4426,35.495 46.2594,37.15 45.6862,38.687 C44.0359,43.112 40.6039,52.316 40.6039,52.316 L40.6039,52.316 L39.5223,66.835 L40.642,85.066 C40.6482,85.137 40.6526,85.208 40.6551,85.279 L40.6551,85.279 L40.6609,85.372 L40.6574,85.372 L40.6578,85.426 C40.6578,87.6704 38.8353,89.4929 36.5906,89.4929 C34.3459,89.4929 32.5234,87.6704 32.5234,85.426 L32.5234,85.426 L32.5235,85.409 L31.2509,54.713 L29.3421,66.835 L28.4435,86.1531 C28.4427,86.2009 28.4435,86.249 28.4435,86.2973 C28.4435,88.542 26.6211,90.3645 24.3763,90.3645 C22.1316,90.3645 20.3092,88.542 20.3092,86.2973 C20.3092,86.2681 20.3095,86.2391 20.3102,86.2102 L20.3102,86.2102 L20.3102,86.2061 L20.3149,86.0804 L21.0707,65.733 C21.0707,65.733 22.5399,49.505 22.9004,45.524 C22.9531,44.942 22.9625,44.357 22.9286,43.773 C22.7411,40.547 22.0863,29.28 21.8204,24.706 C21.7491,23.479 21.0965,22.36 20.0638,21.693 C17.9709,20.343 14.385,18.029 12.3724,16.73 C11.3896,16.096 10.5032,15.324 9.7405,14.437 C7.2813,11.578 1.7333,5.127 1.7333,5.127 L1.7333,5.127 L1.7453,5.113 C1.1932,4.602 0.8474,3.872 0.8474,3.061 C0.8474,1.519 2.0996,0.267 3.6421,0.267 Z"/>
    <path id="digital-brain-dark@1x-g" d="M8.0689,0.349 C12.4519,0.349 16.0103,3.908 16.0103,8.291 C16.0103,12.674 12.4519,16.232 8.0689,16.232 C3.6859,16.232 0.1275,12.674 0.1275,8.291 C0.1275,3.908 3.6859,0.349 8.0689,0.349 Z"/>
    <path id="digital-brain-dark@1x-i" d="M7.523,0.961 L11.497,5.71 C13.151,5.251 15.022,5.291 17.012,5.827 L13.374,3.753 L17.827,1.18 C20.07,2.041 22.361,3.363 24.604,5.093 L25.419,10.682 C27.409,12.442 29.28,14.563 30.934,16.933 L34.908,16.772 C36.601,19.504 38.029,22.396 39.133,25.329 L36.177,27.549 C37.003,30.204 37.465,32.809 37.539,35.227 L41.678,39.674 C41.546,42.219 41.036,44.503 40.171,46.432 L35.717,49.005 C33.81,48.065 33.414,46.289 31.851,46.934 L33.039,52.64 C31.851,53.683 28.936,56.017 26.752,55.488 L24.276,46.773 C22.254,46.051 20.177,44.852 18.155,43.239 L15.497,45.907 C13.313,43.913 11.249,41.575 9.391,38.987 L10.58,34.653 C9.017,32.203 7.722,29.581 6.763,26.924 L2.26,24.545 C1.395,21.616 0.885,18.744 0.752,16.046 L4.892,16.378 C4.966,14.046 5.428,11.974 6.254,10.274 L3.298,4.639 C3.771,3.928 2.481,4.089 3.069,3.534 M14.689,22.711 C14.689,26.871 17.613,31.936 21.215,34.016 C24.818,36.096 27.742,34.407 27.742,30.248 C27.742,26.088 24.818,21.023 21.215,18.943"/>
    <path id="digital-brain-dark@1x-k" d="M3.903,0.31 L6.099,2.934 C7.013,2.68 8.047,2.702 9.147,2.999 L7.137,1.853 L9.597,0.431 C10.837,0.907 12.102,1.638 13.342,2.593 L13.792,5.681 C14.891,6.654 15.925,7.826 16.84,9.135 L19.035,9.047 C19.971,10.556 20.76,12.154 21.37,13.775 L19.736,15.001 C20.193,16.468 20.448,17.907 20.489,19.244 L22.776,21.701 C22.703,23.107 22.421,24.369 21.943,25.435 L19.482,26.857 C18.428,26.337 18.209,25.356 17.346,25.713 L18.003,28.865 C17.346,29.441 15.736,30.731 14.529,30.439 L13.161,25.624 C12.043,25.225 10.896,24.562 9.778,23.671 L8.31,25.145 C7.103,24.043 5.963,22.751 4.936,21.321 L5.593,18.927 C4.729,17.573 4.014,16.124 3.484,14.656 L0.996,13.341 C0.518,11.723 0.236,10.136 0.163,8.645 L2.45,8.829 C2.491,7.54 2.746,6.395 3.203,5.456 L1.569,2.342 C1.831,1.95 1.118,2.038 1.443,1.732 M7.863,12.328 C7.863,14.627 9.479,17.425 11.469,18.575 C13.46,19.724 15.076,18.791 15.076,16.493 C15.076,14.194 13.46,11.395 11.469,10.246"/>
    <path id="digital-brain-dark@1x-m" d="M24.75,5.968 L24.9684791,6.47144116 C26.3882939,9.74313266 27.779,12.948 27.779,12.948 L31.575,20.211 L27.779,21.295 L23.84,17.446 C23.84,17.446 23.662,14.651 23.496,12.055 C23.488,11.919 23.375,11.814 23.238,11.814 C23.102,11.815 22.99,11.922 22.983,12.058 C22.623,18.714 21.976,30.6517 21.976,30.6517 L23.84,53.124 L24.729,71.1728 C24.742,71.3029 24.748,71.4347 24.748,71.5681 C24.748,73.7595 22.969,75.5387 20.778,75.5387 C18.586,75.5387 16.807,73.7595 16.807,71.5681 C16.807,71.5255 16.808,71.4831 16.809,71.4408 L15.765,54.1998 L13.902,41.2103 L12.665,75.0863 C12.679,75.2224 12.687,75.3606 12.687,75.5004 C12.687,77.6918 10.908,79.471 8.716,79.471 C6.525,79.471 4.746,77.6918 4.746,75.5004 L4.746,53.9819 L4.206,23.864 L10.472,27.9038 L1.726,18.96 L0.842,9.722 C0.842,9.722 1.497,8.184 2.128,6.705 C2.85,5.011 4.334,3.76 6.126,3.335 C8.53,2.764 12.07,1.924 15.195,1.183 C19.119,0.252 23.145,2.268 24.75,5.968 Z"/>
    <path id="digital-brain-dark@1x-o" d="M9.75,5.968 L9.96847907,6.47144116 C11.3882939,9.74313266 12.779,12.948 12.779,12.948 L16.575,20.211 L12.779,21.295 L8.84,17.446 C8.84,17.446 7.4,16.441 7.234,13.845 C7.226,13.709 7.113,13.604 6.976,13.604 C6.84,13.605 6.728,13.712 6.721,13.848 C6.361,20.504 6.976,30.6517 6.976,30.6517 L4.047,22.515 C4.047,22.515 -1.196,4.054 2.001,0.876 C5.925,-0.055 8.145,2.268 9.75,5.968 Z"/>
    <path id="digital-brain-dark@1x-q" d="M8.634,0.502 C8.634,0.502 10.759,5.658 11.832,8.264 C12.231,9.232 12.409,10.276 12.352,11.322 C11.942,18.872 10.208,50.7846 10.208,50.7846 C6.7,51.6307 2.71,51.6158 0.224,50.1804 L0.224,50.1804 L3.54,28.6658 L8.634,0.502 Z"/>
    <path id="digital-brain-dark@1x-s" d="M1.47897477,0.991673858 L7.585,19.416 C7.813,22.259 8.281,28.1001 8.281,28.1001 C8.281,28.1001 11.107,43.8427 12.677,49.8665 C10.214,51.4544 7.585,52.1162 4.292,51.4559 C4.292,51.4559 0.985,17.305 0.464,11.927 C0.418,11.455 0.42,10.98 0.47,10.509 C0.716,8.191 1.48,0.982 1.48,0.982 L1.47897477,0.991673858 Z"/>
  </defs>
  <g fill="none" fill-rule="evenodd">
    <path fill="#3F6C9F" fill-opacity=".1" d="M224.666818,262.80077 C222.813356,261.733077 220.530714,261.733077 218.678251,262.80077 C205.467471,270.411074 152.35407,301.011647 136.497242,310.147796 C135.57071,310.680647 135,311.667666 135,312.735359 C135,313.802057 135.57071,314.789076 136.497142,315.322922 C152.692723,324.653288 207.84593,356.428921 221.333182,364.199379 C223.186644,365.266874 225.469286,365.266874 227.322747,364.199379 C240.532529,356.588577 293.64613,325.987905 309.502858,316.852752 C310.42909,316.318905 311,315.332882 311,314.265189 C311,313.197495 310.42909,312.211472 309.502858,311.677626 C293.307776,302.34726 238.15407,270.571427 224.666818,262.80077 Z"/>
    <path fill="#3F6C9F" fill-opacity=".3" d="M174.654117,299.982232 C172.392759,298.672589 169.606245,298.672589 167.344887,299.982232 C152.089151,308.81431 93.4277075,342.779913 74.8843658,353.51638 C73.7182435,354.192228 73,355.439692 73,356.789986 C73,358.14028 73.7182435,359.388045 74.884266,360.063192 C87.5364935,367.38878 117.846089,384.938292 128.346182,391.017918 C130.60784,392.327361 133.394254,392.327361 135.655812,391.017918 C150.911248,382.184939 209.572892,348.219736 228.116034,337.48327 C229.282156,336.807422 230,335.559857 230,334.210164 C230,332.85947 229.282156,331.611905 228.116034,330.936057 C215.464405,323.610869 185.15421,306.061858 174.654117,299.982232 Z"/>
    <path fill="#01050C" fill-opacity=".2" d="M121.813451 344.708027C132.784746 342.618738 142.671862 345.31051 143.878598 350.714476 145.085436 356.118851 137.157843 362.202704 126.186549 364.291993 115.215254 366.381179 105.328138 363.689714 104.121402 358.285339 102.914564 352.881373 110.842157 346.797315 121.813451 344.708027zM169.813784 322.708033C180.784655 320.618726 190.672045 323.310521 191.878488 328.714535 193.085939 334.118549 185.157885 340.20266 174.187014 342.291967 163.215135 344.381274 153.328148 341.689479 152.121403 336.285465 150.914556 330.881451 158.842207 324.79734 169.813784 322.708033z"/>
    <path stroke="#3F6C9F" stroke-linecap="round" stroke-linejoin="round" d="M212.675249 251.986723C210.419031 250.671092 207.638852 250.671092 205.382634 251.986723 198.943696 255.740495 185.520942 263.565882 177.88068 268.019714 176.717208 268.698652 176 269.951921 176 271.308791 176 272.664655 176.717208 273.917924 177.88068 274.596862 185.285857 278.913901 198.078065 286.371153 204.325747 290.013277 206.581966 291.328908 209.362144 291.328908 211.618362 290.013277 218.0573 286.259505 231.480055 278.434118 239.120316 273.980286 240.283788 273.302354 241 272.048079 241 270.692215 241 269.335345 240.283788 268.082076 239.120316 267.404144 231.714143 263.086099 218.922931 255.628847 212.675249 251.986723zM139.474182 381.990131C137.224699 380.669956 134.453065 380.669956 132.203583 381.990131 128.380595 384.233591 122.314976 387.793188 117.874304 390.399118 116.714408 391.079746 116 392.337642 116 393.698899 116 395.060156 116.714508 396.318052 117.874304 396.998681 122.131359 399.496808 127.853974 402.855134 131.525818 405.009869 133.7754 406.330044 136.546935 406.330044 138.796417 405.009869 142.619405 402.766409 148.685024 399.206812 153.125696 396.600882 154.285592 395.920254 155 394.662358 155 393.301101 155 391.939844 154.285492 390.682049 153.125696 390.00142 148.868641 387.503192 143.146026 384.144866 139.474182 381.990131z"/>
    <path stroke="#3F6C9F" stroke-linecap="round" stroke-linejoin="round" stroke-opacity=".3" d="M288.726903,356.978847 C286.467507,355.673718 283.683413,355.673718 281.424017,356.978847 C274.97601,360.702743 261.534351,368.466065 253.883329,372.885186 C252.718219,373.558057 252,374.801618 252,376.147361 C252,377.493105 252.718219,378.736665 253.883329,379.409537 C268.169892,387.661323 305.452417,409.193819 317.273097,416.021227 C319.53349,417.326258 322.317585,417.326258 324.576981,416.021227 C331.024987,412.297332 344.466646,404.53391 352.117669,400.11479 C353.282779,399.441918 354,398.198457 354,396.852713 C354,395.50697 353.282779,394.263409 352.117669,393.590538 C337.830108,385.338752 300.54858,363.806156 288.726903,356.978847 Z"/>
    <path fill="#FFF" fill-opacity=".1" d="M61,231.429758 C61,228.575045 62.5231274,225.936462 64.9954705,224.509606 C77.891076,217.063138 118.308332,193.727136 131.086574,186.34971 C131.893813,185.88343 132.888353,185.88343 133.695591,186.34971 C134.50273,186.814989 135,187.676506 135,188.609065 C135,200.651291 135,233.419952 135,245.569242 C135,248.423954 133.476973,251.062538 131.004529,252.490394 C118.108924,259.935862 77.6916676,283.271863 64.913526,290.65029 C64.1062875,291.11657 63.1117472,291.11657 62.3045087,290.65029 C61.4972701,290.18401 61,289.322493 61,288.389934 C61,276.348709 61,243.580048 61,231.429758 Z"/>
    <path stroke="#000" stroke-linecap="round" stroke-linejoin="round" stroke-opacity=".1" d="M61,231.429758 C61,228.575045 62.5231274,225.936462 64.9954705,224.509606 C77.891076,217.063138 118.308332,193.727136 131.086574,186.34971 C131.893813,185.88343 132.888353,185.88343 133.695591,186.34971 C134.50273,186.814989 135,187.676506 135,188.609065 C135,200.651291 135,233.419952 135,245.569242 C135,248.423954 133.476973,251.062538 131.004529,252.490394 C118.108924,259.935862 77.6916676,283.271863 64.913526,290.65029 C64.1062875,291.11657 63.1117472,291.11657 62.3045087,290.65029 C61.4972701,290.18401 61,289.322493 61,288.389934 C61,276.348709 61,243.580048 61,231.429758 Z"/>
    <path stroke="#E01A33" d="M111.50005 218.316876C112.879785 217.576704 114 218.177397 114 219.658671 114 221.139015 112.879785 222.942952 111.50005 223.683124 110.120215 224.423296 109 223.822603 109 222.341329 109 220.860985 110.120215 219.057048 111.50005 218.316876zM111.50005 232.316876C112.879785 231.576704 114 232.177397 114 233.658671 114 235.139015 112.879785 236.942952 111.50005 237.683124 110.120215 238.423296 109 237.822603 109 236.341329 109 234.860985 110.120215 233.057048 111.50005 232.316876zM111.50005 247.316907C112.879785 246.576717 114 247.177424 114 248.657803 114 250.139113 112.879785 251.942163 111.50005 252.683283 110.120215 253.423473 109 252.821836 109 251.341456 109 249.860147 110.120215 248.057097 111.50005 247.316907z"/>
    <path fill="#B1BBC9" d="M106.496014,223 C106.496014,223 103.872464,224.470011 101.280766,225.921439 C98.0130212,227.752352 96,231.135431 96,234.796278 C96,234.798234 96,234.799212 96,234.801168 C96,236.658487 97.0212774,238.374968 98.67919,239.303138 C100.337103,240.232287 102.379657,240.232287 104.03757,239.303138 C104.143306,239.244455 104.201365,239.21218 104.201365,239.21218 L104.03757,238.174467 C104.03757,238.174467 103.63932,238.397463 103.533584,238.456146 C102.187538,239.210224 100.529222,239.210224 99.183176,238.456146 C97.83713,237.702068 97.0079721,236.309323 97.0079721,234.801168 C97.0079721,234.799212 97.0079721,234.798234 97.0079721,234.796278 C97.0079721,231.484596 98.8288738,228.424273 101.784752,226.768432 C104.37645,225.317004 107,223.846992 107,223.846992 L106.496014,223 Z"/>
    <polyline stroke="#B1BBC9" points="105 222 107 223.25 105 227"/>
    <polygon fill="#B1BBC9" points="106 237 105 237.666 105 239 106 238.333"/>
    <path fill="#B1BBC9" d="M116.476363,232.440529 C116.476363,232.440529 116.956727,232.148238 117.698901,231.696242 C119.214687,230.774169 121.082125,230.774169 122.597816,231.696242 C124.113603,232.619319 125.047274,234.323847 125.047274,236.168996 L125.047274,236.174019 C125.047274,238.685109 123.776148,241.006361 121.712734,242.262911 C120.141022,243.219135 119.121606,243.839876 119.121606,243.839876 L119.121606,245 C119.121606,245 120.617385,244.088976 122.189097,243.132753 C124.547284,241.697414 126,239.044697 126,236.174019 L126,236.168996 C126,233.965263 124.884739,231.928267 123.074179,230.8264 C121.263714,229.724533 119.033098,229.724533 117.222538,230.8264 C116.480364,231.278396 116,231.570687 116,231.570687 L116.476363,232.440529 Z"/>
    <polyline stroke="#B1BBC9" points="119 228 117 231.75 119 233"/>
    <polygon fill="#B1BBC9" points="117 244.667 118 244 118 245.333 117 246"/>
    <line x1="100" x2="104" y1="249" y2="252" stroke="#4D72EF"/>
    <line x1="104" x2="100" y1="247" y2="255" stroke="#4D72EF"/>
    <line x1="117" x2="121" y1="217" y2="220" stroke="#4D72EF"/>
    <line x1="121" x2="117" y1="214" y2="222" stroke="#4D72EF"/>
    <line x1="101" x2="107" y1="234" y2="230" stroke="#B1BBC9"/>
    <line x1="109" x2="115" y1="244" y2="240" stroke="#B1BBC9"/>
    <line x1="110" x2="113" y1="229" y2="227" stroke="#B1BBC9"/>
    <line x1="117" x2="120" y1="239" y2="237" stroke="#B1BBC9"/>
    <line x1="127" x2="107" y1="202" y2="214" stroke="#FFF" stroke-linecap="round" stroke-linejoin="round"/>
    <line x1="102" x2="97" y1="216" y2="219" stroke="#FFF" stroke-linecap="round" stroke-linejoin="round"/>
    <line x1="89" x2="69" y1="257" y2="269" stroke="#FFF" stroke-linecap="round" stroke-linejoin="round"/>
    <line x1="82" x2="68" y1="265" y2="273" stroke="#FFF" stroke-linecap="round" stroke-linejoin="round"/>
    <path stroke="#E01A33" stroke-linecap="round" stroke-linejoin="round" d="M81.8785293,231.430035 C81.1829479,230.417197 79.9944443,229.87601 78.7880036,230.024156 C77.5814638,230.17331 76.5537991,230.985596 76.1156789,232.138517 C73.9354838,237.875912 70.6001816,246.651819 68.1955255,252.979784 C67.7513603,254.14883 68.0802724,255.475092 69.0161708,256.289393 C69.9520691,257.104702 71.2916008,257.230677 72.358509,256.603826 C77.5915719,253.53105 84.4422406,249.508927 88.3560872,247.211147 C89.1536423,246.742521 89.721484,245.95543 89.9214673,245.041357 C90.1215498,244.127284 89.9353413,243.169876 89.4082296,242.401934 C87.3967023,239.471257 84.2890323,234.942211 81.8785293,231.430035 Z"/>
    <line x1="79.5" x2="79.5" y1="235" y2="243" stroke="#E01A33" stroke-linecap="round" stroke-linejoin="round" stroke-width="2"/>
    <path fill="#E01A33" d="M80.4999422,246.158678 C79.6721248,246.529254 79,247.430629 79,248.170885 C79,248.91114 79.6721248,249.211897 80.4999422,248.841322 C81.3278752,248.471641 82,247.569371 82,246.829115 C82,246.08886 81.3278752,245.788103 80.4999422,246.158678 Z"/>
    <path fill="#FFF" d="M171,247 C175.415391,247 179,250.58484 179,254.999485 C179,259.41516 175.415391,263 171,263 C166.584609,263 163,259.41516 163,254.999485 C163,250.58484 166.584609,247 171,247 Z"/>
    <g transform="translate(163 247)">
      <mask id="digital-brain-dark@1x-b" fill="#fff">
        <use xlink:href="#digital-brain-dark@1x-a"/>
      </mask>
      <path fill="#EFF4F7" d="M13.587,2.148 C14.94,3.576 15.777,5.55 15.777,7.728 C15.777,12.08 12.437,15.613 8.323,15.613 C7.462,15.613 6.636,15.459 5.866,15.174 C10.446,14.196 13.899,9.911 13.899,4.779 C13.899,3.871 13.791,2.99 13.587,2.148 Z" mask="url(#digital-brain-dark@1x-b)"/>
    </g>
    <path stroke="#01050C" stroke-linecap="round" stroke-linejoin="round" d="M171,247 C175.415391,247 179,250.58484 179,254.999485 C179,259.41516 175.415391,263 171,263 C166.584609,263 163,259.41516 163,254.999485 C163,250.58484 166.584609,247 171,247 Z"/>
    <path fill="#4D72EF" d="M147,268.040105 C150.149329,266.937608 153.330394,265.613385 156.560494,264 L168,275.317198 L158.525907,280 L147,268.040105 Z"/>
    <path stroke="#01050C" stroke-linecap="round" stroke-linejoin="round" d="M147,268.040105 C150.149329,266.937608 153.330394,265.613385 156.560494,264 L168,275.317198 L158.525907,280 L147,268.040105 Z"/>
    <path stroke="#FFF" stroke-linecap="round" stroke-linejoin="round" d="M152 270C153.642208 269.660748 155.574115 268.831776 157 268M154 271.7995C154.284441 271.6895 154.576523 271.5665 155 271.2005M156 270C156.78924 269.746575 157.381383 269.363992 158 269M155 274C156.453667 273.570082 159.288757 271.712603 160 271"/>
    <path fill="#FFF" d="M154.965289,274.098426 L159.884904,279.893865 C159.984889,280.011442 160.13581,280.071738 160.288319,280.054654 C160.440828,280.038575 160.575366,279.946121 160.647848,279.809451 C161.571343,278.067905 164.271035,272.972903 165.900382,269.897813 C166.725481,268.342179 168.150291,267.203592 169.836233,266.752378 C170.193677,266.656909 170.77353,266.501145 171.497353,266.308198 C174.340022,265.547465 177.37035,266.213734 179.645081,268.099991 C181.919812,269.986247 183.160936,272.863365 182.983207,275.833942 C182.517537,283.604071 182.012152,292.033435 182.012152,292.033435 L180.97358,315.115703 L182.030024,333.326064 C182.047896,333.480824 182.056832,333.638598 182.056832,333.798382 C182.056832,336.006216 180.286494,337.798009 178.105095,337.798009 C176.05178,337.798009 174.360873,336.208207 174.17123,334.179251 L174.153357,334.180256 L172.644151,315.569932 L173.358045,299.980433 C173.358045,299.980433 170.578921,316.358804 170.578921,316.358804 L169.030992,334.297833 L169.02007,334.296828 C168.86915,336.365982 167.161363,338 165.079255,338 C162.897856,338 161.127517,336.208207 161.127517,334.000373 C161.127517,333.856668 161.134467,333.713968 161.149361,333.573277 L162.132331,314.827288 L164.702946,293.478527 L165.674994,282.829269 C165.674994,282.829269 164.422948,284.329632 163.203669,285.789797 C162.624809,286.484205 161.779852,286.894217 160.882271,286.91733 C159.985485,286.940443 159.121266,286.574648 158.507853,285.911394 L150.842574,277.62473 C150.768206,277.55338 150.697809,277.477005 150.63198,277.397615 L150.628306,277.393596 C150.236012,276.917258 150,276.30425 150,275.635971 C150,274.119529 151.216698,272.887484 152.715281,272.887484 C153.651088,272.887484 154.476981,273.367841 154.965289,274.098426 Z"/>
    <g transform="translate(150 266)">
      <mask id="digital-brain-dark@1x-d" fill="#fff">
        <use xlink:href="#digital-brain-dark@1x-c"/>
      </mask>
      <path fill="#EFF4F7" d="M22.822 33.858C22.822 33.858 21.224 40.719 20.994 41.71 20.975 41.789 20.958 41.868 20.942 41.947 20.688 43.189 18.53 53.735 18.279 54.964 18.263 55.042 18.248 55.12 18.235 55.198 18.035 56.361 16.419 65.767 16.419 65.767 16.419 65.767 16.419 65.768 16.418 65.77 16.222 66.761 15.529 67.581 14.586 67.942 13.642 68.303 12.579 68.153 11.772 67.546 11.668 67.468 11.609 67.424 11.609 67.424L10.9849 71.441 22.59 71.958 23.616 60.305C22.803 48.361 25.023 36.531 22.822 33.858zM28.286 30.324L28.158 39.347C28.158 39.347 28.264 52.878 28.274 54.165 28.275 54.23 28.276 54.296 28.278 54.361 28.317 55.501 28.681 66.208 28.681 66.208 28.681 66.208 28.683 66.427 28.688 66.776 28.7 67.725 28.206 68.609 27.391 69.095 26.576 69.582 25.564 69.598 24.734 69.137 24.732 69.136 24.731 69.136 24.731 69.136L24.942 73.609 35.33 71.407 34.022 58.614C32.737 53.173 35.33-7.03 35.33-7.03L27.201-.584C27.201-.584 27.922.155 28.722.976 30.067 2.354 30.738 4.254 30.558 6.172 29.892 13.253 28.286 30.324 28.286 30.324z" mask="url(#digital-brain-dark@1x-d)"/>
    </g>
    <path stroke="#01050C" stroke-linecap="round" stroke-linejoin="round" d="M154.965289,274.098426 L159.884904,279.893865 C159.984889,280.011442 160.13581,280.071738 160.288319,280.054654 C160.440828,280.038575 160.575366,279.946121 160.647848,279.809451 C161.571343,278.067905 164.271035,272.972903 165.900382,269.897813 C166.725481,268.342179 168.150291,267.203592 169.836233,266.752378 C170.193677,266.656909 170.77353,266.501145 171.497353,266.308198 C174.340022,265.547465 177.37035,266.213734 179.645081,268.099991 C181.919812,269.986247 183.160936,272.863365 182.983207,275.833942 C182.517537,283.604071 182.012152,292.033435 182.012152,292.033435 L180.97358,315.115703 L182.030024,333.326064 C182.047896,333.480824 182.056832,333.638598 182.056832,333.798382 C182.056832,336.006216 180.286494,337.798009 178.105095,337.798009 C176.05178,337.798009 174.360873,336.208207 174.17123,334.179251 L174.153357,334.180256 L172.644151,315.569932 L173.358045,299.980433 C173.358045,299.980433 170.578921,316.358804 170.578921,316.358804 L169.030992,334.297833 L169.02007,334.296828 C168.86915,336.365982 167.161363,338 165.079255,338 C162.897856,338 161.127517,336.208207 161.127517,334.000373 C161.127517,333.856668 161.134467,333.713968 161.149361,333.573277 L162.132331,314.827288 L164.702946,293.478527 L165.674994,282.829269 C165.674994,282.829269 164.422948,284.329632 163.203669,285.789797 C162.624809,286.484205 161.779852,286.894217 160.882271,286.91733 C159.985485,286.940443 159.121266,286.574648 158.507853,285.911394 L150.842574,277.62473 C150.768206,277.55338 150.697809,277.477005 150.63198,277.397615 L150.628306,277.393596 C150.236012,276.917258 150,276.30425 150,275.635971 C150,274.119529 151.216698,272.887484 152.715281,272.887484 C153.651088,272.887484 154.476981,273.367841 154.965289,274.098426 Z"/>
    <line x1="175" x2="174" y1="298" y2="299" stroke="#01050C" stroke-linecap="round" stroke-linejoin="round"/>
    <polyline stroke="#01050C" stroke-linecap="round" stroke-linejoin="round" points="165 283 168.168 277.946 170 276"/>
    <polygon fill="#112443" fill-opacity=".3" points="357.857 340 366 344.75 338.142 361 330 356.25"/>
    <polygon stroke="#01050C" stroke-linecap="round" stroke-linejoin="round" stroke-opacity=".3" points="357.857 340 366 344.75 338.142 361 330 356.25"/>
    <polygon fill="#112443" fill-opacity=".6" points="337.774 335 346 339.661 324.226 352 316 347.339"/>
    <polygon stroke="#01050C" stroke-linecap="round" stroke-linejoin="round" stroke-opacity=".6" points="337.774 335 346 339.661 324.226 352 316 347.339"/>
    <polygon fill="#112443" points="314.706 333 323 337.562 311.294 344 303 339.438"/>
    <polygon stroke="#01050C" stroke-linecap="round" stroke-linejoin="round" points="314.706 333 323 337.562 311.294 344 303 339.438"/>
    <path fill="#FFF" d="M133.350507,320.992675 C133.350507,320.992675 136.74746,311.798635 138.380907,307.378423 C138.948253,305.843087 139.129582,304.189878 138.908662,302.567635 C138.515221,299.640806 137.86691,294.89195 137.488712,292.601432 C136.976793,289.499792 134.60932,287.047449 131.551468,286.449097 C125.413496,285.248398 115.906087,283.389411 115.906087,283.389411 C115.906087,283.389411 110.495807,280.236827 108.151494,278.871306 C107.446468,278.460751 106.797365,277.958295 106.220616,277.378923 C104.113951,275.260218 98.9055873,270.022892 98.9055873,270.022892 C98.7877036,269.87705 98.6555669,269.744194 98.5112558,269.626321 L98.4130688,269.527429 L98.4020822,269.540415 C97.9438103,269.200782 97.3780475,269 96.7661606,269 C95.2394125,269 94,270.250645 94,271.790976 C94,272.601099 94.3422687,273.330309 94.8887307,273.840756 L94.8768532,273.854741 C94.8768532,273.854741 100.368197,280.29876 102.802284,283.154666 C103.557195,284.040706 104.434543,284.81187 105.407307,285.445184 C107.399354,286.742779 110.948635,289.054275 113.020162,290.402814 C114.042316,291.069092 114.688252,292.186881 114.758824,293.412553 C115.022009,297.981603 115.670122,309.236411 115.855707,312.45892 C115.889261,313.042288 115.879957,313.626654 115.827795,314.208025 C115.470976,318.184717 114.01678,334.395155 114.01678,334.395155 L113.268698,354.720536 C113.266521,354.762291 113.264937,354.804146 113.264046,354.8461 L113.264046,354.850196 C113.263353,354.879064 113.263056,354.908033 113.263056,354.937201 C113.263056,357.179472 115.066846,359 117.288623,359 C119.510499,359 121.314289,357.179472 121.314289,354.937201 C121.314289,354.888954 121.313497,354.840906 121.311716,354.793157 L121.314289,354.793157 L122.203712,335.495963 L124.09302,323.387081 L125.352624,354.049863 L125.352525,354.066844 C125.352525,356.308815 127.156414,358.129343 129.378191,358.129343 C131.599968,358.129343 133.403857,356.308815 133.403857,354.066844 C133.403857,354.048864 133.403758,354.030883 133.403461,354.012903 L133.406925,354.012903 L133.401184,353.920003 C133.39871,353.84908 133.394355,353.778157 133.388218,353.707234 L132.279952,335.495963 L133.350507,320.992675 Z"/>
    <g transform="translate(93 269)">
      <mask id="digital-brain-dark@1x-f" fill="#fff">
        <use xlink:href="#digital-brain-dark@1x-e"/>
      </mask>
      <path fill="#EFF4F7" d="M24.3547 48.069C24.3547 48.069 22.994 66.709 22.7267 70.371 22.6966 70.784 22.7006 71.198 22.7387 71.61 22.9861 74.288 23.9518 84.74 23.9518 84.74 23.9518 84.74 23.949 84.963 23.9445 85.318 23.9322 86.2884 24.4374 87.1918 25.2705 87.6894 26.1036 88.187 27.1386 88.2035 27.9871 87.7326 27.9874 87.7324 27.9876 87.7323 27.9876 87.7323L27.772 92.3041 17.1566 90.0534 18.4929 76.979C19.8065 71.42 10.3608 15.158 10.3608 15.158 10.3608 15.158 16.6183 18.337 20.7645 20.444 22.9672 21.563 24.3547 23.824 24.3547 26.295 24.3547 33.55 24.3547 48.069 24.3547 48.069zM32.7617 52.109C32.7617 52.109 34.0458 68.767 34.1567 70.205 34.1618 70.271 34.166 70.337 34.1693 70.403 34.2309 71.619 34.8396 83.642 34.8396 83.642 34.8396 83.642 34.8414 83.661 34.8447 83.697 34.9629 84.968 35.7003 86.0975 36.8153 86.7171 37.9303 87.3367 39.2792 87.3661 40.4202 86.7956 40.4208 86.7953 40.4211 86.7951 40.4211 86.7951L39.2548 91.6169 29.9757 90.2043 29.9757 76.292C31.2893 70.732 31.2509 54.713 31.2509 54.713L32.7617 52.109z" mask="url(#digital-brain-dark@1x-f)"/>
    </g>
    <path stroke="#01050C" stroke-linecap="round" stroke-linejoin="round" d="M133.350507,320.992675 C133.350507,320.992675 136.74746,311.798635 138.380907,307.378423 C138.948253,305.843087 139.129582,304.189878 138.908662,302.567635 C138.515221,299.640806 137.86691,294.89195 137.488712,292.601432 C136.976793,289.499792 134.60932,287.047449 131.551468,286.449097 C125.413496,285.248398 115.906087,283.389411 115.906087,283.389411 C115.906087,283.389411 110.495807,280.236827 108.151494,278.871306 C107.446468,278.460751 106.797365,277.958295 106.220616,277.378923 C104.113951,275.260218 98.9055873,270.022892 98.9055873,270.022892 C98.7877036,269.87705 98.6555669,269.744194 98.5112558,269.626321 L98.4130688,269.527429 L98.4020822,269.540415 C97.9438103,269.200782 97.3780475,269 96.7661606,269 C95.2394125,269 94,270.250645 94,271.790976 C94,272.601099 94.3422687,273.330309 94.8887307,273.840756 L94.8768532,273.854741 C94.8768532,273.854741 100.368197,280.29876 102.802284,283.154666 C103.557195,284.040706 104.434543,284.81187 105.407307,285.445184 C107.399354,286.742779 110.948635,289.054275 113.020162,290.402814 C114.042316,291.069092 114.688252,292.186881 114.758824,293.412553 C115.022009,297.981603 115.670122,309.236411 115.855707,312.45892 C115.889261,313.042288 115.879957,313.626654 115.827795,314.208025 C115.470976,318.184717 114.01678,334.395155 114.01678,334.395155 L113.268698,354.720536 C113.266521,354.762291 113.264937,354.804146 113.264046,354.8461 L113.264046,354.850196 C113.263353,354.879064 113.263056,354.908033 113.263056,354.937201 C113.263056,357.179472 115.066846,359 117.288623,359 C119.510499,359 121.314289,357.179472 121.314289,354.937201 C121.314289,354.888954 121.313497,354.840906 121.311716,354.793157 L121.314289,354.793157 L122.203712,335.495963 L124.09302,323.387081 L125.352624,354.049863 L125.352525,354.066844 C125.352525,356.308815 127.156414,358.129343 129.378191,358.129343 C131.599968,358.129343 133.403857,356.308815 133.403857,354.066844 C133.403857,354.048864 133.403758,354.030883 133.403461,354.012903 L133.406925,354.012903 L133.401184,353.920003 C133.39871,353.84908 133.394355,353.778157 133.388218,353.707234 L132.279952,335.495963 L133.350507,320.992675 Z"/>
    <line x1="125" x2="124" y1="321" y2="324" stroke="#01050C" stroke-linecap="round" stroke-linejoin="round"/>
    <polyline stroke="#01050C" stroke-linecap="round" stroke-linejoin="round" points="135 296 134.526 297.89 134 321"/>
    <path fill="#FFF" d="M128,266 C123.584658,266 120,269.585217 120,274.000504 C120,278.41579 123.584658,282 128,282 C132.415342,282 136,278.41579 136,274.000504 C136,269.585217 132.415342,266 128,266 Z"/>
    <g transform="translate(120 266)">
      <mask id="digital-brain-dark@1x-h" fill="#fff">
        <use xlink:href="#digital-brain-dark@1x-g"/>
      </mask>
      <path fill="#EFF4F7" d="M2.697,2.097 C1.3151,3.556 0.4597,5.573 0.4597,7.799 C0.4597,12.247 3.8728,15.858 8.0768,15.858 C8.9562,15.858 9.801,15.7 10.5872,15.409 C5.9071,14.409 2.3787,10.03 2.3787,4.785 C2.3787,3.858 2.4892,2.957 2.697,2.097 Z" mask="url(#digital-brain-dark@1x-h)"/>
    </g>
    <path stroke="#01050C" stroke-linecap="round" stroke-linejoin="round" d="M128,266 C123.584658,266 120,269.585217 120,274.000504 C120,278.41579 123.584658,282 128,282 C132.415342,282 136,278.41579 136,274.000504 C136,269.585217 132.415342,266 128,266 Z"/>
    <path fill="#3F6C9F" fill-opacity=".3" d="M223.703515 393.988105C221.444174 392.670632 218.660148 392.670632 216.400808 393.988105 208.42778 398.637141 189.41341 409.723847 179.883282 415.280749 178.718201 415.960037 178 417.215455 178 418.57403 178 419.932606 178.718201 421.188024 179.883282 421.867312 192.523619 429.237831 222.805764 446.894981 233.297483 453.011895 235.556823 454.329368 238.340849 454.329368 240.60019 453.011895 248.573218 448.362859 267.587588 437.276254 277.117715 431.719251 278.282797 431.039963 279 429.784545 279 428.42597 279 427.067394 278.282797 425.812077 277.117715 425.132789 264.477378 417.762169 234.194236 400.105019 223.703515 393.988105zM90.5806458 311.973166C88.336513 310.675611 85.5716915 310.675611 83.3276578 311.973166 79.9286185 313.938346 74.7966247 316.905461 70.8696648 319.176182 69.7126778 319.844799 69 321.080849 69 322.419076 69 323.756312 69.7126778 324.992361 70.8697639 325.661971 73.359084 327.101384 76.216829 328.753088 78.4193542 330.026834 80.663487 331.324389 83.4283085 331.324389 85.6723422 330.026834 89.0713815 328.061654 94.2033753 325.094539 98.1302361 322.823818 99.2873222 322.155201 100 320.919151 100 319.580924 100 318.243688 99.2873222 317.006646 98.1302361 316.338029 95.640916 314.898616 92.783171 313.246912 90.5806458 311.973166zM384.807168 366.984413C382.550059 365.671862 379.771006 365.671862 377.513897 366.984413 367.991408 372.523861 342.323517 387.455803 330.879596 394.113097 329.716179 394.789846 329 396.040573 329 397.394072 329 398.74757 329.716179 399.998196 330.879596 400.674946 344.173231 408.407933 377.175231 427.606316 388.192832 434.015512 390.448945 435.328163 393.228994 435.328163 395.485106 434.015512 405.007596 428.476064 430.675487 413.544122 442.119408 406.886828 443.282825 406.210078 444 404.959452 444 403.605954 444 402.252355 443.282825 401.001728 442.119408 400.324979 428.826769 392.591992 395.824769 373.393609 384.807168 366.984413z"/>
    <path fill="#01050C" fill-opacity=".2" d="M383.813802,393.708042 C394.784664,391.618776 404.672046,394.310314 405.878488,399.71463 C407.085938,405.118947 399.15789,411.202734 388.187028,413.292 C377.215158,415.381164 367.327776,412.689728 366.121334,407.285411 C364.914892,401.881095 372.841932,395.797206 383.813802,393.708042 Z"/>
    <polyline stroke="#B1BBC9" stroke-linecap="round" stroke-linejoin="round" points="423 351 467 300.839 443 273 423 313.762 467 300.839"/>
    <line x1="443" x2="458" y1="273" y2="336" stroke="#B1BBC9" stroke-linecap="round" stroke-linejoin="round"/>
    <path fill="#E01A33" d="M442.500487 268.475812C444.431992 267.364635 446 268.266193 446 270.487577 446 272.708961 444.431992 275.414605 442.500487 276.524812 440.568008 277.635018 439 276.733461 439 274.512077 439 272.291663 440.568008 269.586019 442.500487 268.475812zM422.500487 309.475812C424.431992 308.364635 426 309.266193 426 311.487577 426 313.708961 424.431992 316.413634 422.500487 317.524812 420.568008 318.635018 419 317.733461 419 315.512077 419 313.290692 420.568008 310.586019 422.500487 309.475812zM466.500487 296.475188C468.431992 295.364982 470 296.266539 470 298.487923 470 300.709308 468.431992 303.413981 466.500487 304.524188 464.568982 305.635365 463 304.733807 463 302.512423 463 300.291039 464.568982 297.586366 466.500487 296.475188zM422.500487 347.475811C424.431992 346.364637 426 347.266192 426 349.487568 426 351.708944 424.431992 354.413607 422.500487 355.524586 420.568008 356.635177 419 355.733525 419 353.512052 419 351.290677 420.568008 348.586013 422.500487 347.475811zM457.500487 331.475188C459.431992 330.364982 461 331.266539 461 333.487923 461 335.709308 459.431992 338.413981 457.500487 339.524188 455.568008 340.635365 454 339.733807 454 337.512423 454 335.291039 455.568008 332.586366 457.500487 331.475188z"/>
    <line x1="459" x2="479" y1="273" y2="261" stroke="#B1BBC9" stroke-linecap="round" stroke-linejoin="round"/>
    <line x1="459" x2="474" y1="279" y2="270" stroke="#B1BBC9" stroke-linecap="round" stroke-linejoin="round"/>
    <line x1="473" x2="482" y1="309" y2="304" stroke="#B1BBC9" stroke-linecap="round" stroke-linejoin="round"/>
    <line x1="411" x2="418" y1="291" y2="287" stroke="#B1BBC9" stroke-linecap="round" stroke-linejoin="round"/>
    <line x1="417" x2="427" y1="294" y2="288" stroke="#B1BBC9" stroke-linecap="round" stroke-linejoin="round"/>
    <line x1="423" x2="429" y1="285" y2="281" stroke="#B1BBC9" stroke-linecap="round" stroke-linejoin="round"/>
    <line x1="423" x2="429" y1="285" y2="281" stroke="#B1BBC9" stroke-linecap="round" stroke-linejoin="round"/>
    <line x1="440" x2="446" y1="344" y2="340" stroke="#B1BBC9" stroke-linecap="round" stroke-linejoin="round"/>
    <line x1="418" x2="424" y1="331" y2="327" stroke="#B1BBC9" stroke-linecap="round" stroke-linejoin="round"/>
    <path fill="#01050C" fill-opacity=".2" d="M227.831048,419.57648 C218.816405,416.767458 210.453314,417.813228 209.167384,421.910346 C207.880444,426.007564 214.15453,431.614497 223.169173,434.42352 C232.183815,437.232542 240.545897,436.186772 241.832837,432.089654 C243.118767,427.992537 236.845691,422.385604 227.831048,419.57648 Z"/>
    <path fill="#E01A33" d="M225.818182,328.957409 C226.094995,328.35823 226.726251,327.979495 227.413687,328.000859 C229.483146,328.097 230.920327,329.051607 232,330.64618 L225.931563,344 L220,341.551816 C220,341.551816 224.459653,331.899891 225.818182,328.957409 Z"/>
    <path stroke="#01050C" stroke-linecap="round" stroke-linejoin="round" d="M225.818182,328.957409 C226.094995,328.35823 226.726251,327.979495 227.413687,328.000859 C229.483146,328.097 230.920327,329.051607 232,330.64618 L225.931563,344 L220,341.551816 C220,341.551816 224.459653,331.899891 225.818182,328.957409 Z"/>
    <path fill="#E01A33" d="M222.818677,334.95831 C223.094492,334.359128 223.726824,333.980391 224.414319,334.000785 C226.482932,334.097897 227.920235,335.052508 229,336.646118 L222.931046,350 L217,347.552776 C217,347.552776 221.459011,337.900806 222.818677,334.95831 Z"/>
    <path stroke="#01050C" stroke-linecap="round" stroke-linejoin="round" d="M222.818677,334.95831 C223.094492,334.359128 223.726824,333.980391 224.414319,334.000785 C226.482932,334.097897 227.920235,335.052508 229,336.646118 L222.931046,350 L217,347.552776 C217,347.552776 221.459011,337.900806 222.818677,334.95831 Z"/>
    <path fill="#E01A33" d="M229.996504,329.844168 C230.177634,329.43158 230.562155,329.140871 231.012449,329.075936 C233.220409,328.756256 234.814148,329.447564 235.816938,331.118892 C236.03146,331.475535 236.058782,331.911099 235.891818,332.290719 C234.749386,334.915093 229.875076,346 229.875076,346 L224,343.482519 C224,343.482519 228.793358,332.581428 229.996504,329.844168 Z"/>
    <path stroke="#01050C" stroke-linecap="round" stroke-linejoin="round" d="M229.996504,329.844168 C230.177634,329.43158 230.562155,329.140871 231.012449,329.075936 C233.220409,328.756256 234.814148,329.447564 235.816938,331.118892 C236.03146,331.475535 236.058782,331.911099 235.891818,332.290719 C234.749386,334.915093 229.875076,346 229.875076,346 L224,343.482519 C224,343.482519 228.793358,332.581428 229.996504,329.844168 Z"/>
    <path fill="#E01A33" d="M226.996293,335.844168 C227.177416,335.43158 227.561924,335.140871 228.012202,335.075936 C230.220085,334.756256 231.813767,335.447564 232.816522,337.118892 C233.031037,337.474536 233.059369,337.911099 232.8914,338.290719 C231.749008,340.915093 226.874869,352 226.874869,352 L221,349.48152 C221,349.48152 225.793189,338.580429 226.996293,335.844168 Z"/>
    <path stroke="#01050C" stroke-linecap="round" stroke-linejoin="round" d="M226.996293,335.844168 C227.177416,335.43158 227.561924,335.140871 228.012202,335.075936 C230.220085,334.756256 231.813767,335.447564 232.816522,337.118892 C233.031037,337.474536 233.059369,337.911099 232.8914,338.290719 C231.749008,340.915093 226.874869,352 226.874869,352 L221,349.48152 C221,349.48152 225.793189,338.580429 226.996293,335.844168 Z"/>
    <path fill="#FFF" d="M236.319413,335.128821 C235.801961,334.444355 234.973633,334 234.039992,334 C232.47346,334 231.201602,335.251367 231.201602,336.792661 C231.201602,337.692331 231.636019,338.494362 232.308402,339.004473 L238.167455,345.904927 C238.685919,346.515666 238.747689,347.38445 238.321374,348.060946 C237.154829,349.912093 234.969583,353.380254 234.969583,353.380254 L226.306569,355.421397 L227.840697,347.497033 L226.306569,340.382372 L223.400333,341.372706 L221.394322,347.606628 C221.394322,347.606628 220.160943,351.796118 219.396411,354.39151 C219.008575,355.709232 218.96402,357.101876 219.26882,358.440719 C220.233852,362.688394 222.449478,372.442783 223.429699,376.756314 C223.748677,378.159819 223.843863,379.603474 223.713235,381.035772 C223.118823,387.514288 221.394322,406.327341 221.394322,406.327341 L218.124553,422.430726 C218.091136,422.558652 218.064808,422.68887 218.044556,422.82118 L218.044556,422.821479 C218.015189,423.018251 218,423.219605 218,423.424547 C218,425.667543 219.850067,427.488502 222.130501,427.488502 C224.21651,427.488502 225.944049,425.963049 226.221509,423.984773 L229.811267,407.387815 L230.440108,397.047794 L231.749433,408.488939 L230.091764,427.539712 C230.088726,427.57 230.085689,427.600487 230.083663,427.630974 L230.083663,427.631472 C230.076575,427.732 230.072524,427.833524 230.072524,427.935945 C230.072524,430.178942 231.923604,432 234.203025,432 C236.393335,432 238.187707,430.319023 238.325425,428.197975 L240.149164,407.387815 C240.149164,407.387815 240.634211,390.051495 240.716234,387.143361 C240.723322,386.869176 240.714209,386.594892 240.686868,386.321902 C240.419535,383.605658 238.898571,368.166016 238.443902,363.547614 C238.359854,362.696664 238.533013,361.840234 238.942114,361.085628 C240.351689,358.481668 243.790566,352.129882 245.590002,348.806187 C246.27555,347.538879 246.089226,345.986625 245.122169,344.912601 C242.200743,341.665622 236.319413,335.128821 236.319413,335.128821 Z"/>
    <path stroke="#01050C" stroke-linecap="round" stroke-linejoin="round" d="M236.319413,335.128821 C235.801961,334.444355 234.973633,334 234.039992,334 C232.47346,334 231.201602,335.251367 231.201602,336.792661 C231.201602,337.692331 231.636019,338.494362 232.308402,339.004473 L238.167455,345.904927 C238.685919,346.515666 238.747689,347.38445 238.321374,348.060946 C237.154829,349.912093 234.969583,353.380254 234.969583,353.380254 L226.306569,355.421397 L227.840697,347.497033 L226.306569,340.382372 L223.400333,341.372706 L221.394322,347.606628 C221.394322,347.606628 220.160943,351.796118 219.396411,354.39151 C219.008575,355.709232 218.96402,357.101876 219.26882,358.440719 C220.233852,362.688394 222.449478,372.442783 223.429699,376.756314 C223.748677,378.159819 223.843863,379.603474 223.713235,381.035772 C223.118823,387.514288 221.394322,406.327341 221.394322,406.327341 L218.124553,422.430726 C218.091136,422.558652 218.064808,422.68887 218.044556,422.82118 L218.044556,422.821479 C218.015189,423.018251 218,423.219605 218,423.424547 C218,425.667543 219.850067,427.488502 222.130501,427.488502 C224.21651,427.488502 225.944049,425.963049 226.221509,423.984773 L229.811267,407.387815 L230.440108,397.047794 L231.749433,408.488939 L230.091764,427.539712 C230.088726,427.57 230.085689,427.600487 230.083663,427.630974 L230.083663,427.631472 C230.076575,427.732 230.072524,427.833524 230.072524,427.935945 C230.072524,430.178942 231.923604,432 234.203025,432 C236.393335,432 238.187707,430.319023 238.325425,428.197975 L240.149164,407.387815 C240.149164,407.387815 240.634211,390.051495 240.716234,387.143361 C240.723322,386.869176 240.714209,386.594892 240.686868,386.321902 C240.419535,383.605658 238.898571,368.166016 238.443902,363.547614 C238.359854,362.696664 238.533013,361.840234 238.942114,361.085628 C240.351689,358.481668 243.790566,352.129882 245.590002,348.806187 C246.27555,347.538879 246.089226,345.986625 245.122169,344.912601 C242.200743,341.665622 236.319413,335.128821 236.319413,335.128821 Z"/>
    <line x1="230.018" x2="230.982" y1="391" y2="397" stroke="#01050C" stroke-linecap="round" stroke-linejoin="round"/>
    <line x1="225" x2="227" y1="355.68" y2="355.32" stroke="#01050C" stroke-linecap="round" stroke-linejoin="round"/>
    <path fill="#FFF" d="M223.999498,336 C228.415092,336 232,339.583904 232,343.999498 C232,348.415092 228.415092,352 223.999498,352 C219.584908,352 216,348.415092 216,343.999498 C216,339.583904 219.584908,336 223.999498,336 Z"/>
    <path stroke="#01050C" stroke-linecap="round" stroke-linejoin="round" d="M223.999498,336 C228.415092,336 232,339.583904 232,343.999498 C232,348.415092 228.415092,352 223.999498,352 C219.584908,352 216,348.415092 216,343.999498 C216,339.583904 219.584908,336 223.999498,336 Z"/>
    <path fill="#05122C" d="M226.146798,343.163674 C225.148562,343.601576 224.720262,344.778849 225.191619,345.792184 C225.662977,346.805519 226.8561,347.273127 227.853202,346.836326 C228.851438,346.398424 229.279738,345.221151 228.808381,344.207816 C228.338156,343.194481 227.145033,342.726873 226.146798,343.163674 Z"/>
    <path stroke="#05122C" stroke-linecap="round" stroke-linejoin="round" d="M234,348.389503 C234,348.389503 233.442401,348.611541 232.859632,348.843986 C232.077444,349.155359 231.160697,348.991433 230.57212,348.434605 C229.519845,347.438906 228,346 228,346"/>
    <g stroke="#3F6C9F" stroke-linejoin="round" stroke-width="2" opacity=".2" transform="translate(192 18)">
      <path d="M141.191,134.55234 C141.191,134.55234 136.256,131.70234 130.938,128.63234 C127.501,126.64834 124.205,126.32134 121.776,127.72434 C119.346,129.12734 117.98,132.14434 117.98,136.11234 C117.98,136.11334 117.98,136.11434 117.98,136.11434 C117.98,140.08234 119.346,144.67634 121.776,148.88534 C124.205,153.09434 127.501,156.57334 130.938,158.55734 C152.816,171.18834 194.722,195.38334 194.722,195.38334 C196.179,196.47934 197.671,197.08534 199.189,197.96234 C215.517,207.38934 228.772,199.67534 228.772,180.82234 C228.772,161.96934 215.517,139.00934 199.189,129.58334 C196.633,128.10734 194.151,127.04934 191.783,126.38834 C192.525,123.82734 192.922,120.89934 192.922,117.63534 C192.922,98.7823398 179.666,75.8233398 163.339,66.3963398 C160.634,64.8343398 158.013,63.7413398 155.521,63.0903398 C152.857,45.8483398 140.864,27.0593398 126.489,18.7603398 C114.28,11.7113398 103.788,14.2133398 99.272,23.8073398 C94.063,15.5093398 87.229,8.35333975 79.751,4.03533975 C67.36,-3.11866025 56.739,-0.435660246 52.337,9.51533975 L52.235,9.45633975 C37.66,1.04133975 25.827,7.87333975 25.827,24.7033398 C25.827,29.0303398 26.609,33.5993398 28.019,38.1453398 C27.486,37.8003398 26.949,37.4713398 26.408,37.1593398 C11.833,28.7443398 -4.97379915e-13,35.5763398 -4.97379915e-13,52.4063398 C-4.97379915e-13,69.2363398 11.833,89.7923398 26.408,98.2073398 C27.844,99.0363398 29.253,100.10434 30.627,100.64234 C30.627,100.64234 73.241,125.24634 92.86,136.57334 C98.205,139.65834 102.537,137.15734 102.537,130.98634 C102.537,124.64234 102.537,117.95634 102.537,117.95634"/>
      <path d="M203.116,163.81034 C203.116,163.81034 200.872,166.44534 198.446,169.29334 C194.725,173.66234 188.416,173.94234 181.655,170.03934 C166.782,161.45234 141.856,147.06134 141.856,147.06134"/>
      <path d="M203.116 163.81034C203.116 163.81034 200.872 166.44534 198.446 169.29334 194.725 173.66234 188.416 173.94234 181.655 170.03934 166.782 161.45234 141.856 147.06134 141.856 147.06134M23.522 65.6433398C23.522 65.6433398 23.634 65.9973398 23.826 66.6053398 27.061 76.8413398 34.256 86.3843398 42.192 90.9663398 44.046 92.0363398 45.338 92.7823398 45.338 92.7823398M169.964 97.8853398C169.964 97.8853398 164.89 103.84134 160.746 108.70734 157.449 112.57734 151.86 112.82634 145.871 109.36834 142.062 107.16934 137.618 104.60334 133.511 102.23234 126.189 98.0043398 120.253 101.43134 120.253 109.88634 120.253 110.01134 120.253 110.07734 120.253 110.07734M70.993 21.2913398C70.993 21.2913398 73.253 24.1023398 75.823 27.2993398 80.335 32.9123398 83.075 40.0973398 82.974 46.0553398 82.844 53.7843398 82.682 63.3393398 82.682 63.3393398M130.315 46.9213398C130.315 46.9213398 130.264 47.0903398 130.174 47.3853398 128.334 53.4333398 122.614 54.9523398 116.188 51.0993398 113.507 49.4923398 110.629 47.7663398 107.928 46.1463398 104.948 44.3593398 102.07 44.0183398 99.942 45.2003398 97.814 46.3813398 96.615 48.9863398 96.615 52.4283398L96.615 55.8553398M41.784 29.2913398C41.784 29.2913398 42.624 32.0333398 43.505 34.9103398 44.751 38.9753398 47.374 42.8853398 50.481 45.3073398 52.451 46.8433398 54.791 48.6673398 57.088 50.4573398 62.956 55.0313398 67.237 63.3863398 67.237 70.2643398 67.237 72.7243398 67.237 74.5833398 67.237 74.5833398M67.237 91.7343398C67.237 91.7343398 68.618 92.5313398 70.566 93.6563398 73.878 95.5683398 77.05 95.8613398 79.369 94.4703398 81.688 93.0793398 82.958 90.1213398 82.894 86.2613398 82.786 79.7143398 82.682 73.4483398 82.682 73.4483398M68.191 14.9903398C66.636 14.0923398 65.374 14.8213398 65.374 16.6173398 65.374 18.4123398 66.636 20.5993398 68.191 21.4973398 69.746 22.3943398 71.009 21.6663398 71.009 19.8703398 71.009 18.0743398 69.746 15.8883398 68.191 14.9903398zM40.643 22.2203398C39.088 21.3223398 37.825 22.0513398 37.825 23.8463398 37.825 25.6423398 39.088 27.8293398 40.643 28.7263398 42.198 29.6243398 43.46 28.8953398 43.46 27.1003398 43.46 25.3043398 42.198 23.1173398 40.643 22.2203398z"/>
      <path d="M130.801 41.0173398C129.246 40.1193398 127.984 40.8483398 127.984 42.6433398 127.984 44.4393398 129.246 46.6253398 130.801 47.5233398 132.356 48.4213398 133.619 47.6923398 133.619 45.8973398 133.619 44.1013398 132.356 41.9143398 130.801 41.0173398zM52.684 8.99633975C52.056 11.2573398 51.709 13.9343398 51.709 16.9503398 51.709 29.2223398 57.447 42.4973398 64.513 46.5773398M204.682 158.85934C203.127 157.96134 201.864 158.69034 201.864 160.48634 201.864 162.28134 203.127 164.46834 204.682 165.36634 206.237 166.26434 207.499 165.53534 207.499 163.73934 207.499 161.94434 206.237 159.75734 204.682 158.85934zM171.498 93.4313398C169.943 92.5343398 168.681 93.2623398 168.681 95.0583398 168.681 96.8543398 169.943 99.0403398 171.498 99.9383398 173.053 100.83634 174.316 100.10734 174.316 98.3113398 174.316 96.5163398 173.053 94.3293398 171.498 93.4313398zM22.486 58.7293398C20.931 57.8313398 19.668 58.5603398 19.668 60.3563398 19.668 62.1513398 20.931 64.3383398 22.486 65.2363398 24.041 66.1343398 25.303 65.4053398 25.303 63.6093398 25.303 61.8143398 24.041 59.6273398 22.486 58.7293398zM199.262 129.85234C182.975 120.44934 169.751 128.08334 169.751 146.89034 169.751 146.89034 169.751 146.89134 169.751 146.89134 169.751 148.02334 169.362 148.88334 168.67 149.28334 167.977 149.68334 167.037 149.59034 166.058 149.02434 162.245 146.82334 157.028 143.81034 157.028 143.81034M27.604 37.8083398C43.892 47.2113398 57.115 70.1153398 57.115 88.9223398 57.115 89.2763398 57.094 89.9213398 57.06 90.7123398 57.013 92.6553398 57.658 94.9363398 58.848 97.0363398 60.038 99.1353398 61.672 100.87634 63.379 101.86134 69.753 105.54534 78.332 110.49834 78.332 110.49834M136.285 80.6713398C147.005 86.8603398 155.708 80.3633398 155.708 66.1713398 155.708 65.0813398 155.657 63.9763398 155.557 62.8643398M136.285 80.6713398C136.285 80.6713398 120.083 71.3173398 117.139 69.6173398 116.835 69.4423398 116.531 69.2593398 116.227 69.0703398 115.648 68.7083398 114.562 68.0323398 113.246 67.2113398 110.446 65.4643398 107.721 65.0853398 105.7 66.1603398 103.679 67.2353398 102.537 69.6723398 102.537 72.9083398L102.537 102.28234"/>
    </g>
    <path stroke="#E01A33" stroke-linejoin="round" stroke-width="2" d="M325.332098,159.561262 C325.332098,159.561262 320.392201,156.712052 315.067923,153.640826 C311.628514,151.656679 308.329243,151.330655 305.896832,152.733759 C303.464421,154.136862 302.098067,157.154085 302.098067,161.122377 C302.098067,161.123377 302.098067,161.123377 302.098067,161.124377 C302.098067,165.09267 303.464421,169.687009 305.896832,173.895319 C308.329243,178.10463 311.628514,181.583886 315.067923,183.568032 C336.967632,196.200964 378.916214,220.396748 378.916214,220.396748 C380.37466,221.493829 381.86814,222.099874 383.387646,222.976938 C399.730847,232.403634 413,224.690065 413,205.835674 C413,186.980284 399.730847,164.019591 383.387646,154.591896 C380.828109,153.115787 378.344647,152.058709 375.974298,151.39766 C376.716033,148.835471 377.114428,145.907255 377.114428,142.644015 C377.114428,123.789624 363.845275,100.827931 347.502074,91.4012361 C344.793389,89.839121 342.169788,88.7460403 339.675316,88.0949923 C337.009673,70.8507208 325.003772,52.0613352 310.61551,43.7617232 C298.393394,36.7112033 287.890984,39.2133878 283.371504,48.8090954 C278.156334,40.5094834 271.316554,33.3529557 263.831134,29.0356373 C251.427839,21.8811098 240.795299,24.5643076 236.388931,34.5160415 L236.287831,34.4570371 C221.698369,26.0414165 209.852627,32.8739204 209.852627,49.7051615 C209.852627,54.0324806 210.635403,58.6018175 212.047803,63.1471527 C211.514274,62.8021273 210.976741,62.473103 210.435204,62.16108 C195.845742,53.7454594 184,60.5779633 184,77.4092044 C184,94.2404455 195.845742,114.797961 210.435204,123.213582 C211.872629,124.042643 213.283027,125.111722 214.65739,125.649762 C214.65739,125.649762 257.314674,150.254576 276.953141,161.582411 C282.302444,164.668639 286.639743,162.166454 286.639743,155.994999 C286.639743,149.650531 286.639743,142.964038 286.639743,142.964038"/>
    <path stroke="#E01A33" stroke-linejoin="round" stroke-width="2" d="M387 188.932793C387 188.932793 384.76556 191.595538 382.349896 194.474618 378.643754 198.891297 372.361633 199.175364 365.629438 195.22876 350.8208 186.548049 326 172 326 172M208 91C208 91 208.112945 91.3521739 208.306564 91.9580324 211.568849 102.141231 218.823524 111.634009 226.827466 116.192373 228.697103 117.257848 230 118 230 118M354 123C354 123 348.897405 128.994301 344.728224 133.891593 341.41199 137.78648 335.79139 138.036075 329.766445 134.555838 325.93623 132.342696 321.466305 129.761202 317.334339 127.373948 309.969624 123.119765 304 126.568803 304 135.078175 304 135.202972 304 135.270403 304 135.270403M255 47C255 47 257.262083 49.8077911 259.835589 53.0011416 264.354748 58.6087329 267.097485 65.7855308 266.997349 71.7357306 266.86617 79.4569064 266.70495 89 266.70495 89M315 72.3401543C315 72.3401543 314.947539 72.5039682 314.85674 72.7899157 313.000415 78.652323 307.229667 80.12471 300.747663 76.3899456 298.042877 74.8312896 295.139343 73.1592241 292.414379 71.5889364 289.406932 69.8567734 286.503398 69.5252682 284.356518 70.6709966 282.209638 71.816725 281 74.3417864 281 77.678163L281 81M226 55C226 55 226.825083 57.724262 227.690437 60.5826507 228.913327 64.6223478 231.489745 68.5070541 234.542551 70.9133862 236.477566 72.4384563 238.77601 74.2506568 241.032218 76.0300709 246.795026 80.5734882 251 88.8744398 251 95.7089396 251 98.1520323 251 100 251 100M251 117.378674C251 117.378674 252.411978 118.180718 254.402233 119.31142 257.785053 121.232105 261.02688 121.527595 263.396182 120.129545 265.764463 118.731495 267.063033 115.757499 266.997645 111.877937 266.887302 105.298761 266.781046 99 266.781046 99"/>
    <path stroke="#E01A33" stroke-linejoin="round" stroke-width="2" d="M388.999468 184.369924C387.343744 183.505857 386 184.20731 386 185.934481 386 187.662614 387.343744 189.766972 388.999468 190.630076 390.655191 191.494143 392 190.79269 392 189.065519 392 187.337386 390.655191 185.23399 388.999468 184.369924zM356.000532 118.369924C354.344809 117.505857 353 118.20731 353 119.934481 353 121.662614 354.344809 123.766972 356.000532 124.630076 357.656256 125.494143 359 124.79269 359 123.065519 359 121.337386 357.656256 119.23399 356.000532 118.369924zM252.000532 40.3699237C250.344809 39.5058572 249 40.2073099 249 41.9344808 249 43.6626139 250.344809 45.7660097 252.000532 46.6300763 253.656256 47.4941428 255 46.7926901 255 45.0655192 255 43.3373861 253.656256 41.2330281 252.000532 40.3699237zM224.999468 47.3698518C223.343744 46.5058982 222 47.2072592 222 48.9351664 222 50.6621116 223.343744 52.7661946 224.999468 53.6301482 226.655191 54.4941018 228 53.7927408 228 52.0648336 228 50.3378884 226.655191 48.2338054 224.999468 47.3698518zM206.999468 84.3699237C205.343744 83.5058572 204 84.2073099 204 85.9344808 204 87.6626139 205.343744 89.7669719 206.999468 90.6300763 208.655191 91.4941428 210 90.7926901 210 89.0655192 210 87.3373861 208.655191 85.2330281 206.999468 84.3699237zM315.000532 66.3698518C313.344809 65.5058982 312 66.2072592 312 67.9351664 312 69.6621116 313.344809 71.7661946 315.000532 72.6301482 316.656256 73.4941018 318 72.7927408 318 71.0648336 318 69.3378884 316.656256 67.2338054 315.000532 66.3698518zM383 155.076701C366.803239 145.553907 353.653502 153.284342 353.653502 172.328919 353.653502 172.329932 353.653502 172.329932 353.653502 172.330944 353.653502 173.476232 353.266657 174.347095 352.577497 174.752148 351.888336 175.157201 350.954539 175.063026 349.979969 174.489877 346.189089 172.261073 341 169.211024 341 169.211024M212 63C228.374653 72.4439752 241.669821 95.4443329 241.669821 114.331279 241.669821 114.686784 241.647702 115.33553 241.613519 116.129892 241.566266 118.081152 242.214738 120.370844 243.411142 122.479771 244.607546 124.588697 246.251345 126.336094 247.966527 127.326285 254.375835 131.025945 263 136 263 136M321 105.674808C331.486537 111.817863 340 105.368102 340 91.2814576 340 90.1995493 339.949132 89.103745 339.85131 88M321 106.226144C321 106.226144 304.677018 96.8012184 301.710027 95.0883283 301.403757 94.9109938 301.098495 94.7276138 300.792225 94.5361732 300.207894 94.1724359 299.114792 93.4903027 297.788965 92.6630775 294.968057 90.9038386 292.222709 90.5219649 290.186618 91.605116 288.150527 92.6882671 287 95.1427378 287 98.4032745L287 128M236.98891 34C236.351296 36.2871587 236 38.9929221 236 42.0424671 236 54.4509606 241.82482 67.8746208 249 72"/>
    <path stroke="#3F6C9F" stroke-linejoin="round" d="M279,278 C279,278 279,285.358614 279,290.163909 C279,292.674756 277.682307,294.995495 275.54317,296.250414 C271.209204,298.794631 263.842058,303.119599 259.669198,305.569774 C257.710062,306.720537 255.321309,306.82267 253.273664,305.844824 C248.939698,303.773855 241.21056,300.081908 235.82045,297.506343 C232.077208,295.718514 227.710424,295.9066 224.129283,298.008917 C215.980472,302.791965 202,311 202,311"/>
    <path stroke="#4D72EF" stroke-dasharray="0 6 0 0" stroke-linecap="round" stroke-linejoin="round" stroke-width="2" d="M350 214.325206C350 214.325206 340.971888 209.02589 333.76544 204.795815 331.957812 203.734728 329.730109 203.734728 327.921479 204.795815 326.113851 205.85792 325 207.819045 325 209.942237L325 229M238 157C238 157 249.981 163.917 257.677 168.36 261.59 170.619 264 174.795 264 179.313 264 191.58 264 215 264 215"/>
    <line x1="264.5" x2="264.5" y1="224" y2="250" stroke="#4D72EF" stroke-dasharray="0 6 0 0" stroke-linecap="round" stroke-linejoin="round" stroke-width="2"/>
    <path stroke="#3F6C9F" stroke-linejoin="round" d="M302 288L302 299.668693C302 301.416905 302.939978 303.032632 304.466438 303.907236 318.928644 312.18908 392.735003 354.456964 412.395208 365.716047 413.388412 366.285038 414 367.336456 414 368.474437 414 369.612319 413.388412 370.663836 412.395208 371.232727 409.285046 373.013613 405.816366 375 405.816366 375M288.919209 283C288.919209 283 288.919209 291.386815 288.919209 295.45019 288.919209 296.785384 288.206799 298.018944 287.049383 298.685545 281.53968 301.862112 265.214116 311.275233 256.510542 316.293173 255.353125 316.96077 254.639717 318.19433 254.639717 319.528528 254.639717 320.862726 255.353125 322.096286 256.510542 322.763883 268.897895 329.906177 298.586633 347.022573 312.515545 355.054265 314.053113 355.940775 315 357.578978 315 359.351897 315 361.124816 314.053113 362.76312 312.515545 363.649629 293.742444 374.473672 246 402 246 402"/>
    <line x1="305.5" x2="305.5" y1="189" y2="211" stroke="#E01A33" stroke-dasharray="0 6 0 0" stroke-linecap="round" stroke-linejoin="round" stroke-width="2"/>
    <line x1="283.5" x2="283.5" y1="176" y2="220" stroke="#E01A33" stroke-dasharray="0 6 0 0" stroke-linecap="round" stroke-linejoin="round" stroke-width="2"/>
    <path fill="#5A6D83" d="M291.105874,227.220588 C293.35293,228.087833 295.648072,229.419421 297.895128,231.161969 L298.711601,236.791505 C300.7052,238.56427 302.579583,240.700653 304.236573,243.087843 L308.217759,242.925675 C309.91382,245.67749 311.344402,248.590465 312.450398,251.544738 L309.489053,253.780839 C310.316547,256.455095 310.779382,259.078989 310.853516,261.514526 L315,265.99378 C314.867761,268.557238 314.356839,270.857804 313.490275,272.800795 L309.028222,275.392456 C307.117774,274.445639 306.721058,272.656757 305.155231,273.306436 L306.345379,279.05382 C305.155231,280.104385 302.234961,282.455313 300.047012,281.922476 L297.566535,273.144268 C295.540879,272.417031 293.460123,271.209335 291.434467,269.584636 L288.771661,272.271987 C286.583712,270.263525 284.51598,267.908567 282.654621,265.301797 L283.84577,260.936363 C282.279944,258.468594 280.982603,255.827577 280.021869,253.151306 L275.510727,250.755051 C274.644163,247.804808 274.13324,244.911978 274,242.194409 L278.147486,242.528817 C278.22162,240.179904 278.684455,238.092876 279.511948,236.380546 L276.550604,230.704676 C277.024459,229.988519 275.732126,230.150687 276.321189,229.591662 C277.105605,228.848309 279.814494,227.44722 280.783243,227 L284.764428,231.783444 C286.421419,231.321115 288.295802,231.361405 290.2894,231.901292 L286.644822,229.81225 L291.105874,227.220588 Z M294.5,245.112421 C290.891487,243.017335 287.9622,244.718585 287.9622,248.90775 C287.9622,253.097922 290.891487,258.199657 294.5,260.294743 C298.109515,262.389829 301.038802,260.688579 301.038802,256.499414 C301.038802,252.309243 298.109515,247.207507 294.5,245.112421 Z"/>
    <g transform="translate(273 226)">
      <mask id="digital-brain-dark@1x-j" fill="#fff">
        <use xlink:href="#digital-brain-dark@1x-i"/>
      </mask>
      <line x1="24.487" x2="20.15" y1="5.252" y2="7.666" stroke="#05122C" stroke-linecap="round" stroke-linejoin="round" mask="url(#digital-brain-dark@1x-j)"/>
      <line x1="34.891" x2="30.554" y1="16.886" y2="19.3" stroke="#05122C" stroke-linecap="round" stroke-linejoin="round" mask="url(#digital-brain-dark@1x-j)"/>
      <line x1="39.228" x2="34.891" y1="25.374" y2="27.788" stroke="#05122C" stroke-linecap="round" stroke-linejoin="round" mask="url(#digital-brain-dark@1x-j)"/>
      <line x1="41.678" x2="37.341" y1="39.657" y2="42.071" stroke="#05122C" stroke-linecap="round" stroke-linejoin="round" mask="url(#digital-brain-dark@1x-j)"/>
    </g>
    <path stroke="#01050C" stroke-linecap="round" stroke-linejoin="round" d="M291.105874,227.220588 C293.35293,228.087833 295.648072,229.419421 297.895128,231.161969 L298.711601,236.791505 C300.7052,238.56427 302.579583,240.700653 304.236573,243.087843 L308.217759,242.925675 C309.91382,245.67749 311.344402,248.590465 312.450398,251.544738 L309.489053,253.780839 C310.316547,256.455095 310.779382,259.078989 310.853516,261.514526 L315,265.99378 C314.867761,268.557238 314.356839,270.857804 313.490275,272.800795 L309.028222,275.392456 C307.117774,274.445639 306.721058,272.656757 305.155231,273.306436 L306.345379,279.05382 C305.155231,280.104385 302.234961,282.455313 300.047012,281.922476 L297.566535,273.144268 C295.540879,272.417031 293.460123,271.209335 291.434467,269.584636 L288.771661,272.271987 C286.583712,270.263525 284.51598,267.908567 282.654621,265.301797 L283.84577,260.936363 C282.279944,258.468594 280.982603,255.827577 280.021869,253.151306 L275.510727,250.755051 C274.644163,247.804808 274.13324,244.911978 274,242.194409 L278.147486,242.528817 C278.22162,240.179904 278.684455,238.092876 279.511948,236.380546 L276.550604,230.704676 C277.024459,229.988519 275.732126,230.150687 276.321189,229.591662 C277.105605,228.848309 279.814494,227.44722 280.783243,227 L284.764428,231.783444 C286.421419,231.321115 288.295802,231.361405 290.2894,231.901292 L286.644822,229.81225 L291.105874,227.220588 Z M294.5,245.112421 C290.891487,243.017335 287.9622,244.718585 287.9622,248.90775 C287.9622,253.097922 290.891487,258.199657 294.5,260.294743 C298.109515,262.389829 301.038802,260.688579 301.038802,256.499414 C301.038802,252.309243 298.109515,247.207507 294.5,245.112421 Z"/>
    <path fill="#B1BBC9" d="M286.105874,229.219077 C288.35293,230.080381 290.64707,231.403847 292.894126,233.133457 L293.711601,238.724427 C295.704198,240.485047 297.579583,242.606795 299.236573,244.97763 L303.217759,244.816574 C304.91382,247.549537 306.344402,250.442556 307.450398,253.37659 L304.488052,255.598373 C305.315545,258.253308 305.779382,260.859227 305.852514,263.278079 L310,267.726647 C309.867761,270.273544 309.356839,272.557349 308.489273,274.487029 L303.979133,271.666035 C303.017397,273.215581 301.720056,274.343979 300.155231,274.990206 L301.345379,280.698218 C299.48402,281.140373 297.41729,281.096358 295.229341,280.568172 L292.566535,274.828149 C290.540879,274.105895 288.460123,272.906472 286.434467,271.292903 L283.771661,273.961844 C281.58271,271.968141 279.51598,269.628317 277.654621,267.039405 L278.84577,262.703877 C277.279944,260.254013 275.982603,257.630089 275.021869,254.972152 L270.510727,252.592314 C269.643161,249.662281 269.13324,246.789269 269,244.090318 L273.147486,244.423435 C273.22162,242.089613 273.684455,240.017883 274.511948,238.316283 L271.549602,232.679297 C272.6566,231.020712 274.087182,229.777274 275.782241,229 L279.763427,233.750674 C281.421419,233.291512 283.295802,233.331526 285.288399,233.868716 L286.105874,229.219077 Z M289.5,246.988339 C285.891487,244.908606 282.961198,246.597201 282.961198,250.758667 C282.961198,254.919134 285.891487,259.986919 289.5,262.066652 C293.108513,264.147385 296.038802,262.45879 296.038802,258.297324 C296.038802,254.136858 293.108513,249.069072 289.5,246.988339 Z"/>
    <path stroke="#05122C" stroke-linecap="round" stroke-linejoin="round" d="M286.105874,229.219077 C288.35293,230.080381 290.64707,231.403847 292.894126,233.133457 L293.711601,238.724427 C295.704198,240.485047 297.579583,242.606795 299.236573,244.97763 L303.217759,244.816574 C304.91382,247.549537 306.344402,250.442556 307.450398,253.37659 L304.488052,255.598373 C305.315545,258.253308 305.779382,260.859227 305.852514,263.278079 L310,267.726647 C309.867761,270.273544 309.356839,272.557349 308.489273,274.487029 L303.979133,271.666035 C303.017397,273.215581 301.720056,274.343979 300.155231,274.990206 L301.345379,280.698218 C299.48402,281.140373 297.41729,281.096358 295.229341,280.568172 L292.566535,274.828149 C290.540879,274.105895 288.460123,272.906472 286.434467,271.292903 L283.771661,273.961844 C281.58271,271.968141 279.51598,269.628317 277.654621,267.039405 L278.84577,262.703877 C277.279944,260.254013 275.982603,257.630089 275.021869,254.972152 L270.510727,252.592314 C269.643161,249.662281 269.13324,246.789269 269,244.090318 L273.147486,244.423435 C273.22162,242.089613 273.684455,240.017883 274.511948,238.316283 L271.549602,232.679297 C272.6566,231.020712 274.087182,229.777274 275.782241,229 L279.763427,233.750674 C281.421419,233.291512 283.295802,233.331526 285.288399,233.868716 L286.105874,229.219077 Z M289.5,246.988339 C285.891487,244.908606 282.961198,246.597201 282.961198,250.758667 C282.961198,254.919134 285.891487,259.986919 289.5,262.066652 C293.108513,264.147385 296.038802,262.45879 296.038802,258.297324 C296.038802,254.136858 293.108513,249.069072 289.5,246.988339 Z"/>
    <path stroke="#EFF4F7" stroke-linecap="round" stroke-linejoin="round" d="M298 269C299.855186 267.812425 301 265.336842 301 261.838309 301 260.276963 300.772016 258.64107 300.354207 257M297 248.287036C295.239864 245.849219 293.085145 243.776581 290.759607 242.450092 284.820896 239.062809 280 241.812509 280 248.587076 280 255.362629 284.820896 263.612717 290.759607 267"/>
    <path fill="#5A6D83" d="M308.595454,215.120312 C309.856675,215.593608 311.143325,216.320454 312.404546,217.270028 L312.862247,220.340481 C313.980056,221.307953 315.031752,222.473293 315.962411,223.774855 L318.194976,223.687355 C319.146995,225.187781 319.949498,226.776701 320.569938,228.388491 L318.907973,229.607524 C319.372794,231.066189 319.632158,232.497012 319.67386,233.826415 L322,236.269454 C321.925751,237.667465 321.638925,238.922294 321.152744,239.982237 L318.649626,241.396157 C317.577588,240.879112 317.35484,239.903686 316.477071,240.258658 L317.145315,243.392748 C316.477071,243.965475 314.839517,245.248145 313.61186,244.957804 L312.220448,240.170163 C311.083315,239.77343 309.916685,239.114198 308.779552,238.22826 L307.286428,239.693885 C306.058772,238.598147 304.899261,237.313488 303.854685,235.891613 L304.522929,233.511216 C303.644143,232.16491 302.916906,230.724143 302.377836,229.264485 L299.847256,227.956957 C299.361075,226.34815 299.074249,224.770168 299,223.28764 L301.32614,223.470594 C301.367842,222.188918 301.627206,221.050424 302.092027,220.11676 L300.430062,217.020454 C300.696546,216.630681 299.971344,216.718181 300.301906,216.41392 C300.742316,216.008238 302.260868,215.243608 302.804007,215 L305.037589,217.60909 C305.967231,217.356533 307.018927,217.378408 308.137753,217.673721 L306.093353,216.534233 L308.595454,215.120312 Z M310.499491,224.879543 C308.475434,223.737071 306.831778,224.66477 306.831778,226.949713 C306.831778,229.235649 308.475434,232.017751 310.499491,233.161216 C312.524566,234.303688 314.168222,233.375989 314.168222,231.091047 C314.168222,228.80511 312.524566,226.022014 310.499491,224.879543 Z"/>
    <g transform="translate(299 215)">
      <mask id="digital-brain-dark@1x-l" fill="#fff">
        <use xlink:href="#digital-brain-dark@1x-k"/>
      </mask>
      <line x1="13.277" x2="10.881" y1="2.681" y2="4.015" stroke="#05122C" stroke-linecap="round" stroke-linejoin="round" mask="url(#digital-brain-dark@1x-l)"/>
      <line x1="19.026" x2="16.629" y1="9.109" y2="10.443" stroke="#05122C" stroke-linecap="round" stroke-linejoin="round" mask="url(#digital-brain-dark@1x-l)"/>
      <line x1="21.422" x2="19.026" y1="13.799" y2="15.133" stroke="#05122C" stroke-linecap="round" stroke-linejoin="round" mask="url(#digital-brain-dark@1x-l)"/>
      <line x1="22.776" x2="20.38" y1="21.692" y2="23.025" stroke="#05122C" stroke-linecap="round" stroke-linejoin="round" mask="url(#digital-brain-dark@1x-l)"/>
    </g>
    <path stroke="#01050C" stroke-linecap="round" stroke-linejoin="round" d="M308.595454,215.120312 C309.856675,215.593608 311.143325,216.320454 312.404546,217.270028 L312.862247,220.340481 C313.980056,221.307953 315.031752,222.473293 315.962411,223.774855 L318.194976,223.687355 C319.146995,225.187781 319.949498,226.776701 320.569938,228.388491 L318.907973,229.607524 C319.372794,231.066189 319.632158,232.497012 319.67386,233.826415 L322,236.269454 C321.925751,237.667465 321.638925,238.922294 321.152744,239.982237 L318.649626,241.396157 C317.577588,240.879112 317.35484,239.903686 316.477071,240.258658 L317.145315,243.392748 C316.477071,243.965475 314.839517,245.248145 313.61186,244.957804 L312.220448,240.170163 C311.083315,239.77343 309.916685,239.114198 308.779552,238.22826 L307.286428,239.693885 C306.058772,238.598147 304.899261,237.313488 303.854685,235.891613 L304.522929,233.511216 C303.644143,232.16491 302.916906,230.724143 302.377836,229.264485 L299.847256,227.956957 C299.361075,226.34815 299.074249,224.770168 299,223.28764 L301.32614,223.470594 C301.367842,222.188918 301.627206,221.050424 302.092027,220.11676 L300.430062,217.020454 C300.696546,216.630681 299.971344,216.718181 300.301906,216.41392 C300.742316,216.008238 302.260868,215.243608 302.804007,215 L305.037589,217.60909 C305.967231,217.356533 307.018927,217.378408 308.137753,217.673721 L306.093353,216.534233 L308.595454,215.120312 Z M310.499491,224.879543 C308.475434,223.737071 306.831778,224.66477 306.831778,226.949713 C306.831778,229.235649 308.475434,232.017751 310.499491,233.161216 C312.524566,234.303688 314.168222,233.375989 314.168222,231.091047 C314.168222,228.80511 312.524566,226.022014 310.499491,224.879543 Z"/>
    <path fill="#B1BBC9" d="M306.596047,216.122171 C307.856195,216.602778 309.142788,217.339843 310.403953,218.305096 L310.862651,221.422983 C311.98041,222.4054 313.03206,223.588743 313.961661,224.910412 L316.195145,224.82055 C317.146104,226.345165 317.948572,227.958631 318.568984,229.59431 L316.90811,230.833185 C317.371894,232.314383 317.631246,233.76731 317.672946,235.116241 L320,237.59803 C319.924737,239.017638 319.63894,240.291852 319.151764,241.368169 L316.621297,239.794081 C316.08225,240.659375 315.355046,241.288405 314.477315,241.64785 L315.144512,244.831366 C314.100999,245.078737 312.940524,245.053495 311.713938,244.758669 L310.219864,241.557989 C309.083798,241.155127 307.916202,240.48672 306.780136,239.587097 L305.286062,241.075363 C304.058459,239.962697 302.899001,238.658193 301.855488,237.214352 L302.522685,234.796173 C301.644954,233.430078 300.916733,231.967054 300.377686,230.484846 L297.847219,229.157119 C297.36106,227.523459 297.074246,225.9211 297,224.415669 L299.326037,224.60145 C299.367737,223.299975 299.628106,222.143893 300.09189,221.195805 L298.429999,218.051666 C299.051428,217.126801 299.853896,216.433152 300.804855,216 L303.038339,218.649396 C303.96794,218.392938 305.01959,218.415151 306.137349,218.715025 L306.596047,216.122171 Z M308.5,226.032164 C306.475015,224.872044 304.831432,225.814074 304.831432,228.134315 C304.831432,230.454556 306.475015,233.280646 308.5,234.440766 C310.523967,235.601896 312.167551,234.659866 312.167551,232.338616 C312.167551,230.018375 310.523967,227.192285 308.5,226.032164 Z"/>
    <path stroke="#05122C" stroke-linecap="round" stroke-linejoin="round" d="M306.596047,216.122171 C307.856195,216.602778 309.142788,217.339843 310.403953,218.305096 L310.862651,221.422983 C311.98041,222.4054 313.03206,223.588743 313.961661,224.910412 L316.195145,224.82055 C317.146104,226.345165 317.948572,227.958631 318.568984,229.59431 L316.90811,230.833185 C317.371894,232.314383 317.631246,233.76731 317.672946,235.116241 L320,237.59803 C319.924737,239.017638 319.63894,240.291852 319.151764,241.368169 L316.621297,239.794081 C316.08225,240.659375 315.355046,241.288405 314.477315,241.64785 L315.144512,244.831366 C314.100999,245.078737 312.940524,245.053495 311.713938,244.758669 L310.219864,241.557989 C309.083798,241.155127 307.916202,240.48672 306.780136,239.587097 L305.286062,241.075363 C304.058459,239.962697 302.899001,238.658193 301.855488,237.214352 L302.522685,234.796173 C301.644954,233.430078 300.916733,231.967054 300.377686,230.484846 L297.847219,229.157119 C297.36106,227.523459 297.074246,225.9211 297,224.415669 L299.326037,224.60145 C299.367737,223.299975 299.628106,222.143893 300.09189,221.195805 L298.429999,218.051666 C299.051428,217.126801 299.853896,216.433152 300.804855,216 L303.038339,218.649396 C303.96794,218.392938 305.01959,218.415151 306.137349,218.715025 L306.596047,216.122171 Z M308.5,226.032164 C306.475015,224.872044 304.831432,225.814074 304.831432,228.134315 C304.831432,230.454556 306.475015,233.280646 308.5,234.440766 C310.523967,235.601896 312.167551,234.659866 312.167551,232.338616 C312.167551,230.018375 310.523967,227.192285 308.5,226.032164 Z"/>
    <path stroke="#EFF4F7" stroke-linecap="round" stroke-linejoin="round" d="M312 238C313.237308 237.405996 314 236.168332 314 234.42005 314 233.638663 313.847698 232.820737 313.569067 232M312 227.203789C311.067843 225.798231 309.927052 224.601858 308.696299 223.83622 305.552425 221.882453 303 223.469373 303 227.376907 303 231.285472 305.552425 236.045203 308.696299 238"/>
    <polygon fill="#FFF" points="389.926 369 380 369.984 381.074 382 391 381.016"/>
    <polygon stroke="#01050C" stroke-linecap="round" stroke-linejoin="round" points="389.926 369 380 369.984 381.074 382 391 381.016"/>
    <path fill="#FFF" d="M401.5,351 C402.880132,351 404,352.120661 404,353.499725 C404,354.879797 402.880132,356 401.5,356 C400.119868,356 399,354.879797 399,353.499725 C399,352.120661 400.119868,351 401.5,351 Z"/>
    <path stroke="#01050C" stroke-linecap="round" stroke-linejoin="round" d="M401.5,351 C402.880132,351 404,352.120661 404,353.499725 C404,354.879797 402.880132,356 401.5,356 C400.119868,356 399,354.879797 399,353.499725 C399,352.120661 400.119868,351 401.5,351 Z"/>
    <path fill="#FFF" d="M374.937917,383.35307 L374.393226,353.048677 L380.713663,357.113492 L371.89168,348.114311 L371,338.819109 C371,338.819109 371.66069,337.271585 372.297172,335.783427 C373.025445,334.078938 374.522338,332.820192 376.329906,332.39256 C378.754791,331.818024 382.325546,330.972823 385.477695,330.227235 C389.435786,329.29047 393.496762,331.318953 395.115706,335.041864 C396.620668,338.501152 398.171021,342.065084 398.171021,342.065084 L402,349.373057 L398.171021,350.46377 L394.1978,346.590936 C394.1978,346.590936 394.018254,343.77863 393.850812,341.166555 C393.842742,341.029713 393.728761,340.924063 393.59057,340.924063 C393.453389,340.925069 393.340416,341.032731 393.333355,341.169573 C392.970227,347.866788 392.317606,359.878407 392.317606,359.878407 L394.1978,382.489857 L395.094524,400.650417 L395.094524,400.650417 C395.107637,400.781322 395.113689,400.913939 395.113689,401.048165 C395.113689,403.253134 393.319233,405.043351 391.109199,405.043351 C388.898155,405.043351 387.1037,403.253134 387.1037,401.048165 C387.1037,401.005301 387.104708,400.962638 387.105717,400.920076 L386.052647,383.572319 L384.173462,370.502387 L382.925715,404.58815 C382.939837,404.725092 382.947906,404.864148 382.947906,405.004814 C382.947906,407.209783 381.153451,409 378.942407,409 C376.732372,409 374.937917,407.209783 374.937917,405.004814 L374.937917,383.35307 Z"/>
    <g transform="translate(370 330)">
      <mask id="digital-brain-dark@1x-n" fill="#fff">
        <use xlink:href="#digital-brain-dark@1x-m"/>
      </mask>
      <path fill="#EFF4F7" d="M0.842,67.3216 C0.842,67.3216 5.154,73.1669 6.925,75.5683 C7.398,76.2096 8.131,76.6091 8.926,76.66 C8.927,76.66 8.927,76.6601 8.928,76.6601 C9.49,76.696 10.04,76.4927 10.444,76.1002 C10.848,75.7078 11.066,75.163 11.046,74.6005 C10.85,69.1502 10.357,55.4596 10.357,55.4596 L3.31,55.2789 L12.332,13.516 L16.209,25.4007 L18.792,31.6708 L13.902,41.2103 L16.209,80.7636 L3.31,82.2036 L0.842,67.3216 Z" mask="url(#digital-brain-dark@1x-n)"/>
      <path fill="#EFF4F7" d="M11.653,62.6393 C11.653,62.6393 15.898,68.3948 17.695,70.8298 C18.194,71.5067 18.967,71.9285 19.806,71.9821 C19.807,71.9822 19.808,71.9822 19.808,71.9823 C20.36,72.0175 20.901,71.8231 21.304,71.445 C21.707,71.0669 21.936,70.539 21.936,69.9864 C21.936,65.149 21.936,53.7588 21.936,53.7588 L14.63,53.6975 C10.59,40.689 13.521,25.7081 23.143,8.834 L27.019,20.718 L29.603,26.9885 L24.712,36.528 L27.019,76.0813 L14.121,77.5214 L11.653,62.6393 Z" mask="url(#digital-brain-dark@1x-n)"/>
      <polygon fill="#D1D9E0" points="3.919 26.631 12.288 32.347 23.468 29.131 22.807 22.187 3.919 21.668" mask="url(#digital-brain-dark@1x-n)"/>
    </g>
    <path stroke="#01050C" stroke-linecap="round" stroke-linejoin="round" d="M374.937917,383.35307 L374.393226,353.048677 L380.713663,357.113492 L371.89168,348.114311 L371,338.819109 C371,338.819109 371.66069,337.271585 372.297172,335.783427 C373.025445,334.078938 374.522338,332.820192 376.329906,332.39256 C378.754791,331.818024 382.325546,330.972823 385.477695,330.227235 C389.435786,329.29047 393.496762,331.318953 395.115706,335.041864 C396.620668,338.501152 398.171021,342.065084 398.171021,342.065084 L402,349.373057 L398.171021,350.46377 L394.1978,346.590936 C394.1978,346.590936 394.018254,343.77863 393.850812,341.166555 C393.842742,341.029713 393.728761,340.924063 393.59057,340.924063 C393.453389,340.925069 393.340416,341.032731 393.333355,341.169573 C392.970227,347.866788 392.317606,359.878407 392.317606,359.878407 L394.1978,382.489857 L395.094524,400.650417 L395.094524,400.650417 C395.107637,400.781322 395.113689,400.913939 395.113689,401.048165 C395.113689,403.253134 393.319233,405.043351 391.109199,405.043351 C388.898155,405.043351 387.1037,403.253134 387.1037,401.048165 C387.1037,401.005301 387.104708,400.962638 387.105717,400.920076 L386.052647,383.572319 L384.173462,370.502387 L382.925715,404.58815 C382.939837,404.725092 382.947906,404.864148 382.947906,405.004814 C382.947906,407.209783 381.153451,409 378.942407,409 C376.732372,409 374.937917,407.209783 374.937917,405.004814 L374.937917,383.35307 Z"/>
    <path fill="#D1D9E0" d="M389.156691,351.858236 C389.156691,351.858236 383.781734,333.385748 387.059197,330.20577 C391.081957,329.274191 393.357831,331.598636 395.003226,335.300939 C396.532777,338.741078 398.108461,342.285283 398.108461,342.285283 L402,349.552803 L398.108461,350.637477 L394.070323,346.786082 C394.070323,346.786082 392.594081,345.780456 392.423903,343.182841 C392.415701,343.046756 392.299857,342.941691 392.159409,342.941691 C392.019986,342.942692 391.905167,343.049758 391.897991,343.185843 C391.528931,349.845985 392.159409,360 392.159409,360 L389.156691,351.858236 Z"/>
    <g transform="translate(385 330)">
      <mask id="digital-brain-dark@1x-p" fill="#fff">
        <use xlink:href="#digital-brain-dark@1x-o"/>
      </mask>
      <path fill="#EFF4F7" d="M-14.158,67.3216 C-14.158,67.3216 -9.846,73.1669 -8.075,75.5683 C-7.602,76.2096 -6.869,76.6091 -6.074,76.66 C-6.073,76.66 -6.073,76.6601 -6.072,76.6601 C-5.51,76.696 -4.96,76.4927 -4.556,76.1002 C-4.152,75.7078 -3.934,75.163 -3.954,74.6005 C-4.15,69.1502 -4.643,55.4596 -4.643,55.4596 L-11.69,55.2789 L-2.668,13.516 L1.209,25.4007 L3.792,31.6708 L-1.098,41.2103 L1.209,80.7636 L-11.69,82.2036 L-14.158,67.3216 Z" mask="url(#digital-brain-dark@1x-p)"/>
      <path fill="#EFF4F7" d="M-3.347,62.6393 C-3.347,62.6393 0.898,68.3948 2.695,70.8298 C3.194,71.5067 3.967,71.9285 4.806,71.9821 C4.807,71.9822 4.808,71.9822 4.808,71.9823 C5.36,72.0175 5.901,71.8231 6.304,71.445 C6.707,71.0669 6.936,70.539 6.936,69.9864 C6.936,65.149 6.936,53.7588 6.936,53.7588 L-0.37,53.6975 C-4.41,40.689 -2.686,28.9664 6.936,12.092 L12.019,20.718 L14.603,26.9885 L9.712,36.528 L12.019,76.0813 L-0.879,77.5214 L-3.347,62.6393 Z" mask="url(#digital-brain-dark@1x-p)"/>
      <polygon fill="#D1D9E0" points="-11.081 26.631 -2.712 32.347 8.468 29.131 7.807 22.187 -11.081 21.668" mask="url(#digital-brain-dark@1x-p)"/>
    </g>
    <path stroke="#01050C" stroke-linecap="round" stroke-linejoin="round" d="M389.156691,351.858236 C389.156691,351.858236 383.781734,333.385748 387.059197,330.20577 C391.081957,329.274191 393.357831,331.598636 395.003226,335.300939 C396.532777,338.741078 398.108461,342.285283 398.108461,342.285283 L402,349.552803 L398.108461,350.637477 L394.070323,346.786082 C394.070323,346.786082 392.594081,345.780456 392.423903,343.182841 C392.415701,343.046756 392.299857,342.941691 392.159409,342.941691 C392.019986,342.942692 391.905167,343.049758 391.897991,343.185843 C391.528931,349.845985 392.159409,360 392.159409,360 L389.156691,351.858236 Z"/>
    <path fill="#FFF" d="M381.000516,312 C385.416124,312 389,315.584908 389,320.000516 C389,324.416124 385.416124,328 381.000516,328 C376.584908,328 373,324.416124 373,320.000516 C373,315.584908 376.584908,312 381.000516,312 Z"/>
    <path stroke="#01050C" stroke-linecap="round" stroke-linejoin="round" d="M381.000516,312 C385.416124,312 389,315.584908 389,320.000516 C389,324.416124 385.416124,328 381.000516,328 C376.584908,328 373,324.416124 373,320.000516 C373,315.584908 376.584908,312 381.000516,312 Z"/>
    <path fill="#D1D9E0" d="M380.114359,333 C380.114359,333 378.34048,333.388245 376.663693,333.755691 C374.832529,334.156811 373.313031,335.455253 372.604256,337.224144 C372.039178,338.636484 371.473129,340.047833 371.473129,340.047833 C371.473129,340.047833 370.113834,344.538401 369.168154,347.660206 C368.648709,349.378586 369.36331,351.234635 370.889603,352.131956 C374.579117,354.299987 380.87168,358 380.87168,358 L384,353.727523 L375.237404,347.701804 L379.137609,337.21424 L380.114359,333 Z"/>
    <path fill="#D1D9E0" d="M373.55355,350.640096 L374.278193,360.245773 L371,381.822993 C373.457656,383.262571 377.402165,383.277514 380.870169,382.428951 C380.870169,382.428951 382.584399,350.423467 382.989724,342.851492 C383.046074,341.802448 382.870104,340.755409 382.475653,339.784592 C381.414887,337.171007 379.314115,332 379.314115,332"/>
    <g transform="translate(371 332)">
      <mask id="digital-brain-dark@1x-r" fill="#fff">
        <use xlink:href="#digital-brain-dark@1x-q"/>
      </mask>
      <polygon fill="#EFF4F7" points="2.919 24.631 11.288 30.347 22.468 27.131 21.807 20.187 2.919 19.668" mask="url(#digital-brain-dark@1x-r)"/>
      <polygon fill="#D1D9E0" points="2.392 31.506 12.392 31.506 12.392 16.506 2.392 16.506" mask="url(#digital-brain-dark@1x-r)"/>
    </g>
    <path stroke="#01050C" stroke-linecap="round" stroke-linejoin="round" d="M373.55355,350.640096 L374.278193,360.245773 L371,381.822993 C373.457656,383.262571 377.402165,383.277514 380.870169,382.428951 C380.870169,382.428951 382.584399,350.423467 382.989724,342.851492 C383.046074,341.802448 382.870104,340.755409 382.475653,339.784592 C381.414887,337.171007 379.314115,332 379.314115,332"/>
    <path fill="#D1D9E0" d="M387.027983,331 C387.027983,331 386.279335,338.247687 386.038278,340.578126 C385.989282,341.051654 385.987322,341.529203 386.032398,342.003736 C386.54293,347.410596 389.783481,381.744765 389.783481,381.744765 C393.010315,382.408609 395.58649,381.743257 398,380.146836 C396.461546,374.090709 393.69233,358.263628 393.69233,358.263628 C393.69233,358.263628 393.233733,352.391182 393.010315,349.532925"/>
    <g transform="translate(385 330)">
      <mask id="digital-brain-dark@1x-t" fill="#fff">
        <use xlink:href="#digital-brain-dark@1x-s"/>
      </mask>
      <polygon fill="#EFF4F7" points="-11.081 26.631 -2.712 32.347 2.284 29.463 1.622 22.518 -11.081 21.668" mask="url(#digital-brain-dark@1x-t)"/>
    </g>
    <path stroke="#01050C" stroke-linecap="round" stroke-linejoin="round" d="M387.027983,331 C387.027983,331 386.279335,338.247687 386.038278,340.578126 C385.989282,341.051654 385.987322,341.529203 386.032398,342.003736 C386.54293,347.410596 389.783481,381.744765 389.783481,381.744765 C393.010315,382.408609 395.58649,381.743257 398,380.146836 C396.461546,374.090709 393.69233,358.263628 393.69233,358.263628 C393.69233,358.263628 393.233733,352.391182 393.010315,349.532925"/>
    <path fill="#D1D9E0" d="M373.901756,347.404011 L384,354.198764 L380.018429,358 C380.018429,358 373.566664,354.244601 369.85297,352.083313 C368.358398,351.213417 367.65757,349.418821 368.16268,347.754759 C369.20552,344.322009 370.822662,339 370.822662,339"/>
    <path stroke="#01050C" stroke-linecap="round" stroke-linejoin="round" d="M373.901756,347.404011 L384,354.198764 L380.018429,358 C380.018429,358 373.566664,354.244601 369.85297,352.083313 C368.358398,351.213417 367.65757,349.418821 368.16268,347.754759 C369.20552,344.322009 370.822662,339 370.822662,339"/>
    <polygon fill="#B1BBC9" points="387.527 342.913 406 338 401.473 353.07 383 358"/>
    <polygon stroke="#01050C" stroke-linecap="round" stroke-linejoin="round" points="387.527 342.913 406 338 401.473 353.07 383 358"/>
    <path fill="#FFF" d="M382.5,353 C383.880132,353 385,354.119868 385,355.499817 C385,356.879674 383.880132,358 382.5,358 C381.119868,358 380,356.879674 380,355.499817 C380,354.119868 381.119868,353 382.5,353 Z"/>
    <path stroke="#01050C" stroke-linecap="round" stroke-linejoin="round" d="M382.5,353 C383.880132,353 385,354.119868 385,355.499817 C385,356.879674 383.880132,358 382.5,358 C381.119868,358 380,356.879674 380,355.499817 C380,354.119868 381.119868,353 382.5,353 Z"/>
    <line x1="376" x2="379" y1="363" y2="362" stroke="#01050C" stroke-linecap="round" stroke-linejoin="round"/>
    <line x1="393" x2="390" y1="362" y2="361" stroke="#01050C" stroke-linecap="round" stroke-linejoin="round"/>
    <line x1="375.948" x2="375.052" y1="344" y2="347" stroke="#01050C" stroke-linecap="round" stroke-linejoin="round"/>
    <path fill="#D1D9E0" d="M381.999516,317 C383.103265,317 384,317.896735 384,319.000484 C384,320.104232 383.103265,321 381.999516,321 C380.895768,321 380,320.104232 380,319.000484 C380,317.896735 380.895768,317 381.999516,317 Z"/>
    <path stroke="#01050C" stroke-linecap="round" stroke-linejoin="round" d="M381.999516,317 C383.103265,317 384,317.896735 384,319.000484 C384,320.104232 383.103265,321 381.999516,321 C380.895768,321 380,320.104232 380,319.000484 C380,317.896735 380.895768,317 381.999516,317 Z"/>
    <path fill="#D1D9E0" d="M387.000484,315 C388.104232,315 389,315.896735 389,317.000484 C389,318.104232 388.104232,319 387.000484,319 C385.896735,319 385,318.104232 385,317.000484 C385,315.896735 385.896735,315 387.000484,315 Z"/>
    <path stroke="#01050C" stroke-linecap="round" stroke-linejoin="round" d="M387.000484,315 C388.104232,315 389,315.896735 389,317.000484 C389,318.104232 388.104232,319 387.000484,319 C385.896735,319 385,318.104232 385,317.000484 C385,315.896735 385.896735,315 387.000484,315 Z"/>
    <line x1="379" x2="375" y1="319" y2="320" stroke="#01050C" stroke-linecap="round" stroke-linejoin="round"/>
    <line x1="383" x2="385" y1="317.671" y2="317.329" stroke="#01050C" stroke-linecap="round" stroke-linejoin="round"/>
    <path fill="#FFF" fill-opacity=".1" d="M398,290.928463 C398,288.081012 399.528965,285.449141 402.009642,284.025914 C417.068388,275.381758 470.153478,244.912133 485.073683,236.34882 C485.883844,235.883727 486.881736,235.883727 487.690893,236.34882 C488.501054,236.812916 489,237.672241 489,238.602429 C489,255.261965 489,313.256953 489,330.071187 C489,332.918639 487.472039,335.55051 484.991362,336.973737 C469.932616,345.617892 416.846522,376.087717 401.927321,384.651329 C401.11716,385.116224 400.119267,385.116224 399.309107,384.651329 C398.498946,384.186435 398,383.32731 398,382.397521 C398,365.738185 398,307.743696 398,290.928463 Z"/>
    <path stroke="#000" stroke-linecap="round" stroke-linejoin="round" stroke-opacity=".1" d="M398,290.928463 C398,288.081012 399.528965,285.449141 402.009642,284.025914 C417.068388,275.381758 470.153478,244.912133 485.073683,236.34882 C485.883844,235.883727 486.881736,235.883727 487.690893,236.34882 C488.501054,236.812916 489,237.672241 489,238.602429 C489,255.261965 489,313.256953 489,330.071187 C489,332.918639 487.472039,335.55051 484.991362,336.973737 C469.932616,345.617892 416.846522,376.087717 401.927321,384.651329 C401.11716,385.116224 400.119267,385.116224 399.309107,384.651329 C398.498946,384.186435 398,383.32731 398,382.397521 C398,365.738185 398,307.743696 398,290.928463 Z"/>
  </g>
</svg>
