<svg xmlns="http://www.w3.org/2000/svg" xmlns:xlink="http://www.w3.org/1999/xlink" width="82.01" height="99.17" viewBox="0 0 82.01 99.17">
  <defs>
    <style>
      .cls-1 {
        fill: none;
      }

      .cls-2, .cls-6 {
        fill: #4a4944;
      }

      .cls-3 {
        clip-path: url(#clip-path);
      }

      .cls-4 {
        fill: url(#linear-gradient);
      }

      .cls-5 {
        fill: #4c4c47;
      }

      .cls-5, .cls-6, .cls-7 {
        fill-rule: evenodd;
      }

      .cls-7, .cls-8 {
        fill: #fff;
      }
    </style>
    <clipPath id="clip-path" transform="translate(5.63)">
      <rect class="cls-1" x="0.95" y="59.76" width="68.85" height="15.55"/>
    </clipPath>
    <linearGradient id="linear-gradient" x1="-5.84" y1="104.06" x2="-4.91" y2="104.06" gradientTransform="matrix(68.58, -31.98, -31.98, -68.58, 3737.62, 7032.17)" gradientUnits="userSpaceOnUse">
      <stop offset="0" stop-color="#bd9a32"/>
      <stop offset="0.03" stop-color="#be9c36"/>
      <stop offset="0.07" stop-color="#c1a142"/>
      <stop offset="0.1" stop-color="#c7a955"/>
      <stop offset="0.13" stop-color="#ceb571"/>
      <stop offset="0.16" stop-color="#d8c494"/>
      <stop offset="0.16" stop-color="#d9c597"/>
      <stop offset="0.17" stop-color="#d8c494"/>
      <stop offset="0.18" stop-color="#d2ba74"/>
      <stop offset="0.2" stop-color="#ccb25b"/>
      <stop offset="0.23" stop-color="#c8ac47"/>
      <stop offset="0.25" stop-color="#c5a739"/>
      <stop offset="0.28" stop-color="#c4a530"/>
      <stop offset="0.33" stop-color="#c3a42e"/>
      <stop offset="0.37" stop-color="#c4a532"/>
      <stop offset="0.41" stop-color="#c6a93f"/>
      <stop offset="0.45" stop-color="#caae55"/>
      <stop offset="0.49" stop-color="#cfb672"/>
      <stop offset="0.52" stop-color="#d3bc87"/>
      <stop offset="0.54" stop-color="#d0b776"/>
      <stop offset="0.58" stop-color="#caaf57"/>
      <stop offset="0.63" stop-color="#c6a940"/>
      <stop offset="0.67" stop-color="#c4a533"/>
      <stop offset="0.71" stop-color="#c3a42e"/>
      <stop offset="0.88" stop-color="#cab06f"/>
      <stop offset="0.89" stop-color="#c7ab64"/>
      <stop offset="0.9" stop-color="#c2a453"/>
      <stop offset="0.92" stop-color="#bf9f46"/>
      <stop offset="0.94" stop-color="#bd9c3f"/>
      <stop offset="1" stop-color="#bc9b3d"/>
    </linearGradient>
  </defs>
  <g id="Layer_2" data-name="Layer 2">
    <g id="Layer_1-2" data-name="Layer 1">
      <g>
        <path class="cls-2" d="M69.44,35.71v52l-22.68,5a47.56,47.56,0,0,1-7.22,1H33.15a46.78,46.78,0,0,1-7.24-1L1.41,87.23A1.55,1.55,0,0,1,.8,87V35.71Z" transform="translate(5.63)"/>
        <g class="cls-3">
          <polygon class="cls-4" points="0 62.54 63.13 35.91 82.01 72.53 18.88 99.17 0 62.54"/>
        </g>
        <path class="cls-5" d="M68.74,78.43c0-.15,0-2.07,0-2.21" transform="translate(5.63)"/>
        <g>
          <path class="cls-6" d="M1.07,87.41l.08.06a.67.67,0,0,1-.27-.54V1.41A.67.67,0,0,1,1.55.73H68.72a.67.67,0,0,1,.67.68V86.93a.65.65,0,0,1-.3.56,1,1,0,0,0,.51-.83v-85a1,1,0,0,0-.94-.94h-67a1,1,0,0,0-.94.94V86.66a.92.92,0,0,0,.11.43A.88.88,0,0,0,1.07,87.41ZM25.1,93a43.7,43.7,0,0,0,6.9,1,44.36,44.36,0,0,0,13-1l18.21-4.17L45,93a45.2,45.2,0,0,1-20,0L7.24,88.92Z" transform="translate(5.63)"/>
          <path class="cls-6" d="M68.66,0h-67A1.61,1.61,0,0,0,0,1.61V86.66A1.58,1.58,0,0,0,.66,88a1.53,1.53,0,0,0,.59.28L25,93.7a43.8,43.8,0,0,0,7,1,45.67,45.67,0,0,0,6.19,0,44.52,44.52,0,0,0,7-1l21.94-5,2-.45a1.61,1.61,0,0,0,1.25-1.57v-85A1.61,1.61,0,0,0,68.66,0Zm.06,86.93L44.89,92.34a44.45,44.45,0,0,1-19.71,0L1.55,86.93V1.41H68.72Z" transform="translate(5.63)"/>
        </g>
        <path class="cls-7" d="M46.86,64.1v1.14H44.41v1.61h2.31V68H44.41v1.85H47V71H43V64.1Zm-8.92,0,1.68,4.71h0V64.1h1.27V71H39.33l-1.69-4.82h0V71H36.35V64.1Zm-6.67,0L33,68.81h0V64.1h1.27V71H32.66L31,66.16h0V71H29.68V64.1Zm17.53,0h2.56a1.63,1.63,0,0,1,1.83,1.77A1.51,1.51,0,0,1,52,67.57v0c.94.12,1.09.64,1.11,2.1,0,.72,0,1.09.31,1.23V71H52a1.43,1.43,0,0,1-.17-.73l0-1.32c0-.54-.26-.86-.82-.86h-.74V71H48.8Zm-31.62,0h1.33l.76,5.08h0l.81-5.08h1.32l.81,5.08h0L23,64.1h1.33L23.09,71H21.54l-.77-5h0L20,71H18.43ZM26.11,71H27.5V64.1H26.11ZM8.31,64.65,9.1,67h2.54L9.58,68.37l.79,2.3L8.31,69.25,6.25,70.67,7,68.37,5,67H7.52Zm54.09,0,.79,2.3h2.54l-2.06,1.42.79,2.3L62.4,69.25l-2.06,1.42.79-2.3L59.07,67h2.54ZM50.18,67.1h.58c.66,0,1-.28,1-1a.85.85,0,0,0-1-.95h-.66Z" transform="translate(5.63)"/>
        <path class="cls-7" d="M32.44,78c1.41,0,1.83.76,1.83,2.83,0,1.62-.09,3.11-1.83,3.11-1.41,0-1.82-.77-1.82-2.83C30.62,79.49,30.71,78,32.44,78Zm-3.12,5.82H25.73A3.26,3.26,0,0,1,27,81.27l.48-.44a1.47,1.47,0,0,0,.61-1.34c0-.48-.21-.72-.58-.72-.59,0-.65.52-.66,1.14H25.73v-.23c0-1.07.57-1.68,1.81-1.68s1.74.58,1.74,1.58a2.28,2.28,0,0,1-.9,1.86l-.66.6a2.1,2.1,0,0,0-.6.86h2.2Zm9.77,0H35.5a3.26,3.26,0,0,1,1.28-2.55l.48-.44a1.47,1.47,0,0,0,.61-1.34c0-.48-.21-.72-.58-.72-.59,0-.65.52-.65,1.14H35.5v-.23c0-1.07.57-1.68,1.81-1.68s1.74.58,1.74,1.58a2.25,2.25,0,0,1-.9,1.86l-.66.6a2.1,2.1,0,0,0-.6.86h2.2ZM31.8,81.36c0,1.47.13,1.8.64,1.8s.64-.46.64-2v-.64c0-1.46-.13-1.8-.64-1.8s-.64.46-.64,2Z" transform="translate(5.63)"/>
        <path class="cls-8" d="M42.66,83.94h-.95V79.67a3.35,3.35,0,0,1-1.23.86v-1a2.72,2.72,0,0,0,.82-.56,2.11,2.11,0,0,0,.59-.93h.77Z" transform="translate(5.63)"/>
        <g>
          <path class="cls-7" d="M51.13,53.87v.19c0,.94.42,1.42,1.27,1.42a1.1,1.1,0,0,0,1.17-1.13A1.3,1.3,0,0,0,52.47,53l-.85-.29A2.07,2.07,0,0,1,50,50.57a2.12,2.12,0,0,1,2.4-2.19c2,0,2.19,1.23,2.19,2v.18H53.36v-.17c0-.7-.31-1.11-1.08-1.11a1,1,0,0,0-1,1.11c0,.67.34,1,1.16,1.31l.83.31a2,2,0,0,1,1.57,2c0,1.65-1,2.33-2.55,2.33a2.12,2.12,0,0,1-2.35-2.36v-.18Z" transform="translate(5.63)"/>
          <polygon class="cls-7" points="36.33 48.53 37.91 48.53 39.94 56.26 38.66 56.26 38.18 54.37 35.92 54.37 35.42 56.26 34.13 56.26 36.33 48.53"/>
          <polygon class="cls-7" points="20.96 48.53 22.54 48.53 24.58 56.26 23.29 56.26 22.81 54.37 20.55 54.37 20.05 56.26 18.77 56.26 20.96 48.53"/>
          <path class="cls-7" d="M36.12,48.53h2.72a1.78,1.78,0,0,1,2,2c0,1-.44,1.77-1.29,1.9v0c.77.07,1.17.5,1.22,1.58,0,.5,0,1.1,0,1.57a.8.8,0,0,0,.37.67h-1.4a1.28,1.28,0,0,1-.2-.68c0-.47,0-.9-.06-1.46,0-.85-.28-1.22-1.12-1.22h-1v3.36H36.12Z" transform="translate(5.63)"/>
          <polygon class="cls-7" points="25.42 48.53 26.67 48.53 27.69 54.54 27.71 54.54 28.73 48.53 30.02 48.53 31.06 54.57 31.09 54.57 32.09 48.53 33.31 48.53 31.78 56.26 30.35 56.26 29.35 50.44 29.33 50.44 28.35 56.26 26.92 56.26 25.42 48.53"/>
          <path class="cls-7" d="M43.07,48.53h2.19c2.43,0,2.73,1.58,2.73,3.86s-.3,3.87-2.73,3.87H43.07Z" transform="translate(5.63)"/>
          <path class="cls-6" d="M44.3,55.33h1c1,0,1.44-.67,1.44-2.94s-.37-2.93-1.44-2.93h-1Z" transform="translate(5.63)"/>
          <polygon class="cls-6" points="22.61 53.38 21.72 49.57 21.7 49.57 20.78 53.38 22.61 53.38"/>
          <polygon class="cls-6" points="37.97 53.38 37.09 49.57 37.06 49.57 36.14 53.38 37.97 53.38"/>
          <path class="cls-6" d="M38.34,52a1.13,1.13,0,0,0,1.23-1.25c0-.83-.36-1.26-1.17-1.26h-1V52Z" transform="translate(5.63)"/>
          <path class="cls-7" d="M22.84,43.7v.16c0,1.4-.56,2.76-2.38,2.76s-2.55-1.26-2.55-4,.6-4,2.56-4A2.11,2.11,0,0,1,22.8,41v.14H21.57V41c0-.71-.22-1.53-1.11-1.5s-1.32.56-1.32,3,.41,3.12,1.32,3.12,1.15-1.15,1.15-1.86V43.7Z" transform="translate(5.63)"/>
          <path class="cls-7" d="M56.37,43.7v.16c0,1.4-.57,2.76-2.38,2.76s-2.56-1.26-2.56-4,.61-4,2.57-4A2.11,2.11,0,0,1,56.32,41v.14H55.09V41c0-.71-.22-1.53-1.1-1.5s-1.32.56-1.32,3,.41,3.12,1.32,3.12,1.14-1.15,1.14-1.86V43.7Z" transform="translate(5.63)"/>
          <polygon class="cls-7" points="12.57 38.74 16.75 38.74 16.75 39.78 13.8 39.78 13.8 41.92 16.58 41.92 16.58 42.96 13.8 42.96 13.8 45.43 16.84 45.43 16.84 46.47 12.57 46.47 12.57 38.74"/>
          <polygon class="cls-7" points="50.8 38.74 52.3 38.74 54.54 44.5 54.56 44.5 54.56 38.74 55.73 38.74 55.73 46.47 54.23 46.47 51.99 40.56 51.97 40.56 51.97 46.47 50.8 46.47 50.8 38.74"/>
          <polygon class="cls-7" points="45.39 38.74 49.57 38.74 49.57 39.78 46.63 39.78 46.63 41.92 49.4 41.92 49.4 42.96 46.63 42.96 46.63 45.43 49.66 45.43 49.66 46.47 45.39 46.47 45.39 38.74"/>
          <polygon class="cls-7" points="29.63 38.74 33.81 38.74 33.81 39.78 30.86 39.78 30.86 41.92 33.63 41.92 33.63 42.96 30.86 42.96 30.86 45.43 33.9 45.43 33.9 46.47 29.63 46.47 29.63 38.74"/>
          <polygon class="cls-7" points="63.15 38.74 67.33 38.74 67.33 39.78 64.39 39.78 64.39 41.92 67.16 41.92 67.16 42.96 64.39 42.96 64.39 45.43 67.42 45.43 67.42 46.47 63.15 46.47 63.15 38.74"/>
          <polygon class="cls-7" points="34.96 38.74 36.2 38.74 36.2 45.43 39.18 45.43 39.18 46.47 34.96 46.47 34.96 38.74"/>
          <polygon class="cls-7" points="40.14 38.74 41.38 38.74 41.38 45.43 44.36 45.43 44.36 46.47 40.14 46.47 40.14 38.74"/>
          <polygon class="cls-7" points="19.69 42.54 17.83 38.74 19.19 38.74 20.43 41.31 21.64 38.74 22.97 38.74 21.1 42.54 23.07 46.47 21.7 46.47 20.36 43.68 18.98 46.47 17.65 46.47 19.69 42.54"/>
        </g>
        <g>
          <path class="cls-6" d="M9.41,29.06v.27c0,.84.26,1.39,1.27,1.39a1.07,1.07,0,0,0,1.14-1.11c0-.82-.44-1.13-1.7-1.54-1.71-.56-2.49-1.23-2.49-2.73,0-1.75,1.13-2.65,2.94-2.65s2.94.7,2.94,2.42v.26H11.67c0-.85-.3-1.34-1-1.34a1,1,0,0,0-1.1,1c0,.55.18.89,1,1.22l1.48.61c1.43.59,1.81,1.28,1.81,2.38,0,1.9-1.23,2.76-3.3,2.76s-3-1-3-2.62v-.37Z" transform="translate(5.63)"/>
          <path class="cls-6" d="M26.22,25.91c0-1.31-.28-1.88-1.15-1.88s-1.19.92-1.19,3.47c0,2.72.4,3.22,1.22,3.22s1.2-.34,1.2-2.29h1.92c0,1.95-.51,3.62-3,3.62-2.87,0-3.23-1.94-3.23-4.68s.36-4.68,3.23-4.68,2.95,1.91,2.95,3.22Z" transform="translate(5.63)"/>
          <path class="cls-6" d="M31.62,22.87v6.28c0,.9.23,1.57,1.12,1.57s1.12-.67,1.12-1.57V22.87h1.91v6.28c0,2.3-1.47,2.9-3,2.9s-3-.49-3-2.9V22.87Z" transform="translate(5.63)"/>
          <polygon class="cls-6" points="26.23 22.87 26.23 24.36 22.84 24.36 22.84 26.48 26.03 26.48 26.03 27.96 22.84 27.96 22.84 30.39 26.37 30.39 26.37 31.88 20.92 31.88 20.92 22.87 26.23 22.87"/>
          <polygon class="cls-6" points="60.58 22.87 60.58 24.36 58.5 24.36 58.5 31.88 56.59 31.88 56.59 24.36 54.51 24.36 54.51 22.87 60.58 22.87"/>
          <polygon class="cls-6" points="63.81 22.87 65.06 26.35 65.09 26.35 66.42 22.87 68.5 22.87 66.04 28.33 66.04 31.88 64.12 31.88 64.12 28.33 61.66 22.87 63.81 22.87"/>
          <path class="cls-6" d="M43.57,30.19c0-1.91-.22-2.59-1.53-2.75v0a2,2,0,0,0,1.59-2.22c0-1.54-1-2.32-2.53-2.32H37.56v9h1.91V28.07h1a1,1,0,0,1,1.13,1.13l0,1.73a1.84,1.84,0,0,0,.24.95H44V31.8C43.64,31.62,43.58,31.13,43.57,30.19Zm-3.3-3.39h-.8V24.21h.91c.86,0,1.33.41,1.33,1.24C41.71,26.43,41.19,26.8,40.27,26.8Z" transform="translate(5.63)"/>
          <rect class="cls-2" x="51.16" y="22.87" width="1.92" height="9.01"/>
          <path class="cls-6" d="M14.2,11.91c0-1.94-.41-2.78-1.69-2.78-1.44,0-1.78,1.36-1.78,5.14,0,4,.59,4.76,1.82,4.76,1,0,1.77-.5,1.77-3.38h2.84c0,2.88-.75,5.36-4.48,5.36-4.26,0-4.79-2.87-4.79-6.93s.53-6.93,4.79-6.93C16.75,7.15,17,10,17,11.91Z" transform="translate(5.63)"/>
          <path class="cls-6" d="M62.33,18.25c0-2.82-.34-3.83-2.27-4.08v0c1.6-.32,2.35-1.52,2.35-3.29,0-2.28-1.42-3.44-3.75-3.44H53.41V20.75h2.84V15.11h1.52a1.52,1.52,0,0,1,1.68,1.68l.08,2.56a2.54,2.54,0,0,0,.35,1.4H63v-.11C62.42,20.38,62.35,19.65,62.33,18.25Zm-4.89-5H56.25V9.39h1.34c1.29,0,2,.62,2,1.85C59.57,12.68,58.8,13.24,57.44,13.24Z" transform="translate(5.63)"/>
          <path class="cls-6" d="M37.62,13.74v0a2.81,2.81,0,0,0,2.13-2.92c0-2.56-1.67-3.38-4-3.38H31V20.75h4.79c3.31,0,4.4-1.81,4.4-3.9A2.87,2.87,0,0,0,37.62,13.74ZM33.84,9.39h1c1.4,0,2,.47,2,1.74s-.71,1.76-2.26,1.76h-.81Zm1.1,9.38h-1.1v-4h1.22c1.24,0,2.17.45,2.17,2S36.3,18.77,34.94,18.77Z" transform="translate(5.63)"/>
          <polygon class="cls-6" points="56.44 7.41 56.44 9.62 51.41 9.62 51.41 12.75 56.15 12.75 56.15 14.96 51.41 14.96 51.41 18.55 56.64 18.55 56.64 20.75 48.58 20.75 48.58 7.41 56.44 7.41"/>
          <polygon class="cls-6" points="27.66 7.41 29.51 12.57 29.55 12.57 31.52 7.41 34.6 7.41 30.95 15.5 30.95 20.75 28.11 20.75 28.11 15.5 24.46 7.41 27.66 7.41"/>
        </g>
      </g>
    </g>
  </g>
</svg>
