<svg xmlns="http://www.w3.org/2000/svg" xmlns:xlink="http://www.w3.org/1999/xlink" width="335" height="335" viewBox="0 0 335 335">
  <defs>
    <path id="insider-threats@1x-a" d="M35.162,3.9054 C35.162,4.6337 34.774,5.3067 34.143,5.6708 C30.463,7.7956 18.077,14.9464 18.077,14.9464 C16.221,16.0182 13.9338,16.0182 12.0774,14.9464 C9.237,13.3065 4.9351,10.8228 1.6837,8.9456 C0.7918,8.4306 0.2289,7.4959 0.1865,6.4726 L0.1865,3.2454 L35.162,0.2794 C35.162,0.2794 35.162,2.4835 35.162,3.9054 Z"/>
    <path id="insider-threats@1x-c" d="M23.269,0.9561 C21.412,-0.1157 19.125,-0.1157 17.269,0.9561 C13.3046,3.2448 6.2873,7.2962 1.6864,9.9526 C0.7582,10.4885 0.1865,11.4788 0.1865,12.5506 C0.1865,13.6224 0.7583,14.6128 1.6865,15.1487 C4.9378,17.0258 9.2397,19.5096 12.0801,21.1495 C13.9365,22.2213 16.224,22.2213 18.08,21.1495 C22.044,18.8608 29.062,14.8093 33.662,12.153 C34.591,11.6171 35.162,10.6267 35.162,9.5549 C35.162,8.4831 34.591,7.4928 33.662,6.9569 C30.411,5.0797 26.109,2.596 23.269,0.9561 Z"/>
    <path id="insider-threats@1x-e" d="M0.2831,4.134 C0.1026,3.21 0.626,2.248 1.8531,1.539 C3.9929,0.304 7.467,0.304 9.607,1.539 C10.834,2.248 11.357,3.21 11.177,4.134 L11.212,4.134 L11.212,62.4326 C11.212,63.2429 10.677,64.0532 9.607,64.6709 C7.467,65.9062 3.9929,65.9062 1.8531,64.6709 C0.7833,64.0532 0.248385574,63.2429 0.248385574,62.4326 C0.248385574,62.4326 0.248385574,4.134 0.248385574,4.134 L0.2831,4.134 Z"/>
    <polygon id="insider-threats@1x-g" points="38.574 .165 .49 22.153 3.387 25.826 18.149 34.348 57.965 11.36 41.647 3.939"/>
    <path id="insider-threats@1x-i" d="M31.598,28.5352 C30.7011,29.0529 29.5962,29.0529 28.6993,28.5351 C22.764,25.1084 0.6252,12.327 0.6252,12.327 L0.6252,3.303 L12.5457,10.185 L15.1865,13.71 C15.1865,13.71 24.9437,19.343 28.6994,21.512 C29.5962,22.03 30.7011,22.03 31.598,21.512 C38.56,17.492 68.233,0.36 68.233,0.36 L68.233,7.384 C68.233,7.384 38.56,24.5158 31.598,28.5352 Z"/>
    <path id="insider-threats@1x-k" d="M12.216,0.278 C18.822,0.278 24.184,5.64 24.184,12.246 C24.184,18.851 18.822,24.214 12.216,24.214 C5.611,24.214 0.248,18.851 0.248,12.246 C0.248,5.64 5.611,0.278 12.216,0.278 Z"/>
    <path id="insider-threats@1x-m" d="M2.916,31.52 L2.915,31.52 C2.915,31.52 15.005,24.539 16.546,23.65 C16.651,23.589 16.737,23.5 16.794,23.393 C17.538,22.008 22.829,12.143 25.916,6.389 C27.304,3.799 29.892,2.073 32.816,1.784 C36.191,1.452 40.818,0.995 44.703,0.612 C46.565,0.428 48.415,1.074 49.759,2.376 C51.103,3.679 51.806,5.507 51.681,7.375 C50.924,18.641 49.582,38.626 49.582,38.626 L48.193,75.5401 L48.343,99.0507 L48.325,99.0501 C48.337,99.2064 48.343,99.3644 48.343,99.5238 C48.343,102.9067 45.596,105.6532 42.213,105.6532 C39.803,105.6532 37.716,104.2593 36.715,102.2344 L36.754,103.1289 L36.734,103.1302 C36.748,103.294 36.754,103.4596 36.754,103.6268 C36.754,107.0097 34.008,109.7562 30.625,109.7562 C27.328,109.7562 24.635,107.1469 24.501,103.8823 L24.496,103.8827 L23.048,75.3549 L24.119,41.422 L25.985,24.335 C25.985,24.335 23.415,27.971 22.254,29.614 C21.886,30.134 21.411,30.568 20.859,30.886 C17.751,32.68 7.048,38.86 7.048,38.86 L7.047,38.86 C6.428,39.219 5.709,39.424 4.942,39.424 C2.617,39.424 0.73,37.537 0.73,35.213 C0.73,33.623 1.613,32.237 2.916,31.52 Z M36.501,97.2991 C36.524,97.2391 36.549,97.1796 36.574,97.1205 L35.65,77.7026 C35.65,77.7026 36.501,97.2991 36.501,97.2991 Z"/>
    <path id="insider-threats@1x-o" d="M101.537,3.619 C101.537,2.547 100.965,1.556 100.037,1.021 C99.109,0.485 97.965,0.485 97.037,1.021 C79.7208,11.018 17.6401,46.86 3.2355,55.177 C1.3791,56.249 0.2355,58.229 0.2355,60.373 C0.2355,74.891 0.2355,127.441 0.2355,144.852 C0.2355,145.924 0.8073,146.914 1.7355,147.45 C2.6637,147.986 3.8073,147.986 4.7355,147.45 C22.0514,137.452 84.132,101.61 98.537,93.294 C100.393,92.222 101.537,90.241 101.537,88.097 C101.537,73.58 101.537,21.029 101.537,3.619 Z"/>
    <path id="insider-threats@1x-q" d="M77.974,0.901 C78.693,0.486 79.383,0.418 79.892,0.711 C80.4,1.005 80.686,1.637 80.686,2.467 L80.686,2.467 C80.686,3.3 80.4,4.262 79.892,5.143 C79.383,6.024 78.693,6.752 77.974,7.168 C67.767,13.061 13.1402,44.599 2.9335,50.492 C2.2141,50.908 1.5242,50.976 1.0155,50.682 C0.5068,50.389 0.2211,49.757 0.2211,48.926 L0.2211,48.926 C0.2211,48.093 0.5068,47.132 1.0155,46.251 C1.5242,45.369 2.2141,44.641 2.9335,44.226 C13.1402,38.333 67.767,6.794 77.974,0.901 Z"/>
    <polygon id="insider-threats@1x-s" points="12.475 .776 .461 7.712 .461 15.959 12.475 9.023"/>
    <polygon id="insider-threats@1x-u" points="13 .648 .986 7.584 .986 15.724 13 8.787"/>
  </defs>
  <g fill="none" fill-rule="evenodd" transform="translate(60 33)">
    <path fill="#EFF4F7" d="M154.514 237.5637C154.029 237.2834 153.371 237.126 152.684 237.126 151.998 237.126 151.34 237.2834 150.855 237.5637 145.598 240.5999 130.495 249.3239 125.239 252.3601 124.754 252.6404 124.481 253.0205 124.481 253.4169 124.481 253.8133 124.754 254.1935 125.239 254.4738 130.495 257.51 145.598 266.234 150.855 269.2701 151.34 269.5504 151.998 269.7079 152.684 269.7079 153.371 269.7079 154.029 269.5504 154.514 269.2701 159.77 266.234 174.873 257.51 180.129 254.4738 180.615 254.1935 180.887 253.8133 180.887 253.4169 180.887 253.0205 180.615 252.6404 180.129 252.3601 174.873 249.3239 159.77 240.5999 154.514 237.5637zM30.8988 197.3062C29.0424 196.2344 26.7552 196.2344 24.8987 197.3062 19.4492 200.4525 7.8976 207.1218 1.5 210.8155.5718 211.3514 0 212.3417 0 213.4135 0 214.4853.5718 215.4757 1.5 216.0116 6.4457 218.867 14.2514 223.3736 18.5013 225.8273 20.3577 226.8991 22.6449 226.8991 24.5013 225.8273 29.9509 222.681 41.5025 216.0117 47.9001 212.3181 48.8283 211.7822 49.4001 210.7918 49.4001 209.72 49.4001 208.6482 48.8283 207.6578 47.9001 207.1219 42.9544 204.2665 35.1487 199.7599 30.8988 197.3062z"/>
    <path fill="#5A6D83" d="M114.182,185.5178 C112.325,184.446 110.038,184.446 108.182,185.5178 C96.932,192.013 57.2096,214.9467 43.7476,222.719 C42.8194,223.2549 42.2476,224.2453 42.2476,225.3171 C42.2476,226.3889 42.8194,227.3792 43.7476,227.9151 C55.861,234.9089 88.9266,253.9993 99.072,259.8565 C100.928,260.9283 103.215,260.9283 105.072,259.8565 C116.322,253.3614 156.044,230.4277 169.506,222.6554 C170.434,222.1195 171.006,221.1291 171.006,220.0573 C171.006,218.9855 170.434,217.9951 169.506,217.4592 C157.392,210.4655 124.327,191.3751 114.182,185.5178 Z"/>
    <path stroke="#01050C" stroke-linecap="round" stroke-linejoin="round" d="M114.182,185.5178 C112.325,184.446 110.038,184.446 108.182,185.5178 C96.932,192.013 57.2096,214.9467 43.7476,222.719 C42.8194,223.2549 42.2476,224.2453 42.2476,225.3171 C42.2476,226.3889 42.8194,227.3792 43.7476,227.9151 C55.861,234.9089 88.9266,253.9993 99.072,259.8565 C100.928,260.9283 103.215,260.9283 105.072,259.8565 C116.322,253.3614 156.044,230.4277 169.506,222.6554 C170.434,222.1195 171.006,221.1291 171.006,220.0573 C171.006,218.9855 170.434,217.9951 169.506,217.4592 C157.392,210.4655 124.327,191.3751 114.182,185.5178 Z"/>
    <path fill="#FFF" d="M114.182,182.5178 C112.325,181.446 110.038,181.446 108.182,182.5178 C96.932,189.013 57.2096,211.9467 43.7476,219.719 C42.8194,220.2549 42.2476,221.2453 42.2476,222.3171 C42.2476,223.3889 42.8194,224.3792 43.7476,224.9151 C55.861,231.9089 88.9266,250.9993 99.072,256.8565 C100.928,257.9283 103.215,257.9283 105.072,256.8565 C116.322,250.3614 156.044,227.4277 169.506,219.6554 C170.434,219.1195 171.006,218.1291 171.006,217.0573 C171.006,215.9855 170.434,214.9951 169.506,214.4592 C157.392,207.4655 124.327,188.3751 114.182,182.5178 Z"/>
    <path stroke="#01050C" stroke-linecap="round" stroke-linejoin="round" d="M114.182,182.5178 C112.325,181.446 110.038,181.446 108.182,182.5178 C96.932,189.013 57.2096,211.9467 43.7476,219.719 C42.8194,220.2549 42.2476,221.2453 42.2476,222.3171 C42.2476,223.3889 42.8194,224.3792 43.7476,224.9151 C55.861,231.9089 88.9266,250.9993 99.072,256.8565 C100.928,257.9283 103.215,257.9283 105.072,256.8565 C116.322,250.3614 156.044,227.4277 169.506,219.6554 C170.434,219.1195 171.006,218.1291 171.006,217.0573 C171.006,215.9855 170.434,214.9951 169.506,214.4592 C157.392,207.4655 124.327,188.3751 114.182,182.5178 Z"/>
    <path fill="#5A6D83" fill-opacity=".1" d="M115.719,199.6291 C114.828,199.1142 113.729,199.1142 112.837,199.6291 C107.08,202.9526 85.704,215.2943 78.5463,219.4268 C78.061,219.707 77.7621,220.2247 77.7621,220.785 C77.7621,221.3454 78.061,221.8631 78.5463,222.1433 C83.1508,224.8017 93.3361,230.6822 98.308,233.5525 C100.066,234.5675 102.232,234.5675 103.99,233.5525 C110.527,229.7778 126.686,220.4489 134.648,215.8517 C135.512,215.3533 136.018,214.4084 135.954,213.4135 C135.891,212.4185 135.269,211.5455 134.349,211.1605 C130.808,209.678 126.636,207.932 126.636,207.932 L124.246,204.5521 C124.246,204.5521 118.481,201.2234 115.719,199.6291 Z"/>
    <path fill="#5A6D83" fill-opacity=".1" d="M130.723,216.0205 C139.834,212.8156 148.543,213.9421 150.158,218.5347 C151.774,223.1273 145.688,229.4578 136.577,232.6628 C127.465,235.8677 118.757,234.7411 117.141,230.1485 C115.526,225.556 121.611,219.2254 130.723,216.0205 Z"/>
    <path stroke="#E01A33" stroke-linecap="round" stroke-linejoin="round" d="M70.0011,119.333 C70.0011,119.333 70.0011,175.0857 70.0011,190.5427 C70.0011,192.9703 71.3134,195.2084 73.4319,196.3939 C79.0231,199.5226 89.4838,205.3763 89.4838,205.3763"/>
    <path fill="#B1BBC9" d="M116.162,212.2324 C116.162,212.9607 115.774,213.6337 115.143,213.9978 C111.463,216.1226 99.077,223.2734 99.077,223.2734 C97.221,224.3452 94.9338,224.3452 93.0774,223.2734 C90.237,221.6335 85.9351,219.1498 82.6837,217.2726 C81.7918,216.7576 81.2289,215.8229 81.1865,214.7996 L81.1865,211.5724 L116.162,208.6064 C116.162,208.6064 116.162,210.8105 116.162,212.2324 Z"/>
    <g transform="translate(81 208.327)">
      <mask id="insider-threats@1x-b" fill="#fff">
        <use xlink:href="#insider-threats@1x-a"/>
      </mask>
      <polygon fill="#5A6D83" fill-opacity=".6" points="16.097 21.374 42.097 21.374 42.097 -4.71 16.097 -4.71" mask="url(#insider-threats@1x-b)"/>
    </g>
    <path stroke="#01050C" stroke-linecap="round" stroke-linejoin="round" d="M116.162,212.2324 C116.162,212.9607 115.774,213.6337 115.143,213.9978 C111.463,216.1226 99.077,223.2734 99.077,223.2734 C97.221,224.3452 94.9338,224.3452 93.0774,223.2734 C90.237,221.6335 85.9351,219.1498 82.6837,217.2726 C81.7918,216.7576 81.2289,215.8229 81.1865,214.7996 L81.1865,211.5724 L116.162,208.6064 C116.162,208.6064 116.162,210.8105 116.162,212.2324 Z"/>
    <path fill="#FFF" d="M104.269,200.2831 C102.412,199.2113 100.125,199.2113 98.269,200.2831 C94.3046,202.5718 87.2873,206.6232 82.6864,209.2796 C81.7582,209.8155 81.1865,210.8058 81.1865,211.8776 C81.1865,212.9494 81.7583,213.9398 82.6865,214.4757 C85.9378,216.3528 90.2397,218.8366 93.0801,220.4765 C94.9365,221.5483 97.224,221.5483 99.08,220.4765 C103.044,218.1878 110.062,214.1363 114.662,211.48 C115.591,210.9441 116.162,209.9537 116.162,208.8819 C116.162,207.8101 115.591,206.8198 114.662,206.2839 C111.411,204.4067 107.109,201.923 104.269,200.2831 Z"/>
    <g transform="translate(81 199.327)">
      <mask id="insider-threats@1x-d" fill="#fff">
        <use xlink:href="#insider-threats@1x-c"/>
      </mask>
      <path fill="#B1BBC9" fill-opacity=".2" d="M36.712,-4.7363 C35.82,-5.2513 34.721,-5.2513 33.83,-4.7363 C28.073,-1.4128 6.6968,10.9288 -0.461,15.0613 C-0.9463,15.3415 -1.2452,15.8592 -1.2452,16.4196 C-1.2452,16.9799 -0.9462,17.4977 -0.461,17.7778 C4.2165,20.4784 14.6681,26.5126 19.719,29.429 C21.478,30.444 23.644,30.444 25.402,29.429 C31.942,25.6527 48.113,16.3168 56.071,11.7219 C56.934,11.2239 57.44,10.2803 57.378,9.2862 C57.315,8.2921 56.695,7.419 55.777,7.0327 C52.166,5.5128 47.866,3.7032 47.866,3.7032 L45.406,0.2833 C45.406,0.2833 39.51,-3.1208 36.712,-4.7363 Z" mask="url(#insider-threats@1x-d)"/>
    </g>
    <path stroke="#01050C" stroke-linecap="round" stroke-linejoin="round" d="M104.269,200.2831 C102.412,199.2113 100.125,199.2113 98.269,200.2831 C94.3046,202.5718 87.2873,206.6232 82.6864,209.2796 C81.7582,209.8155 81.1865,210.8058 81.1865,211.8776 C81.1865,212.9494 81.7583,213.9398 82.6865,214.4757 C85.9378,216.3528 90.2397,218.8366 93.0801,220.4765 C94.9365,221.5483 97.224,221.5483 99.08,220.4765 C103.044,218.1878 110.062,214.1363 114.662,211.48 C115.591,210.9441 116.162,209.9537 116.162,208.8819 C116.162,207.8101 115.591,206.8198 114.662,206.2839 C111.411,204.4067 107.109,201.923 104.269,200.2831 Z"/>
    <polygon fill="#B1BBC9" fill-opacity=".2" points="95.191 211.911 105.226 216.928 111.947 212.533 104.191 208.655"/>
    <path fill="#EFF4F7" d="M93.2831,151.461 C93.1026,150.537 93.626,149.575 94.8531,148.866 C96.9929,147.631 100.467,147.631 102.607,148.866 C103.834,149.575 104.357,150.537 104.177,151.461 L104.212,151.461 L104.212,209.7596 C104.212,210.5699 103.677,211.3802 102.607,211.9979 C100.467,213.2332 96.9929,213.2332 94.8531,211.9979 C93.7833,211.3802 93.2483856,210.5699 93.2483856,209.7596 C93.2483856,209.7596 93.2483856,151.461 93.2483856,151.461 L93.2831,151.461 Z"/>
    <g transform="translate(93 147.327)">
      <mask id="insider-threats@1x-f" fill="#fff">
        <use xlink:href="#insider-threats@1x-e"/>
      </mask>
      <polygon fill="#B1BBC9" fill-opacity=".2" points="7.524 67.374 15.806 67.374 15.806 22.505 7.524 22.505" mask="url(#insider-threats@1x-f)"/>
    </g>
    <path stroke="#01050C" stroke-linecap="round" stroke-linejoin="round" d="M93.2831,151.461 C93.1026,150.537 93.626,149.575 94.8531,148.866 C96.9929,147.631 100.467,147.631 102.607,148.866 C103.834,149.575 104.357,150.537 104.177,151.461 L104.212,151.461 L104.212,209.7596 C104.212,210.5699 103.677,211.3802 102.607,211.9979 C100.467,213.2332 96.9929,213.2332 94.8531,211.9979 C93.7833,211.3802 93.2483856,210.5699 93.2483856,209.7596 C93.2483856,209.7596 93.2483856,151.461 93.2483856,151.461 L93.2831,151.461 Z"/>
    <polygon fill="#FFF" points="104.71 127.642 66.625 149.63 96.149 166.675 134.233 144.687 119.647 138.266 116.503 134.451"/>
    <polygon stroke="#01050C" stroke-linecap="round" stroke-linejoin="round" points="104.71 127.642 66.625 149.63 96.149 166.675 134.233 144.687 119.647 138.266 116.503 134.451"/>
    <polygon fill="#FFF" points="116.574 134.492 78.49 156.48 81.387 160.153 96.149 168.675 135.965 145.687 119.647 138.266"/>
    <g transform="translate(78 134.327)">
      <mask id="insider-threats@1x-h" fill="#fff">
        <use xlink:href="#insider-threats@1x-g"/>
      </mask>
      <polygon fill="#EFF4F7" points="24.191 26.218 29.928 27.548 35.996 23.425 30.741 21.965" mask="url(#insider-threats@1x-h)"/>
    </g>
    <polygon stroke="#01050C" stroke-linecap="round" stroke-linejoin="round" points="116.574 134.492 78.49 156.48 81.387 160.153 96.149 168.675 135.965 145.687 119.647 138.266"/>
    <polygon fill="#B1BBC9" points="116.503 140.082 85.945 157.724 96.103 163.589 126.66 145.946"/>
    <polygon stroke="#01050C" stroke-linecap="round" stroke-linejoin="round" points="116.503 140.082 85.945 157.724 96.103 163.589 126.66 145.946"/>
    <polygon fill="#B1BBC9" points="95.236 137.539 74.748 149.368 79.008 151.828 99.496 139.999"/>
    <polygon stroke="#01050C" stroke-linecap="round" stroke-linejoin="round" points="95.236 137.539 74.748 149.368 79.008 151.828 99.496 139.999"/>
    <polygon fill="#B1BBC9" points="103.667 132.671 99.524 135.063 103.785 137.523 107.928 135.131"/>
    <polygon stroke="#01050C" stroke-linecap="round" stroke-linejoin="round" points="103.667 132.671 99.524 135.063 103.785 137.523 107.928 135.131"/>
    <path fill="#EFF4F7" d="M97.598,174.8622 C96.7011,175.3799 95.5962,175.3799 94.6993,174.8621 C88.764,171.4354 66.6252,158.654 66.6252,158.654 L66.6252,149.63 L78.5457,156.512 L81.1865,160.037 C81.1865,160.037 90.9437,165.67 94.6994,167.839 C95.5962,168.357 96.7011,168.357 97.598,167.839 C104.56,163.819 134.233,146.687 134.233,146.687 L134.233,153.711 C134.233,153.711 104.56,170.8428 97.598,174.8622 Z"/>
    <g transform="translate(66 146.327)">
      <mask id="insider-threats@1x-j" fill="#fff">
        <use xlink:href="#insider-threats@1x-i"/>
      </mask>
      <polygon fill="#B1BBC9" fill-opacity=".2" points="30.103 31.374 68.779 31.374 68.779 -9.873 30.103 -9.873" mask="url(#insider-threats@1x-j)"/>
      <polygon fill="#B1BBC9" fill-opacity=".2" points="41.103 31.374 47.766 31.374 47.766 -9.873 41.103 -9.873" mask="url(#insider-threats@1x-j)"/>
    </g>
    <path stroke="#01050C" stroke-linecap="round" stroke-linejoin="round" d="M97.598,174.8622 C96.7011,175.3799 95.5962,175.3799 94.6993,174.8621 C88.764,171.4354 66.6252,158.654 66.6252,158.654 L66.6252,149.63 L78.5457,156.512 L81.1865,160.037 C81.1865,160.037 90.9437,165.67 94.6994,167.839 C95.5962,168.357 96.7011,168.357 97.598,167.839 C104.56,163.819 134.233,146.687 134.233,146.687 L134.233,153.711 C134.233,153.711 104.56,170.8428 97.598,174.8622 Z"/>
    <path fill="#01050C" d="M78.4374,159.689 C78.4374,159.242 78.1988,158.829 77.8116,158.605 C76.2281,157.691 72.0693,155.29 70.3925,154.322 C70.2447,154.237 70.0628,154.237 69.9151,154.322 C69.7674,154.407 69.6764,154.565 69.6764,154.735 C69.6764,155.854 69.6764,157.712 69.6764,157.712 C69.6764,157.712 76.1959,161.476 77.9869,162.51 C78.0798,162.563 78.1943,162.563 78.2872,162.51 C78.3801,162.456 78.4374,162.357 78.4374,162.25 C78.4374,161.587 78.4374,160.437 78.4374,159.689 Z"/>
    <path stroke="#01050C" stroke-linecap="round" stroke-linejoin="round" d="M71.315,155.517 C71.315,155.517 65.0411,159.14 61.8715,160.969 C61.5028,161.182 61.2756,161.576 61.2756,162.002 C61.2756,162.427 61.5028,162.821 61.8715,163.034 C62.8097,163.576 63.9409,164.229 64.8068,164.729 C65.6482,165.214 66.6848,165.214 67.5262,164.729 C70.516,163.002 77.3978,159.029 77.3978,159.029 L71.315,155.517 Z"/>
    <path fill="#EFF4F7" d="M74.2163,159.776 L77.3978,159.029 L77.3978,161.613 C77.3978,161.613 67.7328,167.193 67.7328,167.193 C66.7636,167.753 65.5694,167.753 64.6002,167.193 C63.8519,166.761 62.7586,166.13 61.9554,165.666 C61.5696,165.443 61.3183,165.049 61.2755,164.611 L61.269,164.613 L61.269,161.843 L66.8325,160.689 L71.315,158.101 L74.2163,159.776 Z"/>
    <path stroke="#01050C" stroke-linecap="round" stroke-linejoin="round" d="M74.2163,159.776 L77.3978,159.029 L77.3978,161.613 C77.3978,161.613 67.7328,167.193 67.7328,167.193 C66.7636,167.753 65.5694,167.753 64.6002,167.193 C63.8519,166.761 62.7586,166.13 61.9554,165.666 C61.5696,165.443 61.3183,165.049 61.2755,164.611 L61.269,164.613 L61.269,161.843 L66.8325,160.689 L71.315,158.101 L74.2163,159.776 Z"/>
    <path fill="#FFF" d="M71.315,155.517 C71.315,155.517 65.0411,159.14 61.8715,160.969 C61.5028,161.182 61.2756,161.576 61.2756,162.002 C61.2756,162.427 61.5028,162.821 61.8715,163.034 C62.8097,163.576 63.9409,164.229 64.8068,164.729 C65.6482,165.214 66.6848,165.214 67.5262,164.729 C70.516,163.002 77.3978,159.029 77.3978,159.029 L71.315,155.517 Z"/>
    <path stroke="#01050C" stroke-linecap="round" stroke-linejoin="round" d="M71.315,155.517 C71.315,155.517 65.0411,159.14 61.8715,160.969 C61.5028,161.182 61.2756,161.576 61.2756,162.002 C61.2756,162.427 61.5028,162.821 61.8715,163.034 C62.8097,163.576 63.9409,164.229 64.8068,164.729 C65.6482,165.214 66.6848,165.214 67.5262,164.729 C70.516,163.002 77.3978,159.029 77.3978,159.029 L71.315,155.517 Z"/>
    <polyline stroke="#01050C" stroke-linecap="round" stroke-linejoin="round" points="68.595 157.087 74.678 160.599 74.678 163.183"/>
    <path fill="#E01A33" d="M66.0445,160.419 C66.7484,160.012 67.8915,160.012 68.5954,160.419 C69.2993,160.825 69.2993,161.485 68.5954,161.891 C67.8915,162.298 66.7484,162.298 66.0445,161.891 C65.3406,161.485 65.3406,160.825 66.0445,160.419 Z"/>
    <path fill="#FFF" d="M137.216,92.605 C143.822,92.605 149.184,97.967 149.184,104.573 C149.184,111.178 143.822,116.541 137.216,116.541 C130.611,116.541 125.248,111.178 125.248,104.573 C125.248,97.967 130.611,92.605 137.216,92.605 Z"/>
    <g transform="translate(125 92.327)">
      <mask id="insider-threats@1x-l" fill="#fff">
        <use xlink:href="#insider-threats@1x-k"/>
      </mask>
      <path fill="#EFF4F7" d="M12.666,0.544 L12.727,0.541 C19.332,0.541 24.695,5.904 24.695,12.509 C24.695,19.115 19.332,24.477 12.727,24.477 C10.564,24.477 8.535,23.902 6.788,22.888 C13.365,22.858 18.695,17.508 18.695,10.923 C18.695,6.48 16.269,2.6 12.666,0.544 Z" mask="url(#insider-threats@1x-l)"/>
    </g>
    <path stroke="#01050C" stroke-linecap="round" stroke-linejoin="round" d="M137.216,92.605 C143.822,92.605 149.184,97.967 149.184,104.573 C149.184,111.178 143.822,116.541 137.216,116.541 C130.611,116.541 125.248,111.178 125.248,104.573 C125.248,97.967 130.611,92.605 137.216,92.605 Z"/>
    <path fill="#FFF" d="M100.916,151.847 L100.915,151.847 C100.915,151.847 113.005,144.866 114.546,143.977 C114.651,143.916 114.737,143.827 114.794,143.72 C115.538,142.335 120.829,132.47 123.916,126.716 C125.304,124.126 127.892,122.4 130.816,122.111 C134.191,121.779 138.818,121.322 142.703,120.939 C144.565,120.755 146.415,121.401 147.759,122.703 C149.103,124.006 149.806,125.834 149.681,127.702 C148.924,138.968 147.582,158.953 147.582,158.953 L146.193,195.8671 L146.343,219.3777 L146.325,219.3771 C146.337,219.5334 146.343,219.6914 146.343,219.8508 C146.343,223.2337 143.596,225.9802 140.213,225.9802 C137.803,225.9802 135.716,224.5863 134.715,222.5614 L134.754,223.4559 L134.734,223.4572 C134.748,223.621 134.754,223.7866 134.754,223.9538 C134.754,227.3367 132.008,230.0832 128.625,230.0832 C125.328,230.0832 122.635,227.4739 122.501,224.2093 L122.496,224.2097 L121.048,195.6819 L122.119,161.749 L123.985,144.662 C123.985,144.662 121.415,148.298 120.254,149.941 C119.886,150.461 119.411,150.895 118.859,151.213 C115.751,153.007 105.048,159.187 105.048,159.187 L105.047,159.187 C104.428,159.546 103.709,159.751 102.942,159.751 C100.617,159.751 98.73,157.864 98.73,155.54 C98.73,153.95 99.613,152.564 100.916,151.847 Z M134.501,217.6261 C134.524,217.5661 134.549,217.5066 134.574,217.4475 L133.65,198.0296 C133.65,198.0296 134.501,217.6261 134.501,217.6261 Z"/>
    <g transform="translate(98 120.327)">
      <mask id="insider-threats@1x-n" fill="#fff">
        <use xlink:href="#insider-threats@1x-m"/>
      </mask>
      <path fill="#EFF4F7" d="M44.847,-0.402 C44.847,-0.402 45.851,0.998 46.835,2.371 C48.052,4.068 48.683,6.116 48.632,8.203 C48.438,16.21 47.94,36.791 47.804,42.422 C47.781,43.377 47.606,44.323 47.287,45.224 C46.728,46.801 45.815,49.378 45.278,50.8922 C44.993,51.6986 44.847,52.5478 44.847,53.4033 C44.847,59.0512 44.847,81.8739 44.847,95.2187 C44.847,97.1639 43.777,98.9516 42.063,99.8713 C40.349,100.791 38.268,100.6937 36.647,99.6181 C36.646,99.6172 36.645,99.6167 36.645,99.6167 L36.112,108.3741 L59.097,106.9658 L65.097,81.3741 L68.097,38.374 L68.097,9.374 L55.097,-5.527 L44.847,-0.402 Z" mask="url(#insider-threats@1x-n)"/>
      <path fill="#EFF4F7" d="M37.097 52.2155C37.097 52.2155 35.761 54.5535 34.634 56.5271 33.627 58.2889 33.097 60.2829 33.097 62.312 33.097 69.9698 33.097 89.9279 33.097 100.3366 33.097 101.924 32.376 103.4254 31.137 104.4173 29.897 105.4092 28.274 105.7843 26.726 105.4366 24.517 104.9408 22.583 104.5068 22.583 104.5068L24.481 113.2155 39.097 111.2155 36.112 91.9443 35.65 78.1053 37.097 52.2155zM-.903 34.374C-.903 34.374.255 34.953 1.629 35.64 4.389 37.02 7.678 36.801 10.231 35.069 13.549 32.818 17.904 29.862 19.488 28.787 19.89 28.515 20.233 28.164 20.495 27.755 21.889 25.586 26.565 18.313 28.374 15.499 28.812 14.818 29.617 14.469 30.413 14.614 31.117 14.742 31.84 14.874 31.84 14.874L22.583 43.968 4.484 44.691-.903 34.374z" mask="url(#insider-threats@1x-n)"/>
    </g>
    <path stroke="#01050C" stroke-linecap="round" stroke-linejoin="round" d="M100.916,151.847 L100.915,151.847 C100.915,151.847 113.005,144.866 114.546,143.977 C114.651,143.916 114.737,143.827 114.794,143.72 C115.538,142.335 120.829,132.47 123.916,126.716 C125.304,124.126 127.892,122.4 130.816,122.111 C134.191,121.779 138.818,121.322 142.703,120.939 C144.565,120.755 146.415,121.401 147.759,122.703 C149.103,124.006 149.806,125.834 149.681,127.702 C148.924,138.968 147.582,158.953 147.582,158.953 L146.193,195.8671 L146.343,219.3777 L146.325,219.3771 C146.337,219.5334 146.343,219.6914 146.343,219.8508 C146.343,223.2337 143.596,225.9802 140.213,225.9802 C137.803,225.9802 135.716,224.5863 134.715,222.5614 L134.754,223.4559 L134.734,223.4572 C134.748,223.621 134.754,223.7866 134.754,223.9538 C134.754,227.3367 132.008,230.0832 128.625,230.0832 C125.328,230.0832 122.635,227.4739 122.501,224.2093 L122.496,224.2097 L121.048,195.6819 L122.119,161.749 L123.985,144.662 C123.985,144.662 121.415,148.298 120.254,149.941 C119.886,150.461 119.411,150.895 118.859,151.213 C115.751,153.007 105.048,159.187 105.048,159.187 L105.047,159.187 C104.428,159.546 103.709,159.751 102.942,159.751 C100.617,159.751 98.73,157.864 98.73,155.54 C98.73,153.95 99.613,152.564 100.916,151.847 Z M134.501,217.6261 C134.524,217.5661 134.549,217.5066 134.574,217.4475 L133.65,198.0296 C133.65,198.0296 134.501,217.6261 134.501,217.6261 Z"/>
    <polyline stroke="#01050C" stroke-linecap="round" stroke-linejoin="round" points="123.531 145.067 127.483 138.032 128.871 135.706"/>
    <path fill="#EFF4F7" d="M186.85,182.4149 C185.155,181.4364 183.067,181.4364 181.372,182.4149 C177.708,184.5302 171.227,188.2725 167.364,190.5025 C166.714,190.8779 166.314,191.5715 166.314,192.3221 C166.314,193.0727 166.714,193.7663 167.364,194.1416 C173.72,197.8113 187.979,206.0438 193.975,209.5056 C195.67,210.484 197.758,210.484 199.453,209.5056 C203.117,207.3902 209.599,203.6479 213.461,201.4179 C214.111,201.0426 214.512,200.349 214.512,199.5984 C214.512,198.8477 214.111,198.1541 213.461,197.7788 C207.105,194.1092 192.846,185.8767 186.85,182.4149 Z"/>
    <polyline stroke="#01050C" stroke-linecap="round" stroke-linejoin="round" points="134.716 223.574 133.65 199.065 134.754 174.048 135.909 172.625"/>
    <path fill="#FFF" d="M117.537,3.946 C117.537,2.874 116.965,1.883 116.037,1.348 C115.109,0.812 113.965,0.812 113.037,1.348 C95.7208,11.345 33.6401,47.187 19.2355,55.504 C17.3791,56.576 16.2355,58.556 16.2355,60.7 C16.2355,75.218 16.2355,127.768 16.2355,145.179 C16.2355,146.251 16.8073,147.241 17.7355,147.777 C18.6637,148.313 19.8073,148.313 20.7355,147.777 C38.0514,137.779 100.132,101.937 114.537,93.621 C116.393,92.549 117.537,90.568 117.537,88.424 C117.537,73.907 117.537,21.356 117.537,3.946 Z"/>
    <g transform="translate(16 .327)">
      <mask id="insider-threats@1x-p" fill="#fff">
        <use xlink:href="#insider-threats@1x-o"/>
      </mask>
      <polygon fill="#EFF4F7" points="-9.809 43.888 -5.809 71.584 106.16 6.557 103.162 -12.598 73.484 -9.781" mask="url(#insider-threats@1x-p)"/>
      <line x1=".235" x2="101.537" y1="67.896" y2="9.409" stroke="#01050C" stroke-linecap="round" stroke-linejoin="round" mask="url(#insider-threats@1x-p)"/>
      <path fill="#FFF" d="M93.686,78.467 C93.686,77.637 93.4,77.005 92.892,76.711 C92.383,76.418 91.693,76.486 90.974,76.901 C80.767,82.794 26.1402,114.333 15.9335,120.226 C15.2141,120.641 14.5242,121.369 14.0155,122.251 C13.5068,123.132 13.2211,124.093 13.2211,124.924 L13.2211,124.926 C13.2211,125.757 13.5068,126.389 14.0155,126.682 C14.5242,126.976 15.2141,126.908 15.9335,126.492 C26.1402,120.599 80.767,89.061 90.974,83.168 C91.693,82.752 92.383,82.024 92.892,81.143 C93.4,80.262 93.686,79.3 93.686,78.47 L93.686,78.467 Z" mask="url(#insider-threats@1x-p)"/>
      <g mask="url(#insider-threats@1x-p)">
        <g transform="translate(13 76)">
          <mask id="insider-threats@1x-r" fill="#fff">
            <use xlink:href="#insider-threats@1x-q"/>
          </mask>
          <polygon fill="#E01A33" points="46.122 .7 -4.044 29.663 -4.044 83.257 46.122 54.294" mask="url(#insider-threats@1x-r)"/>
        </g>
      </g>
      <path stroke="#01050C" stroke-linecap="round" stroke-linejoin="round" d="M93.686,78.467 C93.686,77.637 93.4,77.005 92.892,76.711 C92.383,76.418 91.693,76.486 90.974,76.901 C80.767,82.794 26.1402,114.333 15.9335,120.226 C15.2141,120.641 14.5242,121.369 14.0155,122.251 C13.5068,123.132 13.2211,124.093 13.2211,124.924 L13.2211,124.926 C13.2211,125.757 13.5068,126.389 14.0155,126.682 C14.5242,126.976 15.2141,126.908 15.9335,126.492 C26.1402,120.599 80.767,89.061 90.974,83.168 C91.693,82.752 92.383,82.024 92.892,81.143 C93.4,80.262 93.686,79.3 93.686,78.47 L93.686,78.467 Z" mask="url(#insider-threats@1x-p)"/>
      <path fill="#FFF" d="M6.3477,56.999 C7.2179,56.497 7.9243,56.904 7.9243,57.909 C7.9243,58.914 7.2179,60.137 6.3477,60.64 C5.4776,61.142 4.7712,60.734 4.7712,59.73 C4.7712,58.725 5.4776,57.501 6.3477,56.999 Z" mask="url(#insider-threats@1x-p)"/>
      <path stroke="#01050C" stroke-linecap="round" stroke-linejoin="round" d="M6.3477,56.999 C7.2179,56.497 7.9243,56.904 7.9243,57.909 C7.9243,58.914 7.2179,60.137 6.3477,60.64 C5.4776,61.142 4.7712,60.734 4.7712,59.73 C4.7712,58.725 5.4776,57.501 6.3477,56.999 Z" mask="url(#insider-threats@1x-p)"/>
      <path fill="#FFF" d="M13.2211,53.031 C14.0912,52.528 14.7976,52.936 14.7976,53.941 C14.7976,54.946 14.0912,56.169 13.2211,56.672 C12.3509,57.174 11.6445,56.766 11.6445,55.761 C11.6445,54.757 12.3509,53.533 13.2211,53.031 Z" mask="url(#insider-threats@1x-p)"/>
      <path stroke="#01050C" stroke-linecap="round" stroke-linejoin="round" d="M13.2211,53.031 C14.0912,52.528 14.7976,52.936 14.7976,53.941 C14.7976,54.946 14.0912,56.169 13.2211,56.672 C12.3509,57.174 11.6445,56.766 11.6445,55.761 C11.6445,54.757 12.3509,53.533 13.2211,53.031 Z" mask="url(#insider-threats@1x-p)"/>
      <path fill="#FFF" d="M20.0944,49.062 C20.9645,48.56 21.671,48.968 21.671,49.972 C21.671,50.977 20.9645,52.201 20.0944,52.703 C19.2243,53.206 18.5178,52.798 18.5178,51.793 C18.5178,50.788 19.2243,49.565 20.0944,49.062 Z" mask="url(#insider-threats@1x-p)"/>
      <path stroke="#01050C" stroke-linecap="round" stroke-linejoin="round" d="M20.0944,49.062 C20.9645,48.56 21.671,48.968 21.671,49.972 C21.671,50.977 20.9645,52.201 20.0944,52.703 C19.2243,53.206 18.5178,52.798 18.5178,51.793 C18.5178,50.788 19.2243,49.565 20.0944,49.062 Z" mask="url(#insider-threats@1x-p)"/>
    </g>
    <path stroke="#01050C" stroke-linecap="round" stroke-linejoin="round" d="M117.537,3.946 C117.537,2.874 116.965,1.883 116.037,1.348 C115.109,0.812 113.965,0.812 113.037,1.348 C95.7208,11.345 33.6401,47.187 19.2355,55.504 C17.3791,56.576 16.2355,58.556 16.2355,60.7 C16.2355,75.218 16.2355,127.768 16.2355,145.179 C16.2355,146.251 16.8073,147.241 17.7355,147.777 C18.6637,148.313 19.8073,148.313 20.7355,147.777 C38.0514,137.779 100.132,101.937 114.537,93.621 C116.393,92.549 117.537,90.568 117.537,88.424 C117.537,73.907 117.537,21.356 117.537,3.946 Z"/>
    <path fill="#EFF4F7" d="M51.2664,78.738 C51.2664,78.738 53.6115,77.384 55.2741,76.424 C55.586,76.244 55.9725,76.254 56.2752,76.449 C56.578,76.644 56.7461,76.992 56.7108,77.351 C56.2933,81.588 55.2823,91.847 54.9462,95.258 C54.8767,95.964 54.4714,96.592 53.8576,96.947 C50.0864,99.124 36.5948,106.913 34.5118,108.116 C34.334,108.219 34.1334,108.275 33.9282,108.281 C33.9275,108.281 33.9269,108.281 33.9262,108.281 C32.656,108.314 31.5464,107.428 31.298,106.182 C30.3828,101.591 28.2746,91.015 27.6512,87.887 C27.5456,87.357 27.7893,86.819 28.2573,86.549 C31.7328,84.542 45.7822,76.431 50.0384,73.973 C50.2917,73.827 50.6038,73.827 50.857,73.973 C51.1103,74.12 51.2664,74.39 51.2664,74.682 C51.2664,76.304 51.2664,78.738 51.2664,78.738 Z"/>
    <path stroke="#01050C" stroke-linecap="round" stroke-linejoin="round" d="M51.2664,78.738 C51.2664,78.738 53.6115,77.384 55.2741,76.424 C55.586,76.244 55.9725,76.254 56.2752,76.449 C56.578,76.644 56.7461,76.992 56.7108,77.351 C56.2933,81.588 55.2823,91.847 54.9462,95.258 C54.8767,95.964 54.4714,96.592 53.8576,96.947 C50.0864,99.124 36.5948,106.913 34.5118,108.116 C34.334,108.219 34.1334,108.275 33.9282,108.281 C33.9275,108.281 33.9269,108.281 33.9262,108.281 C32.656,108.314 31.5464,107.428 31.298,106.182 C30.3828,101.591 28.2746,91.015 27.6512,87.887 C27.5456,87.357 27.7893,86.819 28.2573,86.549 C31.7328,84.542 45.7822,76.431 50.0384,73.973 C50.2917,73.827 50.6038,73.827 50.857,73.973 C51.1103,74.12 51.2664,74.39 51.2664,74.682 C51.2664,76.304 51.2664,78.738 51.2664,78.738 Z"/>
    <path fill="#D1D9E0" d="M40.7488,81.752 C40.7488,81.752 33.9958,85.651 31.2919,87.212 C30.628,87.595 30.2653,88.345 30.377,89.103 C31.0121,93.417 33.0646,107.355 33.0646,107.355 L34.0776,105.358 L33.0646,89.247 L40.7488,84.81 L40.7488,81.752 Z"/>
    <polygon fill="#FFF" points="48.475 72.103 36.461 79.039 36.461 87.286 48.475 80.35"/>
    <g transform="translate(36 71.327)">
      <mask id="insider-threats@1x-t" fill="#fff">
        <use xlink:href="#insider-threats@1x-s"/>
      </mask>
      <polygon fill="#D1D9E0" points="11.976 7.968 -.423 15.127 -.038 15.671 11.976 8.735" mask="url(#insider-threats@1x-t)"/>
    </g>
    <polygon stroke="#01050C" stroke-linecap="round" stroke-linejoin="round" points="48.475 72.103 36.461 79.039 36.461 87.286 48.475 80.35"/>
    <path stroke="#01050C" stroke-linecap="round" stroke-linejoin="round" d="M53.619,77.38 C53.619,77.38 39.0313,85.802 34.4345,88.456 C33.5868,88.945 33.0646,89.85 33.0646,90.829 C33.0646,95.24 33.0646,107.355 33.0646,107.355"/>
    <path fill="#FFF" d="M49.6445,89.474 C49.6445,89.117 49.4539,88.787 49.1445,88.608 C48.8351,88.429 48.4539,88.429 48.1445,88.608 C46.6658,89.462 44.4479,90.742 43.1721,91.479 C42.5533,91.836 42.1721,92.496 42.1721,93.211 C42.1721,94.185 42.1721,95.594 42.1721,96.704 C42.1721,97.061 42.3627,97.391 42.6721,97.57 C42.9815,97.748 43.3627,97.748 43.6721,97.57 C45.1508,96.716 47.3687,95.436 48.6445,94.699 C49.2633,94.342 49.6445,93.681 49.6445,92.967 C49.6445,91.993 49.6445,90.583 49.6445,89.474 Z"/>
    <path stroke="#05122C" stroke-linecap="round" stroke-linejoin="round" d="M49.6445,89.474 C49.6445,89.117 49.4539,88.787 49.1445,88.608 C48.8351,88.429 48.4539,88.429 48.1445,88.608 C46.6658,89.462 44.4479,90.742 43.1721,91.479 C42.5533,91.836 42.1721,92.496 42.1721,93.211 C42.1721,94.185 42.1721,95.594 42.1721,96.704 C42.1721,97.061 42.3627,97.391 42.6721,97.57 C42.9815,97.748 43.3627,97.748 43.6721,97.57 C45.1508,96.716 47.3687,95.436 48.6445,94.699 C49.2633,94.342 49.6445,93.681 49.6445,92.967 C49.6445,91.993 49.6445,90.583 49.6445,89.474 Z"/>
    <path fill="#EFF4F7" d="M47.5046,87.4 C47.5046,87.068 47.3272,86.76 47.039,86.594 C46.7509,86.428 46.3959,86.428 46.1078,86.594 C45.6654,86.849 45.1845,87.127 44.7727,87.365 C44.1357,87.733 43.7433,88.412 43.7433,89.148 C43.7433,90.055 43.7433,91.149 43.7433,91.149 L47.5046,88.977 L47.5046,87.4 Z"/>
    <path stroke="#05122C" stroke-linecap="round" stroke-linejoin="round" d="M47.5046,87.4 C47.5046,87.068 47.3272,86.76 47.039,86.594 C46.7509,86.428 46.3959,86.428 46.1078,86.594 C45.6654,86.849 45.1845,87.127 44.7727,87.365 C44.1357,87.733 43.7433,88.412 43.7433,89.148 C43.7433,90.055 43.7433,91.149 43.7433,91.149 L47.5046,88.977 L47.5046,87.4 Z"/>
    <path fill="#EFF4F7" d="M104.511,50.51 C104.511,50.51 106.856,49.156 108.518,48.196 C108.83,48.016 109.217,48.026 109.52,48.221 C109.822,48.416 109.99,48.764 109.955,49.123 C109.538,53.36 108.527,63.62 108.19,67.031 C108.121,67.736 107.716,68.365 107.102,68.719 C103.331,70.896 89.839,78.686 87.7561,79.888 C87.5783,79.991 87.3777,80.047 87.1724,80.053 C87.1718,80.053 87.1711,80.053 87.1705,80.053 C85.9003,80.086 84.7907,79.2 84.5423,77.954 C83.6271,73.363 81.5189,62.787 80.8955,59.659 C80.7898,59.129 81.0336,58.591 81.5016,58.321 C84.9771,56.314 99.027,48.203 103.283,45.746 C103.536,45.599 103.848,45.599 104.101,45.746 C104.355,45.892 104.511,46.162 104.511,46.455 C104.511,48.076 104.511,50.51 104.511,50.51 Z"/>
    <path stroke="#01050C" stroke-linecap="round" stroke-linejoin="round" d="M104.511,50.51 C104.511,50.51 106.856,49.156 108.518,48.196 C108.83,48.016 109.217,48.026 109.52,48.221 C109.822,48.416 109.99,48.764 109.955,49.123 C109.538,53.36 108.527,63.62 108.19,67.031 C108.121,67.736 107.716,68.365 107.102,68.719 C103.331,70.896 89.839,78.686 87.7561,79.888 C87.5783,79.991 87.3777,80.047 87.1724,80.053 C87.1718,80.053 87.1711,80.053 87.1705,80.053 C85.9003,80.086 84.7907,79.2 84.5423,77.954 C83.6271,73.363 81.5189,62.787 80.8955,59.659 C80.7898,59.129 81.0336,58.591 81.5016,58.321 C84.9771,56.314 99.027,48.203 103.283,45.746 C103.536,45.599 103.848,45.599 104.101,45.746 C104.355,45.892 104.511,46.162 104.511,46.455 C104.511,48.076 104.511,50.51 104.511,50.51 Z"/>
    <path fill="#D1D9E0" d="M93.9931,53.524 C93.9931,53.524 87.2401,57.423 84.5362,58.984 C83.8723,59.367 83.5096,60.117 83.6213,60.876 C84.2564,65.189 86.3088,79.127 86.3088,79.127 L87.3218,77.13 L86.3088,61.019 L93.9931,56.583 L93.9931,53.524 Z"/>
    <polygon fill="#FFF" points="100 44.975 87.986 51.911 87.986 60.051 100 53.114"/>
    <g transform="translate(87 44.327)">
      <mask id="insider-threats@1x-v" fill="#fff">
        <use xlink:href="#insider-threats@1x-u"/>
      </mask>
      <polygon fill="#D1D9E0" points="13 7.201 .601 14.36 .986 15.724 13 8.787" mask="url(#insider-threats@1x-v)"/>
    </g>
    <polygon stroke="#01050C" stroke-linecap="round" stroke-linejoin="round" points="100 44.975 87.986 51.911 87.986 60.051 100 53.114"/>
    <path stroke="#01050C" stroke-linecap="round" stroke-linejoin="round" d="M106.863,49.152 C106.863,49.152 92.2756,57.574 87.6788,60.228 C86.8311,60.718 86.3088,61.622 86.3088,62.601 C86.3088,67.012 86.3088,79.127 86.3088,79.127"/>
    <polygon fill="#FFF" points="99.976 58.739 96.488 60.753 96.488 64.726 94.373 65.947 98.612 69.268 102.291 61.613 100.103 62.875"/>
    <polygon stroke="#05122C" stroke-linecap="round" stroke-linejoin="round" points="99.976 58.739 96.488 60.753 96.488 64.726 94.373 65.947 98.612 69.268 102.291 61.613 100.103 62.875"/>
    <path fill="#D1D9E0" d="M62.4606,81.567 C63.0983,81.199 63.616,81.498 63.616,82.234 C63.616,82.97 63.0983,83.867 62.4606,84.235 C61.8229,84.603 61.3052,84.304 61.3052,83.568 C61.3052,82.832 61.8229,81.935 62.4606,81.567 Z"/>
    <path stroke="#05122C" stroke-linecap="round" stroke-linejoin="round" d="M62.4606,81.567 C63.0983,81.199 63.616,81.498 63.616,82.234 C63.616,82.97 63.0983,83.867 62.4606,84.235 C61.8229,84.603 61.3052,84.304 61.3052,83.568 C61.3052,82.832 61.8229,81.935 62.4606,81.567 Z"/>
    <path fill="#D1D9E0" d="M68.7932,77.911 C69.4309,77.543 69.9487,77.841 69.9487,78.578 C69.9487,79.314 69.4309,80.211 68.7932,80.579 C68.1556,80.947 67.6378,80.648 67.6378,79.912 C67.6378,79.176 68.1556,78.279 68.7932,77.911 Z"/>
    <path stroke="#05122C" stroke-linecap="round" stroke-linejoin="round" d="M68.7932,77.911 C69.4309,77.543 69.9487,77.841 69.9487,78.578 C69.9487,79.314 69.4309,80.211 68.7932,80.579 C68.1556,80.947 67.6378,80.648 67.6378,79.912 C67.6378,79.176 68.1556,78.279 68.7932,77.911 Z"/>
    <path fill="#D1D9E0" d="M75.1259,74.255 C75.7636,73.886 76.2813,74.185 76.2813,74.922 C76.2813,75.658 75.7636,76.555 75.1259,76.923 C74.4882,77.291 73.9705,76.992 73.9705,76.256 C73.9705,75.519 74.4882,74.623 75.1259,74.255 Z"/>
    <path stroke="#05122C" stroke-linecap="round" stroke-linejoin="round" d="M75.1259,74.255 C75.7636,73.886 76.2813,74.185 76.2813,74.922 C76.2813,75.658 75.7636,76.555 75.1259,76.923 C74.4882,77.291 73.9705,76.992 73.9705,76.256 C73.9705,75.519 74.4882,74.623 75.1259,74.255 Z"/>
    <path fill="#FFF" d="M76.2813,46.791 L63.0147,50.344 C62.7683,55.736 61.1771,61.303 58.5481,67.006 L71.8147,63.453 C74.7806,58.201 75.8063,52.659 76.2813,46.791 Z"/>
    <path stroke="#01050C" stroke-linecap="round" stroke-linejoin="round" d="M76.2813,46.791 L63.0147,50.344 C62.7683,55.736 61.1771,61.303 58.5481,67.006 L71.8147,63.453 C74.7806,58.201 75.8063,52.659 76.2813,46.791 Z"/>
  </g>
</svg>
