<svg xmlns="http://www.w3.org/2000/svg" xmlns:xlink="http://www.w3.org/1999/xlink" width="550" height="550" viewBox="0 0 550 550">
  <defs>
    <path id="integrations@1x-a" d="M61.4853723,1.0248 C95.3970554,1.0248 122.928702,28.5564462 122.928702,62.4668154 C122.928702,96.3784985 95.3970554,123.910145 61.4853723,123.910145 C27.5750031,123.910145 0.0433569231,96.3784985 0.0433569231,62.4668154 C0.0433569231,28.5564462 27.5750031,1.0248 61.4853723,1.0248 Z"/>
    <linearGradient id="integrations@1x-c" x1="50%" x2="50%" y1="1.694%" y2="100%">
      <stop offset="0%" stop-color="#3F6C9F" stop-opacity="0"/>
      <stop offset="100%" stop-color="#3F6C9F" stop-opacity=".9"/>
    </linearGradient>
  </defs>
  <g fill="none" fill-rule="evenodd">
    <g opacity=".1" transform="translate(41 226)">
      <path fill="#3F6C9F" fill-opacity=".1" d="M151.56581,85.9429665 C196.074022,59.829933 269.642151,60.5919043 315.748101,87.6412249 C361.855363,114.691866 363.152458,157.852191 318.644246,183.965225 C274.136034,210.077202 200.567905,209.315891 154.461955,182.265646 C108.354693,155.216325 107.057598,112.054679 151.56581,85.9429665 Z"/>
      <path stroke="#3F6C9F" stroke-linecap="round" stroke-linejoin="round" stroke-width="2" d="M66.5325698,38.6954641 C156.344581,-13.995445 304.796313,-12.4596172 397.833994,42.1249952 C490.871676,96.7082871 493.489497,183.802794 403.677486,236.493571 C313.865475,289.185009 165.415056,287.648653 72.3773743,233.064965 C-20.6608324,178.48088 -23.2794413,91.3876938 66.5325698,38.6954641 Z"/>
      <path stroke="#3F6C9F" stroke-linecap="round" stroke-linejoin="round" stroke-width="2" d="M88.2930447,48.8216268 C166.512598,2.93167464 295.799358,4.27073684 376.827095,51.807445 C457.854832,99.3454737 460.135251,175.196612 381.917011,221.08564 C303.698771,266.975196 174.410698,265.63719 93.3829609,218.09969 C12.3557486,170.562718 10.0751983,94.7115789 88.2930447,48.8216268 Z"/>
      <path stroke="#3F6C9F" stroke-linecap="round" stroke-linejoin="round" stroke-width="2" d="M113.638911,63.6912919 C178.353184,25.7234641 285.321508,26.8301053 352.360838,66.1620861 C419.400168,105.492746 421.286732,168.249072 356.572458,206.216239 C291.856872,244.183539 184.888547,243.076633 117.849218,203.745709 C50.8098883,164.415445 48.923324,101.65912 113.638911,63.6912919 Z"/>
      <path stroke="#3F6C9F" stroke-linecap="round" stroke-linejoin="round" stroke-width="2" d="M134.607737,75.9937608 C188.150978,44.5812632 276.652765,45.4964211 332.118017,78.0380096 C387.584581,110.578278 389.145559,162.500612 335.602318,193.914431 C282.059078,225.326664 193.557291,224.410714 138.092039,191.870182 C82.6267877,159.328593 81.0644972,107.406258 134.607737,75.9937608 Z"/>
      <path stroke="#3F6C9F" stroke-linecap="round" stroke-linejoin="round" stroke-width="2" d="M151.957039,86.1727464 C196.256508,60.1825263 269.479358,60.9405359 315.37,87.8630813 C361.260642,114.786947 362.552486,157.745225 318.253017,183.735445 C273.953547,209.725005 200.730698,208.967259 154.840056,182.043789 C108.949413,155.121244 107.65757,112.161646 151.957039,86.1727464 Z"/>
    </g>
    <g transform="translate(32 75)">
      <path fill="#3F6C9F" fill-opacity=".1" d="M160.877834,237.03624 C205.419846,211.056246 279.043843,211.814335 325.184806,238.725846 C371.327083,265.638671 372.625163,308.579105 328.083151,334.559098 C283.541138,360.538041 209.917142,359.780609 163.776178,332.868178 C117.633902,305.956668 116.335822,263.01492 160.877834,237.03624 Z"/>
      <path fill="#E01A33" d="M241.482295,1.97076923 C275.393978,1.97076923 302.925625,29.5024154 302.925625,63.4127846 C302.925625,97.3244677 275.393978,124.856114 241.482295,124.856114 C207.571926,124.856114 180.04028,97.3244677 180.04028,63.4127846 C180.04028,29.5024154 207.571926,1.97076923 241.482295,1.97076923 Z"/>
      <g transform="translate(179.997 .946)">
        <mask id="integrations@1x-b" fill="#fff">
          <use xlink:href="#integrations@1x-a"/>
        </mask>
        <polygon stroke="#FFF" stroke-linecap="round" stroke-linejoin="round" points="26.297 12.521 26.297 51.249 3.214 78.776 40.301 93.295 64.635 122.196 83.14 92.639 118.736 81.809 95.464 52.455 99.044 14.751 62.758 29.031" mask="url(#integrations@1x-b)"/>
        <polyline stroke="#FFF" stroke-linecap="round" stroke-linejoin="round" points="62.758 29.031 62.758 65.407 83.14 92.639" mask="url(#integrations@1x-b)"/>
        <polyline stroke="#FFF" stroke-linecap="round" stroke-linejoin="round" points="95.464 52.455 62.758 68.884 42.377 96.116" mask="url(#integrations@1x-b)"/>
        <line x1="26.297" x2="62.758" y1="52.492" y2="65.586" stroke="#FFF" stroke-linecap="round" stroke-linejoin="round" mask="url(#integrations@1x-b)"/>
        <path fill="#FFF" d="M26.2966308 5.62851692C30.1002154 5.62851692 33.1890677 8.71736923 33.1890677 12.5209538 33.1890677 16.3258523 30.1002154 19.4133908 26.2966308 19.4133908 22.4930462 19.4133908 19.4041938 16.3258523 19.4041938 12.5209538 19.4041938 8.71736923 22.4930462 5.62851692 26.2966308 5.62851692zM99.0442923 7.85811385C102.847877 7.85811385 105.936729 10.9456523 105.936729 14.7505508 105.936729 18.5541354 102.847877 21.6429877 99.0442923 21.6429877 95.2407077 21.6429877 92.1518554 18.5541354 92.1518554 14.7505508 92.1518554 10.9456523 95.2407077 7.85811385 99.0442923 7.85811385zM118.736218 74.9168215C122.541117 74.9168215 125.628655 78.00436 125.628655 81.8092585 125.628655 85.6128431 122.541117 88.7016954 118.736218 88.7016954 114.932634 88.7016954 111.843782 85.6128431 111.843782 81.8092585 111.843782 78.00436 114.932634 74.9168215 118.736218 74.9168215zM3.21366769 71.8831508C7.01856615 71.8831508 10.1061046 74.9720031 10.1061046 78.7755877 10.1061046 82.5791723 7.01856615 85.6680246 3.21366769 85.6680246-.589916923 85.6680246-3.67876923 82.5791723-3.67876923 78.7755877-3.67876923 74.9720031-.589916923 71.8831508 3.21366769 71.8831508zM62.7584892 114.220529C66.5633877 114.220529 69.6509262 117.308068 69.6509262 121.112966 69.6509262 124.916551 66.5633877 128.005403 62.7584892 128.005403 58.9549046 128.005403 55.8660523 124.916551 55.8660523 121.112966 55.8660523 117.308068 58.9549046 114.220529 62.7584892 114.220529zM62.7584892 58.5147662C66.5633877 58.5147662 69.6509262 61.6036185 69.6509262 65.4072031 69.6509262 69.2121015 66.5633877 72.29964 62.7584892 72.29964 58.9549046 72.29964 55.8660523 69.2121015 55.8660523 65.4072031 55.8660523 61.6036185 58.9549046 58.5147662 62.7584892 58.5147662z" mask="url(#integrations@1x-b)"/>
      </g>
      <path stroke="#FFF" stroke-linecap="round" stroke-linejoin="round" d="M241.482295,1.97076923 C275.393978,1.97076923 302.925625,29.5024154 302.925625,63.4127846 C302.925625,97.3244677 275.393978,124.856114 241.482295,124.856114 C207.571926,124.856114 180.04028,97.3244677 180.04028,63.4127846 C180.04028,29.5024154 207.571926,1.97076923 241.482295,1.97076923 Z"/>
      <polygon stroke="#FFF" stroke-linecap="round" stroke-linejoin="round" points="241.725 28.08 277.73 54.238 263.978 96.564 219.474 96.564 205.722 54.238"/>
      <path fill="#FFF" d="M242.659502 22.5245785C246.4644 22.5245785 249.551938 25.6134308 249.551938 29.4170154 249.551938 33.2219138 246.4644 36.3094523 242.659502 36.3094523 238.855917 36.3094523 235.767065 33.2219138 235.767065 29.4170154 235.767065 25.6134308 238.855917 22.5245785 242.659502 22.5245785zM220.078428 87.5954369C223.882012 87.5954369 226.970865 90.6842892 226.970865 94.4878738 226.970865 98.2927723 223.882012 101.380311 220.078428 101.380311 216.274843 101.380311 213.185991 98.2927723 213.185991 94.4878738 213.185991 90.6842892 216.274843 87.5954369 220.078428 87.5954369zM262.804705 87.1434738C259.00112 87.1434738 255.912268 90.2323262 255.912268 94.0359108 255.912268 97.8408092 259.00112 100.928348 262.804705 100.928348 266.609603 100.928348 269.697142 97.8408092 269.697142 94.0359108 269.697142 90.2323262 266.609603 87.1434738 262.804705 87.1434738zM206.293554 46.5456277C210.097138 46.5456277 213.185991 49.63448 213.185991 53.4380646 213.185991 57.2429631 210.097138 60.3305015 206.293554 60.3305015 202.489969 60.3305015 199.401117 57.2429631 199.401117 53.4380646 199.401117 49.63448 202.489969 46.5456277 206.293554 46.5456277zM276.589578 46.0936646C272.785994 46.0936646 269.697142 49.1825169 269.697142 52.9861015 269.697142 56.791 272.785994 59.8785385 276.589578 59.8785385 280.394477 59.8785385 283.482015 56.791 283.482015 52.9861015 283.482015 49.1825169 280.394477 46.0936646 276.589578 46.0936646z"/>
      <line x1="206.297" x2="212.332" y1="134.292" y2="173.571" stroke="#5A6D83" stroke-linecap="round" stroke-linejoin="round" stroke-width="2"/>
      <line x1="271.605" x2="266.843" y1="152.518" y2="183.504" stroke="#5A6D83" stroke-linecap="round" stroke-linejoin="round" stroke-width="2"/>
      <line x1="230.972" x2="233.599" y1="179.019" y2="202.227" stroke="#5A6D83" stroke-linecap="round" stroke-linejoin="round" stroke-width="2"/>
      <path stroke="#01050C" stroke-linecap="round" stroke-linejoin="round" d="M244.480492 262.011142C244.480492 262.011142 373.06136 359.787966 406.430425 385.16254 407.907188 386.284959 409.891095 386.47389 411.553111 385.650108 413.213812 384.826327 414.264889 383.132254 414.264889 381.277891 414.264889 369.965807 414.264889 352.94112 414.264889 352.94112M244.480492 262.011142C244.480492 262.011142 346.688526 191.963434 367.95444 177.388938 370.36272 175.738748 371.802695 173.007262 371.802695 170.087895 371.802695 163.149474 371.802695 150.91888 371.802695 150.91888M244.480492 262.011142C244.480492 262.011142 123.408255 197.012545 97.9446031 183.341975 95.0725354 181.800834 93.2804492 178.803951 93.2804492 175.544298 93.2804492 167.82808 93.2804492 154.404514 93.2804492 154.404514M244.480492 262.011142C244.480492 262.011142 63.3300123 274.507132 19.5068052 277.530292 17.059504 277.698465 14.6518809 276.844465 12.8584809 275.170625 11.0650809 273.496785 10.0469815 271.152883 10.0469815 268.699932 10.0469815 259.747385 10.0469815 247.686277 10.0469815 247.686277"/>
      <line x1="244.48" x2="99.389" y1="262.011" y2="237.073" stroke="#01050C" stroke-linecap="round" stroke-linejoin="round"/>
      <line x1="244.48" x2="350.333" y1="262.011" y2="235.759" stroke="#01050C" stroke-linecap="round" stroke-linejoin="round"/>
      <line x1="244.48" x2="243.165" y1="262.011" y2="195.03" stroke="#01050C" stroke-linecap="round" stroke-linejoin="round"/>
      <line x1="244.48" x2="261.559" y1="262.011" y2="377.655" stroke="#01050C" stroke-linecap="round" stroke-linejoin="round"/>
      <line x1="244.48" x2="57.345" y1="262.011" y2="337.305" stroke="#01050C" stroke-linecap="round" stroke-linejoin="round"/>
      <path stroke="#01050C" stroke-linecap="round" stroke-linejoin="round" d="M91.7918615,234.631902 C93.4236585,233.689874 96.0736862,233.689874 97.7041692,234.631902 C99.3359662,235.573929 99.3359662,237.103246 97.7041692,238.045274 C96.0736862,238.987302 93.4236585,238.987302 91.7918615,238.045274 C90.1613785,237.103246 90.1613785,235.573929 91.7918615,234.631902 Z"/>
      <path stroke="#01050C" stroke-linecap="round" stroke-linejoin="round" d="M91.7918615 234.631902C93.4236585 233.689874 96.0736862 233.689874 97.7041692 234.631902 99.3359662 235.573929 99.3359662 237.103246 97.7041692 238.045274 96.0736862 238.987302 93.4236585 238.987302 91.7918615 238.045274 90.1613785 237.103246 90.1613785 235.573929 91.7918615 234.631902zM351.9334 232.839815C353.565197 231.897788 356.215225 231.897788 357.845708 232.839815 359.477505 233.780529 359.477505 235.31116 357.845708 236.253188 356.215225 237.195215 353.565197 237.195215 351.9334 236.253188 350.302917 235.31116 350.302917 233.780529 351.9334 232.839815zM239.687582 190.110911C241.319378 189.168883 243.968092 189.168883 245.599889 190.110911 247.231686 191.052938 247.231686 192.582255 245.599889 193.524283 243.968092 194.466311 241.319378 194.466311 239.687582 193.524283 238.055785 192.582255 238.055785 191.052938 239.687582 190.110911zM259.395274 379.305151C261.027071 378.363123 263.675785 378.363123 265.307582 379.305151 266.939378 380.247047 266.939378 381.776627 265.307582 382.718523 263.675785 383.660551 261.027071 383.660551 259.395274 382.718523 257.763477 381.776627 257.763477 380.247047 259.395274 379.305151zM49.7487846 337.111902C51.3805815 336.169874 54.0306092 336.169874 55.6610923 337.111902 57.2928892 338.053929 57.2928892 339.583246 55.6610923 340.525274 54.0306092 341.467302 51.3805815 341.467302 49.7487846 340.525274 48.1183015 339.583246 48.1183015 338.053929 49.7487846 337.111902zM244.480492 261.609105C244.480492 261.609105 423.428966 268.046951 466.344437 269.59072 468.746148 269.677434 471.078225 268.784018 472.807246 267.115434 474.537582 265.448163 475.513769 263.148932 475.513769 260.745908 475.513769 252.731446 475.513769 242.370455 475.513769 242.370455M244.480492 262.011142C244.480492 262.011142 150.621951 365.168298 119.410222 399.47269 117.819154 401.221419 115.316277 401.811993 113.111643 400.958912 110.905695 400.105963 109.452582 397.98489 109.452582 395.620493 109.452582 382.58911 109.452582 365.669136 109.452582 365.669136"/>
      <path fill="#FFF" d="M410.323351,251.99832 C424.100342,244.044295 435.286428,250.501849 435.286428,266.411212 C435.286428,282.320575 424.100342,301.694551 410.323351,309.648575 C396.54636,317.6026 385.360274,311.145046 385.360274,295.235683 C385.360274,279.327634 396.54636,259.953658 410.323351,251.99832 Z"/>
      <path stroke="#01050C" stroke-linecap="round" stroke-linejoin="round" d="M410.323351,251.99832 C424.100342,244.044295 435.286428,250.501849 435.286428,266.411212 C435.286428,282.320575 424.100342,301.694551 410.323351,309.648575 C396.54636,317.6026 385.360274,311.145046 385.360274,295.235683 C385.360274,279.327634 396.54636,259.953658 410.323351,251.99832 Z"/>
      <polyline stroke="#01050C" stroke-linecap="round" stroke-linejoin="round" stroke-width="2" points="398.903 283.27 409.414 292.876 422.553 269.616"/>
      <path fill="#D1D9E0" fill-opacity=".9" d="M415.578735,254.626012 C429.355726,246.671988 440.541812,253.129542 440.541812,269.038905 C440.541812,284.948268 429.355726,304.322243 415.578735,312.276268 C401.801745,320.230292 390.615658,313.772738 390.615658,297.863375 C390.615658,281.955326 401.801745,262.581351 415.578735,254.626012 Z"/>
      <path stroke="#01050C" stroke-linecap="round" stroke-linejoin="round" stroke-opacity=".9" d="M415.578735,254.626012 C429.355726,246.671988 440.541812,253.129542 440.541812,269.038905 C440.541812,284.948268 429.355726,304.322243 415.578735,312.276268 C401.801745,320.230292 390.615658,313.772738 390.615658,297.863375 C390.615658,281.955326 401.801745,262.581351 415.578735,254.626012 Z"/>
      <path fill="#3F6C9F" fill-opacity=".1" d="M90.8064769,48.0788862 C104.584782,40.1248615 115.769554,46.5824154 115.769554,62.4917785 C115.769554,78.3998277 104.584782,97.7738031 90.8064769,105.729142 C77.0294862,113.683166 65.8434,107.225612 65.8434,91.3162492 C65.8434,75.4068862 77.0294862,56.0329108 90.8064769,48.0788862 Z"/>
      <path fill="#D1D9E0" d="M92.1203231,48.0788862 C105.898628,40.1248615 117.0834,46.5824154 117.0834,62.4917785 C117.0834,78.3998277 105.898628,97.7738031 92.1203231,105.729142 C78.3433323,113.683166 67.1572462,107.225612 67.1572462,91.3162492 C67.1572462,75.4068862 78.3433323,56.0329108 92.1203231,48.0788862 Z"/>
      <path stroke="#01050C" stroke-linecap="round" stroke-linejoin="round" d="M92.1203231,48.0788862 C105.898628,40.1248615 117.0834,46.5824154 117.0834,62.4917785 C117.0834,78.3998277 105.898628,97.7738031 92.1203231,105.729142 C78.3433323,113.683166 67.1572462,107.225612 67.1572462,91.3162492 C67.1572462,75.4068862 78.3433323,56.0329108 92.1203231,48.0788862 Z"/>
      <path fill="#FFF" d="M97.3757077,49.3927323 C111.154012,41.4387077 122.338785,47.8962615 122.338785,63.8056246 C122.338785,79.7136738 111.154012,99.0876492 97.3757077,107.042988 C83.5987169,114.997012 72.4126308,108.539458 72.4126308,92.6300954 C72.4126308,76.7207323 83.5987169,57.3467569 97.3757077,49.3927323 Z"/>
      <path stroke="#01050C" stroke-linecap="round" stroke-linejoin="round" d="M97.3757077,49.3927323 C111.154012,41.4387077 122.338785,47.8962615 122.338785,63.8056246 C122.338785,79.7136738 111.154012,99.0876492 97.3757077,107.042988 C83.5987169,114.997012 72.4126308,108.539458 72.4126308,92.6300954 C72.4126308,76.7207323 83.5987169,57.3467569 97.3757077,49.3927323 Z"/>
      <path fill="#FFF" d="M93.7547477,148.603883 C95.7531077,147.449012 97.3757077,148.387098 97.3757077,150.695526 C97.3757077,153.00264 95.7531077,155.814271 93.7547477,156.969142 C91.7550738,158.122698 90.1324738,157.185926 90.1324738,154.877498 C90.1324738,152.569071 91.7550738,149.75744 93.7547477,148.603883 Z"/>
      <path stroke="#01050C" stroke-linecap="round" stroke-linejoin="round" d="M93.7547477,148.603883 C95.7531077,147.449012 97.3757077,148.387098 97.3757077,150.695526 C97.3757077,153.00264 95.7531077,155.814271 93.7547477,156.969142 C91.7550738,158.122698 90.1324738,157.185926 90.1324738,154.877498 C90.1324738,152.569071 91.7550738,149.75744 93.7547477,148.603883 Z"/>
      <path fill="#FFF" d="M370.976286,148.603883 C368.976612,147.449012 367.354012,148.387098 367.354012,150.695526 C367.354012,153.00264 368.976612,155.814271 370.976286,156.969142 C372.974646,158.122698 374.597246,157.185926 374.597246,154.877498 C374.597246,152.569071 372.974646,149.75744 370.976286,148.603883 Z"/>
      <path stroke="#01050C" stroke-linecap="round" stroke-linejoin="round" d="M370.976286,148.603883 C368.976612,147.449012 367.354012,148.387098 367.354012,150.695526 C367.354012,153.00264 368.976612,155.814271 370.976286,156.969142 C372.974646,158.122698 374.597246,157.185926 374.597246,154.877498 C374.597246,152.569071 372.974646,149.75744 370.976286,148.603883 Z"/>
      <path fill="#FFF" d="M10.3249914,242.063015 C11.2364065,241.536163 11.9763646,242.984022 11.9763646,245.292449 C11.9763646,247.599563 11.2364065,249.901422 10.3249914,250.428274 C9.41370769,250.953812 8.67374954,249.507268 8.67374954,247.19884 C8.67374954,244.890412 9.41370769,242.588554 10.3249914,242.063015 Z"/>
      <path stroke="#01050C" stroke-linecap="round" stroke-linejoin="round" d="M10.3249914,242.063015 C11.2364065,241.536163 11.9763646,242.984022 11.9763646,245.292449 C11.9763646,247.599563 11.2364065,249.901422 10.3249914,250.428274 C9.41370769,250.953812 8.67374954,249.507268 8.67374954,247.19884 C8.67374954,244.890412 9.41370769,242.588554 10.3249914,242.063015 Z"/>
      <path fill="#FFF" d="M475.427055,236.807631 C474.515246,236.280778 473.775551,237.728637 473.775551,240.037065 C473.775551,242.344178 474.515246,244.646037 475.427055,245.172889 C476.337551,245.698428 477.077246,244.251883 477.077246,241.943455 C477.077246,239.635028 476.337551,237.333169 475.427055,236.807631 Z"/>
      <path stroke="#01050C" stroke-linecap="round" stroke-linejoin="round" d="M475.427055,236.807631 C474.515246,236.280778 473.775551,237.728637 473.775551,240.037065 C473.775551,242.344178 474.515246,244.646037 475.427055,245.172889 C476.337551,245.698428 477.077246,244.251883 477.077246,241.943455 C477.077246,239.635028 476.337551,237.333169 475.427055,236.807631 Z"/>
      <path fill="#FFF" d="M414.737874,352.249906 C416.737548,351.095166 418.360148,352.032727 418.360148,354.341154 C418.360148,356.649451 416.737548,359.460556 414.737874,360.614638 C412.739514,361.768852 411.1156,360.831817 411.1156,358.523521 C411.1156,356.215093 412.739514,353.404119 414.737874,352.249906 Z"/>
      <path stroke="#01050C" stroke-linecap="round" stroke-linejoin="round" d="M414.737874,352.249906 C416.737548,351.095166 418.360148,352.032727 418.360148,354.341154 C418.360148,356.649451 416.737548,359.460556 414.737874,360.614638 C412.739514,361.768852 411.1156,360.831817 411.1156,358.523521 C411.1156,356.215093 412.739514,353.404119 414.737874,352.249906 Z"/>
      <polyline stroke="#01050C" stroke-linecap="round" stroke-linejoin="round" stroke-width="2" points="85.957 80.664 96.468 90.27 109.606 67.01"/>
      <path fill="#D1D9E0" d="M12.3464751,206.448588 L5.15697754,206.448588 L5.15816,206.409172 C2.462936,205.679988 0.406372615,195.001046 0.406372615,180.724794 C0.406372615,164.815431 2.96009538,150.424874 6.10544308,148.609138 C6.32590646,148.481695 6.54347938,148.419945 6.75763631,148.419945 L6.75763631,148.419945 L13.9471338,148.419945 L12.3464751,206.448588 Z"/>
      <path stroke="#01050C" stroke-linecap="round" stroke-linejoin="round" d="M12.3464751,206.448588 L5.15697754,206.448588 L5.15816,206.409172 C2.462936,205.679988 0.406372615,195.001046 0.406372615,180.724794 C0.406372615,164.815431 2.96009538,150.424874 6.10544308,148.609138 C6.32590646,148.481695 6.54347938,148.419945 6.75763631,148.419945 L6.75763631,148.419945 L13.9471338,148.419945 L12.3464751,206.448588 Z"/>
      <path fill="#FFF" d="M12.6746738,148.609138 C15.8200215,146.793403 18.3736129,158.234375 18.3736129,174.143738 C18.3736129,190.053102 15.8200215,204.443658 12.6746738,206.259394 C9.52932615,208.075129 6.97560338,196.632843 6.97560338,180.724794 C6.97560338,164.815431 9.52932615,150.424874 12.6746738,148.609138 Z"/>
      <path stroke="#01050C" stroke-linecap="round" stroke-linejoin="round" d="M12.6746738,148.609138 C15.8200215,146.793403 18.3736129,158.234375 18.3736129,174.143738 C18.3736129,190.053102 15.8200215,204.443658 12.6746738,206.259394 C9.52932615,208.075129 6.97560338,196.632843 6.97560338,180.724794 C6.97560338,164.815431 9.52932615,150.424874 12.6746738,148.609138 Z"/>
      <polyline stroke="#01050C" stroke-linecap="round" stroke-linejoin="round" points="10.376 179.711 12.419 189.317 14.973 166.057"/>
      <path fill="#D1D9E0" d="M473.025345,196.554012 L480.214711,196.554012 L480.214711,196.514597 C482.909409,195.785412 484.965578,185.106471 484.965578,170.830218 C484.965578,154.920855 482.412775,140.530298 479.267428,138.714563 C479.046702,138.58712 478.828603,138.525369 478.614446,138.525369 L478.614446,138.525369 L471.42508,138.525369 L473.025345,196.554012 Z"/>
      <path stroke="#01050C" stroke-linecap="round" stroke-linejoin="round" d="M473.025345,196.554012 L480.214711,196.554012 L480.214711,196.514597 C482.909409,195.785412 484.965578,185.106471 484.965578,170.830218 C484.965578,154.920855 482.412775,140.530298 479.267428,138.714563 C479.046702,138.58712 478.828603,138.525369 478.614446,138.525369 L478.614446,138.525369 L471.42508,138.525369 L473.025345,196.554012 Z"/>
      <path fill="#FFF" d="M471.760111,138.714563 C468.614763,136.898828 466.06196,148.3398 466.06196,164.249163 C466.06196,180.158526 468.614763,194.547769 471.760111,196.364818 C474.905458,198.180554 477.459575,186.738268 477.459575,170.830218 C477.459575,154.920855 474.905458,140.530298 471.760111,138.714563 Z"/>
      <path stroke="#01050C" stroke-linecap="round" stroke-linejoin="round" d="M471.760111,138.714563 C468.614763,136.898828 466.06196,148.3398 466.06196,164.249163 C466.06196,180.158526 468.614763,194.547769 471.760111,196.364818 C474.905458,198.180554 477.459575,186.738268 477.459575,170.830218 C477.459575,154.920855 474.905458,140.530298 471.760111,138.714563 Z"/>
      <path fill="#D1D9E0" d="M375.995178,55.5257662 C362.218188,47.5717415 351.032102,54.0292954 351.032102,69.9386585 C351.032102,85.8467077 362.218188,105.220683 375.995178,113.176022 C389.772169,121.130046 400.958255,114.672492 400.958255,98.7631292 C400.958255,82.8537662 389.772169,63.4797908 375.995178,55.5257662 Z"/>
      <path stroke="#01050C" stroke-linecap="round" stroke-linejoin="round" d="M375.995178,55.5257662 C362.218188,47.5717415 351.032102,54.0292954 351.032102,69.9386585 C351.032102,85.8467077 362.218188,105.220683 375.995178,113.176022 C389.772169,121.130046 400.958255,114.672492 400.958255,98.7631292 C400.958255,82.8537662 389.772169,63.4797908 375.995178,55.5257662 Z"/>
      <path fill="#FFF" d="M370.739794,56.8396123 C356.962803,48.8855877 345.776717,55.3431415 345.776717,71.2525046 C345.776717,87.1605538 356.962803,106.534529 370.739794,114.489868 C384.516785,122.443892 395.702871,115.986338 395.702871,100.076975 C395.702871,84.1676123 384.516785,64.7936369 370.739794,56.8396123 Z"/>
      <path stroke="#01050C" stroke-linecap="round" stroke-linejoin="round" d="M370.739794,56.8396123 C356.962803,48.8855877 345.776717,55.3431415 345.776717,71.2525046 C345.776717,87.1605538 356.962803,106.534529 370.739794,114.489868 C384.516785,122.443892 395.702871,115.986338 395.702871,100.076975 C395.702871,84.1676123 384.516785,64.7936369 370.739794,56.8396123 Z"/>
      <polyline stroke="#01050C" stroke-linecap="round" stroke-linejoin="round" stroke-width="2" points="358.258 81.369 370.083 97.545 383.221 78.899"/>
      <path fill="#5A6D83" d="M175.846483,241.788422 C213.513138,219.8196 274.675305,219.8196 312.34196,241.788422 C350.008615,263.757243 350.008615,299.42948 312.34196,321.399615 C274.675305,343.368437 213.513138,343.368437 175.846483,321.399615 C138.179828,299.42948 138.179828,263.757243 175.846483,241.788422 Z"/>
      <path stroke="#01050C" stroke-linecap="round" stroke-linejoin="round" d="M175.846483,241.788422 C213.513138,219.8196 274.675305,219.8196 312.34196,241.788422 C350.008615,263.757243 350.008615,299.42948 312.34196,321.399615 C274.675305,343.368437 213.513138,343.368437 175.846483,321.399615 C138.179828,299.42948 138.179828,263.757243 175.846483,241.788422 Z"/>
      <path fill="#EFF4F7" d="M175.846483,236.533037 C213.513138,214.564215 274.675305,214.564215 312.34196,236.533037 C350.008615,258.501858 350.008615,294.174095 312.34196,316.144231 C274.675305,338.113052 213.513138,338.113052 175.846483,316.144231 C138.179828,294.174095 138.179828,258.501858 175.846483,236.533037 Z"/>
      <path stroke="#01050C" stroke-linecap="round" stroke-linejoin="round" d="M175.846483,236.533037 C213.513138,214.564215 274.675305,214.564215 312.34196,236.533037 C350.008615,258.501858 350.008615,294.174095 312.34196,316.144231 C274.675305,338.113052 213.513138,338.113052 175.846483,316.144231 C138.179828,294.174095 138.179828,258.501858 175.846483,236.533037 Z"/>
      <path fill="#5A6D83" fill-opacity=".2" d="M210.174655,256.352406 C228.895649,245.543394 259.292794,245.543394 278.013788,256.352406 C296.734782,267.160105 296.734782,284.710462 278.013788,295.519474 C259.292794,306.328486 228.895649,306.328486 210.174655,295.519474 C191.453662,284.710462 191.453662,267.160105 210.174655,256.352406 Z"/>
      <polyline stroke="#01050C" stroke-linecap="round" stroke-linejoin="round" points="469.462 171.323 471.505 180.928 474.059 157.668"/>
      <path fill="#01050C" d="M266.716025,282.084083 L263.925415,283.694858 L260.625034,283.500409 C260.669705,285.096732 259.9576,286.319923 258.487406,287.167354 C257.172246,287.926757 255.63636,288.328794 253.878434,288.373465 C252.133646,288.403683 250.638489,288.058142 249.392963,287.340782 C247.910945,286.484154 247.391975,285.362129 247.834742,283.973394 L248.142182,283.028738 C248.148751,283.016914 248.15532,282.994578 248.161889,282.961732 C248.168458,282.928886 248.177655,282.881588 248.190794,282.822465 C246.163529,282.785677 244.642095,282.474295 243.62912,281.889634 C242.627969,281.311542 242.140532,280.651991 242.165495,279.910982 C242.204911,279.163403 242.750157,278.485458 243.802548,277.877148 C244.822092,277.288545 245.970394,276.977163 247.247452,276.944317 C248.524511,276.911471 249.628142,277.162415 250.558345,277.699778 C251.199502,278.070283 251.597597,278.511735 251.751317,279.022822 C251.911606,279.529966 251.882702,280.26572 251.664603,281.228769 L257.574283,281.550662 L257.563772,281.445554 C257.538809,281.096071 257.503335,280.76104 257.458665,280.439148 C257.413994,280.117255 257.356185,279.797991 257.285237,279.483982 L260.249274,279.506317 C260.326791,279.757262 260.388542,280.066015 260.437154,280.431265 C260.484452,280.7952 260.527809,281.2222 260.567225,281.710951 L266.716025,282.084083 Z M265.219554,266.712083 L267.876151,268.245342 C265.495462,268.367529 263.61272,268.828689 262.226612,269.628822 C260.699923,270.510412 259.962855,271.570686 260.014095,272.807015 C260.052197,274.044658 260.860212,275.119385 262.439455,276.02988 C263.997677,276.929865 265.839689,277.385769 267.962865,277.397594 C270.08604,277.408105 271.912286,276.973222 273.438975,276.091631 C274.228597,275.635726 274.769902,275.174566 275.065517,274.708151 C275.245514,274.455892 275.391351,274.172102 275.503028,273.855465 C275.616018,273.537514 275.700105,273.185403 275.757914,272.796505 L278.463123,274.357354 C277.904738,275.51748 276.919354,276.504178 275.508283,277.318763 C273.383794,278.545895 270.830991,279.163403 267.847246,279.175228 C264.858246,279.175228 262.306757,278.565603 260.19672,277.346354 C258.303468,276.254548 257.24188,274.918366 257.010643,273.340437 C256.734735,271.403828 257.819972,269.728674 260.263726,268.317603 C261.598594,267.547689 263.250098,267.01164 265.219554,266.712083 Z M235.22576,300.265086 L232.771495,301.681412 L227.604138,300.497637 L221.242495,304.171151 L223.196185,307.210077 L220.781335,308.605382 C218.122111,304.395818 215.148877,300.248006 212.804975,295.976692 C212.691985,295.770418 213.334455,295.670566 213.599852,295.51816 L235.22576,300.265086 Z M230.025557,288.542951 L226.618754,290.509778 L239.369631,297.872572 L237.128209,299.166711 L224.376018,291.805231 L220.960018,293.777314 L218.852609,292.560692 L227.918148,287.326329 L230.025557,288.542951 Z M239.928015,282.826406 L236.521212,284.793234 L249.272089,292.154714 L247.030668,293.450166 L234.278477,286.087372 L230.862477,288.059455 L228.755068,286.842834 L237.820606,281.609785 L239.928015,282.826406 Z M283.189028,272.573151 L280.947606,273.867289 L266.088006,265.289188 L268.330742,263.993735 L274.258815,267.417618 L274.114292,260.655252 L277.107234,258.927545 L277.116431,266.688434 L292.004935,267.483311 L289.002797,269.217588 L277.040228,268.489717 L277.040228,269.023138 L283.189028,272.573151 Z M292.336025,263.075357 L291.032689,263.828191 L294.564308,265.86728 L294.016434,266.183917 L290.483502,264.144828 L289.180166,264.897662 L288.665138,264.600732 L291.820997,262.778428 L292.336025,263.075357 Z M296.959449,264.485114 L296.411575,264.801751 L292.363615,262.464418 L293.180828,261.992748 L297.530972,263.018862 L297.554622,263.005723 L295.765163,260.501532 L296.582375,260.028548 L300.630335,262.36588 L300.081148,262.682517 L296.754489,260.761674 L296.742665,260.768243 L298.702923,263.477394 L298.337674,263.688923 L293.644615,262.557702 L293.632791,262.564271 L296.959449,264.485114 Z M251.145634,282.984068 L251.106218,283.106255 C250.823742,284.002298 250.709437,284.657908 250.760677,285.073083 C250.818486,285.484317 251.061548,285.814092 251.491175,286.062409 C252.107369,286.418462 252.919326,286.601086 253.925732,286.612911 C254.933452,286.601086 255.745409,286.418462 256.361603,286.062409 C257.227428,285.561834 257.657055,284.657908 257.650486,283.350631 L251.145634,282.984068 Z M224.582292,299.809182 L217.32592,298.164246 L220.067917,302.414538 L224.582292,299.809182 Z M248.78728,281.067166 L248.835892,280.883228 C248.912095,280.565277 248.964649,280.295938 248.993554,280.075212 C249.022458,279.854486 249.021145,279.683686 248.989612,279.561498 C248.944942,279.313182 248.749178,279.088514 248.402323,278.888809 C248.010797,278.662828 247.561462,278.555092 247.054317,278.566917 C246.548486,278.577428 246.072874,278.71144 245.630108,278.966326 C245.226757,279.200191 245.011286,279.468215 244.986323,279.773028 C244.946908,280.068643 245.113766,280.324843 245.486898,280.539 C245.923095,280.791258 246.526151,280.939723 247.296065,280.98308 L248.527138,281.050086 C248.578378,281.057969 248.665092,281.063225 248.78728,281.067166 Z M255.749351,266.55048 L251.558182,268.970585 L231.012255,257.107868 L234.742265,254.955788 L240.483772,251.539788 C242.07484,250.592505 244.258452,250.053828 246.543231,250.044475 C248.829323,250.03412 251.026074,250.554403 252.642105,251.487234 C252.671009,251.503 252.6986,251.52008 252.726191,251.535846 C255.99504,253.422529 256.067302,256.468025 252.891735,258.405948 C252.54488,258.618791 252.332037,258.747548 252.332037,258.747548 L267.838049,259.49644 L263.231705,262.369822 L248.192108,261.188674 L244.631585,259.133818 L248.866111,256.688751 C249.547997,256.295911 249.930326,255.762489 249.930326,255.205418 C249.930326,254.649662 249.547997,254.11624 248.866111,253.7234 C248.866111,253.722086 248.866111,253.722086 248.866111,253.722086 C248.184225,253.329246 247.260591,253.10852 246.296228,253.10852 C245.333178,253.10852 244.409545,253.329246 243.727658,253.722086 L238.628622,256.666415 L255.749351,266.55048 Z M263.575932,242.015717 L254.988634,246.974172 L260.564597,250.194409 L269.153209,245.235954 L272.295929,247.050375 L263.708631,252.008831 L269.285908,255.229068 L277.873206,250.270612 L281.015926,252.085034 L268.238772,259.463594 L247.654745,247.578542 L260.433212,240.201295 L263.575932,242.015717 Z M206.614132,294.966345 L202.013043,297.622942 L185.857991,282.982754 L189.838945,280.684837 L207.942431,284.847102 L200.712335,274.40728 L204.818105,272.037102 L229.701037,281.481028 L225.379797,283.907702 L209.982834,278.302834 L217.507231,288.53244 L214.273855,290.465108 L196.741892,286.160948 L206.614132,294.966345 Z M235.135105,278.452612 L230.945249,280.871403 L210.399323,269.01 L214.589178,266.589895 L235.135105,278.452612 Z M224.964622,260.678902 L229.82848,257.871212 L232.9712,259.685634 L228.107342,262.493323 L245.442228,272.502203 L241.251058,274.920994 L223.917486,264.913428 L219.173188,267.651483 L216.030468,265.837062 L220.773452,263.097692 L220.706446,263.059591 L224.896302,260.639486 L224.964622,260.678902 Z"/>
      <path fill="#FFF" d="M109.689074,359.904899 C107.6894,358.750685 106.0668,359.68772 106.0668,361.996016 C106.0668,364.304444 107.6894,367.115549 109.689074,368.269632 C111.688748,369.423846 113.311348,368.48681 113.311348,366.178514 C113.311348,363.870086 111.688748,361.058981 109.689074,359.904899 Z"/>
      <path stroke="#01050C" stroke-linecap="round" stroke-linejoin="round" d="M109.689074,359.904899 C107.6894,358.750685 106.0668,359.68772 106.0668,361.996016 C106.0668,364.304444 107.6894,367.115549 109.689074,368.269632 C111.688748,369.423846 113.311348,368.48681 113.311348,366.178514 C113.311348,363.870086 111.688748,361.058981 109.689074,359.904899 Z"/>
      <path fill="#FFF" d="M111.843782,259.450455 C98.0654769,251.496431 86.8807046,257.953985 86.8807046,273.863348 C86.8807046,289.771397 98.0654769,309.145372 111.843782,317.100711 C125.620772,325.054735 136.806858,318.597182 136.806858,302.687818 C136.806858,286.778455 125.620772,267.40448 111.843782,259.450455 Z"/>
      <path stroke="#01050C" stroke-linecap="round" stroke-linejoin="round" d="M111.843782,259.450455 C98.0654769,251.496431 86.8807046,257.953985 86.8807046,273.863348 C86.8807046,289.771397 98.0654769,309.145372 111.843782,317.100711 C125.620772,325.054735 136.806858,318.597182 136.806858,302.687818 C136.806858,286.778455 125.620772,267.40448 111.843782,259.450455 Z"/>
      <polyline stroke="#01050C" stroke-linecap="round" stroke-linejoin="round" stroke-width="2" points="99.613 288.094 108.81 299.014 120.635 282.794"/>
      <path fill="#D1D9E0" fill-opacity=".8" d="M106.588397,262.078148 C92.8100923,254.124123 81.62532,260.581677 81.62532,276.49104 C81.62532,292.399089 92.8100923,311.773065 106.588397,319.728403 C120.365388,327.682428 131.551474,321.224874 131.551474,305.315511 C131.551474,289.406148 120.365388,270.032172 106.588397,262.078148 Z"/>
      <path stroke="#01050C" stroke-linecap="round" stroke-linejoin="round" stroke-opacity=".8" d="M106.588397,262.078148 C92.8100923,254.124123 81.62532,260.581677 81.62532,276.49104 C81.62532,292.399089 92.8100923,311.773065 106.588397,319.728403 C120.365388,327.682428 131.551474,321.224874 131.551474,305.315511 C131.551474,289.406148 120.365388,270.032172 106.588397,262.078148 Z"/>
      <line x1="94.091" x2="94.091" y1="118.092" y2="146.997" stroke="#E01A33" stroke-dasharray="0 6 0 0" stroke-linecap="round" stroke-linejoin="round" stroke-width="2"/>
      <line x1="10.047" x2="10.047" y1="211.223" y2="240.128" stroke="#E01A33" stroke-dasharray="0 6 0 0" stroke-linecap="round" stroke-linejoin="round" stroke-width="2"/>
      <line x1="414.265" x2="414.265" y1="319.914" y2="348.818" stroke="#E01A33" stroke-dasharray="0 6 0 0" stroke-linecap="round" stroke-linejoin="round" stroke-width="2"/>
      <line x1="475.399" x2="475.399" y1="204.633" y2="233.537" stroke="#E01A33" stroke-dasharray="0 6 0 0" stroke-linecap="round" stroke-linejoin="round" stroke-width="2"/>
      <line x1="372.054" x2="372.054" y1="117.524" y2="146.428" stroke="#E01A33" stroke-dasharray="0 6 0 0" stroke-linecap="round" stroke-linejoin="round" stroke-width="2"/>
      <line x1="110.53" x2="110.53" y1="329.086" y2="357.99" stroke="#E01A33" stroke-dasharray="0 6 0 0" stroke-linecap="round" stroke-linejoin="round" stroke-width="2"/>
      <path fill="url(#integrations@1x-c)" d="M338.590748,262.801072 C315.377925,233.503481 289.645618,220.183506 241.783502,219.054335 C193.836535,224.479847 155.639812,235.141936 149.924515,269.247 L141,56.4904826 L350,47.247 L338.590748,262.801072 Z" opacity=".2"/>
    </g>
  </g>
</svg>
