<svg id="Слой_1" data-name="Слой 1" xmlns="http://www.w3.org/2000/svg" viewBox="0 0 650 323.77"><defs><style>.cls-1,.cls-23,.cls-26{fill:#14487f;}.cls-2,.cls-27{fill:#fff;}.cls-3{fill:#fdfdfd;}.cls-4{fill:#fafafa;}.cls-5{fill:#f8f8f8;}.cls-6{fill:#f5f5f5;}.cls-7{fill:#f3f3f3;}.cls-8{fill:#f0f0f0;}.cls-9{fill:#eee;}.cls-10{fill:#ececec;}.cls-11{fill:#e9e9e9;}.cls-12{fill:#e7e7e7;}.cls-13{fill:#e4e4e4;}.cls-14{fill:#e2e2e2;}.cls-15{fill:#dfdfdf;}.cls-16{fill:#ddd;}.cls-17{fill:#dadada;}.cls-18{fill:#d8d8d8;}.cls-19,.cls-24{fill:#a7a8a9;}.cls-20,.cls-22{fill:#4c9fc8;}.cls-21,.cls-25{fill:#67d2df;}.cls-22,.cls-23,.cls-24,.cls-25{fill-rule:evenodd;}.cls-26,.cls-27{stroke:#fff;stroke-miterlimit:10;}</style></defs><path class="cls-1" d="M428.58,17.64V4.49h9.06V6.75h-6.23V9.83h5.86v2.25h-5.86v3.3h6.23v2.26Z"/><path class="cls-1" d="M445,12.92l3.88,4.72h-3.3l-2.18-2.74-2.17,2.74h-3.32l3.88-4.72-3.65-4.44h3.34L443.37,11l1.94-2.48h3.31Z"/><path class="cls-1" d="M455.45,15.66l-.15,2.06a7.83,7.83,0,0,1-1.08.07,4.31,4.31,0,0,1-3.05-.91,3.68,3.68,0,0,1-1-2.78V10.59h-1.73V8.48h1.73V5.8H453V8.48h2.29v2.11H453v3.49c0,1.09.51,1.64,1.53,1.64A7,7,0,0,0,455.45,15.66Z"/><path class="cls-1" d="M464.94,13.59h-6a2.38,2.38,0,0,0,.72,1.6,2.52,2.52,0,0,0,1.67.49,4.34,4.34,0,0,0,1.41-.23,4.85,4.85,0,0,0,1.28-.66l.74,1.88a5,5,0,0,1-1.63.82,6.42,6.42,0,0,1-1.93.3,5,5,0,0,1-3.64-1.28A4.59,4.59,0,0,1,456.25,13a5.28,5.28,0,0,1,.58-2.48,4.25,4.25,0,0,1,1.6-1.68,4.46,4.46,0,0,1,2.34-.61,3.89,3.89,0,0,1,3,1.25,4.82,4.82,0,0,1,1.13,3.39Zm-5.38-2.88A2.61,2.61,0,0,0,459,12.2h3.6a2.43,2.43,0,0,0-.49-1.5,1.58,1.58,0,0,0-1.24-.5A1.68,1.68,0,0,0,459.56,10.71Z"/><path class="cls-1" d="M473.19,10.57l-1.59.17a2.51,2.51,0,0,0-1.66.66,2.17,2.17,0,0,0-.49,1.47v4.77h-2.81V8.48h2.7V10A3,3,0,0,1,472.2,8.3l.82-.06Z"/><path class="cls-1" d="M482.3,9.22a4.42,4.42,0,0,1,.81,2.9v5.52h-2.82V12.25a2.18,2.18,0,0,0-.34-1.36,1.29,1.29,0,0,0-1.08-.43,1.84,1.84,0,0,0-1.4.56,2.05,2.05,0,0,0-.54,1.49v5.13h-2.81V8.48h2.74V9.79a3.14,3.14,0,0,1,1.26-1.14,3.78,3.78,0,0,1,1.74-.39A3,3,0,0,1,482.3,9.22Z"/><path class="cls-1" d="M492.31,9.23a4.09,4.09,0,0,1,1,3v5.41h-2.67V16.28a2.24,2.24,0,0,1-.93,1.11,2.86,2.86,0,0,1-1.53.4,3.77,3.77,0,0,1-1.69-.37,3,3,0,0,1-1.19-1.05,2.66,2.66,0,0,1-.44-1.49,2.29,2.29,0,0,1,.51-1.58,3,3,0,0,1,1.65-.84,14.26,14.26,0,0,1,3.12-.26h.48v-.34a1.59,1.59,0,0,0-.35-1.16,1.81,1.81,0,0,0-1.23-.33,5.3,5.3,0,0,0-1.49.24,7.5,7.5,0,0,0-1.57.67l-.75-1.88a7.33,7.33,0,0,1,1.93-.81,7.81,7.81,0,0,1,2.14-.33A4.13,4.13,0,0,1,492.31,9.23ZM490.1,15.3a2,2,0,0,0,.5-1.43v-.31h-.31a6.43,6.43,0,0,0-2.12.24.88.88,0,0,0-.61.88,1.15,1.15,0,0,0,.35.84,1.21,1.21,0,0,0,.87.33A1.71,1.71,0,0,0,490.1,15.3Z"/><path class="cls-1" d="M495.4,17.64V4.49h2.81V17.64Z"/><path class="cls-1" d="M515.43,4.49h2.94l-5.91,13.15h-2.33L504.2,4.49h3l4.1,9.53Z"/><path class="cls-1" d="M519.06,4.08h3V6.71h-3Zm.1,13.56V8.48H522v9.16Z"/><path class="cls-1" d="M525,16.52a4.63,4.63,0,0,1-1.28-3.45,5,5,0,0,1,.61-2.52A4.23,4.23,0,0,1,526,8.86a5.38,5.38,0,0,1,2.59-.6,6,6,0,0,1,1.94.31,4.12,4.12,0,0,1,1.51.83l-.75,1.92a3.93,3.93,0,0,0-1.18-.66,3.6,3.6,0,0,0-1.26-.24,2.22,2.22,0,0,0-1.71.66,2.77,2.77,0,0,0-.6,1.94,2.84,2.84,0,0,0,.6,2,2.22,2.22,0,0,0,1.71.66,3.6,3.6,0,0,0,1.26-.24,3.93,3.93,0,0,0,1.18-.66l.75,1.94a4.4,4.4,0,0,1-1.57.82,6.6,6.6,0,0,1-2,.3A4.8,4.8,0,0,1,525,16.52Z"/><path class="cls-1" d="M539.41,15.66l-.15,2.06a7.83,7.83,0,0,1-1.08.07,4.3,4.3,0,0,1-3-.91,3.68,3.68,0,0,1-1-2.78V10.59h-1.74V8.48h1.74V5.8H537V8.48h2.3v2.11H537v3.49c0,1.09.51,1.64,1.53,1.64A7,7,0,0,0,539.41,15.66Z"/><path class="cls-1" d="M540.56,4.08h3V6.71h-3Zm.1,13.56V8.48h2.81v9.16Z"/><path class="cls-1" d="M559.25,9.21a4.62,4.62,0,0,1,.76,2.91v5.52H557.2V12.21a2.42,2.42,0,0,0-.29-1.34,1.12,1.12,0,0,0-1-.41,1.53,1.53,0,0,0-1.25.56,2.45,2.45,0,0,0-.45,1.57v5.05h-2.81V12.21a2.42,2.42,0,0,0-.29-1.34,1.12,1.12,0,0,0-1-.41,1.53,1.53,0,0,0-1.25.56,2.45,2.45,0,0,0-.45,1.57v5.05h-2.81V8.48h2.74V9.72a2.84,2.84,0,0,1,1.14-1.09,3.64,3.64,0,0,1,1.65-.37A2.67,2.67,0,0,1,553.9,10a3.24,3.24,0,0,1,1.25-1.24,3.44,3.44,0,0,1,1.77-.46A2.83,2.83,0,0,1,559.25,9.21Z"/><path class="cls-1" d="M569.3,17.41A6.89,6.89,0,0,1,567,16.3l.93-2.07a7.32,7.32,0,0,0,4.27,1.32,3.64,3.64,0,0,0,1.89-.4,1.24,1.24,0,0,0,.67-1.11,1.12,1.12,0,0,0-.61-1,8.52,8.52,0,0,0-2.15-.69,11.89,11.89,0,0,1-2.77-.85,3.61,3.61,0,0,1-1.51-1.24,3.29,3.29,0,0,1-.48-1.82,3.59,3.59,0,0,1,.66-2.13,4.36,4.36,0,0,1,1.86-1.46,6.6,6.6,0,0,1,2.76-.53,8.64,8.64,0,0,1,2.69.41,5.43,5.43,0,0,1,2.06,1.1l-.93,2.07a6.28,6.28,0,0,0-3.8-1.33,3.18,3.18,0,0,0-1.79.44,1.36,1.36,0,0,0-.66,1.2,1.08,1.08,0,0,0,.26.74,2,2,0,0,0,.84.51,12.14,12.14,0,0,0,1.66.47,9.26,9.26,0,0,1,3.65,1.43,2.94,2.94,0,0,1,1.11,2.43,3.48,3.48,0,0,1-1.44,2.94,6.59,6.59,0,0,1-4,1.07A10.15,10.15,0,0,1,569.3,17.41Z"/><path class="cls-1" d="M580.32,16.52A4.63,4.63,0,0,1,579,13.07a5,5,0,0,1,.61-2.52,4.23,4.23,0,0,1,1.74-1.69,5.38,5.38,0,0,1,2.59-.6,6,6,0,0,1,1.94.31,4.12,4.12,0,0,1,1.51.83l-.75,1.92a3.93,3.93,0,0,0-1.18-.66,3.6,3.6,0,0,0-1.26-.24,2.22,2.22,0,0,0-1.71.66,2.77,2.77,0,0,0-.6,1.94,2.84,2.84,0,0,0,.6,2,2.22,2.22,0,0,0,1.71.66,3.6,3.6,0,0,0,1.26-.24,3.93,3.93,0,0,0,1.18-.66l.75,1.94a4.4,4.4,0,0,1-1.57.82,6.6,6.6,0,0,1-2,.3A4.8,4.8,0,0,1,580.32,16.52Z"/><path class="cls-1" d="M590.54,17.2a4,4,0,0,1-1.69-1.66,5.05,5.05,0,0,1-.6-2.52,5.09,5.09,0,0,1,.6-2.53,4,4,0,0,1,1.69-1.65,5.4,5.4,0,0,1,2.56-.58,5.33,5.33,0,0,1,2.55.58,4,4,0,0,1,1.7,1.65A5.09,5.09,0,0,1,598,13a5.05,5.05,0,0,1-.6,2.52,4.06,4.06,0,0,1-1.7,1.66,5.33,5.33,0,0,1-2.55.59A5.4,5.4,0,0,1,590.54,17.2ZM595.15,13a3.1,3.1,0,0,0-.53-2,1.84,1.84,0,0,0-1.52-.65c-1.37,0-2.05.87-2.05,2.63s.68,2.63,2.05,2.63S595.15,14.77,595.15,13Z"/><path class="cls-1" d="M608.48,8.48v9.16h-2.74v-1.3a2.9,2.9,0,0,1-1.12,1.08,3.32,3.32,0,0,1-1.58.37,3.25,3.25,0,0,1-2.58-1,4.26,4.26,0,0,1-.85-2.9V8.48h2.81V14a1.8,1.8,0,0,0,.35,1.21,1.33,1.33,0,0,0,1.05.39,1.76,1.76,0,0,0,1.34-.56,2.09,2.09,0,0,0,.51-1.47V8.48Z"/><path class="cls-1" d="M616.62,15.66l-.15,2.06a8,8,0,0,1-1.09.07,4.28,4.28,0,0,1-3-.91,3.68,3.68,0,0,1-1-2.78V10.59h-1.73V8.48h1.73V5.8h2.82V8.48h2.3v2.11h-2.3v3.49c0,1.09.51,1.64,1.53,1.64A7.15,7.15,0,0,0,616.62,15.66Z"/><path class="cls-1" d="M617.77,4.08h3V6.71h-3Zm.1,13.56V8.48h2.81v9.16Z"/><path class="cls-1" d="M631,9.22a4.42,4.42,0,0,1,.8,2.9v5.52H629V12.25a2.17,2.17,0,0,0-.35-1.36,1.28,1.28,0,0,0-1.07-.43,1.88,1.88,0,0,0-1.41.56,2.09,2.09,0,0,0-.53,1.49v5.13h-2.82V8.48h2.75V9.79a3.18,3.18,0,0,1,1.25-1.14,3.85,3.85,0,0,1,1.75-.39A3,3,0,0,1,631,9.22Z"/><path class="cls-1" d="M643.28,8.48v8.17A4.3,4.3,0,0,1,642,20a5.46,5.46,0,0,1-3.75,1.14,9.14,9.14,0,0,1-2.36-.3,7.19,7.19,0,0,1-2-.84l.75-1.94a7.23,7.23,0,0,0,3.52,1c1.54,0,2.31-.73,2.31-2.18v-1A2.76,2.76,0,0,1,639.33,17a3.76,3.76,0,0,1-1.75.41,4,4,0,0,1-2.12-.56A3.79,3.79,0,0,1,634,15.23a5.37,5.37,0,0,1-.52-2.4,5.37,5.37,0,0,1,.52-2.4,3.88,3.88,0,0,1,1.45-1.6,4,4,0,0,1,2.12-.57,3.63,3.63,0,0,1,1.72.4,2.91,2.91,0,0,1,1.19,1.11V8.48Zm-3.34,6.12a2.64,2.64,0,0,0,.55-1.77,2.69,2.69,0,0,0-.55-1.78,1.92,1.92,0,0,0-1.54-.65,1.94,1.94,0,0,0-1.55.65,2.64,2.64,0,0,0-.56,1.78,2.6,2.6,0,0,0,.56,1.76,2.17,2.17,0,0,0,3.09,0Z"/><path class="cls-1" d="M499.05,110.45V97.3H502v13.15Z"/><path class="cls-1" d="M512.53,102a4.48,4.48,0,0,1,.8,2.9v5.52h-2.81v-5.39a2.15,2.15,0,0,0-.35-1.36,1.28,1.28,0,0,0-1.07-.43,1.85,1.85,0,0,0-1.41.56,2.09,2.09,0,0,0-.53,1.49v5.13h-2.82v-9.16h2.74v1.31a3.28,3.28,0,0,1,1.26-1.14,3.85,3.85,0,0,1,1.75-.39A3,3,0,0,1,512.53,102Z"/><path class="cls-1" d="M515.34,96.89h3v2.63h-3Zm.1,13.56v-9.16h2.81v9.16Z"/><path class="cls-1" d="M526.39,108.47l-.15,2a8.11,8.11,0,0,1-1.09.08,4.27,4.27,0,0,1-3-.92,3.62,3.62,0,0,1-1-2.77V103.4h-1.73v-2.11h1.73V98.61H524v2.68h2.29v2.11H524v3.49c0,1.09.51,1.64,1.53,1.64A7.15,7.15,0,0,0,526.39,108.47Z"/><path class="cls-1" d="M527.54,96.89h3v2.63h-3Zm.09,13.56v-9.16h2.82v9.16Z"/><path class="cls-1" d="M539.71,102a4.07,4.07,0,0,1,1,3v5.41H538v-1.36a2.24,2.24,0,0,1-.93,1.11,3,3,0,0,1-1.53.4,3.91,3.91,0,0,1-1.69-.37,3,3,0,0,1-1.19-1,2.68,2.68,0,0,1-.44-1.49,2.34,2.34,0,0,1,.51-1.59,3.21,3.21,0,0,1,1.65-.84,14.92,14.92,0,0,1,3.12-.26H538v-.33a1.58,1.58,0,0,0-.35-1.16,1.81,1.81,0,0,0-1.23-.33,5.3,5.3,0,0,0-1.49.24,7,7,0,0,0-1.57.67l-.75-1.88a7.68,7.68,0,0,1,1.93-.82,8.17,8.17,0,0,1,2.14-.32A4.13,4.13,0,0,1,539.71,102Zm-2.21,6.07a2,2,0,0,0,.5-1.43v-.32h-.31a6.36,6.36,0,0,0-2.12.25.88.88,0,0,0-.61.87,1.12,1.12,0,0,0,.35.84,1.18,1.18,0,0,0,.87.34A1.71,1.71,0,0,0,537.5,108.11Z"/><path class="cls-1" d="M542.8,110.45V97.3h2.81v13.15Z"/><path class="cls-1" d="M553.2,110.45V97.3h9.07v2.26H556v3.07h5.85v2.26H556v3.3h6.23v2.26Z"/><path class="cls-1" d="M569.59,105.73l3.88,4.72h-3.3L568,107.71l-2.16,2.74h-3.32l3.88-4.72-3.66-4.44h3.34l1.92,2.48,1.94-2.48h3.32Z"/><path class="cls-1" d="M581.87,101.67a4,4,0,0,1,1.44,1.7,5.89,5.89,0,0,1,.51,2.51,5.77,5.77,0,0,1-.51,2.49,3.92,3.92,0,0,1-1.43,1.65,4,4,0,0,1-3.79.2,2.91,2.91,0,0,1-1.17-1.08v4.67h-2.81V101.29h2.78v1.29a2.85,2.85,0,0,1,1.17-1.11,3.61,3.61,0,0,1,1.72-.4A3.73,3.73,0,0,1,581.87,101.67Zm-1.38,6.12a3,3,0,0,0,.54-1.91,3.16,3.16,0,0,0-.54-2,2,2,0,0,0-3.06,0,3.1,3.1,0,0,0-.54,2,3,3,0,0,0,.54,1.93,1.82,1.82,0,0,0,1.53.68A1.88,1.88,0,0,0,580.49,107.79Z"/><path class="cls-1" d="M585.54,110.45V97.3h2.82v13.15Z"/><path class="cls-1" d="M592.37,110a4.06,4.06,0,0,1-1.7-1.66,5.61,5.61,0,0,1,0-5,4,4,0,0,1,1.7-1.65,5.33,5.33,0,0,1,2.55-.58,5.4,5.4,0,0,1,2.56.58,4,4,0,0,1,1.69,1.65,5.61,5.61,0,0,1,0,5,4.1,4.1,0,0,1-1.69,1.66,5.4,5.4,0,0,1-2.56.59A5.33,5.33,0,0,1,592.37,110Zm4.6-4.19a3.09,3.09,0,0,0-.53-2,1.83,1.83,0,0,0-1.52-.66c-1.37,0-2,.88-2,2.63s.68,2.63,2,2.63S597,107.58,597,105.82Z"/><path class="cls-1" d="M601.39,96.89h3v2.63h-3Zm.1,13.56v-9.16h2.81v9.16Z"/><path class="cls-1" d="M612.43,108.47l-.15,2a7.85,7.85,0,0,1-1.08.08,4.31,4.31,0,0,1-3.05-.92,3.65,3.65,0,0,1-1-2.77V103.4h-1.73v-2.11h1.73V98.61H610v2.68h2.29v2.11H610v3.49c0,1.09.51,1.64,1.53,1.64A7,7,0,0,0,612.43,108.47Z"/><path class="cls-1" d="M475.2,247.59V234.44h2.91v13.15Z"/><path class="cls-1" d="M488.68,239.17a4.4,4.4,0,0,1,.81,2.9v5.52h-2.82V242.2a2.16,2.16,0,0,0-.34-1.36,1.29,1.29,0,0,0-1.08-.43,1.84,1.84,0,0,0-1.4.56,2.05,2.05,0,0,0-.54,1.49v5.13H480.5v-9.16h2.74v1.31a3.14,3.14,0,0,1,1.26-1.14,3.78,3.78,0,0,1,1.74-.39A3,3,0,0,1,488.68,239.17Z"/><path class="cls-1" d="M497.56,245.61l-.15,2a7.85,7.85,0,0,1-1.08.08,4.31,4.31,0,0,1-3.05-.92,3.65,3.65,0,0,1-1-2.77v-3.51h-1.73v-2.11h1.73v-2.68h2.82v2.68h2.29v2.11h-2.29V244c0,1.09.51,1.64,1.53,1.64A7,7,0,0,0,497.56,245.61Z"/><path class="cls-1" d="M507.05,243.54h-6a2.4,2.4,0,0,0,.72,1.6,2.54,2.54,0,0,0,1.67.49,4.5,4.5,0,0,0,2.69-.9l.74,1.89a5,5,0,0,1-1.63.82,6.42,6.42,0,0,1-1.93.3,5,5,0,0,1-3.64-1.28,4.59,4.59,0,0,1-1.34-3.48,5.25,5.25,0,0,1,.58-2.48,4.34,4.34,0,0,1,1.6-1.69,4.55,4.55,0,0,1,2.34-.6,3.86,3.86,0,0,1,3,1.25,4.82,4.82,0,0,1,1.13,3.39Zm-5.38-2.88a2.65,2.65,0,0,0-.59,1.48h3.6a2.4,2.4,0,0,0-.49-1.49,1.58,1.58,0,0,0-1.24-.5A1.68,1.68,0,0,0,501.67,240.66Z"/><path class="cls-1" d="M515.3,240.52l-1.59.17a2.42,2.42,0,0,0-1.66.66,2.16,2.16,0,0,0-.48,1.46v4.78h-2.82v-9.16h2.7V240a3.05,3.05,0,0,1,2.86-1.74l.82-.05Z"/><path class="cls-1" d="M524.41,239.17a4.4,4.4,0,0,1,.81,2.9v5.52H522.4V242.2a2.16,2.16,0,0,0-.34-1.36,1.29,1.29,0,0,0-1.08-.43,1.84,1.84,0,0,0-1.4.56,2.05,2.05,0,0,0-.54,1.49v5.13h-2.81v-9.16H519v1.31a3.14,3.14,0,0,1,1.26-1.14,3.81,3.81,0,0,1,1.74-.39A3,3,0,0,1,524.41,239.17Z"/><path class="cls-1" d="M534.42,239.18a4.06,4.06,0,0,1,1,3v5.41h-2.67v-1.36a2.24,2.24,0,0,1-.93,1.11,3,3,0,0,1-1.53.4,3.78,3.78,0,0,1-1.69-.38,2.87,2.87,0,0,1-1.19-1,2.68,2.68,0,0,1-.44-1.49,2.34,2.34,0,0,1,.51-1.59,3.21,3.21,0,0,1,1.65-.84,14.92,14.92,0,0,1,3.12-.26h.48v-.33a1.58,1.58,0,0,0-.35-1.16,1.81,1.81,0,0,0-1.23-.33,5.3,5.3,0,0,0-1.49.24,7,7,0,0,0-1.57.67l-.75-1.88a7.68,7.68,0,0,1,1.93-.82,8.17,8.17,0,0,1,2.14-.32A4.13,4.13,0,0,1,534.42,239.18Zm-2.21,6.07a2,2,0,0,0,.5-1.43v-.32h-.31a6.36,6.36,0,0,0-2.12.25.88.88,0,0,0-.61.87,1.12,1.12,0,0,0,.35.84,1.18,1.18,0,0,0,.87.34A1.74,1.74,0,0,0,532.21,245.25Z"/><path class="cls-1" d="M537.51,247.59V234.44h2.81v13.15Z"/><path class="cls-1" d="M549.65,247.36a6.94,6.94,0,0,1-2.3-1.11l.94-2.07a7.29,7.29,0,0,0,4.27,1.32,3.64,3.64,0,0,0,1.89-.4,1.25,1.25,0,0,0,.66-1.11,1.11,1.11,0,0,0-.6-1,8,8,0,0,0-2.16-.69,12,12,0,0,1-2.77-.86,3.6,3.6,0,0,1-1.51-1.24,3.24,3.24,0,0,1-.47-1.82,3.58,3.58,0,0,1,.66-2.12,4.49,4.49,0,0,1,1.85-1.47,6.83,6.83,0,0,1,2.76-.53,9,9,0,0,1,2.7.41,5.65,5.65,0,0,1,2.06,1.1l-.93,2.07a6.38,6.38,0,0,0-3.81-1.32,3.2,3.2,0,0,0-1.79.44,1.38,1.38,0,0,0-.65,1.2,1.09,1.09,0,0,0,.25.74,2.16,2.16,0,0,0,.84.51,12.35,12.35,0,0,0,1.67.47,9.33,9.33,0,0,1,3.65,1.43,3,3,0,0,1,1.1,2.43,3.44,3.44,0,0,1-1.43,2.93,6.55,6.55,0,0,1-4,1.08A10.47,10.47,0,0,1,549.65,247.36Z"/><path class="cls-1" d="M560.67,246.47a4.63,4.63,0,0,1-1.29-3.45,5.07,5.07,0,0,1,.62-2.53,4.33,4.33,0,0,1,1.73-1.69,5.53,5.53,0,0,1,2.59-.59,6,6,0,0,1,1.94.31,4,4,0,0,1,1.51.83l-.74,1.92a4.24,4.24,0,0,0-1.19-.67,3.82,3.82,0,0,0-1.26-.23,2.21,2.21,0,0,0-1.7.65,3.41,3.41,0,0,0,0,3.89,2.19,2.19,0,0,0,1.7.66,3.58,3.58,0,0,0,1.26-.23,4,4,0,0,0,1.19-.66l.74,1.94a4.44,4.44,0,0,1-1.56.82,6.72,6.72,0,0,1-2,.3A4.78,4.78,0,0,1,560.67,246.47Z"/><path class="cls-1" d="M570.89,247.15a4.12,4.12,0,0,1-1.7-1.66,5.61,5.61,0,0,1,0-5.05,4,4,0,0,1,1.7-1.65,5.33,5.33,0,0,1,2.55-.58,5.4,5.4,0,0,1,2.56.58,4,4,0,0,1,1.7,1.65,5.7,5.7,0,0,1,0,5.05,4.12,4.12,0,0,1-1.7,1.66,5.4,5.4,0,0,1-2.56.59A5.33,5.33,0,0,1,570.89,247.15Zm4.6-4.19a3,3,0,0,0-.53-2,1.83,1.83,0,0,0-1.52-.66c-1.36,0-2.05.88-2.05,2.63s.69,2.63,2.05,2.63S575.49,244.72,575.49,243Z"/><path class="cls-1" d="M588.83,238.43v9.16h-2.74v-1.31a2.79,2.79,0,0,1-1.13,1.08,3.76,3.76,0,0,1-4.16-.58,4.31,4.31,0,0,1-.85-2.9v-5.45h2.82v5.5a1.83,1.83,0,0,0,.34,1.22,1.34,1.34,0,0,0,1.06.39,1.74,1.74,0,0,0,1.33-.56,2.13,2.13,0,0,0,.51-1.48v-5.07Z"/><path class="cls-1" d="M597,245.61l-.15,2a7.85,7.85,0,0,1-1.08.08,4.31,4.31,0,0,1-3.05-.92,3.65,3.65,0,0,1-1-2.77v-3.51H590v-2.11h1.73v-2.68h2.82v2.68h2.29v2.11h-2.29V244c0,1.09.51,1.64,1.53,1.64A7,7,0,0,0,597,245.61Z"/><path class="cls-1" d="M598.12,234h3v2.63h-3Zm.09,13.56v-9.16H601v9.16Z"/><path class="cls-1" d="M611.38,239.17a4.46,4.46,0,0,1,.8,2.9v5.52h-2.82V242.2a2.16,2.16,0,0,0-.34-1.36,1.29,1.29,0,0,0-1.08-.43,1.84,1.84,0,0,0-1.4.56,2.05,2.05,0,0,0-.54,1.49v5.13h-2.81v-9.16h2.74v1.31a3.14,3.14,0,0,1,1.26-1.14,3.81,3.81,0,0,1,1.74-.39A3,3,0,0,1,611.38,239.17Z"/><path class="cls-1" d="M623.63,238.43v8.17a4.31,4.31,0,0,1-1.27,3.36,5.46,5.46,0,0,1-3.75,1.13,9.6,9.6,0,0,1-2.36-.29,7.12,7.12,0,0,1-2-.84L615,248a7.38,7.38,0,0,0,3.53,1c1.54,0,2.31-.73,2.31-2.18v-1a2.78,2.78,0,0,1-1.18,1.12,3.73,3.73,0,0,1-1.75.41,4.07,4.07,0,0,1-2.12-.56,3.87,3.87,0,0,1-1.44-1.6,5.78,5.78,0,0,1,0-4.79,3.93,3.93,0,0,1,1.44-1.6,4,4,0,0,1,2.12-.57,3.68,3.68,0,0,1,1.73.4,2.88,2.88,0,0,1,1.18,1.11v-1.29Zm-3.35,6.12a2.59,2.59,0,0,0,.55-1.77,2.62,2.62,0,0,0-.55-1.78,1.92,1.92,0,0,0-1.54-.65,2,2,0,0,0-1.55.65,3.08,3.08,0,0,0,0,3.54,2.2,2.2,0,0,0,3.09,0Z"/><path class="cls-1" d="M257.31,320.42V309.64h-4.12v-2.37h11.15v2.37h-4.12v10.78Z"/><path class="cls-1" d="M266,320a4,4,0,0,1-1.69-1.66,5.61,5.61,0,0,1,0-5.05,4,4,0,0,1,1.69-1.65,5.4,5.4,0,0,1,2.56-.58,5.33,5.33,0,0,1,2.55.58,4,4,0,0,1,1.7,1.65,5.61,5.61,0,0,1,0,5.05,4.06,4.06,0,0,1-1.7,1.66,5.33,5.33,0,0,1-2.55.59A5.4,5.4,0,0,1,266,320Zm4.61-4.19a3.09,3.09,0,0,0-.53-2,1.84,1.84,0,0,0-1.52-.66c-1.37,0-2.05.88-2.05,2.63s.68,2.63,2.05,2.63S270.61,317.55,270.61,315.79Z"/><path class="cls-1" d="M277,320a4.12,4.12,0,0,1-1.7-1.66,5.61,5.61,0,0,1,0-5.05,4,4,0,0,1,1.7-1.65,5.33,5.33,0,0,1,2.55-.58,5.4,5.4,0,0,1,2.56.58,4,4,0,0,1,1.7,1.65,5.7,5.7,0,0,1,0,5.05,4.12,4.12,0,0,1-1.7,1.66,5.4,5.4,0,0,1-2.56.59A5.33,5.33,0,0,1,277,320Zm4.61-4.19a3,3,0,0,0-.54-2,1.83,1.83,0,0,0-1.52-.66c-1.36,0-2,.88-2,2.63s.69,2.63,2,2.63S281.58,317.55,281.58,315.79Z"/><path class="cls-1" d="M286.09,320.42V307.27h2.81v13.15Z"/><path class="cls-1" d="M300.84,320.42h-3.45l-3.51-4.09v4.09h-2.81V307.27h2.81v7.91l3.38-3.9h3.36l-3.85,4.36Z"/><path class="cls-1" d="M301.38,306.86h3v2.63h-3Zm.09,13.56v-9.16h2.82v9.16Z"/><path class="cls-1" d="M312.42,318.44l-.15,2.05a7.85,7.85,0,0,1-1.08.08,4.31,4.31,0,0,1-3.05-.92,3.65,3.65,0,0,1-1-2.77v-3.51h-1.73v-2.11h1.73v-2.68H310v2.68h2.29v2.11H310v3.49c0,1.09.51,1.64,1.53,1.64A7,7,0,0,0,312.42,318.44Z"/><path class="cls-1" d="M319.1,307.27h5.11a8.1,8.1,0,0,1,3.69.78,5.56,5.56,0,0,1,2.37,2.26,7.11,7.11,0,0,1,.82,3.53,7.28,7.28,0,0,1-.81,3.53,5.45,5.45,0,0,1-2.36,2.27,8.16,8.16,0,0,1-3.71.78H319.1Zm4.9,10.8q4.2,0,4.2-4.23t-4.2-4.22h-2v8.45Z"/><path class="cls-1" d="M341.35,316.37h-6a2.29,2.29,0,0,0,.72,1.6,2.5,2.5,0,0,0,1.67.49,4.51,4.51,0,0,0,1.4-.23,4.7,4.7,0,0,0,1.28-.66l.75,1.88a5.2,5.2,0,0,1-1.63.82,6.54,6.54,0,0,1-1.94.3,5,5,0,0,1-3.64-1.28,4.58,4.58,0,0,1-1.33-3.48,5.24,5.24,0,0,1,.57-2.48,4.29,4.29,0,0,1,1.61-1.69,4.52,4.52,0,0,1,2.33-.6,3.88,3.88,0,0,1,3.05,1.25,4.87,4.87,0,0,1,1.13,3.39ZM336,313.49a2.51,2.51,0,0,0-.59,1.48H339a2.4,2.4,0,0,0-.5-1.49,1.56,1.56,0,0,0-1.24-.5A1.64,1.64,0,0,0,336,313.49Z"/><path class="cls-1" d="M350.81,311.64a4.08,4.08,0,0,1,1.44,1.7,5.86,5.86,0,0,1,.51,2.51,5.77,5.77,0,0,1-.51,2.49,4,4,0,0,1-1.43,1.65,3.82,3.82,0,0,1-2.11.58,3.78,3.78,0,0,1-1.69-.38,2.82,2.82,0,0,1-1.16-1.08v4.66H343V311.26h2.78v1.29a2.88,2.88,0,0,1,1.18-1.11,3.59,3.59,0,0,1,1.71-.4A3.79,3.79,0,0,1,350.81,311.64Zm-1.39,6.12a3,3,0,0,0,.54-1.91,3.16,3.16,0,0,0-.54-2,2,2,0,0,0-3.06,0,3.1,3.1,0,0,0-.54,1.95,3,3,0,0,0,.54,1.93,1.82,1.82,0,0,0,1.53.68A1.86,1.86,0,0,0,349.42,317.76Z"/><path class="cls-1" d="M354.47,320.42V307.27h2.82v13.15Z"/><path class="cls-1" d="M361.3,320a4.12,4.12,0,0,1-1.7-1.66,5.7,5.7,0,0,1,0-5.05,4,4,0,0,1,1.7-1.65,5.92,5.92,0,0,1,5.11,0,4,4,0,0,1,1.7,1.65,5.7,5.7,0,0,1,0,5.05,4.12,4.12,0,0,1-1.7,1.66,5.83,5.83,0,0,1-5.11,0Zm4.61-4.19a3,3,0,0,0-.54-2,1.83,1.83,0,0,0-1.52-.66c-1.36,0-2.05.88-2.05,2.63s.69,2.63,2.05,2.63S365.91,317.55,365.91,315.79Z"/><path class="cls-1" d="M376.57,311.28h2.76l-5.52,12.49H371l1.75-3.86L369,311.28h2.92l2.32,5.82Z"/><path class="cls-1" d="M393.81,312a4.58,4.58,0,0,1,.76,2.91v5.52h-2.82V315a2.41,2.41,0,0,0-.28-1.34,1.13,1.13,0,0,0-1-.41,1.51,1.51,0,0,0-1.25.56,2.42,2.42,0,0,0-.45,1.56v5.06H386V315a2.32,2.32,0,0,0-.29-1.34,1.12,1.12,0,0,0-1-.41,1.5,1.5,0,0,0-1.24.56,2.42,2.42,0,0,0-.45,1.56v5.06h-2.82v-9.16h2.74v1.23a2.91,2.91,0,0,1,1.15-1.08,3.52,3.52,0,0,1,1.65-.37,2.65,2.65,0,0,1,2.72,1.69,3.38,3.38,0,0,1,1.25-1.24,3.58,3.58,0,0,1,1.77-.45A2.83,2.83,0,0,1,393.81,312Z"/><path class="cls-1" d="M404.94,316.37h-6a2.38,2.38,0,0,0,.72,1.6,2.52,2.52,0,0,0,1.67.49,4.62,4.62,0,0,0,1.41-.23,4.79,4.79,0,0,0,1.27-.66l.75,1.88a5.09,5.09,0,0,1-1.63.82,6.47,6.47,0,0,1-1.93.3,5.07,5.07,0,0,1-3.65-1.28,4.58,4.58,0,0,1-1.33-3.48,5.13,5.13,0,0,1,.58-2.48,4.27,4.27,0,0,1,1.6-1.69,4.54,4.54,0,0,1,2.33-.6,3.88,3.88,0,0,1,3.05,1.25,4.87,4.87,0,0,1,1.13,3.39Zm-5.38-2.88A2.58,2.58,0,0,0,399,315h3.6a2.47,2.47,0,0,0-.49-1.49,1.58,1.58,0,0,0-1.24-.5A1.66,1.66,0,0,0,399.56,313.49Z"/><path class="cls-1" d="M414.82,312a4.42,4.42,0,0,1,.8,2.9v5.52h-2.81V315a2.15,2.15,0,0,0-.35-1.36,1.27,1.27,0,0,0-1.07-.43,1.88,1.88,0,0,0-1.41.56,2.09,2.09,0,0,0-.53,1.49v5.13h-2.81v-9.16h2.74v1.31a3.14,3.14,0,0,1,1.26-1.14,3.78,3.78,0,0,1,1.74-.39A3,3,0,0,1,414.82,312Z"/><path class="cls-1" d="M423.7,318.44l-.15,2.05a7.85,7.85,0,0,1-1.08.08,4.31,4.31,0,0,1-3.05-.92,3.65,3.65,0,0,1-1-2.77v-3.51h-1.74v-2.11h1.74v-2.68h2.82v2.68h2.29v2.11h-2.29v3.49c0,1.09.51,1.64,1.52,1.64A7,7,0,0,0,423.7,318.44Z"/><path class="cls-1" d="M109.1,248.46v-14h9.67v2.41h-6.65v3.28h6.25v2.41h-6.25v3.52h6.65v2.4Z"/><path class="cls-1" d="M121.94,248.32a6.08,6.08,0,0,1-1.94-.89l.8-2.07a6.58,6.58,0,0,0,1.75.84,6.36,6.36,0,0,0,1.93.29,2.17,2.17,0,0,0,1.08-.22.72.72,0,0,0,.39-.63.67.67,0,0,0-.27-.56,2.94,2.94,0,0,0-1-.36l-1.6-.35a4.17,4.17,0,0,1-2.07-1,2.43,2.43,0,0,1-.67-1.82,2.54,2.54,0,0,1,.53-1.61,3.41,3.41,0,0,1,1.49-1.09,5.61,5.61,0,0,1,2.2-.4,6.8,6.8,0,0,1,2,.32,6.38,6.38,0,0,1,1.79.89l-.8,2a5.34,5.34,0,0,0-3.06-1.07,2.14,2.14,0,0,0-1.1.24.74.74,0,0,0-.4.67.59.59,0,0,0,.24.5,2.69,2.69,0,0,0,.84.34l1.65.38a4.39,4.39,0,0,1,2.18,1,2.51,2.51,0,0,1,.68,1.86,2.58,2.58,0,0,1-1.12,2.22,5.2,5.2,0,0,1-3.09.8A9.63,9.63,0,0,1,121.94,248.32Z"/><path class="cls-1" d="M131.24,247.27a5,5,0,0,1-1.37-3.68,5.44,5.44,0,0,1,.65-2.69,4.52,4.52,0,0,1,1.85-1.8,5.75,5.75,0,0,1,2.77-.64,6.55,6.55,0,0,1,2.07.33,4.49,4.49,0,0,1,1.61.88l-.8,2.05a4.6,4.6,0,0,0-1.26-.71,4,4,0,0,0-1.34-.24,2.36,2.36,0,0,0-1.82.69,3.64,3.64,0,0,0,0,4.15,2.34,2.34,0,0,0,1.82.71,4.06,4.06,0,0,0,1.34-.25,4.35,4.35,0,0,0,1.26-.71l.8,2.07a4.89,4.89,0,0,1-1.67.88,7.21,7.21,0,0,1-2.15.31A5.14,5.14,0,0,1,131.24,247.27Z"/><path class="cls-1" d="M147.74,239.49a4.34,4.34,0,0,1,1,3.21v5.76h-2.85V247a2.41,2.41,0,0,1-1,1.19,3.12,3.12,0,0,1-1.63.42,4.11,4.11,0,0,1-1.81-.39,3.21,3.21,0,0,1-1.27-1.12,2.88,2.88,0,0,1-.47-1.59,2.47,2.47,0,0,1,.55-1.69,3.32,3.32,0,0,1,1.76-.9,16,16,0,0,1,3.32-.27h.52v-.36a1.67,1.67,0,0,0-.38-1.24,1.94,1.94,0,0,0-1.31-.35,5.37,5.37,0,0,0-1.59.26,7.91,7.91,0,0,0-1.67.71l-.8-2a8.4,8.4,0,0,1,2.06-.86,8.12,8.12,0,0,1,2.28-.35A4.43,4.43,0,0,1,147.74,239.49ZM145.38,246a2.16,2.16,0,0,0,.54-1.52v-.34h-.34a6.55,6.55,0,0,0-2.25.26.92.92,0,0,0-.65.93,1.19,1.19,0,0,0,.37.9,1.24,1.24,0,0,0,.92.35A1.8,1.8,0,0,0,145.38,246Z"/><path class="cls-1" d="M151,248.46v-14h3v14Z"/><path class="cls-1" d="M163.91,239.49A4.34,4.34,0,0,1,165,242.7v5.76h-2.85V247a2.41,2.41,0,0,1-1,1.19,3.09,3.09,0,0,1-1.63.42,4.06,4.06,0,0,1-1.8-.39,3.24,3.24,0,0,1-1.28-1.12,2.87,2.87,0,0,1-.46-1.59,2.47,2.47,0,0,1,.54-1.69,3.36,3.36,0,0,1,1.76-.9,16.09,16.09,0,0,1,3.33-.27h.51v-.36a1.67,1.67,0,0,0-.37-1.24,2,2,0,0,0-1.32-.35,5.47,5.47,0,0,0-1.59.26,7.91,7.91,0,0,0-1.67.71l-.8-2a8.4,8.4,0,0,1,2.06-.86,8.12,8.12,0,0,1,2.28-.35A4.41,4.41,0,0,1,163.91,239.49ZM161.56,246a2.2,2.2,0,0,0,.53-1.52v-.34h-.33a6.58,6.58,0,0,0-2.26.26.93.93,0,0,0-.65.93,1.19,1.19,0,0,0,.37.9,1.24,1.24,0,0,0,.92.35A1.83,1.83,0,0,0,161.56,246Z"/><path class="cls-1" d="M173.57,246.36l-.16,2.18a7.41,7.41,0,0,1-1.15.08,4.58,4.58,0,0,1-3.25-1,3.89,3.89,0,0,1-1-3v-3.75h-1.85V238.7H168v-2.87h3v2.87h2.44v2.24H171v3.72c0,1.17.54,1.76,1.63,1.76A7.94,7.94,0,0,0,173.57,246.36Z"/><path class="cls-1" d="M174.81,234H178v2.81h-3.22Zm.09,14.46V238.7h3v9.76Z"/><path class="cls-1" d="M182.19,248a4.44,4.44,0,0,1-1.82-1.77,6.08,6.08,0,0,1,0-5.39,4.37,4.37,0,0,1,1.82-1.77,6.39,6.39,0,0,1,5.45,0,4.41,4.41,0,0,1,1.81,1.77,6.08,6.08,0,0,1,0,5.39,4.47,4.47,0,0,1-1.81,1.77,6.3,6.3,0,0,1-5.45,0Zm4.91-4.47a3.3,3.3,0,0,0-.57-2.11,2,2,0,0,0-1.62-.69c-1.46,0-2.19.93-2.19,2.8s.73,2.81,2.19,2.81S187.1,245.4,187.1,243.53Z"/><path class="cls-1" d="M200.65,239.48a4.78,4.78,0,0,1,.85,3.1v5.88h-3v-5.74a2.37,2.37,0,0,0-.37-1.46,1.4,1.4,0,0,0-1.14-.45,2,2,0,0,0-1.51.59,2.25,2.25,0,0,0-.56,1.59v5.47h-3V238.7h2.93v1.39a3.32,3.32,0,0,1,1.34-1.21,4,4,0,0,1,1.86-.42A3.21,3.21,0,0,1,200.65,239.48Z"/><path class="cls-1" d="M8.56,111.32v-14h3.1v11.5h6.26v2.52Z"/><path class="cls-1" d="M27.08,102.35a4.34,4.34,0,0,1,1.05,3.21v5.76H25.29v-1.45a2.43,2.43,0,0,1-1,1.19,3.09,3.09,0,0,1-1.63.42,4.1,4.1,0,0,1-1.8-.39A3.14,3.14,0,0,1,19.59,110a2.8,2.8,0,0,1-.47-1.59,2.47,2.47,0,0,1,.54-1.69,3.36,3.36,0,0,1,1.77-.9,15.92,15.92,0,0,1,3.32-.27h.51v-.36a1.67,1.67,0,0,0-.37-1.24,2,2,0,0,0-1.32-.35,5.47,5.47,0,0,0-1.59.26,7.91,7.91,0,0,0-1.67.71l-.79-2a8.08,8.08,0,0,1,2.06-.86,8.37,8.37,0,0,1,2.27-.35A4.41,4.41,0,0,1,27.08,102.35Zm-2.35,6.48a2.15,2.15,0,0,0,.53-1.52V107h-.33a6.58,6.58,0,0,0-2.26.26.93.93,0,0,0-.65.93,1.19,1.19,0,0,0,.37.9,1.27,1.27,0,0,0,.93.35A1.83,1.83,0,0,0,24.73,108.83Z"/><path class="cls-1" d="M36.74,109.22l-.16,2.18a7.41,7.41,0,0,1-1.15.08,4.58,4.58,0,0,1-3.25-1,3.89,3.89,0,0,1-1-3v-3.74H29.3v-2.25h1.85V98.69h3v2.87H36.6v2.25H34.16v3.71c0,1.17.54,1.76,1.63,1.76A7.94,7.94,0,0,0,36.74,109.22Z"/><path class="cls-1" d="M46.87,107H40.5a2.49,2.49,0,0,0,.77,1.7,2.7,2.7,0,0,0,1.78.53,4.91,4.91,0,0,0,1.5-.25,4.76,4.76,0,0,0,1.36-.71l.8,2a5.69,5.69,0,0,1-1.74.88,7,7,0,0,1-2.06.31A5.38,5.38,0,0,1,39,110.12a4.88,4.88,0,0,1-1.42-3.71,5.5,5.5,0,0,1,.61-2.64,4.59,4.59,0,0,1,1.72-1.8,4.69,4.69,0,0,1,2.48-.65,4.14,4.14,0,0,1,3.25,1.33,5.18,5.18,0,0,1,1.21,3.62Zm-5.74-3.07a2.7,2.7,0,0,0-.63,1.58h3.84a2.56,2.56,0,0,0-.53-1.6,1.67,1.67,0,0,0-1.32-.53A1.75,1.75,0,0,0,41.13,103.94Z"/><path class="cls-1" d="M55.66,103.79,54,104a2.6,2.6,0,0,0-1.77.71,2.25,2.25,0,0,0-.52,1.56v5.09h-3v-9.76h2.88v1.65a3.23,3.23,0,0,1,3-1.85l.87-.06Z"/><path class="cls-1" d="M64.22,102.35a4.34,4.34,0,0,1,1,3.21v5.76H62.42v-1.45a2.41,2.41,0,0,1-1,1.19,3.12,3.12,0,0,1-1.63.42,4,4,0,0,1-1.8-.39A3.24,3.24,0,0,1,56.72,110a2.87,2.87,0,0,1-.46-1.59,2.47,2.47,0,0,1,.54-1.69,3.32,3.32,0,0,1,1.76-.9,16.09,16.09,0,0,1,3.33-.27h.51v-.36a1.67,1.67,0,0,0-.37-1.24,2,2,0,0,0-1.32-.35,5.42,5.42,0,0,0-1.59.26,7.91,7.91,0,0,0-1.67.71l-.8-2a8.4,8.4,0,0,1,2.06-.86,8.5,8.5,0,0,1,2.28-.35A4.41,4.41,0,0,1,64.22,102.35Zm-2.35,6.48a2.2,2.2,0,0,0,.53-1.52V107h-.33a6.58,6.58,0,0,0-2.26.26.93.93,0,0,0-.65.93,1.19,1.19,0,0,0,.37.9,1.24,1.24,0,0,0,.92.35A1.83,1.83,0,0,0,61.87,108.83Z"/><path class="cls-1" d="M67.52,111.32v-14h3v14Z"/><path class="cls-1" d="M90.13,97.3h2.41v14H89.82V103l-3.23,6h-2l-3.22-5.93v8.23H78.66v-14H81.1l4.52,8.57Z"/><path class="cls-1" d="M97.1,110.86a4.35,4.35,0,0,1-1.81-1.77,6,6,0,0,1,0-5.39,4.21,4.21,0,0,1,1.81-1.76,6.3,6.3,0,0,1,5.45,0,4.33,4.33,0,0,1,1.81,1.76,6.08,6.08,0,0,1,0,5.39,4.47,4.47,0,0,1-1.81,1.77,6.3,6.3,0,0,1-5.45,0Zm4.91-4.47a3.3,3.3,0,0,0-.57-2.11,2,2,0,0,0-1.62-.69c-1.46,0-2.19.93-2.19,2.8s.73,2.81,2.19,2.81S102,108.26,102,106.39Z"/><path class="cls-1" d="M113.39,101.58h2.94l-4.3,9.74h-2.54l-4.24-9.74h3.12l2.47,6.2Z"/><path class="cls-1" d="M125.84,107h-6.36a2.49,2.49,0,0,0,.76,1.7,2.7,2.7,0,0,0,1.78.53,4.81,4.81,0,0,0,1.5-.25,5,5,0,0,0,1.37-.71l.79,2a5.69,5.69,0,0,1-1.74.88,7,7,0,0,1-2.06.31,5.39,5.39,0,0,1-3.89-1.36,4.88,4.88,0,0,1-1.42-3.71,5.5,5.5,0,0,1,.62-2.64,4.49,4.49,0,0,1,1.71-1.8,4.71,4.71,0,0,1,2.48-.65,4.18,4.18,0,0,1,3.26,1.33,5.22,5.22,0,0,1,1.2,3.62Zm-5.74-3.07a2.63,2.63,0,0,0-.62,1.58h3.83a2.62,2.62,0,0,0-.52-1.6,1.7,1.7,0,0,0-1.33-.53A1.75,1.75,0,0,0,120.1,103.94Z"/><path class="cls-1" d="M142.17,102.33a4.88,4.88,0,0,1,.82,3.11v5.88h-3v-5.78a2.64,2.64,0,0,0-.3-1.44,1.21,1.21,0,0,0-1.05-.43,1.6,1.6,0,0,0-1.33.59,2.61,2.61,0,0,0-.48,1.67v5.39h-3v-5.78a2.63,2.63,0,0,0-.31-1.44,1.21,1.21,0,0,0-1-.43,1.6,1.6,0,0,0-1.33.59,2.61,2.61,0,0,0-.48,1.67v5.39h-3v-9.76h2.93v1.31a3,3,0,0,1,1.22-1.15,3.71,3.71,0,0,1,1.76-.4,2.83,2.83,0,0,1,2.9,1.81,3.47,3.47,0,0,1,1.34-1.32,3.7,3.7,0,0,1,1.89-.49A3,3,0,0,1,142.17,102.33Z"/><path class="cls-1" d="M154.05,107h-6.37a2.49,2.49,0,0,0,.77,1.7,2.7,2.7,0,0,0,1.78.53,4.91,4.91,0,0,0,1.5-.25,4.76,4.76,0,0,0,1.36-.71l.8,2a5.69,5.69,0,0,1-1.74.88,7,7,0,0,1-2.06.31,5.38,5.38,0,0,1-3.89-1.36,4.88,4.88,0,0,1-1.42-3.71,5.5,5.5,0,0,1,.61-2.64,4.59,4.59,0,0,1,1.72-1.8,4.66,4.66,0,0,1,2.48-.65,4.14,4.14,0,0,1,3.25,1.33,5.18,5.18,0,0,1,1.21,3.62Zm-5.74-3.07a2.7,2.7,0,0,0-.63,1.58h3.84a2.56,2.56,0,0,0-.53-1.6,1.67,1.67,0,0,0-1.32-.53A1.75,1.75,0,0,0,148.31,103.94Z"/><path class="cls-1" d="M164.59,102.34a4.78,4.78,0,0,1,.86,3.1v5.88h-3v-5.74a2.3,2.3,0,0,0-.37-1.46,1.37,1.37,0,0,0-1.14-.45,2,2,0,0,0-1.5.59,2.21,2.21,0,0,0-.57,1.59v5.47h-3v-9.76h2.92V103a3.46,3.46,0,0,1,1.34-1.21,4,4,0,0,1,1.86-.42A3.21,3.21,0,0,1,164.59,102.34Z"/><path class="cls-1" d="M174.06,109.22l-.16,2.18a7.41,7.41,0,0,1-1.15.08,4.62,4.62,0,0,1-3.26-1,3.92,3.92,0,0,1-1-3v-3.74h-1.85v-2.25h1.85V98.69h3v2.87h2.45v2.25h-2.45v3.71c0,1.17.55,1.76,1.63,1.76A8,8,0,0,0,174.06,109.22Z"/><path class="cls-1" d="M93.08,4.49h2.4v14H92.76V10.2l-3.22,6h-2l-3.23-5.93v8.24H81.6v-14h2.45l4.51,8.58Z"/><path class="cls-1" d="M98,4.06h3.22v2.8H98Zm.1,14.46V8.75h3v9.77Z"/><path class="cls-1" d="M104.66,18.37a6.19,6.19,0,0,1-1.94-.89l.8-2.07a6.58,6.58,0,0,0,1.75.84,6.42,6.42,0,0,0,1.93.3,2.21,2.21,0,0,0,1.09-.23.7.7,0,0,0,.38-.63.63.63,0,0,0-.27-.55,2.5,2.5,0,0,0-1-.36l-1.59-.36a4.21,4.21,0,0,1-2.08-1,2.5,2.5,0,0,1-.67-1.82,2.64,2.64,0,0,1,.53-1.62,3.55,3.55,0,0,1,1.49-1.09,5.87,5.87,0,0,1,2.2-.4,6.76,6.76,0,0,1,2,.32,6.14,6.14,0,0,1,1.79.9l-.8,2a5.39,5.39,0,0,0-3.06-1.07,2.1,2.1,0,0,0-1.09.24.74.74,0,0,0-.4.68.58.58,0,0,0,.24.49,2.39,2.39,0,0,0,.83.34l1.65.38a4.44,4.44,0,0,1,2.18,1,2.51,2.51,0,0,1,.69,1.86,2.58,2.58,0,0,1-1.13,2.22,5.18,5.18,0,0,1-3.09.81A9.62,9.62,0,0,1,104.66,18.37Z"/><path class="cls-1" d="M114.35,18.37a6.19,6.19,0,0,1-1.94-.89l.8-2.07a6.58,6.58,0,0,0,1.75.84,6.37,6.37,0,0,0,1.93.3,2.17,2.17,0,0,0,1.08-.23.7.7,0,0,0,.39-.63.63.63,0,0,0-.27-.55,2.57,2.57,0,0,0-1-.36l-1.59-.36a4.17,4.17,0,0,1-2.08-1,2.46,2.46,0,0,1-.67-1.82,2.64,2.64,0,0,1,.53-1.62,3.55,3.55,0,0,1,1.49-1.09,5.83,5.83,0,0,1,2.2-.4,6.8,6.8,0,0,1,2,.32,6.14,6.14,0,0,1,1.79.9l-.8,2A5.41,5.41,0,0,0,117,10.64a2.14,2.14,0,0,0-1.1.24.75.75,0,0,0-.39.68.59.59,0,0,0,.23.49,2.46,2.46,0,0,0,.84.34l1.65.38a4.44,4.44,0,0,1,2.18,1,2.51,2.51,0,0,1,.69,1.86,2.58,2.58,0,0,1-1.13,2.22,5.2,5.2,0,0,1-3.09.81A9.62,9.62,0,0,1,114.35,18.37Z"/><path class="cls-1" d="M122.66,4.06h3.22v2.8h-3.22Zm.1,14.46V8.75h3v9.77Z"/><path class="cls-1" d="M130,18.05a4.35,4.35,0,0,1-1.81-1.77,5.39,5.39,0,0,1-.64-2.7,5.38,5.38,0,0,1,.64-2.69A4.27,4.27,0,0,1,130,9.13a6.3,6.3,0,0,1,5.45,0,4.39,4.39,0,0,1,1.81,1.76,5.49,5.49,0,0,1,.63,2.69,5.5,5.5,0,0,1-.63,2.7,4.47,4.47,0,0,1-1.81,1.77,6.21,6.21,0,0,1-5.45,0ZM135,13.58a3.25,3.25,0,0,0-.57-2.1,2,2,0,0,0-1.62-.7c-1.46,0-2.19.93-2.19,2.8s.73,2.81,2.19,2.81S135,15.45,135,13.58Z"/><path class="cls-1" d="M148.5,9.54a4.73,4.73,0,0,1,.85,3.09v5.89h-3V12.77a2.27,2.27,0,0,0-.37-1.45,1.36,1.36,0,0,0-1.14-.46,2,2,0,0,0-1.51.6,2.22,2.22,0,0,0-.56,1.59v5.47h-3V8.75h2.93v1.39A3.39,3.39,0,0,1,144,8.93a4,4,0,0,1,1.86-.42A3.19,3.19,0,0,1,148.5,9.54Z"/><path class="cls-1" d="M157.39,18.52v-14h9.67V6.9h-6.65v3.28h6.25v2.41h-6.25v3.52h6.65v2.41Z"/><path class="cls-1" d="M174.87,13.48l4.14,5h-3.52l-2.33-2.93-2.3,2.93h-3.55l4.14-5-3.9-4.73h3.56l2,2.65,2.07-2.65h3.54Z"/><path class="cls-1" d="M188.28,14.2h-6.36a2.49,2.49,0,0,0,.76,1.7,2.7,2.7,0,0,0,1.78.53,4.54,4.54,0,0,0,1.5-.25,4.7,4.7,0,0,0,1.37-.71l.79,2a5.28,5.28,0,0,1-1.74.88,7,7,0,0,1-2.06.32,5.44,5.44,0,0,1-3.89-1.36A4.93,4.93,0,0,1,179,13.61a5.54,5.54,0,0,1,.62-2.65,4.49,4.49,0,0,1,1.71-1.8,4.82,4.82,0,0,1,2.49-.65,4.16,4.16,0,0,1,3.25,1.34,5.19,5.19,0,0,1,1.2,3.62Zm-5.74-3.07a2.63,2.63,0,0,0-.62,1.58h3.83a2.61,2.61,0,0,0-.52-1.59,1.66,1.66,0,0,0-1.32-.54A1.76,1.76,0,0,0,182.54,11.13Z"/><path class="cls-1" d="M191,17.32a4.9,4.9,0,0,1-1.38-3.68,5.36,5.36,0,0,1,.66-2.69,4.46,4.46,0,0,1,1.85-1.8,5.75,5.75,0,0,1,2.77-.64,6.49,6.49,0,0,1,2.06.33,4.4,4.4,0,0,1,1.62.89l-.8,2a4.6,4.6,0,0,0-1.26-.7,3.87,3.87,0,0,0-1.35-.25,2.34,2.34,0,0,0-1.82.7,2.92,2.92,0,0,0-.64,2.06,3,3,0,0,0,.64,2.08,2.35,2.35,0,0,0,1.82.71,3.87,3.87,0,0,0,1.35-.25,4.38,4.38,0,0,0,1.26-.71l.8,2.07a4.61,4.61,0,0,1-1.68.88,7.15,7.15,0,0,1-2.14.32A5.07,5.07,0,0,1,191,17.32Z"/><path class="cls-1" d="M209.33,8.75v9.77H206.4V17.13a3.08,3.08,0,0,1-1.2,1.15,3.59,3.59,0,0,1-1.68.4,3.49,3.49,0,0,1-2.76-1,4.56,4.56,0,0,1-.9-3.09V8.75h3v5.87a2,2,0,0,0,.37,1.29,1.42,1.42,0,0,0,1.12.42,1.85,1.85,0,0,0,1.43-.6,2.23,2.23,0,0,0,.54-1.57V8.75Z"/><path class="cls-1" d="M218,16.41l-.16,2.19a8.89,8.89,0,0,1-1.15.08,4.58,4.58,0,0,1-3.25-1,3.87,3.87,0,0,1-1-3V11h-1.85V8.75h1.85V5.89h3V8.75h2.45V11h-2.45v3.72c0,1.17.55,1.75,1.64,1.75A7.94,7.94,0,0,0,218,16.41Z"/><path class="cls-1" d="M219.23,4.06h3.23v2.8h-3.23Zm.1,14.46V8.75h3v9.77Z"/><path class="cls-1" d="M226.61,18.05a4.47,4.47,0,0,1-1.81-1.77,5.5,5.5,0,0,1-.63-2.7,5.49,5.49,0,0,1,.63-2.69,4.39,4.39,0,0,1,1.81-1.76,5.84,5.84,0,0,1,2.73-.62,5.77,5.77,0,0,1,2.72.62,4.27,4.27,0,0,1,1.81,1.76,5.38,5.38,0,0,1,.64,2.69,5.39,5.39,0,0,1-.64,2.7,4.35,4.35,0,0,1-1.81,1.77,5.66,5.66,0,0,1-2.72.63A5.73,5.73,0,0,1,226.61,18.05Zm4.92-4.47a3.25,3.25,0,0,0-.57-2.1,2,2,0,0,0-1.62-.7c-1.46,0-2.19.93-2.19,2.8s.73,2.81,2.19,2.81S231.53,15.45,231.53,13.58Z"/><path class="cls-1" d="M245.08,9.54a4.73,4.73,0,0,1,.85,3.09v5.89h-3V12.77a2.34,2.34,0,0,0-.37-1.45,1.38,1.38,0,0,0-1.15-.46,2,2,0,0,0-1.5.6,2.22,2.22,0,0,0-.56,1.59v5.47h-3V8.75h2.93v1.39a3.39,3.39,0,0,1,1.34-1.21,4,4,0,0,1,1.86-.42A3.2,3.2,0,0,1,245.08,9.54Z"/><ellipse class="cls-2" cx="337.84" cy="143.79" rx="120.12" ry="121.69" transform="translate(70.98 395.97) rotate(-66.44)"/><ellipse class="cls-3" cx="337.84" cy="143.79" rx="119.33" ry="120.89" transform="translate(70.56 395.52) rotate(-66.34)"/><ellipse class="cls-4" cx="337.84" cy="143.79" rx="118.54" ry="120.09" transform="translate(70.13 395.07) rotate(-66.24)"/><ellipse class="cls-5" cx="337.84" cy="143.79" rx="117.75" ry="119.29" transform="translate(69.69 394.6) rotate(-66.14)"/><ellipse class="cls-6" cx="337.84" cy="143.79" rx="116.96" ry="118.49" transform="translate(69.24 394.12) rotate(-66.04)"/><ellipse class="cls-7" cx="337.84" cy="143.79" rx="116.18" ry="117.69" transform="translate(68.79 393.63) rotate(-65.94)"/><ellipse class="cls-8" cx="337.84" cy="143.79" rx="115.39" ry="116.89" transform="translate(68.32 393.12) rotate(-65.83)"/><ellipse class="cls-9" cx="337.84" cy="143.79" rx="114.6" ry="116.09" transform="translate(67.84 392.61) rotate(-65.72)"/><ellipse class="cls-10" cx="337.84" cy="143.79" rx="113.81" ry="115.29" transform="translate(67.35 392.08) rotate(-65.61)"/><ellipse class="cls-11" cx="337.84" cy="143.79" rx="113.03" ry="114.5" transform="translate(66.85 391.53) rotate(-65.49)"/><ellipse class="cls-12" cx="337.84" cy="143.79" rx="112.24" ry="113.7" transform="matrix(0.42, -0.91, 0.91, 0.42, 66.35, 390.98)"/><ellipse class="cls-13" cx="337.84" cy="143.79" rx="111.45" ry="112.9" transform="translate(65.83 390.4) rotate(-65.25)"/><ellipse class="cls-14" cx="337.84" cy="143.79" rx="110.67" ry="112.11" transform="translate(65.29 389.82) rotate(-65.13)"/><ellipse class="cls-15" cx="337.84" cy="143.79" rx="109.88" ry="111.31" transform="translate(64.75 389.21) rotate(-65)"/><ellipse class="cls-16" cx="337.84" cy="143.79" rx="109.1" ry="110.52" transform="translate(64.2 388.59) rotate(-64.87)"/><ellipse class="cls-17" cx="337.84" cy="143.79" rx="108.31" ry="109.72" transform="translate(63.63 387.96) rotate(-64.74)"/><ellipse class="cls-18" cx="337.84" cy="143.79" rx="107.53" ry="108.93" transform="translate(63.05 387.3) rotate(-64.6)"/><path class="cls-1" d="M457.63,200.78l0,.09a2,2,0,1,0,3.61,1.72l.05-.09a2,2,0,0,0-3.62-1.72Z"/><path class="cls-1" d="M457.76,200.51l0,.09a2,2,0,1,0,3.61,1.71l.05-.09a2,2,0,0,0-3.62-1.71Z"/><path class="cls-1" d="M463.39,186.65l0,.09a2,2,0,1,0,3.78,1.3l0-.09a2,2,0,0,0-3.79-1.3Z"/><path class="cls-1" d="M467.44,172.24l0,.1a2,2,0,1,0,3.9.87l0-.1a2,2,0,1,0-3.91-.87Z"/><path class="cls-1" d="M469.84,157.47v.1a2,2,0,0,0,4,.42v-.1a2,2,0,0,0-4-.42Z"/><path class="cls-1" d="M470.56,142.53v.1a2,2,0,1,0,4,0v-.1a2,2,0,0,0-4,0Z"/><path class="cls-1" d="M467,112.87l0,.09a2,2,0,1,0,3.89-.92l0-.09a2,2,0,1,0-3.89.92Z"/><path class="cls-19" d="M456.89,84.73l0,.09a2,2,0,1,0,3.6-1.76l0-.09a2,2,0,1,0-3.59,1.76Z"/><path class="cls-19" d="M449.56,71.67l.06.09A2,2,0,0,0,453,69.61l-.05-.08a2,2,0,1,0-3.38,2.14Z"/><path class="cls-19" d="M440.82,59.52l.06.08A2,2,0,0,0,444,57.09l-.07-.08a2,2,0,1,0-3.11,2.51Z"/><path class="cls-19" d="M430.77,48.43l.07.07a2,2,0,1,0,2.81-2.85l-.07-.07a2,2,0,1,0-2.81,2.85Z"/><path class="cls-19" d="M419.53,38.54l.08.06a2,2,0,0,0,2.47-3.14L422,35.4a2,2,0,1,0-2.47,3.14Z"/><path class="cls-1" d="M394.16,22.89l.09,0a2,2,0,1,0,1.57-3.68l-.09,0a2,2,0,0,0-1.57,3.68Z"/><path class="cls-20" d="M365.66,13.57l.1,0a2,2,0,0,0,.89-3.9l-.1,0a2,2,0,0,0-.89,3.9Z"/><path class="cls-20" d="M350.91,11h.1a2,2,0,0,0,.49-4h-.1a2,2,0,0,0-.49,4Z"/><path class="cls-20" d="M336,10h.1a2,2,0,0,0,.05-4H336a2,2,0,1,0,0,4Z"/><path class="cls-20" d="M321,10.62h.1a2,2,0,0,0-.41-4h-.1a2,2,0,1,0,.41,4Z"/><path class="cls-20" d="M306.29,13l.1,0a2,2,0,0,0-.88-3.9l-.1,0a2,2,0,1,0,.88,3.9Z"/><path class="cls-1" d="M278.2,23.1l.09-.05a2,2,0,1,0-1.79-3.57l-.09,0a2,2,0,0,0,1.79,3.58Z"/><path class="cls-1" d="M253.27,39.52l.07-.07a2,2,0,1,0-2.56-3.06l-.08.06a2,2,0,1,0,2.57,3.07Z"/><path class="cls-1" d="M242.36,49.76l.07-.07a2,2,0,1,0-2.9-2.76l-.07.07a2,2,0,0,0,2.9,2.76Z"/><path class="cls-1" d="M232.63,61.15l.06-.08a2,2,0,1,0-3.18-2.43l-.06.08a2,2,0,0,0,3.18,2.43Z"/><path class="cls-1" d="M224.17,73.51l.05-.08a2,2,0,1,0-3.41-2.08l-.06.08a2,2,0,1,0,3.42,2.08Z"/><path class="cls-1" d="M217.06,86.7l0-.09a2,2,0,1,0-3.61-1.71l0,.09a2,2,0,1,0,3.61,1.71Z"/><path class="cls-1" d="M207.16,115l0-.1a2,2,0,1,0-3.9-.92l0,.1a2,2,0,0,0,3.89.92Z"/><path class="cls-19" d="M203.51,144.62v-.09a2,2,0,1,0-4-.05v.1a2,2,0,0,0,4,0Z"/><path class="cls-19" d="M204.19,159.57v-.1a2,2,0,0,0-4,.41V160a2,2,0,1,0,4-.42Z"/><path class="cls-19" d="M206.61,174.33l0-.09a2,2,0,1,0-3.91.87l0,.1a2,2,0,1,0,3.9-.88Z"/><path class="cls-19" d="M210.77,188.7l0-.1a2,2,0,0,0-3.77,1.34l0,.1a2,2,0,0,0,3.77-1.34Z"/><path class="cls-19" d="M216.63,202.44l0-.09a2,2,0,0,0-3.58,1.79l0,.09a2,2,0,1,0,3.58-1.79Z"/><path class="cls-1" d="M233.06,227.36l-.07-.07a2,2,0,1,0-3.06,2.57l.07.08a2,2,0,0,0,3.06-2.58Z"/><path class="cls-21" d="M254.66,248l-.08-.06a2,2,0,0,0-2.45,3.16l.08.06a2,2,0,1,0,2.45-3.16Z"/><path class="cls-21" d="M266.93,256.67l-.08-.06A2,2,0,0,0,264.7,260l.08.05a2,2,0,1,0,2.15-3.37Z"/><path class="cls-21" d="M279.86,264.15l-.06,0-.86,1.8.93-1.77h0a2,2,0,1,0-1.85,3.54h0l.08,0,.06,0a2,2,0,1,0,1.71-3.61Z"/><path class="cls-21" d="M293.72,269.8l-.09,0a2,2,0,1,0-1.31,3.78l.1,0a2,2,0,0,0,1.3-3.78Z"/><path class="cls-21" d="M308.12,273.87l-.1,0a2,2,0,1,0-.87,3.91l.1,0a2,2,0,0,0,.87-3.91Z"/><path class="cls-1" d="M337.83,277.05h-.1a2,2,0,1,0,0,4h.11a2,2,0,0,0,0-4Z"/><path class="cls-20" d="M367.5,273.5l-.1,0a2,2,0,1,0,.91,3.89l.1,0a2,2,0,0,0-.91-3.9Z"/><path class="cls-20" d="M381.85,269.27l-.09,0a2,2,0,1,0,1.34,3.77l.09,0a2,2,0,1,0-1.34-3.77Z"/><path class="cls-20" d="M395.65,263.47l-.09,0a2,2,0,1,0,1.75,3.59l.09,0a2,2,0,0,0-1.75-3.6Z"/><path class="cls-20" d="M408.72,256.17l-.09.05a2,2,0,1,0,2.14,3.38l.09-.05a2,2,0,1,0-2.14-3.38Z"/><path class="cls-20" d="M420.88,247.45l-.07.06a2,2,0,0,0,2.5,3.12l.08-.07a2,2,0,1,0-2.51-3.11Z"/><path class="cls-1" d="M441.9,226.19l-.06.08a2,2,0,1,0,3.14,2.47l.06-.08a2,2,0,0,0-3.14-2.47Z"/><path class="cls-22" d="M337.47,143.64l-48.19-96.2c30.34-15.2,63.68-15.55,94.33-1Z"/><path class="cls-23" d="M337.47,143.64l-105.09-23.1c7.28-33.14,26.57-57.91,56.9-73.1Z"/><path class="cls-24" d="M337.47,143.64l-82.91,68.59c-21.63-26.14-29.47-58.55-22.18-91.69Z"/><path class="cls-25" d="M337.47,143.64l1.13,107.59c-33.93.36-62.41-12.86-84-39Z"/><path class="cls-22" d="M337.47,143.64,423,209c-20.61,27-50.42,41.89-84.35,42.24Z"/><path class="cls-23" d="M337.47,143.64l104.58-25.3c8,33,1.5,63.69-19.1,90.65Z"/><path class="cls-24" d="M337.47,143.64l46.14-97.2c30.66,14.56,50.46,38.92,58.44,71.9Z"/><circle class="cls-26" cx="337.1" cy="143.51" r="94.99" transform="translate(-2.75 280.4) rotate(-45)"/><path class="cls-27" d="M378.56,57.93l-1.94-5,.4-.16,2.09,5.35-5.35,2.09-.14-.39Z"/><path class="cls-27" d="M429.76,121.79l2.57-4.66.38.21-2.77,5-5-2.76.21-.37Z"/><path class="cls-27" d="M412.48,201.44l5.29-.56,0,.43-5.71.6-.6-5.72.42,0Z"/><path class="cls-27" d="M338.57,238.53l3.81,3.71-.3.31-4.12-4,4-4.12.3.3Z"/><path class="cls-27" d="M263.78,203.61l-.34,5.31-.44,0,.38-5.73,5.73.37,0,.42Z"/><path class="cls-27" d="M244.48,123.27,239.94,126l-.23-.36,4.91-3,3,4.91-.36.21Z"/><path class="cls-27" d="M295,58.38l-5.07-1.62.13-.41,5.47,1.75-1.75,5.47-.4-.13Z"/><path class="cls-1" d="M206.85,99.55a15,15,0,1,1-16.34,13.52A15,15,0,0,1,206.85,99.55Z"/><path class="cls-20" d="M278.79,5.69a15,15,0,1,1-16.34,13.52A15,15,0,0,1,278.79,5.69Z"/><path class="cls-19" d="M397,5.84A15,15,0,1,1,380.7,19.36,15,15,0,0,1,397,5.84Z"/><path class="cls-1" d="M469.24,97.6a15,15,0,1,1-16.34,13.52A15,15,0,0,1,469.24,97.6Z"/><path class="cls-20" d="M444.21,212.24a15,15,0,1,1-16.34,13.52A15,15,0,0,1,444.21,212.24Z"/><path class="cls-21" d="M339.28,263a15,15,0,1,1-16.34,13.52A15,15,0,0,1,339.28,263Z"/><path class="cls-19" d="M233.37,212.44A15,15,0,1,1,217,226,15,15,0,0,1,233.37,212.44Z"/><path class="cls-2" d="M392.42,26.34A9.28,9.28,0,0,1,391.13,21a9.38,9.38,0,0,1,1.29-5.37,4.73,4.73,0,0,1,7.5,0A9.32,9.32,0,0,1,401.21,21a9.33,9.33,0,0,1-1.29,5.38,4.74,4.74,0,0,1-7.5,0Zm6-1.16a9.33,9.33,0,0,0,.72-4.22,9.24,9.24,0,0,0-.72-4.19,2.59,2.59,0,0,0-4.52,0,9.24,9.24,0,0,0-.72,4.19,9.33,9.33,0,0,0,.72,4.21,2.57,2.57,0,0,0,4.52,0Z"/><path class="cls-2" d="M469.49,118.3h3.11V120h-8.24v-1.7h3.08v-9.94l-2.46,1.5-.88-1.54L468,105.9h1.47Z"/><path class="cls-2" d="M447.3,231.83v1.7h-9.24V232l4.86-5.32a8.74,8.74,0,0,0,1.37-1.86,3.8,3.8,0,0,0,.41-1.66,2.07,2.07,0,0,0-.62-1.64,2.57,2.57,0,0,0-1.78-.56,6.28,6.28,0,0,0-3.92,1.54l-.72-1.52a6.14,6.14,0,0,1,2.13-1.24,7.47,7.47,0,0,1,2.58-.46,4.75,4.75,0,0,1,3.19,1,3.39,3.39,0,0,1,1.18,2.73,5.19,5.19,0,0,1-.53,2.32,10.92,10.92,0,0,1-1.76,2.46l-3.79,4Z"/><path class="cls-2" d="M341.68,278.41a3.94,3.94,0,0,1-.65,5.09,5.38,5.38,0,0,1-3.52,1.06,8.06,8.06,0,0,1-2.68-.45,6,6,0,0,1-2.14-1.25l.74-1.52a6.28,6.28,0,0,0,4,1.54,3.24,3.24,0,0,0,2.15-.61,2.21,2.21,0,0,0,.73-1.81,2.13,2.13,0,0,0-.75-1.77,3.65,3.65,0,0,0-2.27-.59h-1.74v-1.66H337a3.49,3.49,0,0,0,2.23-.61A2.12,2.12,0,0,0,340,274a2.07,2.07,0,0,0-.64-1.63,2.59,2.59,0,0,0-1.8-.57,6.23,6.23,0,0,0-3.92,1.54l-.72-1.52a5.94,5.94,0,0,1,2.11-1.25,7.86,7.86,0,0,1,2.63-.45,4.8,4.8,0,0,1,3.16,1A3.27,3.27,0,0,1,342,273.8a3.72,3.72,0,0,1-.58,2.08,3.18,3.18,0,0,1-1.62,1.3A3.46,3.46,0,0,1,341.68,278.41Z"/><path class="cls-2" d="M236.14,229.49v1.64h-2.06v2.92h-2v-2.92h-6.34v-1.54L232.4,220h1.68v9.54Zm-8.4,0h4.32v-6.24Z"/><path class="cls-2" d="M208,112.86a3.81,3.81,0,0,1,1.55,1.58,4.82,4.82,0,0,1,.55,2.34,4.66,4.66,0,0,1-.61,2.4,4.06,4.06,0,0,1-1.74,1.61,5.76,5.76,0,0,1-2.63.57,7.7,7.7,0,0,1-2.57-.46,6.23,6.23,0,0,1-2.11-1.24l.72-1.52a6.3,6.3,0,0,0,4,1.54,3,3,0,0,0,2.18-.75,2.88,2.88,0,0,0-2.08-5,3.81,3.81,0,0,0-3.06,1.44h-1.32v-8.28h8.64v1.66h-6.6v4.44a4.16,4.16,0,0,1,2.78-.92A4.58,4.58,0,0,1,208,112.86Z"/><path class="cls-2" d="M280.22,18.91a3.93,3.93,0,0,1,1.54,1.59,4.82,4.82,0,0,1,.55,2.34,4.68,4.68,0,0,1-.59,2.37,4.2,4.2,0,0,1-1.65,1.64,5.31,5.31,0,0,1-6.41-1.2,8.11,8.11,0,0,1-1.41-5.11,11.09,11.09,0,0,1,.66-4.05,5.47,5.47,0,0,1,1.92-2.58,5,5,0,0,1,3-.89,6.69,6.69,0,0,1,2.42.44,5.93,5.93,0,0,1,2.06,1.26l-.74,1.52a5.84,5.84,0,0,0-3.68-1.54,3,3,0,0,0-2.66,1.51,8.17,8.17,0,0,0-.94,4.29v.06a3.39,3.39,0,0,1,1.43-1.63,4.23,4.23,0,0,1,2.23-.59A4.45,4.45,0,0,1,280.22,18.91ZM279.57,25a2.92,2.92,0,0,0,.74-2.09,2.87,2.87,0,0,0-.75-2.08,2.63,2.63,0,0,0-2-.78,2.72,2.72,0,0,0-2.84,2.86,2.88,2.88,0,0,0,.79,2.08,2.8,2.8,0,0,0,2.07.8A2.6,2.6,0,0,0,279.57,25Z"/><path class="cls-2" d="M330.35,122.81h-4.77l-7.8-8.29v8.29h-4v-18h4v7.9l7.55-7.9H330l-8.37,8.59Z"/><path class="cls-2" d="M339,113.14l-2.17.23a3.35,3.35,0,0,0-2.27.91,2.92,2.92,0,0,0-.66,2v6.53H330V110.29h3.69v2.11q.94-2.16,3.9-2.37l1.13-.07Z"/><path class="cls-2" d="M341.74,122.21a5.76,5.76,0,0,1-2.32-2.27,7.77,7.77,0,0,1,0-6.91,5.61,5.61,0,0,1,2.32-2.26,8.13,8.13,0,0,1,7,0,5.56,5.56,0,0,1,2.32,2.26,7.69,7.69,0,0,1,0,6.91,5.7,5.7,0,0,1-2.32,2.27,8,8,0,0,1-7,0Zm6.3-5.73a4.27,4.27,0,0,0-.72-2.7,2.55,2.55,0,0,0-2.08-.89q-2.81,0-2.81,3.59t2.81,3.6Q348,120.08,348,116.48Z"/><path class="cls-2" d="M353.45,122.81v-18h3.85v18Z"/><path class="cls-2" d="M359.49,122.81v-18h3.85v18Z"/><path class="cls-2" d="M289.66,153.4v-18h4v18Z"/><path class="cls-2" d="M307.33,141.89a6.06,6.06,0,0,1,1.09,4v7.55h-3.85V146a3,3,0,0,0-.47-1.86,1.77,1.77,0,0,0-1.47-.59,2.53,2.53,0,0,0-1.92.77,2.86,2.86,0,0,0-.73,2v7h-3.85V140.88h3.75v1.79a4.44,4.44,0,0,1,1.72-1.56,5.19,5.19,0,0,1,2.39-.54A4.1,4.1,0,0,1,307.33,141.89Z"/><path class="cls-2" d="M318.7,150.7l-.21,2.8a10.41,10.41,0,0,1-1.48.1,5.83,5.83,0,0,1-4.16-1.25,5,5,0,0,1-1.32-3.79v-4.8h-2.37v-2.88h2.37v-3.67h3.85v3.67h3.14v2.88h-3.14v4.77c0,1.49.7,2.24,2.09,2.24A10.62,10.62,0,0,0,318.7,150.7Z"/><path class="cls-2" d="M328.59,143.74l-2.17.23a3.35,3.35,0,0,0-2.27.9,2.92,2.92,0,0,0-.66,2v6.53h-3.85V140.88h3.7V143q.93-2.17,3.9-2.37l1.12-.08Z"/><path class="cls-2" d="M341.16,140.88V153.4h-3.75v-1.79a4,4,0,0,1-1.54,1.48,4.53,4.53,0,0,1-2.16.51,4.45,4.45,0,0,1-3.53-1.31,5.87,5.87,0,0,1-1.16-4v-7.45h3.85v7.52a2.49,2.49,0,0,0,.47,1.66,1.82,1.82,0,0,0,1.44.53,2.37,2.37,0,0,0,1.83-.76,2.89,2.89,0,0,0,.7-2v-6.94Z"/><path class="cls-2" d="M345,153.21a7.77,7.77,0,0,1-2.48-1.14l1-2.65a8.41,8.41,0,0,0,2.24,1.07,8.1,8.1,0,0,0,2.47.38,2.69,2.69,0,0,0,1.39-.29.87.87,0,0,0,.5-.8.81.81,0,0,0-.34-.71,3.53,3.53,0,0,0-1.29-.46l-2-.46a5.42,5.42,0,0,1-2.66-1.26,3.16,3.16,0,0,1-.86-2.34,3.31,3.31,0,0,1,.68-2.06,4.47,4.47,0,0,1,1.91-1.41,7.31,7.31,0,0,1,2.82-.51A8.59,8.59,0,0,1,351,141a8.4,8.4,0,0,1,2.3,1.15l-1,2.55a6.9,6.9,0,0,0-3.93-1.38,2.67,2.67,0,0,0-1.4.31,1,1,0,0,0-.51.87.74.74,0,0,0,.3.63,3.36,3.36,0,0,0,1.08.44l2.11.48a5.68,5.68,0,0,1,2.79,1.31,3.23,3.23,0,0,1,.88,2.39,3.3,3.3,0,0,1-1.44,2.84,6.67,6.67,0,0,1-4,1A12.15,12.15,0,0,1,345,153.21Z"/><path class="cls-2" d="M354.87,134.86H359v3.6h-4.13ZM355,153.4V140.88h3.85V153.4Z"/><path class="cls-2" d="M363.57,152.8a5.64,5.64,0,0,1-2.32-2.27,7.69,7.69,0,0,1,0-6.91,5.47,5.47,0,0,1,2.32-2.25,8,8,0,0,1,7,0,5.42,5.42,0,0,1,2.32,2.25,7.69,7.69,0,0,1,0,6.91,5.58,5.58,0,0,1-2.32,2.27,8,8,0,0,1-7,0Zm6.3-5.72a4.28,4.28,0,0,0-.73-2.71,2.55,2.55,0,0,0-2.08-.89q-2.81,0-2.8,3.6t2.8,3.59Q369.87,150.67,369.87,147.08Z"/><path class="cls-2" d="M386.46,141.89a6.06,6.06,0,0,1,1.1,4v7.55h-3.85V146a3,3,0,0,0-.47-1.86,1.79,1.79,0,0,0-1.47-.59,2.52,2.52,0,0,0-1.92.77,2.82,2.82,0,0,0-.73,2v7h-3.85V140.88H379v1.79a4.37,4.37,0,0,1,1.72-1.56,5.15,5.15,0,0,1,2.38-.54A4.09,4.09,0,0,1,386.46,141.89Z"/><path class="cls-2" d="M291.68,184V166h4v14.74h8V184Z"/><path class="cls-2" d="M304.84,165.46H309v3.59h-4.13ZM305,184V171.48h3.85V184Z"/><path class="cls-2" d="M315.86,171.48H319v2.88h-3.13V184H312v-9.63h-2.37v-2.88H312a5.23,5.23,0,0,1,1.55-4A7.26,7.26,0,0,1,318.1,166l1.4-.08.23,2.83-1.2.05a3.58,3.58,0,0,0-2.08.55,2,2,0,0,0-.59,1.65Z"/><path class="cls-2" d="M331,178.46h-8.16a3.22,3.22,0,0,0,1,2.18,3.43,3.43,0,0,0,2.28.68A6.09,6.09,0,0,0,328,181a6.2,6.2,0,0,0,1.75-.91l1,2.58a7.07,7.07,0,0,1-2.23,1.12,9,9,0,0,1-2.64.41,6.9,6.9,0,0,1-5-1.75,6.28,6.28,0,0,1-1.82-4.75,7.13,7.13,0,0,1,.79-3.39,5.76,5.76,0,0,1,2.2-2.31,6.13,6.13,0,0,1,3.18-.83,5.34,5.34,0,0,1,4.17,1.71,6.65,6.65,0,0,1,1.54,4.64Zm-7.35-3.94a3.53,3.53,0,0,0-.81,2h4.93a3.39,3.39,0,0,0-.68-2,2.14,2.14,0,0,0-1.7-.69A2.27,2.27,0,0,0,323.62,174.52Z"/><path class="cls-2" d="M333.68,182.46a6.27,6.27,0,0,1-1.76-4.71,7,7,0,0,1,.84-3.46,5.77,5.77,0,0,1,2.37-2.3,7.34,7.34,0,0,1,3.54-.82,8.4,8.4,0,0,1,2.65.42,5.69,5.69,0,0,1,2.07,1.14l-1,2.62a5.6,5.6,0,0,0-1.62-.9,4.88,4.88,0,0,0-1.72-.32,3,3,0,0,0-2.33.89,3.73,3.73,0,0,0-.83,2.65,3.82,3.82,0,0,0,.83,2.67,3,3,0,0,0,2.33.9,5.11,5.11,0,0,0,1.72-.32,5.6,5.6,0,0,0,1.62-.9l1,2.65a6.19,6.19,0,0,1-2.14,1.12,9.26,9.26,0,0,1-2.76.41A6.53,6.53,0,0,1,333.68,182.46Z"/><path class="cls-2" d="M353,171.5h3.77l-7.55,17.08h-3.9l2.4-5.27L342.6,171.5h4l3.16,8Z"/><path class="cls-2" d="M358.1,182.46a6.31,6.31,0,0,1-1.76-4.71,7,7,0,0,1,.84-3.46,5.77,5.77,0,0,1,2.37-2.3,7.35,7.35,0,0,1,3.55-.82,8.4,8.4,0,0,1,2.65.42,5.56,5.56,0,0,1,2.06,1.14l-1,2.62a5.68,5.68,0,0,0-1.61-.9,4.89,4.89,0,0,0-1.73-.32,3,3,0,0,0-2.33.89,3.77,3.77,0,0,0-.83,2.65,3.86,3.86,0,0,0,.83,2.67,3,3,0,0,0,2.33.9,5.12,5.12,0,0,0,1.73-.32,5.68,5.68,0,0,0,1.61-.9l1,2.65a6.1,6.1,0,0,1-2.14,1.12,9.15,9.15,0,0,1-2.75.41A6.55,6.55,0,0,1,358.1,182.46Z"/><path class="cls-2" d="M368.78,184V166h3.85v18Z"/><path class="cls-2" d="M386.09,178.46h-8.16a3.22,3.22,0,0,0,1,2.18,3.43,3.43,0,0,0,2.28.68,6.09,6.09,0,0,0,1.92-.32,6.2,6.2,0,0,0,1.75-.91l1,2.58a7.07,7.07,0,0,1-2.23,1.12,9,9,0,0,1-2.64.41,6.86,6.86,0,0,1-5-1.75,6.25,6.25,0,0,1-1.83-4.75,7.13,7.13,0,0,1,.79-3.39,5.76,5.76,0,0,1,2.2-2.31,6.13,6.13,0,0,1,3.18-.83,5.34,5.34,0,0,1,4.17,1.71,6.65,6.65,0,0,1,1.54,4.64Zm-7.35-3.94a3.53,3.53,0,0,0-.81,2h4.93a3.39,3.39,0,0,0-.68-2,2.14,2.14,0,0,0-1.7-.69A2.27,2.27,0,0,0,378.74,174.52Z"/><path class="cls-2" d="M392.44,183.59V179.4h-1.61v-.74H395v.74h-1.61v4.19Z"/><path class="cls-2" d="M399.67,178.66h.71v4.93h-.8v-3.26l-1.3,2.47h-.6l-1.31-2.43v3.22h-.8v-4.93h.71l1.7,3.23Z"/></svg>