<svg xmlns="http://www.w3.org/2000/svg" xmlns:xlink="http://www.w3.org/1999/xlink" width="335" height="335" viewBox="0 0 335 335">
  <defs>
    <path id="lateral-movement@1x-a" d="M0.7515,18.005 C0.7515,17.569 1.0511,17.151 1.5843,16.843 C7.3594,13.508 23.9537,3.922 29.7289,0.586 C30.2621,0.278 30.9852,0.105 31.7392,0.105 C32.4933,0.105 33.2164,0.278 33.7496,0.586 C39.5248,3.922 56.119,13.508 61.8942,16.843 C62.4274,17.151 62.7269,17.569 62.7269,18.005 L62.7269,52.1442 C62.7269,52.5798 62.4274,52.9975 61.8942,53.3055 C56.119,56.6414 39.5248,66.2267 33.7496,69.5627 C33.2164,69.8706 32.4933,70.0437 31.7392,70.0437 C30.9852,70.0437 30.2621,69.8706 29.7289,69.5627 C23.9537,66.2267 7.3594,56.6414 1.5843,53.3055 C1.0512,52.9976 0.7515,52.58 0.7515,52.1442 L0.7515,18.005 Z"/>
    <path id="lateral-movement@1x-c" d="M0.849,18.559 C0.849,18.123 1.149,17.706 1.682,17.398 C7.457,14.062 24.052,4.476 29.827,1.14 C30.36,0.832 31.083,0.659 31.837,0.659 C32.591,0.659 33.314,0.832 33.847,1.14 C39.623,4.476 56.217,14.062 61.992,17.398 C62.525,17.706 62.825,18.123 62.825,18.559 L62.825,85.5263 C62.825,85.9618 62.525,86.3795 61.992,86.6875 C56.217,90.0234 39.623,99.6088 33.847,102.9447 C33.314,103.2527 32.591,103.4257 31.837,103.4257 C31.083,103.4257 30.36,103.2527 29.827,102.9447 C24.052,99.6088 7.457,90.0234 1.682,86.6875 C1.149,86.3796 0.849,85.962 0.849,85.5263 L0.849,18.559 Z"/>
    <path id="lateral-movement@1x-e" d="M0.849,18.559 C0.849,18.123 1.149,17.706 1.682,17.398 C7.457,14.062 24.052,4.476 29.827,1.14 C30.36,0.832 31.083,0.659 31.837,0.659 C32.591,0.659 33.314,0.832 33.847,1.14 C39.623,4.476 56.217,14.062 61.992,17.398 C62.525,17.706 62.825,18.123 62.825,18.559 L62.825,85.5263 C62.825,85.9618 62.525,86.3795 61.992,86.6875 C56.217,90.0234 39.623,99.6088 33.847,102.9447 C33.314,103.2527 32.591,103.4257 31.837,103.4257 C31.083,103.4257 30.36,103.2527 29.827,102.9447 C24.052,99.6088 7.457,90.0234 1.682,86.6875 C1.149,86.3796 0.849,85.962 0.849,85.5263 L0.849,18.559 Z"/>
    <path id="lateral-movement@1x-g" d="M0.931,18.715 C0.931,18.279 1.23,17.862 1.764,17.554 C7.539,14.218 24.133,4.633 29.908,1.297 C30.441,0.989 31.165,0.816 31.919,0.816 C32.673,0.816 33.396,0.989 33.929,1.297 C39.704,4.633 56.298,14.218 62.074,17.554 C62.607,17.862 62.906,18.279 62.906,18.715 L62.906,69.6824 C62.906,70.118 62.607,70.5357 62.074,70.8436 C56.298,74.1796 39.704,83.7649 33.929,87.1009 C33.396,87.4088 32.673,87.5819 31.919,87.5819 C31.165,87.5819 30.441,87.4088 29.908,87.1009 C24.133,83.7649 7.539,74.1796 1.764,70.8436 C1.231,70.5357 0.931,70.1182 0.931,69.6824 L0.931,18.715 Z"/>
    <path id="lateral-movement@1x-i" d="M0.045,18.272 C0.045,17.836 0.344,17.418 0.878,17.11 C6.653,13.774 23.247,4.189 29.022,0.853 C29.555,0.545 30.279,0.372 31.033,0.372 C31.787,0.372 32.51,0.545 33.043,0.853 C38.818,4.189 55.412,13.774 61.188,17.11 C61.721,17.418 62.02,17.836 62.02,18.272 L62.02,130.3472 C62.02,130.7828 61.721,131.2005 61.188,131.5085 C55.412,134.8444 38.818,144.4298 33.043,147.7657 C32.51,148.0737 31.787,148.2467 31.033,148.2467 C30.279,148.2467 29.555,148.0737 29.022,147.7657 C23.247,144.4298 6.653,134.8444 0.878,131.5085 C0.345,131.2006 0.045,130.783 0.045,130.3472 L0.045,18.272 Z"/>
    <path id="lateral-movement@1x-k" d="M0.435,12.17 C0.435,11.881 0.634,11.603 0.988,11.399 C4.827,9.181 15.858,2.81 19.696,0.592 C20.051,0.388 20.531,0.273 21.033,0.273 C21.534,0.273 22.014,0.388 22.369,0.592 C26.208,2.81 37.238,9.181 41.077,11.399 C41.431,11.603 41.63,11.881 41.63,12.17 L41.63,19.467 C41.63,19.756 41.431,20.034 41.077,20.238 C37.238,22.456 26.208,28.827 22.369,31.045 C22.014,31.249 21.534,31.364 21.033,31.364 C20.531,31.364 20.051,31.249 19.696,31.045 C15.858,28.827 4.827,22.456 0.988,20.238 C0.634,20.034 0.435,19.756 0.435,19.467 L0.435,12.17 Z"/>
    <path id="lateral-movement@1x-m" d="M10.033,0.069 C10.276,0.069 10.51,0.125 10.682,0.224 C12.548,1.302 17.909,4.398 19.774,5.476 C19.946,5.575 20.043,5.71 20.043,5.851 C20.043,5.992 19.946,6.127 19.774,6.226 C17.909,7.304 12.548,10.4 10.682,11.478 C10.51,11.578 10.276,11.633 10.033,11.633 C9.789,11.633 9.555,11.578 9.383,11.478 C7.517,10.4 2.157,7.304 0.291,6.226 C0.119,6.127 0.022,5.992 0.022,5.851 C0.022,5.71 0.119,5.575 0.291,5.476 C2.157,4.398 7.517,1.302 9.383,0.224 C9.555,0.125 9.789,0.069 10.033,0.069 Z"/>
    <polyline id="lateral-movement@1x-o" points="10.959 19.71 22.075 6.267 15.502 .481 6.61 .481 .037 6.267"/>
  </defs>
  <g fill="none" fill-rule="evenodd" transform="translate(0 60)">
    <path fill="#EFF4F7" d="M60.7392,95.008 C58.8828,93.937 56.5956,93.937 54.7392,95.008 C44.858,100.713 13.2917,118.9382 1.5,125.7461 C0.5718,126.282 0,127.2724 0,128.3442 C0,129.416 0.5718,130.4064 1.5,130.9423 C13.2917,137.7502 44.858,155.975 54.7392,161.68 C56.5956,162.7518 58.8828,162.7518 60.7392,161.68 C70.6205,155.975 102.187,137.7502 113.978,130.9423 C114.907,130.4064 115.478,129.416 115.478,128.3442 C115.478,127.2724 114.907,126.282 113.978,125.7461 C102.187,118.9382 70.6205,100.713 60.7392,95.008 Z"/>
    <path fill="#5A6D83" fill-opacity=".21" d="M57.5056,145.9756 C57.5056,145.9756 62.2813,146.0878 65.9277,146.1734 C68.5891,146.2358 71.2144,145.5474 73.5026,144.187 C79.3866,140.6887 91.2561,133.6319 97.825,129.7263 C98.793,129.1507 99.385,128.1063 99.3810201,126.98 C99.377,125.8537 98.778,124.8133 97.806,124.2443 C89.2108,119.2134 71.7192,108.9756 71.7192,108.9756 L57.5056,108.0526 L57.5056,145.9756 Z"/>
    <path fill="#EFF4F7" d="M206.935,95.008 C205.078,93.937 202.791,93.937 200.935,95.008 C191.054,100.713 159.487,118.9382 147.696,125.7461 C146.767,126.282 146.196,127.2724 146.196,128.3442 C146.196,129.416 146.767,130.4064 147.696,130.9423 C159.487,137.7502 191.054,155.975 200.935,161.68 C202.791,162.7518 205.078,162.7518 206.935,161.68 C216.816,155.975 248.382,137.7502 260.174,130.9423 C261.102,130.4064 261.674,129.416 261.674,128.3442 C261.674,127.2724 261.102,126.282 260.174,125.7461 C248.382,118.9382 216.816,100.713 206.935,95.008 Z"/>
    <path fill="#5A6D83" fill-opacity=".21" d="M201.648,146.4955 C201.648,146.4955 206.424,146.6076 210.07,146.6932 C212.732,146.7557 215.357,146.0673 217.645,144.7068 C223.529,141.2086 235.399,134.1517 241.968,130.2462 C242.936,129.6706 243.528,128.6261 243.52402,127.4998 C243.52,126.3735 242.921,125.3331 241.949,124.7642 C233.354,119.7333 215.862,109.4955 215.862,109.4955 L201.648,108.5724 L201.648,146.4955 Z"/>
    <path fill="#EFF4F7" d="M133.837,137.2115 C131.981,136.1397 129.693,136.1397 127.837,137.2115 C117.956,142.9164 86.3895,161.1412 74.5978,167.9492 C73.6696,168.4851 73.0978,169.4754 73.0978,170.5472 C73.0978,171.619 73.6696,172.6094 74.5978,173.1453 C86.3895,179.9532 117.956,198.178 127.837,203.883 C129.693,204.9548 131.981,204.9548 133.837,203.883 C143.718,198.178 175.285,179.9532 187.076,173.1453 C188.004,172.6094 188.576,171.619 188.576,170.5472 C188.576,169.4754 188.004,168.4851 187.076,167.9492 C175.285,161.1412 143.718,142.9164 133.837,137.2115 Z"/>
    <path fill="#5A6D83" fill-opacity=".21" d="M131.704,187.3798 C131.704,187.3798 136.479,187.492 140.126,187.5776 C142.787,187.64 145.412,186.9516 147.701,185.5911 C153.585,182.0929 165.454,175.0361 172.023,171.1305 C172.991,170.5549 173.583,169.5105 173.57902,168.3842 C173.575,167.2579 172.977,166.2175 172.004,165.6485 C163.409,160.6176 145.917,150.3798 145.917,150.3798 L131.704,149.4568 L131.704,187.3798 Z"/>
    <path fill="#FFF" d="M26.7515,93.524 C26.7515,93.088 27.0511,92.67 27.5843,92.362 C33.3594,89.027 49.9537,79.441 55.7289,76.105 C56.2621,75.797 56.9852,75.624 57.7392,75.624 C58.4933,75.624 59.2164,75.797 59.7496,76.105 C65.5248,79.441 82.119,89.027 87.8942,92.362 C88.4274,92.67 88.7269,93.088 88.7269,93.524 L88.7269,127.6632 C88.7269,128.0988 88.4274,128.5165 87.8942,128.8245 C82.119,132.1604 65.5248,141.7457 59.7496,145.0817 C59.2164,145.3896 58.4933,145.5627 57.7392,145.5627 C56.9852,145.5627 56.2621,145.3896 55.7289,145.0817 C49.9537,141.7457 33.3594,132.1604 27.5843,128.8245 C27.0512,128.5166 26.7515,128.099 26.7515,127.6632 L26.7515,93.524 Z"/>
    <g transform="translate(26 75.519)">
      <mask id="lateral-movement@1x-b" fill="#fff">
        <use xlink:href="#lateral-movement@1x-a"/>
      </mask>
      <polygon fill="#EFF4F7" points="63.012 -12.467 31.739 4.533 31.739 124.827 63.012 107.827" mask="url(#lateral-movement@1x-b)"/>
      <path fill="#FFF" d="M33.7496,0.586 C33.2164,0.278 32.4933,0.105 31.7392,0.105 C30.9852,0.105 30.2621,0.278 29.7289,0.586 C23.9537,3.922 7.3594,13.508 1.5843,16.843 C1.0511,17.151 0.7515,17.569 0.7515,18.005 C0.7515,18.44 1.0511,18.858 1.5843,19.166 C7.3594,22.502 23.9537,32.0872 29.7289,35.4231 C30.2621,35.7311 30.9852,35.9041 31.7392,35.9041 C32.4933,35.9041 33.2164,35.7311 33.7496,35.4231 C39.5248,32.0872 56.119,22.502 61.8942,19.166 C62.4274,18.858 62.7269,18.44 62.7269,18.005 C62.7269,17.569 62.4274,17.151 61.8942,16.843 C56.119,13.508 39.5248,3.922 33.7496,0.586 Z" mask="url(#lateral-movement@1x-b)"/>
      <path stroke="#01050C" stroke-linecap="round" stroke-linejoin="round" d="M33.7496,0.586 C33.2164,0.278 32.4933,0.105 31.7392,0.105 C30.9852,0.105 30.2621,0.278 29.7289,0.586 C23.9537,3.922 7.3594,13.508 1.5843,16.843 C1.0511,17.151 0.7515,17.569 0.7515,18.005 C0.7515,18.44 1.0511,18.858 1.5843,19.166 C7.3594,22.502 23.9537,32.0872 29.7289,35.4231 C30.2621,35.7311 30.9852,35.9041 31.7392,35.9041 C32.4933,35.9041 33.2164,35.7311 33.7496,35.4231 C39.5248,32.0872 56.119,22.502 61.8942,19.166 C62.4274,18.858 62.7269,18.44 62.7269,18.005 C62.7269,17.569 62.4274,17.151 61.8942,16.843 C56.119,13.508 39.5248,3.922 33.7496,0.586 Z" mask="url(#lateral-movement@1x-b)"/>
      <path stroke="#01050C" stroke-linecap="round" stroke-linejoin="round" d="M62.7078,35.6371 C62.7078,36.0726 62.4083,36.4903 61.8751,36.7983 C56.0999,40.1342 39.5056,49.7196 33.7304,53.0555 C33.1973,53.3635 32.4741,53.5365 31.7201,53.5365 C30.9661,53.5365 30.2429,53.3635 29.7098,53.0555 C23.9346,49.7196 7.3403,40.1342 1.5651,36.7983 C1.0319,36.4903 0.7324,36.0726 0.7324,35.6371" mask="url(#lateral-movement@1x-b)"/>
    </g>
    <path stroke="#01050C" stroke-linecap="round" stroke-linejoin="round" d="M26.7515,93.524 C26.7515,93.088 27.0511,92.67 27.5843,92.362 C33.3594,89.027 49.9537,79.441 55.7289,76.105 C56.2621,75.797 56.9852,75.624 57.7392,75.624 C58.4933,75.624 59.2164,75.797 59.7496,76.105 C65.5248,79.441 82.119,89.027 87.8942,92.362 C88.4274,92.67 88.7269,93.088 88.7269,93.524 L88.7269,127.6632 C88.7269,128.0988 88.4274,128.5165 87.8942,128.8245 C82.119,132.1604 65.5248,141.7457 59.7496,145.0817 C59.2164,145.3896 58.4933,145.5627 57.7392,145.5627 C56.9852,145.5627 56.2621,145.3896 55.7289,145.0817 C49.9537,141.7457 33.3594,132.1604 27.5843,128.8245 C27.0512,128.5166 26.7515,128.099 26.7515,127.6632 L26.7515,93.524 Z"/>
    <path fill="#F9FAFB" d="M99.849,102.078 C99.849,101.642 100.149,101.225 100.682,100.917 C106.457,97.581 123.052,87.995 128.827,84.659 C129.36,84.351 130.083,84.178 130.837,84.178 C131.591,84.178 132.314,84.351 132.847,84.659 C138.623,87.995 155.217,97.581 160.992,100.917 C161.525,101.225 161.825,101.642 161.825,102.078 L161.825,169.0453 C161.825,169.4808 161.525,169.8985 160.992,170.2065 C155.217,173.5424 138.623,183.1278 132.847,186.4637 C132.314,186.7717 131.591,186.9447 130.837,186.9447 C130.083,186.9447 129.36,186.7717 128.827,186.4637 C123.052,183.1278 106.457,173.5424 100.682,170.2065 C100.149,169.8986 99.849,169.481 99.849,169.0453 L99.849,102.078 Z"/>
    <g transform="translate(99 83.519)">
      <mask id="lateral-movement@1x-d" fill="#fff">
        <use xlink:href="#lateral-movement@1x-c"/>
      </mask>
      <path fill="#F9FAFB" d="M33.847,1.14 C33.314,0.832 32.591,0.659 31.837,0.659 C31.083,0.659 30.36,0.832 29.827,1.14 C24.052,4.476 7.457,14.062 1.682,17.398 C1.149,17.706 0.849,18.123 0.849,18.559 C0.849,18.994 1.149,19.412 1.682,19.72 C7.457,23.056 24.052,32.6414 29.827,35.9773 C30.36,36.2853 31.083,36.4583 31.837,36.4583 C32.591,36.4583 33.314,36.2853 33.847,35.9773 C39.623,32.6414 56.217,23.056 61.992,19.72 C62.525,19.412 62.825,18.994 62.825,18.559 C62.825,18.123 62.525,17.706 61.992,17.398 C56.217,14.062 39.623,4.476 33.847,1.14 Z" mask="url(#lateral-movement@1x-d)"/>
      <path stroke="#01050C" stroke-linecap="round" stroke-linejoin="round" d="M33.847,1.14 C33.314,0.832 32.591,0.659 31.837,0.659 C31.083,0.659 30.36,0.832 29.827,1.14 C24.052,4.476 7.457,14.062 1.682,17.398 C1.149,17.706 0.849,18.123 0.849,18.559 C0.849,18.994 1.149,19.412 1.682,19.72 C7.457,23.056 24.052,32.6414 29.827,35.9773 C30.36,36.2853 31.083,36.4583 31.837,36.4583 C32.591,36.4583 33.314,36.2853 33.847,35.9773 C39.623,32.6414 56.217,23.056 61.992,19.72 C62.525,19.412 62.825,18.994 62.825,18.559 C62.825,18.123 62.525,17.706 61.992,17.398 C56.217,14.062 39.623,4.476 33.847,1.14 Z" mask="url(#lateral-movement@1x-d)"/>
    </g>
    <path stroke="#01050C" stroke-linecap="round" stroke-linejoin="round" d="M99.849,102.078 C99.849,101.642 100.149,101.225 100.682,100.917 C106.457,97.581 123.052,87.995 128.827,84.659 C129.36,84.351 130.083,84.178 130.837,84.178 C131.591,84.178 132.314,84.351 132.847,84.659 C138.623,87.995 155.217,97.581 160.992,100.917 C161.525,101.225 161.825,101.642 161.825,102.078 L161.825,169.0453 C161.825,169.4808 161.525,169.8985 160.992,170.2065 C155.217,173.5424 138.623,183.1278 132.847,186.4637 C132.314,186.7717 131.591,186.9447 130.837,186.9447 C130.083,186.9447 129.36,186.7717 128.827,186.4637 C123.052,183.1278 106.457,173.5424 100.682,170.2065 C100.149,169.8986 99.849,169.481 99.849,169.0453 L99.849,102.078 Z"/>
    <path fill="#FFF" d="M99.849,102.078 C99.849,101.642 100.149,101.225 100.682,100.917 C106.457,97.581 123.052,87.995 128.827,84.659 C129.36,84.351 130.083,84.178 130.837,84.178 C131.591,84.178 132.314,84.351 132.847,84.659 C138.623,87.995 155.217,97.581 160.992,100.917 C161.525,101.225 161.825,101.642 161.825,102.078 L161.825,169.0453 C161.825,169.4808 161.525,169.8985 160.992,170.2065 C155.217,173.5424 138.623,183.1278 132.847,186.4637 C132.314,186.7717 131.591,186.9447 130.837,186.9447 C130.083,186.9447 129.36,186.7717 128.827,186.4637 C123.052,183.1278 106.457,173.5424 100.682,170.2065 C100.149,169.8986 99.849,169.481 99.849,169.0453 L99.849,102.078 Z"/>
    <g transform="translate(99 83.519)">
      <mask id="lateral-movement@1x-f" fill="#fff">
        <use xlink:href="#lateral-movement@1x-e"/>
      </mask>
      <polygon fill="#EFF4F7" points="62.88 -20.467 31.607 -3.467 31.607 116.827 62.88 99.827" mask="url(#lateral-movement@1x-f)"/>
      <path fill="#FFF" d="M33.847,1.14 C33.314,0.832 32.591,0.659 31.837,0.659 C31.083,0.659 30.36,0.832 29.827,1.14 C24.052,4.476 7.457,14.062 1.682,17.398 C1.149,17.706 0.849,18.123 0.849,18.559 C0.849,18.994 1.149,19.412 1.682,19.72 C7.457,23.056 24.052,32.6414 29.827,35.9773 C30.36,36.2853 31.083,36.4583 31.837,36.4583 C32.591,36.4583 33.314,36.2853 33.847,35.9773 C39.623,32.6414 56.217,23.056 61.992,19.72 C62.525,19.412 62.825,18.994 62.825,18.559 C62.825,18.123 62.525,17.706 61.992,17.398 C56.217,14.062 39.623,4.476 33.847,1.14 Z" mask="url(#lateral-movement@1x-f)"/>
      <path stroke="#01050C" stroke-linecap="round" stroke-linejoin="round" d="M33.847,1.14 C33.314,0.832 32.591,0.659 31.837,0.659 C31.083,0.659 30.36,0.832 29.827,1.14 C24.052,4.476 7.457,14.062 1.682,17.398 C1.149,17.706 0.849,18.123 0.849,18.559 C0.849,18.994 1.149,19.412 1.682,19.72 C7.457,23.056 24.052,32.6414 29.827,35.9773 C30.36,36.2853 31.083,36.4583 31.837,36.4583 C32.591,36.4583 33.314,36.2853 33.847,35.9773 C39.623,32.6414 56.217,23.056 61.992,19.72 C62.525,19.412 62.825,18.994 62.825,18.559 C62.825,18.123 62.525,17.706 61.992,17.398 C56.217,14.062 39.623,4.476 33.847,1.14 Z" mask="url(#lateral-movement@1x-f)"/>
    </g>
    <path stroke="#01050C" stroke-linecap="round" stroke-linejoin="round" d="M99.849,102.078 C99.849,101.642 100.149,101.225 100.682,100.917 C106.457,97.581 123.052,87.995 128.827,84.659 C129.36,84.351 130.083,84.178 130.837,84.178 C131.591,84.178 132.314,84.351 132.847,84.659 C138.623,87.995 155.217,97.581 160.992,100.917 C161.525,101.225 161.825,101.642 161.825,102.078 L161.825,169.0453 C161.825,169.4808 161.525,169.8985 160.992,170.2065 C155.217,173.5424 138.623,183.1278 132.847,186.4637 C132.314,186.7717 131.591,186.9447 130.837,186.9447 C130.083,186.9447 129.36,186.7717 128.827,186.4637 C123.052,183.1278 106.457,173.5424 100.682,170.2065 C100.149,169.8986 99.849,169.481 99.849,169.0453 L99.849,102.078 Z"/>
    <path fill="#FFF" d="M170.931,77.234 C170.931,76.798 171.23,76.381 171.764,76.073 C177.539,72.737 194.133,63.152 199.908,59.816 C200.441,59.508 201.165,59.335 201.919,59.335 C202.673,59.335 203.396,59.508 203.929,59.816 C209.704,63.152 226.298,72.737 232.074,76.073 C232.607,76.381 232.906,76.798 232.906,77.234 L232.906,128.2014 C232.906,128.637 232.607,129.0547 232.074,129.3626 C226.298,132.6986 209.704,142.2839 203.929,145.6199 C203.396,145.9278 202.673,146.1009 201.919,146.1009 C201.165,146.1009 200.441,145.9278 199.908,145.6199 C194.133,142.2839 177.539,132.6986 171.764,129.3626 C171.231,129.0547 170.931,128.6372 170.931,128.2014 L170.931,77.234 Z"/>
    <g transform="translate(170 58.519)">
      <mask id="lateral-movement@1x-h" fill="#fff">
        <use xlink:href="#lateral-movement@1x-g"/>
      </mask>
      <polygon fill="#EFF4F7" points="63.719 -31.386 32.446 -14.386 32.446 105.908 63.719 88.908" mask="url(#lateral-movement@1x-h)"/>
      <path fill="#FFF" d="M33.929,1.297 C33.396,0.989 32.673,0.816 31.919,0.816 C31.165,0.816 30.441,0.989 29.908,1.297 C24.133,4.633 7.539,14.218 1.764,17.554 C1.23,17.862 0.931,18.279 0.931,18.715 C0.931,19.151 1.23,19.568 1.764,19.876 C7.539,23.212 24.133,32.798 29.908,36.133 C30.441,36.441 31.165,36.614 31.919,36.614 C32.673,36.614 33.396,36.441 33.929,36.133 C39.704,32.798 56.298,23.212 62.074,19.876 C62.607,19.568 62.906,19.151 62.906,18.715 C62.906,18.279 62.607,17.862 62.074,17.554 C56.298,14.218 39.704,4.633 33.929,1.297 Z" mask="url(#lateral-movement@1x-h)"/>
      <path stroke="#01050C" stroke-linecap="round" stroke-linejoin="round" d="M33.929,1.297 C33.396,0.989 32.673,0.816 31.919,0.816 C31.165,0.816 30.441,0.989 29.908,1.297 C24.133,4.633 7.539,14.218 1.764,17.554 C1.23,17.862 0.931,18.279 0.931,18.715 C0.931,19.151 1.23,19.568 1.764,19.876 C7.539,23.212 24.133,32.798 29.908,36.133 C30.441,36.441 31.165,36.614 31.919,36.614 C32.673,36.614 33.396,36.441 33.929,36.133 C39.704,32.798 56.298,23.212 62.074,19.876 C62.607,19.568 62.906,19.151 62.906,18.715 C62.906,18.279 62.607,17.862 62.074,17.554 C56.298,14.218 39.704,4.633 33.929,1.297 Z" mask="url(#lateral-movement@1x-h)"/>
    </g>
    <path stroke="#01050C" stroke-linecap="round" stroke-linejoin="round" d="M170.931,77.234 C170.931,76.798 171.23,76.381 171.764,76.073 C177.539,72.737 194.133,63.152 199.908,59.816 C200.441,59.508 201.165,59.335 201.919,59.335 C202.673,59.335 203.396,59.508 203.929,59.816 C209.704,63.152 226.298,72.737 232.074,76.073 C232.607,76.381 232.906,76.798 232.906,77.234 L232.906,128.2014 C232.906,128.637 232.607,129.0547 232.074,129.3626 C226.298,132.6986 209.704,142.2839 203.929,145.6199 C203.396,145.9278 202.673,146.1009 201.919,146.1009 C201.165,146.1009 200.441,145.9278 199.908,145.6199 C194.133,142.2839 177.539,132.6986 171.764,129.3626 C171.231,129.0547 170.931,128.6372 170.931,128.2014 L170.931,77.234 Z"/>
    <path fill="#01050C" d="M42.4148 111.3881C41.7982 111.0321 41.2977 111.3211 41.2977 112.033 41.2977 112.745 41.7982 113.612 42.4148 113.968 43.0314 114.324 43.532 114.035 43.532 113.323 43.532 112.6111 43.0314 111.744 42.4148 111.3881zM37.3933 108.4889C36.7767 108.1329 36.2762 108.4219 36.2762 109.1339 36.2762 109.8458 36.7767 110.7128 37.3933 111.0688 38.0099 111.4248 38.5104 111.1358 38.5104 110.4238 38.5104 109.7119 38.0099 108.8449 37.3933 108.4889zM32.3718 105.59C31.7552 105.234 31.2546 105.523 31.2546 106.235 31.2546 106.9466 31.7552 107.8137 32.3718 108.1696 32.9883 108.5256 33.4889 108.2366 33.4889 107.5247 33.4889 106.8127 32.9883 105.946 32.3718 105.59zM83.804 105.275C84.4205 104.919 84.9211 105.208 84.9211 105.92 84.9211 106.6319 84.4205 107.4989 83.804 107.8549 83.1874 108.2109 82.6868 107.9218 82.6868 107.2099 82.6868 106.498 83.1874 105.631 83.804 105.275zM83.804 121.6801C84.4205 121.3241 84.9211 121.6131 84.9211 122.3251 84.9211 123.037 84.4205 123.904 83.804 124.26 83.1874 124.616 82.6868 124.327 82.6868 123.615 82.6868 122.9031 83.1874 122.036 83.804 121.6801zM42.4148 128.637C41.7982 128.281 41.2977 128.5701 41.2977 129.282 41.2977 129.994 41.7982 130.861 42.4148 131.217 43.0314 131.5729 43.532 131.2839 43.532 130.572 43.532 129.86 43.0314 128.993 42.4148 128.637zM37.3933 125.7378C36.7767 125.3819 36.2762 125.6709 36.2762 126.3828 36.2762 127.0948 36.7767 127.9618 37.3933 128.3178 38.0099 128.6738 38.5104 128.3847 38.5104 127.6728 38.5104 126.9608 38.0099 126.0938 37.3933 125.7378zM32.3718 122.8387C31.7552 122.4827 31.2546 122.7717 31.2546 123.4837 31.2546 124.1956 31.7552 125.0626 32.3718 125.4186 32.9883 125.7746 33.4889 125.4856 33.4889 124.7736 33.4889 124.0617 32.9883 123.1946 32.3718 122.8387z"/>
    <line x1="64.216" x2="78.326" y1="117.874" y2="109.728" stroke="#01050C" stroke-linecap="round" stroke-linejoin="round"/>
    <line x1="64.216" x2="78.326" y1="134.279" y2="126.133" stroke="#01050C" stroke-linecap="round" stroke-linejoin="round"/>
    <path stroke="#E01A33" stroke-linecap="round" stroke-linejoin="round" stroke-width="1.5" d="M83.804 122.97C83.804 122.97 84.7925 123.5408 85.4833 123.9396 85.8894 124.174 86.1395 124.6073 86.1395 125.0761 86.1395 126.6583 86.1395 130.3814 86.1395 132.975 86.1395 134.6723 87.045 136.2407 88.515 137.0894 92.4808 139.3791 100.02 143.7319 100.02 143.7319M228.92 124.1477C228.92 124.1477 229.909 124.7184 230.6 125.1173 231.006 125.3517 231.256 125.7849 231.256 126.2538 231.256 127.9064 231.256 131.8949 231.256 134.4921 231.256 135.9794 232.049 137.3537 233.337 138.0973 237.805 140.6766 247.91 146.5108 247.91 146.5108M176.244 125.161C176.244 125.161 175.255 125.7318 174.564 126.1306 174.158 126.365 173.908 126.7983 173.908 127.2671 173.908 128.9161 173.908 132.8907 173.908 135.4882 173.908 136.9861 173.109 138.3703 171.812 139.1193 168.352 141.1168 161.825 144.8854 161.825 144.8854"/>
    <path stroke="#01050C" stroke-linecap="round" stroke-linejoin="round" d="M161.825,152.6127 C161.825,153.0482 161.525,153.4659 160.992,153.7739 C155.217,157.1098 138.623,166.6952 132.847,170.0311 C132.314,170.3391 131.591,170.5121 130.837,170.5121 C130.083,170.5121 129.36,170.3391 128.827,170.0311 C123.052,166.6952 106.457,157.1098 100.682,153.7739 C100.149,153.4659 99.849,153.0482 99.849,152.6127"/>
    <path fill="#01050C" d="M156.921 163.1367C157.537 162.7807 158.038 163.0697 158.038 163.7817 158.038 164.4936 157.537 165.3606 156.921 165.7166 156.304 166.0726 155.804 165.7836 155.804 165.0716 155.804 164.3597 156.304 163.4926 156.921 163.1367zM115.532 170.0936C114.915 169.7376 114.415 170.0267 114.415 170.7386 114.415 171.4506 114.915 172.3176 115.532 172.6736 116.148 173.0295 116.649 172.7405 116.649 172.0286 116.649 171.3166 116.148 170.4496 115.532 170.0936zM110.51 167.1944C109.894 166.8385 109.393 167.1275 109.393 167.8394 109.393 168.5514 109.894 169.4184 110.51 169.7744 111.127 170.1304 111.627 169.8413 111.627 169.1294 111.627 168.4174 111.127 167.5504 110.51 167.1944zM105.489 164.2953C104.872 163.9393 104.372 164.2283 104.372 164.9403 104.372 165.6522 104.872 166.5192 105.489 166.8752 106.105 167.2312 106.606 166.9422 106.606 166.2302 106.606 165.5183 106.105 164.6512 105.489 164.2953z"/>
    <line x1="137.333" x2="151.443" y1="175.736" y2="167.589" stroke="#01050C" stroke-linecap="round" stroke-linejoin="round"/>
    <path stroke="#01050C" stroke-linecap="round" stroke-linejoin="round" d="M232.906,111.7689 C232.906,112.2044 232.607,112.6221 232.074,112.9301 C226.298,116.266 209.704,125.8514 203.929,129.1873 C203.396,129.4953 202.673,129.6683 201.919,129.6683 C201.165,129.6683 200.441,129.4953 199.908,129.1873 C194.133,125.8514 177.539,116.266 171.764,112.9301 C171.23,112.6221 170.931,112.2044 170.931,111.7689"/>
    <path fill="#01050C" d="M228.002 122.2928C228.619 121.9369 229.12 122.2259 229.12 122.9378 229.12 123.6498 228.619 124.5168 228.002 124.8728 227.386 125.2287 226.885 124.9397 226.885 124.2278 226.885 123.5158 227.386 122.6488 228.002 122.2928zM186.613 129.2498C185.997 128.8938 185.496 129.1828 185.496 129.8948 185.496 130.6067 185.997 131.4737 186.613 131.8297 187.23 132.1857 187.73 131.8967 187.73 131.1847 187.73 130.4728 187.23 129.6058 186.613 129.2498zM181.592 126.3506C180.975 125.9946 180.475 126.2836 180.475 126.9956 180.475 127.7075 180.975 128.5746 181.592 128.9305 182.208 129.2865 182.709 128.9975 182.709 128.2856 182.709 127.5736 182.208 126.7066 181.592 126.3506zM176.57 123.4514C175.954 123.0955 175.453 123.3845 175.453 124.0964 175.453 124.8084 175.954 125.6754 176.57 126.0314 177.187 126.3873 177.687 126.0983 177.687 125.3864 177.687 124.6744 177.187 123.8074 176.57 123.4514z"/>
    <line x1="208.414" x2="222.525" y1="134.892" y2="126.745" stroke="#01050C" stroke-linecap="round" stroke-linejoin="round"/>
    <path stroke="#01050C" stroke-linecap="round" stroke-linejoin="round" d="M161.825,135.6127 C161.825,136.0482 161.525,136.4659 160.992,136.7739 C155.217,140.1098 138.623,149.6952 132.847,153.0311 C132.314,153.3391 131.591,153.5121 130.837,153.5121 C130.083,153.5121 129.36,153.3391 128.827,153.0311 C123.052,149.6952 106.457,140.1098 100.682,136.7739 C100.149,136.4659 99.849,136.0482 99.849,135.6127"/>
    <path fill="#01050C" d="M156.921 146.1367C157.537 145.7807 158.038 146.0697 158.038 146.7817 158.038 147.4936 157.537 148.3606 156.921 148.7166 156.304 149.0726 155.804 148.7836 155.804 148.0716 155.804 147.3597 156.304 146.4926 156.921 146.1367zM115.532 153.0936C114.915 152.7376 114.415 153.0267 114.415 153.7386 114.415 154.4506 114.915 155.3176 115.532 155.6736 116.148 156.0295 116.649 155.7405 116.649 155.0286 116.649 154.3166 116.148 153.4496 115.532 153.0936zM110.51 150.1944C109.894 149.8385 109.393 150.1275 109.393 150.8394 109.393 151.5514 109.894 152.4184 110.51 152.7744 111.127 153.1304 111.627 152.8413 111.627 152.1294 111.627 151.4174 111.127 150.5504 110.51 150.1944zM105.489 147.2953C104.872 146.9393 104.372 147.2283 104.372 147.9403 104.372 148.6522 104.872 149.5192 105.489 149.8752 106.105 150.2312 106.606 149.9422 106.606 149.2302 106.606 148.5183 106.105 147.6512 105.489 147.2953z"/>
    <line x1="137.333" x2="151.443" y1="158.736" y2="150.589" stroke="#01050C" stroke-linecap="round" stroke-linejoin="round"/>
    <path stroke="#01050C" stroke-linecap="round" stroke-linejoin="round" d="M232.906,94.769 C232.906,95.204 232.607,95.622 232.074,95.93 C226.298,99.266 209.704,108.8514 203.929,112.1873 C203.396,112.4953 202.673,112.6683 201.919,112.6683 C201.165,112.6683 200.441,112.4953 199.908,112.1873 C194.133,108.8514 177.539,99.266 171.764,95.93 C171.23,95.622 170.931,95.204 170.931,94.769"/>
    <path fill="#01050C" d="M228.002 105.293C228.619 104.937 229.12 105.226 229.12 105.938 229.12 106.6498 228.619 107.5168 228.002 107.8728 227.386 108.2287 226.885 107.9397 226.885 107.2278 226.885 106.516 227.386 105.649 228.002 105.293zM186.613 112.2498C185.997 111.8938 185.496 112.1828 185.496 112.8948 185.496 113.6067 185.997 114.4737 186.613 114.8297 187.23 115.1857 187.73 114.8967 187.73 114.1847 187.73 113.4728 187.23 112.6058 186.613 112.2498zM181.592 109.3506C180.975 108.9946 180.475 109.2836 180.475 109.9956 180.475 110.7075 180.975 111.5746 181.592 111.9305 182.208 112.2865 182.709 111.9975 182.709 111.2856 182.709 110.5736 182.208 109.7066 181.592 109.3506zM176.57 106.451C175.954 106.095 175.453 106.384 175.453 107.0964 175.453 107.8084 175.954 108.6754 176.57 109.0314 177.187 109.3873 177.687 109.0983 177.687 108.3864 177.687 107.6744 177.187 106.8074 176.57 106.451z"/>
    <line x1="208.414" x2="222.525" y1="117.892" y2="109.745" stroke="#01050C" stroke-linecap="round" stroke-linejoin="round"/>
    <path stroke="#01050C" stroke-linecap="round" stroke-linejoin="round" d="M161.825,118.6127 C161.825,119.0482 161.525,119.4659 160.992,119.7739 C155.217,123.1098 138.623,132.6952 132.847,136.0311 C132.314,136.3391 131.591,136.5121 130.837,136.5121 C130.083,136.5121 129.36,136.3391 128.827,136.0311 C123.052,132.6952 106.457,123.1098 100.682,119.7739 C100.149,119.4659 99.849,119.0482 99.849,118.6127"/>
    <path fill="#01050C" d="M156.921 129.1367C157.537 128.7807 158.038 129.0697 158.038 129.7817 158.038 130.4936 157.537 131.3606 156.921 131.7166 156.304 132.0726 155.804 131.7836 155.804 131.0716 155.804 130.3597 156.304 129.4926 156.921 129.1367zM115.532 136.0936C114.915 135.7376 114.415 136.0267 114.415 136.7386 114.415 137.4506 114.915 138.3176 115.532 138.6736 116.148 139.0295 116.649 138.7405 116.649 138.0286 116.649 137.3166 116.148 136.4496 115.532 136.0936zM110.51 133.1944C109.894 132.8385 109.393 133.1275 109.393 133.8394 109.393 134.5514 109.894 135.4184 110.51 135.7744 111.127 136.1304 111.627 135.8413 111.627 135.1294 111.627 134.4174 111.127 133.5504 110.51 133.1944zM105.489 130.2953C104.872 129.9393 104.372 130.2283 104.372 130.9403 104.372 131.6522 104.872 132.5192 105.489 132.8752 106.105 133.2312 106.606 132.9422 106.606 132.2302 106.606 131.5183 106.105 130.6512 105.489 130.2953z"/>
    <line x1="137.333" x2="151.443" y1="141.736" y2="133.589" stroke="#01050C" stroke-linecap="round" stroke-linejoin="round"/>
    <path fill="#01050C" d="M228.002 88.293C228.619 87.937 229.12 88.226 229.12 88.938 229.12 89.65 228.619 90.517 228.002 90.873 227.386 91.229 226.885 90.94 226.885 90.228 226.885 89.516 227.386 88.649 228.002 88.293zM186.613 95.25C185.997 94.894 185.496 95.183 185.496 95.895 185.496 96.607 185.997 97.474 186.613 97.83 187.23 98.186 187.73 97.897 187.73 97.185 187.73 96.473 187.23 95.606 186.613 95.25zM181.592 92.351C180.975 91.995 180.475 92.284 180.475 92.996 180.475 93.708 180.975 94.575 181.592 94.931 182.208 95.287 182.709 94.998 182.709 94.286 182.709 93.574 182.208 92.707 181.592 92.351zM176.57 89.451C175.954 89.095 175.453 89.384 175.453 90.096 175.453 90.808 175.954 91.675 176.57 92.031 177.187 92.387 177.687 92.098 177.687 91.386 177.687 90.674 177.187 89.807 176.57 89.451z"/>
    <line x1="208.414" x2="222.525" y1="100.892" y2="92.745" stroke="#01050C" stroke-linecap="round" stroke-linejoin="round"/>
    <path fill="#01050C" d="M156.921 112.1367C157.537 111.7807 158.038 112.0697 158.038 112.7817 158.038 113.4936 157.537 114.3606 156.921 114.7166 156.304 115.0726 155.804 114.7836 155.804 114.0716 155.804 113.3597 156.304 112.4926 156.921 112.1367zM115.532 119.0936C114.915 118.7376 114.415 119.0267 114.415 119.7386 114.415 120.4506 114.915 121.3176 115.532 121.6736 116.148 122.0295 116.649 121.7405 116.649 121.0286 116.649 120.3166 116.148 119.4496 115.532 119.0936zM110.51 116.1944C109.894 115.8385 109.393 116.1275 109.393 116.8394 109.393 117.5514 109.894 118.4184 110.51 118.7744 111.127 119.1304 111.627 118.8413 111.627 118.1294 111.627 117.4174 111.127 116.5504 110.51 116.1944zM105.489 113.2953C104.872 112.9393 104.372 113.2283 104.372 113.9403 104.372 114.6522 104.872 115.5192 105.489 115.8752 106.105 116.2312 106.606 115.9422 106.606 115.2302 106.606 114.5183 106.105 113.6512 105.489 113.2953z"/>
    <line x1="137.333" x2="151.443" y1="124.736" y2="116.589" stroke="#01050C" stroke-linecap="round" stroke-linejoin="round"/>
    <path fill="#EFF4F7" d="M280.033,137.2115 C278.176,136.1397 275.889,136.1397 274.033,137.2115 C264.151,142.9164 232.585,161.1412 220.793,167.9492 C219.865,168.4851 219.293,169.4754 219.293,170.5472 C219.293,171.619 219.865,172.6094 220.793,173.1453 C232.585,179.9532 264.151,198.178 274.033,203.883 C275.889,204.9548 278.176,204.9548 280.033,203.883 C289.914,198.178 321.48,179.9532 333.272,173.1453 C334.2,172.6094 334.772,171.619 334.772,170.5472 C334.772,169.4754 334.2,168.4851 333.272,167.9492 C321.48,161.1412 289.914,142.9164 280.033,137.2115 Z"/>
    <path fill="#5A6D83" fill-opacity=".2" d="M277.792,188.5393 C277.792,188.5393 286.099,188.6786 291.265,188.7652 C293.895,188.8093 296.484,188.1209 298.745,186.7769 C304.614,183.2878 316.526,176.2054 323.112,172.29 C324.08,171.7144 324.672,170.67 324.66802,169.5436 C324.664,168.4173 324.065,167.377 323.093,166.808 C314.497,161.7771 297.006,151.5393 297.006,151.5393 L277.792,150.6162 L277.792,188.5393 Z"/>
    <path fill="#FFF" d="M246.045,57.791 C246.045,57.355 246.344,56.937 246.878,56.629 C252.653,53.293 269.247,43.708 275.022,40.372 C275.555,40.064 276.279,39.891 277.033,39.891 C277.787,39.891 278.51,40.064 279.043,40.372 C284.818,43.708 301.412,53.293 307.188,56.629 C307.721,56.937 308.02,57.355 308.02,57.791 L308.02,169.8662 C308.02,170.3018 307.721,170.7195 307.188,171.0275 C301.412,174.3634 284.818,183.9488 279.043,187.2847 C278.51,187.5927 277.787,187.7657 277.033,187.7657 C276.279,187.7657 275.555,187.5927 275.022,187.2847 C269.247,183.9488 252.653,174.3634 246.878,171.0275 C246.345,170.7196 246.045,170.302 246.045,169.8662 L246.045,57.791 Z"/>
    <g transform="translate(246 39.519)">
      <mask id="lateral-movement@1x-j" fill="#fff">
        <use xlink:href="#lateral-movement@1x-i"/>
      </mask>
      <polygon fill="#EFF4F7" points="62.282 14.355 31.009 31.355 31.009 151.649 62.282 134.649" mask="url(#lateral-movement@1x-j)"/>
      <path fill="#FFF" d="M33.043,0.853 C32.51,0.545 31.787,0.372 31.033,0.372 C30.279,0.372 29.555,0.545 29.022,0.853 C23.247,4.189 6.653,13.774 0.878,17.11 C0.344,17.418 0.045,17.836 0.045,18.272 C0.045,18.707 0.344,19.125 0.878,19.433 C6.653,22.769 23.247,32.354 29.022,35.69 C29.555,35.998 30.279,36.171 31.033,36.171 C31.787,36.171 32.51,35.998 33.043,35.69 C38.818,32.354 55.412,22.769 61.188,19.433 C61.721,19.125 62.02,18.707 62.02,18.272 C62.02,17.836 61.721,17.418 61.188,17.11 C55.412,13.774 38.818,4.189 33.043,0.853 Z" mask="url(#lateral-movement@1x-j)"/>
      <path stroke="#01050C" stroke-linecap="round" stroke-linejoin="round" d="M33.043,0.853 C32.51,0.545 31.787,0.372 31.033,0.372 C30.279,0.372 29.555,0.545 29.022,0.853 C23.247,4.189 6.653,13.774 0.878,17.11 C0.344,17.418 0.045,17.836 0.045,18.272 C0.045,18.707 0.344,19.125 0.878,19.433 C6.653,22.769 23.247,32.354 29.022,35.69 C29.555,35.998 30.279,36.171 31.033,36.171 C31.787,36.171 32.51,35.998 33.043,35.69 C38.818,32.354 55.412,22.769 61.188,19.433 C61.721,19.125 62.02,18.707 62.02,18.272 C62.02,17.836 61.721,17.418 61.188,17.11 C55.412,13.774 38.818,4.189 33.043,0.853 Z" mask="url(#lateral-movement@1x-j)"/>
      <path fill="#5A6D83" fill-opacity=".21" d="M31.009,28.975 C31.009,28.975 36.295,29.101 37.987,29.142 C38.323,29.15 38.654,29.062 38.941,28.888 C41.19,27.525 51.47,21.294 55.912,18.602 C56.345,18.339 56.609,17.868 56.6070113,17.361 C56.606,16.855 56.338,16.386 55.903,16.126 C51.092,13.255 39.532,6.357 39.532,6.357 L31.009,5.793 L31.009,28.975 Z" mask="url(#lateral-movement@1x-j)"/>
      <path stroke="#01050C" stroke-linecap="round" stroke-linejoin="round" d="M62.02 123.93C62.02 124.3656 61.721 124.7833 61.188 125.0912 55.412 128.4272 38.818 138.0125 33.043 141.3484 32.51 141.6564 31.787 141.8294 31.033 141.8294 30.279 141.8294 29.555 141.6564 29.022 141.3484 23.247 138.0125 6.653 128.4272.878 125.0912.344 124.7833.045 124.3656.045 123.93M62.02 93.93C62.02 94.3656 61.721 94.7833 61.188 95.0912 55.412 98.4272 38.818 108.0125 33.043 111.3484 32.51 111.6564 31.787 111.8294 31.033 111.8294 30.279 111.8294 29.555 111.6564 29.022 111.3484 23.247 108.0125 6.653 98.4272.878 95.0912.344 94.7833.045 94.3656.045 93.93M62.02 53.93C62.02 54.366 61.721 54.783 61.188 55.091 55.412 58.427 38.818 68.0125 33.043 71.3484 32.51 71.6564 31.787 71.8294 31.033 71.8294 30.279 71.8294 29.555 71.6564 29.022 71.3484 23.247 68.0125 6.653 58.427.878 55.091.344 54.783.045 54.366.045 53.93" mask="url(#lateral-movement@1x-j)"/>
    </g>
    <path stroke="#01050C" stroke-linecap="round" stroke-linejoin="round" d="M246.045,57.791 C246.045,57.355 246.344,56.937 246.878,56.629 C252.653,53.293 269.247,43.708 275.022,40.372 C275.555,40.064 276.279,39.891 277.033,39.891 C277.787,39.891 278.51,40.064 279.043,40.372 C284.818,43.708 301.412,53.293 307.188,56.629 C307.721,56.937 308.02,57.355 308.02,57.791 L308.02,169.8662 C308.02,170.3018 307.721,170.7195 307.188,171.0275 C301.412,174.3634 284.818,183.9488 279.043,187.2847 C278.51,187.5927 277.787,187.7657 277.033,187.7657 C276.279,187.7657 275.555,187.5927 275.022,187.2847 C269.247,183.9488 252.653,174.3634 246.878,171.0275 C246.345,170.7196 246.045,170.302 246.045,169.8662 L246.045,57.791 Z"/>
    <path fill="#F9FAFB" d="M256.435,48.689 C256.435,48.4 256.634,48.122 256.988,47.918 C260.827,45.7 271.858,39.329 275.696,37.111 C276.051,36.907 276.531,36.792 277.033,36.792 C277.534,36.792 278.014,36.907 278.369,37.111 C282.208,39.329 293.238,45.7 297.077,47.918 C297.431,48.122 297.63,48.4 297.63,48.689 L297.63,55.986 C297.63,56.275 297.431,56.553 297.077,56.757 C293.238,58.975 282.208,65.346 278.369,67.564 C278.014,67.768 277.534,67.883 277.033,67.883 C276.531,67.883 276.051,67.768 275.696,67.564 C271.858,65.346 260.827,58.975 256.988,56.757 C256.634,56.553 256.435,56.275 256.435,55.986 L256.435,48.689 Z"/>
    <g transform="translate(256 36.519)">
      <mask id="lateral-movement@1x-l" fill="#fff">
        <use xlink:href="#lateral-movement@1x-k"/>
      </mask>
      <polygon fill="#EFF4F7" points="52.282 1.718 21.009 18.718 21.009 31.439 52.282 14.439" mask="url(#lateral-movement@1x-l)"/>
      <path fill="#FFF" d="M22.369,0.592 C22.014,0.388 21.534,0.273 21.033,0.273 C20.531,0.273 20.051,0.388 19.696,0.592 C15.858,2.81 4.827,9.181 0.988,11.399 C0.634,11.603 0.435,11.881 0.435,12.17 C0.435,12.46 0.634,12.738 0.988,12.942 C4.827,15.16 15.858,21.531 19.696,23.749 C20.051,23.953 20.531,24.068 21.033,24.068 C21.534,24.068 22.014,23.953 22.369,23.749 C26.208,21.531 37.238,15.16 41.077,12.942 C41.431,12.738 41.63,12.46 41.63,12.17 C41.63,11.881 41.431,11.603 41.077,11.399 C37.238,9.181 26.208,2.81 22.369,0.592 Z" mask="url(#lateral-movement@1x-l)"/>
      <path stroke="#01050C" stroke-linecap="round" stroke-linejoin="round" d="M22.369,0.592 C22.014,0.388 21.534,0.273 21.033,0.273 C20.531,0.273 20.051,0.388 19.696,0.592 C15.858,2.81 4.827,9.181 0.988,11.399 C0.634,11.603 0.435,11.881 0.435,12.17 C0.435,12.46 0.634,12.738 0.988,12.942 C4.827,15.16 15.858,21.531 19.696,23.749 C20.051,23.953 20.531,24.068 21.033,24.068 C21.534,24.068 22.014,23.953 22.369,23.749 C26.208,21.531 37.238,15.16 41.077,12.942 C41.431,12.738 41.63,12.46 41.63,12.17 C41.63,11.881 41.431,11.603 41.077,11.399 C37.238,9.181 26.208,2.81 22.369,0.592 Z" mask="url(#lateral-movement@1x-l)"/>
      <path fill="#5A6D83" d="M21.682,6.224 C21.51,6.125 21.276,6.069 21.033,6.069 C20.789,6.069 20.555,6.125 20.383,6.224 C18.517,7.302 13.157,10.398 11.291,11.476 C11.119,11.575 11.022,11.71 11.022,11.851 C11.022,11.992 11.119,12.127 11.291,12.226 C13.157,13.304 18.517,16.4 20.383,17.478 C20.555,17.578 20.789,17.633 21.033,17.633 C21.276,17.633 21.51,17.578 21.682,17.478 C23.548,16.4 28.909,13.304 30.774,12.226 C30.946,12.127 31.043,11.992 31.043,11.851 C31.043,11.71 30.946,11.575 30.774,11.476 C28.909,10.398 23.548,7.302 21.682,6.224 Z" mask="url(#lateral-movement@1x-l)"/>
      <g mask="url(#lateral-movement@1x-l)">
        <g transform="translate(11 6)">
          <mask id="lateral-movement@1x-n" fill="#fff">
            <use xlink:href="#lateral-movement@1x-m"/>
          </mask>
          <polygon fill="#01050C" points="-1.699 16.024 10.033 16.024 10.033 -6.976 -1.699 -6.976" mask="url(#lateral-movement@1x-n)"/>
        </g>
      </g>
      <path stroke="#01050C" stroke-linecap="round" stroke-linejoin="round" d="M21.682,6.224 C21.51,6.125 21.276,6.069 21.033,6.069 C20.789,6.069 20.555,6.125 20.383,6.224 C18.517,7.302 13.157,10.398 11.291,11.476 C11.119,11.575 11.022,11.71 11.022,11.851 C11.022,11.992 11.119,12.127 11.291,12.226 C13.157,13.304 18.517,16.4 20.383,17.478 C20.555,17.578 20.789,17.633 21.033,17.633 C21.276,17.633 21.51,17.578 21.682,17.478 C23.548,16.4 28.909,13.304 30.774,12.226 C30.946,12.127 31.043,11.992 31.043,11.851 C31.043,11.71 30.946,11.575 30.774,11.476 C28.909,10.398 23.548,7.302 21.682,6.224 Z" mask="url(#lateral-movement@1x-l)"/>
    </g>
    <path stroke="#01050C" stroke-linecap="round" stroke-linejoin="round" d="M256.435,48.689 C256.435,48.4 256.634,48.122 256.988,47.918 C260.827,45.7 271.858,39.329 275.696,37.111 C276.051,36.907 276.531,36.792 277.033,36.792 C277.534,36.792 278.014,36.907 278.369,37.111 C282.208,39.329 293.238,45.7 297.077,47.918 C297.431,48.122 297.63,48.4 297.63,48.689 L297.63,55.986 C297.63,56.275 297.431,56.553 297.077,56.757 C293.238,58.975 282.208,65.346 278.369,67.564 C278.014,67.768 277.534,67.883 277.033,67.883 C276.531,67.883 276.051,67.768 275.696,67.564 C271.858,65.346 260.827,58.975 256.988,56.757 C256.634,56.553 256.435,56.275 256.435,55.986 L256.435,48.689 Z"/>
    <polygon stroke="#01050C" stroke-linecap="round" stroke-linejoin="round" points="271.435 158.63 250.658 146.634 250.658 158.954 271.435 170.95"/>
    <polygon stroke="#01050C" stroke-linecap="round" stroke-linejoin="round" points="283.088 158.063 303.865 146.067 303.865 158.387 283.088 170.383"/>
    <polygon fill="#01050C" points="271.435 169.906 250.658 157.91 250.658 158.954 271.435 170.95"/>
    <path fill="#01050C" d="M262.111 77.482C261.495 77.126 260.994 77.415 260.994 78.127 260.994 78.839 261.495 79.706 262.111 80.062 262.728 80.418 263.228 80.129 263.228 79.417 263.228 78.705 262.728 77.838 262.111 77.482zM257.09 74.583C256.473 74.227 255.973 74.516 255.973 75.228 255.973 75.94 256.473 76.807 257.09 77.162 257.706 77.518 258.207 77.229 258.207 76.518 258.207 75.806 257.706 74.939 257.09 74.583zM252.068 71.683C251.452 71.327 250.951 71.616 250.951 72.328 250.951 73.04 251.452 73.907 252.068 74.263 252.685 74.619 253.185 74.33 253.185 73.618 253.185 72.906 252.685 72.039 252.068 71.683zM262.111 85.104C261.495 84.748 260.994 85.037 260.994 85.749 260.994 86.461 261.495 87.328 262.111 87.684 262.728 88.04 263.228 87.751 263.228 87.039 263.228 86.327 262.728 85.46 262.111 85.104zM257.09 82.205C256.473 81.849 255.973 82.138 255.973 82.85 255.973 83.562 256.473 84.429 257.09 84.785 257.706 85.141 258.207 84.852 258.207 84.14 258.207 83.428 257.706 82.561 257.09 82.205zM252.068 79.306C251.452 78.95 250.951 79.239 250.951 79.951 250.951 80.663 251.452 81.53 252.068 81.886 252.685 82.242 253.185 81.953 253.185 81.241 253.185 80.529 252.685 79.662 252.068 79.306zM262.111 92.726C261.495 92.37 260.994 92.659 260.994 93.371 260.994 94.083 261.495 94.95 262.111 95.306 262.728 95.662 263.228 95.373 263.228 94.661 263.228 93.949 262.728 93.082 262.111 92.726zM257.09 89.827C256.473 89.471 255.973 89.76 255.973 90.472 255.973 91.184 256.473 92.051 257.09 92.407 257.706 92.763 258.207 92.474 258.207 91.762 258.207 91.05 257.706 90.183 257.09 89.827zM252.068 86.928C251.452 86.572 250.951 86.861 250.951 87.573 250.951 88.285 251.452 89.152 252.068 89.508 252.685 89.864 253.185 89.575 253.185 88.863 253.185 88.151 252.685 87.284 252.068 86.928zM302.5 71.67C303.117 71.314 303.618 71.603 303.618 72.315 303.618 73.026 303.117 73.894 302.5 74.249 301.884 74.605 301.383 74.316 301.383 73.605 301.383 72.893 301.884 72.026 302.5 71.67z"/>
    <line x1="282.912" x2="297.023" y1="84.269" y2="76.122" stroke="#01050C" stroke-linecap="round" stroke-linejoin="round"/>
    <path fill="#01050C" d="M302.5,77.505 C303.117,77.149 303.618,77.438 303.618,78.15 C303.618,78.862 303.117,79.729 302.5,80.085 C301.884,80.441 301.383,80.152 301.383,79.44 C301.383,78.728 301.884,77.861 302.5,77.505 Z"/>
    <line x1="282.912" x2="297.023" y1="90.104" y2="81.958" stroke="#01050C" stroke-linecap="round" stroke-linejoin="round"/>
    <path fill="#01050C" d="M302.5,83.341 C303.117,82.985 303.618,83.274 303.618,83.986 C303.618,84.698 303.117,85.565 302.5,85.921 C301.884,86.277 301.383,85.988 301.383,85.276 C301.383,84.564 301.884,83.697 302.5,83.341 Z"/>
    <line x1="282.912" x2="297.023" y1="95.94" y2="87.793" stroke="#01050C" stroke-linecap="round" stroke-linejoin="round"/>
    <path fill="#01050C" d="M262.111 114.4817C261.495 114.1258 260.994 114.4148 260.994 115.1267 260.994 115.8387 261.495 116.7057 262.111 117.0617 262.728 117.4176 263.228 117.1286 263.228 116.4167 263.228 115.7047 262.728 114.8377 262.111 114.4817zM257.09 111.5826C256.473 111.2266 255.973 111.5156 255.973 112.2276 255.973 112.9395 256.473 113.8065 257.09 114.1625 257.706 114.5185 258.207 114.2295 258.207 113.5175 258.207 112.8056 257.706 111.9385 257.09 111.5826zM252.068 108.6834C251.452 108.3274 250.951 108.6164 250.951 109.3284 250.951 110.0403 251.452 110.9073 252.068 111.2633 252.685 111.6193 253.185 111.3303 253.185 110.6183 253.185 109.9064 252.685 109.0394 252.068 108.6834zM262.111 122.104C261.495 121.748 260.994 122.0371 260.994 122.749 260.994 123.461 261.495 124.328 262.111 124.6839 262.728 125.0399 263.228 124.7509 263.228 124.039 263.228 123.327 262.728 122.46 262.111 122.104zM257.09 119.2048C256.473 118.8489 255.973 119.1379 255.973 119.8498 255.973 120.5618 256.473 121.4288 257.09 121.7848 257.706 122.1407 258.207 121.8517 258.207 121.1398 258.207 120.4278 257.706 119.5608 257.09 119.2048zM252.068 116.3057C251.452 115.9497 250.951 116.2387 250.951 116.9507 250.951 117.6626 251.452 118.5296 252.068 118.8856 252.685 119.2416 253.185 118.9526 253.185 118.2406 253.185 117.5287 252.685 116.6616 252.068 116.3057zM262.111 129.7263C261.495 129.3703 260.994 129.6593 260.994 130.3713 260.994 131.0832 261.495 131.9503 262.111 132.3062 262.728 132.6622 263.228 132.3732 263.228 131.6612 263.228 130.9493 262.728 130.0823 262.111 129.7263zM257.09 126.8271C256.473 126.4711 255.973 126.7602 255.973 127.4721 255.973 128.1841 256.473 129.0511 257.09 129.4071 257.706 129.763 258.207 129.474 258.207 128.7621 258.207 128.0501 257.706 127.1831 257.09 126.8271zM252.068 123.9279C251.452 123.572 250.951 123.861 250.951 124.5729 250.951 125.2849 251.452 126.1519 252.068 126.5079 252.685 126.8639 253.185 126.5748 253.185 125.8629 253.185 125.1509 252.685 124.2839 252.068 123.9279zM302.5 108.6696C303.117 108.3136 303.618 108.6026 303.618 109.3145 303.618 110.0265 303.117 110.8935 302.5 111.2495 301.884 111.6055 301.383 111.3165 301.383 110.6045 301.383 109.8926 301.884 109.0255 302.5 108.6696z"/>
    <line x1="282.912" x2="297.023" y1="121.269" y2="113.122" stroke="#01050C" stroke-linecap="round" stroke-linejoin="round"/>
    <path fill="#01050C" d="M302.5,114.5051 C303.117,114.1491 303.618,114.4382 303.618,115.1501 C303.618,115.8621 303.117,116.7291 302.5,117.085 C301.884,117.441 301.383,117.152 301.383,116.4401 C301.383,115.7281 301.884,114.8611 302.5,114.5051 Z"/>
    <line x1="282.912" x2="297.023" y1="127.104" y2="118.958" stroke="#01050C" stroke-linecap="round" stroke-linejoin="round"/>
    <path fill="#01050C" d="M302.5,120.3407 C303.117,119.9847 303.618,120.2737 303.618,120.9857 C303.618,121.6976 303.117,122.5646 302.5,122.9206 C301.884,123.2766 301.383,122.9876 301.383,122.2756 C301.383,121.5637 301.884,120.6967 302.5,120.3407 Z"/>
    <line x1="282.912" x2="297.023" y1="132.94" y2="124.793" stroke="#01050C" stroke-linecap="round" stroke-linejoin="round"/>
    <path stroke="#E01A33" stroke-linecap="round" stroke-linejoin="round" stroke-width="1.5" d="M157.254,164.7695 C157.254,164.7695 157.643,164.9942 158.112,165.2644 C159.097,165.8334 159.704,166.8849 159.704,168.0229 C159.704,170.4437 159.704,174.6952 159.704,177.2881 C159.704,178.6604 160.42,179.9333 161.593,180.6461 C168.479,184.8317 192.256,199.2833 200.268,204.1527 C201.908,205.1494 203.96,205.1725 205.622,204.2131 C214.306,199.1992 241.492,183.5036 250.097,178.5357 C251.73,177.5928 252.736,175.8503 252.736,173.9645 C252.736,171.0392 252.736,166.7499 252.736,164.5487 C252.736,163.671 253.204,162.86 253.964,162.4211 C254.63,162.0365 255.319,161.6389 255.319,161.6389"/>
    <line x1="262.214" x2="267.134" y1="18.571" y2="36.257" stroke="#B1BBC9" stroke-linecap="round" stroke-linejoin="round"/>
    <line x1="288.014" x2="284.978" y1="22.37" y2="33.281" stroke="#B1BBC9" stroke-linecap="round" stroke-linejoin="round"/>
    <polygon fill="#E01A33" points="275.959 20.229 287.075 6.786 280.502 1 271.61 1 265.037 6.786"/>
    <g transform="translate(265 .519)">
      <mask id="lateral-movement@1x-p" fill="#fff">
        <use xlink:href="#lateral-movement@1x-o"/>
      </mask>
      <polyline stroke="#FFF" stroke-linecap="round" stroke-linejoin="round" points="3.636 3.161 6.974 5.088 15.007 5.088 18.408 3.125" mask="url(#lateral-movement@1x-p)"/>
      <polyline stroke="#FFF" stroke-linecap="round" stroke-linejoin="round" points=".098 6.372 6.034 10.222 15.916 10.222 21.947 6.318" mask="url(#lateral-movement@1x-p)"/>
      <polyline stroke="#FFF" stroke-linecap="round" stroke-linejoin="round" points="6.958 5.079 6.075 10.246 10.959 19.71" mask="url(#lateral-movement@1x-p)"/>
      <polyline stroke="#FFF" stroke-linecap="round" stroke-linejoin="round" points="15.023 5.079 15.891 10.237 10.959 19.71" mask="url(#lateral-movement@1x-p)"/>
    </g>
    <line x1="276.056" x2="276.056" y1="26.281" y2="33.281" stroke="#B1BBC9" stroke-linecap="round" stroke-linejoin="round"/>
  </g>
</svg>
