<svg fill="none" xmlns="http://www.w3.org/2000/svg" viewBox="0 0 1398 639"><path d="M330.165 637.853c-5.394-2.022-6.903-4.002-5.621-7.377.593-1.564 1.733-2.844 2.533-2.844.8 0 4.302 1.844 7.782 4.097 3.48 2.253 7.736 4.608 9.457 5.234l3.128 1.138-3.849.084c-2.117.046-5.223.283-6.902.527-1.679.244-4.617-.142-6.528-.859Zm-12.243-10.379c-1.015-.57-2.709-.761-3.763-.426-1.327.422-2.352-.207-3.334-2.045-.78-1.46-2.178-2.916-3.106-3.236-2.131-.734-6.597-7.981-9.082-14.739-1.256-3.413-2.944-5.772-4.948-6.914-3.557-2.026-3.812-2.945-1.059-3.821 3.149-1.001 3.735-6.562 1.084-10.291-1.265-1.78-1.931-3.87-1.549-4.865.45-1.174-.792-3.235-3.798-6.303-3.795-3.873-4.496-5.281-4.666-9.361-.11-2.642-.752-5.47-1.427-6.285-.85-1.026-1.024-4.709-.565-11.991.498-7.892.208-12.763-1.163-19.552-2.036-10.082-3.076-28.867-2.547-46.005.113-3.656-.36-8.676-1.051-11.156-1.683-6.037-9.426-13.657-18.997-18.694-6.844-3.603-7.807-4.527-10.483-10.061-1.62-3.352-4.717-8.361-6.882-11.131-2.164-2.771-4.518-6.839-5.23-9.041-2.259-6.99-6.242-14.013-8.957-15.795-1.444-.949-3.092-3.414-3.662-5.48-.921-3.342-.678-4.275 2.206-8.473 3.126-4.552 3.163-4.738 1.05-5.292-5.192-1.36-3.008-8.311 6.311-20.091 6.194-7.83 8.009-13.794 6.293-20.685-.654-2.626-1.239-5.373-1.301-6.104-.062-.731-.527-1.33-1.035-1.33-.507 0-.409-.959.217-2.132.966-1.807.722-2.322-1.598-3.381-3.381-1.543-8.486-.018-8.506 2.542-.023 3.069-1.371 3.295-5.814.975-2.379-1.242-4.85-2.259-5.492-2.259-.641 0-3.135-1.699-5.542-3.776s-4.974-4.25-5.704-4.828c-.73-.579-1.327-2.156-1.327-3.505 0-1.349-.938-3.303-2.084-4.342-1.146-1.039-2.631-3.55-3.3-5.581-.88-2.669-1.538-3.37-2.376-2.53-1.75 1.752-4.34 1.419-10.627-1.366-3.286-1.456-6.71-3.942-8.078-5.866-1.306-1.837-3.8-4.078-5.543-4.981-2.877-1.49-3.596-1.479-7.786.124l-4.617 1.766-14.165-6.875c-8.713-4.229-15.475-8.264-17.569-10.482-3.248-3.44-3.353-3.814-2.272-8.078.99-3.907.822-5.115-1.331-9.571-1.356-2.804-4.317-7.112-6.581-9.572-2.264-2.461-3.859-4.891-3.545-5.4.315-.51-1.28-3.943-3.544-7.63-2.571-4.188-4.386-8.675-4.837-11.958-.578-4.209-1.251-5.497-3.383-6.469-2.26-1.032-2.891-.9-4.185.87-1.822 2.494-1.304 5.126 2.725 13.848 1.637 3.544 3.329 8.798 3.76 11.676.431 2.877 1.703 7.038 2.828 9.245 2.663 5.229.943 5.137-3.256-.175-2.477-3.132-3.146-4.85-2.654-6.815.526-2.097.008-3.108-2.566-5.014-3.905-2.892-4.731-4.757-3.297-7.442.837-1.565.453-3.282-1.67-7.48-2.158-4.264-2.609-6.329-2.075-9.496.873-5.176-1.445-9.86-5.767-11.654-2.495-1.035-3.355-2.193-3.864-5.202-.36-2.129-1.048-5.422-1.53-7.319-.502-1.973-.466-3.704.085-4.044.529-.328.182-1.787-.77-3.243-1.403-2.145-1.499-3.16-.506-5.343.675-1.483.93-3.177.566-3.766-.363-.589.542-2.348 2.012-3.909s3.426-4.675 4.347-6.92c.922-2.244 3.762-6.405 6.312-9.246 2.55-2.841 5.783-7.817 7.184-11.058 1.945-4.5 3.085-5.898 4.819-5.912 1.249-.009 2.205.58 2.124 1.312-.338 3.047 2.067 2.108 4.769-1.862 1.593-2.34 2.452-4.414 1.91-4.609-.543-.195-.986-1.076-.986-1.957s-2.199-3.742-4.886-6.357c-4.456-4.339-4.742-4.914-3.26-6.554 1.2-1.329 1.341-2.304.541-3.737-1.407-2.519.813-8.159 3.22-8.181.995-.01 1.278-.349.668-.798-1.37-1.008-1.99-3.297-1.798-6.632.307-5.326-.856-7.554-4.809-9.208-2.133-.893-5.386-2.776-7.23-4.185-1.845-1.41-4.185-2.562-5.2-2.562-1.016 0-5.633-.968-10.26-2.152-7.439-1.902-8.75-1.977-11.327-.649-5.34 2.753-10.998 3.875-13.305 2.639-1.73-.928-3.618-.355-10.202 3.095-4.443 2.328-9.75 4.594-11.795 5.036-2.044.441-5.956 1.933-8.694 3.314-7.764 3.919-18.886 7.87-21.962 7.801-1.986-.044-.643-.916 4.64-3.015 8.977-3.566 18.202-8.21 19.056-9.593 1.05-1.704-1.23-2.315-3.971-1.064-2.018.92-3.261.835-5.59-.387l-2.994-1.572 3.257-1.687c3.683-1.908 4.84-4.066 3.995-7.442-.82-3.27 3.698-5.673 13.43-7.143 5.23-.79 9.205-2.105 11.881-3.93 4.72-3.218 3.91-5.65-1.18-3.54-2.408 1-4.163 1.011-7.73.049-4.336-1.17-4.49-1.336-2.551-2.757 3.245-2.376 9.956-3.806 14.365-3.06 2.79.472 5.075.142 7.42-1.073l3.39-1.756-2.231-2.379c-1.227-1.308-2.231-2.66-2.231-3.004 0-.987 6.392-2.96 9.589-2.96 1.595 0 5.97-1.157 9.72-2.571 3.75-1.414 12.402-3.345 19.227-4.29 11.069-1.534 13.413-1.552 21.714-.174 5.117.85 12.172 1.864 15.676 2.253 3.504.39 9.707 1.624 13.783 2.745 9.468 2.602 15.635 2.57 26.212-.135 4.671-1.195 9.391-1.886 10.49-1.537 1.099.35 2.968.116 4.153-.52 1.633-.875 2.899-.769 5.228.438 2.105 1.09 4.702 1.4 8.239.986 3.732-.437 6.999.016 11.769 1.632 3.632 1.23 7.666 2.236 8.964 2.236 2.3 0 2.307.04.299 1.52-1.969 1.452-1.975 1.553-.126 2.27 1.065.414 4.76.456 8.212.095 6.234-.653 6.288-.635 8.027 2.733l1.75 3.39 2.272-2.854c1.305-1.64 4.407-3.498 7.293-4.368 4.362-1.315 5.686-1.31 10.067.033 3.092.949 6.793 1.295 9.565.894 3.53-.511 5.169-.193 7.472 1.45 2.907 2.073 2.987 2.074 5.566.072 1.439-1.117 4.4-2.529 6.581-3.137 5.219-1.457 6.99-4.56 3.855-6.76-2.217-1.555-2.12-1.674 3.707-4.536 4.346-2.135 6.302-2.62 7.149-1.772.847.849.839 1.782-.031 3.41-1.483 2.775.363 6.97 2.675 6.08.831-.319 2.21-.312 3.064.017 1.342.515 1.321.952-.157 3.212-4.083 6.242 5.07 4.473 11.267-2.177 2.519-2.704 6.423-3.524 10.082-2.117 2.362.908 2.141 1.652-1.772 5.95-4.663 5.12-7.049 6.168-14.053 6.168-3.385 0-7.381.735-9.243 1.7-2.578 1.335-3.835 1.446-5.867.518-3.791-1.73-5.11-.29-2.391 2.609l2.32 2.474-4.63 1.316c-2.546.724-6.78 1.387-9.408 1.472-3.812.124-4.78.539-4.786 2.048-.006 1.291-1.86 2.65-5.841 4.28-12.9 5.283-23.843 14.806-19.881 17.303.743.468 1.921 2.154 2.619 3.746.804 1.834 2.353 3.114 4.225 3.489 1.626.326 5.824 2.007 9.328 3.736 3.504 1.728 7.805 3.456 9.557 3.838 4.824 1.053 4.866 1.164 2.619 6.873-1.922 4.885-1.96 5.582-.471 8.467.893 1.729 2.208 3.127 2.923 3.106 3.48-.1 6.742-3.317 8.77-8.645 1.932-5.079 2.812-6.026 8.358-8.993 8.185-4.379 11.588-8.692 10.681-13.535-.59-3.154-.284-3.894 2.412-5.817 1.699-1.212 3.948-4.112 4.998-6.444 2.347-5.214 6.119-7.022 12.479-5.98 5.64.924 12.311 4.51 13.116 7.054.331 1.043.056 2.918-.61 4.165-1.01 1.89-.819 2.687 1.142 4.778l2.353 2.51 3.844-1.996c2.113-1.098 5.501-3.239 7.528-4.758l3.686-2.763.866 2.345c.476 1.29.611 3.009.3 3.82-.311.813-.069 2.406.538 3.541.682 1.278.735 2.722.139 3.79-.672 1.203-.223 3.031 1.486 6.045 2.448 4.318 2.449 4.321.299 5.83-2.83 1.985-1.014 4.09 2.091 2.425 3.084-1.653 6.614-1.438 8.792.536 3.218 2.917.542 6.408-8.001 10.434-9.292 4.379-13.434 5.246-25.562 5.354-8.956.079-10.142.365-18.849 4.546-5.11 2.454-9.291 4.883-9.291 5.398 0 2.194 1.61 2.003 7.788-.924 3.64-1.725 8.332-3.103 10.567-3.104 3.817-.001 3.956.118 2.764 2.349-.69 1.292-2.179 3.099-3.309 4.015-1.776 1.441-1.88 2.049-.768 4.493 1.667 3.665 6.021 5.429 11.229 4.549l4.117-.696-3.165 2.187c-1.741 1.203-4.608 2.5-6.372 2.881-1.763.382-5.388 1.795-8.054 3.14-2.707 1.366-5.426 2.089-6.156 1.637-1.681-1.041.093-2.602 5.553-4.887 4.856-2.032 4.08-4.191-1.153-3.208-2.039.383-8.649 2.877-14.689 5.542-9.428 4.16-11.073 5.259-11.622 7.762-.675 3.077-2.977 4.532-11.069 6.999-2.582.786-5.927 2.688-7.434 4.225-1.506 1.537-4.391 3.838-6.411 5.114-2.019 1.276-3.953 3.511-4.296 4.967-.567 2.399-.698 2.456-1.407.608-1.329-3.464-3.331-.078-3.447 5.828-.118 6.051-3.18 10.179-9.895 13.339-6.886 3.241-16.683 10.898-18.668 14.59-1.753 3.26-1.826 4.53-.746 12.909 1.007 7.816.947 9.778-.379 12.346-.99 1.917-2.145 2.834-3.106 2.464-2.278-.875-5.065-10.267-4.284-14.438.542-2.897.183-3.994-1.972-6.022-1.737-1.635-3.34-2.256-4.703-1.823-1.138.362-4.354-.324-7.151-1.525-4.285-1.84-5.653-1.995-8.713-.983-2.074.686-4.135 2.312-4.81 3.796-1.004 2.207-1.669 2.491-4.442 1.893-1.794-.386-4.552-1.363-6.129-2.17-3.884-1.988-6.059-1.849-10.423.664-2.035 1.172-6.187 3.415-9.228 4.985-3.494 1.804-5.895 3.857-6.524 5.581-.548 1.499-2.506 7.345-4.351 12.99l-3.356 10.263 1.714 6.625c3.149 12.172 7.53 15.816 16.658 13.855 6.882-1.478 11.014-4.473 12.533-9.084.965-2.928 2.006-3.896 5.121-4.763 4.688-1.304 6.646-1.352 8.447-.208 1.486.945.963 2.499-5.69 16.928-4.565 9.901-4.236 10.787 3.585 9.656 7.126-1.029 13.639-.239 14.4 1.747.296.774-.186 5.999-1.072 11.61-1.586 10.039-1.574 10.263.708 13.963 1.276 2.067 3.668 4.458 5.316 5.311 2.63 1.363 3.456 1.36 6.766-.026 5.259-2.201 8.115-1.968 11.768.96 2.921 2.341 3.334 2.407 5.629.9 1.363-.894 3.221-3.11 4.131-4.925 2.05-4.091 5.505-6.967 8.406-6.998 1.213-.013 3.327-1.22 4.699-2.683 2.785-2.97 7.69-3.938 5.293-1.044-2.012 2.428-3.162 10.239-1.866 12.666 1.08 2.021 1.167 2.009 3.132-.421 1.399-1.731 1.681-2.841.916-3.606-1.824-1.827-1.275-3.346 2.119-5.859 3.524-2.61 6.25-2.342 9.29.913 2.23 2.386 14.133 5.611 17.545 4.754 5.195-1.306 19.232 7.243 24.506 14.926 2.512 3.658 10.535 7.339 14.063 6.452 7.257-1.824 17.206 5.459 19.533 14.299.693 2.632 1.737 5.084 2.321 5.449 1.549.967-.771 4.787-5.844 9.621-3.242 3.088-4.016 4.418-3.104 5.332.912.913 2.411.112 6.01-3.211 5.235-4.833 6.981-5.324 9.604-2.697 1.595 1.598 1.546 1.924-.64 4.255-1.303 1.388-3.121 2.555-4.041 2.592-.97.039-.578.505.932 1.109 2.075.83 3.157.597 5.31-1.146 5.606-4.537 6.925-4.755 11.905-1.968 3.238 1.812 4.534 3.191 4.371 4.65-.454 4.056.501 4.954 3.309 3.112 2.231-1.465 3.762-1.534 11.227-.51 7.942 1.089 8.982 1.523 12.792 5.339 2.828 2.834 6.01 4.697 10.007 5.861 5.366 1.563 5.949 2.039 6.922 5.66 1.411 5.249-.242 11.074-4.714 16.607-1.91 2.364-4.251 5.834-5.202 7.712-.952 1.877-2.975 4.66-4.497 6.184-2.575 2.58-2.718 3.225-2.076 9.351 1.254 11.967-4.59 34.294-10.227 39.069-1.835 1.554-3.405 1.919-6.315 1.468-2.392-.371-4.163-.132-4.63.626-.417.675-2.735 2.098-5.153 3.163-2.418 1.065-6.018 3.323-8 5.019-3.43 2.934-3.545 3.259-2.39 6.763 1.331 4.039.434 8.822-2.418 12.901-.922 1.319-1.676 3.562-1.676 4.986 0 1.423-1.108 4.069-2.463 5.879-1.354 1.811-3.966 5.955-5.804 9.209-4.524 8.007-7.243 9.394-13.802 7.04-5.692-2.044-8.727-2.288-8.727-.702 0 .597 1.135 1.604 2.522 2.237 1.386.633 3.547 3.21 4.802 5.726 1.868 3.746 2.066 5.048 1.092 7.188-1.508 3.316-7.276 6.1-12.637 6.1-4.748 0-5.926 1.163-4.286 4.233 1.013 1.895.332 4.943-1.626 7.28-.159.19-1.821-.449-3.695-1.42-4.472-2.317-6.055-.841-3.795 3.537.919 1.781 2.667 3.555 3.885 3.942 2.091.665 2.114.813.413 2.695-.99 1.096-1.504 2.761-1.143 3.703.388 1.013-.477 3.199-2.119 5.355-2.669 3.505-2.707 3.748-.996 6.363.978 1.496 2.504 2.998 3.391 3.339 3.198 1.229 3.728 5.429 1.29 10.217-2.443 4.797-2.818 9.606-.927 11.888 1.719 2.075-4.066 6.117-6.667 4.659Zm-78.26-460.696c2.837-5.939 8.117-10.362 12.368-10.362 3.061 0 3.097.497.295 4.065l-2.204 2.806 2.261 1.834c1.822 1.477 2.761 1.605 4.838.657 1.417-.646 2.87-2.101 3.228-3.232.488-1.538 1.281-1.898 3.15-1.428 1.731.435 2.815.063 3.527-1.212 2.157-3.862-3.334-8.801-7.376-6.634-2.892 1.55-6.671-1.534-5.864-4.788.299-1.205-.316-3.304-1.381-4.712-2.195-2.902-5.534-3.207-12.842-1.175-2.629.731-5.626 1.296-6.66 1.256-1.035-.04-1.604.377-1.265.926.339.55.23 1.01-.243 1.023-.472.013-2.048.939-3.501 2.058l-2.642 2.033 2.967 1.13c2.32.884 3.687.758 6.264-.577 3.028-1.569 3.589-1.568 6.894.011 1.991.951 4.709 1.439 6.085 1.093 1.368-.344 2.781-.15 3.139.43.366.594-1.13 1.357-3.416 1.744-6.215 1.052-9.444 3.644-13.951 11.201-3.765 6.312-3.981 7.073-2.481 8.742 1.473 1.637 1.88 1.663 3.9.248 1.24-.869 3.449-4.081 4.91-7.137Zm19.292 6.565c3.781-1.931 4.144-2.417 2.812-3.751-1.332-1.334-2.174-1.247-6.508.673-5.088 2.255-6.703 5.297-2.811 5.297 1.191 0 4.12-.998 6.507-2.219Zm18.829-8.037c2.212-1.552 2.294-1.857.734-2.731-2.296-1.287-9.122.931-9.122 2.964 0 2.096 5.278 1.949 8.388-.233Zm79.75 459.348c0-.468.573-1.426 1.274-2.128.701-.702.873-1.276.382-1.276-.49 0-1.464.785-2.165 1.744-1.005 1.378-1.7 1.496-3.302.564-1.146-.666-1.424-1.194-.64-1.212.765-.018 1.095-.511.734-1.096-.693-1.124 1.129-1.43 6.371-1.071 4.679.32 5.15 1.004 2.258 3.283-2.694 2.123-4.912 2.661-4.912 1.192Zm886.827-26.696c-3.04-1.928 3.29-6.186 18.97-12.768 4.38-1.839 11.06-5.683 14.84-8.544 6.42-4.864 6.95-5.075 8.23-3.254 1.93 2.763.79 4.764-3.93 6.896-2.26 1.019-5.09 2.993-6.3 4.388s-3.16 2.536-4.33 2.536-3.92 1.612-6.11 3.582c-7.51 6.744-17.01 9.931-21.37 7.164Zm-74.32-13.818c-1.1-.701-1.16-1.422-.26-3.105.64-1.206 1.17-3.693 1.17-5.526 0-2.996.24-3.247 2.39-2.491 1.31.464 4.06.905 6.1.982 2.05.076 4.09.208 4.54.293 1.76.331-2.94 5.695-7.17 8.176-5.03 2.955-4.83 2.903-6.77 1.671Zm122.71-9.302c-.37-.37.5-1.601 1.94-2.734 2.17-1.708 2.42-2.429 1.48-4.202-1.37-2.566.66-5.32 5.38-7.276 3.65-1.516 4.57-4.592 3.59-12.016-.67-5.107-.59-5.426 1.05-4.065 1.29 1.069 1.61 2.415 1.15 4.871-.5 2.691-.05 4.09 2.19 6.758 2.42 2.882 3.14 3.195 5.02 2.185 1.88-1.006 2.1-.914 1.51.628-.38.994-.69 1.994-.69 2.224 0 .23-1.56 1.214-3.45 2.187-1.9.974-5.61 3.549-8.23 5.723-4.28 3.534-8.68 6.39-9.84 6.39-.24 0-.73-.303-1.1-.673ZM1180.46 561.1c-2.24-2.384-2.65-2.476-4.8-1.066-2.74 1.797-7.88.747-12-2.45-2.2-1.706-2.36-2.256-1.22-4.379.96-1.812 1-3.082.12-5.003-.64-1.416-1.17-3.509-1.17-4.652 0-2.577-1.67-2.7-3.05-.224-.57 1.018-1.34 1.547-1.71 1.175-.37-.373.86-2.428 2.73-4.567 4.61-5.264 2.81-6.693-3.28-2.604-2.63 1.762-4.95 3.687-5.15 4.277-.21.591-1.47-1.232-2.81-4.051-1.45-3.056-3.95-6.128-6.19-7.61-3.38-2.226-4.52-2.41-11-1.764-9.51.948-18.68 3.296-24.68 6.319-2.73 1.374-8.05 2.78-12.16 3.212-4.02.422-10.41 1.937-14.2 3.367-5.8 2.187-7.45 2.416-10.39 1.445-3.94-1.303-5.58-3.989-3.03-4.969.93-.355 2.6-2.796 3.73-5.424 1.8-4.208 1.9-5.518.83-10.954-.88-4.498-.91-8.757-.09-15.681.62-5.229.85-10.536.52-11.794-.32-1.258.19-4.338 1.14-6.845 1.69-4.419 2.1-4.708 13.49-9.541 6.46-2.741 13.07-4.984 14.7-4.984 4.39 0 9.82-4.183 12.82-9.868 1.85-3.513 3.13-4.849 4.24-4.419 3.11 1.2 3.72.965 3.48-1.339-.15-1.481.48-2.559 1.75-2.961 1.09-.347 3.11-2.284 4.48-4.304 1.41-2.068 4.31-4.397 6.63-5.332 3.88-1.559 4.27-1.536 6.37.384 3.89 3.543 6.65 4.577 7.97 2.988.64-.773.86-1.71.49-2.082-1.22-1.217 4.34-8.208 7.06-8.879 1.46-.361 4.46-1.561 6.66-2.667 3.44-1.724 4.65-1.838 8.5-.803 8.3 2.233 8.58 2.598 5.49 7.272-3.97 6.011-2.92 8.361 6.82 15.229 4.5 3.171 8.74 5.576 9.44 5.345.69-.231 2.87-2.658 4.86-5.395 2.7-3.729 3.74-6.44 4.18-10.825.61-6.229 3.59-14.892 5.11-14.892.5 0 1.66 2.562 2.57 5.693.91 3.131 2.81 6.785 4.23 8.12 3.32 3.12 5.24 11.843 3.75 16.998-.98 3.415-.79 3.963 2.59 7.446 2 2.067 5.18 7.11 7.05 11.205s5.25 9.889 7.5 12.876l4.1 5.431-1.16 8.39c-.85 6.087-2.16 10.144-4.77 14.78-4 7.1-9.99 13.875-13.14 14.878-1.13.361-3.76 3.026-5.84 5.923-2.08 2.896-4.24 5.266-4.82 5.266-.57 0-3 2.486-5.39 5.524-4 5.068-4.74 5.531-8.91 5.61-3.19.06-5.64.929-8.27 2.935l-3.73 2.849-2.44-2.609Zm-517.805-22.365c-2.249-2.252-2.625-3.404-2.122-6.507.473-2.919.022-4.637-1.998-7.614-1.434-2.115-2.608-4.366-2.608-5.002 0-.636-1.878-3.677-4.173-6.759-3.547-4.762-4.276-6.665-4.861-12.69-1.032-10.632-4.421-22.139-8.976-30.48-2.24-4.101-4.391-9.424-4.781-11.831-.829-5.121 1.246-12.743 5.986-21.977l3.153-6.143-1.772-5.343c-.991-2.989-1.475-6.526-1.099-8.028.441-1.758-.032-3.852-1.371-6.065-1.124-1.859-2.793-6.013-3.709-9.231-1.224-4.298-2.929-7.092-6.428-10.531-6.73-6.614-7.605-9.218-5.516-16.415 4.252-14.651-.342-23.196-11.564-21.51-4.369.656-4.536.574-5.154-2.518-.473-2.372-1.757-3.768-4.98-5.415-4.188-2.14-5.981-2.148-11.124-.05-1.168.476-5.947 2.128-10.619 3.67-7.026 2.319-9.135 2.618-12.193 1.729-2.897-.841-5.338-.624-11.266 1.006-6.126 1.683-8.347 1.864-11.657.948-6.907-1.91-18.773-12.623-20.461-18.473-1.306-4.527-9.43-15.076-12.194-15.836-1.757-.483-1.973-.857-.897-1.553 1.082-.699.893-1.053-.797-1.496-2.683-.703-2.95-2.9-.355-2.922 1.588-.014 1.627-.166.265-1.048-1.003-.649-1.114-1.037-.301-1.047.843-.011.522-1.322-.925-3.779-2.037-3.458-2.079-3.915-.523-5.638 4.751-5.258 5.792-16.58 2.18-23.713-1.724-3.406-.615-8.11 3.064-13 1.386-1.842 4.09-6.322 6.01-9.957 3.36-6.358 10.847-15.197 12.874-15.197 2.243 0 9.479-7.792 9.479-10.207 0-5.453 3.254-10.889 8.56-14.3 2.851-1.833 6.192-4.966 7.424-6.963 2.521-4.086 2.878-4.219 5.814-2.17 1.152.805 4.014 1.785 6.361 2.18 3.579.601 5.29.168 10.619-2.687 9.169-4.912 14.835-6.138 25.327-5.483 6.919.433 10.034.156 13.388-1.188 4.939-1.98 9.21-.808 8.054 2.21-.348.906-.136 2.248.471 2.98.763.921.757 2.241-.019 4.288-.976 2.571-.76 3.336 1.658 5.865 1.53 1.599 4.268 3.205 6.086 3.569 8.534 1.71 10.961 2.817 12.723 5.805 1.291 2.19 2.984 3.313 5.782 3.839 2.176.409 5.336 1.458 7.022 2.332 2.863 1.483 3.233 1.429 5.621-.818 1.605-1.511 2.333-3.11 1.957-4.298-.33-1.041-.079-2.868.558-4.06 1.643-3.075 6.308-2.774 13.591.879 7.935 3.979 22.983 6.818 28.318 5.343 2.566-.71 5.033-.719 7.279-.028 7.338 2.259 11.095.491 12.097-5.692.333-2.053.901-3.734 1.262-3.734.687 0 1.046-3.087 1.145-9.839.032-2.194.55-3.989 1.151-3.989.715 0 .68-.77-.102-2.234-1.306-2.444-3.955-2.388-10.293.217-3.006 1.236-3.842 1.183-6.535-.41-3.492-2.066-7.075-2.376-8.108-.701-.769 1.245-6.198.372-9.143-1.47-2.116-1.324-4.093-5.263-4.093-8.156 0-1.109-1.075-2.775-2.389-3.702-2.034-1.436-2.152-1.842-.797-2.731.877-.574 2.679-.788 4.005-.476 1.692.399 3.247-.268 5.211-2.236 1.849-1.851 4.096-2.873 6.615-3.007 2.098-.111 5.137-1.076 6.753-2.143 3.51-2.316 11.476-1.672 17.657 1.427 8.335 4.179 15.738 3.933 18.717-.622 1.55-2.369 1.559-2.867.088-5.116-.896-1.37-5.202-4.527-9.567-7.015l-7.938-4.523 1.487-2.881c.818-1.584 1.22-3.149.893-3.477-.328-.327-.202-1.226.278-1.996.48-.77.966-2.018 1.08-2.774.244-1.611-1.468-1.166-9.913 2.575-4.903 2.171-5.631 2.837-4.544 4.149.713.86 2.312 1.585 3.555 1.611 1.743.036 1.33.538-1.806 2.195-3.807 2.012-4.232 2.038-6.708.414-2.117-1.39-2.394-2.036-1.39-3.247.995-1.202.847-1.664-.726-2.256-1.088-.41-2.49-1.429-3.117-2.265-3.041-4.061-12.691 6.622-15.498 17.157-1.317 4.945-1.273 5.202 1.207 7.076l2.573 1.945-4.721.975c-2.597.536-6.097.599-7.777.139-3.102-.849-7.033.431-7.033 2.289 0 .546-.722.715-1.606.375-.884-.34-2.286-.052-3.117.638-1.289 1.072-1.143 1.949.993 5.972 2.313 4.358 2.385 4.955.942 7.852-1.808 3.63-3.49 3.36-6.044-.971-1.78-3.019-1.768-3.089.587-3.423 2.974-.423 3.165-2.319.281-2.781-6.579-1.054-10.088-4.526-10.088-9.984 0-4.259-3.941-8.954-8.721-10.389-2.484-.745-5.184-2.311-6.001-3.478-.816-1.168-3.206-2.844-5.31-3.724-2.104-.881-4.459-2.507-5.234-3.615-1.111-1.589-1.841-1.78-3.468-.908-1.134.608-2.061 1.79-2.061 2.626 0 2.762 13.535 15.256 20.151 18.602 7.015 3.547 8.11 4.813 3.237 3.741-4.345-.956-5.529.001-4.043 3.269 1.044 2.295.873 2.993-1.227 5.014l-2.44 2.348.556-3.168c.881-5.03-5.74-12.255-11.23-12.255-2.012 0-9.745-7.513-11.77-11.437-2.165-4.193-4.573-5.002-7.985-2.685-5.139 3.491-8.993 4.671-13.024 3.989-5.356-.907-8.725.964-7.872 4.37.446 1.778.198 2.572-.803 2.572-.797 0-2.837 1.196-4.534 2.658-1.697 1.461-3.45 2.658-3.897 2.659-1.314.002-5.02 6.722-5.024 9.109-.005 2.284-4.157 6.783-8.164 8.845-1.276.657-4.246 1.194-6.6 1.194-3.239 0-4.566.534-5.454 2.197-1.163 2.178-1.199 2.173-3.92-.553-2.553-2.558-4.023-3.198-9.176-3.996-2.707-.42-3.164-6.558-1.14-15.304.866-3.738 1.291-7.928.945-9.309-1.007-4.016 2.143-6.385 7.413-5.574 12.167 1.872 19.285 1.976 20.953.305 2.292-2.296 3.326-9.869 1.927-14.115-.912-2.77-2.167-3.902-5.911-5.334-5.507-2.107-5.624-4.145-.24-4.199 2.052-.02 5.011-.878 6.576-1.905 1.566-1.028 3.297-1.59 3.847-1.249 1.501.929 7.186-2.353 9.074-5.239.912-1.394 2.708-2.804 3.992-3.131 1.283-.328 4.722-2.826 7.643-5.55 4.14-3.863 6.312-5.074 9.862-5.499 4.398-.526 8.82-4.149 6.744-5.525-1.29-.855-2.368-6.005-1.65-7.882.341-.888 1.844-2.42 3.341-3.402l2.722-1.786-.699 4.376c-.607 3.799-.452 4.336 1.171 4.064 1.029-.172 2.953-.908 4.275-1.636 2.015-1.109 2.508-1.055 3.039.331.91 2.376-1.62 5.169-3.366 3.717-.965-.802-1.577-.773-2.116.1-.556.901-.991.852-1.629-.183-.48-.777-1.116-1.168-1.414-.87-.298.299.551 1.915 1.887 3.593 2.251 2.828 2.68 2.962 5.889 1.842 2.748-.96 4.067-.894 6.407.318 2.641 1.368 3.532 1.303 8.609-.629 4.447-1.693 6.2-1.91 8.169-1.012 1.811.827 3.152.81 4.834-.061 4.777-2.472 6.1-4.337 5.507-7.758-.879-5.072.731-6.734 4.971-5.131 2.885 1.091 3.728 1.048 5.032-.258 1.38-1.383 1.262-1.894-1.001-4.306-2.177-2.322-2.329-2.898-1.002-3.795.861-.582 4.086-.79 7.168-.464 5.64.599 12.669-1.608 11.444-3.593-1.072-1.738-7.546-2.24-13.03-1.011-4.864 1.09-6.141 1.002-9.869-.682-5.79-2.615-6.472-5.675-2.501-11.22 5.112-7.136 6.047-9.41 4.591-11.167-2.156-2.603-4.275-1.754-9.2 3.685-2.603 2.874-6.15 5.813-7.882 6.532-1.732.718-3.874 2.711-4.761 4.428-1.444 2.797-1.441 3.383.022 5.62.898 1.374 2.602 2.806 3.786 3.182 3.257 1.036 2.613 2.98-2.047 6.173-1.433.982-3.344 3.76-4.247 6.175-1.132 3.025-2.853 5.089-5.536 6.641-3.784 2.188-3.955 2.196-6.046.301-1.183-1.073-2.439-3.261-2.79-4.862-.351-1.602-1.946-4.481-3.544-6.399l-2.906-3.486-3.684 2.25c-2.026 1.237-4.64 2.24-5.808 2.23-3.369-.031-7.271-3.678-7.532-7.04-.129-1.67-.563-3.857-.963-4.859-.951-2.382 3.804-6.85 8.745-8.217 4.96-1.372 15.019-8.434 16.733-11.747.763-1.474 3.346-4.44 5.741-6.59 2.395-2.152 4.355-4.386 4.355-4.965 0-.58 2.27-1.864 5.044-2.854 2.774-.99 7.433-2.787 10.353-3.993 3.586-1.48 8.069-2.263 13.805-2.41 10.023-.257 16.578 1.074 21.987 4.464 2.713 1.7 4.855 2.281 6.905 1.87 3.666-.734 23.21 5.334 24.024 7.46.819 2.136-4.787 4.153-9.609 3.457-2.209-.319-6.777-1.17-10.152-1.894-4.543-.973-6.445-1.004-7.329-.118-.884.886-.443 1.54 1.702 2.518 1.592.727 3.586 2.66 4.431 4.295 2.149 4.164 9.035 7.559 12.587 6.206 3.413-1.3 3.39-1.71-.211-3.667-3.331-1.81-1.794-2.201 2.389-.608 3.34 1.272 7.124-.31 6.243-2.61-.413-1.078.748-1.856 4.022-2.696 7.006-1.799 7.518-2.056 6.937-3.479-2.198-5.383-2.229-5.228.97-4.862 1.706.195 2.953.926 2.811 1.648-.14.714.749 1.837 1.976 2.494 1.843.988 3.298.636 8.366-2.025 7.432-3.902 13.218-5.174 15.376-3.38 1.203 1 3.198 1.006 8.972.03 4.084-.69 7.889-.967 8.456-.616.567.351 1.344.131 1.727-.489.837-1.356-1.478-4.434-2.745-3.65-1.529.947-6.551-.749-5.459-1.843 1.1-1.102 30.653 5.796 32.421 7.567 1.192 1.195 4.967-.398 4.967-2.096 0-.572-2.108-2.066-4.683-3.32-7.987-3.886-8.5-10.111-.989-12 4.359-1.096 6.244.169 12.274 8.232 7.828 10.468 7.628 9.935 5.071 13.533-1.894 2.664-2.008 3.288-.694 3.793 2.489.957 7.817-2.392 8.567-5.385.879-3.507-.762-6.495-4.679-8.525-3.081-1.595-5.31-4.519-5.31-6.962 0-.833 1.155-1.04 3.451-.62 3.443.63 6.29-.621 14.085-6.187 1.783-1.272 4.797-2.111 7.836-2.18 6.164-.14 8.159-1.177 6.385-3.317-.695-.84-1.043-1.749-.773-2.02 1.356-1.358 18.838-3.806 22.865-3.2 3.874.581 5.073.266 8.26-2.169 2.051-1.567 3.729-3.27 3.729-3.786 0-1.3-9.28-1.184-10.088.126-1.113 1.803-2.554 1.176-2.149-.935.343-1.782-.556-2.072-8.29-2.675-21.121-1.647-22.838-2.034-20.304-4.572 2.227-2.231 7.691-2.188 12.265.097 1.873.937 4.977 1.703 6.897 1.703s3.787.479 4.148 1.064c.361.585 2.22 1.063 4.133 1.063 5.296 0 15.536 2.292 14.893 3.333-.313.507.678.922 2.202.922 1.523 0 4.299.824 6.168 1.832 2.514 1.355 6.025 1.842 13.487 1.872 8.02.032 10.686.445 13.008 2.014 1.606 1.085 2.913 2.276 2.905 2.648-.008.371-2.459 2.026-5.446 3.677-7.214 3.986-5.688 5.723 3.037 3.459 5.651-1.467 6.95-1.477 11.629-.085 3.839 1.142 6.236 1.289 8.839.541 2.599-.747 5.267-.586 9.794.589 4.723 1.225 7.171 1.35 10.164.517 6.832-1.9 15.236-1.363 20.112 1.285 2.423 1.316 6.893 3.752 9.932 5.412 5.387 2.944 5.617 2.976 9.357 1.298 3.13-1.404 4.87-1.522 9.49-.638 4.58.878 6.25.77 8.83-.567 2.53-1.308 2.93-1.951 1.97-3.115-1.87-2.25 4.75-3.087 12.88-1.629 3.72.668 8.44 1.335 10.48 1.482 2.05.147 6.04 1.314 8.88 2.593 4.33 1.95 7.59 2.392 20.25 2.74 12.01.331 15.84.813 18.74 2.36 2.94 1.57 6.29 1.97 17.44 2.078 10.26.1 14.86.588 17.9 1.898 4.91 2.115 6.88 1.34 4.2-1.659-1.92-2.157-1.91-2.16 5.51-1.422 12.43 1.237 27.34 3.962 32.39 5.919 2.63 1.018 7.64 2.202 11.13 2.63 3.49.429 8.59 1.916 11.33 3.305 4.15 2.11 5.5 2.342 8.17 1.41 3.65-1.273 6.02-.356 11.59 4.492l3.46 3.012-2.61.656c-2.62.658-9.57-1.066-11.96-2.968-.71-.559-1.7-.762-2.2-.45-.5.31-2.99-.15-5.52-1.024-5.93-2.047-8.56-1.278-5.86 1.712 1.84 2.043 1.8 2.086-1.72 1.84-6.58-.46-4.77 1.487 4.9 5.264 5.25 2.054 9.78 3.953 10.05 4.22 1 .966-2.29 2.164-4.68 1.706-2.62-.503-9.09 2.32-9.09 3.967 0 .548-1.02 1.95-2.27 3.115-2.09 1.947-2.52 1.992-5.31.546-2.61-1.353-3.45-1.367-5.96-.1-1.61.81-4.35 1.818-6.1 2.24-1.75.422-3.78 1.261-4.5 1.866-2.14 1.776 1.63 6.948 6.94 9.521 2.89 1.402 4.98 3.28 5.6 5.03.55 1.536 1.71 4.059 2.57 5.607 1.42 2.522 1.41 2.881-.11 3.466-1.12.428-1.45 1.288-.96 2.505.41 1.019.86 3.049 1.02 4.511.15 1.463.62 3.454 1.04 4.425.54 1.264.09 1.977-1.58 2.509-1.86.592-3.12-.122-6.18-3.514-2.12-2.342-5.64-5.566-7.84-7.165-2.2-1.598-6.13-5.755-8.74-9.238-4.61-6.142-4.71-6.422-3.18-9.385.87-1.68 1.59-4.155 1.62-5.5.02-1.346.69-3.636 1.49-5.089 1.54-2.775.95-4.99-2.33-8.758-2.16-2.474-5.99-.62-5.02 2.429.89 2.808-1.84 3.718-4.98 1.66-1.36-.892-4.5-1.946-6.96-2.34-4.24-.678-4.56-.548-5.66 2.34-.64 1.68-.91 4.339-.59 5.906.48 2.442.14 2.942-2.36 3.494-1.71.375-4.63-.069-7.02-1.066-2.61-1.095-5.08-1.426-6.85-.92-1.52.433-6.67.827-11.44.874-7.56.076-9.02.406-11.32 2.568-1.45 1.364-3.19 4.715-3.87 7.446-.68 2.73-1.92 6.03-2.76 7.332-1.46 2.251-1.32 2.479 2.84 4.605 4.52 2.308 9.44 2.917 13.18 1.627 2.88-.995 11.66 5.866 14.41 11.252 1.12 2.206 2.98 4.513 4.12 5.128 4.34 2.325 5.22 17.581 1.59 27.556-2.51 6.905-5.32 9.163-9.44 7.592-1.58-.601-3.03-1.092-3.23-1.092-.19 0-1.37 1.963-2.62 4.363-1.64 3.152-1.96 4.74-1.15 5.716 1.54 1.868.4 4.297-2.69 5.709-1.43.652-2.6 1.649-2.6 2.215 0 .566 3.32 3.32 7.38 6.119 5.17 3.562 7.93 6.297 9.19 9.109 1 2.211 1.62 4.195 1.38 4.41-.24.215-2.41 1.388-4.82 2.608l-4.39 2.218-2.65-6.076c-2.95-6.8-5.49-9.535-9.96-10.74-2.25-.607-3.03-1.467-3.03-3.329 0-1.708-1.11-3.158-3.45-4.532-3.4-2.001-3.47-1.998-7.1.248-3.63 2.248-3.67 2.249-4.79.162-.62-1.158-1.12-2.838-1.12-3.733 0-.896-.9-2.107-1.99-2.692-1.62-.869-2.64-.344-5.62 2.888-2.01 2.173-4.58 4.48-5.71 5.126-1.76 1.003-1.86 1.427-.64 2.892.78.944 3.48 2.869 6 4.279 4 2.243 4.77 2.37 6.12 1.017 1.28-1.286 2.33-1.333 6.2-.279l4.66 1.267-2.59 1.739c-4.82 3.224-6.34 4.917-7.03 7.828-.56 2.388-.22 3.107 1.92 4.084 1.42.652 3.6 3.254 4.82 5.781 1.23 2.528 3.68 5.451 5.44 6.497 3.89 2.299 5.02 4.743 2.77 6.001-2.09 1.173-1.09 2.926 1.67 2.926 3.31 0 3.33 1.976.13 13.382-3.87 13.813-7.36 18.422-16.51 21.772-3.6 1.32-7.98 2.479-9.73 2.576-4.07.226-7.23 1.954-9.99 5.462l-2.18 2.786-1.02-2.688c-1.34-3.506-4.39-4.387-8.77-2.531-4.01 1.701-6.66 4.414-7.73 7.921-.95 3.139 2.43 8.66 8.03 13.103 4.6 3.647 9.76 12.799 10.97 19.458 1.05 5.792-.82 9.594-5.82 11.856-2.28 1.031-4.42 2.72-4.75 3.755-.78 2.485-5.5 5.579-6.36 4.178-.36-.584-.38-1.947-.03-3.03.34-1.082.32-2.744-.04-3.693-.53-1.366-1.11-1.489-2.78-.59-1.75.936-2.42.699-3.83-1.35-3.47-5.033-13.51-13.122-16.3-13.122-.98 0-1.36 1.182-1.19 3.723.14 2.048-.28 6.04-.92 8.872-1.05 4.614-.95 5.459 1.03 8.137 1.21 1.643 2.51 4.191 2.88 5.662.37 1.493 3.44 4.904 6.95 7.725 5.86 4.703 6.47 5.632 8.94 13.444 1.45 4.615 2.65 8.845 2.65 9.4 0 1.804-2.22 1.073-6.85-2.257-4.79-3.443-7.85-8.89-10.39-18.516-1.11-4.181-2.32-5.972-5.77-8.51-4.22-3.112-4.35-3.384-4.01-8.533.19-2.925.67-7.071 1.06-9.214.56-3.016.1-5.177-2.01-9.573-1.51-3.123-3.28-7.919-3.95-10.658-1.5-6.119-3.61-7.144-7.34-3.563-1.544 1.481-3.104 2.693-3.469 2.693-1.69 0-4.012-3.604-3.455-5.362 1.012-3.193-5.209-14.323-8.85-15.833-1.992-.827-3.813-2.831-5.032-5.539-2.117-4.703-4.493-6.503-6.866-5.202-.861.472-4.308 1.421-7.66 2.11-6.144 1.262-8.348 3.126-7.507 6.348.31 1.186-.765 2.332-3.344 3.564-2.09.998-4.342 3.006-5.004 4.462-.662 1.455-2.12 2.938-3.24 3.294-1.119.356-2.847 1.984-3.839 3.617-.992 1.634-3.945 4.62-6.563 6.635-3.584 2.759-4.702 4.302-4.524 6.242 1.041 11.343-.557 20.834-4.456 26.47-3.803 5.497-4.07 5.65-7.288 4.181-1.771-.808-2.861-2.387-3.313-4.797-.37-1.976-2.509-7.543-4.753-12.371-13.578-29.212-15.585-34.786-14.429-40.061.782-3.565-1.093-8.943-2.905-8.334-.727.244-1.334 1.12-1.349 1.948-.091 4.855-5.536 5.6-9.79 1.34l-2.818-2.824 2.425-.898c2.728-1.011 2.477-3.737-.298-3.238-.986.178-3.243-.899-5.015-2.393-1.772-1.494-3.631-2.716-4.131-2.716-.5 0-1.214-.963-1.587-2.139-.979-3.089-6.612-5.776-9.435-4.501-2.541 1.147-25.591.908-29.449-.306-1.389-.438-3.96-2.439-5.712-4.448-3.166-3.629-3.215-3.644-7.964-2.362-4.501 1.216-5.154 1.101-11.216-1.964-5.238-2.649-6.807-4.077-8.424-7.669-2.063-4.583-6.645-7.901-9.431-6.83-.877.337-1.902 2.013-2.277 3.723-.538 2.457.011 4.053 2.615 7.6 1.812 2.469 3.788 6.32 4.389 8.557 1.291 4.804 3.842 6.233 5.956 3.337 1.276-1.748 1.62-1.809 2.484-.439.551.875.849 2.069.661 2.654-.591 1.839 5.537 4.865 8.396 4.146 1.445-.363 4.533-2.828 6.861-5.478 3.669-4.175 4.949-4.457 4.322-.951-.422 2.36 1.432 5.126 4.5 6.714 4.738 2.454 11.34 7.92 11.34 9.39 0 .678-1.241 2.393-2.758 3.811-1.517 1.418-3.701 4.419-4.852 6.669-2.798 5.465-10.907 13.461-13.653 13.461-3.174 0-7.895 2.684-9.774 5.557-.891 1.361-3.232 3.281-5.202 4.267-10.093 5.047-22.245 10.164-25.665 10.807-3.656.687-3.953.52-5.89-3.306-1.122-2.216-2.394-6.662-2.828-9.88-.564-4.185-1.658-6.845-3.843-9.344-1.68-1.922-3.054-3.955-3.054-4.519 0-.564-1.916-3.004-4.258-5.421-2.917-3.011-4.802-6.278-5.984-10.373-.949-3.287-2.879-7.412-4.29-9.167-9.746-12.123-12.632-16.398-14.084-20.862-1.926-5.916-3.554-6.871-4.305-2.526l-.534 3.085-3.592-4.543c-5.536-7.001-6.233-3.819-1.037 4.728 2.459 4.044 6.379 11.183 8.711 15.863 2.332 4.68 5.356 9.991 6.719 11.801 1.403 1.864 2.478 4.777 2.478 6.718 0 4.008 1.194 6.51 5.883 12.328 1.886 2.34 3.75 5.757 4.141 7.592.502 2.355 2.551 4.816 6.958 8.357 6.697 5.38 11.036 10.996 12.113 15.677.405 1.758 1.937 3.562 3.881 4.569 2.961 1.534 4.004 1.492 13.362-.539 5.583-1.212 11.497-2.9 13.142-3.753l2.992-1.549.71 4.21c.645 3.826-.049 5.669-7.609 20.193-8.128 15.615-8.508 16.132-16.59 22.523-4.549 3.597-9.31 8.002-10.579 9.787-1.27 1.786-5.331 6.608-9.025 10.717-10.781 11.99-12.246 22.535-5.096 36.67 1.816 3.59 2.526 6.308 2.095 8.026-.358 1.428-.128 5.037.51 8.02 1.005 4.695.892 5.95-.848 9.365-2.511 4.928-4.508 6.7-11.527 10.223-3.066 1.539-5.575 3.253-5.575 3.808 0 .556-2.15 3.436-4.779 6.4-2.628 2.964-4.778 5.871-4.778 6.46 0 .589.985 3.005 2.189 5.369 3.61 7.088 1.184 12.224-7.469 15.815-3.648 1.513-4.845 4.603-3.943 10.173.473 2.919.172 3.89-1.479 4.775-1.139.611-3.2 2.885-4.579 5.054-4.353 6.848-16.865 18.965-22.55 21.837-4.743 2.397-5.957 2.608-9.442 1.644-3.072-.85-5.552-.715-10.704.581-8.344 2.1-7.459 2.186-10.69-1.05v-.001Zm139.867-339.267c2.741-1.42 3.133-2.202 3.133-6.252 0-2.904-.62-5.144-1.663-6.012-.915-.76-2.396-2.803-3.293-4.54-1.483-2.873-1.477-3.098.07-2.504 2.043.785 4.886-.159 4.886-1.622 0-.579-.988-2.442-2.196-4.14-1.818-2.559-2.547-2.9-4.247-1.989-1.375.737-2.052.744-2.052.021 0-.594-1.896-2.048-4.212-3.232-5.127-2.62-6.951-5.522-5.352-8.515 1.21-2.265 5.533-3.852 7.379-2.709 2.49 1.541 3.223-.731 1.17-3.62-4.981-7.006-11.916-6.545-20.516 1.364-5.55 5.104-6.032 6.461-2.893 8.143 1.168.627 2.124 1.851 2.124 2.721 0 .87 1.889 3.634 4.197 6.143 5.317 5.778 6.292 8.418 5.634 15.256l-.529 5.506 7.295 3.749c4.013 2.063 7.439 3.774 7.614 3.802.175.029 1.728-.678 3.451-1.57ZM773.267 496.59c-2.998-1.703-3.424-2.602-4.208-8.88-.625-5.018-.364-6.108 2.632-10.986 3.045-4.957 3.265-5.912 2.593-11.297-.97-7.776.681-11.862 5.192-12.853 4.251-.934 13.447-9.067 15.651-13.84l1.684-3.648 1.17 2.573c2.945 6.474 2.646 9.318-2.478 23.519-2.741 7.598-5.682 16.686-6.535 20.196-2.731 11.234-4.283 13.943-8.755 15.285-4.762 1.429-4.301 1.434-6.946-.069Zm523.093-18.493c-3.39-3.713-5.42-6.899-5.42-8.509 0-3.569.58-3.258 3.64 1.98 1.47 2.504 4.11 5.945 5.89 7.645 1.77 1.7 3.22 3.48 3.22 3.956 0 2.046-2.26.481-7.33-5.072Zm-473.715-1.509c0-.586.478-1.064 1.062-1.064.584 0 1.062.478 1.062 1.064 0 .585-.478 1.063-1.062 1.063a1.065 1.065 0 0 1-1.062-1.063Zm559.205-1.941c-.37-.607-.16-1.424.47-1.815 1.58-.977 2.14-.2 1.08 1.507-.56.914-1.11 1.023-1.55.308Zm-551.771-1.72c0-.258.477-.765 1.062-1.126.584-.362 1.061-.151 1.061.469 0 .619-.477 1.126-1.061 1.126-.585 0-1.062-.211-1.062-.469Zm524.161-10.795c-1.04-2.7.28-3.647 3.2-2.311 2.53 1.153 2.58 1.33.82 2.619-2.46 1.804-3.24 1.744-4.02-.308Zm6.72-4.731c-2.07-1.284-.63-2.31 2.67-1.901 2.59.32 2.64.437.8 1.577-1.18.729-2.6.862-3.47.324Zm-49.57-3.903c-2.19-4.704-1.42-6.511.83-1.983 2.35 4.711 2.39 4.865 1.29 4.854-.44-.004-1.39-1.297-2.12-2.871Zm4.06-.755c-.04-1.121.21-1.75.56-1.396.35.353.39 1.271.08 2.039-.34.848-.59.596-.64-.643Zm86.45-10.213c-.97-1.575-.05-2.379 2.22-1.936 1.66.324 1.68.497.18 1.741-1.2.991-1.87 1.047-2.4.195Zm-627.571-5.299c-.361-.585-.15-1.064.468-1.064.619 0 1.125.479 1.125 1.064 0 .585-.211 1.064-.469 1.064-.257 0-.763-.479-1.124-1.064Zm466.171-9.994c-6.72-2.122-9.76-4.094-12.41-8.031-3.02-4.499-8.55-7.904-11.37-7.006-1.14.363-3.07 2.337-4.27 4.385-2.06 3.488-2.45 3.68-6.19 3.016-2.19-.391-5.25-1.896-6.81-3.344-1.97-1.842-3.48-2.424-5.02-1.934-1.21.385-2.96.272-3.9-.252-1.46-.818-1.31-1.201 1.02-2.734 2.71-1.775 2.71-1.799.89-5.61-1.45-3.061-3.46-4.656-10.04-7.968-4.52-2.277-9.63-4.14-11.36-4.14-3.95 0-5.58-3.646-2.6-5.825 1.77-1.296 1.51-1.618-3.11-3.864-4.9-2.386-4.97-2.487-2.63-3.789 1.33-.736 3.46-1.355 4.74-1.376 2.49-.04 5.63 3.556 5.63 6.438 0 .961 1.04 3.062 2.3 4.669 2.26 2.88 2.32 2.892 3.98.813.93-1.161 3.89-3.375 6.58-4.92l4.9-2.81 6.78 3.066c3.74 1.687 9.03 3.877 11.78 4.867 2.74.99 8.23 3.933 12.19 6.541 7.57 4.979 10.85 9.177 8.97 11.453-1.54 1.855 4.5 10.305 10.75 15.047 6.87 5.211 6.75 5.693-.8 3.308Zm46.22-.086c-.84-1.01-.92-1.621-.22-1.621 1.29 0 2.78 2.018 2.05 2.756-.27.268-1.09-.243-1.83-1.135Zm-178.42-4.329c-1.54-.853-1.99-1.48-1.07-1.493 1.9-.025 4.93 1.745 4.22 2.461-.28.276-1.7-.159-3.15-.968Zm17.95-1.406c3.01-4.236 7.72-6.049 12.08-4.648 3.18 1.022 3.23 1.107.7 1.208-1.49.06-4.97 1.544-7.73 3.299-6.31 4.005-7.83 4.048-5.05.141Zm154.07 1.455c-1.43-1.732-1.09-1.948 1.51-.95.92.355 1.68 1.073 1.68 1.596 0 1.471-1.72 1.122-3.19-.646Zm4.98-.939c-.4-1.042-.7-2.693-.66-3.669.04-1.175.41-.907 1.09.794.57 1.412.86 3.063.66 3.669-.2.606-.69.248-1.09-.794Zm82.1 1.002c0-.258.48-.765 1.06-1.127.59-.361 1.06-.15 1.06.469 0 .62-.47 1.127-1.06 1.127-.58 0-1.06-.211-1.06-.469Zm-271.59-4.468c-.73-.31-1.06-1.001-.73-1.536.81-1.315 7.62-1.242 8.44.091.36.585.03 1.07-.74 1.078-.76.008-2.34.221-3.51.473s-2.72.204-3.46-.106Zm15.77-.798c-1.93-2.329.29-3.038 5.29-1.689 5.04 1.36 5.03 1.572-.2 2.517-2.71.49-4.2.248-5.09-.828Zm159.43-.647c-.73-1.179-.86-2.128-.29-2.128.57 0 1.55.958 2.17 2.128.63 1.17.76 2.127.29 2.127-.46 0-1.44-.957-2.17-2.127Zm6.65-1.071c-2.83-3.142-1.32-3.636 1.61-.521 1.37 1.461 2 2.655 1.4 2.655-.59 0-1.95-.96-3.01-2.134Zm-199.1-.184c-3.79-.527-9.15-1.697-11.89-2.599-2.75-.903-5.98-1.327-7.19-.943-2.43.773-12.77-2.272-12.77-3.761 0-3.4 9.52-3.658 14.57-.395 1.89 1.218 3.38 1.299 7.38.403 4.42-.993 5.34-.871 7.94 1.054 1.62 1.197 3.42 2.177 4.01 2.177 2.1 0 8.47 3.558 7.93 4.43-.3.489-1.11.822-1.81.741-.7-.082-4.37-.58-8.17-1.107Zm190.61-5.128c-1.05-1.17-1.44-2.127-.86-2.127.59 0 1.93.957 2.99 2.127 1.06 1.171 1.44 2.128.86 2.128-.59 0-1.93-.957-2.99-2.128Zm-6.69-1.347c-.61-.728-1.41-2.757-1.78-4.509-.61-2.822-.54-2.942.59-1.058.7 1.171 1.96 2.918 2.79 3.884.89 1.023 1.09 2.017.51 2.381-.56.344-1.51.03-2.11-.698Zm-22.49-3.382-2.64-1.463 4.09-.768c2.25-.423 5.71-2.191 7.68-3.928 2.16-1.897 3.59-2.585 3.58-1.72-.03 2.163-1.33 3.83-5.3 6.763-4.15 3.064-3.95 3.034-7.41 1.116Zm-199.2-4.142c-3.9-2.226-10.94-10.839-13.23-16.193-1.23-2.888-4.06-7.644-6.29-10.569-2.23-2.925-4.78-6.755-5.68-8.51-.89-1.755-3.62-5.106-6.05-7.446-5.13-4.934-8.28-10.118-6.13-10.081 2.78.048 9.96 4.042 13.03 7.26 8.49 8.874 10.23 10.454 14.23 12.926 3.87 2.387 5.7 4.87 5.89 7.978.03.585 1.13 2.26 2.44 3.723s3.78 4.213 5.49 6.113c1.71 1.899 3.42 4.863 3.79 6.585 1.24 5.639-3.29 10.609-7.49 8.214Zm-213.897-.702c0-.585.478-1.063 1.062-1.063.584 0 1.062.478 1.062 1.063s-.478 1.064-1.062 1.064a1.066 1.066 0 0 1-1.062-1.064Zm280.867-.009c-.36-.591-.37-2.005-.01-3.143.36-1.14-.08-3.19-.98-4.564-1.48-2.261-1.46-2.735.15-5.044.98-1.402 2.14-5.165 2.57-8.364.54-3.946 1.59-6.619 3.29-8.316 2.31-2.322 2.9-2.425 8.11-1.435 4.47.85 6.23.745 8.67-.517 4.07-2.112 4.37-2.017 3.02.96-1.72 3.784-5.16 4.993-8.79 3.09-6.48-3.399-15.07 1.652-10.54 6.193 1.67 1.669 2.59 1.821 5.68.934 5.29-1.52 7.37-1.241 4.09.547-3.72 2.024-4.42 4.27-2.51 7.982.87 1.689 1.59 4.308 1.59 5.82 0 2.421-.26 2.614-2.13 1.611-1.17-.627-2.85-2.89-3.75-5.03-1.61-3.86-1.63-3.873-3.7-1.809-1.8 1.81-1.92 2.614-.94 6.202.9 3.243.84 4.315-.28 5.023-1.87 1.191-2.74 1.157-3.54-.14Zm145.69-5.674c-1-1.53-3.29-3.545-5.09-4.478-1.8-.933-3.04-1.936-2.74-2.228 1.65-1.654 10.86 5.858 10.08 8.218-.25.725-1.21.076-2.25-1.512Zm-166.75-3.54c-1.61-.841-3.76-1.259-4.8-.93-2.64.84-13.14-1.299-14.18-2.89-.82-1.265-3.26-9.058-4.56-14.613-.35-1.527 0-3.509.84-4.655 1.21-1.664 1.84-1.79 3.77-.758 2.03 1.089 2.46.903 3.57-1.546.7-1.532 3.02-3.678 5.16-4.771 2.26-1.157 4.44-3.322 5.21-5.187.89-2.149 2.51-3.594 4.94-4.397 1.99-.658 4.86-2.833 6.39-4.833 1.52-2 3.33-3.636 4.02-3.636.7 0 2.79 1.58 4.66 3.511l3.4 3.511-2.73 3.669c-3.09 4.168-2.93 7.752.58 12.684l2.12 2.985-2.64 1.736c-1.46.955-2.65 2.323-2.64 3.041.01 2.437-6.8 16.48-8.5 17.547-1.19.742-2.57.602-4.61-.468Zm61.68-.02c-2.19-.575-2.5-2.457-.39-2.457.8 0 3.05.318 4.99.708 2.99.599 3.22.832 1.46 1.52-2.31.904-3.33.943-6.06.229Zm169.11-13.563c0-.258.48-.765 1.06-1.127.59-.361 1.06-.15 1.06.469 0 .62-.47 1.127-1.06 1.127-.58 0-1.06-.211-1.06-.469Zm-172.83-2.885c-.85-.851-.9-1.836-.16-3.213.58-1.093.78-2.446.43-3.007-.96-1.552 1.44-5.318 3.39-5.318 1.56 0 1.56.183-.07 1.979-1.4 1.553-1.56 2.58-.72 4.777 1.68 4.441-.15 7.502-2.87 4.782Zm-533.333-3.498c0-.258.478-.764 1.062-1.126.584-.362 1.062-.15 1.062.469 0 .62-.478 1.127-1.062 1.127-.584 0-1.062-.212-1.062-.47Zm736.433-2.722c-.37-.585-.15-1.063.46-1.063.62 0 1.13.478 1.13 1.063 0 .586-.21 1.064-.47 1.064s-.76-.478-1.12-1.064Zm-730.062-10.042c0-.258.478-.765 1.062-1.126.584-.362 1.062-.151 1.062.469 0 .619-.478 1.126-1.062 1.126-.584 0-1.062-.211-1.062-.469Zm510.782-15.993c-2.02-4.733-2.29-4.945-5.41-4.26-3.11.684-3.21.6-2.05-1.579.96-1.804 1.86-2.162 4.14-1.66 2.2.485 3.61-.005 5.77-2.008 1.57-1.457 2.86-3.509 2.88-4.561.03-2.685 3.97 6.319 4.87 11.132.69 3.655.6 3.854-1.06 2.477-2.46-2.044-4.83.077-2.81 2.516.8.974.91 1.641.25 1.641-.61 0-1.86.289-2.77.642-1.24.474-2.23-.663-3.81-4.34Zm-193.611 1.88c-1.188-1.932-1.863-10.6-1.005-12.9.909-2.439.978-2.41 3.683 1.596 3.243 4.8 4.28 7.878 3.211 9.521-1.025 1.574-5.235 2.848-5.889 1.783Zm237.141-5.502c0-.586.48-1.36 1.06-1.722.59-.361 1.06-.178 1.06.407s-.47 1.359-1.06 1.721c-.58.361-1.06.179-1.06-.406Zm166.72-.126c0-.585.21-1.064.47-1.064s.76.479 1.12 1.064c.36.585.15 1.064-.47 1.064-.61 0-1.12-.479-1.12-1.064Zm-241.05-6.145c0-.455 2.13-3.208 4.73-6.117 3.81-4.262 4.74-4.865 4.78-3.104.02 1.202-1.57 3.955-3.55 6.117-3.35 3.666-5.96 5.025-5.96 3.104Zm23-2.839c-.39-1.009-.31-2.543.17-3.407.75-1.339 1.06-1.352 2.11-.087.94 1.132.9 1.939-.17 3.407-1.32 1.803-1.45 1.809-2.11.087Zm-813.196-4.144c.65-.785.868-1.743.484-2.128s.292-.699 1.503-.699c1.678 0 2.069.505 1.646 2.127-.323 1.235-1.449 2.127-2.686 2.127-1.661 0-1.87-.314-.947-1.427Zm820.316-.282c-.39-1.107-.91-2.373-1.15-2.811-.23-.439.02-.798.57-.798 1.06 0 2.56 4.368 1.77 5.158-.26.256-.79-.441-1.19-1.549Zm-10.76-2.775c-1.49-1.8-.04-4.363 2.19-3.864 1.4.313 1.45.755.33 2.836-1.08 2.008-1.55 2.198-2.52 1.028Zm12.56-3.656c-1.22-1.552-2.04-2.999-1.82-3.216.86-.864 3.84 1.04 5.43 3.468 2.44 3.733-.65 3.518-3.61-.252Zm-17.46-4.118c-.95-.947-1.72-2.273-1.72-2.946s1.05-.173 2.33 1.11c1.28 1.284 2.06 2.61 1.72 2.947-.34.336-1.38-.163-2.33-1.111Zm-833.542-.151c-.389-.39-.708-1.204-.708-1.809 0-.666.495-.603 1.257.16.691.692 1.009 1.506.707 1.808-.301.302-.867.231-1.256-.159Zm-6.018-1.419c0-.585.211-1.063.469-1.063.257 0 .763.478 1.124 1.063.361.585.151 1.064-.468 1.064-.618 0-1.125-.479-1.125-1.064Zm49.91-2.127c0-.585.211-1.064.468-1.064.258 0 .764.479 1.125 1.064.361.585.15 1.064-.469 1.064-.618 0-1.124-.479-1.124-1.064Zm800.33-.162c-1.06-.602-3.08-.805-4.48-.453-2.06.517-3.48-.311-7.33-4.278-5.43-5.604-6.49-7.967-4.9-10.952.62-1.154 1.12-3.537 1.12-5.296 0-5.774 3.87-5.541 6.7.404 1.56 3.294 1.57 4.001.1 7.534-1.59 3.803-1.56 3.972 1.27 6.931 2.05 2.137 3.58 2.863 5.2 2.457 1.36-.344 2.84.082 3.64 1.052 1.91 2.308 1.08 3.955-1.32 2.601Zm-806.702-6.689c0-.258.478-.765 1.062-1.127.584-.361 1.062-.15 1.062.469 0 .62-.478 1.127-1.062 1.127-.584 0-1.062-.211-1.062-.469Zm166.719-3.786c0-.585.478-1.064 1.062-1.064.584 0 1.062.479 1.062 1.064 0 .585-.478 1.064-1.062 1.064a1.066 1.066 0 0 1-1.062-1.064Zm-169.904-4.129c0-.585.478-1.36 1.062-1.721.584-.362 1.062-.179 1.062.406s-.478 1.359-1.062 1.721c-.584.362-1.062.179-1.062-.406Zm-9.019-4.368c-.372-.603.054-.782.999-.418 1.84.707 2.177 1.469.649 1.469-.549 0-1.291-.473-1.648-1.051Zm168.835-.013c-.361-.585-.15-1.063.468-1.063.619 0 1.125.478 1.125 1.063s-.211 1.064-.469 1.064c-.257 0-.763-.479-1.124-1.064Zm-164.595-2.127c-.361-.585-.15-1.064.468-1.064.619 0 1.125.479 1.125 1.064 0 .585-.211 1.064-.468 1.064-.258 0-.764-.479-1.125-1.064Zm4.779 0c0-.585.21-1.064.468-1.064s.764.479 1.125 1.064c.361.585.15 1.064-.469 1.064-.618 0-1.124-.479-1.124-1.064Zm-73.006-2.832c-.73-.295-1.327-.975-1.327-1.511 0-1.534 4.687-1.139 6.964.586 1.959 1.484 1.903 1.559-1.124 1.512-1.752-.028-3.783-.292-4.513-.587Zm26.871-.603c-.953-.534-3.057-.679-4.676-.323-1.619.356-4.11.18-5.534-.39-2.291-.918-2.088-1.027 1.753-.937 5.645.132 7.153-.788 5.71-3.489-1.024-1.917-.716-2.063 4.349-2.063 4.901 0 11.971 2.251 13.169 4.194.796 1.291-12.87 4.074-14.771 3.008Zm20.369.672c-1.259-1.26.305-2.555 3.086-2.555 1.67 0 2.516.501 2.243 1.329-.489 1.489-4.212 2.346-5.329 1.226Zm768.263-1.691c-2.81-2.817-.03-6.183 5.11-6.183 2.28 0 2.28.019.32 3.372-2.27 3.908-3.63 4.612-5.43 2.811Zm-759.488-.219c0-.23.717-.693 1.593-1.03.876-.337 1.593-.149 1.593.418s-.717 1.03-1.593 1.03-1.593-.188-1.593-.418Zm-45.903-7.625c-.328-.328-2.57-.624-4.982-.657-3.327-.046-4.126-.374-3.309-1.359.788-.952-.344-2.22-4.248-4.754-7.655-4.968-11.929-5.939-17.071-3.878-4.822 1.933-5.191 1.987-5.191.77 0-2.226 8.451-4.675 14.537-4.211 5.82.443 9.078 1.683 20.506 7.807 9.392 5.034 9.403 5.043 6.371 5.909-3.443.983-5.868 1.12-6.613.373Zm7.675-8.976c2.059-1.333 3.186-1.333 3.186 0 0 .585-1.076 1.056-2.39 1.048-1.932-.014-2.084-.214-.796-1.048Zm845.696-1.886c-.64-.425-1.75-1.874-2.45-3.22-1.07-2.03-.96-3.015.64-5.765 2.48-4.248 4.15-4.778 4.96-1.57.84 3.375-1.6 11.578-3.15 10.555Zm-838.724-1.418c.709-1.149 4.709-1.279 4.708-.153 0 .439-1.192.867-2.648.951-1.456.084-2.383-.275-2.06-.798Zm-20.999-10.251c-1.698-1.953-1.451-4.528.434-4.528.604 0 .854.935.556 2.077-.298 1.142.004 2.273.672 2.513.668.241.933.745.589 1.122-.344.376-1.357-.157-2.251-1.184Zm6.169-8.357c-.378-.986-.448-2.033-.156-2.325.292-.293.84.275 1.218 1.261.378.987.448 2.033.156 2.326-.292.292-.84-.275-1.218-1.262Zm-6.655-.957c0-.878.91-1.596 2.023-1.596 1.798 0 1.846.177.43 1.596-.876.877-1.787 1.595-2.023 1.595-.236 0-.43-.718-.43-1.595Zm890.579-23.32c0-.833-1.16-2.895-2.58-4.583-3.36-4.006-2.17-6.68 1.82-4.064 2.86 1.88 4.36 5.722 3.3 8.481-.8 2.092-2.54 2.206-2.54.166Zm-824.033-6.401c0-.258.478-.765 1.062-1.126.584-.362 1.062-.151 1.062.469 0 .619-.478 1.126-1.062 1.126-.584 0-1.062-.211-1.062-.469Zm829.953-1.307c-.69-1.797.94-3.496 3.37-3.526 1.69-.021 1.72 2.357.06 4.026-1.73 1.734-2.62 1.604-3.43-.5Zm9.7-3.883c-2.06-3.152-4.97-3.585-11.64-1.73-2.71.754-4.58.763-5.84.027-1.02-.596-1.29-1.097-.61-1.115.69-.018 2.69-1.246 4.45-2.729 2.27-1.913 3.93-2.512 5.72-2.061 1.9.478 3.96-.437 8.27-3.684 8.4-6.323 9.16-8.317 5.74-15.073-3.28-6.485-2.36-8.573 2.5-5.697 3.54 2.094 6.87 8.09 5.9 10.618-.35.91.17 3.766 1.16 6.346 1.39 3.651 1.52 5.187.59 6.925-1.36 2.553-5.16 4.259-9.47 4.259-2.42 0-3.14.621-3.93 3.382l-.97 3.382-1.87-2.85Zm-430.184-3.631c-1.268-1.269-.593-2.411 1.424-2.411 1.134 0 2.357-.478 2.718-1.063.987-1.6 2.67-1.279 2.032.388-.656 1.71-5.253 4.009-6.174 3.086Zm-36.211-1.84-3.185-1.461 4.247-.072c5.291-.09 9.188.904 8.421 2.147-.855 1.385-5.827 1.063-9.483-.614Zm-42.897-10.611c-4.25-2.179-4.45-2.451-2.231-3.033 2.657-.696 8.538.17 8.418 1.24-.041.366-.399 1.457-.796 2.426-.653 1.592-1.17 1.532-5.391-.633Zm-21.284-11.508c-.919-2.641-.847-3.652.347-4.848 2.159-2.162 3.837-.643 3.837 3.476 0 4.865-2.665 5.738-4.184 1.372Zm-24.901.884c.753-1.967 3.984-2.299 3.334-.343-.243.731-1.237 1.484-2.208 1.672-1.232.24-1.573-.163-1.126-1.329Zm554.847-12.141c-1.95-2.735-2-3.239-.56-5.292 1.41-2.016 1.4-2.621-.05-5.434-2.39-4.628-2.05-4.907 2.09-1.742 2.05 1.564 6.09 3.548 8.98 4.408 5.97 1.778 7.42 3.173 4.3 4.163-1.18.374-2.14 1.375-2.14 2.224 0 1.157-.73 1.357-2.92.796-5.6-1.436-7.19-1.085-6.83 1.506.44 3.174-.28 3.018-2.87-.629Zm-528.24 1.249c-1.232-1.233-.767-3.295.885-3.93 1.151-.442 1.593.116 1.593 2.013 0 2.554-1.04 3.358-2.478 1.917Zm521.5-22.426c-.9-1.024-3.07-4.734-4.83-8.246-1.75-3.511-6.38-9.959-10.29-14.329-4.37-4.882-6.6-8.119-5.76-8.396.74-.248 2.33.864 3.54 2.472 2.92 3.897 6.52 7.281 12.19 11.471 4.71 3.474 7.04 6.689 4 5.522-3.5-1.346-2.63 1.848 1.9 6.958 2.65 2.979 4.81 5.64 4.81 5.913 0 1.294-4.11.285-5.56-1.365Zm-777.064-1.861c0-.878.463-1.596 1.028-1.596.566 0 .754.718.418 1.596-.336.877-.799 1.595-1.029 1.595-.229 0-.417-.718-.417-1.595Zm-5.549-3.433-3.956-.416 7.444-7.383c4.095-4.061 7.98-7.383 8.634-7.383.69 0 .483.781-.493 1.862-2.211 2.447-.703 5.196 3.337 6.085 1.763.388 3.521 1.742 4.2 3.235 1.091 2.397.906 2.641-2.773 3.665-3.86 1.074-8.467 1.168-16.393.335Zm-258.752-7.631c-3.679-3.442-4.089-4.892-1.65-5.83 2.185-.839 6.217 1.898 7.745 5.258 1.604 3.526 1.575 3.658-.786 3.658-1.106 0-3.495-1.389-5.309-3.086Zm467.655-5.404c1.168-.578 3.467-1.535 5.108-2.128 3.616-1.307 3.017-2.699-1.557-3.616-3.138-.628-3.248-.788-1.453-2.103 1.069-.783 1.632-1.928 1.251-2.545-.389-.63.703-1.608 2.493-2.233 1.751-.612 3.184-1.584 3.184-2.162 0-2.457-2.213-6.59-3.443-6.429-2.835.37-4.148-.13-3.691-1.407.262-.732.046-2.168-.48-3.191-1.367-2.662 1.774-8.168 4.694-8.228.438-.008.677.571.531 1.288-.146.718.856 1.475 2.227 1.683l2.492.379-2.381 2.539-2.382 2.54 2.685 1.022c2.881 1.097 5.658 4.672 8.486 10.925 1.355 2.995 2.246 3.778 3.828 3.364 3.245-.85 3.63 1.353.585 3.351-2.062 1.354-2.454 2.116-1.55 3.021.903.905-.878 1.513-7.055 2.405-4.544.657-9.935 1.505-11.979 1.884-2.843.528-3.218.443-1.593-.359Zm-17.908-5.876c-.363-.949.051-3.103.921-4.788.998-1.933 1.191-3.305.524-3.718-1.841-1.139-1.151-2.593 1.553-3.273 1.436-.361 3.167-1.327 3.846-2.147 1.415-1.708 7.957-2.022 8.939-.43.36.584-.089 2.127-.999 3.428-.91 1.301-1.655 3.639-1.655 5.194 0 2.372-.727 3.082-4.513 4.398-2.482.863-5.287 1.904-6.234 2.314-1.11.481-1.956.134-2.382-.978Zm19.501-10.568c0-.258.478-.765 1.062-1.127.584-.361 1.062-.15 1.062.469 0 .62-.478 1.127-1.062 1.127-.584 0-1.062-.211-1.062-.469Zm-471.272-5.125c-1.04-1.256-.974-1.841.331-2.926 2.158-1.794 3.229-.577 1.973 2.242-.867 1.945-1.182 2.038-2.304.684Zm-1.66-8c-.36-.581.059-1.648.928-2.371 1.727-1.436 2.087-.31.636 1.984-.554.877-1.169 1.029-1.565.387Zm-68.638-.679c0-.748 3.22-2.057 7.788-3.165 1.732-.42 2.755-.319 2.411.239-.328.533-1.922 1.236-3.54 1.563-1.618.328-3.778.919-4.8 1.315-1.023.396-1.859.418-1.859.048Zm631.035-11.96c-1.959-.792-1.612-2.013.619-2.181 1.071-.08 1.947.535 1.947 1.37 0 1.583-.368 1.7-2.566.81Zm-233.353-5.437c-6.72-3.67-9.932-9.31-7.985-14.019.922-2.228.95-3.63.105-5.211-1.758-3.291.536-7.148 6.403-10.765 2.787-1.717 5.569-4.063 6.183-5.212 1.701-3.184.186-8.64-2.774-9.99-1.498-.684-2.314-1.765-1.983-2.63.754-1.967-2.781-8.688-6.302-11.98-2.592-2.424-3.707-2.666-12.581-2.724-12.084-.08-14.336-.752-14.136-4.225.083-1.443.403-2.624.71-2.624.307 0 4.608-.5 9.557-1.11 6.319-.778 11.985-2.384 19.028-5.393 10.905-4.658 11.736-4.75 37.756-4.136 8.216.193 15.775-.416 25.486-2.054 9.042-1.526 15.696-2.1 19.289-1.667 3.053.368 7.473.125 9.969-.548 5.791-1.562 20.838.317 26.755 3.341 3.499 1.788 5.35 2.024 11.254 1.435 6.377-.635 6.859-.552 4.942.858-1.168.86-4.752 1.91-7.964 2.333-6.971.92-13.376 5.896-11.678 9.073.732 1.371.207 2.54-2.16 4.813-1.721 1.65-3.38 3.796-3.688 4.768-.739 2.333-10.127 6.676-14.782 6.838-5.17.18-5.711 1.28-1.712 3.486 1.888 1.042 4.645 2.818 6.127 3.946l2.692 2.051-2.434.902c-1.866.692-3.38.246-6.486-1.91-4.214-2.925-8.748-2.94-6.329-.02.943 1.138.716 1.58-1.049 2.043-3.946 1.034-1.155 3.078 3.197 2.341 2.77-.468 4.328-.221 5.194.824 1.031 1.244-.314 1.82-8.048 3.448-5.106 1.075-11.913 1.994-15.125 2.043-5.968.089-10.268 1.805-16.594 6.621-2.063 1.57-6.447 3.127-11.577 4.11-10.721 2.055-14.344 4.431-20.804 13.646-5.189 7.401-8.318 10.16-11.553 10.186-.877.007-3.983-1.293-6.903-2.888Zm-75.293-7.114c-2.281-1.404-5.076-4.021-6.211-5.817-2.216-3.506-4.259-3.952-10.242-2.233-2.025.582-4.298.638-5.207.129-3.144-1.763 2.536-3.497 8.862-2.705 4.811.602 5.879.43 6.44-1.034 1.128-2.942 6.287-5.051 9.155-3.742 1.766.806 3.371.784 5.627-.079 3.034-1.16 3.076-1.264 1.094-2.722-1.134-.834-2.428-1.516-2.876-1.516-.447 0-2.064-2.137-3.592-4.749-1.528-2.612-4.392-5.747-6.364-6.968-3.352-2.075-3.795-2.112-6.793-.559-2.621 1.358-4.135 1.453-8.282.52-2.791-.628-6.688-.84-8.66-.47-3.421.641-9.688-1.036-9.688-2.592 0-2.858 8.993-9.273 14.335-10.225l4.248-.757-3.036 3.24c-4.189 4.47-2.614 6.527 1.935 2.527 1.929-1.697 5.263-3.415 7.409-3.818 3.279-.617 4.684-.215 8.802 2.517 5.478 3.635 5.9 3.732 8.99 2.076 1.86-.997 2.55-.723 4.57 1.815 1.398 1.755 4.519 3.667 7.562 4.632 4.85 1.537 5.182 1.871 5.182 5.222 0 2.513.723 4.098 2.427 5.319 7.126 5.105 6.971 4.894 5.429 7.367-2.115 3.391-3.784 3.637-8.463 1.246-3.256-1.664-4.678-1.892-6.317-1.013-2.005 1.075-2.026 1.304-.412 4.431 1.325 2.566 1.446 3.862.545 5.841-1.109 2.44-1.286 2.477-4.298.917-5.921-3.068-9.909-1.05-4.385 2.22 1.731 1.023 2.906 2.252 2.611 2.73-1.029 1.667-6.283.782-10.397-1.75Zm218.119 1.377c0-.487.717-.886 1.593-.886s1.593.399 1.593.886c0 .488-.717.887-1.593.887s-1.593-.4-1.593-.887Zm-258.158-5.72c-2.094-1.103-3.72-1.197-6.651-.386-4.985 1.378-6.728.37-4.199-2.43 3.238-3.584 5.435-4.29 9.34-2.998 4.396 1.453 6.347 3.613 5.161 5.714-.756 1.339-1.272 1.353-3.651.1Zm210.903-.485c-1.752-1.154-3.982-1.845-4.956-1.537-1.341.425-1.638.056-1.227-1.52.632-2.42 9.962-5.913 13.116-4.91 1.1.35 3.911.062 6.246-.64 3.666-1.1 4.638-1.016 7.117.61l2.871 1.885-2.557 1.996c-2.159 1.684-6.162 3.146-15.831 5.78-.876.24-3.027-.51-4.779-1.664ZM233.29 53.591c-1.46-.231-5.017-1.482-7.904-2.78l-5.249-2.36 7.373-.532c4.055-.293 7.373-1.01 7.373-1.596 0-.585-2.867-1.32-6.371-1.634-4.627-.414-5.5-.705-3.186-1.063 3.873-.6 4.152-2.28.531-3.197-2.608-.66-2.589-.7 1.079-2.283 6.358-2.744 13.13-3.27 19.129-1.485 4.926 1.465 5.696 1.46 8.018-.065 1.642-1.078 2.617-1.258 2.702-.5.073.652.192 1.744.265 2.427.247 2.304 2.365 2.006 4.892-.689 2.34-2.495 6.396-3.69 6.387-1.882-.002.439-.947 2.347-2.099 4.24l-2.096 3.443 3.427 1.79 3.427 1.791-5.627 2.573c-5.077 2.32-6.119 2.454-10.669 1.36-4.413-1.06-5.679-.939-10.125.97-5.022 2.156-6.081 2.294-11.277 1.472Zm42.589-.75c-.959-1.157-.563-1.727 1.915-2.755 1.726-.716 4.201-.955 5.527-.533 2.3.731 2.247.846-1.249 2.711-4.461 2.38-4.683 2.4-6.193.578Zm292.972-4.922c2.059-1.333 3.186-1.333 3.186 0 0 .585-1.076 1.056-2.39 1.047-1.932-.013-2.084-.214-.796-1.047Zm194.859-2.951c-5.429-2.148-5.318-2.03-3.738-3.938.739-.891.926-1.636.417-1.655-.51-.018.029-.757 1.197-1.641 1.168-.884 2.132-1.946 2.142-2.36.037-1.573 4.36-5.722 7.415-7.116 1.752-.8 6.292-1.7 10.088-2.003 3.796-.302 8.881-.855 11.3-1.229 2.574-.398 4.672-.235 5.059.393.753 1.22-.684 1.739-8.926 3.222-8.178 1.472-13.094 3.765-16.332 7.62-3.411 4.06-3.525 6.624-.392 8.813l2.389 1.67-3.186-.048c-1.752-.026-5.097-.804-7.433-1.728Zm-556.166-3.084c-1.712-1.716-1.322-2.09 6.894-6.595 9.627-5.279 14.465-5.98 23.1-3.346l4.778 1.457-6.371 1.266c-5.211 1.035-16.253 4.733-24.974 8.365-.889.37-2.425-.144-3.427-1.147Zm76.717-1.377c0-.566-1.314-1.785-2.92-2.709l-2.92-1.679 3.91.616c2.778.438 4.161.177 4.778-.9.734-1.282 7.493-3.846 10.188-3.866.453-.003.083 1.429-.822 3.182-2.131 4.129-12.214 8.55-12.214 5.356Zm16.533-3.106c-1.521-2.466 8.87-6.283 13.284-4.88 3.217 1.023 1.067 2.78-4.545 3.715-2.51.418-5.352 1.096-6.315 1.507-.963.411-2.054.257-2.424-.342Zm33.908-7.833c-7.009-.558-12.874-1.137-13.034-1.285-.949-.883 1.419-3.755 3.968-4.813 2.506-1.04 3.661-.901 7.091.848 3.344 1.704 5.5 1.988 11.712 1.54 4.187-.303 8.966-.207 10.619.212l3.006.762-3.717 1.99c-2.044 1.093-4.434 1.937-5.31 1.875-.876-.062-7.327-.57-14.335-1.129Zm305.591-4.347c-5.216-2.675-5.719-3.888-1.622-3.91 1.606-.01 3.637-.534 4.513-1.165 1.377-.992 1.359-1.073-.136-.599-.951.302-2.285-.008-2.965-.688-.939-.941-1.428-.925-2.042.07-.567.92-1.733 1.029-3.937.367-5.6-1.68-6.849-2.425-6.849-4.09 0-1.411 1.404-1.54 10.089-.93 6.613.466 10.088.337 10.088-.374 0-2.094 2.946-1.06 3.727 1.308l.79 2.393.47-2.393c.258-1.316 1.153-2.393 1.989-2.393.835 0 1.519-.575 1.519-1.277 0-.992.283-.992 1.274 0 .741.743 4.295 1.277 8.495 1.277 7.592 0 9.375 1.36 4.312 3.288-2.631 1.002-7.207.718-12.223-.757-1.022-.301-1.855-.156-1.851.322.007.982 5.974 4.593 7.588 4.593.578 0 1.722.671 2.541 1.492 1.279 1.28 1.268 1.578-.075 2.094-.861.33-1.566.085-1.566-.547 0-.743-1.351-.895-3.821-.43-2.676.502-3.603.364-3.094-.46.399-.649.149-1.876-.557-2.728-1.362-1.643-5.271-2.146-5.271-.678 0 .479-1.553 2.59-3.451 4.692l-3.451 3.822-4.484-2.299Zm-281.699-2.34c-1.84-1.082-4.445-1.396-8.495-1.023-3.785.35-6.696.048-8.272-.855-2.173-1.244-1.642-1.386 4.99-1.332 8.293.067 11.936-1.711 7.444-3.635-2.133-.914-1.822-.997 1.835-.49 4.775.663 6.631-.618 4.029-2.78-2.774-2.307.277-3.023 10.147-2.382 6.107.396 9.945.174 11.514-.667 3.006-1.611 1.827-3.662-1.609-2.799-2.374.597-18.852-.382-18.156-1.079.497-.498 23.841-2.664 39.17-3.634 7.951-.503 16.791-1.205 19.645-1.56L426.025 0l-8.566 4.122c-8.031 3.864-21.092 7.631-26.457 7.631-1.307 0-5.062 1.436-8.345 3.191-3.284 1.755-6.629 3.191-7.433 3.191-.805 0-4.279 1.43-7.719 3.178-3.441 1.748-6.256 3.167-6.256 3.153 0-.013-1.194-.726-2.655-1.585Zm-20.707-9.718c-5.146-1.14-5.335-1.57-1.553-3.533 5.513-2.862 10.729-3.596 13.101-1.842 1.878 1.388 1.769 1.602-1.919 3.782-3.843 2.271-5.403 2.53-9.629 1.593Z" fill="url(#a)"/><defs><linearGradient id="a" x1="702.696" y1="0" x2="702.696" y2="638.785" gradientUnits="userSpaceOnUse"><stop stop-color="#CED1DC"/><stop offset="1" stop-color="#EFF4F7"/></linearGradient></defs></svg>