<svg xmlns="http://www.w3.org/2000/svg" xmlns:xlink="http://www.w3.org/1999/xlink" width="450" height="396" viewBox="0 0 450 396">
  <defs>
    <path id="mss@1x-a" d="M0.0715792835,38.2511799 C-0.743902198,28.3321372 5.40854225,18.2563628 18.5277592,10.6882957 C43.2332724,-3.56276524 83.3475793,-3.56276524 108.053093,10.6882957 C119.738585,17.4289116 125.896796,26.1586372 126.527727,34.9966921 L126.561177,34.9966921 L126.561177,35.5890457 C126.587706,36.2021433 126.587706,36.8163933 126.561177,37.4294909 L126.561177,71.8113567 C126.587706,72.4244543 126.587706,73.0380128 126.561177,73.6512256 L126.561177,74.0419024 L126.541569,74.0419024 C125.990225,82.9480665 119.828553,91.759961 108.053093,98.5524366 C83.3475793,112.803498 43.2332724,112.803498 18.5277592,98.5524366 C5.40854225,90.984139 -0.743902198,80.9087104 0.0715792835,70.9892067 L0.0715792835,38.2511799 Z"/>
    <linearGradient id="mss@1x-b" x1="21.805%" x2="44.141%" y1="78.211%" y2="77.041%">
      <stop offset="0%" stop-color="#FFF"/>
      <stop offset="100%" stop-color="#EFF4F6"/>
    </linearGradient>
    <path id="mss@1x-d" d="M73.4648466,1.11440854 C75.9908783,1.11440854 78.0416931,3.16344512 78.0416931,5.68728659 C78.0416931,7.0137439 77.4753545,8.20882317 76.5710582,9.0454939 L76.5906667,9.06854268 L76.5635457,9.10005041 C75.9270692,9.8394766 64.2799158,23.3705478 61.9835132,26.0382073 C61.7239894,26.3389939 61.4229418,26.60175 61.0884444,26.8172561 C58.9718836,28.1817439 50.717873,33.5025549 46.4559153,36.251122 C44.8341799,37.2963841 43.8099259,39.0515488 43.6980423,40.976122 C43.1939894,49.6482256 41.7914074,73.7457256 41.7914074,73.7457256 L44.918381,108.248598 L46.1560212,141.543713 C46.1594815,141.615165 46.1629418,141.685463 46.1640952,141.756915 C46.1652487,141.80647 46.1652487,141.85372 46.1652487,141.90097 C46.1652487,145.574945 43.1801481,148.557457 39.5041376,148.557457 C35.8269735,148.557457 32.841873,145.574945 32.841873,141.90097 C32.841873,141.822604 32.8430265,141.744238 32.8464868,141.665872 L32.841873,141.665872 L31.3700847,110.052165 L28.2442646,90.2140793 L26.16,140.446591 L26.16,140.475402 C26.16,144.148226 23.1748995,147.130738 19.4977354,147.130738 C15.8217249,147.130738 12.8366243,144.148226 12.8366243,140.475402 L12.8366243,140.387817 L12.8366243,140.387817 L12.8320106,140.387817 L12.8412381,140.238 C12.8446984,140.119299 12.851619,140.00175 12.862,139.885354 L14.6959683,110.052165 L13.298,71.337128 L11.7754603,56.4314817 L10.0787513,64.5458049 L10.3671111,82.999811 L10.3578836,82.999811 C10.3751852,83.1657622 10.3844127,83.3328659 10.3844127,83.5022744 C10.3844127,86.0261159 8.33359788,88.0763049 5.80756614,88.0763049 C3.28153439,88.0763049 1.23071958,86.0261159 1.23071958,83.5022744 C1.23071958,83.3328659 1.23994709,83.1657622 1.25724868,82.999811 L1.21226455,82.999811 C1.21226455,82.999811 0.892761905,66.7803841 0.843164021,64.2680671 C0.838550265,64.052561 0.851238095,63.8359024 0.880074074,63.6215488 C1.14190476,61.6866037 2.52718519,51.4275915 3.63564021,43.2164634 C4.50187302,36.8065976 9.30017989,31.6309939 15.630254,30.2780305 C26.4771958,27.9604756 41.7914074,24.6887012 41.7914074,24.6887012 C41.7914074,24.6887012 53.5218836,17.9215793 55.9464127,16.5236707 C56.2347725,16.3565671 56.5012169,16.1537378 56.737672,15.9174878 L69.9226349,2.79120732 C70.1187196,2.55265244 70.3390265,2.33368902 70.5777884,2.13892683 L70.7392698,1.9787378 L70.7565714,2.00063415 C71.5155344,1.44285366 72.452127,1.11440854 73.4648466,1.11440854 Z"/>
    <path id="mss@1x-f" d="M13.9658413,0.949609756 C21.1448466,0.949609756 26.9731746,6.77288415 26.9731746,13.9456646 C26.9731746,21.1184451 21.1448466,26.9417195 13.9658413,26.9417195 C6.78798942,26.9417195 0.959661376,21.1184451 0.959661376,13.9456646 C0.959661376,6.77288415 6.78798942,0.949609756 13.9658413,0.949609756 Z"/>
  </defs>
  <g fill="none" fill-rule="evenodd" transform="translate(6 7)">
    <path fill="#3F6C9F" fill-opacity=".1" d="M137.696413,258.417165 C184.864,231.208079 261.45236,231.208079 308.619947,258.417165 C355.787534,285.625098 355.787534,329.805115 308.619947,357.013624 C261.45236,384.222134 184.864,384.222134 137.696413,357.013624 C90.5296328,329.805115 90.5296328,285.625098 137.696413,258.417165 Z"/>
    <path fill="#5A6D83" fill-opacity=".2" d="M187.937915,273.415006 C212.643429,259.163945 252.757735,259.163945 277.463249,273.415006 C302.167608,287.666067 302.167608,310.806121 277.463249,325.057182 C252.757735,339.308243 212.643429,339.308243 187.937915,325.057182 C163.233556,310.806121 163.233556,287.666067 187.937915,273.415006 Z"/>
    <g transform="translate(159.868 224.798)">
      <mask id="mss@1x-c" fill="#fff">
        <use xlink:href="#mss@1x-a"/>
      </mask>
      <use fill="#FFF" xlink:href="#mss@1x-a"/>
      <polygon fill="url(#mss@1x-b)" points="56.979 125.12 135.413 125.12 135.413 20.672 56.979 20.672" mask="url(#mss@1x-c)"/>
    </g>
    <path stroke="#01050C" stroke-linecap="round" stroke-linejoin="round" d="M159.939333,263.048817 C159.123852,253.129774 165.276296,243.054 178.395513,235.485933 C203.101026,221.234872 243.215333,221.234872 267.920847,235.485933 C279.606339,242.226549 285.76455,250.956274 286.395481,259.794329 L286.428931,259.794329 L286.428931,260.386683 C286.45546,260.99978 286.45546,261.61403 286.428931,262.227128 L286.428931,296.608994 C286.45546,297.222091 286.45546,297.83565 286.428931,298.448863 L286.428931,298.83954 L286.409323,298.83954 C285.857979,307.745704 279.696307,316.557598 267.920847,323.350074 C243.215333,337.601135 203.101026,337.601135 178.395513,323.350074 C165.276296,315.781776 159.123852,305.706348 159.939333,295.786844 L159.939333,263.048817 Z"/>
    <path fill="#FFF" d="M178.395513,234.861311 C203.101026,220.61025 243.215333,220.61025 267.920847,234.861311 C292.625206,249.112372 292.625206,272.253348 267.920847,286.504409 C243.215333,300.755009 203.101026,300.755009 178.395513,286.504409 C153.691153,272.253348 153.691153,249.112372 178.395513,234.861311 Z"/>
    <path stroke="#01050C" stroke-linecap="round" stroke-linejoin="round" d="M178.395513,234.861311 C203.101026,220.61025 243.215333,220.61025 267.920847,234.861311 C292.625206,249.112372 292.625206,272.253348 267.920847,286.504409 C243.215333,300.755009 203.101026,300.755009 178.395513,286.504409 C153.691153,272.253348 153.691153,249.112372 178.395513,234.861311 Z"/>
    <path fill="#3F6C9F" fill-opacity=".12" d="M223.15818,255.25372 C238.447016,258.086415 250.243238,264.052591 249.485429,268.570152 C248.726466,273.086561 235.699524,274.454506 220.410688,271.621811 C205.123005,268.789116 193.32563,262.822939 194.084593,258.30653 C194.842402,253.78897 207.869344,252.421024 223.15818,255.25372 Z"/>
    <path fill="#FFF" d="M435.982698,78.9190244 C435.982698,76.413622 434.644709,74.098372 432.473937,72.8456707 C414.131947,62.265128 329.286116,13.3221951 307.045503,0.492091463 C305.941661,-0.144054878 304.58291,-0.144054878 303.479069,0.492091463 C302.375228,1.12939024 301.695852,2.30603049 301.695852,3.57832317 C301.695852,27.4142195 301.695852,113.11189 301.695852,132.792091 C301.695852,135.297494 303.033841,137.612744 305.204614,138.865445 C323.546603,149.444835 408.392434,198.388921 430.633048,211.217872 C431.736889,211.855171 433.09564,211.855171 434.199481,211.217872 C435.303323,210.581726 435.982698,209.405085 435.982698,208.132793 C435.982698,184.296896 435.982698,98.5992256 435.982698,78.9190244 Z"/>
    <path stroke="#01050C" stroke-linecap="round" stroke-linejoin="round" d="M435.982698,78.9190244 C435.982698,76.413622 434.644709,74.098372 432.473937,72.8456707 C414.131947,62.265128 329.286116,13.3221951 307.045503,0.492091463 C305.941661,-0.144054878 304.58291,-0.144054878 303.479069,0.492091463 C302.375228,1.12939024 301.695852,2.30603049 301.695852,3.57832317 C301.695852,27.4142195 301.695852,113.11189 301.695852,132.792091 C301.695852,135.297494 303.033841,137.612744 305.204614,138.865445 C323.546603,149.444835 408.392434,198.388921 430.633048,211.217872 C431.736889,211.855171 433.09564,211.855171 434.199481,211.217872 C435.303323,210.581726 435.982698,209.405085 435.982698,208.132793 C435.982698,184.296896 435.982698,98.5992256 435.982698,78.9190244 Z"/>
    <path fill="#EFF4F7" d="M374.510159,63.3541829 L411.302561,84.5775 C412.166487,96.8279268 416.262349,100.860311 422.850794,105.729366 C423.817376,129.596378 411.519407,148.307378 392.90636,145.981756 L392.797937,145.86997 C374.246021,126.704909 361.997651,93.8903598 362.961926,71.1815488 C369.551524,73.9151341 373.646233,74.60775 374.510159,63.3541829 Z"/>
    <path stroke="#B1BBC9" stroke-linecap="round" stroke-linejoin="round" d="M374.510159,63.3541829 L411.302561,84.5775 C412.166487,96.8279268 416.262349,100.860311 422.850794,105.729366 C423.817376,129.596378 411.519407,148.307378 392.90636,145.981756 L392.797937,145.86997 C374.246021,126.704909 361.997651,93.8903598 362.961926,71.1815488 C369.551524,73.9151341 373.646233,74.60775 374.510159,63.3541829 Z"/>
    <path fill="#FFF" d="M329.592931,21.7868598 C328.298772,21.0400793 327.247989,21.6462622 327.247989,23.1398232 C327.247989,24.6333841 328.298772,26.4519329 329.592931,27.1987134 C330.888243,27.9454939 331.939026,27.339311 331.939026,25.84575 C331.939026,24.352189 330.888243,22.5336402 329.592931,21.7868598 Z"/>
    <path stroke="#01050C" stroke-linecap="round" stroke-linejoin="round" d="M329.592931,21.7868598 C328.298772,21.0400793 327.247989,21.6462622 327.247989,23.1398232 C327.247989,24.6333841 328.298772,26.4519329 329.592931,27.1987134 C330.888243,27.9454939 331.939026,27.339311 331.939026,25.84575 C331.939026,24.352189 330.888243,22.5336402 329.592931,21.7868598 Z"/>
    <path fill="#FFF" d="M320.477302,16.5282805 C319.181989,15.7815 318.131206,16.3876829 318.131206,17.8812439 C318.131206,19.3748049 319.181989,21.1933537 320.477302,21.9401341 C321.77146,22.6869146 322.822243,22.0807317 322.822243,20.5871707 C322.822243,19.0936098 321.77146,17.2739085 320.477302,16.5282805 Z"/>
    <path stroke="#01050C" stroke-linecap="round" stroke-linejoin="round" d="M320.477302,16.5282805 C319.181989,15.7815 318.131206,16.3876829 318.131206,17.8812439 C318.131206,19.3748049 319.181989,21.1933537 320.477302,21.9401341 C321.77146,22.6869146 322.822243,22.0807317 322.822243,20.5871707 C322.822243,19.0936098 321.77146,17.2739085 320.477302,16.5282805 Z"/>
    <path fill="#FFF" d="M311.360519,11.2685488 C310.06636,10.5217683 309.014423,11.1279512 309.014423,12.6215122 C309.014423,14.1150732 310.06636,15.9347744 311.360519,16.6815549 C312.654677,17.4283354 313.70546,16.8221524 313.70546,15.3285915 C313.70546,13.8350305 312.654677,12.0153293 311.360519,11.2685488 Z"/>
    <path stroke="#01050C" stroke-linecap="round" stroke-linejoin="round" d="M311.360519,11.2685488 C310.06636,10.5217683 309.014423,11.1279512 309.014423,12.6215122 C309.014423,14.1150732 310.06636,15.9347744 311.360519,16.6815549 C312.654677,17.4283354 313.70546,16.8221524 313.70546,15.3285915 C313.70546,13.8350305 312.654677,12.0153293 311.360519,11.2685488 Z"/>
    <line x1="359.887" x2="409.125" y1="144.587" y2="172.99" stroke="#D1D9E0" stroke-linecap="round" stroke-linejoin="round" stroke-width="2"/>
    <line x1="359.887" x2="383.288" y1="152.647" y2="166.146" stroke="#D1D9E0" stroke-linecap="round" stroke-linejoin="round" stroke-width="2"/>
    <path fill="#EFF4F7" d="M371.049841,65.0828415 L407.842243,86.3061585 C408.706169,98.5565854 412.802032,102.58897 419.390476,107.458024 C420.357058,131.325037 408.05909,150.036037 389.446042,147.710415 L389.337619,147.598628 C370.785704,128.433567 358.537333,95.6190183 359.501608,72.9102073 C366.091206,75.6437927 370.185915,76.3364085 371.049841,65.0828415 Z"/>
    <path stroke="#01050C" stroke-linecap="round" stroke-linejoin="round" d="M371.049841,65.0828415 L407.842243,86.3061585 C408.706169,98.5565854 412.802032,102.58897 419.390476,107.458024 C420.357058,131.325037 408.05909,150.036037 389.446042,147.710415 L389.337619,147.598628 C370.785704,128.433567 358.537333,95.6190183 359.501608,72.9102073 C366.091206,75.6437927 370.185915,76.3364085 371.049841,65.0828415 Z"/>
    <path fill="#FFF" d="M389.446042,90.5448293 C397.443989,95.1580427 403.936698,106.393171 403.936698,115.619598 C403.936698,124.846024 397.443989,128.591451 389.446042,123.978238 C381.449249,119.365024 374.95654,108.129896 374.95654,98.9023171 C374.95654,89.6758902 381.449249,85.9316159 389.446042,90.5448293 Z"/>
    <path stroke="#01050C" stroke-linecap="round" stroke-linejoin="round" d="M389.446042,90.5448293 C397.443989,95.1580427 403.936698,106.393171 403.936698,115.619598 C403.936698,124.846024 397.443989,128.591451 389.446042,123.978238 C381.449249,119.365024 374.95654,108.129896 374.95654,98.9023171 C374.95654,89.6758902 381.449249,85.9316159 389.446042,90.5448293 Z"/>
    <path stroke="#01050C" stroke-linecap="round" stroke-linejoin="round" stroke-width="2" d="M383.969513,103.518988 C389.067714,112.340909 387.492116,109.61539 388.556741,111.456988 L396.71963,106.748122"/>
    <line x1="315.124" x2="343.101" y1="38.075" y2="54.213" stroke="#01050C" stroke-linecap="round" stroke-linejoin="round" stroke-width="2"/>
    <path fill="#EFF4F7" d="M350.430963,55.3758476 C350.430963,54.0217317 349.707757,52.7713354 348.534709,52.0948537 C342.369577,48.5384268 322.814169,37.2572012 314.474804,32.4469207 C313.685852,31.9917073 312.713503,31.9917073 311.923397,32.4469207 C311.134444,32.9021341 310.647693,33.7445671 310.647693,34.6549939 C310.647693,49.6804939 310.647693,98.4021585 310.647693,107.504122 C310.647693,108.414549 311.134444,109.255829 311.923397,109.711043 C317.266127,112.792665 337.959979,124.73078 346.603852,129.716232 C347.392804,130.171445 348.365153,130.171445 349.155259,129.716232 C349.944212,129.261018 350.430963,128.419738 350.430963,127.509311 C350.430963,112.841067 350.430963,66.0601098 350.430963,55.3758476 Z"/>
    <line x1="316.243" x2="338.624" y1="46.666" y2="59.576" stroke="#5A6D83" stroke-linecap="round" stroke-linejoin="round"/>
    <line x1="316.243" x2="329.673" y1="59.149" y2="66.896" stroke="#5A6D83" stroke-linecap="round" stroke-linejoin="round"/>
    <line x1="336.387" x2="343.101" y1="70.768" y2="74.641" stroke="#5A6D83" stroke-linecap="round" stroke-linejoin="round"/>
    <line x1="316.243" x2="339.743" y1="70.188" y2="83.744" stroke="#5A6D83" stroke-linecap="round" stroke-linejoin="round"/>
    <line x1="311.768" x2="327.434" y1="101.783" y2="110.821" stroke="#5A6D83" stroke-linecap="round" stroke-linejoin="round"/>
    <path fill="#FFF" d="M144.867344,9.9755122 C144.867344,8.70091463 144.186815,7.52312195 143.082974,6.88582317 C141.977979,6.24852439 140.616921,6.24852439 139.513079,6.88582317 C117.724614,19.4543232 36.0573153,66.5637256 18.395163,76.752439 C16.3024783,77.9601951 15.0133947,80.1901646 15.0133947,82.6045244 C15.0133947,99.7182439 15.0133947,168.222677 15.0133947,189.262756 C15.0133947,190.536201 15.6938085,191.713994 16.7983418,192.351293 C17.9028751,192.988591 19.263818,192.988591 20.3683513,192.351293 C42.1563556,179.782793 123.824,132.67339 141.48546,122.484677 C143.577799,121.278073 144.867344,119.046951 144.867344,116.632591 C144.867344,99.518872 144.867344,31.014439 144.867344,9.9755122 Z"/>
    <path stroke="#01050C" stroke-linecap="round" stroke-linejoin="round" d="M144.867344,9.9755122 C144.867344,8.70091463 144.186815,7.52312195 143.082974,6.88582317 C141.977979,6.24852439 140.616921,6.24852439 139.513079,6.88582317 C117.724614,19.4543232 36.0573153,66.5637256 18.395163,76.752439 C16.3024783,77.9601951 15.0133947,80.1901646 15.0133947,82.6045244 C15.0133947,99.7182439 15.0133947,168.222677 15.0133947,189.262756 C15.0133947,190.536201 15.6938085,191.713994 16.7983418,192.351293 C17.9028751,192.988591 19.263818,192.988591 20.3683513,192.351293 C42.1563556,179.782793 123.824,132.67339 141.48546,122.484677 C143.577799,121.278073 144.867344,119.046951 144.867344,116.632591 C144.867344,99.518872 144.867344,31.014439 144.867344,9.9755122 Z"/>
    <path fill="#EFF4F7" d="M131.011079 41.391C131.011079 39.7902622 130.156381 38.3105305 128.768794 37.5107378 127.381206 36.7097927 125.67181 36.7097927 124.284222 37.5107378 116.161704 42.1954024 102.918492 49.8349207 97.4894847 52.9660976 95.9804402 53.8373415 95.0508836 55.4461463 95.0508836 57.1863293 95.0508836 67.095 95.0508836 100.591793 95.0508836 115.843171 95.0508836 117.426622 95.8963545 118.889067 97.2688317 119.680793 98.6414243 120.472518 100.332366 120.472518 101.704959 119.680793 109.81998 114.999585 123.127323 107.323189 128.572709 104.182793 130.081407 103.311549 131.011079 101.702744 131.011079 99.962561 131.011079 90.0723293 131.011079 56.681561 131.011079 41.391zM60.894782 87.9771951C73.0847884 80.9450122 82.981527 86.6541951 82.981527 100.717409 82.981527 114.780622 73.0847884 131.908171 60.894782 138.939201 48.7047757 145.971384 38.808037 140.262201 38.808037 126.198988 38.808037 112.135774 48.7047757 95.0082256 60.894782 87.9771951z"/>
    <path fill="#FFF" d="M60.894782,99.2561159 C67.688654,95.3378232 73.2044,98.5197073 73.2044,106.357445 C73.2044,114.195183 67.688654,123.740835 60.894782,127.66028 C54.1009101,131.578573 48.585164,128.396689 48.585164,120.558951 C48.585164,112.721213 54.1009101,103.175561 60.894782,99.2561159 Z"/>
    <path stroke="#01050C" stroke-linecap="round" stroke-linejoin="round" d="M60.894782,99.2561159 C67.688654,95.3378232 73.2044,98.5197073 73.2044,106.357445 C73.2044,114.195183 67.688654,123.740835 60.894782,127.66028 C54.1009101,131.578573 48.585164,128.396689 48.585164,120.558951 C48.585164,112.721213 54.1009101,103.175561 60.894782,99.2561159 Z"/>
    <path fill="#EFF4F7" d="M25.9631079,80.713372 C27.2576127,79.9665915 28.3086265,80.5727744 28.3086265,82.0663354 C28.3086265,83.5598963 27.2576127,85.3795976 25.9631079,86.126378 C24.6684878,86.8731585 23.6174741,86.2669756 23.6174741,84.7734146 C23.6174741,83.2798537 24.6684878,81.4601524 25.9631079,80.713372 Z"/>
    <path stroke="#01050C" stroke-linecap="round" stroke-linejoin="round" d="M25.9631079,80.713372 C27.2576127,79.9665915 28.3086265,80.5727744 28.3086265,82.0663354 C28.3086265,83.5598963 27.2576127,85.3795976 25.9631079,86.126378 C24.6684878,86.8731585 23.6174741,86.2669756 23.6174741,84.7734146 C23.6174741,83.2798537 24.6684878,81.4601524 25.9631079,80.713372 Z"/>
    <path fill="#EFF4F7" d="M35.0794296,75.4547927 C36.3740497,74.7080122 37.4250635,75.3141951 37.4250635,76.8077561 C37.4250635,78.3013171 36.3740497,80.1198659 35.0794296,80.8666463 C33.7848095,81.6134268 32.7337958,81.0072439 32.7337958,79.5136829 C32.7337958,78.020122 33.7848095,76.2015732 35.0794296,75.4547927 Z"/>
    <path stroke="#01050C" stroke-linecap="round" stroke-linejoin="round" d="M35.0794296,75.4547927 C36.3740497,74.7080122 37.4250635,75.3141951 37.4250635,76.8077561 C37.4250635,78.3013171 36.3740497,80.1198659 35.0794296,80.8666463 C33.7848095,81.6134268 32.7337958,81.0072439 32.7337958,79.5136829 C32.7337958,78.020122 33.7848095,76.2015732 35.0794296,75.4547927 Z"/>
    <path fill="#EFF4F7" d="M44.1957513,70.1962134 C45.4903714,69.4494329 46.5413852,70.0556159 46.5413852,71.5491768 C46.5413852,73.0427378 45.4903714,74.8612866 44.1957513,75.6080671 C42.9012466,76.3548476 41.8502328,75.7486646 41.8502328,74.2551037 C41.8502328,72.7615427 42.9012466,70.9429939 44.1957513,70.1962134 Z"/>
    <path stroke="#01050C" stroke-linecap="round" stroke-linejoin="round" d="M44.1957513,70.1962134 C45.4903714,69.4494329 46.5413852,70.0556159 46.5413852,71.5491768 C46.5413852,73.0427378 45.4903714,74.8612866 44.1957513,75.6080671 C42.9012466,76.3548476 41.8502328,75.7486646 41.8502328,74.2551037 C41.8502328,72.7615427 42.9012466,70.9429939 44.1957513,70.1962134 Z"/>
    <path fill="#EFF4F7" d="M79.9188,72.7903537 C82.389236,71.3647866 84.3950667,72.5218354 84.3950667,75.3718171 C84.3950667,78.2217988 82.389236,81.6929451 79.9188,83.1185122 C77.4482487,84.5429268 75.4425333,83.385878 75.4425333,80.5358963 C75.4425333,77.6859146 77.4482487,74.2147683 79.9188,72.7903537 Z"/>
    <path stroke="#01050C" stroke-linecap="round" stroke-linejoin="round" d="M79.9188,72.7903537 C82.389236,71.3647866 84.3950667,72.5218354 84.3950667,75.3718171 C84.3950667,78.2217988 82.389236,81.6929451 79.9188,83.1185122 C77.4482487,84.5429268 75.4425333,83.385878 75.4425333,80.5358963 C75.4425333,77.6859146 77.4482487,74.2147683 79.9188,72.7903537 Z"/>
    <path fill="#EFF4F7" d="M35.1564794,93.4466707 C37.6269153,92.0211037 39.6326307,93.1781524 39.6326307,96.0292866 C39.6326307,98.8792683 37.6269153,102.350415 35.1564794,103.774829 C32.685928,105.200396 30.6802127,104.043348 30.6802127,101.193366 C30.6802127,98.3433841 32.685928,94.8722378 35.1564794,93.4466707 Z"/>
    <path stroke="#01050C" stroke-linecap="round" stroke-linejoin="round" d="M35.1564794,93.4466707 C37.6269153,92.0211037 39.6326307,93.1781524 39.6326307,96.0292866 C39.6326307,98.8792683 37.6269153,102.350415 35.1564794,103.774829 C32.685928,105.200396 30.6802127,104.043348 30.6802127,101.193366 C30.6802127,98.3433841 32.685928,94.8722378 35.1564794,93.4466707 Z"/>
    <path fill="#EFF4F7" d="M41.870764,150.244628 C45.5765333,148.106854 48.585164,149.842427 48.585164,154.117976 C48.585164,158.392372 45.5765333,163.599091 41.870764,165.736866 C38.1649947,167.87464 35.1564794,166.139067 35.1564794,161.863518 C35.1564794,157.589122 38.1649947,152.382402 41.870764,150.244628 Z"/>
    <path stroke="#01050C" stroke-linecap="round" stroke-linejoin="round" d="M41.870764,150.244628 C45.5765333,148.106854 48.585164,149.842427 48.585164,154.117976 C48.585164,158.392372 45.5765333,163.599091 41.870764,165.736866 C38.1649947,167.87464 35.1564794,166.139067 35.1564794,161.863518 C35.1564794,157.589122 38.1649947,152.382402 41.870764,150.244628 Z"/>
    <path fill="#EFF4F7" d="M93.3474847,127.013762 C95.818036,125.589348 97.8237513,126.746396 97.8237513,129.596378 C97.8237513,132.44636 95.818036,135.917506 93.3474847,137.343073 C90.8769333,138.767488 88.871218,137.610439 88.871218,134.760457 C88.871218,131.910476 90.8769333,128.439329 93.3474847,127.013762 Z"/>
    <path stroke="#01050C" stroke-linecap="round" stroke-linejoin="round" d="M93.3474847,127.013762 C95.818036,125.589348 97.8237513,126.746396 97.8237513,129.596378 C97.8237513,132.44636 95.818036,135.917506 93.3474847,137.343073 C90.8769333,138.767488 88.871218,137.610439 88.871218,134.760457 C88.871218,131.910476 90.8769333,128.439329 93.3474847,127.013762 Z"/>
    <line x1="75.443" x2="70.966" y1="85.7" y2="93.447" stroke="#01050C" stroke-linecap="round" stroke-linejoin="round"/>
    <line x1="39.633" x2="48.585" y1="101.193" y2="106.357" stroke="#01050C" stroke-linecap="round" stroke-linejoin="round"/>
    <line x1="48.585" x2="53.061" y1="145.089" y2="133.836" stroke="#01050C" stroke-linecap="round" stroke-linejoin="round"/>
    <line x1="88.871" x2="73.204" y1="129.596" y2="123.142" stroke="#01050C" stroke-linecap="round" stroke-linejoin="round"/>
    <line x1="101.775" x2="118.945" y1="65.316" y2="55.412" stroke="#5A6D83" stroke-linecap="round" stroke-linejoin="round" stroke-width="2"/>
    <line x1="101.775" x2="112.077" y1="74.478" y2="68.536" stroke="#5A6D83" stroke-linecap="round" stroke-linejoin="round"/>
    <line x1="117.229" x2="127.53" y1="65.563" y2="59.621" stroke="#5A6D83" stroke-linecap="round" stroke-linejoin="round"/>
    <line x1="101.775" x2="122.379" y1="85.074" y2="73.189" stroke="#5A6D83" stroke-linecap="round" stroke-linejoin="round"/>
    <line x1="101.775" x2="112.077" y1="94.568" y2="88.625" stroke="#5A6D83" stroke-linecap="round" stroke-linejoin="round"/>
    <line x1="117.229" x2="127.53" y1="85.654" y2="79.711" stroke="#5A6D83" stroke-linecap="round" stroke-linejoin="round"/>
    <line x1="101.775" x2="108.643" y1="104.602" y2="100.64" stroke="#5A6D83" stroke-linecap="round" stroke-linejoin="round"/>
    <path fill="#FFF" d="M84.2608063,195.901957 C84.2608063,193.487598 82.9717228,191.257628 80.8790381,190.049872 C67.9639799,182.600506 21.6850021,155.904256 5.85439577,146.772329 C4.74986243,146.13503 3.38891958,146.13503 2.28438624,146.772329 C1.17985291,147.409628 0.499439153,148.586268 0.499439153,149.860866 C0.499439153,166.018061 0.499439153,209.189579 0.499439153,222.409207 C0.499439153,224.823567 1.7886381,227.054689 3.88120741,228.261293 C16.7962656,235.711811 63.0752434,262.408061 78.9059651,271.539988 C80.0104984,272.176134 81.3713259,272.176134 82.4758593,271.539988 C83.5803926,270.902689 84.2608063,269.724896 84.2608063,268.450299 C84.2608063,252.293104 84.2608063,209.121585 84.2608063,195.901957 Z"/>
    <path stroke="#01050C" stroke-linecap="round" stroke-linejoin="round" d="M84.2608063,195.901957 C84.2608063,193.487598 82.9717228,191.257628 80.8790381,190.049872 C67.9639799,182.600506 21.6850021,155.904256 5.85439577,146.772329 C4.74986243,146.13503 3.38891958,146.13503 2.28438624,146.772329 C1.17985291,147.409628 0.499439153,148.586268 0.499439153,149.860866 C0.499439153,166.018061 0.499439153,209.189579 0.499439153,222.409207 C0.499439153,224.823567 1.7886381,227.054689 3.88120741,228.261293 C16.7962656,235.711811 63.0752434,262.408061 78.9059651,271.539988 C80.0104984,272.176134 81.3713259,272.176134 82.4758593,271.539988 C83.5803926,270.902689 84.2608063,269.724896 84.2608063,268.450299 C84.2608063,252.293104 84.2608063,209.121585 84.2608063,195.901957 Z"/>
    <path fill="#EFF4F7" d="M75.1787418,194.323116 C73.8841217,193.576335 72.8331079,194.182518 72.8331079,195.676079 C72.8331079,197.16964 73.8841217,198.989341 75.1787418,199.736122 C76.4732466,200.482902 77.5242603,199.875567 77.5242603,198.382006 C77.5242603,196.889598 76.4732466,195.069896 75.1787418,194.323116 Z"/>
    <path stroke="#01050C" stroke-linecap="round" stroke-linejoin="round" d="M75.1787418,194.323116 C73.8841217,193.576335 72.8331079,194.182518 72.8331079,195.676079 C72.8331079,197.16964 73.8841217,198.989341 75.1787418,199.736122 C76.4732466,200.482902 77.5242603,199.875567 77.5242603,198.382006 C77.5242603,196.889598 76.4732466,195.069896 75.1787418,194.323116 Z"/>
    <path fill="#EFF4F7" d="M66.0623048,189.064537 C64.7678,188.317756 63.7167862,188.923939 63.7167862,190.4175 C63.7167862,191.911061 64.7678,193.72961 66.0623048,194.47639 C67.3569249,195.223171 68.4079386,194.616988 68.4079386,193.123427 C68.4079386,191.629866 67.3569249,189.811317 66.0623048,189.064537 Z"/>
    <path stroke="#01050C" stroke-linecap="round" stroke-linejoin="round" d="M66.0623048,189.064537 C64.7678,188.317756 63.7167862,188.923939 63.7167862,190.4175 C63.7167862,191.911061 64.7678,193.72961 66.0623048,194.47639 C67.3569249,195.223171 68.4079386,194.616988 68.4079386,193.123427 C68.4079386,191.629866 67.3569249,189.811317 66.0623048,189.064537 Z"/>
    <path fill="#EFF4F7" d="M56.9459831,183.805957 C55.651363,183.059177 54.6003492,183.66536 54.6003492,185.158921 C54.6003492,186.652482 55.651363,188.47103 56.9459831,189.217811 C58.2404878,189.964591 59.2915016,189.358409 59.2915016,187.864848 C59.2915016,186.371287 58.2404878,184.552738 56.9459831,183.805957 Z"/>
    <path stroke="#01050C" stroke-linecap="round" stroke-linejoin="round" d="M56.9459831,183.805957 C55.651363,183.059177 54.6003492,183.66536 54.6003492,185.158921 C54.6003492,186.652482 55.651363,188.47103 56.9459831,189.217811 C58.2404878,189.964591 59.2915016,189.358409 59.2915016,187.864848 C59.2915016,186.371287 58.2404878,184.552738 56.9459831,183.805957 Z"/>
    <line x1="12.578" x2="46.15" y1="178.002" y2="197.368" stroke="#5A6D83" stroke-linecap="round" stroke-linejoin="round"/>
    <line x1="12.578" x2="34.959" y1="184.874" y2="197.784" stroke="#5A6D83" stroke-linecap="round" stroke-linejoin="round"/>
    <polygon fill="#4D72EF" fill-opacity=".7" points="35.113 208.802 28.086 204.749 28.086 226.61 35.113 230.663"/>
    <polygon fill="#4D72EF" points="49.165 205.979 42.139 201.926 42.139 234.716 49.165 238.769"/>
    <polygon fill="#4D72EF" fill-opacity=".4" points="21.06 206.162 14.034 202.109 14.034 218.504 21.06 222.557"/>
    <path fill="#EFF4F7" d="M150.362328,145.138171 C150.362328,144.72675 150.142021,144.346445 149.785608,144.140159 C149.428042,143.935024 148.988582,143.935024 148.632169,144.140159 C141.503915,148.252061 114.457036,163.85378 107.329705,167.965683 C106.259083,168.58339 105.599546,169.724305 105.599546,170.95972 C105.599546,175.773457 105.599546,187.975482 105.599546,192.78922 C105.599546,193.20064 105.819392,193.580945 106.176266,193.787232 C106.53314,193.992366 106.972831,193.992366 107.329705,193.787232 C114.457036,189.675329 141.503915,174.07361 148.632169,169.961707 C149.702561,169.344 150.362328,168.203085 150.362328,166.967671 C150.362328,162.153933 150.362328,149.951909 150.362328,145.138171 Z"/>
    <path stroke="#B1BBC9" stroke-linecap="round" stroke-linejoin="round" d="M150.362328,145.138171 C150.362328,144.72675 150.142021,144.346445 149.785608,144.140159 C149.428042,143.935024 148.988582,143.935024 148.632169,144.140159 C141.503915,148.252061 114.457036,163.85378 107.329705,167.965683 C106.259083,168.58339 105.599546,169.724305 105.599546,170.95972 C105.599546,175.773457 105.599546,187.975482 105.599546,192.78922 C105.599546,193.20064 105.819392,193.580945 106.176266,193.787232 C106.53314,193.992366 106.972831,193.992366 107.329705,193.787232 C114.457036,189.675329 141.503915,174.07361 148.632169,169.961707 C149.702561,169.344 150.362328,168.203085 150.362328,166.967671 C150.362328,162.153933 150.362328,149.951909 150.362328,145.138171 Z"/>
    <line x1="114.552" x2="127.981" y1="176.71" y2="168.964" stroke="#B1BBC9" stroke-linecap="round" stroke-linejoin="round"/>
    <line x1="135.814" x2="142.528" y1="164.445" y2="160.572" stroke="#B1BBC9" stroke-linecap="round" stroke-linejoin="round"/>
    <path fill="#FFF" fill-opacity=".9" d="M409.124868,182.007 C409.124868,180.733555 408.445492,179.556915 407.341651,178.920768 C406.238963,178.284622 404.879058,178.284622 403.775217,178.920768 C388.467926,187.750756 344.774497,212.95575 332.062444,220.28872 C329.890519,221.541421 328.553683,223.856671 328.553683,226.362073 C328.553683,242.185061 328.553683,299.920066 328.553683,319.006416 C328.553683,320.279515 329.233058,321.455925 330.336899,322.092417 C331.439587,322.728909 332.799492,322.728909 333.903333,322.092417 C349.210624,313.261968 392.904053,288.057896 405.616106,280.724927 C407.788032,279.472226 409.124868,277.156976 409.124868,274.651573 C409.124868,258.827433 409.124868,201.093695 409.124868,182.007 Z"/>
    <path stroke="#01050C" stroke-linecap="round" stroke-linejoin="round" stroke-opacity=".9" d="M409.124868,182.007 C409.124868,180.733555 408.445492,179.556915 407.341651,178.920768 C406.238963,178.284622 404.879058,178.284622 403.775217,178.920768 C388.467926,187.750756 344.774497,212.95575 332.062444,220.28872 C329.890519,221.541421 328.553683,223.856671 328.553683,226.362073 C328.553683,242.185061 328.553683,299.920066 328.553683,319.006416 C328.553683,320.279515 329.233058,321.455925 330.336899,322.092417 C331.439587,322.728909 332.799492,322.728909 333.903333,322.092417 C349.210624,313.261968 392.904053,288.057896 405.616106,280.724927 C407.788032,279.472226 409.124868,277.156976 409.124868,274.651573 C409.124868,258.827433 409.124868,201.093695 409.124868,182.007 Z"/>
    <path fill="#EFF4F7" d="M402.980497,257.716482 C402.980497,256.115744 402.125799,254.636012 400.738212,253.83622 C399.350624,253.035274 397.640074,253.035274 396.252487,253.835067 C385.96727,259.768976 366.711757,270.876183 358.953725,275.351104 C356.871767,276.553098 355.587989,278.772695 355.587989,281.17553 C355.587989,284.285963 355.587989,288.74475 355.587989,292.569695 C355.587989,294.153146 356.43346,295.616398 357.806053,296.408124 C359.178646,297.199849 360.869587,297.199849 362.24218,296.408124 C372.946095,290.233701 393.498074,278.378561 400.542127,274.315061 C402.050825,273.44497 402.980497,271.836165 402.980497,270.094829 C402.980497,267.028189 402.980497,261.987421 402.980497,257.716482 Z"/>
    <path fill="#FFF" d="M381.67763,201.180128 C382.972942,200.433348 384.023725,201.03953 384.023725,202.533091 C384.023725,204.026652 382.972942,205.845201 381.67763,206.591982 C380.383471,207.338762 379.332688,206.732579 379.332688,205.239018 C379.332688,203.745457 380.383471,201.926909 381.67763,201.180128 Z"/>
    <path stroke="#01050C" stroke-linecap="round" stroke-linejoin="round" d="M381.67763,201.180128 C382.972942,200.433348 384.023725,201.03953 384.023725,202.533091 C384.023725,204.026652 382.972942,205.845201 381.67763,206.591982 C380.383471,207.338762 379.332688,206.732579 379.332688,205.239018 C379.332688,203.745457 380.383471,201.926909 381.67763,201.180128 Z"/>
    <path fill="#FFF" d="M390.794413,195.921549 C392.088571,195.174768 393.140508,195.780951 393.140508,197.274512 C393.140508,198.768073 392.088571,200.586622 390.794413,201.333402 C389.500254,202.080183 388.448317,201.474 388.448317,199.980439 C388.448317,198.486878 389.500254,196.668329 390.794413,195.921549 Z"/>
    <path stroke="#01050C" stroke-linecap="round" stroke-linejoin="round" d="M390.794413,195.921549 C392.088571,195.174768 393.140508,195.780951 393.140508,197.274512 C393.140508,198.768073 392.088571,200.586622 390.794413,201.333402 C389.500254,202.080183 388.448317,201.474 388.448317,199.980439 C388.448317,198.486878 389.500254,196.668329 390.794413,195.921549 Z"/>
    <path fill="#FFF" d="M399.911196,190.661817 C401.205354,189.915037 402.256138,190.522372 402.256138,192.015933 C402.256138,193.509494 401.205354,195.328043 399.911196,196.074823 C398.615884,196.821604 397.565101,196.215421 397.565101,194.72186 C397.565101,193.228299 398.615884,191.408598 399.911196,190.661817 Z"/>
    <path stroke="#01050C" stroke-linecap="round" stroke-linejoin="round" d="M399.911196,190.661817 C401.205354,189.915037 402.256138,190.522372 402.256138,192.015933 C402.256138,193.509494 401.205354,195.328043 399.911196,196.074823 C398.615884,196.821604 397.565101,196.215421 397.565101,194.72186 C397.565101,193.228299 398.615884,191.408598 399.911196,190.661817 Z"/>
    <path stroke="#4D72EF" stroke-linecap="round" stroke-linejoin="round" d="M339.213767,287.200482 C339.213767,287.200482 338.654349,256.967396 350.615513,250.327043 C362.575524,243.685537 360.179831,264.057201 372.348614,257.80522 C394.471577,246.441018 383.528899,217.887037 394.471577,212.265439 C398.401344,210.246366 400.379492,210.533323 402.996646,212.043018"/>
    <path fill="#FFF" d="M350.933862,246.7395 C352.792053,245.668884 354.299598,246.537823 354.299598,248.68136 C354.299598,250.823744 352.792053,253.434018 350.933862,254.504634 C349.076825,255.576402 347.56928,254.706311 347.56928,252.563927 C347.56928,250.42039 349.076825,247.811268 350.933862,246.7395 Z"/>
    <path stroke="#4D72EF" stroke-linecap="round" stroke-linejoin="round" d="M350.933862,246.7395 C352.792053,245.668884 354.299598,246.537823 354.299598,248.68136 C354.299598,250.823744 352.792053,253.434018 350.933862,254.504634 C349.076825,255.576402 347.56928,254.706311 347.56928,252.563927 C347.56928,250.42039 349.076825,247.811268 350.933862,246.7395 Z"/>
    <path fill="#FFF" d="M374.425958,252.554707 C376.284148,251.482939 377.791693,252.35303 377.791693,254.495415 C377.791693,256.638951 376.284148,259.248073 374.425958,260.319841 C372.568921,261.390457 371.061376,260.521518 371.061376,258.377982 C371.061376,256.235598 372.568921,253.625323 374.425958,252.554707 Z"/>
    <path stroke="#4D72EF" stroke-linecap="round" stroke-linejoin="round" d="M374.425958,252.554707 C376.284148,251.482939 377.791693,252.35303 377.791693,254.495415 C377.791693,256.638951 376.284148,259.248073 374.425958,260.319841 C372.568921,261.390457 371.061376,260.521518 371.061376,258.377982 C371.061376,256.235598 372.568921,253.625323 374.425958,252.554707 Z"/>
    <path fill="#FFF" d="M396.230571,207.711 C398.087608,206.639232 399.595153,207.509323 399.595153,209.651707 C399.595153,211.795244 398.087608,214.404366 396.230571,215.476134 C394.372381,216.54675 392.864836,215.677811 392.864836,213.534274 C392.864836,211.39189 394.372381,208.782768 396.230571,207.711 Z"/>
    <path stroke="#4D72EF" stroke-linecap="round" stroke-linejoin="round" d="M396.230571,207.711 C398.087608,206.639232 399.595153,207.509323 399.595153,209.651707 C399.595153,211.795244 398.087608,214.404366 396.230571,215.476134 C394.372381,216.54675 392.864836,215.677811 392.864836,213.534274 C392.864836,211.39189 394.372381,208.782768 396.230571,207.711 Z"/>
    <line x1="364.363" x2="391.22" y1="280.308" y2="264.814" stroke="#5A6D83" stroke-linecap="round" stroke-linejoin="round"/>
    <line x1="363.396" x2="381.3" y1="288.375" y2="278.047" stroke="#5A6D83" stroke-linecap="round" stroke-linejoin="round"/>
    <line x1="341.982" x2="361.443" y1="241.575" y2="230.35" stroke="#5A6D83" stroke-linecap="round" stroke-linejoin="round"/>
    <line x1="341.982" x2="373.315" y1="233.597" y2="215.522" stroke="#5A6D83" stroke-linecap="round" stroke-linejoin="round" stroke-width="2"/>
    <path fill="#FFF" d="M347.790741,110.230793 C347.790741,107.763421 346.473513,105.482744 344.335037,104.249634 C329.868603,95.9048232 274.072138,63.7183537 255.423333,52.9614878 C254.162624,52.2342988 252.610095,52.2342988 251.35054,52.9614878 C250.089831,53.6875244 249.313566,55.0312683 249.313566,56.4856463 C249.313566,71.8257622 249.313566,107.827957 249.313566,119.849049 C249.313566,122.316421 250.630794,124.597098 252.770423,125.830207 C267.235704,134.175018 323.033323,166.361488 341.680974,177.118354 C342.941683,177.845543 344.494212,177.845543 345.754921,177.118354 C347.014476,176.392317 347.790741,175.048573 347.790741,173.594195 C347.790741,158.254079 347.790741,122.251884 347.790741,110.230793 Z"/>
    <path stroke="#01050C" stroke-linecap="round" stroke-linejoin="round" d="M347.790741,110.230793 C347.790741,107.763421 346.473513,105.482744 344.335037,104.249634 C329.868603,95.9048232 274.072138,63.7183537 255.423333,52.9614878 C254.162624,52.2342988 252.610095,52.2342988 251.35054,52.9614878 C250.089831,53.6875244 249.313566,55.0312683 249.313566,56.4856463 C249.313566,71.8257622 249.313566,107.827957 249.313566,119.849049 C249.313566,122.316421 250.630794,124.597098 252.770423,125.830207 C267.235704,134.175018 323.033323,166.361488 341.680974,177.118354 C342.941683,177.845543 344.494212,177.845543 345.754921,177.118354 C347.014476,176.392317 347.790741,175.048573 347.790741,173.594195 C347.790741,158.254079 347.790741,122.251884 347.790741,110.230793 Z"/>
    <line x1="260.707" x2="268.128" y1="90.404" y2="94.684" stroke="#5A6D83" stroke-linecap="round" stroke-linejoin="round"/>
    <line x1="260.707" x2="285.032" y1="71.084" y2="85.115" stroke="#5A6D83" stroke-linecap="round" stroke-linejoin="round" stroke-width="2"/>
    <line x1="260.707" x2="271.839" y1="98.623" y2="105.045" stroke="#5A6D83" stroke-linecap="round" stroke-linejoin="round"/>
    <line x1="260.707" x2="279.261" y1="81.341" y2="92.044" stroke="#5A6D83" stroke-linecap="round" stroke-linejoin="round"/>
    <path fill="#FFF" d="M312.492042,104.066396 C312.916508,103.320768 313.703153,103.164037 314.555545,103.656128 C315.406783,104.147067 316.194582,105.211921 316.619048,106.447335 C320.036688,116.394037 326.833905,136.175652 330.241164,146.093543 C330.664476,147.324348 330.663323,148.537866 330.237704,149.277732 C329.812085,150.017598 329.027746,150.170872 328.178815,149.681085 C321.352762,145.743201 307.758328,137.902006 300.932275,133.964122 C300.083344,133.474335 299.297852,132.415244 298.872233,131.184439 C298.446614,129.953634 298.44546,128.738963 298.868772,127.99564 C302.276032,122.009872 309.073249,110.070604 312.492042,104.066396 Z"/>
    <path stroke="#E01A33" stroke-linecap="round" stroke-linejoin="round" stroke-width="2" d="M312.492042,104.066396 C312.916508,103.320768 313.703153,103.164037 314.555545,103.656128 C315.406783,104.147067 316.194582,105.211921 316.619048,106.447335 C320.036688,116.394037 326.833905,136.175652 330.241164,146.093543 C330.664476,147.324348 330.663323,148.537866 330.237704,149.277732 C329.812085,150.017598 329.027746,150.170872 328.178815,149.681085 C321.352762,145.743201 307.758328,137.902006 300.932275,133.964122 C300.083344,133.474335 299.297852,132.415244 298.872233,131.184439 C298.446614,129.953634 298.44546,128.738963 298.868772,127.99564 C302.276032,122.009872 309.073249,110.070604 312.492042,104.066396 Z"/>
    <line x1="314.556" x2="314.556" y1="115.601" y2="127.744" stroke="#E01A33" stroke-linecap="round" stroke-linejoin="round" stroke-width="2"/>
    <path fill="#E01A33" d="M314.555545,131.621213 C315.515206,132.174384 316.293778,133.669098 316.293778,134.95522 C316.293778,136.241341 315.515206,136.836 314.555545,136.282829 C313.595884,135.729659 312.816159,134.234945 312.816159,132.948823 C312.816159,131.662701 313.595884,131.068043 314.555545,131.621213 Z"/>
    <line x1="217.804" x2="220.042" y1="194.934" y2="200.098" stroke="#01050C" stroke-linecap="round" stroke-linejoin="round"/>
    <path fill="#FFF" d="M263.38091,121.355287 C264.139873,120.797506 265.076466,120.469061 266.089185,120.469061 C268.615217,120.469061 270.666032,122.518098 270.666032,125.041939 C270.666032,126.368396 270.099693,127.563476 269.195397,128.400146 L269.215005,128.423195 C269.215005,128.423195 256.968942,142.650055 254.607852,145.39286 C254.348328,145.693646 254.04728,145.956402 253.712783,146.171909 C251.596222,147.536396 243.342212,152.857207 239.080254,155.605774 C237.458519,156.651037 236.434265,158.406201 236.322381,160.330774 C235.818328,169.002878 234.415746,193.100378 234.415746,193.100378 L237.54272,227.60325 L238.78036,260.898366 C238.78382,260.969817 238.78728,261.040116 238.788434,261.111567 L238.788434,261.113872 C238.789587,261.161122 238.789587,261.208372 238.789587,261.255622 C238.789587,264.929598 235.804487,267.91211 232.128476,267.91211 C228.451312,267.91211 225.466212,264.929598 225.466212,261.255622 C225.466212,261.177256 225.467365,261.09889 225.470825,261.020524 L225.466212,261.020524 L223.994423,229.406817 L220.868603,209.568732 L218.784339,259.801244 L218.784339,259.830055 C218.784339,263.502878 215.799238,266.48539 212.122074,266.48539 C208.446063,266.48539 205.460963,263.502878 205.460963,259.830055 C205.460963,259.800091 205.460963,259.77128 205.460963,259.74247 L205.456349,259.74247 L205.465577,259.592652 C205.469037,259.473951 205.475958,259.356402 205.486339,259.240006 L207.320307,229.406817 L205.922339,190.69178 L204.399799,175.786134 L202.70309,183.900457 L202.99145,202.354463 L202.982222,202.354463 C202.999524,202.520415 203.008751,202.687518 203.008751,202.856927 C203.008751,205.380768 200.957937,207.430957 198.431905,207.430957 C195.905873,207.430957 193.855058,205.380768 193.855058,202.856927 C193.855058,202.687518 193.864286,202.520415 193.881587,202.354463 L193.836603,202.354463 C193.836603,202.354463 193.517101,186.135037 193.467503,183.62272 C193.462889,183.407213 193.475577,183.190555 193.504413,182.976201 C193.766243,181.041256 195.151524,170.782244 196.259979,162.571116 C197.126212,156.16125 201.924519,150.985646 208.254593,149.632683 C219.101534,147.315128 234.415746,144.043354 234.415746,144.043354 C234.415746,144.043354 246.146222,137.276232 248.570751,135.878323 C248.859111,135.71122 249.125556,135.50839 249.362011,135.27214 L262.546974,122.14586 C262.743058,121.907305 262.963365,121.688341 263.202127,121.493579 L263.363608,121.33339 L263.38091,121.355287 Z"/>
    <g transform="translate(192.624 119.355)">
      <mask id="mss@1x-e" fill="#fff">
        <use xlink:href="#mss@1x-d"/>
      </mask>
      <path fill="#EFF4F7" d="M56.5231323 25.5507256C56.5231323 25.5507256 49.6774709 28.9711646 44.4893016 31.563 40.9528571 33.329689 38.6252169 36.8457805 38.3829947 40.7882744 37.837418 49.6401585 36.8939048 64.9756646 36.6724444 68.5585976 36.6413016 69.0668232 36.6470688 69.5773537 36.6908995 70.0844268 37.1453545 75.4144573 39.8386349 106.963628 40.0704762 109.675317 40.0808571 109.798628 40.0889312 109.923091 40.093545 110.047555 40.1950476 112.448085 41.2400635 137.250878 41.2400635 137.250878 41.2400635 137.250878 41.2296825 137.352293 41.2112275 137.537835 40.973619 139.921079 39.5029841 142.006994 37.3368254 143.033817 35.1706667 144.059488 32.623873 143.877402 30.6261164 142.55325 30.6261164 142.55325 30.6261164 142.55325 30.6261164 142.55325L30.0113333 152.645159 56.5231323 151.022524 63.4437672 121.529305 91.8206772-2.59068293 68.7634286 1.05217683C68.7634286 1.05217683 71.2421693 2.29104878 73.6378624 3.48728049 74.6378942 3.98743902 75.3276508 4.94511585 75.485672 6.05030488 75.6425397 7.1554939 75.2457566 8.26759756 74.4256614 9.02590244 68.2951323 14.684378 56.5231323 25.5507256 56.5231323 25.5507256zM27.1980952 88.1811768L24.9673439 90.7038659 23.8139048 109.924244C23.8139048 109.924244 22.879619 125.16525 22.2002434 136.254018 22.0572169 138.586555 20.6788571 140.666707 18.5842116 141.70736 16.4907196 142.749165 13.999291 142.594738 12.0499788 141.302854 12.047672 141.301701 12.0465185 141.300549 12.0465185 141.300549L11.4317354 151.39361 29.8706138 147.927073C29.5914815 127.560018 31.8637566 105.306421 27.1980952 88.1811768zM11.2494921 45.9627256C11.2494921 45.9627256 7.96680423 61.0550671 7.40392593 63.6411402 7.34971429 63.8889146 7.32895238 64.1447561 7.34279365 64.3982927 7.43391534 66.1050549 7.81339683 73.179878 8.10752381 78.6839268 8.18941799 80.2178232 7.50081481 81.6917927 6.27009524 82.6125915 5.03937566 83.5333902 3.43032804 83.7800122 1.97930159 83.2706341 1.50754497 83.1046829 1.21226455 82.999811 1.21226455 82.999811L5.46960847 93.3798293 12.9104444 90.777622 12.9104444 64.7290427 11.2494921 45.9627256z" mask="url(#mss@1x-e)"/>
    </g>
    <path stroke="#01050C" stroke-linecap="round" stroke-linejoin="round" d="M263.38091,121.355287 C264.139873,120.797506 265.076466,120.469061 266.089185,120.469061 C268.615217,120.469061 270.666032,122.518098 270.666032,125.041939 C270.666032,126.368396 270.099693,127.563476 269.195397,128.400146 L269.215005,128.423195 C269.215005,128.423195 256.968942,142.650055 254.607852,145.39286 C254.348328,145.693646 254.04728,145.956402 253.712783,146.171909 C251.596222,147.536396 243.342212,152.857207 239.080254,155.605774 C237.458519,156.651037 236.434265,158.406201 236.322381,160.330774 C235.818328,169.002878 234.415746,193.100378 234.415746,193.100378 L237.54272,227.60325 L238.78036,260.898366 C238.78382,260.969817 238.78728,261.040116 238.788434,261.111567 L238.788434,261.113872 C238.789587,261.161122 238.789587,261.208372 238.789587,261.255622 C238.789587,264.929598 235.804487,267.91211 232.128476,267.91211 C228.451312,267.91211 225.466212,264.929598 225.466212,261.255622 C225.466212,261.177256 225.467365,261.09889 225.470825,261.020524 L225.466212,261.020524 L223.994423,229.406817 L220.868603,209.568732 L218.784339,259.801244 L218.784339,259.830055 C218.784339,263.502878 215.799238,266.48539 212.122074,266.48539 C208.446063,266.48539 205.460963,263.502878 205.460963,259.830055 C205.460963,259.800091 205.460963,259.77128 205.460963,259.74247 L205.456349,259.74247 L205.465577,259.592652 C205.469037,259.473951 205.475958,259.356402 205.486339,259.240006 L207.320307,229.406817 L205.922339,190.69178 L204.399799,175.786134 L202.70309,183.900457 L202.99145,202.354463 L202.982222,202.354463 C202.999524,202.520415 203.008751,202.687518 203.008751,202.856927 C203.008751,205.380768 200.957937,207.430957 198.431905,207.430957 C195.905873,207.430957 193.855058,205.380768 193.855058,202.856927 C193.855058,202.687518 193.864286,202.520415 193.881587,202.354463 L193.836603,202.354463 C193.836603,202.354463 193.517101,186.135037 193.467503,183.62272 C193.462889,183.407213 193.475577,183.190555 193.504413,182.976201 C193.766243,181.041256 195.151524,170.782244 196.259979,162.571116 C197.126212,156.16125 201.924519,150.985646 208.254593,149.632683 C219.101534,147.315128 234.415746,144.043354 234.415746,144.043354 C234.415746,144.043354 246.146222,137.276232 248.570751,135.878323 C248.859111,135.71122 249.125556,135.50839 249.362011,135.27214 L262.546974,122.14586 C262.743058,121.907305 262.963365,121.688341 263.202127,121.493579 L263.363608,121.33339 L263.38091,121.355287 Z"/>
    <polyline stroke="#01050C" stroke-linecap="round" stroke-linejoin="round" points="202.908 164.149 204.213 166.493 204.418 176.296"/>
    <line x1="220.082" x2="220.915" y1="207.795" y2="209.729" stroke="#01050C" stroke-linecap="round" stroke-linejoin="round"/>
    <path fill="#FFF" d="M215.817693,115.694506 C222.996698,115.694506 228.825026,121.51778 228.825026,128.690561 C228.825026,135.863341 222.996698,141.686616 215.817693,141.686616 C208.639841,141.686616 202.811513,135.863341 202.811513,128.690561 C202.811513,121.51778 208.639841,115.694506 215.817693,115.694506 Z"/>
    <g transform="translate(201.852 114.745)">
      <mask id="mss@1x-g" fill="#fff">
        <use xlink:href="#mss@1x-f"/>
      </mask>
      <path fill="#EFF4F7" d="M13.4537143,-0.00115243902 L13.6959365,-0.0126768293 C21.0237354,-0.0126768293 26.9731746,5.93160366 26.9731746,13.2530488 C26.9731746,20.5744939 21.0237354,26.5187744 13.6959365,26.5187744 C12.1584021,26.5187744 10.6808466,26.2560183 9.31056085,25.7604695 C16.5264762,25.6406159 22.3444233,19.7470427 22.3444233,12.5074207 C22.3444233,6.72217683 18.6303492,1.79780488 13.4537143,-0.00115243902 Z" mask="url(#mss@1x-g)"/>
    </g>
    <path stroke="#01050C" stroke-linecap="round" stroke-linejoin="round" d="M215.817693,115.694506 C222.996698,115.694506 228.825026,121.51778 228.825026,128.690561 C228.825026,135.863341 222.996698,141.686616 215.817693,141.686616 C208.639841,141.686616 202.811513,135.863341 202.811513,128.690561 C202.811513,121.51778 208.639841,115.694506 215.817693,115.694506 Z"/>
    <path fill="#EFF4F7" d="M203.015672,44.3550732 C203.015672,43.782311 202.708857,43.252189 202.211725,42.9652317 C201.715746,42.6794268 201.10327,42.6794268 200.606138,42.9652317 C189.752275,49.2264329 145.567481,74.7149268 137.231577,79.5229024 C136.389566,80.0080793 135.871672,80.9058293 135.871672,81.8761829 C135.871672,86.94 135.871672,102.895518 135.871672,109.377988 C135.871672,109.951902 136.177333,110.480872 136.674466,110.767829 C137.171598,111.054787 137.784074,111.054787 138.281206,110.767829 C149.133915,104.50778 193.319862,79.0181341 201.655767,74.2101585 C202.496624,73.7249817 203.015672,72.8283841 203.015672,71.856878 C203.015672,66.793061 203.015672,50.8375427 203.015672,44.3550732 Z"/>
    <path stroke="#01050C" stroke-linecap="round" stroke-linejoin="round" d="M203.015672,44.3550732 C203.015672,43.782311 202.708857,43.252189 202.211725,42.9652317 C201.715746,42.6794268 201.10327,42.6794268 200.606138,42.9652317 C189.752275,49.2264329 145.567481,74.7149268 137.231577,79.5229024 C136.389566,80.0080793 135.871672,80.9058293 135.871672,81.8761829 C135.871672,86.94 135.871672,102.895518 135.871672,109.377988 C135.871672,109.951902 136.177333,110.480872 136.674466,110.767829 C137.171598,111.054787 137.784074,111.054787 138.281206,110.767829 C149.133915,104.50778 193.319862,79.0181341 201.655767,74.2101585 C202.496624,73.7249817 203.015672,72.8283841 203.015672,71.856878 C203.015672,66.793061 203.015672,50.8375427 203.015672,44.3550732 Z"/>
    <line x1="164.653" x2="191.511" y1="76.62" y2="61.128" stroke="#01050C" stroke-linecap="round" stroke-linejoin="round"/>
    <line x1="164.653" x2="184.123" y1="85.312" y2="74.08" stroke="#01050C" stroke-linecap="round" stroke-linejoin="round"/>
    <path fill="#FFF" d="M149.861735,79.2762805 C151.595354,78.2759634 153.001397,79.1172439 153.001397,81.1536037 C153.001397,83.1911159 151.595354,85.6561829 149.861735,86.6553476 C148.128116,87.6556646 146.720921,86.8132317 146.720921,84.776872 C146.720921,82.7405122 148.128116,80.2754451 149.861735,79.2762805 Z"/>
    <path stroke="#01050C" stroke-linecap="round" stroke-linejoin="round" d="M149.861735,79.2762805 C151.595354,78.2759634 153.001397,79.1172439 153.001397,81.1536037 C153.001397,83.1911159 151.595354,85.6561829 149.861735,86.6553476 C148.128116,87.6556646 146.720921,86.8132317 146.720921,84.776872 C146.720921,82.7405122 148.128116,80.2754451 149.861735,79.2762805 Z"/>
    <path fill="#FFF" d="M154.856127,95.0439512 L154.856127,91.0772561 C154.856127,88.0532561 152.769556,86.8063171 150.197386,88.2906585 C149.973619,88.4197317 149.749852,88.5488049 149.526085,88.677878 C146.952762,90.1610671 144.867344,93.8154512 144.867344,96.8382988 L144.867344,100.804994 L150.197386,97.731439"/>
    <path stroke="#01050C" stroke-linecap="round" stroke-linejoin="round" d="M154.856127,95.0439512 L154.856127,91.0772561 C154.856127,88.0532561 152.769556,86.8063171 150.197386,88.2906585 C149.973619,88.4197317 149.749852,88.5488049 149.526085,88.677878 C146.952762,90.1610671 144.867344,93.8154512 144.867344,96.8382988 L144.867344,100.804994 L150.197386,97.731439"/>
    <path fill="#FFF" fill-opacity=".9" d="M135.314561,249.34286 C135.314561,246.9285 134.025016,244.697378 131.932677,243.489622 C121.627852,237.545341 90.5613524,219.624915 78.0018995,212.380683 C76.8973661,211.743384 75.5364233,211.743384 74.4318899,212.37953 C73.3273566,213.016829 72.6469429,214.194622 72.6469429,215.46922 C72.6469429,233.194884 72.6469429,283.874543 72.6469429,298.34572 C72.6469429,300.759964 73.9360265,302.990855 76.0287111,304.198035 C86.3330751,310.142085 117.399344,328.062973 129.959143,335.307896 C131.064138,335.944965 132.425196,335.944965 133.529037,335.307896 C134.634032,334.670713 135.314561,333.493151 135.314561,332.218899 C135.314561,314.493004 135.314561,263.812884 135.314561,249.34286 Z"/>
    <path stroke="#01050C" stroke-linecap="round" stroke-linejoin="round" stroke-opacity=".9" d="M135.314561,249.34286 C135.314561,246.9285 134.025016,244.697378 131.932677,243.489622 C121.627852,237.545341 90.5613524,219.624915 78.0018995,212.380683 C76.8973661,211.743384 75.5364233,211.743384 74.4318899,212.37953 C73.3273566,213.016829 72.6469429,214.194622 72.6469429,215.46922 C72.6469429,233.194884 72.6469429,283.874543 72.6469429,298.34572 C72.6469429,300.759964 73.9360265,302.990855 76.0287111,304.198035 C86.3330751,310.142085 117.399344,328.062973 129.959143,335.307896 C131.064138,335.944965 132.425196,335.944965 133.529037,335.307896 C134.634032,334.670713 135.314561,333.493151 135.314561,332.218899 C135.314561,314.493004 135.314561,263.812884 135.314561,249.34286 Z"/>
    <path stroke="#B1BBC9" stroke-linecap="round" stroke-linejoin="round" d="M103.034989,254.030982 C108.457768,257.158701 112.860446,264.778628 112.860446,271.034067 C112.860446,277.290659 108.457768,279.830634 103.034989,276.701762 C97.6122106,273.574043 93.2096487,265.955268 93.2096487,259.698677 C93.2096487,253.442085 97.6122106,250.903262 103.034989,254.030982 Z"/>
    <path stroke="#B1BBC9" stroke-linecap="round" stroke-linejoin="round" d="M103.034989,241.416384 C114.675728,248.130494 124.126201,264.485909 124.126201,277.91528 C124.126201,291.345574 114.675728,296.797187 103.034989,290.082732 C91.3943661,283.36747 81.9436624,267.012055 81.9436624,253.582683 C81.9436624,240.153311 91.3943661,234.701122 103.034989,241.416384 Z"/>
    <polyline stroke="#B1BBC9" stroke-linecap="round" stroke-linejoin="round" points="103.035 241.416 103.035 265.366 124.126 277.533"/>
    <path fill="#E01A33" d="M103.034989 238.439634C104.374594 239.212921 105.462171 241.094854 105.462171 242.640274 105.462171 244.185695 104.374594 244.812622 103.034989 244.040488 101.695501 243.267201 100.607923 241.385268 100.607923 239.839848 100.607923 238.294427 101.695501 237.6675 103.034989 238.439634zM103.034989 262.565945C104.374594 263.339232 105.462171 265.221165 105.462171 266.766585 105.462171 268.312006 104.374594 268.938933 103.034989 268.166799 101.695501 267.393512 100.607923 265.511579 100.607923 263.966159 100.607923 262.420738 101.695501 261.793811 103.034989 262.565945zM123.589852 274.42339C124.930148 275.196677 126.017841 277.07861 126.017841 278.62403 126.017841 280.169451 124.930148 280.796378 123.589852 280.024244 122.250709 279.250957 121.163016 277.369024 121.163016 275.823604 121.163016 274.278183 122.250709 273.651256 123.589852 274.42339z"/>
    <line x1="83.837" x2="106.219" y1="288.045" y2="300.956" stroke="#01050C" stroke-linecap="round" stroke-linejoin="round"/>
    <line x1="83.837" x2="97.266" y1="295.792" y2="303.538" stroke="#01050C" stroke-linecap="round" stroke-linejoin="round"/>
  </g>
</svg>
