<?xml version="1.0" encoding="UTF-8"?>
<svg xmlns="http://www.w3.org/2000/svg" xmlns:xlink="http://www.w3.org/1999/xlink" width="444" height="438" viewBox="0 0 444 438">
  <defs>
    <path id="partners@1x-a" d="M80.1049257,2.7010743 C97.8784334,9.02140341 107.245006,17.2059241 108.203489,25.4912588 L108.255455,25.4912588 L108.255455,26.0472944 C108.295873,26.6221533 108.295873,27.197243 108.255455,27.7722173 L108.255455,48.6641437 L108.224276,48.6641437 C107.387046,57.0140316 98.0135449,65.2754619 80.1049257,71.6435997 C58.3976386,79.3623689 28.8688391,82.6219433 0.555458204,81.422323 L0.555458204,0.807308637 L74.332471,0.807308637 C76.3107118,1.40553716 78.2367835,2.03679238 80.1049257,2.7010743 Z"></path>
    <linearGradient id="partners@1x-b" x1="0%" x2="39.609%" y1="69.028%" y2="68.239%">
      <stop offset="0%" stop-color="#FFF"></stop>
      <stop offset="100%" stop-color="#EFF4F6"></stop>
    </linearGradient>
    <path id="partners@1x-d" d="M114.01178,6.97036533 C114.01178,3.37201238 111.095452,0.456145511 107.498023,0.456145511 C87.4939056,0.456145511 27.0952743,0.456145511 7.09115728,0.456145511 C3.49372817,0.456145511 0.577399381,3.37201238 0.577399381,6.97036533 C0.577399381,22.6733189 0.577399381,62.4815418 0.577399381,78.1856502 C0.577399381,81.7828483 3.49372817,84.6987152 7.09115728,84.6987152 L107.498023,84.6987152 C111.095452,84.6987152 114.01178,81.7828483 114.01178,78.1856502 C114.01178,62.4815418 114.01178,22.6733189 114.01178,6.97036533 Z"></path>
    <path id="partners@1x-f" d="M88.0765015,4.58686068 C88.0765015,2.67335913 86.5256068,1.1224644 84.6121053,1.1224644 C70.5177864,1.1224644 17.5633344,1.1224644 3.46786068,1.1224644 C1.55435913,1.1224644 0.00346439628,2.67335913 0.00346439628,4.58686068 C0.00346439628,15.310322 0.00346439628,47.8814211 0.00346439628,58.6048824 C0.00346439628,60.5183839 1.55435913,62.0692786 3.46786068,62.0692786 C17.5633344,62.0692786 70.5177864,62.0692786 84.6121053,62.0692786 C86.5256068,62.0692786 88.0765015,60.5183839 88.0765015,58.6048824 C88.0765015,47.8814211 88.0765015,15.310322 88.0765015,4.58686068 Z"></path>
    <path id="partners@1x-h" d="M243.618656,5.01067183 C243.618656,2.70915789 241.753656,0.844157895 239.453297,0.844157895 C210.019786,0.844157895 33.7287848,0.844157895 4.29527399,0.844157895 C1.99445294,0.844157895 0.129337461,2.70915789 0.129337461,5.01067183 C0.129337461,28.2082693 0.129337461,141.241127 0.129337461,164.438724 C0.129337461,166.739084 1.99445294,168.604084 4.29527399,168.604084 C33.7287848,168.604084 210.019786,168.604084 239.453297,168.604084 C241.753656,168.604084 243.618656,166.739084 243.618656,164.438724 C243.618656,141.241127 243.618656,28.2082693 243.618656,5.01067183 Z"></path>
    <path id="partners@1x-j" d="M32.8609536,132.247208 L32.8112972,132.24282 L33.3736842,101.183467 L37.5390433,61.5669412 L37.9212817,24.7819814 C37.9212817,24.7819814 31.9740681,34.0896594 29.8677152,37.3854551 C29.3884737,38.1349195 28.7406316,38.7619752 27.975,39.2146563 L8.55013003,50.7268452 C8.2983839,50.9093034 8.03047059,51.0709752 7.74754489,51.2026223 L6.14352941,52.1530217 L5.99802477,51.7061146 C5.81094737,51.7269009 5.61925077,51.7372941 5.42408978,51.7372941 C2.46087616,51.7372941 0.0542755418,49.3318483 0.0542755418,46.3674799 C0.0542755418,44.3823808 1.13401238,42.6467183 2.74033746,41.7217245 L2.73918266,41.7171053 C2.73918266,41.7171053 12.521483,35.3922724 17.6753498,32.0583684 C19.7089505,30.7442074 21.3845635,28.9473406 22.5555294,26.8294396 C25.0856935,22.2495077 29.7972724,13.7236285 33.2709071,7.43690402 C35.8934551,2.69183591 41.0450124,-0.0866099071 46.4506254,0.329117647 C51.1691331,0.692879257 56.9419721,1.13632198 61.6073591,1.4943096 C66.7635356,1.89156037 71.1690929,5.36173065 72.7627152,10.2823282 C75.4453127,18.5680093 79.3404489,30.5987028 80.2781455,33.4949381 C80.4167214,33.9233684 80.5067957,34.3656563 80.5472136,34.8137183 L82.77713,59.4490402 L82.8314056,59.8012539 L82.8591207,60.3497833 C82.8591207,63.3141517 80.4525201,65.7195975 77.4881517,65.7195975 C74.5249381,65.7195975 72.1183375,63.3141517 72.1183375,60.3497833 L72.1298854,60.1349907 L70.129774,36.2502879 L66.204613,25.8928978 L66.985257,63.2356254 L66.204613,99.0805789 L69.3398916,130.28174 L69.2936997,130.2889 C69.3583684,130.691001 69.3907028,131.10338 69.3907028,131.523264 C69.3907028,135.836669 65.8893529,139.33848 61.5761796,139.33848 C57.6579474,139.33848 54.4083437,136.448019 53.8471115,132.684646 L53.8332539,132.686724 L53.8274799,132.543876 C53.7835975,132.209908 53.7605015,131.869242 53.7605015,131.523264 C53.7605015,131.405244 53.7639659,131.287801 53.7685851,131.170935 L52.3493375,97.7906687 L50.6471641,76.5862539 L48.472678,101.183467 L48.4322601,132.758437 C48.4380341,132.883271 48.4414985,133.009028 48.4414985,133.135363 C48.4414985,133.268743 48.4380341,133.401314 48.4311053,133.532961 L48.4311053,133.622689 L48.4264861,133.622227 C48.1747399,137.709175 44.7761672,140.95058 40.6258204,140.95058 C36.3126471,140.95058 32.8112972,137.448768 32.8112972,133.135363 C32.8112972,132.835116 32.8274644,132.538794 32.8609536,132.247208 Z"></path>
    <path id="partners@1x-l" d="M15.9269845,0.44806192 C7.50503715,0.44806192 0.667473684,7.28562539 0.667473684,15.7075728 C0.667473684,24.1295201 7.50503715,30.9670836 15.9269845,30.9670836 C24.3489319,30.9670836 31.1864954,24.1295201 31.1864954,15.7075728 C31.1864954,7.28562539 24.3489319,0.44806192 15.9269845,0.44806192 Z"></path>
    <path id="partners@1x-n" d="M8.37806502,131.500746 L10.111418,97.6867368 L9.33077399,61.8429381 L9.33077399,54.8460124 C9.33077399,54.8460124 4.1196291,41.971161 1.65413375,35.8784427 C0.828568111,33.8390681 0.606731269,31.6045325 1.01506811,29.4427492 C1.76788142,25.4563839 3.07153375,18.5529969 4.19931022,12.5815325 C5.44487616,5.98301238 11.0953065,1.12708359 17.8058421,0.888040248 C22.6536873,0.714820433 28.0800867,0.520814241 32.0398916,0.379928793 C35.5447059,0.255210526 38.8520495,2.00357585 40.7216687,4.97025387 C44.6526037,11.2038576 51.3204118,21.7783498 53.878291,25.8363127 C54.5469195,26.896418 55.6024056,27.6528111 56.8218731,27.9449752 L72.2107214,31.6322477 C74.7154799,32.0860836 76.6174334,34.2802012 76.6174334,36.915452 C76.6174334,39.8798204 74.2119876,42.2864211 71.2476192,42.2864211 C70.904644,42.2864211 70.5697523,42.2540867 70.2440991,42.1917276 L70.2429443,42.1998111 L70.1424768,42.172096 C69.9068978,42.1224396 69.6759381,42.0577709 69.4530619,41.9780898 L49.3179907,36.3218854 C47.9322322,35.9327183 46.7220031,35.0816316 45.8870836,33.9095108 C43.4469938,30.4832229 38.3947492,23.3892941 38.3947492,23.3892941 L38.7769876,60.1742539 L42.9423467,99.7896254 L43.5347585,134.324575 L43.5012693,134.325961 C43.5035789,134.405642 43.5047337,134.48567 43.5047337,134.565928 C43.5047337,138.879217 40.0033839,142.381144 35.6902105,142.381144 C31.509839,142.381144 28.0916347,139.092508 27.8849257,134.963756 L27.8572105,134.964911 L27.8433529,99.7896254 L23.9666935,75.6381641 L23.9666935,96.3979814 L23.9424427,131.684359 C23.9586099,131.890721 23.9666935,132.099278 23.9666935,132.309913 C23.9666935,132.524244 23.9586099,132.736611 23.9412879,132.946554 L23.9412879,133.480302 L23.8800836,133.475798 C23.3165418,137.236978 20.0692477,140.125014 16.1521703,140.125014 C11.8378421,140.125014 8.33649226,136.623318 8.33649226,132.309913 C8.33649226,132.036688 8.35034985,131.766696 8.37806502,131.500746 Z"></path>
    <path id="partners@1x-p" d="M15.3518947,0.209018576 C23.7738421,0.209018576 30.6114056,7.04658204 30.6114056,15.4685294 C30.6114056,23.8904768 23.7738421,30.7280402 15.3518947,30.7280402 C6.92994737,30.7280402 0.0923839009,23.8904768 0.0923839009,15.4685294 C0.0923839009,7.04658204 6.92994737,0.209018576 15.3518947,0.209018576 Z"></path>
    <path id="partners@1x-r" d="M10.8377864,0.192851393 L12.3748235,16.7018545 L12.4290991,17.0540681 L12.4568142,17.6025975 C12.4568142,20.5658111 10.0502136,22.9724118 7.087,22.9724118 C4.12263158,22.9724118 1.71718576,20.5658111 1.71718576,17.6025975 L1.72757895,17.3866502 L0.67093808,5.27743034 L10.8377864,0.192851393 Z"></path>
    <path id="partners@1x-t" d="M5.01529102,0.810668731 C7.43228483,-0.397250774 9.39313313,0.952708978 9.39313313,3.8235387 C9.39313313,6.69321362 7.43228483,10.0051765 5.01529102,11.213096 C2.59945201,12.4210155 0.638603715,11.0710557 0.638603715,8.20022601"></path>
  </defs>
  <g fill="none" fill-rule="evenodd" transform="translate(46 32)">
    <path fill="#EFF4F7" d="M93.4848861,295.788192 C142.853226,278.233287 223.015892,278.233287 272.385848,295.788192 C321.75465,313.343096 321.75465,341.847802 272.385848,359.402707 C223.015892,376.957611 142.853226,376.957611 93.4848861,359.402707 C44.1158533,341.847802 44.1158533,313.343096 93.4848861,295.788192 Z"></path>
    <path fill="#5A6D83" fill-opacity=".2" d="M144.441074,298.050327 C177.982204,286.123334 232.445978,286.123334 265.987108,298.050327 C299.528238,309.977204 299.528238,329.34341 265.987108,341.270287 C232.445978,353.197164 177.982204,353.197164 144.441074,341.270287 C110.899598,329.34341 110.899598,309.977204 144.441074,298.050327 Z"></path>
    <path fill="#FFF" d="M86.7832424,297.344398 C85.5432195,288.044342 94.9005539,278.598319 114.85513,271.502427 C152.429972,258.141406 213.4403,258.141406 251.015142,271.502427 C268.78865,277.822756 278.155223,286.007277 279.113706,294.292612 L279.165672,294.292612 L279.165672,294.848647 C279.20609,295.423506 279.20609,295.998596 279.165672,296.57357 L279.165672,317.465497 L279.134492,317.465497 C278.297263,325.815385 268.923762,334.076815 251.015142,340.444953 C213.4403,353.805974 152.429972,353.805974 114.85513,340.444953 C94.9005539,333.349407 85.5432195,323.903384 86.7832424,314.603443 L86.7832424,297.344398 Z"></path>
    <g transform="translate(170.91 268.801)">
      <mask id="partners@1x-c" fill="#fff">
        <use xlink:href="#partners@1x-a"></use>
      </mask>
      <polygon fill="url(#partners@1x-b)" points=".555 91.44 110.913 91.44 110.913 .808 .555 .808" mask="url(#partners@1x-c)"></polygon>
    </g>
    <path stroke="#01050C" stroke-linecap="round" stroke-linejoin="round" d="M86.7832424,297.344398 C85.5432195,288.044342 94.9005539,278.598319 114.85513,271.502427 C152.429972,258.141406 213.4403,258.141406 251.015142,271.502427 C268.78865,277.822756 278.155223,286.007277 279.113706,294.292612 L279.165672,294.292612 L279.165672,294.848647 C279.20609,295.423506 279.20609,295.998596 279.165672,296.57357 L279.165672,317.465497 L279.134492,317.465497 C278.297263,325.815385 268.923762,334.076815 251.015142,340.444953 C213.4403,353.805974 152.429972,353.805974 114.85513,340.444953 C94.9005539,333.349407 85.5432195,323.903384 86.7832424,314.603443 L86.7832424,297.344398 Z"></path>
    <path fill="#FFF" d="M114.855015,270.916944 C152.429972,257.557077 213.4403,257.557077 251.015142,270.916944 C288.589985,284.278428 288.589985,305.97317 251.015142,319.334076 C213.4403,332.694983 152.429972,332.694983 114.855015,319.334076 C77.2806344,305.97317 77.2806344,284.278428 114.855015,270.916944 Z"></path>
    <path stroke="#01050C" stroke-linecap="round" stroke-linejoin="round" d="M114.855015,270.916944 C152.429972,257.557077 213.4403,257.557077 251.015142,270.916944 C288.589985,284.278428 288.589985,305.97317 251.015142,319.334076 C213.4403,332.694983 152.429972,332.694983 114.855015,319.334076 C77.2806344,305.97317 77.2806344,284.278428 114.855015,270.916944 Z"></path>
    <path fill="#5A6D83" fill-opacity=".12" d="M139.045854 292.789872C153.241796 293.521553 164.595777 297.434357 164.384449 301.522229 164.174276 305.610102 152.477319 308.334849 138.281378 307.603169 124.085437 306.871488 112.731686 302.958684 112.942321 298.870811 113.153072 294.782939 124.849913 292.058192 139.045854 292.789872zM225.110697 279.572276C239.320495 279.225837 250.938926 282.266768 251.038238 286.358913 251.138706 290.450943 239.681947 294.054377 225.472149 294.400816 211.261195 294.747256 199.642765 291.706209 199.543452 287.61418 199.442985 283.52215 210.899743 279.918601 225.110697 279.572276z"></path>
    <path fill="#FFF" d="M114.01178,72.5271362 C114.01178,68.9287833 111.095452,66.0129164 107.498023,66.0129164 C87.4939056,66.0129164 27.0952743,66.0129164 7.09115728,66.0129164 C3.49372817,66.0129164 0.577399381,68.9287833 0.577399381,72.5271362 C0.577399381,88.2300898 0.577399381,128.038313 0.577399381,143.742421 C0.577399381,147.339619 3.49372817,150.255486 7.09115728,150.255486 L107.498023,150.255486 C111.095452,150.255486 114.01178,147.339619 114.01178,143.742421 C114.01178,128.038313 114.01178,88.2300898 114.01178,72.5271362 Z"></path>
    <g transform="translate(0 65.557)">
      <mask id="partners@1x-e" fill="#fff">
        <use xlink:href="#partners@1x-d"></use>
      </mask>
      <polygon fill="#B1BBC9" fill-opacity=".2" points="51.966 87.123 74.172 87.123 74.172 -7.741 51.966 -7.741" mask="url(#partners@1x-e)"></polygon>
    </g>
    <path stroke="#B1BBC9" stroke-linecap="round" stroke-linejoin="round" d="M114.01178,72.5271362 C114.01178,68.9287833 111.095452,66.0129164 107.498023,66.0129164 C87.4939056,66.0129164 27.0952743,66.0129164 7.09115728,66.0129164 C3.49372817,66.0129164 0.577399381,68.9287833 0.577399381,72.5271362 C0.577399381,88.2300898 0.577399381,128.038313 0.577399381,143.742421 C0.577399381,147.339619 3.49372817,150.255486 7.09115728,150.255486 L107.498023,150.255486 C111.095452,150.255486 114.01178,147.339619 114.01178,143.742421 C114.01178,128.038313 114.01178,88.2300898 114.01178,72.5271362 Z"></path>
    <line x1="15.499" x2="74.364" y1="86.752" y2="86.752" stroke="#B1BBC9" stroke-linecap="round" stroke-linejoin="round"></line>
    <line x1="15.499" x2="36.277" y1="98.696" y2="99.13" stroke="#B1BBC9" stroke-linecap="round" stroke-linejoin="round"></line>
    <line x1="41.331" x2="49.958" y1="99.007" y2="99.007" stroke="#B1BBC9" stroke-linecap="round" stroke-linejoin="round"></line>
    <line x1="15.499" x2="57.295" y1="108.693" y2="108.693" stroke="#B1BBC9" stroke-linecap="round" stroke-linejoin="round"></line>
    <line x1="15.499" x2="30.252" y1="120.637" y2="121.071" stroke="#B1BBC9" stroke-linecap="round" stroke-linejoin="round"></line>
    <line x1="33.84" x2="39.966" y1="120.948" y2="120.948" stroke="#B1BBC9" stroke-linecap="round" stroke-linejoin="round"></line>
    <path fill="#FFF" d="M351.370619,73.6080279 C351.370619,71.6945263 349.819724,70.1436316 347.906223,70.1436316 C333.811904,70.1436316 280.857452,70.1436316 266.761978,70.1436316 C264.848477,70.1436316 263.297582,71.6945263 263.297582,73.6080279 C263.297582,84.3314892 263.297582,116.902588 263.297582,127.62605 C263.297582,129.539551 264.848477,131.090446 266.761978,131.090446 C280.857452,131.090446 333.811904,131.090446 347.906223,131.090446 C349.819724,131.090446 351.370619,129.539551 351.370619,127.62605 C351.370619,116.902588 351.370619,84.3314892 351.370619,73.6080279 Z"></path>
    <g transform="translate(263.294 69.021)">
      <mask id="partners@1x-g" fill="#fff">
        <use xlink:href="#partners@1x-f"></use>
      </mask>
      <polygon fill="#B1BBC9" fill-opacity=".2" points="32.937 71.886 55.143 71.886 55.143 -22.977 32.937 -22.977" mask="url(#partners@1x-g)"></polygon>
    </g>
    <path stroke="#B1BBC9" stroke-linecap="round" stroke-linejoin="round" d="M351.370619,73.6080279 C351.370619,71.6945263 349.819724,70.1436316 347.906223,70.1436316 C333.811904,70.1436316 280.857452,70.1436316 266.761978,70.1436316 C264.848477,70.1436316 263.297582,71.6945263 263.297582,73.6080279 C263.297582,84.3314892 263.297582,116.902588 263.297582,127.62605 C263.297582,129.539551 264.848477,131.090446 266.761978,131.090446 C280.857452,131.090446 333.811904,131.090446 347.906223,131.090446 C349.819724,131.090446 351.370619,129.539551 351.370619,127.62605 C351.370619,116.902588 351.370619,84.3314892 351.370619,73.6080279 Z"></path>
    <line x1="299.354" x2="340.897" y1="80.978" y2="80.978" stroke="#B1BBC9" stroke-linecap="round" stroke-linejoin="round"></line>
    <line x1="299.354" x2="314.017" y1="92.922" y2="93.356" stroke="#B1BBC9" stroke-linecap="round" stroke-linejoin="round"></line>
    <line x1="317.584" x2="323.673" y1="93.233" y2="93.233" stroke="#B1BBC9" stroke-linecap="round" stroke-linejoin="round"></line>
    <line x1="299.354" x2="328.851" y1="102.919" y2="102.919" stroke="#B1BBC9" stroke-linecap="round" stroke-linejoin="round"></line>
    <line x1="299.354" x2="309.766" y1="114.863" y2="115.297" stroke="#B1BBC9" stroke-linecap="round" stroke-linejoin="round"></line>
    <line x1="312.298" x2="316.62" y1="115.174" y2="115.174" stroke="#B1BBC9" stroke-linecap="round" stroke-linejoin="round"></line>
    <path fill="#EFF4F7" d="M334.988644 189.594861C334.988644 188.676796 334.623728 187.795684 333.973576 187.145533 333.323424 186.495381 332.442313 186.130464 331.524248 186.130464 322.798588 186.130464 299.995932 186.130464 291.270272 186.130464 290.351053 186.130464 289.469941 186.495381 288.820944 187.145533 288.170793 187.795684 287.805876 188.676796 287.805876 189.594861 287.805876 195.719913 287.805876 208.389211 287.805876 214.513108 287.805876 215.432328 288.170793 216.31344 288.820944 216.962437 289.469941 217.612588 290.351053 217.977505 291.270272 217.977505 299.995932 217.977505 322.798588 217.977505 331.524248 217.977505 332.442313 217.977505 333.323424 217.612588 333.973576 216.962437 334.623728 216.31344 334.988644 215.432328 334.988644 214.513108 334.988644 208.389211 334.988644 195.719913 334.988644 189.594861zM85.6036155 194.247545C85.6036155 192.334043 84.0524898 190.783149 82.1392192 190.783149 75.4561678 190.783149 60.8548923 190.783149 54.1718409 190.783149 52.2585703 190.783149 50.7074446 192.334043 50.7074446 194.247545 50.7074446 198.842489 50.7074446 206.902985 50.7074446 211.497929 50.7074446 213.41143 52.2585703 214.962325 54.1718409 214.962325 60.8548923 214.962325 75.4561678 214.962325 82.1392192 214.962325 84.0524898 214.962325 85.6036155 213.41143 85.6036155 211.497929 85.6036155 206.902985 85.6036155 198.842489 85.6036155 194.247545zM54.3690805 39.5137492C54.3690805 37.6002477 52.8180703 36.0493529 50.9046842 36.0493529 46.7079146 36.0493529 39.6799248 36.0493529 35.4831551 36.0493529 33.569769 36.0493529 32.0187588 37.6002477 32.0187588 39.5137492 32.0187588 42.0658545 32.0187588 45.5198576 32.0187588 48.070808 32.0187588 49.9843096 33.569769 51.5352043 35.4831551 51.5352043 39.6799248 51.5352043 46.7079146 51.5352043 50.9046842 51.5352043 52.8180703 51.5352043 54.3690805 49.9843096 54.3690805 48.070808 54.3690805 45.5198576 54.3690805 42.0658545 54.3690805 39.5137492z"></path>
    <path fill="#FFF" d="M308.287387,5.89871207 C308.287387,3.59719814 306.422387,1.73219814 304.122028,1.73219814 C274.688517,1.73219814 98.3975155,1.73219814 68.9640046,1.73219814 C66.6631836,1.73219814 64.7980681,3.59719814 64.7980681,5.89871207 C64.7980681,29.0963096 64.7980681,142.129167 64.7980681,165.326765 C64.7980681,167.627124 66.6631836,169.492124 68.9640046,169.492124 C98.3975155,169.492124 274.688517,169.492124 304.122028,169.492124 C306.422387,169.492124 308.287387,167.627124 308.287387,165.326765 C308.287387,142.129167 308.287387,29.0963096 308.287387,5.89871207 Z"></path>
    <g transform="translate(64.669 .888)">
      <mask id="partners@1x-i" fill="#fff">
        <use xlink:href="#partners@1x-h"></use>
      </mask>
      <polygon fill="#EFF4F7" points="-13.302 17.136 249.939 17.136 249.939 -13.859 -13.302 -13.859" mask="url(#partners@1x-i)"></polygon>
    </g>
    <path stroke="#01050C" stroke-linecap="round" stroke-linejoin="round" d="M308.287387,5.89871207 C308.287387,3.59719814 306.422387,1.73219814 304.122028,1.73219814 C274.688517,1.73219814 98.3975155,1.73219814 68.9640046,1.73219814 C66.6631836,1.73219814 64.7980681,3.59719814 64.7980681,5.89871207 C64.7980681,29.0963096 64.7980681,142.129167 64.7980681,165.326765 C64.7980681,167.627124 66.6631836,169.492124 68.9640046,169.492124 C98.3975155,169.492124 274.688517,169.492124 304.122028,169.492124 C306.422387,169.492124 308.287387,167.627124 308.287387,165.326765 C308.287387,142.129167 308.287387,29.0963096 308.287387,5.89871207 Z"></path>
    <polygon fill="#EFF4F7" points="92.949 112.437 101.032 112.437 101.032 92.805 92.949 92.805"></polygon>
    <polygon fill="#EFF4F7" points="105.652 112.437 113.735 112.437 113.735 70.277 105.652 70.277"></polygon>
    <polygon fill="#EFF4F7" points="118.965 112.132 127.049 112.132 127.049 79.798 118.965 79.798"></polygon>
    <polygon fill="#EFF4F7" points="132.279 111.826 140.362 111.826 140.362 75.161 132.279 75.161"></polygon>
    <polygon fill="#EFF4F7" points="145.592 111.521 153.676 111.521 153.676 62.442 145.592 62.442"></polygon>
    <polygon fill="#EFF4F7" points="158.906 111.215 166.99 111.215 166.99 87.253 158.906 87.253"></polygon>
    <polygon fill="#EFF4F7" points="172.22 110.91 180.303 110.91 180.303 75.112 172.22 75.112"></polygon>
    <polygon fill="#EFF4F7" points="185.533 110.604 193.617 110.604 193.617 54.308 185.533 54.308"></polygon>
    <path fill="#EFF4F7" d="M256.827245,60.9121703 C261.362139,60.9121703 265.044793,64.5717276 265.044793,69.0777523 C265.044793,73.5849319 261.362139,77.2433344 256.827245,77.2433344 C252.291195,77.2433344 248.609697,73.5849319 248.609697,69.0777523 C248.609697,64.5717276 252.291195,60.9121703 256.827245,60.9121703 Z"></path>
    <path stroke="#01050C" stroke-linecap="round" stroke-linejoin="round" d="M256.827245,38.643031 C273.732344,38.643031 287.457127,52.2800495 287.457127,69.0777523 C287.457127,85.8754551 273.732344,99.5136285 256.827245,99.5136285 C239.922146,99.5136285 226.197362,85.8754551 226.197362,69.0777523 C226.197362,52.2800495 239.922146,38.643031 256.827245,38.643031 Z"></path>
    <path stroke="#01050C" stroke-linecap="round" stroke-linejoin="round" d="M256.827245,52.8505201 C265.840449,52.8505201 273.158409,60.1222879 273.158409,69.0777523 C273.158409,78.0343715 265.840449,85.3049845 256.827245,85.3049845 C247.81404,85.3049845 240.49608,78.0343715 240.49608,69.0777523 C240.49608,60.1222879 247.81404,52.8505201 256.827245,52.8505201 Z"></path>
    <polyline stroke="#01050C" stroke-linecap="round" stroke-linejoin="round" points="256.827 38.643 256.827 69.078 287.457 69.078"></polyline>
    <path fill="#01050C" d="M256.827245 65.2149505C258.972861 65.2149505 260.715452 66.9459938 260.715452 69.0777523 260.715452 71.2106656 258.972861 72.941709 256.827245 72.941709 254.681628 72.941709 252.939037 71.2106656 252.939037 69.0777523 252.939037 66.9459938 254.681628 65.2149505 256.827245 65.2149505zM256.827245 34.5319474C258.972861 34.5319474 260.715452 36.2629907 260.715452 38.395904 260.715452 40.5276625 258.972861 42.2587059 256.827245 42.2587059 254.681628 42.2587059 252.939037 40.5276625 252.939037 38.395904 252.939037 36.2629907 254.681628 34.5319474 256.827245 34.5319474zM287.457127 65.2149505C289.602743 65.2149505 291.345334 66.9459938 291.345334 69.0777523 291.345334 71.2106656 289.602743 72.941709 287.457127 72.941709 285.310356 72.941709 283.56892 71.2106656 283.56892 69.0777523 283.56892 66.9459938 285.310356 65.2149505 287.457127 65.2149505z"></path>
    <line x1="247.681" x2="266.931" y1="115.9" y2="116.334" stroke="#B1BBC9" stroke-linecap="round" stroke-linejoin="round"></line>
    <line x1="259.012" x2="271.791" y1="125.85" y2="125.968" stroke="#B1BBC9" stroke-linecap="round" stroke-linejoin="round"></line>
    <line x1="251.22" x2="261.463" y1="135.818" y2="135.968" stroke="#B1BBC9" stroke-linecap="round" stroke-linejoin="round"></line>
    <line x1="275.485" x2="290.087" y1="116.211" y2="116.211" stroke="#B1BBC9" stroke-linecap="round" stroke-linejoin="round"></line>
    <line x1="279.803" x2="289.697" y1="126.094" y2="126.094" stroke="#B1BBC9" stroke-linecap="round" stroke-linejoin="round"></line>
    <line x1="267.866" x2="289.833" y1="135.975" y2="135.975" stroke="#B1BBC9" stroke-linecap="round" stroke-linejoin="round"></line>
    <line x1="83.585" x2="113.902" y1="135.312" y2="135.748" stroke="#B1BBC9" stroke-linecap="round" stroke-linejoin="round"></line>
    <line x1="83.585" x2="105.2" y1="145.195" y2="145.38" stroke="#B1BBC9" stroke-linecap="round" stroke-linejoin="round"></line>
    <line x1="156.27" x2="170.513" y1="135.624" y2="135.624" stroke="#B1BBC9" stroke-linecap="round" stroke-linejoin="round"></line>
    <line x1="125.554" x2="140.301" y1="145.506" y2="145.506" stroke="#01050C" stroke-linecap="round" stroke-linejoin="round"></line>
    <line x1="84.787" x2="175.853" y1="35.176" y2="35.176" stroke="#01050C" stroke-linecap="round" stroke-linejoin="round"></line>
    <line x1="84.787" x2="116.93" y1="47.119" y2="47.555" stroke="#01050C" stroke-linecap="round" stroke-linejoin="round"></line>
    <line x1="124.749" x2="138.097" y1="47.431" y2="47.431" stroke="#01050C" stroke-linecap="round" stroke-linejoin="round"></line>
    <line x1="64.798" x2="308.287" y1="18.42" y2="18.42" stroke="#01050C" stroke-linecap="round" stroke-linejoin="round"></line>
    <path fill="#FFF" d="M76.528283,8.52356966 C77.7226913,8.52356966 78.6923759,9.49244582 78.6923759,10.6876625 C78.6923759,11.8817245 77.7226913,12.8517554 76.528283,12.8517554 C75.3337591,12.8517554 74.3640746,11.8817245 74.3640746,10.6876625 C74.3640746,9.49244582 75.3337591,8.52356966 76.528283,8.52356966 Z"></path>
    <path stroke="#01050C" stroke-linecap="round" stroke-linejoin="round" d="M76.528283,8.52356966 C77.7226913,8.52356966 78.6923759,9.49244582 78.6923759,10.6876625 C78.6923759,11.8817245 77.7226913,12.8517554 76.528283,12.8517554 C75.3337591,12.8517554 74.3640746,11.8817245 74.3640746,10.6876625 C74.3640746,9.49244582 75.3337591,8.52356966 76.528283,8.52356966 Z"></path>
    <path fill="#FFF" d="M85.1851164,8.52356966 C86.3795248,8.52356966 87.3492093,9.49244582 87.3492093,10.6876625 C87.3492093,11.8817245 86.3795248,12.8517554 85.1851164,12.8517554 C83.9905926,12.8517554 83.020908,11.8817245 83.020908,10.6876625 C83.020908,9.49244582 83.9905926,8.52356966 85.1851164,8.52356966 Z"></path>
    <path stroke="#01050C" stroke-linecap="round" stroke-linejoin="round" d="M85.1851164,8.52356966 C86.3795248,8.52356966 87.3492093,9.49244582 87.3492093,10.6876625 C87.3492093,11.8817245 86.3795248,12.8517554 85.1851164,12.8517554 C83.9905926,12.8517554 83.020908,11.8817245 83.020908,10.6876625 C83.020908,9.49244582 83.9905926,8.52356966 85.1851164,8.52356966 Z"></path>
    <path fill="#FFF" d="M93.8419498,8.52356966 C95.0363582,8.52356966 96.0060427,9.49244582 96.0060427,10.6876625 C96.0060427,11.8817245 95.0363582,12.8517554 93.8419498,12.8517554 C92.647426,12.8517554 91.6777415,11.8817245 91.6777415,10.6876625 C91.6777415,9.49244582 92.647426,8.52356966 93.8419498,8.52356966 Z"></path>
    <path stroke="#01050C" stroke-linecap="round" stroke-linejoin="round" d="M93.8419498,8.52356966 C95.0363582,8.52356966 96.0060427,9.49244582 96.0060427,10.6876625 C96.0060427,11.8817245 95.0363582,12.8517554 93.8419498,12.8517554 C92.647426,12.8517554 91.6777415,11.8817245 91.6777415,10.6876625 C91.6777415,9.49244582 92.647426,8.52356966 93.8419498,8.52356966 Z"></path>
    <path fill="#FFF" d="M209.545164,283.259087 L209.495508,283.254699 L210.057895,252.195347 L214.223254,212.57882 L214.605492,175.793861 C214.605492,175.793861 208.658279,185.101539 206.551926,188.397334 C206.072684,189.146799 205.424842,189.773854 204.659211,190.226536 L185.234341,201.738724 C184.982594,201.921183 184.714681,202.082854 184.431755,202.214502 L182.82774,203.164901 L182.682235,202.717994 C182.495158,202.73878 182.303461,202.749173 182.1083,202.749173 C179.145087,202.749173 176.738486,200.343728 176.738486,197.379359 C176.738486,195.39426 177.818223,193.658598 179.424548,192.733604 L179.423393,192.728985 C179.423393,192.728985 189.205693,186.404152 194.35956,183.070248 C196.393161,181.756087 198.068774,179.95922 199.23974,177.841319 C201.769904,173.261387 206.481483,164.735508 209.955118,158.448783 C212.577666,153.703715 217.729223,150.925269 223.134836,151.340997 C227.853344,151.704759 233.626183,152.148201 238.29157,152.506189 C243.447746,152.90344 247.853303,156.37361 249.446926,161.294207 C252.129523,169.579889 256.024659,181.610582 256.962356,184.506817 C257.100932,184.935248 257.191006,185.377536 257.231424,185.825598 L259.461341,210.46092 L259.515616,210.813133 L259.543331,211.361663 C259.543331,214.326031 257.136731,216.731477 254.172362,216.731477 C251.209149,216.731477 248.802548,214.326031 248.802548,211.361663 L248.814096,211.14687 L246.813985,187.262167 L242.888824,176.904777 L243.669467,214.247505 L242.888824,250.092458 L246.024102,281.29362 L245.97791,281.300779 C246.042579,281.70288 246.074913,282.115259 246.074913,282.535144 C246.074913,286.848548 242.573563,290.35036 238.26039,290.35036 C234.342158,290.35036 231.092554,287.459898 230.531322,283.696525 L230.517464,283.698603 L230.51169,283.555755 C230.467808,283.221787 230.444712,282.881121 230.444712,282.535144 C230.444712,282.417123 230.448176,282.29968 230.452796,282.182815 L229.033548,248.802548 L227.331375,227.598133 L225.156889,252.195347 L225.116471,283.770316 C225.122245,283.89515 225.125709,284.020908 225.125709,284.147243 C225.125709,284.280622 225.122245,284.413193 225.115316,284.54484 L225.115316,284.634568 L225.110697,284.634106 C224.85895,288.721054 221.460378,291.962459 217.310031,291.962459 C212.996858,291.962459 209.495508,288.460647 209.495508,284.147243 C209.495508,283.846995 209.511675,283.550674 209.545164,283.259087 Z"></path>
    <g transform="translate(176.684 151.012)">
      <mask id="partners@1x-k" fill="#fff">
        <use xlink:href="#partners@1x-j"></use>
      </mask>
      <path fill="#EFF4F7" d="M64.4608669 21.3060372C64.4608669 21.3060372 63.8338111 22.5947926 63.2113746 23.8731548 62.4122539 25.5152786 62.0300155 27.3283127 62.0993034 29.1528947 62.3799195 36.5089628 63.1282291 56.1971269 63.2795077 60.1719443 63.2979845 60.6407926 63.2841269 61.1119505 63.237935 61.579644 62.7817895 66.2819845 60.1673251 93.1922601 59.5806873 99.2249288 59.5033158 100.020585 59.536805 100.82317 59.6788452 101.610743 60.6350186 106.895102 64.4608669 128.030229 64.4608669 128.030229 64.4608669 128.030229 64.4516285 128.132429 64.4331517 128.317659 64.1952632 130.706475 62.7228947 132.796084 60.5541827 133.824778 58.3854706 134.853358 55.8356749 134.670784 53.8355635 133.343343 53.8355635 133.343227 53.8355635 133.343227 53.8355635 133.343227L53.2189009 143.456262 79.7631053 141.829959 86.6918978 112.276464 89.6966842 11.1357245 59.4640526 1.33032817C70.5986223 6.25669969 76.12087 26.1481084 78.1590898 36.2191084 79.5275263 42.9793003 78.8103963 49.390743 79.110644 55.4349598 79.2203498 56.6059257 78.7237864 57.7514861 77.7941734 58.4732353 76.8657152 59.1949845 75.6323901 59.3913003 74.5249381 58.9952043 73.1045356 58.5078793 71.9589752 58.0979257 71.9589752 58.0979257L64.4608669 21.3060372zM49.7383375 73.0133065C49.7383375 73.0133065 46.9622012 83.8892012 46.1850217 86.9367152 46.051065 87.4586842 45.9667647 87.9922012 45.9332755 88.5303375 45.6388019 93.1333653 44.1560402 116.329808 43.244904 130.596307 43.0947802 132.938008 41.7090217 135.02242 39.6061331 136.065319 37.5043994 137.108218 35.0054149 136.951396 33.0503406 135.65398 33.0491858 135.653171 33.0491858 135.652825 33.0491858 135.652825L32.4325232 145.765859 50.8931362 142.293149 49.7383375 73.0133065zM37.7203467 20.5080712C37.7203467 20.5080712 28.6124489 32.8932879 25.9402446 36.5262848 25.4610031 37.1787461 24.8431858 37.7168824 24.1318297 38.1025851 21.0693034 39.762031 12.1242322 44.611031 5.45295975 48.2267059 3.79582353 49.1251393 1.78878328 49.0847214.168600619 48.1204644-1.45042724 47.1562074-2.44239938 45.4113065-2.44239938 43.5266749-2.44239938 43.5243653-2.44239938 43.5232105-2.44239938 43.5232105L-10.5687183 49.574356 3.98867492 61.4445325C10.5213715 57.8300124 25.2127214 47.0026192 25.2127214 47.0026192 25.2127214 47.0026192 37.879709 28.7048328 37.7203467 20.5080712z" mask="url(#partners@1x-k)"></path>
    </g>
    <path stroke="#01050C" stroke-linecap="round" stroke-linejoin="round" d="M209.545164,283.259087 L209.495508,283.254699 L210.057895,252.195347 L214.223254,212.57882 L214.605492,175.793861 C214.605492,175.793861 208.658279,185.101539 206.551926,188.397334 C206.072684,189.146799 205.424842,189.773854 204.659211,190.226536 L185.234341,201.738724 C184.982594,201.921183 184.714681,202.082854 184.431755,202.214502 L182.82774,203.164901 L182.682235,202.717994 C182.495158,202.73878 182.303461,202.749173 182.1083,202.749173 C179.145087,202.749173 176.738486,200.343728 176.738486,197.379359 C176.738486,195.39426 177.818223,193.658598 179.424548,192.733604 L179.423393,192.728985 C179.423393,192.728985 189.205693,186.404152 194.35956,183.070248 C196.393161,181.756087 198.068774,179.95922 199.23974,177.841319 C201.769904,173.261387 206.481483,164.735508 209.955118,158.448783 C212.577666,153.703715 217.729223,150.925269 223.134836,151.340997 C227.853344,151.704759 233.626183,152.148201 238.29157,152.506189 C243.447746,152.90344 247.853303,156.37361 249.446926,161.294207 C252.129523,169.579889 256.024659,181.610582 256.962356,184.506817 C257.100932,184.935248 257.191006,185.377536 257.231424,185.825598 L259.461341,210.46092 L259.515616,210.813133 L259.543331,211.361663 C259.543331,214.326031 257.136731,216.731477 254.172362,216.731477 C251.209149,216.731477 248.802548,214.326031 248.802548,211.361663 L248.814096,211.14687 L246.813985,187.262167 L242.888824,176.904777 L243.669467,214.247505 L242.888824,250.092458 L246.024102,281.29362 L245.97791,281.300779 C246.042579,281.70288 246.074913,282.115259 246.074913,282.535144 C246.074913,286.848548 242.573563,290.35036 238.26039,290.35036 C234.342158,290.35036 231.092554,287.459898 230.531322,283.696525 L230.517464,283.698603 L230.51169,283.555755 C230.467808,283.221787 230.444712,282.881121 230.444712,282.535144 C230.444712,282.417123 230.448176,282.29968 230.452796,282.182815 L229.033548,248.802548 L227.331375,227.598133 L225.156889,252.195347 L225.116471,283.770316 C225.122245,283.89515 225.125709,284.020908 225.125709,284.147243 C225.125709,284.280622 225.122245,284.413193 225.115316,284.54484 L225.115316,284.634568 L225.110697,284.634106 C224.85895,288.721054 221.460378,291.962459 217.310031,291.962459 C212.996858,291.962459 209.495508,288.460647 209.495508,284.147243 C209.495508,283.846995 209.511675,283.550674 209.545164,283.259087 Z"></path>
    <line x1="214.594" x2="214.594" y1="177.237" y2="171.81" stroke="#01050C" stroke-linecap="round" stroke-linejoin="round"></line>
    <line x1="241.11" x2="242.889" y1="172.81" y2="176.905" stroke="#01050C" stroke-linecap="round" stroke-linejoin="round"></line>
    <line x1="227.241" x2="225.924" y1="227.634" y2="224.324" stroke="#01050C" stroke-linecap="round" stroke-linejoin="round"></line>
    <path fill="#FFF" d="M228.409957,113.351582 C219.988009,113.351582 213.150446,120.189146 213.150446,128.611093 C213.150446,137.03304 219.988009,143.870604 228.409957,143.870604 C236.831904,143.870604 243.669467,137.03304 243.669467,128.611093 C243.669467,120.189146 236.831904,113.351582 228.409957,113.351582 Z"></path>
    <g transform="translate(212.483 112.904)">
      <mask id="partners@1x-m" fill="#fff">
        <use xlink:href="#partners@1x-l"></use>
      </mask>
      <path fill="#EFF4F7" d="M15.6475232,0.453835913 L15.9269845,0.439978328 C24.3489319,0.439978328 31.1864954,7.2775418 31.1864954,15.6994892 C31.1864954,24.1214365 24.3489319,30.959 15.9269845,30.959 C14.1589876,30.959 12.4614334,30.6575975 10.8862879,30.0871269 C19.1800526,29.9497059 25.8663375,23.1698824 25.8663375,14.8414737 C25.8663375,8.18752322 21.5982012,2.5220805 15.6475232,0.453835913 Z" mask="url(#partners@1x-m)"></path>
    </g>
    <path stroke="#01050C" stroke-linecap="round" stroke-linejoin="round" d="M228.409957,113.351582 C219.988009,113.351582 213.150446,120.189146 213.150446,128.611093 C213.150446,137.03304 219.988009,143.870604 228.409957,143.870604 C236.831904,143.870604 243.669467,137.03304 243.669467,128.611093 C243.669467,120.189146 236.831904,113.351582 228.409957,113.351582 Z"></path>
    <path fill="#FFF" d="M119.238746,294.060613 L120.972099,260.246604 L120.191455,224.402805 L120.191455,217.405879 C120.191455,217.405879 114.98031,204.531028 112.514815,198.43831 C111.689249,196.398935 111.467412,194.164399 111.875749,192.002616 C112.628563,188.016251 113.932215,181.112864 115.059991,175.141399 C116.305557,168.542879 121.955988,163.68695 128.666523,163.447907 C133.514368,163.274687 138.940768,163.080681 142.900573,162.939796 C146.405387,162.815077 149.712731,164.563443 151.58235,167.530121 C155.513285,173.763724 162.181093,184.338217 164.738972,188.39618 C165.407601,189.456285 166.463087,190.212678 167.682554,190.504842 L183.071402,194.192115 C185.576161,194.64595 187.478115,196.840068 187.478115,199.475319 C187.478115,202.439687 185.072669,204.846288 182.1083,204.846288 C181.765325,204.846288 181.430433,204.813954 181.10478,204.751594 L181.103625,204.759678 L181.003158,204.731963 C180.767579,204.682307 180.536619,204.617638 180.313743,204.537957 L160.178672,198.881752 C158.792913,198.492585 157.582684,197.641498 156.747765,196.469378 C154.307675,193.04309 149.25543,185.949161 149.25543,185.949161 L149.637669,222.734121 L153.803028,262.349492 L154.39544,296.884442 L154.36195,296.885828 C154.36426,296.965509 154.365415,297.045537 154.365415,297.125795 C154.365415,301.439084 150.864065,304.941011 146.550892,304.941011 C142.37052,304.941011 138.952316,301.652375 138.745607,297.523623 L138.717892,297.524778 L138.704034,262.349492 L134.827375,238.198031 L134.827375,258.957848 L134.803124,294.244226 C134.819291,294.450588 134.827375,294.659145 134.827375,294.86978 C134.827375,295.084111 134.819291,295.296478 134.801969,295.506421 L134.801969,296.040169 L134.740765,296.035665 C134.177223,299.796845 130.929929,302.684881 127.012851,302.684881 C122.698523,302.684881 119.197173,299.183185 119.197173,294.86978 C119.197173,294.596555 119.211031,294.326563 119.238746,294.060613 Z"></path>
    <g transform="translate(110.86 162.56)">
      <mask id="partners@1x-o" fill="#fff">
        <use xlink:href="#partners@1x-n"></use>
      </mask>
      <path fill="#EFF4F7" d="M33.4060186 16.9293498C33.4060186 16.9293498 34.7709907 22.9262198 35.3264489 25.3674644 35.4800372 26.0430217 35.5701115 26.7324365 35.595517 27.4253158 35.7999164 33.0156966 36.7618638 59.3231672 36.8623313 62.0461827 36.8681053 62.1986161 36.8761889 62.3498947 36.8888916 62.5011734 37.122161 65.4078019 39.5229876 95.2674334 39.905226 100.028669 39.93987 100.453635 39.9421796 100.88091 39.9144644 101.305876 39.6292291 105.545142 38.0252136 129.427536 38.0252136 129.427536 38.0252136 129.427536 38.0148204 129.529735 37.9963437 129.714965 37.7584551 132.103782 36.2872415 134.19339 34.1173746 135.222085 31.9486625 136.25078 29.4000217 136.06809 27.3987554 134.740649 27.3987554 134.740649 27.3987554 134.740534 27.3987554 134.740534L26.7832477 144.853568 53.3262972 143.227265 60.2550898 113.674002 87.5106502 39.0934025 72.5098142 25.8236099 72.5098142 34.9222693C72.5098142 35.9823746 72.0167152 36.9824303 71.1748669 37.626808 70.3341734 38.2711858 69.2405789 38.4882879 68.2162724 38.212291 61.361387 36.3657678 48.7071022 32.9591115 48.7071022 32.9591115 48.7071022 32.9591115 40.4526006 22.2206378 37.0240031 17.760805 36.1729164 16.6533529 34.6555108 16.3046037 33.4060186 16.9293498 33.4060186 16.9293498 33.4060186 16.9293498 33.4060186 16.9293498zM6.97729412 15.7526099C6.97729412 15.7526099 4.80280805 28.1031827 4.30162539 30.9509164 4.23418514 31.3343096 4.24573313 31.728096 4.33580743 32.10687 5.14462848 35.5089071 9.27303406 52.8736161 9.27303406 52.8736161L8.63904954 34.5573529 6.97729412 15.7526099zM23.9666935 75.6381641L21.3372167 72.9174582 20.5785139 103.199746C20.5785139 103.199746 19.6442817 118.472653 18.9641053 129.583087 18.8209102 131.920977 17.4409257 134.004696 15.3438111 135.048519 13.2466966 136.092226 10.7523313 135.937367 8.80072136 134.64226 8.79841176 134.641221 8.79841176 134.640644 8.79841176 134.640644L8.18174923 144.753678 26.6423622 141.280967 23.9666935 75.6381641z" mask="url(#partners@1x-o)"></path>
    </g>
    <path stroke="#01050C" stroke-linecap="round" stroke-linejoin="round" d="M119.238746,294.060613 L120.972099,260.246604 L120.191455,224.402805 L120.191455,217.405879 C120.191455,217.405879 114.98031,204.531028 112.514815,198.43831 C111.689249,196.398935 111.467412,194.164399 111.875749,192.002616 C112.628563,188.016251 113.932215,181.112864 115.059991,175.141399 C116.305557,168.542879 121.955988,163.68695 128.666523,163.447907 C133.514368,163.274687 138.940768,163.080681 142.900573,162.939796 C146.405387,162.815077 149.712731,164.563443 151.58235,167.530121 C155.513285,173.763724 162.181093,184.338217 164.738972,188.39618 C165.407601,189.456285 166.463087,190.212678 167.682554,190.504842 L183.071402,194.192115 C185.576161,194.64595 187.478115,196.840068 187.478115,199.475319 C187.478115,202.439687 185.072669,204.846288 182.1083,204.846288 C181.765325,204.846288 181.430433,204.813954 181.10478,204.751594 L181.103625,204.759678 L181.003158,204.731963 C180.767579,204.682307 180.536619,204.617638 180.313743,204.537957 L160.178672,198.881752 C158.792913,198.492585 157.582684,197.641498 156.747765,196.469378 C154.307675,193.04309 149.25543,185.949161 149.25543,185.949161 L149.637669,222.734121 L153.803028,262.349492 L154.39544,296.884442 L154.36195,296.885828 C154.36426,296.965509 154.365415,297.045537 154.365415,297.125795 C154.365415,301.439084 150.864065,304.941011 146.550892,304.941011 C142.37052,304.941011 138.952316,301.652375 138.745607,297.523623 L138.717892,297.524778 L138.704034,262.349492 L134.827375,238.198031 L134.827375,258.957848 L134.803124,294.244226 C134.819291,294.450588 134.827375,294.659145 134.827375,294.86978 C134.827375,295.084111 134.819291,295.296478 134.801969,295.506421 L134.801969,296.040169 L134.740765,296.035665 C134.177223,299.796845 130.929929,302.684881 127.012851,302.684881 C122.698523,302.684881 119.197173,299.183185 119.197173,294.86978 C119.197173,294.596555 119.211031,294.326563 119.238746,294.060613 Z"></path>
    <line x1="117.838" x2="120.248" y1="178.312" y2="217.289" stroke="#01050C" stroke-linecap="round" stroke-linejoin="round"></line>
    <line x1="134.678" x2="132.507" y1="238.113" y2="235.615" stroke="#01050C" stroke-linecap="round" stroke-linejoin="round"></line>
    <path fill="#FFF" d="M134.296167,124.660526 C142.718115,124.660526 149.555678,131.49809 149.555678,139.920037 C149.555678,148.341985 142.718115,155.179548 134.296167,155.179548 C125.87422,155.179548 119.036656,148.341985 119.036656,139.920037 C119.036656,131.49809 125.87422,124.660526 134.296167,124.660526 Z"></path>
    <g transform="translate(118.944 124.452)">
      <mask id="partners@1x-q" fill="#fff">
        <use xlink:href="#partners@1x-p"></use>
      </mask>
      <path fill="#EFF4F7" d="M15.1983065,0.286390093 L15.476613,0.272532508 C23.8985604,0.272532508 30.7361238,7.11009598 30.7361238,15.5320433 C30.7361238,23.9539907 23.8985604,30.7915542 15.476613,30.7915542 C13.7097709,30.7915542 12.0110619,30.4901517 10.4359164,29.9196811 C18.7296811,29.7822601 25.4159659,23.0024365 25.4159659,14.6740279 C25.4159659,8.0200774 21.1478297,2.35463467 15.1983065,0.286390093 Z" mask="url(#partners@1x-q)"></path>
    </g>
    <path stroke="#01050C" stroke-linecap="round" stroke-linejoin="round" d="M134.296167,124.660526 C142.718115,124.660526 149.555678,131.49809 149.555678,139.920037 C149.555678,148.341985 142.718115,155.179548 134.296167,155.179548 C125.87422,155.179548 119.036656,148.341985 119.036656,139.920037 C119.036656,131.49809 125.87422,124.660526 134.296167,124.660526 Z"></path>
    <line x1="144.807" x2="149.255" y1="179.93" y2="185.949" stroke="#01050C" stroke-linecap="round" stroke-linejoin="round"></line>
    <polyline stroke="#4D72EF" stroke-linecap="round" stroke-linejoin="round" stroke-width="2" points="85.852 106.393 102.019 82.142 124.654 97.962 143.673 85.53 160.995 97.656 195.557 62.51"></polyline>
    <path fill="#FFF" d="M240.367898,241.33331 C240.367898,241.33331 260.21196,231.411279 265.395851,228.818755 C266.14878,228.442291 266.623402,227.67435 266.623402,226.833656 C266.623402,222.705251 266.623402,210.351214 266.623402,205.006805 C266.623402,204.468669 266.345096,203.969796 265.887796,203.68687 C265.430495,203.405099 264.85887,203.378539 264.378474,203.618737 C259.089495,206.263226 245.974446,212.821328 241.722477,214.947313 C240.892176,215.361885 240.367898,216.210663 240.367898,217.139121 C240.367898,222.653285 240.367898,241.33331 240.367898,241.33331 Z"></path>
    <path stroke="#05122C" stroke-linecap="round" stroke-linejoin="round" d="M240.367898,241.33331 C240.367898,241.33331 260.21196,231.411279 265.395851,228.818755 C266.14878,228.442291 266.623402,227.67435 266.623402,226.833656 C266.623402,222.705251 266.623402,210.351214 266.623402,205.006805 C266.623402,204.468669 266.345096,203.969796 265.887796,203.68687 C265.430495,203.405099 264.85887,203.378539 264.378474,203.618737 C259.089495,206.263226 245.974446,212.821328 241.722477,214.947313 C240.892176,215.361885 240.367898,216.210663 240.367898,217.139121 C240.367898,222.653285 240.367898,241.33331 240.367898,241.33331 Z"></path>
    <path fill="#FFF" d="M257.964721,193.932285 L259.501759,210.441288 L259.556034,210.793502 L259.583749,211.342031 C259.583749,214.305245 257.177149,216.711845 254.213935,216.711845 C251.249567,216.711845 248.844121,214.305245 248.844121,211.342031 L248.854514,211.126084 L247.797873,199.016864"></path>
    <g transform="translate(247.127 193.74)">
      <mask id="partners@1x-s" fill="#fff">
        <use xlink:href="#partners@1x-r"></use>
      </mask>
      <path fill="#EFF4F7" d="M-5.94028483-21.4411486C-5.94028483-21.4411486-6.56849536-20.1523932-7.19093189-18.8751858-7.99005263-17.2330619-8.37113622-15.4188731-8.3018483-13.594291-8.022387-6.23822291-7.2729226 13.4499412-7.12164396 17.4247585-7.10432198 17.8936068-7.11817957 18.3636099-7.16321672 18.8313034-7.62051703 23.533644-10.2349814 50.4450743-10.8204644 56.4765882-10.8978359 57.2733994-10.8655015 58.0759845-10.7223065 58.8635573-9.76613313 64.1467616-5.94028483 85.2825814-5.94028483 85.2825814-5.94028483 85.2825814-5.95067802 85.3847811-5.9691548 85.5700108-6.20704334 87.9588276-7.67825697 90.0484359-9.84812384 91.0771307-12.0168359 92.1057099-14.5666316 91.9231362-16.566743 90.595695-16.566743 90.5955796-16.566743 90.5955796-16.566743 90.5955796L-17.1822508 100.708614 9.36079876 99.0823111 16.2895913 69.5292786 19.2943777-31.6126161-10.9370991-41.4180124C.196315789-36.4916409 5.71971827-16.5990774 7.75793808-6.5292322 9.12637461.232114551 8.40808978 6.64355728 8.70833746 12.6866192 8.81804334 13.8587399 8.32147988 15.0043003 7.39302167 15.7248947 6.46340867 16.446644 5.23123839 16.6441146 4.12378638 16.2480186 2.7033839 15.7606935 1.55666873 15.3507399 1.55666873 15.3507399L-5.94028483-21.4411486zM-20.663969 30.2661207C-20.663969 30.2661207-23.4389505 41.1420155-24.2172848 44.1895294-24.3500867 44.7114985-24.434387 45.2450155-24.469031 45.7819969-24.7635046 50.3850248-26.2451115 73.5814675-27.1574025 87.8486598-27.3063715 90.1903607-28.6932848 92.2747724-30.7950186 93.3176712-32.8979071 94.36057-35.3957368 94.2037483-37.3508111 92.9063319-37.3519659 92.9055235-37.3531207 92.9051771-37.3531207 92.9051771L-37.9686285 103.018212-19.5091703 99.5455009-20.663969 30.2661207zM-32.6819598-22.2391146C-32.6819598-22.2391146-41.7898576-9.85389783-44.4609071-6.22090093-44.9401486-5.56959443-45.5579659-5.0314582-46.269322-4.64575542-49.3318483-2.9851548-58.2780743 1.8626904-64.9493467 5.47952012-66.606483 6.37795356-68.6135232 6.3363808-70.2325511 5.37327864-71.8515789 4.40902167-72.8435511 2.66296594-72.8435511.778334365-72.8435511.777179567-72.8435511.776024768-72.8435511.776024768L-80.9710248 6.82601548-66.4136316 18.696192C-59.8797802 15.0828266-45.1895851 4.25543344-45.1895851 4.25543344-45.1895851 4.25543344-32.5214427-14.0435077-32.6819598-22.2391146z" mask="url(#partners@1x-s)"></path>
    </g>
    <path stroke="#01050C" stroke-linecap="round" stroke-linejoin="round" d="M257.964721,193.932285 L259.501759,210.441288 L259.556034,210.793502 L259.583749,211.342031 C259.583749,214.305245 257.177149,216.711845 254.213935,216.711845 C251.249567,216.711845 248.844121,214.305245 248.844121,211.342031 L248.854514,211.126084 L247.797873,199.016864"></path>
    <path fill="#E01A33" d="M254.451824,218.800876 C256.868817,217.592957 258.829666,218.942916 258.829666,221.813746 C258.829666,224.683421 256.868817,227.995384 254.451824,229.203303 C252.035985,230.411223 250.075136,229.061263 250.075136,226.190433 C250.075136,223.320759 252.035985,220.008796 254.451824,218.800876 Z"></path>
    <g transform="translate(249.437 217.99)">
      <mask id="partners@1x-u" fill="#fff">
        <use xlink:href="#partners@1x-t"></use>
      </mask>
      <polyline stroke="#FFF" stroke-linecap="round" stroke-linejoin="round" stroke-width=".45" points="5.164 -.352 5.164 5.735 8.104 9.079" mask="url(#partners@1x-u)"></polyline>
      <polyline stroke="#FFF" stroke-linecap="round" stroke-linejoin="round" stroke-width=".45" points="9.713 .745 4.996 5.919 2.056 12.056" mask="url(#partners@1x-u)"></polyline>
      <polygon stroke="#FFF" stroke-linecap="round" stroke-linejoin="round" stroke-width=".45" points="5.015 -.603 10.21 1.283 8.226 9.528 1.806 12.737 -.178 6.476" mask="url(#partners@1x-u)"></polygon>
      <line x1="-.095" x2="5.164" y1="6.298" y2="5.913" stroke="#FFF" stroke-linecap="round" stroke-linejoin="round" stroke-width=".45" mask="url(#partners@1x-u)"></line>
    </g>
    <path stroke="#FFF" stroke-linecap="round" stroke-linejoin="round" d="M254.451824,218.800876 C256.868817,217.592957 258.829666,218.942916 258.829666,221.813746 C258.829666,224.683421 256.868817,227.995384 254.451824,229.203303 C252.035985,230.411223 250.075136,229.061263 250.075136,226.190433 C250.075136,223.320759 252.035985,220.008796 254.451824,218.800876 Z"></path>
    <path fill="#FFF" d="M254.451824 222.802254C255.009591 222.523947 255.462272 222.835743 255.462272 223.497443 255.462272 224.159142 255.009591 224.922464 254.451824 225.201926 253.895211 225.480232 253.442529 225.168437 253.442529 224.506737 253.442529 223.845037 253.895211 223.08056 254.451824 222.802254zM238.641474 240.839056C238.66457 241.13122 238.832015 241.393359 239.087226 241.537709 239.342437 241.682059 239.653077 241.690142 239.916372 241.558495 239.916372 241.558495 239.917526 241.558495 239.917526 241.557341 240.193523 241.41992 240.367898 241.138149 240.367898 240.829817 240.367898 237.440483 240.367898 218.080282 240.367898 218.080282 240.367898 218.080282 239.371307 218.578 238.459015 219.034146 237.566356 219.481053 237.033994 220.423368 237.11252 221.418805 237.447412 225.676548 238.338916 236.987802 238.641474 240.839056z"></path>
    <path stroke="#05122C" stroke-linecap="round" stroke-linejoin="round" d="M238.641474,240.839056 C238.66457,241.13122 238.832015,241.393359 239.087226,241.537709 C239.342437,241.682059 239.653077,241.690142 239.916372,241.558495 C239.916372,241.558495 239.917526,241.558495 239.917526,241.557341 C240.193523,241.41992 240.367898,241.138149 240.367898,240.829817 C240.367898,237.440483 240.367898,218.080282 240.367898,218.080282 C240.367898,218.080282 239.371307,218.578 238.459015,219.034146 C237.566356,219.481053 237.033994,220.423368 237.11252,221.418805 C237.447412,225.676548 238.338916,236.987802 238.641474,240.839056 Z"></path>
  </g>
</svg>
