<svg xmlns="http://www.w3.org/2000/svg" xmlns:xlink="http://www.w3.org/1999/xlink" width="335" height="335" viewBox="0 0 335 335">
  <defs>
    <path id="phishing@1x-a" d="M1.6647,0.999 C2.4269,0.559 3.366,0.559 4.1282,0.999 C15.0494,7.304 47.0439,25.776 57.1399,31.605 C59.0517,32.709 60.2295,34.749 60.2295,36.956 L60.2295,36.956 L60.2295,81.7293 C60.2295,82.6094 59.76,83.4227 58.9978,83.8627 C58.2356,84.3028 57.2965,84.3028 56.5343,83.8627 C45.6131,77.5574 13.6186,59.0854 3.5226,53.2564 C1.6108,52.1526 0.433,50.1127 0.433,47.9051 L0.433,47.9051 L0.433,3.132"/>
    <path id="phishing@1x-c" d="M2.0244,1.16 C2.7866,0.72 3.7257,0.72 4.4879,1.16 C18.0466,8.988 64.921,36.051 77.432,43.274 C79.344,44.378 80.521,46.418 80.521,48.625 L80.521,48.625 L80.521,110.9338 C80.521,111.8139 80.052,112.6272 79.29,113.0672 C78.527,113.5073 77.588,113.5073 76.826,113.0672 C63.267,105.2391 16.3931,78.1762 3.8823,70.9531 C1.9705,69.8493 0.7927,67.8093 0.7927,65.6017 L0.7927,65.6017 L0.7927,3.293"/>
    <path id="phishing@1x-e" d="M1.284,0.3826 C2.046,-0.0574 2.985,-0.0574 3.747,0.3826 C13.944,6.2697 42.344,22.6662 51.776,28.112 C53.688,29.2158 54.866,31.2557 54.866,33.4634 L54.866,33.4634 L54.866,73.8523 C54.866,74.7324 54.396,75.5456 53.634,75.9857 C52.872,76.4257 51.933,76.4257 51.17,75.9857 C40.974,70.0987 12.574,53.7021 3.142,48.2563 C1.23,47.1525 0.052,45.1126 0.052,42.905 L0.052,42.905 L0.052,2.5161"/>
    <path id="phishing@1x-g" d="M2.0921,1.005 C2.8543,0.5649 3.7934,0.5649 4.5556,1.005 C11.282,4.8885 25.407,13.0435 31.658,16.6528 C33.57,17.7566 34.748,19.7966 34.748,22.0042 L34.748,22.0042 L34.748,43.9831 C34.748,44.8633 34.278,45.6765 33.516,46.1166 C32.754,46.5566 31.815,46.5566 31.053,46.1166 C24.326,42.2331 10.2015,34.0781 3.95,30.4688 C2.0381,29.3649 0.8604,27.325 0.8604,25.1173 L0.8604,25.1173 L0.8604,3.1384"/>
  </defs>
  <g fill="none" fill-rule="evenodd" transform="translate(73 49)">
    <path stroke="#B1BBC9" stroke-linecap="round" stroke-linejoin="round" d="M100.742,61.499 L100.742,79.383 C100.742,81.236 101.731,82.949 103.336,83.876 C103.515,83.979 103.696,84.084 103.876,84.187 C105.615,85.192 106.687,87.048 106.687,89.056 C106.687,95.137 106.687,107.636 106.687,107.636"/>
    <line x1="85.555" x2="85.555" y1="7.726" y2="98.868" stroke="#B1BBC9" stroke-linecap="round" stroke-linejoin="round"/>
    <path stroke="#B1BBC9" stroke-linecap="round" stroke-linejoin="round" d="M57.2919 29.943L57.2919 49.386C57.2919 50.343 56.7816 51.226 55.9533 51.705 55.1249 52.183 54.1043 52.183 53.2759 51.705 49.0194 49.247 42.3365 45.389 38.08 42.931 37.2516 42.453 36.231 42.453 35.4026 42.931 34.5742 43.41 34.0639 44.293 34.0639 45.25 34.0639 61.08 34.0639 112.012 34.0639 112.012M134.052 59.16C134.052 59.16 134.052 81.441 134.052 89.995 134.052 92.03 135.138 93.911 136.901 94.928 142.911 98.398 156.845 106.443 163.045 110.023 164.94 111.117 166.097 113.15 166.068 115.339 165.906 127.831 165.369 169.06 165.369 169.06M57.2919 23.159C58.9132 24.095 60.2295 26.375 60.2295 28.247 60.2295 30.119 58.9132 30.879 57.2919 29.943 55.6707 29.007 54.3544 26.727 54.3544 24.855 54.3544 22.983 55.6707 22.223 57.2919 23.159zM100.742 54.683C102.363 55.619 103.679 57.899 103.679 59.771 103.679 61.643 102.363 62.403 100.742 61.467 99.1205 60.531 97.8042 58.251 97.8042 56.379 97.8042 54.507 99.1205 53.747 100.742 54.683zM134.052 52.341C135.673 53.277 136.99 55.556 136.99 57.429 136.99 59.301 135.673 60.061 134.052 59.125 132.431 58.189 131.115 55.909 131.115 54.037 131.115 52.165 132.431 51.405 134.052 52.341zM85.7923.446C87.4135 1.382 88.7298 3.662 88.7298 5.534 88.7298 7.406 87.4135 8.166 85.7923 7.23 84.171 6.294 82.8547 4.014 82.8547 2.142 82.8547.27 84.171-.49 85.7923.446z"/>
    <line x1="100.199" x2="100.199" y1="182.692" y2="200.767" stroke="#B1BBC9" stroke-linecap="round" stroke-linejoin="round"/>
    <path fill="#E01A33" d="M101.264 197.6042C101.264 197.1545 101.024 196.7391 100.635 196.5142 100.388 196.3721 100.105 196.2084 99.8509 196.0618 99.7032 195.9765 99.5212 195.9765 99.3735 196.0618 99.2258 196.147 99.1348 196.3046 99.1348 196.4752 99.1348 198.7016 99.1348 204.6563 99.1348 204.6563L101.264 205.8854C101.264 205.8854 101.264 199.746 101.264 197.6042zM166.114 163.9123C166.114 163.4626 165.875 163.0472 165.485 162.8223 165.239 162.6802 164.955 162.5165 164.702 162.3699 164.554 162.2846 164.372 162.2846 164.224 162.3699 164.077 162.4551 163.986 162.6127 163.986 162.7833 163.986 165.0097 163.986 170.9644 163.986 170.9644L166.114 172.1935C166.114 172.1935 166.114 166.0541 166.114 163.9123zM86.8252 92.392C86.8252 91.942 86.5853 91.526 86.196 91.302 85.9498 91.16 85.6662 90.996 85.4123 90.849 85.2646 90.764 85.0826 90.764 84.935 90.849 84.7873 90.934 84.6963 91.092 84.6963 91.263 84.6963 93.489 84.6963 99.444 84.6963 99.444L86.8252 100.673C86.8252 100.673 86.8252 94.533 86.8252 92.392zM35.1284 106.336C35.1284 105.886 34.8885 105.471 34.4991 105.246 34.253 105.104 33.9694 104.94 33.7155 104.794 33.5678 104.708 33.3858 104.708 33.2381 104.794 33.0904 104.879 32.9994 105.036 32.9994 105.207 32.9994 107.433 32.9994 113.388 32.9994 113.388L35.1284 114.617 35.1284 106.336z"/>
    <path fill="#EFF4F7" d="M60.2295,130.686 C60.2295,128.479 59.0517,126.439 57.1399,125.335 C47.0439,119.506 15.0494,101.034 4.1282,94.729 C3.366,94.289 2.4269,94.289 1.6647,94.729 C0.9025,95.169 0.433,95.982 0.433,96.862 C0.433,106.977 0.433,132.264 0.433,141.6351 C0.433,143.8427 1.6108,145.8826 3.5226,146.9864 C13.6186,152.8154 45.6131,171.2874 56.5343,177.5927 C57.2965,178.0328 58.2356,178.0328 58.9978,177.5927 C59.76,177.1527 60.2295,176.3394 60.2295,175.4593 C60.2295,165.3445 60.2295,140.0578 60.2295,130.686 Z"/>
    <g transform="translate(0 93.73)">
      <mask id="phishing@1x-b" fill="#fff">
        <use xlink:href="#phishing@1x-a"/>
      </mask>
      <line x1="36.509" x2="57.382" y1="56.416" y2="86.544" stroke="#EFF4F7" stroke-linecap="round" stroke-linejoin="round" stroke-width="2.5" mask="url(#phishing@1x-b)"/>
      <line x1="20.365" x2=".433" y1="48.733" y2="53.665" stroke="#EFF4F7" stroke-linecap="round" stroke-linejoin="round" stroke-width="2.5" mask="url(#phishing@1x-b)"/>
      <path fill="#EFF4F7" d="M-0.663,5.441 C-0.663,5.441 17.6147,36.048 24.8825,48.2188 C26.5626,51.0323 30.0573,52.1802 33.0785,50.9109 C42.002,47.162 59.1335,39.965 59.1335,39.965" mask="url(#phishing@1x-b)"/>
      <path fill="#FFF" d="M60.2295,36.677 L33.833,4.402 L-0.663,-6.181 L0.433,2.153 C0.433,2.153 18.7107,32.76 25.9785,44.931 C27.6586,47.7443 31.1533,48.8922 34.1745,47.623 C43.098,43.874 60.2295,36.677 60.2295,36.677 Z" mask="url(#phishing@1x-b)"/>
      <path stroke="#05122C" stroke-linecap="round" stroke-linejoin="round" d="M60.2295,36.677 L33.833,4.402 L-0.663,-6.181 L0.433,2.153 C0.433,2.153 18.7107,32.76 25.9785,44.931 C27.6586,47.7443 31.1533,48.8922 34.1745,47.623 C43.098,43.874 60.2295,36.677 60.2295,36.677 Z" mask="url(#phishing@1x-b)"/>
      <line x1="36.509" x2="57.382" y1="54.224" y2="84.352" stroke="#05122C" stroke-linecap="round" stroke-linejoin="round" mask="url(#phishing@1x-b)"/>
      <line x1="20.365" x2=".433" y1="46.541" y2="51.473" stroke="#05122C" stroke-linecap="round" stroke-linejoin="round" mask="url(#phishing@1x-b)"/>
    </g>
    <path stroke="#05122C" stroke-linecap="round" stroke-linejoin="round" d="M60.2295,130.686 C60.2295,128.479 59.0517,126.439 57.1399,125.335 C47.0439,119.506 15.0494,101.034 4.1282,94.729 C3.366,94.289 2.4269,94.289 1.6647,94.729 C0.9025,95.169 0.433,95.982 0.433,96.862 C0.433,106.977 0.433,132.264 0.433,141.6351 C0.433,143.8427 1.6108,145.8826 3.5226,146.9864 C13.6186,152.8154 45.6131,171.2874 56.5343,177.5927 C57.2965,178.0328 58.2356,178.0328 58.9978,177.5927 C59.76,177.1527 60.2295,176.3394 60.2295,175.4593 C60.2295,165.3445 60.2295,140.0578 60.2295,130.686 Z"/>
    <path fill="#EFF4F7" d="M123.521,124.355 C123.521,122.148 122.344,120.108 120.432,119.004 C107.921,111.781 61.0466,84.718 47.4879,76.89 C46.7257,76.45 45.7866,76.45 45.0244,76.89 C44.2622,77.33 43.7927,78.143 43.7927,79.023 C43.7927,91.789 43.7927,129.531 43.7927,141.3317 C43.7927,143.5393 44.9705,145.5793 46.8823,146.6831 C59.3931,153.9062 106.267,180.9691 119.826,188.7972 C120.588,189.2373 121.527,189.2373 122.29,188.7972 C123.052,188.3572 123.521,187.5439 123.521,186.6638 C123.521,173.8976 123.521,136.155 123.521,124.355 Z"/>
    <g transform="translate(43 75.73)">
      <mask id="phishing@1x-d" fill="#fff">
        <use xlink:href="#phishing@1x-c"/>
      </mask>
      <line x1="48.894" x2="76.725" y1="75.03" y2="115.201" stroke="#EFF4F7" stroke-linecap="round" stroke-linejoin="round" stroke-width="2.5" mask="url(#phishing@1x-d)"/>
      <line x1="27.369" x2=".793" y1="64.785" y2="71.361" stroke="#EFF4F7" stroke-linecap="round" stroke-linejoin="round" stroke-width="2.5" mask="url(#phishing@1x-d)"/>
      <path fill="#EFF4F7" d="M-0.3033,6.698 C-0.3033,6.698 25.831,50.462 34.7337,65.3698 C36.4138,68.1833 39.9085,69.3312 42.9297,68.0619 C54.1563,63.345 79.425,52.73 79.425,52.73" mask="url(#phishing@1x-d)"/>
      <path fill="#FFF" d="M80.521,49.442 L91.292,43.223 L0.7927,-6.14 L0.7927,3.41 C0.7927,3.41 26.927,47.174 35.8297,62.082 C37.5098,64.8953 41.0045,66.0432 44.0257,64.774 C55.2523,60.057 80.521,49.442 80.521,49.442 Z" mask="url(#phishing@1x-d)"/>
      <path stroke="#05122C" stroke-linecap="round" stroke-linejoin="round" d="M80.521,49.442 L91.292,43.223 L0.7927,-6.14 L0.7927,3.41 C0.7927,3.41 26.927,47.174 35.8297,62.082 C37.5098,64.8953 41.0045,66.0432 44.0257,64.774 C55.2523,60.057 80.521,49.442 80.521,49.442 Z" mask="url(#phishing@1x-d)"/>
      <line x1="48.894" x2="76.725" y1="72.838" y2="113.009" stroke="#05122C" stroke-linecap="round" stroke-linejoin="round" mask="url(#phishing@1x-d)"/>
      <line x1="27.369" x2=".793" y1="62.593" y2="69.169" stroke="#05122C" stroke-linecap="round" stroke-linejoin="round" mask="url(#phishing@1x-d)"/>
    </g>
    <path stroke="#05122C" stroke-linecap="round" stroke-linejoin="round" d="M123.521,124.355 C123.521,122.148 122.344,120.108 120.432,119.004 C107.921,111.781 61.0466,84.718 47.4879,76.89 C46.7257,76.45 45.7866,76.45 45.0244,76.89 C44.2622,77.33 43.7927,78.143 43.7927,79.023 C43.7927,91.789 43.7927,129.531 43.7927,141.3317 C43.7927,143.5393 44.9705,145.5793 46.8823,146.6831 C59.3931,153.9062 106.267,180.9691 119.826,188.7972 C120.588,189.2373 121.527,189.2373 122.29,188.7972 C123.052,188.3572 123.521,187.5439 123.521,186.6638 C123.521,173.8976 123.521,136.155 123.521,124.355 Z"/>
    <path fill="#EFF4F7" d="M188.866,186.1934 C188.866,183.9857 187.688,181.9458 185.776,180.842 C176.344,175.3962 147.944,158.9997 137.747,153.1126 C136.985,152.6726 136.046,152.6726 135.284,153.1126 C134.522,153.5527 134.052,154.366 134.052,155.2461 C134.052,164.633 134.052,186.9307 134.052,195.635 C134.052,197.8426 135.23,199.8825 137.142,200.9863 C146.574,206.4321 174.974,222.8287 185.17,228.7157 C185.933,229.1557 186.872,229.1557 187.634,228.7157 C188.396,228.2756 188.866,227.4624 188.866,226.5823 L188.866,186.1934 Z"/>
    <g transform="translate(134 152.73)">
      <mask id="phishing@1x-f" fill="#fff">
        <use xlink:href="#phishing@1x-e"/>
      </mask>
      <line x1="33.122" x2="52.255" y1="51.187" y2="78.804" stroke="#EFF4F7" stroke-linecap="round" stroke-linejoin="round" stroke-width="2.5" mask="url(#phishing@1x-f)"/>
      <line x1="18.323" x2=".052" y1="44.144" y2="48.664" stroke="#EFF4F7" stroke-linecap="round" stroke-linejoin="round" stroke-width="2.5" mask="url(#phishing@1x-f)"/>
      <path fill="#EFF4F7" d="M-1.044,4.5511 C-1.044,4.5511 15.311,31.9385 22.129,43.3551 C23.809,46.1686 27.304,47.3165 30.325,46.0472 C38.614,42.5649 53.77,36.1977 53.77,36.1977" mask="url(#phishing@1x-f)"/>
      <path fill="#FFF" d="M54.866,32.9097 L61.487,24.5725 L0.052,-8.2002 L0.052,1.2632 C0.052,1.2632 16.407,28.6505 23.225,40.0671 C24.905,42.8806 28.4,44.0285 31.421,42.7593 C39.71,39.2769 54.866,32.9097 54.866,32.9097 Z" mask="url(#phishing@1x-f)"/>
      <path stroke="#05122C" stroke-linecap="round" stroke-linejoin="round" d="M54.866,32.9097 L61.487,24.5725 L0.052,-8.2002 L0.052,1.2632 C0.052,1.2632 16.407,28.6505 23.225,40.0671 C24.905,42.8806 28.4,44.0285 31.421,42.7593 C39.71,39.2769 54.866,32.9097 54.866,32.9097 Z" mask="url(#phishing@1x-f)"/>
      <line x1="33.122" x2="52.255" y1="48.995" y2="76.612" stroke="#05122C" stroke-linecap="round" stroke-linejoin="round" mask="url(#phishing@1x-f)"/>
      <line x1="18.323" x2=".052" y1="41.952" y2="46.472" stroke="#05122C" stroke-linecap="round" stroke-linejoin="round" mask="url(#phishing@1x-f)"/>
    </g>
    <path stroke="#05122C" stroke-linecap="round" stroke-linejoin="round" d="M188.866,186.1934 C188.866,183.9857 187.688,181.9458 185.776,180.842 C176.344,175.3962 147.944,158.9997 137.747,153.1126 C136.985,152.6726 136.046,152.6726 135.284,153.1126 C134.522,153.5527 134.052,154.366 134.052,155.2461 C134.052,164.633 134.052,186.9307 134.052,195.635 C134.052,197.8426 135.23,199.8825 137.142,200.9863 C146.574,206.4321 174.974,222.8287 185.17,228.7157 C185.933,229.1557 186.872,229.1557 187.634,228.7157 C188.396,228.2756 188.866,227.4624 188.866,226.5823 L188.866,186.1934 Z"/>
    <path fill="#EFF4F7" d="M114.748,212.7342 C114.748,210.5266 113.57,208.4866 111.658,207.3828 C105.407,203.7735 91.282,195.6185 84.5556,191.735 C83.7934,191.2949 82.8543,191.2949 82.0921,191.735 C81.3299,192.175 80.8604,192.9883 80.8604,193.8684 C80.8604,199.7751 80.8604,210.3367 80.8604,215.8473 C80.8604,218.055 82.0381,220.0949 83.95,221.1988 C90.2015,224.8081 104.326,232.9631 111.053,236.8466 C111.815,237.2866 112.754,237.2866 113.516,236.8466 C114.278,236.4065 114.748,235.5933 114.748,234.7131 C114.748,228.8064 114.748,218.2448 114.748,212.7342 Z"/>
    <g transform="translate(80 190.73)">
      <mask id="phishing@1x-h" fill="#fff">
        <use xlink:href="#phishing@1x-g"/>
      </mask>
      <line x1="21.305" x2="33.134" y1="32.436" y2="49.51" stroke="#EFF4F7" stroke-linecap="round" stroke-linejoin="round" stroke-width="2.5" mask="url(#phishing@1x-h)"/>
      <line x1="12.156" x2=".86" y1="28.082" y2="30.877" stroke="#EFF4F7" stroke-linecap="round" stroke-linejoin="round" stroke-width="2.5" mask="url(#phishing@1x-h)"/>
      <path fill="#EFF4F7" d="M-0.2356,4.0229 C-0.2356,4.0229 8.3205,18.3507 12.9723,26.1403 C14.6524,28.9539 18.1471,30.1018 21.168,28.8325 C26.402,26.6339 33.652,23.5879 33.652,23.5879" mask="url(#phishing@1x-h)"/>
      <path fill="#FFF" d="M34.748,20.2999 L40.584,19.1138 L0.8604,-3.8207 L0.8604,0.7349 C0.8604,0.7349 9.4165,15.0627 14.0683,22.8524 C15.7484,25.6659 19.2431,26.8138 22.264,25.5445 C27.498,23.346 34.748,20.2999 34.748,20.2999 Z" mask="url(#phishing@1x-h)"/>
      <path stroke="#05122C" stroke-linecap="round" stroke-linejoin="round" d="M34.748,20.2999 L40.584,19.1138 L0.8604,-3.8207 L0.8604,0.7349 C0.8604,0.7349 9.4165,15.0627 14.0683,22.8524 C15.7484,25.6659 19.2431,26.8138 22.264,25.5445 C27.498,23.346 34.748,20.2999 34.748,20.2999 Z" mask="url(#phishing@1x-h)"/>
      <line x1="21.305" x2="33.134" y1="30.244" y2="47.318" stroke="#05122C" stroke-linecap="round" stroke-linejoin="round" mask="url(#phishing@1x-h)"/>
      <line x1="12.156" x2=".86" y1="25.89" y2="28.685" stroke="#05122C" stroke-linecap="round" stroke-linejoin="round" mask="url(#phishing@1x-h)"/>
    </g>
    <path stroke="#05122C" stroke-linecap="round" stroke-linejoin="round" d="M114.748,212.7342 C114.748,210.5266 113.57,208.4866 111.658,207.3828 C105.407,203.7735 91.282,195.6185 84.5556,191.735 C83.7934,191.2949 82.8543,191.2949 82.0921,191.735 C81.3299,192.175 80.8604,192.9883 80.8604,193.8684 C80.8604,199.7751 80.8604,210.3367 80.8604,215.8473 C80.8604,218.055 82.0381,220.0949 83.95,221.1988 C90.2015,224.8081 104.326,232.9631 111.053,236.8466 C111.815,237.2866 112.754,237.2866 113.516,236.8466 C114.278,236.4065 114.748,235.5933 114.748,234.7131 C114.748,228.8064 114.748,218.2448 114.748,212.7342 Z"/>
    <path fill="#FFF" d="M74.6241,103.226 L74.6241,111.294 C74.6242,113.214 75.6479,114.987 77.3099,115.946 C77.3512,115.97 77.3928,115.994 77.4347,116.018 C79.0006,116.922 80.93,116.922 82.4959,116.018 C82.9323,115.766 83.3219,115.455 83.657,115.098"/>
    <path stroke="#E01A33" stroke-linecap="round" stroke-linejoin="round" stroke-width="2" d="M74.6241,103.226 L74.6241,111.294 C74.6242,113.214 75.6479,114.987 77.3099,115.946 C77.3512,115.97 77.3928,115.994 77.4347,116.018 C79.0006,116.922 80.93,116.922 82.4959,116.018 C82.9323,115.766 83.3219,115.455 83.657,115.098"/>
    <polyline stroke="#E01A33" stroke-linecap="round" stroke-linejoin="round" stroke-width="2" points="71.764 106.376 74.606 101.475 77.551 106.388"/>
    <path fill="#FFF" d="M156.181,172.8044 L156.181,179.0283 C156.181,180.5086 156.971,181.8764 158.252,182.6165 C158.284,182.6349 158.316,182.6534 158.349,182.6721 C159.557,183.3695 161.045,183.3695 162.253,182.6721 C162.589,182.4777 162.89,182.2375 163.148,181.9618"/>
    <path stroke="#E01A33" stroke-linecap="round" stroke-linejoin="round" stroke-width="2" d="M156.181,172.8044 L156.181,179.0283 C156.181,180.5086 156.971,181.8764 158.252,182.6165 C158.284,182.6349 158.316,182.6534 158.349,182.6721 C159.557,183.3695 161.045,183.3695 162.253,182.6721 C162.589,182.4777 162.89,182.2375 163.148,181.9618"/>
    <polyline stroke="#E01A33" stroke-linecap="round" stroke-linejoin="round" stroke-width="2" points="153.518 175.575 156.159 171.021 158.895 175.586"/>
    <path fill="#FFF" d="M94.0633,201.5274 L94.0633,206.3283 C94.0633,207.4701 94.6725,208.5251 95.6613,209.096 C95.6859,209.1102 95.7106,209.1245 95.7355,209.1389 C96.6672,209.6768 97.8152,209.6768 98.7469,209.1389 C99.0065,208.989 99.2384,208.8037 99.4377,208.591"/>
    <path stroke="#E01A33" stroke-linecap="round" stroke-linejoin="round" stroke-width="2" d="M94.0633,201.5274 L94.0633,206.3283 C94.0633,207.4701 94.6725,208.5251 95.6613,209.096 C95.6859,209.1102 95.7106,209.1245 95.7355,209.1389 C96.6672,209.6768 97.8152,209.6768 98.7469,209.1389 C99.0065,208.989 99.2384,208.8037 99.4377,208.591"/>
    <polyline stroke="#E01A33" stroke-linecap="round" stroke-linejoin="round" stroke-width="2" points="92.119 204.854 94.048 201.527 96.047 204.862"/>
    <path fill="#FFF" d="M25.031,113.573 L25.031,121.642 C25.031,123.561 26.0548,125.334 27.7167,126.293 C27.7581,126.317 27.7997,126.341 27.8415,126.365 C29.4075,127.269 31.3368,127.269 32.9028,126.365 C33.3391,126.113 33.7288,125.802 34.0639,125.445"/>
    <path stroke="#E01A33" stroke-linecap="round" stroke-linejoin="round" stroke-width="2" d="M25.031,113.573 L25.031,121.642 C25.031,123.561 26.0548,125.334 27.7167,126.293 C27.7581,126.317 27.7997,126.341 27.8415,126.365 C29.4075,127.269 31.3368,127.269 32.9028,126.365 C33.3391,126.113 33.7288,125.802 34.0639,125.445"/>
    <polyline stroke="#E01A33" stroke-linecap="round" stroke-linejoin="round" stroke-width="2" points="22.195 117.578 25.013 112.718 27.933 117.59"/>
    <path stroke="#EFF4F7" stroke-linecap="round" stroke-linejoin="round" stroke-width="2" d="M122.018 105.082C122.018 105.082 130.185 109.797 134.92 112.531 136.959 113.707 138.214 115.882 138.214 118.236 138.214 124.702 138.214 137.142 138.214 137.142M56.0339 70.691C56.0339 70.691 61.1767 73.66 65.4334 76.118 66.5822 76.781 67.9976 76.781 69.1464 76.118 70.2952 75.454 71.0029 74.229 71.0029 72.902 71.0029 66.258 71.0029 56.853 71.0029 56.853"/>
    <line x1="18.436" x2="18.436" y1="61.431" y2="83.256" stroke="#EFF4F7" stroke-linecap="round" stroke-linejoin="round" stroke-width="2"/>
    <line x1="188.866" x2="188.866" y1="137.927" y2="159.753" stroke="#EFF4F7" stroke-linecap="round" stroke-linejoin="round" stroke-width="2"/>
    <line x1="71.003" x2="71.003" y1="171.87" y2="193.696" stroke="#EFF4F7" stroke-linecap="round" stroke-linejoin="round" stroke-width="2"/>
  </g>
</svg>
