<?xml version="1.0" encoding="UTF-8"?>
<svg xmlns="http://www.w3.org/2000/svg" xmlns:xlink="http://www.w3.org/1999/xlink" width="558" height="253" xml:space="preserve" overflow="hidden">
  <defs>
    <clipPath id="clip0">
      <rect x="0" y="0" width="558" height="253"></rect>
    </clipPath>
  </defs>
  <g clip-path="url(#clip0)">
    <path d="M235.505 163.844C198.295 163.844 168.151 193.989 168.151 231.132L302.927 231.132C302.86 193.989 272.715 163.844 235.505 163.844Z" fill="#EDECED" transform="matrix(1.18469 0 0 1 0 0.168218)"></path>
    <path d="M138.544 222.182 145.408 197.892 154.088 213.435Z" fill="#13497F" transform="matrix(1.18469 0 0 1 0 0.168218)"></path>
    <path d="M157.789 176.965 174.543 158.125 175.552 175.889Z" fill="#426E99" transform="matrix(1.18469 0 0 1 0 0.168218)"></path>
    <path d="M197.757 145.071 221.846 137.468 213.57 153.28Z" fill="#4B9EC7" transform="matrix(1.18469 0 0 1 0 0.168218)"></path>
    <path d="M248.492 138.208 272.984 144.062 257.845 153.415Z" fill="#6DCBD9" transform="matrix(1.18469 0 0 1 0 0.168218)"></path>
    <path d="M295.458 158.394 313.559 175.956 295.727 176.158Z" fill="#727272" transform="matrix(1.18469 0 0 1 0 0.168218)"></path>
    <path d="M325.468 199.776 340.743 205.159 331.928 224.134 316.519 215.185Z" fill="#143157" transform="matrix(1.18469 0 0 1 0 0.168218)"></path>
    <path d="M169.429 55.512 169.429 48.3122 166.67 48.3122 166.67 46.6973 174.139 46.6973 174.139 48.3122 171.381 48.3122 171.381 55.512 169.429 55.512ZM175.283 55.2428C174.812 54.9737 174.409 54.6372 174.139 54.1662 173.87 53.6952 173.736 53.1569 173.736 52.484 173.736 51.8112 173.87 51.2729 174.139 50.8019 174.409 50.3309 174.812 49.9271 175.283 49.7253 175.754 49.4561 176.36 49.3215 176.965 49.3215 177.571 49.3215 178.177 49.4561 178.648 49.7253 179.119 49.9944 179.522 50.3309 179.792 50.8019 180.061 51.2729 180.195 51.8112 180.195 52.484 180.195 53.1569 180.061 53.6952 179.792 54.1662 179.522 54.6372 179.119 55.041 178.648 55.2428 178.177 55.512 177.571 55.6465 176.965 55.6465 176.36 55.6465 175.754 55.512 175.283 55.2428ZM178.311 52.4168C178.311 51.8112 178.177 51.4074 177.975 51.071 177.706 50.8019 177.369 50.6673 176.965 50.6673 176.023 50.6673 175.62 51.2729 175.62 52.4168 175.62 53.5606 176.091 54.1662 176.965 54.1662 177.84 54.2335 178.311 53.6279 178.311 52.4168ZM182.55 55.2428C182.079 54.9737 181.676 54.6372 181.406 54.1662 181.137 53.6952 181.003 53.1569 181.003 52.484 181.003 51.8112 181.137 51.2729 181.406 50.8019 181.676 50.3309 182.079 49.9271 182.55 49.7253 183.021 49.4561 183.627 49.3215 184.232 49.3215 184.838 49.3215 185.444 49.4561 185.915 49.7253 186.386 49.9944 186.789 50.3309 187.059 50.8019 187.328 51.2729 187.462 51.8112 187.462 52.484 187.462 53.1569 187.328 53.6952 187.059 54.1662 186.789 54.6372 186.386 55.041 185.915 55.2428 185.444 55.512 184.838 55.6465 184.232 55.6465 183.627 55.6465 183.089 55.512 182.55 55.2428ZM185.645 52.4168C185.645 51.8112 185.511 51.4074 185.309 51.071 185.04 50.8019 184.703 50.6673 184.3 50.6673 183.358 50.6673 182.954 51.2729 182.954 52.4168 182.954 53.5606 183.425 54.1662 184.3 54.1662 185.174 54.2335 185.645 53.6279 185.645 52.4168ZM188.673 55.512 188.673 46.7646 190.557 46.7646 190.557 55.5793 188.673 55.5793ZM191.903 46.4955 193.922 46.4955 193.922 48.2449 191.903 48.2449 191.903 46.4955ZM191.97 55.512 191.97 49.3888 193.855 49.3888 193.855 55.512 191.97 55.512ZM200.785 49.9271C201.122 50.3309 201.323 51.0037 201.323 51.8785L201.323 55.5793 199.439 55.5793 199.439 51.9457C199.439 51.542 199.372 51.2056 199.238 51.0037 199.103 50.8019 198.834 50.7346 198.497 50.7346 198.094 50.7346 197.824 50.8691 197.555 51.1383 197.286 51.4074 197.219 51.7439 197.219 52.1476L197.219 55.5793 195.335 55.5793 195.335 49.4561 197.152 49.4561 197.152 50.3309C197.353 49.9944 197.623 49.7253 197.959 49.5907 198.295 49.3888 198.699 49.3215 199.103 49.3215 199.91 49.2543 200.449 49.4561 200.785 49.9271ZM208.994 49.3888 208.994 54.8391C208.994 55.8484 208.725 56.5886 208.119 57.0596 207.514 57.5306 206.706 57.7997 205.63 57.7997 205.091 57.7997 204.553 57.7325 204.082 57.5979 203.611 57.4633 203.14 57.2614 202.736 57.0596L203.207 55.8484C204.015 56.2521 204.755 56.5213 205.562 56.5213 206.572 56.5213 207.11 56.0503 207.11 55.041L207.11 54.3681C206.908 54.7045 206.706 54.9064 206.303 55.1082 205.966 55.3101 205.562 55.3774 205.159 55.3774 204.62 55.3774 204.149 55.2428 203.746 54.9737 203.342 54.7045 203.006 54.3681 202.804 53.8971 202.602 53.4261 202.467 52.8878 202.467 52.2822 202.467 51.6766 202.602 51.1383 202.804 50.6673 203.006 50.1963 203.342 49.8598 203.746 49.5907 204.149 49.3215 204.62 49.187 205.159 49.187 205.562 49.187 205.966 49.2543 206.303 49.4561 206.639 49.658 206.908 49.8598 207.11 50.1963L207.11 49.3215 208.994 49.3215ZM206.774 53.4934C207.043 53.2242 207.11 52.8205 207.11 52.2822 207.11 51.7439 206.976 51.4074 206.774 51.071 206.505 50.8019 206.168 50.6673 205.764 50.6673 205.361 50.6673 204.957 50.8019 204.755 51.071 204.486 51.3402 204.351 51.7439 204.351 52.2822 204.351 52.7532 204.486 53.1569 204.755 53.4934 205.024 53.8298 205.361 53.8971 205.764 53.8971 206.168 53.8971 206.505 53.7625 206.774 53.4934Z" fill="#94C4DD" transform="matrix(1.18469 0 0 1 0 0.168218)"></path>
    <path d="M236.313 140.563 236.313 19.3114C196.95 19.3114 160.076 29.8082 128.317 48.2449L189.01 153.28C202.938 145.206 219.087 140.563 236.313 140.563Z" stroke="#FFFFFF" stroke-width="2.69149" stroke-miterlimit="10" fill="#4B9EC7" transform="matrix(1.18469 0 0 1 0 0.168218)"></path>
    <path d="M154.357 187.933 49.3215 127.24C30.9521 159 20.388 195.873 20.388 235.236L141.707 235.236C141.707 218.011 146.282 201.794 154.357 187.933Z" stroke="#FFFFFF" stroke-width="2.69149" stroke-miterlimit="10" fill="#13497F" transform="matrix(1.18469 0 0 1 0 0.168218)"></path>
    <path d="M283.616 153.28 344.309 48.2449C312.549 29.8755 275.676 19.3114 236.313 19.3114L236.313 140.63C253.538 140.563 269.755 145.206 283.616 153.28Z" stroke="#FFFFFF" stroke-width="2.69149" stroke-miterlimit="10" fill="#6DCBD9" transform="matrix(1.18469 0 0 1 0 0.168218)"></path>
    <path d="M330.986 235.236 452.305 235.236C452.305 195.873 441.808 159 423.371 127.24L318.269 187.933C326.343 201.794 330.986 218.011 330.986 235.236Z" stroke="#FFFFFF" stroke-width="2.69149" stroke-miterlimit="10" fill="#143157" transform="matrix(1.18469 0 0 1 0 0.168218)"></path>
    <path d="M318.269 187.933 423.304 127.24C404.396 94.4713 377.078 67.1527 344.309 48.1777L283.616 153.213C298.015 161.557 309.992 173.534 318.269 187.933Z" stroke="#FFFFFF" stroke-width="2.69149" stroke-miterlimit="10" fill="#727272" transform="matrix(1.18469 0 0 1 0 0.168218)"></path>
    <path d="M189.01 153.28 128.317 48.1777C95.5479 67.1527 68.2293 94.4713 49.3215 127.24L154.357 187.933C162.701 173.534 174.678 161.557 189.01 153.28Z" stroke="#FFFFFF" stroke-width="2.69149" stroke-miterlimit="10" fill="#426E99" transform="matrix(1.18469 0 0 1 0 0.168218)"></path>
    <path d="M174.274 86.2622 174.274 78.4569 171.313 78.4569 171.313 76.7747 179.388 76.7747 179.388 78.4569 176.427 78.4569 176.427 86.2622 174.274 86.2622ZM180.532 85.9258C179.993 85.6567 179.59 85.2529 179.32 84.7146 179.051 84.1763 178.917 83.5707 178.917 82.8979 178.917 82.225 179.051 81.6194 179.32 81.0811 179.59 80.5428 179.993 80.1391 180.532 79.8699 181.07 79.6008 181.676 79.4662 182.348 79.4662 183.021 79.4662 183.694 79.6008 184.165 79.8699 184.703 80.1391 185.107 80.5428 185.376 81.0811 185.645 81.6194 185.78 82.225 185.78 82.8979 185.78 83.5707 185.645 84.1763 185.376 84.7146 185.107 85.2529 184.703 85.6567 184.165 85.9258 183.627 86.195 183.021 86.3295 182.348 86.3295 181.676 86.3295 181.07 86.2622 180.532 85.9258ZM183.896 82.9652C183.896 82.3596 183.761 81.8213 183.492 81.5521 183.223 81.2157 182.887 81.0811 182.416 81.0811 181.406 81.0811 180.935 81.6867 180.935 82.9652 180.935 84.2436 181.406 84.8492 182.416 84.8492 183.425 84.8492 183.896 84.1763 183.896 82.9652ZM188.472 85.9258C187.933 85.6567 187.53 85.2529 187.26 84.7146 186.991 84.1763 186.857 83.5707 186.857 82.8979 186.857 82.225 186.991 81.6194 187.26 81.0811 187.53 80.5428 187.933 80.1391 188.472 79.8699 189.01 79.6008 189.615 79.4662 190.288 79.4662 190.961 79.4662 191.634 79.6008 192.105 79.8699 192.643 80.1391 193.047 80.5428 193.316 81.0811 193.585 81.6194 193.72 82.225 193.72 82.8979 193.72 83.5707 193.585 84.1763 193.316 84.7146 193.047 85.2529 192.643 85.6567 192.105 85.9258 191.567 86.195 190.961 86.3295 190.288 86.3295 189.615 86.3295 189.01 86.2622 188.472 85.9258ZM191.769 82.9652C191.769 82.3596 191.634 81.8213 191.365 81.5521 191.096 81.2157 190.759 81.0811 190.288 81.0811 189.279 81.0811 188.808 81.6867 188.808 82.9652 188.808 84.2436 189.279 84.8492 190.288 84.8492 191.298 84.8492 191.769 84.1763 191.769 82.9652ZM195.066 86.2622 195.066 76.7747 197.084 76.7747 197.084 86.2622 195.066 86.2622ZM198.565 76.5056 200.718 76.5056 200.718 78.3896 198.565 78.3896 198.565 76.5056ZM198.632 86.2622 198.632 79.6681 200.651 79.6681 200.651 86.2622 198.632 86.2622ZM208.119 80.2064C208.523 80.6774 208.725 81.3503 208.725 82.2923L208.725 86.2622 206.706 86.2622 206.706 82.3596C206.706 81.8886 206.639 81.5521 206.437 81.3503 206.303 81.1484 206.034 81.0138 205.63 81.0138 205.226 81.0138 204.89 81.1484 204.62 81.4176 204.351 81.6867 204.217 82.0231 204.217 82.4941L204.217 86.195 202.198 86.195 202.198 79.6008 204.149 79.6008 204.149 80.5428C204.351 80.2064 204.688 79.9372 205.091 79.7354 205.495 79.5335 205.899 79.4662 206.37 79.4662 207.177 79.5335 207.783 79.7354 208.119 80.2064ZM217.001 79.6681 217.001 85.5894C217.001 86.666 216.665 87.4734 216.059 88.0117 215.454 88.55 214.579 88.8192 213.368 88.8192 212.762 88.8192 212.224 88.7519 211.686 88.6173 211.147 88.4827 210.676 88.2809 210.273 88.0117L210.811 86.5987C211.686 87.0697 212.493 87.2715 213.368 87.2715 214.512 87.2715 215.05 86.7332 215.05 85.7239L215.05 84.9838C214.848 85.3202 214.579 85.5894 214.175 85.7912 213.772 85.9931 213.368 86.0604 212.897 86.0604 212.291 86.0604 211.82 85.9258 211.349 85.6567 210.878 85.3875 210.542 84.9838 210.34 84.5128 210.071 84.0418 209.936 83.4362 209.936 82.7633 209.936 82.0904 210.071 81.5521 210.34 81.0138 210.609 80.5428 210.945 80.1391 211.349 79.8699 211.82 79.6008 212.291 79.4662 212.897 79.4662 213.368 79.4662 213.772 79.5335 214.175 79.7354 214.579 79.9372 214.848 80.2064 215.05 80.5428L215.05 79.6008 217.001 79.6008ZM214.579 84.109C214.848 83.7726 214.983 83.3689 214.983 82.8306 214.983 82.2923 214.848 81.8213 214.579 81.5521 214.31 81.283 213.973 81.0811 213.502 81.0811 213.031 81.0811 212.628 81.2157 212.359 81.5521 212.089 81.8886 211.955 82.2923 211.955 82.8306 211.955 83.3689 212.089 83.7726 212.359 84.109 212.628 84.4455 213.031 84.5801 213.502 84.5801 213.906 84.5128 214.31 84.3782 214.579 84.109ZM241.09 60.0202 245.464 60.0202C246.473 60.0202 247.281 60.2894 247.886 60.8277 248.492 61.366 248.761 62.1061 248.761 62.9809 248.761 63.8556 248.492 64.663 247.886 65.134 247.281 65.6051 246.54 65.9415 245.464 65.9415L243.176 65.9415 243.176 69.5077 241.09 69.5077 241.09 60.0202ZM245.195 64.3266C246.271 64.3266 246.742 63.8556 246.742 62.9809 246.742 62.5098 246.608 62.1734 246.339 61.9715 246.069 61.7697 245.666 61.6351 245.127 61.6351L243.109 61.6351 243.109 64.3939 245.195 64.3939ZM254.548 64.3939 253.404 64.5285C252.865 64.5957 252.462 64.7303 252.193 64.9995 251.991 65.2686 251.856 65.6051 251.856 66.0761L251.856 69.5077 249.837 69.5077 249.837 62.9136 251.789 62.9136 251.789 64.0574C252.125 63.3173 252.798 62.8463 253.875 62.779L254.48 62.7117 254.548 64.3939ZM256.364 69.1713C255.826 68.9021 255.422 68.4984 255.153 67.9601 254.884 67.4218 254.749 66.8162 254.749 66.1434 254.749 65.4705 254.884 64.8649 255.153 64.3266 255.422 63.7883 255.826 63.3846 256.364 63.1154 256.903 62.8463 257.508 62.7117 258.181 62.7117 258.854 62.7117 259.527 62.8463 259.998 63.1154 260.536 63.3846 260.94 63.7883 261.209 64.3266 261.478 64.8649 261.613 65.4705 261.613 66.1434 261.613 66.8162 261.478 67.4218 261.209 67.9601 260.94 68.4984 260.536 68.9021 259.998 69.1713 259.46 69.4404 258.854 69.575 258.181 69.575 257.508 69.575 256.903 69.4404 256.364 69.1713ZM259.729 66.1434C259.729 65.5378 259.594 64.9995 259.325 64.7303 259.056 64.4612 258.719 64.2593 258.248 64.2593 257.239 64.2593 256.768 64.8649 256.768 66.1434 256.768 67.4218 257.239 68.0274 258.248 68.0274 259.258 68.0274 259.729 67.4218 259.729 66.1434ZM269.687 62.9136 269.687 68.8348C269.687 69.9114 269.351 70.7189 268.745 71.2572 268.14 71.7955 267.265 72.0646 266.054 72.0646 265.448 72.0646 264.91 71.9973 264.372 71.8628 263.833 71.7282 263.362 71.5263 262.959 71.2572L263.497 69.8442C264.372 70.3152 265.179 70.517 266.054 70.517 267.198 70.517 267.736 69.9787 267.736 68.9694L267.736 68.2293C267.534 68.5657 267.265 68.8348 266.861 69.0367 266.457 69.2386 266.054 69.3059 265.583 69.3059 264.977 69.3059 264.506 69.1713 264.035 68.9021 263.564 68.633 263.228 68.2293 263.026 67.7582 262.757 67.2872 262.622 66.6816 262.622 66.0088 262.622 65.3359 262.757 64.7976 263.026 64.2593 263.295 63.7883 263.631 63.3846 264.035 63.1154 264.506 62.8463 264.977 62.7117 265.583 62.7117 266.054 62.7117 266.457 62.779 266.861 62.9809 267.265 63.1827 267.534 63.4519 267.736 63.7883L267.736 62.8463 269.687 62.8463ZM267.332 67.2872C267.601 66.9508 267.736 66.5471 267.736 66.0088 267.736 65.4705 267.601 64.9995 267.332 64.7303 267.063 64.4612 266.727 64.2593 266.256 64.2593 265.785 64.2593 265.381 64.3939 265.112 64.7303 264.843 65.0668 264.708 65.4705 264.708 66.0088 264.708 66.5471 264.843 66.9508 265.112 67.2872 265.381 67.6237 265.785 67.7582 266.256 67.7582 266.659 67.7582 267.063 67.6237 267.332 67.2872ZM276.012 64.3939 274.868 64.5285C274.33 64.5957 273.926 64.7303 273.657 64.9995 273.455 65.2686 273.321 65.6051 273.321 66.0761L273.321 69.5077 271.302 69.5077 271.302 62.9136 273.253 62.9136 273.253 64.0574C273.59 63.3173 274.263 62.8463 275.339 62.779L275.945 62.7117 276.012 64.3939ZM281.799 63.4519C282.27 63.9229 282.539 64.663 282.539 65.6051L282.539 69.5077 280.588 69.5077 280.588 68.4984C280.453 68.8348 280.251 69.104 279.915 69.3059 279.578 69.5077 279.242 69.575 278.838 69.575 278.367 69.575 277.964 69.5077 277.627 69.3059 277.291 69.104 276.954 68.9021 276.752 68.5657 276.551 68.2293 276.416 67.8928 276.416 67.4891 276.416 67.0181 276.551 66.6144 276.752 66.3452 277.022 66.0761 277.425 65.8742 277.964 65.7396 278.502 65.6051 279.242 65.5378 280.184 65.5378L280.52 65.5378 280.52 65.2686C280.52 64.8649 280.453 64.5957 280.251 64.4612 280.049 64.3266 279.78 64.192 279.377 64.192 279.04 64.192 278.704 64.2593 278.3 64.3939 277.896 64.5285 277.56 64.663 277.156 64.8649L276.618 63.5192C277.022 63.3173 277.425 63.1154 278.031 62.9136 278.569 62.779 279.107 62.7117 279.578 62.7117 280.588 62.7117 281.328 62.9809 281.799 63.4519ZM280.184 67.8255C280.453 67.5564 280.52 67.2199 280.52 66.8162L280.52 66.6144 280.319 66.6144C279.578 66.6144 279.107 66.6816 278.771 66.8162 278.502 66.9508 278.3 67.1527 278.3 67.4218 278.3 67.691 278.367 67.8928 278.569 68.0274 278.704 68.162 278.973 68.2965 279.175 68.2965 279.646 68.2293 279.982 68.0947 280.184 67.8255ZM293.843 63.4519C294.18 63.9229 294.382 64.5957 294.382 65.5378L294.382 69.5077 292.363 69.5077 292.363 65.6051C292.363 65.134 292.296 64.8649 292.161 64.663 292.027 64.4612 291.757 64.3939 291.488 64.3939 291.085 64.3939 290.815 64.5285 290.614 64.7976 290.412 65.0668 290.277 65.4705 290.277 65.9415L290.277 69.575 288.259 69.575 288.259 65.6723C288.259 65.2013 288.191 64.9322 288.057 64.7303 287.922 64.5285 287.653 64.4612 287.384 64.4612 286.98 64.4612 286.711 64.5957 286.509 64.8649 286.307 65.134 286.173 65.5378 286.173 66.0088L286.173 69.6423 284.154 69.6423 284.154 63.0481 286.105 63.0481 286.105 63.9229C286.307 63.5864 286.576 63.3173 286.913 63.1154 287.249 62.9136 287.653 62.8463 288.124 62.8463 289.133 62.8463 289.739 63.25 290.075 64.0574 290.277 63.6537 290.614 63.3846 290.95 63.1827 291.354 62.9809 291.757 62.8463 292.228 62.8463 292.901 62.7117 293.507 62.9809 293.843 63.4519ZM248.895 76.1692 250.51 76.1692 250.51 85.6567 248.694 85.6567 248.694 80.0045 246.54 84.0418 245.195 84.0418 243.042 80.0045 243.042 85.5894 241.225 85.5894 241.225 76.1019 242.907 76.1019 245.935 81.8886 248.895 76.1692ZM257.71 82.7633 253.404 82.7633C253.471 83.3016 253.673 83.7053 253.942 83.9072 254.211 84.109 254.615 84.2436 255.153 84.2436 255.49 84.2436 255.826 84.1763 256.163 84.109 256.499 83.9745 256.835 83.8399 257.105 83.638L257.643 84.9838C257.306 85.2529 256.903 85.4548 256.432 85.5894 255.961 85.7239 255.49 85.7912 255.019 85.7912 253.875 85.7912 253 85.4548 252.394 84.8492 251.722 84.2436 251.452 83.3689 251.452 82.3596 251.452 81.6867 251.587 81.0811 251.856 80.5428 252.125 80.0045 252.529 79.6008 253 79.3316 253.471 79.0625 254.077 78.9279 254.682 78.9279 255.624 78.9279 256.364 79.1971 256.903 79.8027 257.441 80.4082 257.71 81.2157 257.71 82.225L257.71 82.7633ZM253.807 80.6774C253.606 80.9465 253.404 81.283 253.404 81.754L256.028 81.754C256.028 81.283 255.893 80.9465 255.691 80.6774 255.49 80.4082 255.153 80.341 254.817 80.341 254.48 80.341 254.009 80.4082 253.807 80.6774ZM263.497 79.6008C263.968 80.0718 264.237 80.812 264.237 81.754L264.237 85.6567 262.286 85.6567 262.286 84.6473C262.151 84.9838 261.949 85.2529 261.613 85.4548 261.276 85.6567 260.94 85.7239 260.536 85.7239 260.065 85.7239 259.661 85.6567 259.325 85.4548 258.989 85.2529 258.652 85.0511 258.45 84.7146 258.248 84.3782 258.114 84.0418 258.114 83.638 258.114 83.167 258.248 82.7633 258.45 82.4941 258.719 82.225 259.123 82.0231 259.661 81.8886 260.2 81.754 260.94 81.6867 261.882 81.6867L262.218 81.6867 262.218 81.4176C262.218 81.0138 262.151 80.7447 261.949 80.6101 261.747 80.4755 261.478 80.341 261.074 80.341 260.738 80.341 260.402 80.4082 259.998 80.5428 259.594 80.6774 259.258 80.812 258.854 81.0138L258.316 79.6681C258.719 79.4662 259.123 79.2644 259.729 79.0625 260.267 78.9279 260.805 78.8606 261.276 78.8606 262.286 78.8606 263.026 79.1298 263.497 79.6008ZM261.882 83.9745C262.151 83.7053 262.218 83.3689 262.218 82.9652L262.218 82.7633 262.016 82.7633C261.276 82.7633 260.805 82.8306 260.469 82.9652 260.2 83.0997 259.998 83.3016 259.998 83.5707 259.998 83.8399 260.065 84.0418 260.267 84.1763 260.402 84.3109 260.671 84.4455 260.873 84.4455 261.344 84.3782 261.68 84.2436 261.882 83.9745ZM266.054 85.5221C265.515 85.3875 265.112 85.1856 264.708 84.9165L265.246 83.5035C265.583 83.7726 265.986 83.9072 266.457 84.0418 266.861 84.1763 267.332 84.2436 267.736 84.2436 268.072 84.2436 268.274 84.1763 268.476 84.109 268.678 84.0418 268.745 83.8399 268.745 83.7053 268.745 83.5707 268.678 83.4362 268.543 83.3016 268.409 83.2343 268.207 83.0997 267.87 83.0324L266.794 82.7633C266.188 82.6287 265.717 82.4269 265.381 82.0904 265.112 81.8213 264.91 81.3503 264.91 80.8793 264.91 80.4755 265.044 80.0718 265.246 79.8027 265.515 79.4662 265.852 79.2644 266.256 79.0625 266.659 78.8606 267.198 78.7934 267.736 78.7934 268.207 78.7934 268.678 78.8606 269.149 78.9952 269.62 79.1298 270.024 79.3316 270.36 79.6008L269.822 80.9465C269.149 80.4755 268.409 80.2064 267.736 80.2064 267.399 80.2064 267.198 80.2737 266.996 80.341 266.794 80.4082 266.727 80.6101 266.727 80.812 266.727 80.9465 266.794 81.0811 266.861 81.1484 266.928 81.2157 267.13 81.283 267.399 81.3503L268.543 81.6194C269.216 81.754 269.687 82.0231 270.024 82.2923 270.36 82.5614 270.495 83.0324 270.495 83.5707 270.495 84.1763 270.226 84.7146 269.755 85.0511 269.284 85.3875 268.543 85.5894 267.669 85.5894 267.13 85.7912 266.525 85.6567 266.054 85.5221ZM277.56 79.0625 277.56 85.6567 275.609 85.6567 275.609 84.7146C275.407 85.0511 275.138 85.3202 274.801 85.5221 274.465 85.7239 274.061 85.7912 273.657 85.7912 272.85 85.7912 272.177 85.5894 271.773 85.1184 271.369 84.6473 271.168 83.9745 271.168 83.0324L271.168 79.1298 273.186 79.1298 273.186 83.0997C273.186 83.5035 273.253 83.7726 273.455 83.9745 273.59 84.1763 273.859 84.2436 274.195 84.2436 274.599 84.2436 274.936 84.109 275.138 83.8399 275.407 83.5707 275.474 83.2343 275.474 82.7633L275.474 79.1298 277.56 79.1298ZM283.279 80.5428 282.135 80.6774C281.597 80.7447 281.193 80.8793 280.924 81.1484 280.722 81.4176 280.588 81.754 280.588 82.225L280.588 85.6567 278.569 85.6567 278.569 79.0625 280.52 79.0625 280.52 80.2064C280.857 79.4662 281.53 78.9952 282.606 78.9279L283.212 78.8606 283.279 80.5428ZM289.268 82.7633 284.961 82.7633C285.029 83.3016 285.231 83.7053 285.5 83.9072 285.769 84.109 286.173 84.2436 286.711 84.2436 287.047 84.2436 287.384 84.1763 287.72 84.109 288.057 83.9745 288.393 83.8399 288.662 83.638L289.201 84.9838C288.864 85.2529 288.46 85.4548 287.989 85.5894 287.518 85.7239 287.047 85.7912 286.576 85.7912 285.432 85.7912 284.558 85.4548 283.952 84.8492 283.279 84.2436 283.01 83.3689 283.01 82.3596 283.01 81.6867 283.145 81.0811 283.414 80.5428 283.683 80.0045 284.087 79.6008 284.558 79.3316 285.029 79.0625 285.634 78.9279 286.24 78.9279 287.182 78.9279 287.922 79.1971 288.46 79.8027 288.999 80.4082 289.268 81.2157 289.268 82.225L289.268 82.7633ZM285.365 80.6774C285.163 80.9465 284.961 81.283 284.961 81.754L287.586 81.754C287.586 81.283 287.451 80.9465 287.249 80.6774 287.047 80.4082 286.711 80.341 286.374 80.341 286.038 80.341 285.634 80.4082 285.365 80.6774ZM299.765 79.6008C300.101 80.0718 300.303 80.7447 300.303 81.6867L300.303 85.6567 298.284 85.6567 298.284 81.754C298.284 81.283 298.217 81.0138 298.082 80.812 297.948 80.6101 297.679 80.5428 297.41 80.5428 297.006 80.5428 296.737 80.6774 296.535 80.9465 296.333 81.2157 296.198 81.6194 296.198 82.0904L296.198 85.7239 294.18 85.7239 294.18 81.8213C294.18 81.3503 294.113 81.0811 293.978 80.8793 293.843 80.6774 293.574 80.6101 293.305 80.6101 292.901 80.6101 292.632 80.7447 292.43 81.0138 292.228 81.283 292.094 81.6867 292.094 82.1577L292.094 85.7912 290.075 85.7912 290.075 79.1971 292.027 79.1971 292.027 80.0718C292.228 79.7354 292.498 79.4662 292.834 79.2644 293.171 79.0625 293.574 78.9952 294.045 78.9952 295.055 78.9952 295.66 79.3989 295.997 80.2064 296.198 79.8027 296.535 79.5335 296.871 79.3316 297.275 79.1298 297.679 78.9952 298.15 78.9952 298.823 78.8606 299.428 79.1298 299.765 79.6008ZM307.234 82.7633 302.927 82.7633C302.994 83.3016 303.196 83.7053 303.465 83.9072 303.735 84.109 304.138 84.2436 304.677 84.2436 305.013 84.2436 305.349 84.1763 305.686 84.109 306.022 83.9745 306.359 83.8399 306.628 83.638L307.166 84.9838C306.83 85.2529 306.426 85.4548 305.955 85.5894 305.484 85.7239 305.013 85.7912 304.542 85.7912 303.398 85.7912 302.523 85.4548 301.918 84.8492 301.245 84.2436 300.976 83.3689 300.976 82.3596 300.976 81.6867 301.11 81.0811 301.38 80.5428 301.649 80.0045 302.052 79.6008 302.523 79.3316 302.994 79.0625 303.6 78.9279 304.206 78.9279 305.148 78.9279 305.888 79.1971 306.426 79.8027 306.964 80.4082 307.234 81.2157 307.234 82.225L307.234 82.7633ZM303.398 80.6774C303.196 80.9465 302.994 81.283 302.994 81.754L305.619 81.754C305.619 81.283 305.484 80.9465 305.282 80.6774 305.08 80.4082 304.744 80.341 304.407 80.341 304.071 80.341 303.6 80.4082 303.398 80.6774ZM313.828 79.6008C314.231 80.0718 314.433 80.7447 314.433 81.6867L314.433 85.6567 312.415 85.6567 312.415 81.754C312.415 81.283 312.347 80.9465 312.145 80.7447 312.011 80.5428 311.742 80.4082 311.338 80.4082 310.934 80.4082 310.598 80.5428 310.329 80.812 310.06 81.0811 309.925 81.4176 309.925 81.8886L309.925 85.5894 307.906 85.5894 307.906 78.9952 309.858 78.9952 309.858 79.9372C310.06 79.6008 310.396 79.3316 310.8 79.1298 311.203 78.9279 311.607 78.8606 312.078 78.8606 312.886 78.8606 313.491 79.1298 313.828 79.6008ZM319.749 84.2436 319.614 85.7239C319.345 85.7912 319.076 85.7912 318.807 85.7912 317.798 85.7912 317.057 85.5894 316.586 85.1184 316.115 84.6473 315.914 84.0418 315.914 83.0997L315.914 80.5428 314.635 80.5428 314.635 78.9952 315.914 78.9952 315.914 77.0439 317.932 77.0439 317.932 78.9952 319.614 78.9952 319.614 80.5428 317.932 80.5428 317.932 83.0324C317.932 83.8399 318.269 84.2436 319.009 84.2436L319.749 84.2436ZM45.217 182.618 49.5907 182.618C50.6 182.618 51.4074 182.887 52.013 183.425 52.6186 183.963 52.8878 184.703 52.8878 185.578 52.8878 186.453 52.6186 187.26 52.013 187.731 51.4074 188.27 50.6673 188.539 49.5907 188.539L47.3029 188.539 47.3029 192.105 45.217 192.105 45.217 182.618ZM49.3215 186.924C50.3981 186.924 50.8691 186.453 50.8691 185.578 50.8691 185.107 50.7346 184.771 50.4654 184.569 50.1963 184.367 49.7926 184.232 49.2543 184.232L47.2356 184.232 47.2356 186.991 49.3215 186.991ZM58.6745 186.991 57.5306 187.126C56.9923 187.193 56.5886 187.328 56.3194 187.597 56.1176 187.866 55.983 188.202 55.983 188.673L55.983 192.105 53.9644 192.105 53.9644 185.511 55.8484 185.511 55.8484 186.655C56.1848 185.915 56.8577 185.444 57.9343 185.376L58.5399 185.309 58.6745 186.991ZM60.4912 191.769C59.9529 191.499 59.5492 191.096 59.2801 190.557 59.0109 190.019 58.8763 189.414 58.8763 188.741 58.8763 188.068 59.0109 187.462 59.2801 186.924 59.5492 186.386 59.9529 185.982 60.4912 185.713 61.0295 185.444 61.6351 185.309 62.308 185.309 62.9809 185.309 63.6537 185.444 64.1247 185.713 64.663 185.982 65.0668 186.386 65.3359 186.924 65.6051 187.462 65.7396 188.068 65.7396 188.741 65.7396 189.414 65.6051 190.019 65.3359 190.557 65.0668 191.096 64.663 191.499 64.1247 191.769 63.5864 192.038 62.9809 192.172 62.308 192.172 61.6351 192.172 61.0295 192.038 60.4912 191.769ZM63.8556 188.741C63.8556 188.135 63.721 187.597 63.4519 187.328 63.1827 186.991 62.8463 186.857 62.3753 186.857 61.366 186.857 60.895 187.462 60.895 188.741 60.895 190.019 61.366 190.625 62.3753 190.625 63.3846 190.625 63.8556 190.019 63.8556 188.741ZM73.8141 185.511 73.8141 191.432C73.8141 192.509 73.4777 193.316 72.8721 193.855 72.2665 194.393 71.3918 194.662 70.1806 194.662 69.575 194.662 69.0367 194.595 68.4984 194.46 67.9601 194.326 67.4891 194.124 67.0854 193.855L67.6237 192.441C68.4984 192.913 69.3059 193.114 70.1806 193.114 71.3245 193.114 71.8628 192.576 71.8628 191.567L71.8628 190.827C71.6609 191.163 71.3918 191.432 70.988 191.634 70.5843 191.836 70.1806 191.903 69.7096 191.903 69.104 191.903 68.633 191.769 68.162 191.499 67.691 191.23 67.3545 190.827 67.1527 190.356 66.8835 189.885 66.7489 189.279 66.7489 188.606 66.7489 187.933 66.8835 187.395 67.1527 186.857 67.4218 186.386 67.7582 185.982 68.162 185.713 68.633 185.444 69.104 185.309 69.7096 185.309 70.1806 185.309 70.5843 185.376 70.988 185.578 71.3918 185.78 71.6609 186.049 71.8628 186.386L71.8628 185.444 73.8141 185.444ZM71.459 189.885C71.7282 189.548 71.8628 189.144 71.8628 188.606 71.8628 188.068 71.7282 187.597 71.459 187.328 71.1899 187.059 70.8535 186.857 70.3824 186.857 69.9114 186.857 69.5077 186.991 69.2386 187.328 68.9694 187.664 68.8348 188.068 68.8348 188.606 68.8348 189.144 68.9694 189.548 69.2386 189.885 69.5077 190.221 69.9114 190.356 70.3824 190.356 70.7862 190.356 71.1899 190.221 71.459 189.885ZM80.1391 186.991 78.9952 187.126C78.4569 187.193 78.0532 187.328 77.784 187.597 77.5822 187.866 77.4476 188.202 77.4476 188.673L77.4476 192.105 75.429 192.105 75.429 185.511 77.3803 185.511 77.3803 186.655C77.7168 185.915 78.3896 185.444 79.4662 185.376L80.0718 185.309 80.1391 186.991ZM85.9258 186.049C86.3968 186.52 86.5987 187.26 86.5987 188.202L86.5987 192.105 84.6473 192.105 84.6473 191.096C84.5128 191.432 84.3109 191.701 83.9745 191.903 83.638 192.105 83.3016 192.172 82.8979 192.172 82.4269 192.172 82.0231 192.105 81.6867 191.903 81.3503 191.701 81.0138 191.499 80.812 191.163 80.6101 190.827 80.4755 190.49 80.4755 190.086 80.4755 189.615 80.6101 189.212 80.8793 188.943 81.1484 188.673 81.5521 188.472 82.0904 188.337 82.6287 188.202 83.3689 188.135 84.3109 188.135L84.6473 188.135 84.6473 187.866C84.6473 187.462 84.5801 187.193 84.3782 187.059 84.1763 186.924 83.9072 186.789 83.5035 186.789 83.167 186.789 82.8306 186.857 82.4269 186.991 82.0231 187.126 81.6867 187.26 81.283 187.462L80.7447 186.117C81.1484 185.915 81.5521 185.713 82.1577 185.511 82.7633 185.309 83.2343 185.309 83.7053 185.309 84.7146 185.309 85.4548 185.578 85.9258 186.049ZM84.3109 190.423C84.5801 190.154 84.6473 189.817 84.6473 189.414L84.6473 189.212 84.4455 189.212C83.7053 189.212 83.2343 189.279 82.8979 189.414 82.6287 189.548 82.4941 189.75 82.4941 190.019 82.4941 190.288 82.5614 190.49 82.7633 190.625 82.8979 190.759 83.167 190.894 83.3689 190.894 83.7726 190.827 84.109 190.692 84.3109 190.423ZM97.9702 185.982C98.3067 186.453 98.5085 187.126 98.5085 188.068L98.5085 192.038 96.4899 192.038 96.4899 188.135C96.4899 187.664 96.4226 187.395 96.288 187.193 96.1535 186.991 95.8843 186.924 95.6152 186.924 95.2114 186.924 94.9423 187.059 94.7404 187.328 94.5386 187.597 94.404 188.001 94.404 188.472L94.404 192.105 92.3854 192.105 92.3854 188.202C92.3854 187.731 92.3181 187.462 92.1835 187.26 92.0489 187.059 91.7798 186.991 91.5106 186.991 91.1069 186.991 90.8378 187.126 90.6359 187.395 90.434 187.664 90.2995 188.068 90.2995 188.539L90.2995 192.172 88.2809 192.172 88.2809 185.578 90.2322 185.578 90.2322 186.453C90.434 186.117 90.7032 185.847 91.0396 185.645 91.3761 185.444 91.7798 185.376 92.2508 185.376 93.2601 185.376 93.8657 185.78 94.2021 186.587 94.404 186.184 94.7404 185.915 95.0769 185.713 95.4806 185.511 95.8843 185.376 96.3553 185.376 97.0282 185.309 97.6338 185.578 97.9702 185.982ZM45.217 198.766 48.9178 198.766C49.9271 198.766 50.8691 198.968 51.6093 199.305 52.3495 199.709 52.9551 200.247 53.2915 200.92 53.6279 201.593 53.8971 202.467 53.8971 203.477 53.8971 204.486 53.6952 205.293 53.2915 206.034 52.8878 206.774 52.3495 207.312 51.6093 207.648 50.8691 208.052 49.9944 208.187 48.9178 208.187L45.217 208.187 45.217 198.766ZM48.7832 206.572C50.8019 206.572 51.8112 205.562 51.8112 203.544 51.8112 201.525 50.8019 200.516 48.7832 200.516L47.3702 200.516 47.3702 206.639 48.7832 206.639ZM61.2987 205.293 56.9923 205.293C57.0596 205.832 57.2614 206.235 57.5306 206.437 57.7997 206.639 58.2035 206.774 58.7418 206.774 59.0782 206.774 59.4146 206.706 59.7511 206.639 60.0875 206.505 60.4239 206.37 60.6931 206.168L61.2314 207.514C60.895 207.783 60.4912 207.985 60.0202 208.119 59.5492 208.254 59.0782 208.321 58.6072 208.321 57.4633 208.321 56.5886 207.985 55.983 207.379 55.3774 206.774 55.041 205.899 55.041 204.89 55.041 204.217 55.1755 203.611 55.4447 203.073 55.7138 202.535 56.1176 202.131 56.5886 201.862 57.0596 201.593 57.6652 201.458 58.2707 201.458 59.2128 201.458 59.9529 201.727 60.4912 202.333 61.0295 202.938 61.2987 203.746 61.2987 204.755L61.2987 205.293ZM57.396 203.207C57.1942 203.477 57.0596 203.813 56.9923 204.284L59.6165 204.284C59.6165 203.813 59.4819 203.477 59.2801 203.207 59.0782 202.938 58.7418 202.871 58.4053 202.871 57.9343 202.871 57.6652 203.006 57.396 203.207ZM66.9508 201.66 68.9694 201.66 66.0761 208.254 64.3266 208.254 61.4333 201.66 63.5192 201.66 65.2013 205.832 66.9508 201.66ZM75.3617 205.293 71.0553 205.293C71.1226 205.832 71.3245 206.235 71.5936 206.437 71.8628 206.639 72.2665 206.774 72.8048 206.774 73.1412 206.774 73.4777 206.706 73.8141 206.639 74.1505 206.505 74.487 206.37 74.7561 206.168L75.2944 207.514C74.958 207.783 74.5543 207.985 74.0832 208.119 73.6122 208.254 73.1412 208.321 72.6702 208.321 71.5263 208.321 70.6516 207.985 70.046 207.379 69.4404 206.774 69.104 205.899 69.104 204.89 69.104 204.217 69.2386 203.611 69.5077 203.073 69.7769 202.535 70.1806 202.131 70.6516 201.862 71.1226 201.593 71.7282 201.458 72.3338 201.458 73.2758 201.458 74.016 201.727 74.5543 202.333 75.0926 202.938 75.3617 203.746 75.3617 204.755L75.3617 205.293ZM71.5263 203.207C71.3245 203.477 71.1899 203.813 71.1226 204.284L73.7468 204.284C73.7468 203.813 73.6122 203.477 73.4104 203.207 73.2085 202.938 72.8721 202.871 72.5356 202.871 71.9973 202.871 71.7282 203.006 71.5263 203.207ZM76.5729 208.254 76.5729 198.766 78.5915 198.766 78.5915 208.254 76.5729 208.254ZM81.5521 207.918C81.0138 207.648 80.6101 207.245 80.341 206.706 80.0718 206.168 79.9372 205.562 79.9372 204.89 79.9372 204.217 80.0718 203.611 80.341 203.073 80.6101 202.535 81.0138 202.131 81.5521 201.862 82.0904 201.593 82.696 201.458 83.3689 201.458 84.0418 201.458 84.7146 201.593 85.1856 201.862 85.7239 202.131 86.1277 202.535 86.3968 203.073 86.666 203.611 86.8005 204.217 86.8005 204.89 86.8005 205.562 86.666 206.168 86.3968 206.706 86.1277 207.245 85.7239 207.648 85.1856 207.918 84.6473 208.187 84.0418 208.321 83.3689 208.321 82.696 208.321 82.0231 208.187 81.5521 207.918ZM84.8492 204.89C84.8492 204.284 84.7146 203.746 84.4455 203.477 84.1763 203.14 83.8399 203.006 83.3689 203.006 82.3596 203.006 81.8886 203.611 81.8886 204.89 81.8886 206.168 82.3596 206.774 83.3689 206.774 84.3782 206.774 84.8492 206.168 84.8492 204.89ZM93.7311 201.929C94.2021 202.198 94.5386 202.602 94.7404 203.14 94.9423 203.678 95.1441 204.284 95.1441 204.957 95.1441 205.63 95.0096 206.235 94.7404 206.774 94.4713 207.312 94.1348 207.716 93.7311 207.985 93.3274 208.254 92.7891 208.389 92.1835 208.389 91.7125 208.389 91.3088 208.321 90.9723 208.119 90.6359 207.918 90.2995 207.648 90.1649 207.312L90.1649 210.676 88.1463 210.676 88.1463 201.66 90.1649 201.66 90.1649 202.602C90.3668 202.265 90.6359 201.996 91.0396 201.794 91.4434 201.593 91.8471 201.525 92.2508 201.525 92.7891 201.458 93.2601 201.593 93.7311 201.929ZM92.7218 206.303C92.991 205.966 93.1255 205.495 93.1255 204.89 93.1255 204.284 92.991 203.813 92.7218 203.477 92.4527 203.14 92.1162 202.938 91.6452 202.938 91.1742 202.938 90.7705 203.073 90.5686 203.409 90.2995 203.746 90.1649 204.217 90.1649 204.822 90.1649 205.428 90.2995 205.899 90.5686 206.235 90.8378 206.572 91.1742 206.706 91.6452 206.706 92.1162 206.706 92.4527 206.639 92.7218 206.303ZM106.179 202.131C106.516 202.602 106.718 203.275 106.718 204.217L106.718 208.187 104.699 208.187 104.699 204.284C104.699 203.813 104.632 203.544 104.497 203.342 104.363 203.14 104.093 203.073 103.824 203.073 103.42 203.073 103.151 203.207 102.949 203.477 102.748 203.746 102.613 204.149 102.613 204.62L102.613 208.254 100.594 208.254 100.594 204.351C100.594 203.88 100.527 203.611 100.393 203.409 100.258 203.207 99.9888 203.14 99.7197 203.14 99.316 203.14 99.0468 203.275 98.8449 203.544 98.6431 203.813 98.5085 204.217 98.5085 204.688L98.5085 208.321 96.4899 208.321 96.4899 201.727 98.4412 201.727 98.4412 202.602C98.6431 202.265 98.9122 201.996 99.2487 201.794 99.5851 201.593 99.9888 201.525 100.46 201.525 101.469 201.525 102.075 201.929 102.411 202.736 102.613 202.333 102.949 202.064 103.286 201.862 103.69 201.66 104.093 201.525 104.564 201.525 105.237 201.458 105.843 201.727 106.179 202.131ZM114.186 205.293 109.88 205.293C109.947 205.832 110.149 206.235 110.418 206.437 110.688 206.639 111.091 206.774 111.63 206.774 111.966 206.774 112.302 206.706 112.639 206.639 112.975 206.505 113.312 206.37 113.581 206.168L114.119 207.514C113.783 207.783 113.379 207.985 112.908 208.119 112.437 208.254 111.966 208.321 111.495 208.321 110.351 208.321 109.476 207.985 108.871 207.379 108.265 206.774 107.929 205.899 107.929 204.89 107.929 204.217 108.063 203.611 108.332 203.073 108.602 202.535 109.005 202.131 109.476 201.862 109.947 201.593 110.553 201.458 111.159 201.458 112.101 201.458 112.841 201.727 113.379 202.333 113.917 202.938 114.186 203.746 114.186 204.755L114.186 205.293ZM110.351 203.207C110.149 203.477 110.015 203.813 109.947 204.284L112.572 204.284C112.572 203.813 112.437 203.477 112.235 203.207 112.033 202.938 111.697 202.871 111.36 202.871 110.889 202.871 110.553 203.006 110.351 203.207ZM121.319 202.131C121.723 202.602 121.924 203.275 121.924 204.217L121.924 208.187 119.906 208.187 119.906 204.284C119.906 203.813 119.839 203.477 119.637 203.275 119.502 203.073 119.233 202.938 118.829 202.938 118.426 202.938 118.089 203.073 117.82 203.342 117.551 203.611 117.416 203.948 117.416 204.419L117.416 208.119 115.398 208.119 115.398 201.525 117.349 201.525 117.349 202.467C117.551 202.131 117.887 201.862 118.291 201.66 118.695 201.458 119.098 201.391 119.569 201.391 120.377 201.458 120.982 201.727 121.319 202.131ZM127.778 206.841 127.644 208.321C127.375 208.389 127.106 208.389 126.836 208.389 125.827 208.389 125.087 208.187 124.616 207.716 124.145 207.245 123.943 206.639 123.943 205.697L123.943 203.14 122.665 203.14 122.665 201.593 123.943 201.593 123.943 199.641 125.962 199.641 125.962 201.593 127.644 201.593 127.644 203.14 125.962 203.14 125.962 205.63C125.962 206.437 126.298 206.841 127.038 206.841L127.778 206.841ZM318.74 117.887C318.067 117.685 317.528 117.416 317.057 117.08L317.73 115.599C318.672 116.205 319.682 116.541 320.826 116.541 321.431 116.541 321.902 116.474 322.171 116.272 322.508 116.07 322.642 115.801 322.642 115.465 322.642 115.128 322.508 114.927 322.171 114.725 321.835 114.523 321.364 114.388 320.624 114.254 319.816 114.052 319.143 113.85 318.605 113.648 318.134 113.379 317.73 113.11 317.528 112.773 317.327 112.437 317.192 111.966 317.192 111.428 317.192 110.822 317.327 110.351 317.663 109.88 317.999 109.409 318.403 109.073 319.009 108.803 319.614 108.534 320.22 108.4 321.027 108.4 321.7 108.4 322.373 108.467 322.979 108.669 323.584 108.871 324.123 109.14 324.459 109.476L323.786 110.957C322.911 110.351 321.969 110.015 321.027 110.015 320.489 110.015 320.018 110.149 319.749 110.351 319.413 110.553 319.278 110.822 319.278 111.226 319.278 111.428 319.345 111.63 319.48 111.764 319.614 111.899 319.816 112.033 320.085 112.101 320.355 112.168 320.758 112.302 321.297 112.437 322.508 112.706 323.382 113.043 323.921 113.446 324.459 113.85 324.728 114.456 324.728 115.196 324.728 116.07 324.392 116.811 323.719 117.349 323.046 117.887 322.037 118.089 320.826 118.089 320.085 118.156 319.413 118.089 318.74 117.887ZM332.062 115.128 327.756 115.128C327.823 115.667 328.025 116.07 328.294 116.272 328.564 116.474 328.967 116.609 329.506 116.609 329.842 116.609 330.178 116.541 330.515 116.474 330.851 116.34 331.188 116.205 331.457 116.003L331.995 117.349C331.659 117.618 331.255 117.82 330.784 117.955 330.313 118.089 329.842 118.156 329.371 118.156 328.227 118.156 327.352 117.82 326.747 117.214 326.074 116.609 325.805 115.734 325.805 114.725 325.805 114.052 325.939 113.446 326.209 112.908 326.478 112.37 326.881 111.966 327.352 111.697 327.823 111.428 328.429 111.293 329.035 111.293 329.977 111.293 330.717 111.562 331.255 112.168 331.793 112.773 332.062 113.581 332.062 114.59L332.062 115.128ZM328.16 113.043C327.958 113.312 327.756 113.648 327.756 114.119L330.38 114.119C330.38 113.648 330.246 113.312 330.044 113.043 329.842 112.773 329.506 112.706 329.169 112.706 328.833 112.706 328.362 112.773 328.16 113.043ZM333.879 117.214C333.274 116.609 332.937 115.801 332.937 114.725 332.937 114.052 333.072 113.446 333.408 112.908 333.677 112.37 334.148 111.966 334.687 111.697 335.225 111.428 335.831 111.293 336.571 111.293 337.042 111.293 337.513 111.36 337.984 111.495 338.455 111.63 338.791 111.831 339.06 112.101L338.522 113.514C338.253 113.312 337.984 113.177 337.647 113.043 337.311 112.908 337.042 112.908 336.705 112.908 336.167 112.908 335.763 113.043 335.494 113.379 335.225 113.715 335.09 114.186 335.09 114.792 335.09 115.398 335.225 115.869 335.494 116.205 335.763 116.541 336.167 116.676 336.705 116.676 336.974 116.676 337.311 116.609 337.647 116.541 337.984 116.407 338.253 116.272 338.522 116.07L339.06 117.484C338.791 117.753 338.388 117.955 337.917 118.089 337.445 118.224 336.974 118.291 336.436 118.291 335.36 118.156 334.485 117.82 333.879 117.214ZM346.26 111.428 346.26 118.022 344.309 118.022 344.309 117.08C344.107 117.416 343.838 117.685 343.501 117.887 343.165 118.089 342.761 118.156 342.357 118.156 341.55 118.156 340.877 117.955 340.473 117.484 340.07 117.012 339.868 116.34 339.868 115.398L339.868 111.495 341.886 111.495 341.886 115.465C341.886 115.869 341.954 116.138 342.156 116.34 342.29 116.541 342.559 116.609 342.896 116.609 343.299 116.609 343.636 116.474 343.838 116.205 344.107 115.936 344.174 115.599 344.174 115.128L344.174 111.495 346.26 111.495ZM352.585 112.975 351.441 113.11C350.903 113.177 350.499 113.312 350.23 113.581 350.028 113.85 349.894 114.186 349.894 114.657L349.894 118.089 347.875 118.089 347.875 111.495 349.826 111.495 349.826 112.639C350.163 111.899 350.836 111.428 351.912 111.36L352.518 111.293 352.585 112.975ZM353.191 108.265 355.344 108.265 355.344 110.149 353.191 110.149 353.191 108.265ZM353.258 118.022 353.258 111.428 355.277 111.428 355.277 118.022 353.258 118.022ZM361.131 116.609 360.996 118.089C360.727 118.156 360.458 118.156 360.189 118.156 359.179 118.156 358.439 117.955 357.968 117.484 357.497 117.012 357.295 116.407 357.295 115.465L357.295 112.908 356.017 112.908 356.017 111.36 357.295 111.36 357.295 109.409 359.314 109.409 359.314 111.36 360.996 111.36 360.996 112.908 359.314 112.908 359.314 115.398C359.314 116.205 359.65 116.609 360.39 116.609 360.66 116.676 360.929 116.676 361.131 116.609ZM366.715 111.428 368.734 111.428 364.764 120.444 362.678 120.444 363.957 117.685 361.265 111.428 363.351 111.428 365.033 115.599 366.715 111.428ZM319.413 133.7C318.672 133.296 318.134 132.758 317.798 132.018 317.394 131.277 317.259 130.403 317.259 129.461 317.259 128.519 317.461 127.644 317.798 126.904 318.201 126.164 318.74 125.625 319.413 125.222 320.153 124.818 320.96 124.616 321.902 124.616 322.508 124.616 323.113 124.683 323.719 124.885 324.324 125.087 324.796 125.356 325.132 125.693L324.459 127.173C324.055 126.836 323.652 126.635 323.248 126.5 322.844 126.365 322.44 126.298 321.969 126.298 321.095 126.298 320.489 126.567 320.018 127.106 319.547 127.644 319.345 128.451 319.345 129.461 319.345 130.47 319.547 131.277 320.018 131.816 320.489 132.354 321.095 132.623 321.969 132.623 322.44 132.623 322.844 132.556 323.248 132.421 323.652 132.287 324.055 132.018 324.459 131.748L325.132 133.229C324.796 133.565 324.324 133.834 323.719 134.036 323.113 134.238 322.575 134.305 321.902 134.305 320.96 134.305 320.153 134.103 319.413 133.7ZM332.332 128.115C332.735 128.586 332.937 129.259 332.937 130.201L332.937 134.171 330.919 134.171 330.919 130.268C330.919 129.797 330.851 129.461 330.649 129.259 330.515 129.057 330.246 128.922 329.842 128.922 329.438 128.922 329.102 129.057 328.833 129.326 328.564 129.595 328.429 129.932 328.429 130.403L328.429 134.103 326.41 134.103 326.41 124.616 328.429 124.616 328.429 128.384C328.631 128.048 328.967 127.778 329.304 127.577 329.64 127.375 330.044 127.307 330.515 127.307 331.39 127.442 331.995 127.644 332.332 128.115ZM339.599 128.115C340.07 128.586 340.339 129.326 340.339 130.268L340.339 134.171 338.388 134.171 338.388 133.229C338.253 133.565 338.051 133.834 337.715 134.036 337.378 134.238 337.042 134.305 336.638 134.305 336.167 134.305 335.763 134.238 335.427 134.036 335.09 133.834 334.754 133.632 334.552 133.296 334.35 132.96 334.216 132.623 334.216 132.219 334.216 131.748 334.35 131.345 334.552 131.076 334.821 130.806 335.225 130.605 335.763 130.47 336.302 130.335 337.042 130.268 337.984 130.268L338.32 130.268 338.32 129.999C338.32 129.595 338.253 129.326 338.051 129.191 337.849 129.057 337.58 128.922 337.176 128.922 336.84 128.922 336.503 128.99 336.1 129.124 335.696 129.259 335.36 129.393 334.956 129.595L334.418 128.249C334.821 128.048 335.225 127.846 335.831 127.644 336.369 127.509 336.907 127.442 337.378 127.442 338.388 127.442 339.128 127.644 339.599 128.115ZM337.984 132.489C338.253 132.219 338.32 131.883 338.32 131.479L338.32 131.277 338.118 131.277C337.378 131.277 336.907 131.345 336.571 131.479 336.302 131.614 336.1 131.816 336.1 132.085 336.1 132.354 336.167 132.556 336.369 132.69 336.503 132.825 336.773 132.96 336.974 132.96 337.445 132.892 337.715 132.758 337.984 132.489ZM351.643 128.115C351.98 128.586 352.181 129.259 352.181 130.201L352.181 134.171 350.163 134.171 350.163 130.268C350.163 129.797 350.095 129.528 349.961 129.326 349.826 129.124 349.557 129.057 349.288 129.057 348.884 129.057 348.615 129.191 348.413 129.461 348.211 129.73 348.077 130.134 348.077 130.605L348.077 134.238 346.058 134.238 346.058 130.335C346.058 129.864 345.991 129.595 345.856 129.393 345.722 129.191 345.453 129.124 345.184 129.124 344.78 129.124 344.511 129.259 344.309 129.528 344.107 129.797 343.972 130.201 343.972 130.672L343.972 134.305 341.954 134.305 341.954 127.711 343.905 127.711 343.905 128.586C344.107 128.249 344.376 127.98 344.712 127.778 345.049 127.577 345.453 127.509 345.924 127.509 346.933 127.509 347.539 127.913 347.875 128.72 348.077 128.317 348.413 128.048 348.75 127.846 349.153 127.644 349.557 127.509 350.028 127.509 350.701 127.442 351.239 127.644 351.643 128.115ZM359.314 127.846C359.785 128.115 360.121 128.519 360.323 129.057 360.592 129.595 360.66 130.201 360.66 130.874 360.66 131.547 360.525 132.152 360.323 132.69 360.054 133.229 359.718 133.632 359.314 133.902 358.91 134.171 358.372 134.305 357.766 134.305 357.295 134.305 356.892 134.238 356.555 134.036 356.219 133.834 355.882 133.565 355.748 133.229L355.748 136.593 353.729 136.593 353.729 127.577 355.748 127.577 355.748 128.519C355.949 128.182 356.219 127.913 356.622 127.711 356.959 127.509 357.43 127.442 357.834 127.442 358.372 127.442 358.843 127.577 359.314 127.846ZM358.305 132.287C358.574 131.95 358.708 131.479 358.708 130.874 358.708 130.268 358.574 129.797 358.305 129.461 358.035 129.124 357.699 128.922 357.228 128.922 356.757 128.922 356.353 129.057 356.151 129.393 355.882 129.73 355.748 130.201 355.748 130.806 355.748 131.412 355.882 131.883 356.151 132.219 356.421 132.556 356.757 132.69 357.228 132.69 357.699 132.758 358.035 132.623 358.305 132.287ZM361.871 124.414 364.024 124.414 364.024 126.298 361.871 126.298 361.871 124.414ZM361.938 134.171 361.938 127.577 363.957 127.577 363.957 134.171 361.938 134.171ZM366.917 133.902C366.379 133.632 365.975 133.229 365.706 132.69 365.437 132.152 365.302 131.547 365.302 130.874 365.302 130.201 365.437 129.595 365.706 129.057 365.975 128.519 366.379 128.115 366.917 127.846 367.456 127.577 368.061 127.442 368.734 127.442 369.407 127.442 370.08 127.577 370.551 127.846 371.089 128.115 371.493 128.519 371.762 129.057 372.031 129.595 372.166 130.201 372.166 130.874 372.166 131.547 372.031 132.152 371.762 132.69 371.493 133.229 371.089 133.632 370.551 133.902 370.013 134.171 369.407 134.305 368.734 134.305 368.061 134.305 367.388 134.171 366.917 133.902ZM370.214 130.874C370.214 130.268 370.08 129.73 369.811 129.461 369.542 129.191 369.205 128.99 368.734 128.99 367.725 128.99 367.254 129.595 367.254 130.874 367.254 132.152 367.725 132.758 368.734 132.758 369.743 132.758 370.214 132.152 370.214 130.874ZM379.365 128.115C379.769 128.586 379.971 129.259 379.971 130.201L379.971 134.171 377.952 134.171 377.952 130.268C377.952 129.797 377.885 129.461 377.683 129.259 377.549 129.057 377.28 128.922 376.876 128.922 376.472 128.922 376.136 129.057 375.866 129.326 375.597 129.595 375.463 129.932 375.463 130.403L375.463 134.103 373.444 134.103 373.444 127.509 375.396 127.509 375.396 128.451C375.597 128.115 375.934 127.846 376.337 127.644 376.741 127.442 377.145 127.375 377.616 127.375 378.423 127.442 378.962 127.644 379.365 128.115ZM382.326 134.103C381.788 133.969 381.384 133.767 380.98 133.498L381.519 132.085C381.855 132.354 382.259 132.489 382.73 132.623 383.134 132.758 383.605 132.825 384.008 132.825 384.345 132.825 384.547 132.758 384.748 132.69 384.95 132.623 385.018 132.421 385.018 132.287 385.018 132.152 384.95 132.018 384.816 131.883 384.681 131.816 384.479 131.681 384.143 131.614L383.066 131.345C382.461 131.21 381.99 131.008 381.653 130.672 381.384 130.403 381.182 129.932 381.182 129.461 381.182 129.057 381.317 128.653 381.519 128.384 381.788 128.048 382.124 127.846 382.528 127.644 382.932 127.442 383.47 127.375 384.008 127.375 384.479 127.375 384.95 127.442 385.421 127.577 385.892 127.711 386.296 127.913 386.632 128.182L386.094 129.528C385.421 129.057 384.681 128.788 384.008 128.788 383.672 128.788 383.47 128.855 383.268 128.922 383.066 128.99 382.999 129.191 382.999 129.393 382.999 129.528 383.066 129.663 383.134 129.73 383.201 129.797 383.403 129.864 383.672 129.932L384.816 130.201C385.489 130.335 385.96 130.605 386.296 130.874 386.632 131.143 386.767 131.614 386.767 132.152 386.767 132.758 386.498 133.296 386.027 133.632 385.556 133.969 384.816 134.171 383.941 134.171 383.403 134.305 382.864 134.238 382.326 134.103ZM98.3067 118.022 98.3067 110.216 95.346 110.216 95.346 108.534 103.42 108.534 103.42 110.216 100.46 110.216 100.46 118.022 98.3067 118.022ZM110.216 111.966C110.62 112.437 110.822 113.11 110.822 114.052L110.822 118.022 108.803 118.022 108.803 114.119C108.803 113.648 108.736 113.312 108.534 113.11 108.4 112.908 108.131 112.773 107.727 112.773 107.323 112.773 106.987 112.908 106.718 113.177 106.448 113.446 106.314 113.783 106.314 114.254L106.314 117.955 104.295 117.955 104.295 108.467 106.314 108.467 106.314 112.235C106.516 111.899 106.852 111.63 107.189 111.428 107.525 111.226 107.929 111.159 108.4 111.159 109.274 111.293 109.813 111.495 110.216 111.966ZM117.012 112.975 115.869 113.11C115.33 113.177 114.927 113.312 114.657 113.581 114.456 113.85 114.321 114.186 114.321 114.657L114.321 118.089 112.302 118.089 112.302 111.495 114.254 111.495 114.254 112.639C114.59 111.899 115.263 111.428 116.34 111.36L116.945 111.293 117.012 112.975ZM123.539 115.128 119.233 115.128C119.3 115.667 119.502 116.07 119.771 116.272 120.04 116.474 120.444 116.609 120.982 116.609 121.319 116.609 121.655 116.541 121.992 116.474 122.328 116.34 122.665 116.205 122.934 116.003L123.472 117.349C123.136 117.618 122.732 117.82 122.261 117.955 121.79 118.089 121.319 118.156 120.848 118.156 119.704 118.156 118.829 117.82 118.224 117.214 117.618 116.609 117.282 115.734 117.282 114.725 117.282 114.052 117.416 113.446 117.685 112.908 117.955 112.37 118.358 111.966 118.829 111.697 119.3 111.428 119.906 111.293 120.511 111.293 121.453 111.293 122.194 111.562 122.732 112.168 123.27 112.773 123.539 113.581 123.539 114.59L123.539 115.128ZM119.637 113.043C119.435 113.312 119.3 113.648 119.233 114.119L121.857 114.119C121.857 113.648 121.723 113.312 121.521 113.043 121.319 112.773 120.982 112.706 120.646 112.706 120.175 112.706 119.906 112.773 119.637 113.043ZM129.864 111.966C130.335 112.437 130.537 113.177 130.537 114.119L130.537 118.022 128.586 118.022 128.586 117.08C128.451 117.416 128.249 117.685 127.913 117.887 127.577 118.089 127.24 118.156 126.836 118.156 126.365 118.156 125.962 118.089 125.625 117.887 125.289 117.685 124.952 117.484 124.751 117.147 124.549 116.811 124.414 116.474 124.414 116.07 124.414 115.599 124.549 115.196 124.818 114.927 125.087 114.657 125.491 114.456 126.029 114.321 126.567 114.186 127.307 114.119 128.249 114.119L128.586 114.119 128.586 113.85C128.586 113.446 128.519 113.177 128.317 113.043 128.115 112.908 127.846 112.773 127.442 112.773 127.106 112.773 126.769 112.841 126.365 112.975 125.962 113.11 125.625 113.244 125.222 113.446L124.683 112.101C125.087 111.899 125.491 111.697 126.096 111.495 126.702 111.293 127.173 111.293 127.644 111.293 128.653 111.293 129.393 111.495 129.864 111.966ZM128.249 116.34C128.519 116.07 128.586 115.734 128.586 115.33L128.586 115.128 128.384 115.128C127.644 115.128 127.173 115.196 126.836 115.33 126.567 115.465 126.433 115.667 126.433 115.936 126.433 116.205 126.5 116.407 126.702 116.541 126.836 116.676 127.106 116.811 127.307 116.811 127.711 116.743 128.048 116.609 128.249 116.34ZM136.391 116.609 136.257 118.089C135.988 118.156 135.718 118.156 135.449 118.156 134.44 118.156 133.7 117.955 133.229 117.484 132.758 117.012 132.556 116.407 132.556 115.465L132.556 112.908 131.277 112.908 131.277 111.36 132.556 111.36 132.556 109.409 134.574 109.409 134.574 111.36 136.257 111.36 136.257 112.908 134.574 112.908 134.574 115.398C134.574 116.205 134.911 116.609 135.651 116.609 135.988 116.676 136.189 116.676 136.391 116.609ZM103.891 124.683 105.506 124.683 105.506 134.171 103.69 134.171 103.69 128.519 101.536 132.556 100.191 132.556 98.0375 128.519 98.0375 134.103 96.2207 134.103 96.2207 124.616 97.9029 124.616 100.931 130.403 103.891 124.683ZM108.602 133.902C108.063 133.632 107.66 133.229 107.39 132.69 107.121 132.152 106.987 131.547 106.987 130.874 106.987 130.201 107.121 129.595 107.39 129.057 107.66 128.519 108.063 128.115 108.602 127.846 109.14 127.577 109.745 127.442 110.418 127.442 111.091 127.442 111.764 127.577 112.235 127.846 112.773 128.115 113.177 128.519 113.446 129.057 113.715 129.595 113.85 130.201 113.85 130.874 113.85 131.547 113.715 132.152 113.446 132.69 113.177 133.229 112.773 133.632 112.235 133.902 111.697 134.171 111.091 134.305 110.418 134.305 109.745 134.305 109.14 134.171 108.602 133.902ZM111.899 130.874C111.899 130.268 111.764 129.73 111.495 129.461 111.226 129.124 110.889 128.99 110.418 128.99 109.409 128.99 108.938 129.595 108.938 130.874 108.938 132.152 109.409 132.758 110.418 132.758 111.428 132.758 111.899 132.152 111.899 130.874ZM121.857 124.683 121.857 134.171 119.839 134.171 119.839 133.229C119.637 133.565 119.368 133.834 119.031 134.036 118.695 134.238 118.291 134.305 117.82 134.305 117.282 134.305 116.743 134.171 116.34 133.834 115.869 133.565 115.532 133.161 115.33 132.623 115.061 132.085 114.994 131.479 114.994 130.806 114.994 130.134 115.128 129.528 115.33 128.99 115.532 128.451 115.936 128.048 116.34 127.778 116.811 127.509 117.282 127.375 117.887 127.375 118.358 127.375 118.762 127.442 119.098 127.644 119.435 127.846 119.771 128.115 119.906 128.451L119.906 124.683 121.857 124.683ZM119.502 132.287C119.771 131.95 119.906 131.479 119.906 130.874 119.906 130.268 119.771 129.797 119.502 129.461 119.233 129.124 118.897 128.99 118.426 128.99 117.955 128.99 117.551 129.124 117.349 129.461 117.147 129.797 116.945 130.268 116.945 130.806 116.945 131.412 117.08 131.883 117.349 132.219 117.618 132.556 117.955 132.758 118.426 132.758 118.897 132.758 119.233 132.623 119.502 132.287ZM129.393 131.277 125.087 131.277C125.154 131.816 125.356 132.219 125.625 132.421 125.894 132.623 126.298 132.758 126.836 132.758 127.173 132.758 127.509 132.69 127.846 132.623 128.182 132.489 128.519 132.354 128.788 132.152L129.326 133.498C128.99 133.767 128.586 133.969 128.115 134.103 127.644 134.238 127.173 134.305 126.702 134.305 125.558 134.305 124.683 133.969 124.078 133.363 123.472 132.758 123.136 131.883 123.136 130.874 123.136 130.201 123.27 129.595 123.539 129.057 123.809 128.519 124.212 128.115 124.683 127.846 125.154 127.577 125.76 127.442 126.365 127.442 127.307 127.442 128.048 127.711 128.586 128.317 129.124 128.922 129.393 129.73 129.393 130.739L129.393 131.277ZM125.491 129.191C125.289 129.461 125.154 129.797 125.087 130.268L127.711 130.268C127.711 129.797 127.577 129.461 127.375 129.191 127.173 128.922 126.836 128.855 126.5 128.855 126.029 128.855 125.76 128.922 125.491 129.191ZM130.605 134.171 130.605 124.683 132.623 124.683 132.623 134.171 130.605 134.171ZM134.103 124.414 136.257 124.414 136.257 126.298 134.103 126.298 134.103 124.414ZM134.171 134.171 134.171 127.577 136.189 127.577 136.189 134.171 134.171 134.171ZM143.726 128.115C144.129 128.586 144.331 129.259 144.331 130.201L144.331 134.171 142.312 134.171 142.312 130.268C142.312 129.797 142.245 129.461 142.043 129.259 141.909 129.057 141.64 128.922 141.236 128.922 140.832 128.922 140.496 129.057 140.227 129.326 139.957 129.595 139.823 129.932 139.823 130.403L139.823 134.103 137.804 134.103 137.804 127.509 139.756 127.509 139.756 128.451C139.957 128.115 140.294 127.846 140.698 127.644 141.101 127.442 141.505 127.375 141.976 127.375 142.716 127.442 143.322 127.644 143.726 128.115ZM152.54 127.577 152.54 133.498C152.54 134.574 152.204 135.382 151.598 135.92 150.993 136.459 150.118 136.728 148.907 136.728 148.301 136.728 147.763 136.66 147.224 136.526 146.686 136.391 146.215 136.189 145.811 135.92L146.35 134.507C147.224 134.978 148.032 135.18 148.907 135.18 150.051 135.18 150.589 134.642 150.589 133.632L150.589 132.892C150.387 133.229 150.118 133.498 149.714 133.7 149.31 133.902 148.907 133.969 148.436 133.969 147.83 133.969 147.359 133.834 146.888 133.565 146.417 133.296 146.081 132.892 145.879 132.421 145.61 131.95 145.475 131.345 145.475 130.672 145.475 129.999 145.61 129.461 145.879 128.922 146.148 128.451 146.484 128.048 146.888 127.778 147.359 127.509 147.83 127.375 148.436 127.375 148.907 127.375 149.31 127.442 149.714 127.644 150.118 127.846 150.387 128.115 150.589 128.451L150.589 127.509 152.54 127.509ZM150.118 132.018C150.387 131.681 150.522 131.277 150.522 130.739 150.522 130.201 150.387 129.73 150.118 129.461 149.849 129.191 149.512 128.99 149.041 128.99 148.57 128.99 148.166 129.124 147.897 129.461 147.628 129.797 147.494 130.201 147.494 130.739 147.494 131.277 147.628 131.681 147.897 132.018 148.166 132.354 148.57 132.489 149.041 132.489 149.512 132.489 149.849 132.287 150.118 132.018ZM364.899 186.117 364.024 184.031 359.583 184.031 358.708 186.117 356.622 186.117 360.996 176.629 362.678 176.629 367.052 186.117 364.899 186.117ZM360.256 182.416 363.284 182.416 361.736 178.849 360.256 182.416ZM374.319 179.455 374.319 185.376C374.319 186.453 373.982 187.26 373.377 187.799 372.771 188.337 371.897 188.606 370.685 188.606 370.08 188.606 369.542 188.539 369.003 188.404 368.465 188.27 367.994 188.068 367.59 187.799L368.128 186.386C369.003 186.857 369.811 187.059 370.685 187.059 371.829 187.059 372.368 186.52 372.368 185.511L372.368 184.771C372.166 185.107 371.897 185.376 371.493 185.578 371.089 185.78 370.685 185.847 370.214 185.847 369.609 185.847 369.138 185.713 368.667 185.444 368.196 185.174 367.859 184.771 367.657 184.3 367.388 183.829 367.254 183.223 367.254 182.55 367.254 181.877 367.388 181.339 367.657 180.801 367.927 180.33 368.263 179.926 368.667 179.657 369.138 179.388 369.609 179.253 370.214 179.253 370.685 179.253 371.089 179.32 371.493 179.522 371.897 179.724 372.166 179.993 372.368 180.33L372.368 179.388 374.319 179.388ZM371.897 183.896C372.166 183.56 372.3 183.156 372.3 182.618 372.3 182.079 372.166 181.608 371.897 181.339 371.627 181.07 371.291 180.868 370.82 180.868 370.349 180.868 369.945 181.003 369.676 181.339 369.407 181.676 369.272 182.079 369.272 182.618 369.272 183.156 369.407 183.56 369.676 183.896 369.945 184.232 370.349 184.367 370.82 184.367 371.291 184.367 371.627 184.232 371.897 183.896ZM375.799 176.293 377.952 176.293 377.952 178.177 375.799 178.177 375.799 176.293ZM375.866 186.117 375.866 179.522 377.885 179.522 377.885 186.117 375.866 186.117ZM379.5 186.117 379.5 176.629 381.519 176.629 381.519 186.117 379.5 186.117ZM389.055 183.156 384.748 183.156C384.816 183.694 385.018 184.098 385.287 184.3 385.556 184.502 385.96 184.636 386.498 184.636 386.834 184.636 387.171 184.569 387.507 184.502 387.844 184.367 388.18 184.232 388.449 184.031L388.987 185.376C388.651 185.645 388.247 185.847 387.776 185.982 387.305 186.117 386.834 186.184 386.363 186.184 385.219 186.184 384.345 185.847 383.739 185.242 383.066 184.636 382.797 183.761 382.797 182.752 382.797 182.079 382.932 181.474 383.201 180.935 383.47 180.397 383.874 179.993 384.345 179.724 384.816 179.455 385.421 179.32 386.027 179.32 386.969 179.32 387.709 179.59 388.247 180.195 388.786 180.801 389.055 181.608 389.055 182.618L389.055 183.156ZM385.152 181.07C384.95 181.339 384.748 181.676 384.748 182.147L387.373 182.147C387.373 181.676 387.238 181.339 387.036 181.07 386.834 180.801 386.498 180.734 386.161 180.734 385.825 180.734 385.354 180.868 385.152 181.07ZM357.632 192.778 362.005 192.778C363.015 192.778 363.822 193.047 364.428 193.585 365.033 194.124 365.302 194.864 365.302 195.739 365.302 196.613 365.033 197.421 364.428 197.892 363.822 198.363 363.082 198.699 362.005 198.699L359.718 198.699 359.718 202.265 357.632 202.265 357.632 192.778ZM361.736 197.084C362.813 197.084 363.284 196.613 363.284 195.739 363.284 195.268 363.149 194.931 362.88 194.729 362.611 194.527 362.207 194.393 361.669 194.393L359.65 194.393 359.65 197.152 361.736 197.152ZM372.166 199.305 367.859 199.305C367.927 199.843 368.128 200.247 368.398 200.449 368.667 200.651 369.07 200.785 369.609 200.785 369.945 200.785 370.282 200.718 370.618 200.651 370.955 200.516 371.291 200.381 371.56 200.18L372.098 201.525C371.762 201.794 371.358 201.996 370.887 202.131 370.416 202.265 369.945 202.333 369.474 202.333 368.33 202.333 367.456 201.996 366.85 201.391 366.177 200.785 365.908 199.91 365.908 198.901 365.908 198.228 366.043 197.623 366.312 197.084 366.581 196.546 366.985 196.142 367.456 195.873 367.927 195.604 368.532 195.469 369.138 195.469 370.08 195.469 370.82 195.739 371.358 196.344 371.897 196.95 372.166 197.757 372.166 198.766L372.166 199.305ZM368.263 197.219C368.061 197.488 367.859 197.824 367.859 198.295L370.484 198.295C370.484 197.824 370.349 197.488 370.147 197.219 369.945 196.95 369.609 196.882 369.272 196.882 368.936 196.882 368.465 197.017 368.263 197.219ZM379.298 196.142C379.702 196.613 379.904 197.286 379.904 198.228L379.904 202.198 377.885 202.198 377.885 198.295C377.885 197.824 377.818 197.488 377.616 197.286 377.481 197.084 377.212 196.95 376.809 196.95 376.405 196.95 376.068 197.084 375.799 197.353 375.53 197.623 375.396 197.959 375.396 198.43L375.396 202.131 373.377 202.131 373.377 195.537 375.328 195.537 375.328 196.479C375.53 196.142 375.866 195.873 376.27 195.671 376.674 195.469 377.078 195.402 377.549 195.402 378.289 195.469 378.894 195.671 379.298 196.142ZM387.305 199.305 382.999 199.305C383.066 199.843 383.268 200.247 383.537 200.449 383.806 200.651 384.21 200.785 384.748 200.785 385.085 200.785 385.421 200.718 385.758 200.651 386.094 200.516 386.431 200.381 386.7 200.18L387.238 201.525C386.902 201.794 386.498 201.996 386.027 202.131 385.556 202.265 385.085 202.333 384.614 202.333 383.47 202.333 382.595 201.996 381.99 201.391 381.317 200.785 381.048 199.91 381.048 198.901 381.048 198.228 381.182 197.623 381.451 197.084 381.72 196.546 382.124 196.142 382.595 195.873 383.066 195.604 383.672 195.469 384.277 195.469 385.219 195.469 385.96 195.739 386.498 196.344 387.036 196.95 387.305 197.757 387.305 198.766L387.305 199.305ZM383.47 197.219C383.268 197.488 383.066 197.824 383.066 198.295L385.69 198.295C385.69 197.824 385.556 197.488 385.354 197.219 385.152 196.95 384.816 196.882 384.479 196.882 384.143 196.882 383.672 197.017 383.47 197.219ZM392.756 200.785 392.621 202.265C392.352 202.333 392.083 202.333 391.814 202.333 390.804 202.333 390.064 202.131 389.593 201.66 389.122 201.189 388.92 200.583 388.92 199.641L388.92 197.152 387.642 197.152 387.642 195.604 388.92 195.604 388.92 193.653 390.939 193.653 390.939 195.604 392.621 195.604 392.621 197.152 390.939 197.152 390.939 199.641C390.939 200.449 391.275 200.852 392.015 200.852 392.285 200.852 392.486 200.852 392.756 200.785ZM398.34 197.152 397.197 197.286C396.658 197.353 396.255 197.488 395.985 197.757 395.784 198.026 395.649 198.363 395.649 198.834L395.649 202.265 393.63 202.265 393.63 195.671 395.582 195.671 395.582 196.815C395.918 196.075 396.591 195.604 397.668 195.537L398.273 195.469 398.34 197.152ZM404.127 196.142C404.598 196.613 404.867 197.353 404.867 198.295L404.867 202.198 402.916 202.198 402.916 201.189C402.781 201.525 402.58 201.794 402.243 201.996 401.907 202.198 401.57 202.265 401.167 202.265 400.695 202.265 400.292 202.198 399.955 201.996 399.619 201.794 399.282 201.593 399.081 201.256 398.879 200.92 398.744 200.583 398.744 200.18 398.744 199.709 398.879 199.305 399.081 199.036 399.35 198.766 399.753 198.565 400.292 198.43 400.83 198.295 401.57 198.228 402.512 198.228L402.849 198.228 402.849 197.959C402.849 197.555 402.781 197.286 402.58 197.152 402.378 197.017 402.109 196.882 401.705 196.882 401.368 196.882 401.032 196.95 400.628 197.084 400.224 197.219 399.888 197.353 399.484 197.555L398.946 196.21C399.35 196.008 399.753 195.806 400.359 195.604 400.897 195.469 401.436 195.402 401.907 195.402 402.916 195.469 403.656 195.739 404.127 196.142ZM402.58 200.583C402.849 200.314 402.916 199.978 402.916 199.574L402.916 199.372 402.714 199.372C401.974 199.372 401.503 199.439 401.167 199.574 400.897 199.709 400.695 199.91 400.695 200.18 400.695 200.449 400.763 200.651 400.965 200.785 401.099 200.92 401.368 201.054 401.57 201.054 401.974 200.92 402.31 200.785 402.58 200.583ZM410.654 200.785 410.519 202.265C410.25 202.333 409.981 202.333 409.712 202.333 408.703 202.333 407.962 202.131 407.491 201.66 407.021 201.189 406.819 200.583 406.819 199.641L406.819 197.152 405.54 197.152 405.54 195.604 406.819 195.604 406.819 193.653 408.837 193.653 408.837 195.604 410.519 195.604 410.519 197.152 408.837 197.152 408.837 199.641C408.837 200.449 409.174 200.852 409.914 200.852 410.25 200.852 410.452 200.852 410.654 200.785ZM411.529 192.441 413.682 192.441 413.682 194.326 411.529 194.326 411.529 192.441ZM411.596 202.265 411.596 195.671 413.615 195.671 413.615 202.265 411.596 202.265ZM416.508 201.929C415.97 201.66 415.566 201.256 415.297 200.718 415.028 200.18 414.893 199.574 414.893 198.901 414.893 198.228 415.028 197.623 415.297 197.084 415.566 196.546 415.97 196.142 416.508 195.873 417.046 195.604 417.652 195.469 418.325 195.469 418.998 195.469 419.671 195.604 420.142 195.873 420.68 196.142 421.084 196.546 421.353 197.084 421.622 197.623 421.756 198.228 421.756 198.901 421.756 199.574 421.622 200.18 421.353 200.718 421.084 201.256 420.68 201.66 420.142 201.929 419.603 202.198 418.998 202.333 418.325 202.333 417.652 202.333 417.046 202.198 416.508 201.929ZM419.805 198.901C419.805 198.295 419.671 197.757 419.401 197.488 419.132 197.219 418.796 197.017 418.325 197.017 417.315 197.017 416.844 197.623 416.844 198.901 416.844 200.18 417.315 200.785 418.325 200.785 419.334 200.785 419.805 200.18 419.805 198.901ZM429.023 196.142C429.427 196.613 429.629 197.286 429.629 198.228L429.629 202.198 427.61 202.198 427.61 198.295C427.61 197.824 427.543 197.488 427.341 197.286 427.207 197.084 426.938 196.95 426.534 196.95 426.13 196.95 425.794 197.084 425.525 197.353 425.255 197.623 425.121 197.959 425.121 198.43L425.121 202.131 423.102 202.131 423.102 195.537 425.053 195.537 425.053 196.479C425.255 196.142 425.592 195.873 425.995 195.671 426.399 195.469 426.803 195.402 427.274 195.402 428.014 195.469 428.62 195.671 429.023 196.142ZM359.852 218.414 359.852 210.609 356.892 210.609 356.892 208.927 364.966 208.927 364.966 210.609 362.005 210.609 362.005 218.414 359.852 218.414ZM370.753 215.454 366.446 215.454C366.514 215.992 366.715 216.396 366.985 216.598 367.254 216.799 367.657 216.934 368.196 216.934 368.532 216.934 368.869 216.867 369.205 216.799 369.542 216.665 369.878 216.53 370.147 216.328L370.685 217.674C370.349 217.943 369.945 218.145 369.474 218.28 369.003 218.414 368.532 218.482 368.061 218.482 366.917 218.482 366.043 218.145 365.437 217.54 364.764 216.934 364.495 216.059 364.495 215.05 364.495 214.377 364.63 213.772 364.899 213.233 365.168 212.695 365.572 212.291 366.043 212.022 366.514 211.753 367.119 211.618 367.725 211.618 368.667 211.618 369.407 211.887 369.945 212.493 370.484 213.099 370.753 213.906 370.753 214.915L370.753 215.454ZM366.85 213.368C366.648 213.637 366.446 213.973 366.446 214.444L369.07 214.444C369.07 213.973 368.936 213.637 368.734 213.368 368.532 213.099 368.196 213.031 367.859 213.031 367.523 213.031 367.052 213.166 366.85 213.368ZM372.839 218.28C372.3 218.145 371.897 217.943 371.493 217.674L372.031 216.261C372.368 216.53 372.771 216.665 373.242 216.799 373.646 216.934 374.117 217.001 374.521 217.001 374.857 217.001 375.059 216.934 375.261 216.867 375.463 216.799 375.53 216.598 375.53 216.463 375.53 216.328 375.463 216.194 375.328 216.059 375.194 215.992 374.992 215.857 374.655 215.79L373.579 215.521C372.973 215.386 372.502 215.185 372.166 214.848 371.897 214.579 371.695 214.108 371.695 213.637 371.695 213.233 371.829 212.83 372.031 212.56 372.3 212.224 372.637 212.022 373.04 211.82 373.444 211.618 373.982 211.551 374.521 211.551 374.992 211.551 375.463 211.618 375.934 211.753 376.405 211.887 376.809 212.089 377.145 212.359L376.607 213.704C375.934 213.233 375.194 212.964 374.521 212.964 374.184 212.964 373.982 213.031 373.781 213.099 373.579 213.166 373.511 213.368 373.511 213.57 373.511 213.704 373.579 213.839 373.646 213.906 373.713 213.973 373.915 214.041 374.184 214.108L375.328 214.377C376.001 214.512 376.472 214.781 376.809 215.05 377.145 215.319 377.28 215.79 377.28 216.328 377.28 216.934 377.01 217.472 376.539 217.809 376.068 218.145 375.328 218.347 374.453 218.347 373.848 218.482 373.31 218.414 372.839 218.28ZM382.73 216.934 382.595 218.414C382.326 218.482 382.057 218.482 381.788 218.482 380.778 218.482 380.038 218.28 379.567 217.809 379.096 217.338 378.894 216.732 378.894 215.79L378.894 213.301 377.616 213.301 377.616 211.753 378.894 211.753 378.894 209.802 380.913 209.802 380.913 211.753 382.595 211.753 382.595 213.301 380.913 213.301 380.913 215.79C380.913 216.598 381.249 217.001 381.99 217.001 382.326 217.001 382.528 217.001 382.73 216.934ZM383.605 208.59 385.758 208.59 385.758 210.474 383.605 210.474 383.605 208.59ZM383.672 218.414 383.672 211.82 385.69 211.82 385.69 218.414 383.672 218.414ZM393.159 212.291C393.563 212.762 393.765 213.435 393.765 214.377L393.765 218.347 391.746 218.347 391.746 214.444C391.746 213.973 391.679 213.637 391.477 213.435 391.343 213.233 391.073 213.099 390.67 213.099 390.266 213.099 389.93 213.233 389.66 213.502 389.391 213.772 389.257 214.108 389.257 214.579L389.257 218.28 387.238 218.28 387.238 211.686 389.189 211.686 389.189 212.628C389.391 212.291 389.728 212.022 390.131 211.82 390.535 211.618 390.939 211.551 391.41 211.551 392.15 211.618 392.756 211.82 393.159 212.291ZM401.974 211.753 401.974 217.674C401.974 218.751 401.638 219.558 401.032 220.097 400.426 220.635 399.552 220.904 398.34 220.904 397.735 220.904 397.197 220.837 396.658 220.702 396.12 220.568 395.649 220.366 395.245 220.097L395.784 218.684C396.658 219.155 397.466 219.356 398.34 219.356 399.484 219.356 400.023 218.818 400.023 217.809L400.023 217.069C399.821 217.405 399.552 217.674 399.148 217.876 398.744 218.078 398.34 218.145 397.869 218.145 397.264 218.145 396.793 218.011 396.322 217.742 395.851 217.472 395.514 217.069 395.312 216.598 395.043 216.127 394.909 215.521 394.909 214.848 394.909 214.175 395.043 213.637 395.312 213.099 395.582 212.628 395.918 212.224 396.322 211.955 396.793 211.686 397.264 211.551 397.869 211.551 398.34 211.551 398.744 211.618 399.148 211.82 399.552 212.022 399.821 212.291 400.023 212.628L400.023 211.686 401.974 211.686ZM399.552 216.194C399.821 215.857 399.955 215.454 399.955 214.915 399.955 214.377 399.821 213.906 399.552 213.637 399.282 213.368 398.946 213.166 398.475 213.166 398.004 213.166 397.6 213.301 397.331 213.637 397.062 213.973 396.927 214.377 396.927 214.915 396.927 215.454 397.062 215.857 397.331 216.194 397.6 216.53 398.004 216.665 398.475 216.665 398.946 216.665 399.282 216.53 399.552 216.194Z" fill="#FFFFFF" transform="matrix(1.18469 0 0 1 0 0.168218)"></path>
    <path d="M207.85 192.105 206.976 190.019 202.535 190.019 201.66 192.105 199.574 192.105 203.948 182.618 205.63 182.618 210.003 192.105 207.85 192.105ZM203.275 188.404 206.303 188.404 204.755 184.838 203.275 188.404ZM216.194 185.78C216.665 186.049 217.001 186.453 217.203 186.991 217.472 187.53 217.607 188.135 217.607 188.808 217.607 189.481 217.472 190.086 217.203 190.625 216.934 191.163 216.598 191.567 216.194 191.836 215.79 192.105 215.252 192.24 214.646 192.24 214.175 192.24 213.772 192.172 213.435 191.97 213.099 191.769 212.762 191.499 212.628 191.163L212.628 194.527 210.609 194.527 210.609 185.511 212.628 185.511 212.628 186.453C212.83 186.117 213.099 185.847 213.502 185.645 213.839 185.444 214.31 185.376 214.714 185.376 215.252 185.309 215.723 185.444 216.194 185.78ZM215.185 190.154C215.454 189.817 215.588 189.346 215.588 188.808 215.588 188.202 215.454 187.731 215.185 187.395 214.915 187.059 214.579 186.857 214.108 186.857 213.637 186.857 213.233 186.991 213.031 187.328 212.762 187.664 212.628 188.135 212.628 188.741 212.628 189.346 212.762 189.817 213.031 190.154 213.301 190.49 213.637 190.625 214.108 190.625 214.579 190.625 214.915 190.49 215.185 190.154ZM224.47 185.78C224.941 186.049 225.278 186.453 225.48 186.991 225.749 187.53 225.883 188.135 225.883 188.808 225.883 189.481 225.749 190.086 225.48 190.625 225.21 191.163 224.874 191.567 224.47 191.836 224.066 192.105 223.528 192.24 222.923 192.24 222.452 192.24 222.048 192.172 221.711 191.97 221.375 191.769 221.039 191.499 220.904 191.163L220.904 194.527 218.885 194.527 218.885 185.511 220.904 185.511 220.904 186.453C221.106 186.117 221.375 185.847 221.779 185.645 222.115 185.444 222.586 185.376 222.99 185.376 223.461 185.309 223.999 185.444 224.47 185.78ZM223.461 190.154C223.73 189.817 223.865 189.346 223.865 188.808 223.865 188.202 223.73 187.731 223.461 187.395 223.192 187.059 222.855 186.857 222.384 186.857 221.913 186.857 221.51 186.991 221.308 187.328 221.039 187.664 220.904 188.135 220.904 188.741 220.904 189.346 221.039 189.817 221.308 190.154 221.577 190.49 221.913 190.625 222.384 190.625 222.855 190.625 223.192 190.49 223.461 190.154ZM227.094 192.105 227.094 182.618 229.113 182.618 229.113 192.105 227.094 192.105ZM230.593 182.281 232.747 182.281 232.747 184.165 230.593 184.165 230.593 182.281ZM230.661 192.105 230.661 185.511 232.679 185.511 232.679 192.105 230.661 192.105ZM234.9 191.298C234.294 190.692 233.958 189.885 233.958 188.808 233.958 188.135 234.092 187.53 234.429 186.991 234.765 186.453 235.169 186.049 235.707 185.78 236.245 185.511 236.851 185.376 237.591 185.376 238.062 185.376 238.533 185.444 239.004 185.578 239.475 185.713 239.812 185.915 240.081 186.184L239.543 187.597C239.273 187.395 239.004 187.26 238.668 187.126 238.331 186.991 238.062 186.991 237.726 186.991 237.188 186.991 236.784 187.126 236.515 187.462 236.245 187.799 236.044 188.27 236.044 188.875 236.044 189.481 236.178 189.952 236.515 190.288 236.784 190.625 237.188 190.759 237.726 190.759 237.995 190.759 238.331 190.692 238.668 190.625 239.004 190.557 239.273 190.356 239.543 190.154L240.081 191.567C239.812 191.836 239.408 192.038 238.937 192.172 238.466 192.307 237.995 192.374 237.457 192.374 236.313 192.172 235.505 191.903 234.9 191.298ZM246.002 186.049C246.473 186.52 246.742 187.26 246.742 188.202L246.742 192.105 244.791 192.105 244.791 191.096C244.656 191.432 244.455 191.701 244.118 191.903 243.782 192.105 243.445 192.172 243.042 192.172 242.57 192.172 242.167 192.105 241.83 191.903 241.494 191.701 241.157 191.499 240.956 191.163 240.754 190.827 240.619 190.49 240.619 190.086 240.619 189.615 240.754 189.212 240.956 188.943 241.225 188.673 241.628 188.472 242.167 188.337 242.705 188.202 243.445 188.135 244.387 188.135L244.724 188.135 244.724 187.866C244.724 187.462 244.656 187.193 244.455 187.059 244.253 186.924 243.984 186.789 243.58 186.789 243.243 186.789 242.907 186.857 242.503 186.991 242.099 187.126 241.763 187.26 241.359 187.462L240.821 186.117C241.225 185.915 241.628 185.713 242.234 185.511 242.772 185.376 243.311 185.242 243.782 185.242 244.858 185.309 245.598 185.578 246.002 186.049ZM244.455 190.423C244.724 190.154 244.791 189.817 244.791 189.414L244.791 189.212 244.589 189.212C243.849 189.212 243.378 189.279 243.042 189.414 242.772 189.548 242.57 189.75 242.57 190.019 242.57 190.288 242.638 190.49 242.84 190.625 243.042 190.759 243.243 190.894 243.445 190.894 243.849 190.827 244.185 190.692 244.455 190.423ZM252.596 190.692 252.462 192.172C252.193 192.24 251.923 192.24 251.654 192.24 250.645 192.24 249.905 192.038 249.434 191.567 248.963 191.096 248.761 190.49 248.761 189.548L248.761 186.991 247.482 186.991 247.482 185.444 248.761 185.444 248.761 183.492 250.78 183.492 250.78 185.444 252.462 185.444 252.462 186.991 250.78 186.991 250.78 189.481C250.78 190.288 251.116 190.692 251.856 190.692L252.596 190.692ZM253.404 182.281 255.557 182.281 255.557 184.165 253.404 184.165 253.404 182.281ZM253.471 192.105 253.471 185.511 255.49 185.511 255.49 192.105 253.471 192.105ZM258.383 191.769C257.845 191.499 257.441 191.096 257.172 190.557 256.903 190.019 256.768 189.414 256.768 188.741 256.768 188.068 256.903 187.462 257.172 186.924 257.441 186.386 257.845 185.982 258.383 185.713 258.921 185.444 259.527 185.309 260.2 185.309 260.873 185.309 261.546 185.444 262.016 185.713 262.555 185.982 262.959 186.386 263.228 186.924 263.497 187.462 263.631 188.068 263.631 188.741 263.631 189.414 263.497 190.019 263.228 190.557 262.959 191.096 262.555 191.499 262.016 191.769 261.478 192.038 260.873 192.172 260.2 192.172 259.527 192.172 258.921 192.038 258.383 191.769ZM261.747 188.741C261.747 188.135 261.613 187.597 261.344 187.328 261.074 187.059 260.738 186.857 260.267 186.857 259.258 186.857 258.787 187.462 258.787 188.741 258.787 190.019 259.258 190.625 260.267 190.625 261.276 190.625 261.747 190.019 261.747 188.741ZM270.898 185.982C271.302 186.453 271.504 187.126 271.504 188.068L271.504 192.038 269.485 192.038 269.485 188.135C269.485 187.664 269.418 187.328 269.216 187.126 269.082 186.924 268.812 186.789 268.409 186.789 268.005 186.789 267.669 186.924 267.399 187.193 267.13 187.462 266.996 187.799 266.996 188.27L266.996 191.97 264.977 191.97 264.977 185.376 266.928 185.376 266.928 186.318C267.13 185.982 267.467 185.713 267.87 185.511 268.274 185.309 268.678 185.242 269.149 185.242 269.889 185.309 270.495 185.578 270.898 185.982ZM212.157 208.052C211.484 207.85 210.945 207.581 210.474 207.245L211.147 205.764C212.089 206.37 213.099 206.706 214.243 206.706 214.848 206.706 215.319 206.639 215.588 206.437 215.925 206.235 216.059 205.966 216.059 205.63 216.059 205.293 215.925 205.091 215.656 204.89 215.386 204.688 214.848 204.553 214.108 204.419 213.301 204.217 212.628 204.015 212.089 203.813 211.618 203.544 211.215 203.275 211.013 202.938 210.811 202.602 210.676 202.131 210.676 201.593 210.676 200.987 210.811 200.516 211.147 200.045 211.484 199.574 211.887 199.238 212.493 198.968 213.099 198.699 213.704 198.565 214.512 198.565 215.185 198.565 215.857 198.632 216.463 198.834 217.069 199.036 217.607 199.305 217.943 199.641L217.27 201.122C216.396 200.516 215.454 200.18 214.512 200.18 213.973 200.18 213.502 200.314 213.233 200.516 212.964 200.718 212.762 200.987 212.762 201.391 212.762 201.593 212.83 201.794 212.964 201.929 213.099 202.064 213.301 202.198 213.57 202.265 213.839 202.333 214.243 202.467 214.781 202.602 215.992 202.871 216.867 203.207 217.405 203.611 217.943 204.015 218.212 204.62 218.212 205.361 218.212 206.235 217.876 206.976 217.203 207.514 216.53 208.052 215.521 208.254 214.31 208.254 213.502 208.389 212.762 208.254 212.157 208.052ZM225.412 205.293 221.106 205.293C221.173 205.832 221.375 206.235 221.644 206.437 221.913 206.639 222.317 206.774 222.855 206.774 223.192 206.774 223.528 206.706 223.865 206.639 224.201 206.505 224.538 206.37 224.807 206.168L225.345 207.514C225.009 207.783 224.605 207.985 224.134 208.119 223.663 208.254 223.192 208.321 222.721 208.321 221.577 208.321 220.702 207.985 220.097 207.379 219.491 206.774 219.155 205.899 219.155 204.89 219.155 204.217 219.289 203.611 219.558 203.073 219.827 202.535 220.231 202.131 220.702 201.862 221.173 201.593 221.779 201.458 222.384 201.458 223.326 201.458 224.066 201.727 224.605 202.333 225.143 202.938 225.412 203.746 225.412 204.755L225.412 205.293ZM221.51 203.207C221.308 203.477 221.173 203.813 221.106 204.284L223.73 204.284C223.73 203.813 223.595 203.477 223.394 203.207 223.192 202.938 222.855 202.871 222.519 202.871 222.048 202.871 221.779 203.006 221.51 203.207ZM227.229 207.447C226.623 206.841 226.287 206.034 226.287 204.957 226.287 204.284 226.422 203.678 226.758 203.14 227.027 202.602 227.498 202.198 228.036 201.929 228.575 201.66 229.18 201.525 229.921 201.525 230.391 201.525 230.863 201.593 231.334 201.727 231.805 201.862 232.141 202.064 232.41 202.333L231.872 203.746C231.603 203.544 231.334 203.409 230.997 203.275 230.661 203.14 230.391 203.14 230.055 203.14 229.517 203.14 229.113 203.275 228.844 203.611 228.575 203.948 228.373 204.419 228.373 205.024 228.373 205.63 228.507 206.101 228.844 206.437 229.113 206.774 229.517 206.908 230.055 206.908 230.324 206.908 230.661 206.841 230.997 206.774 231.334 206.639 231.603 206.505 231.872 206.303L232.41 207.716C232.141 207.985 231.737 208.187 231.266 208.321 230.795 208.456 230.324 208.523 229.786 208.523 228.709 208.321 227.902 208.052 227.229 207.447ZM239.677 201.66 239.677 208.254 237.726 208.254 237.726 207.312C237.524 207.648 237.255 207.918 236.918 208.119 236.582 208.321 236.178 208.389 235.774 208.389 234.967 208.389 234.294 208.187 233.89 207.716 233.487 207.245 233.285 206.572 233.285 205.63L233.285 201.727 235.303 201.727 235.303 205.697C235.303 206.101 235.371 206.37 235.573 206.572 235.707 206.774 235.976 206.841 236.313 206.841 236.716 206.841 237.053 206.706 237.255 206.437 237.524 206.168 237.659 205.832 237.659 205.361L237.659 201.727 239.677 201.727ZM245.935 203.14 244.791 203.275C244.253 203.342 243.849 203.477 243.58 203.746 243.378 204.015 243.243 204.351 243.243 204.822L243.243 208.254 241.225 208.254 241.225 201.66 243.176 201.66 243.176 202.804C243.513 202.064 244.185 201.593 245.262 201.525L245.868 201.458 245.935 203.14ZM246.54 198.43 248.694 198.43 248.694 200.314 246.54 200.314 246.54 198.43ZM246.608 208.254 246.608 201.66 248.626 201.66 248.626 208.254 246.608 208.254ZM254.548 206.841 254.413 208.321C254.144 208.389 253.875 208.389 253.606 208.389 252.596 208.389 251.856 208.187 251.385 207.716 250.914 207.245 250.712 206.639 250.712 205.697L250.712 203.14 249.434 203.14 249.434 201.593 250.712 201.593 250.712 199.641 252.731 199.641 252.731 201.593 254.413 201.593 254.413 203.14 252.731 203.14 252.731 205.63C252.731 206.437 253.067 206.841 253.807 206.841L254.548 206.841ZM260.132 201.66 262.151 201.66 258.181 210.676 256.095 210.676 257.374 207.918 254.682 201.66 256.768 201.66 258.45 205.832 260.132 201.66ZM211.686 224.201C211.013 223.999 210.474 223.73 210.003 223.394L210.676 221.913C211.618 222.519 212.628 222.855 213.772 222.855 214.377 222.855 214.848 222.788 215.117 222.586 215.454 222.384 215.588 222.115 215.588 221.779 215.588 221.442 215.454 221.24 215.185 221.039 214.915 220.837 214.377 220.702 213.637 220.568 212.83 220.366 212.157 220.164 211.618 219.962 211.147 219.693 210.744 219.424 210.542 219.087 210.34 218.751 210.205 218.28 210.205 217.742 210.205 217.136 210.34 216.665 210.676 216.194 211.013 215.723 211.417 215.386 212.022 215.117 212.628 214.848 213.233 214.714 214.041 214.714 214.714 214.714 215.386 214.781 215.992 214.983 216.598 215.185 217.136 215.454 217.472 215.79L216.799 217.27C215.925 216.665 214.983 216.328 214.041 216.328 213.502 216.328 213.031 216.463 212.762 216.665 212.493 216.867 212.291 217.136 212.291 217.54 212.291 217.742 212.359 217.943 212.493 218.078 212.628 218.212 212.83 218.347 213.099 218.414 213.368 218.482 213.772 218.616 214.31 218.751 215.521 219.02 216.396 219.356 216.934 219.76 217.472 220.164 217.742 220.769 217.742 221.51 217.742 222.384 217.405 223.124 216.732 223.663 216.059 224.201 215.05 224.403 213.839 224.403 213.031 224.538 212.359 224.403 211.686 224.201ZM225.009 221.442 220.702 221.442C220.769 221.981 220.971 222.384 221.24 222.586 221.51 222.788 221.913 222.923 222.452 222.923 222.788 222.923 223.124 222.855 223.461 222.788 223.797 222.653 224.134 222.519 224.403 222.317L224.941 223.663C224.605 223.932 224.201 224.134 223.73 224.268 223.259 224.403 222.788 224.47 222.317 224.47 221.173 224.47 220.298 224.134 219.693 223.528 219.087 222.923 218.751 222.048 218.751 221.039 218.751 220.366 218.885 219.76 219.155 219.222 219.424 218.684 219.827 218.28 220.298 218.011 220.769 217.742 221.375 217.607 221.981 217.607 222.923 217.607 223.663 217.876 224.201 218.482 224.739 219.087 225.009 219.895 225.009 220.904L225.009 221.442ZM221.106 219.356C220.904 219.626 220.769 219.962 220.702 220.433L223.326 220.433C223.326 219.962 223.192 219.626 222.99 219.356 222.788 219.087 222.452 219.02 222.115 219.02 221.644 219.02 221.308 219.155 221.106 219.356ZM230.93 219.289 229.786 219.424C229.248 219.491 228.844 219.626 228.575 219.895 228.373 220.164 228.238 220.5 228.238 220.971L228.238 224.403 226.22 224.403 226.22 217.809 228.171 217.809 228.171 218.953C228.507 218.212 229.18 217.742 230.257 217.674L230.863 217.607 230.93 219.289ZM236.582 217.809 238.601 217.809 235.707 224.403 233.958 224.403 231.064 217.809 233.15 217.809 234.832 221.981 236.582 217.809ZM239.139 214.579 241.292 214.579 241.292 216.463 239.139 216.463 239.139 214.579ZM239.206 224.403 239.206 217.809 241.225 217.809 241.225 224.403 239.206 224.403ZM243.378 223.595C242.772 222.99 242.436 222.182 242.436 221.106 242.436 220.433 242.57 219.827 242.907 219.289 243.176 218.751 243.647 218.347 244.185 218.078 244.724 217.809 245.329 217.674 246.069 217.674 246.54 217.674 247.011 217.742 247.482 217.876 247.953 218.011 248.29 218.212 248.559 218.482L248.021 219.895C247.752 219.693 247.482 219.558 247.146 219.424 246.81 219.289 246.54 219.289 246.204 219.289 245.666 219.289 245.262 219.424 244.993 219.76 244.724 220.097 244.589 220.568 244.589 221.173 244.589 221.779 244.724 222.25 244.993 222.586 245.262 222.923 245.666 223.057 246.204 223.057 246.473 223.057 246.81 222.99 247.146 222.923 247.482 222.788 247.752 222.653 248.021 222.452L248.559 223.865C248.29 224.134 247.886 224.336 247.415 224.47 246.944 224.605 246.473 224.672 245.935 224.672 244.858 224.47 244.051 224.201 243.378 223.595ZM255.422 221.442 251.116 221.442C251.183 221.981 251.385 222.384 251.654 222.586 251.923 222.788 252.327 222.923 252.865 222.923 253.202 222.923 253.538 222.855 253.875 222.788 254.211 222.653 254.548 222.519 254.817 222.317L255.355 223.663C255.019 223.932 254.615 224.134 254.144 224.268 253.673 224.403 253.202 224.47 252.731 224.47 251.587 224.47 250.712 224.134 250.107 223.528 249.434 222.923 249.165 222.048 249.165 221.039 249.165 220.366 249.299 219.76 249.568 219.222 249.837 218.684 250.241 218.28 250.712 218.011 251.183 217.742 251.789 217.607 252.394 217.607 253.336 217.607 254.077 217.876 254.615 218.482 255.153 219.087 255.422 219.895 255.422 220.904L255.422 221.442ZM251.52 219.356C251.318 219.626 251.116 219.962 251.116 220.433L253.74 220.433C253.74 219.962 253.606 219.626 253.404 219.356 253.202 219.087 252.865 219.02 252.529 219.02 252.193 219.02 251.722 219.155 251.52 219.356ZM257.508 224.268C256.97 224.134 256.566 223.932 256.163 223.663L256.701 222.25C257.037 222.519 257.441 222.653 257.912 222.788 258.316 222.923 258.787 222.99 259.19 222.99 259.527 222.99 259.729 222.923 259.931 222.855 260.132 222.788 260.2 222.586 260.2 222.452 260.2 222.317 260.132 222.182 259.998 222.048 259.863 221.981 259.661 221.846 259.325 221.779L258.248 221.51C257.643 221.375 257.172 221.173 256.835 220.837 256.566 220.568 256.364 220.097 256.364 219.626 256.364 219.222 256.499 218.818 256.701 218.549 256.97 218.212 257.306 218.011 257.71 217.809 258.114 217.607 258.652 217.54 259.19 217.54 259.661 217.54 260.132 217.607 260.603 217.742 261.074 217.876 261.478 218.078 261.815 218.347L261.276 219.693C260.603 219.222 259.863 218.953 259.19 218.953 258.854 218.953 258.652 219.02 258.45 219.087 258.248 219.155 258.181 219.356 258.181 219.558 258.181 219.693 258.248 219.827 258.316 219.895 258.383 219.962 258.585 220.029 258.854 220.097L259.998 220.366C260.671 220.5 261.142 220.769 261.478 221.039 261.815 221.308 261.949 221.779 261.949 222.317 261.949 222.923 261.68 223.461 261.209 223.797 260.738 224.134 259.998 224.336 259.123 224.336 258.585 224.47 257.979 224.403 257.508 224.268Z" fill="#4E4D50" transform="matrix(1.18469 0 0 1 0 0.168218)"></path>
  </g>
</svg>
