<svg xmlns="http://www.w3.org/2000/svg" xmlns:xlink="http://www.w3.org/1999/xlink" width="335" height="335" viewBox="0 0 335 335">
  <defs>
    <path id="policy-violation@1x-a" d="M119.664,1.159 C120.622,0.606 121.802,0.606 122.759,1.159 C123.717,1.712 124.307,2.734 124.307,3.839 L124.307,3.839 L124.307,106.066 C124.307,108.161 123.189,110.097 121.375,111.145 C105.086,120.549 25.7302,166.365 5.6138,177.979 C4.6562,178.532 3.4763,178.532 2.5187,177.979 C1.5611,177.427 0.9712,176.405 0.9712,175.299 L0.9712,175.299 L0.9712,73.072 C0.9712,70.977 2.0888,69.041 3.9031,67.994 C20.1924,58.589 99.548,12.773 119.664,1.159 Z"/>
    <path id="policy-violation@1x-c" d="M4.9077,0.233 C5.7924,0.233 6.6103,0.521 7.2729,1.008 L7.2729,1.008 L7.2886,0.989 L7.4291,1.129 C7.6385,1.3 7.8303,1.491 8.0014,1.7 C8.0014,1.7 15.3662,8.942 18.6564,12.177 C19.6245,13.129 21.014,13.518 22.335,13.206 C24.944,12.591 29.362,11.548 32.116,10.899 C33.736,10.516 35.421,10.499 37.048,10.847 C40.917,11.674 48.661,13.33 55.433,14.778 C60.962,15.961 65.155,20.487 65.911,26.091 C66.88,33.271 68.09,42.241 68.318,43.932 C68.344,44.12 68.354,44.309 68.3515147,44.499 C68.3093231,46.6274308 68.0459458,60.0156092 68.0297774,60.8374821 L68.029,60.877 L67.989,60.877 C68.004,61.0212 68.012,61.1676 68.012,61.316 C68.012,63.523 66.221,65.3148 64.014,65.3148 C61.807,65.3148 60.015,63.523 60.015,61.316 C60.015,61.1676 60.023,61.0212 60.039,60.877 L60.039,60.877 L60.031,60.877 L60.283,44.741 L58.8,37.646 L57.47,50.679 L56.248,84.5304 L57.851,110.6158 C57.859,110.7177 57.866,110.8203 57.869,110.9236 L57.869,110.9236 L57.877,111.0547 L57.873,111.0549 L57.873,111.1313 C57.873,114.3433 55.265,116.951 52.053,116.951 C48.841,116.951 46.234,114.3433 46.234,111.1313 L46.234,111.1313 L46.234,111.106 L44.413,67.1846 L41.682,84.5304 L40.396,112.1722 C40.395,112.2407 40.396,112.3094 40.396,112.3785 C40.396,115.5904 37.788,118.1981 34.576,118.1981 C31.364,118.1981 28.756,115.5904 28.756,112.3785 C28.756,112.3368 28.757,112.2953 28.758,112.2538 L28.758,112.2538 C28.759,112.1898 28.761,112.1278 28.765,112.0661 L28.765,112.0661 L29.846,82.9535 L32.577,52.785 L32.577,52.785 L32.577,27.559 C32.577,25.506 30.916,23.84 28.863,23.835 C26.209,23.828 22.671,23.818 20.1157,23.812 C18.0168,23.806 16.021,22.901 14.6334,21.326 C10.5532,16.696 2.1764,7.189 2.1764,7.189 L2.1764,7.189 L2.1936,7.168 C1.4037,6.437 0.9089,5.392 0.9089,4.232 C0.9089,2.025 2.7007,0.233 4.9077,0.233 Z"/>
    <path id="policy-violation@1x-e" d="M11.825,0.104 C18.096,0.104 23.188,5.195 23.188,11.467 C23.188,17.739 18.096,22.83 11.825,22.83 C5.553,22.83 0.462,17.739 0.462,11.467 C0.462,5.195 5.553,0.104 11.825,0.104 Z"/>
    <path id="policy-violation@1x-g" d="M23.5756,8.518 C23.5756,15.751 18.4898,24.56 12.2254,28.177 C5.9611,31.793 0.8753,28.857 0.8753,21.624 C0.8753,14.39 5.9611,5.581 12.2254,1.965 C18.4898,-1.652 23.5756,1.284 23.5756,8.518 Z"/>
  </defs>
  <g fill="none" fill-rule="evenodd" transform="translate(74 26)">
    <path stroke="#EFF4F7" stroke-linecap="round" stroke-linejoin="round" d="M89.1227,197.9976 C88.9076,197.8734 88.6292,197.796 88.3486,197.7824 C88.068,197.7688 87.8082,197.8202 87.6264,197.9252 C85.6573,199.0626 79.9995,202.3307 78.0305,203.4681 C77.8487,203.5731 77.7598,203.7231 77.7833,203.8852 C77.8068,204.0473 77.9409,204.2082 78.1559,204.3324 C80.4854,205.6779 87.1787,209.5442 89.5081,210.8898 C89.7232,211.014 90.0017,211.0914 90.2823,211.105 C90.5629,211.1186 90.8226,211.0672 91.0044,210.9622 C92.9735,209.8248 98.6313,206.5567 100.6,205.4193 C100.782,205.3143 100.871,205.1643 100.848,205.0022 C100.824,204.8401 100.69,204.6792 100.475,204.555 C98.1455,203.2095 91.4521,199.3432 89.1227,197.9976 Z"/>
    <path fill="#EFF4F7" d="M95.1227,269.9105 C94.9076,269.7863 94.6292,269.7089 94.3486,269.6953 C94.068,269.6817 93.8082,269.733 93.6264,269.838 C91.6573,270.9754 85.9995,274.2436 84.0305,275.3809 C83.8487,275.4859 83.7598,275.636 83.7833,275.7981 C83.8068,275.9602 83.9409,276.121 84.1559,276.2452 C86.4854,277.5908 93.1787,281.4571 95.5081,282.8026 C95.7232,282.9268 96.0017,283.0043 96.2823,283.0179 C96.5629,283.0314 96.8226,282.9801 97.0044,282.8751 C98.9735,281.7377 104.631,278.4696 106.6,277.3322 C106.782,277.2272 106.871,277.0771 106.848,276.915 C106.824,276.753 106.69,276.5921 106.475,276.4679 C104.145,275.1223 97.4521,271.2561 95.1227,269.9105 Z"/>
    <path fill="#FFF" d="M158.307,4.11 C158.307,3.005 157.717,1.983 156.759,1.43 C155.802,0.877 154.622,0.877 153.664,1.43 C133.548,13.044 54.1924,58.86 37.9031,68.265 C36.0888,69.312 34.9712,71.248 34.9712,73.343 C34.9712,89.187 34.9712,156.065 34.9712,175.57 C34.9712,176.676 35.5611,177.698 36.5187,178.25 C37.4763,178.803 38.6562,178.803 39.6138,178.25 C59.7302,166.636 139.086,120.82 155.375,111.416 C157.189,110.368 158.307,108.432 158.307,106.337 L158.307,4.11 Z"/>
    <g transform="translate(34 .271)">
      <mask id="policy-violation@1x-b" fill="#fff">
        <use xlink:href="#policy-violation@1x-a"/>
      </mask>
      <path fill="#EFF4F7" d="M125.424,-93.91 C125.424,-95.016 124.834,-96.038 123.877,-96.591 C122.919,-97.144 121.739,-97.144 120.782,-96.591 C100.665,-84.977 21.3099,-39.161 5.0205,-29.756 C3.2063,-28.709 2.0886,-26.773 2.0886,-24.678 C2.0886,-6.518 2.0886,78.528 2.0886,78.528 L125.424,7.32 C125.424,7.32 125.424,-72.293 125.424,-93.91 Z" mask="url(#policy-violation@1x-b)"/>
      <path stroke="#01050C" stroke-linecap="round" stroke-linejoin="round" d="M125.424,-93.91 C125.424,-95.016 124.834,-96.038 123.877,-96.591 C122.919,-97.144 121.739,-97.144 120.782,-96.591 C100.665,-84.977 21.3099,-39.161 5.0205,-29.756 C3.2063,-28.709 2.0886,-26.773 2.0886,-24.678 C2.0886,-6.518 2.0886,78.528 2.0886,78.528 L125.424,7.32 C125.424,7.32 125.424,-72.293 125.424,-93.91 Z" mask="url(#policy-violation@1x-b)"/>
      <path fill="#3F6C9F" fill-opacity=".2" d="M38.7867,47.844 C38.7867,46.738 38.1968,45.717 37.2391,45.164 C36.2815,44.611 35.1017,44.611 34.1441,45.164 C20.8166,52.858 -17.3026,74.867 -28.1828,81.148 C-29.997,82.196 -31.1147,84.132 -31.1147,86.226 C-31.1147,94.48 -31.1147,115.69 -31.1147,125.684 C-31.1147,126.79 -30.5248,127.811 -29.5672,128.364 C-28.6096,128.917 -27.4297,128.917 -26.4721,128.364 C-13.1446,120.67 24.9746,98.662 35.8547,92.38 C37.669,91.332 38.7867,89.397 38.7867,87.302 L38.7867,47.844 Z" mask="url(#policy-violation@1x-b)"/>
    </g>
    <path stroke="#01050C" stroke-linecap="round" stroke-linejoin="round" d="M158.307,4.11 C158.307,3.005 157.717,1.983 156.759,1.43 C155.802,0.877 154.622,0.877 153.664,1.43 C133.548,13.044 54.1924,58.86 37.9031,68.265 C36.0888,69.312 34.9712,71.248 34.9712,73.343 C34.9712,89.187 34.9712,156.065 34.9712,175.57 C34.9712,176.676 35.5611,177.698 36.5187,178.25 C37.4763,178.803 38.6562,178.803 39.6138,178.25 C59.7302,166.636 139.086,120.82 155.375,111.416 C157.189,110.368 158.307,108.432 158.307,106.337 L158.307,4.11 Z"/>
    <path fill="#EFF4F7" d="M145.147,29.462 C145.147,28.073 144.405,26.789 143.202,26.094 C141.999,25.4 140.517,25.4 139.314,26.094 C131.072,30.853 116.2,39.439 108.812,43.705 C106.082,45.281 104.4,48.194 104.4,51.347 C104.4,65.976 104.4,108.108 104.4,124.525 C104.4,125.899 105.133,127.169 106.323,127.856 C107.513,128.543 108.979,128.543 110.169,127.856 C119.375,122.54 136.97,112.382 143.032,108.882 C144.341,108.127 145.147,106.731 145.147,105.22 C145.147,93.989 145.147,47.089 145.147,29.462 Z"/>
    <path fill="#FFF" d="M98.9435,87.912 C98.8393,89.171 98.9276,90.288 98.6479,91.609 C98.4079,92.742 97.7543,93.942 97.8555,95.053 C98.0596,97.294 99.5396,97.838 100.031,99.692 C100.373,100.983 100.779,102.326 100.808,103.928 C100.829,105.056 100.724,106.284 100.979,107.227 C101.377,108.698 101.511,111.174 102.3,112.025 C102.451,112.188 103.106,112.974 103.388,112.478 C104.69,110.185 103.453,107.608 103.947,105.359 C104.256,103.952 105.154,102.442 105.672,101.146 C106.512,99.044 107.652,95.477 108.096,93.208 C108.747,89.88 107.792,88.804 106.542,88.03 C106.056,87.729 105.802,87.024 105.221,86.939 C104.599,86.847 103.379,88.752 103.046,87.912 C102.278,85.98 99.3732,86.125 98.9435,87.912 Z M147.426,68.382 C146.643,68.996 145.714,70.329 145.51,71.92 C145.439,72.482 145.579,73.434 145.202,73.975 C144.376,75.16 143.293,75.633 142.685,77.305 C142.347,78.234 142.109,81.093 142.685,81.22 C143.342,81.365 144.154,80.943 144.839,80.162 C145.48,79.43 145.875,78.188 146.643,78.078 C147.772,77.916 147.634,82.445 148.951,80.753 C150.234,79.106 150.992,75.562 151.356,73.387 C151.482,72.636 151.96,72.395 152.097,71.708 C152.293,70.734 151.869,69.79 151.818,68.974 C151.77,68.209 151.887,66.557 151.482,66.203 C150.63,65.46 150.375,69.451 149.468,70.076 C148.891,70.474 148.914,69.275 148.741,68.665 C148.653,68.356 147.908,68.003 147.426,68.382 Z M115.122,67.914 C114.387,69.279 113.394,72.477 113.131,73.646 C112.909,74.633 112.803,75.435 112.789,76.392 C112.777,77.198 113.012,77.697 113.224,78.277 C113.976,80.333 115.447,79.244 116.892,78.296 C117.651,77.798 118.883,76.592 119.3,77.781 C119.756,79.079 119.397,81.514 119.487,83.156 C119.614,85.496 120.255,87.496 120.419,89.851 C120.545,91.649 121.126,93.498 122.439,92.263 C123.063,91.676 123.581,89.896 123.853,88.898 C124.621,86.086 124.677,83.376 125.174,80.619 C125.416,79.28 125.582,77.827 126.122,76.571 C126.804,74.981 128.145,73.776 128.391,71.735 C128.435,71.363 128.787,69.261 128.562,68.985 C128.259,68.613 125.762,68.846 126.199,67.465 C126.561,66.326 127.703,66.235 128.22,65.115 C128.554,64.389 128.424,63.117 128.857,62.508 C130.046,60.836 131.851,61.465 132.742,62.221 C133.041,62.475 133.635,62.822 133.736,63.449 C133.842,64.104 133.609,67.567 134.14,67.566 C137.005,67.557 135.563,62.042 137.652,60.415 C138.853,59.48 139.85,60.91 140.449,61.941 C140.718,62.403 140.744,63.381 141.335,63.026 C142.176,62.52 142.46,60.368 142.687,59.207 C143.084,57.186 142.748,56.07 142.92,54.311 C143.001,53.485 143.524,51.974 143.324,51.272 C142.953,49.971 142.196,49.871 143.013,47.744 C144.196,44.669 145.974,47.665 146.867,44.259 C147.137,43.227 147.033,41.74 146.51,41.478 C146.448,41.448 144.831,41.596 145.096,41.034 C146.517,38.007 148.634,39.801 150.1,37.913 C150.755,37.068 150.489,34.65 150.177,34.239 C149.571,33.441 147.97,34.65 147.147,34.778 C145.147,35.09 143.1,35.52 141.04,36.399 C139.749,36.95 138.476,38.349 137.186,38.908 C136.626,39.15 135.999,38.466 135.508,38.332 C134.63,38.092 133.42,38.33 132.447,39.328 C131.863,39.925 131.281,41.84 130.862,42.687 C129.873,44.684 128.809,46.208 127.474,47.192 C127.372,47.267 126.419,48.019 126.231,47.987 C124.523,47.699 122.923,44.962 120.932,49.219 C120.644,49.834 120.402,50.556 120.201,51.237 C119.646,53.123 121.252,52.541 121.848,52.705 C122.124,52.781 122.789,53.152 122.377,54.099 C121.235,56.728 118.763,57.516 117.265,59.625 C117.057,59.917 115.714,61.902 115.866,62.234 C116.303,63.187 117.477,62.465 118.181,61.773 C119.544,60.433 120.168,58.167 121.724,57.616 C122.401,57.376 123.235,57.061 123.869,57.15 C124.175,57.194 124.326,57.295 124.584,57.484 C126.768,59.085 123.094,63.797 121.848,64.958 C121.295,65.475 120.154,66.229 119.642,66.078 C119.046,65.901 118.238,65.149 117.544,65.461 C116.666,65.855 115.783,66.688 115.122,67.914 Z M96.7059,63.399 C97.6804,62.732 98.8438,61.736 99.6426,60.686 C101.325,58.475 102.721,55.408 104.724,54.251 C105.476,53.817 107.99,52.017 108.329,53.509 C108.573,54.578 107.58,56.499 106.977,57.146 C106.502,57.657 105.832,57.745 105.33,58.072 C104.103,58.871 102.154,61.132 101.601,63.34 C101.361,64.295 101.796,64.519 102.207,64.123 C103.204,63.161 104.065,62.359 105.097,62.042 C105.504,61.917 105.964,61.779 105.947,62.607 C105.885,65.666 103.656,67.292 102.502,69.255 C101.193,71.482 101.202,74.661 99.9225,77.05 C98.8996,78.96 97.0162,79.055 95.8665,80.757 C95.6195,81.123 95.8544,81.837 95.9441,82.025 C96.4746,83.135 96.9944,83.627 96.9698,85.423 C96.9617,86.013 96.8831,87.056 96.4258,87.204 C95.6841,87.444 95.7704,85.625 95.1983,85.518 C94.2917,85.348 92.8236,86.196 92.0129,85.813 C91.1446,85.403 90.3522,82.05 90.4742,80.318 C90.6797,77.399 92.0473,73.893 91.5774,71.34 C91.0865,68.673 89.4377,71.274 88.2677,71.99 C87.9648,72.175 86.8805,72.658 87.0246,71.626 C87.1046,71.054 87.6752,70.097 87.9103,69.622 C88.2776,68.88 88.9187,67.521 89.3867,66.993 C90.778,65.424 92.3841,66.024 93.7377,65.408 C94.5441,65.041 95.9501,63.234 96.7059,63.399 C96.6215,63.457 96.5386,63.512 96.4574,63.565 L96.0374,63.823 C96.1702,63.746 96.3109,63.66 96.4574,63.565 L96.7213,63.403 L96.7059,63.399 Z"/>
    <path fill="#05122C" d="M103.423,87.531 C103.512,87.471 103.621,87.393 103.702,87.325 C104.028,87.048 104.379,86.727 104.675,86.573 C104.899,86.456 105.112,86.418 105.294,86.444 C105.638,86.495 105.912,86.676 106.154,86.923 C106.372,87.145 106.547,87.444 106.806,87.605 C107.372,87.956 107.88,88.367 108.244,88.969 C108.77,89.838 109.013,91.127 108.587,93.304 C108.138,95.599 106.986,99.205 106.136,101.331 C105.627,102.605 104.739,104.085 104.435,105.466 C104.198,106.546 104.388,107.704 104.469,108.867 C104.561,110.175 104.526,111.487 103.823,112.725 C103.714,112.916 103.574,113.023 103.43,113.083 C103.279,113.145 103.114,113.157 102.941,113.116 C102.757,113.072 102.553,112.954 102.372,112.803 C102.175,112.639 102.004,112.441 101.933,112.365 C101.573,111.976 101.311,111.299 101.122,110.508 C100.876,109.474 100.734,108.236 100.496,107.358 C100.232,106.379 100.329,105.107 100.308,103.937 C100.28,102.38 99.8803,101.075 99.5477,99.82 C99.3195,98.959 98.8514,98.408 98.4269,97.806 C97.9254,97.095 97.4695,96.328 97.3576,95.098 C97.3013,94.48 97.4453,93.836 97.6464,93.191 C97.8225,92.625 98.0419,92.058 98.1588,91.506 C98.4338,90.207 98.3428,89.108 98.4452,87.871 C98.4473,87.845 98.4513,87.82 98.4573,87.795 C98.6755,86.888 99.3857,86.303 100.235,86.098 C101.398,85.816 102.807,86.268 103.423,87.531 Z M105.183,87.441 C105.14,87.465 104.992,87.548 104.898,87.622 C104.521,87.916 104.104,88.328 103.776,88.499 C103.475,88.655 103.202,88.658 102.987,88.556 C102.831,88.481 102.68,88.346 102.581,88.097 C102.221,87.19 101.254,86.88 100.469,87.07 C99.9915,87.185 99.5739,87.493 99.4385,87.995 C99.3376,89.258 99.4184,90.384 99.1371,91.713 C99.014,92.294 98.7866,92.893 98.6011,93.488 C98.4407,94.003 98.3085,94.514 98.3534,95.008 C98.4656,96.24 99.0128,96.905 99.5185,97.613 C99.9193,98.173 100.3,98.756 100.514,99.564 C100.866,100.891 101.278,102.272 101.308,103.919 C101.328,105.006 101.216,106.188 101.462,107.096 C101.701,107.983 101.847,109.233 102.095,110.276 C102.237,110.87 102.396,111.393 102.667,111.685 C102.715,111.737 102.819,111.859 102.945,111.976 C102.972,112.001 103.009,112.03 103.046,112.056 C103.552,111.052 103.545,109.991 103.472,108.937 C103.383,107.676 103.202,106.421 103.459,105.252 C103.773,103.82 104.68,102.28 105.208,100.96 C106.038,98.882 107.167,95.356 107.606,93.112 C107.961,91.294 107.828,90.212 107.389,89.487 C107.11,89.027 106.712,88.723 106.279,88.455 C106.042,88.308 105.844,88.088 105.653,87.864 C105.571,87.767 105.491,87.67 105.403,87.586 C105.337,87.523 105.27,87.464 105.183,87.441 Z M126.194,47.469 C126.386,47.338 127.106,46.842 127.177,46.79 C128.456,45.847 129.466,44.379 130.414,42.466 C130.663,41.962 130.969,41.078 131.3,40.323 C131.551,39.75 131.825,39.248 132.089,38.978 C133.216,37.824 134.624,37.572 135.639,37.85 C135.916,37.925 136.236,38.145 136.561,38.322 C136.646,38.369 136.731,38.411 136.817,38.438 C136.875,38.456 136.932,38.473 136.987,38.449 C137.598,38.184 138.202,37.716 138.809,37.253 C139.485,36.738 140.163,36.23 140.844,35.939 C142.945,35.043 145.031,34.602 147.07,34.284 C147.55,34.21 148.299,33.749 148.951,33.566 C149.623,33.377 150.211,33.457 150.575,33.937 C150.647,34.031 150.727,34.19 150.791,34.404 C150.897,34.761 150.983,35.315 151.001,35.898 C151.028,36.785 150.876,37.727 150.495,38.219 C149.814,39.096 149.021,39.308 148.199,39.448 C147.336,39.596 146.433,39.651 145.712,40.928 C145.947,40.948 146.276,40.974 146.4,40.974 C146.588,40.973 146.706,41.018 146.733,41.031 C146.986,41.157 147.211,41.436 147.344,41.844 C147.561,42.51 147.563,43.574 147.351,44.385 C147.087,45.391 146.732,45.909 146.365,46.2 C145.97,46.513 145.54,46.585 145.092,46.624 C144.811,46.648 144.52,46.649 144.243,46.812 C143.964,46.977 143.718,47.305 143.48,47.924 C142.996,49.184 143.135,49.602 143.388,50.118 C143.527,50.402 143.684,50.71 143.805,51.135 C143.901,51.47 143.876,51.961 143.784,52.492 C143.671,53.146 143.465,53.874 143.418,54.36 C143.244,56.136 143.578,57.262 143.178,59.303 C143.038,60.017 142.875,61.097 142.582,61.958 C142.347,62.651 142.008,63.204 141.593,63.454 C141.322,63.617 141.097,63.625 140.915,63.577 C140.723,63.527 140.555,63.403 140.425,63.202 C140.341,63.072 140.271,62.899 140.209,62.713 C140.148,62.532 140.099,62.333 140.017,62.192 C139.747,61.728 139.396,61.168 138.969,60.835 C138.816,60.715 138.654,60.625 138.478,60.613 C138.312,60.602 138.142,60.667 137.96,60.81 C137.417,61.232 137.178,61.972 137.002,62.782 C136.799,63.718 136.702,64.751 136.5,65.626 C136.171,67.048 135.542,68.061 134.142,68.066 C133.99,68.066 133.848,68.016 133.722,67.905 C133.608,67.804 133.487,67.608 133.418,67.317 C133.2,66.401 133.328,64.058 133.243,63.529 C133.21,63.327 133.089,63.176 132.961,63.05 C132.773,62.863 132.56,62.722 132.418,62.602 C131.696,61.989 130.229,61.442 129.264,62.797 C129.088,63.046 129.049,63.436 128.997,63.832 C128.927,64.37 128.859,64.921 128.674,65.324 C128.377,65.969 127.912,66.328 127.457,66.679 C127.139,66.924 126.821,67.158 126.676,67.616 C126.648,67.706 126.633,67.777 126.661,67.834 C126.693,67.899 126.76,67.937 126.832,67.975 C126.949,68.037 127.087,68.082 127.231,68.12 C127.659,68.233 128.133,68.285 128.431,68.37 C128.685,68.442 128.858,68.557 128.949,68.669 C129.033,68.772 129.123,69 129.134,69.324 C129.159,70.038 128.924,71.488 128.887,71.794 C128.755,72.892 128.334,73.767 127.849,74.579 C127.41,75.315 126.914,75.994 126.581,76.768 C126.057,77.99 125.901,79.405 125.666,80.708 C125.166,83.48 125.107,86.203 124.335,89.03 C124.167,89.646 123.907,90.55 123.589,91.307 C123.35,91.872 123.07,92.356 122.782,92.627 C122.307,93.074 121.879,93.197 121.53,93.157 C121.151,93.113 120.813,92.874 120.557,92.455 C120.2,91.87 119.989,90.873 119.92,89.886 C119.756,87.528 119.115,85.526 118.988,83.183 C118.933,82.191 119.041,80.91 119.037,79.762 C119.035,79.066 118.996,78.422 118.828,77.946 C118.798,77.86 118.788,77.791 118.735,77.775 C118.69,77.762 118.642,77.781 118.589,77.797 C118.466,77.836 118.338,77.905 118.208,77.984 C117.84,78.209 117.466,78.518 117.166,78.714 C116.525,79.135 115.876,79.575 115.284,79.791 C114.779,79.975 114.304,80.004 113.883,79.829 C113.451,79.649 113.045,79.244 112.754,78.449 C112.522,77.814 112.276,77.266 112.289,76.385 C112.303,75.392 112.413,74.56 112.643,73.536 C112.913,72.341 113.93,69.072 114.682,67.677 C115.405,66.337 116.379,65.435 117.339,65.004 C117.739,64.825 118.165,64.865 118.587,65.025 C119.015,65.187 119.436,65.495 119.784,65.598 C119.817,65.608 119.857,65.592 119.903,65.582 C120.014,65.556 120.138,65.507 120.266,65.446 C120.713,65.234 121.206,64.874 121.507,64.593 C122.224,63.924 123.78,62.031 124.457,60.291 C124.663,59.761 124.789,59.249 124.759,58.798 C124.734,58.433 124.598,58.114 124.288,57.888 C124.11,57.757 124.011,57.675 123.799,57.645 C123.233,57.565 122.495,57.874 121.891,58.087 C121.21,58.328 120.756,58.968 120.3,59.671 C119.76,60.503 119.239,61.434 118.532,62.129 C118.034,62.619 117.324,63.097 116.735,63.178 C116.185,63.253 115.7,63.071 115.411,62.442 C115.35,62.307 115.33,62.028 115.468,61.679 C115.753,60.96 116.683,59.58 116.857,59.335 C117.632,58.244 118.654,57.489 119.635,56.673 C120.525,55.931 121.382,55.135 121.919,53.9 C122.011,53.686 122.033,53.528 121.985,53.409 C121.928,53.268 121.788,53.207 121.716,53.187 C121.483,53.123 121.084,53.192 120.739,53.151 C120.335,53.104 119.99,52.946 119.782,52.629 C119.594,52.343 119.493,51.872 119.722,51.095 C119.929,50.391 120.181,49.644 120.479,49.007 C121.27,47.317 122.054,46.64 122.76,46.435 C123.509,46.216 124.235,46.499 124.946,46.881 C125.363,47.106 125.774,47.366 126.194,47.469 Z M146.312,41.974 C146.028,41.973 145.395,41.956 145.092,41.838 C144.828,41.735 144.668,41.56 144.603,41.368 C144.551,41.215 144.543,41.033 144.643,40.821 C145.455,39.091 146.472,38.744 147.489,38.555 C148.266,38.41 149.065,38.43 149.705,37.606 C149.978,37.253 150.021,36.565 150.001,35.929 C149.988,35.51 149.937,35.109 149.866,34.815 C149.835,34.69 149.815,34.589 149.779,34.541 C149.708,34.448 149.593,34.461 149.472,34.476 C149.299,34.497 149.112,34.557 148.92,34.629 C148.306,34.861 147.66,35.205 147.224,35.272 C145.263,35.577 143.256,35.997 141.236,36.859 C140.625,37.12 140.022,37.586 139.415,38.048 C138.741,38.562 138.063,39.073 137.385,39.366 C137.03,39.52 136.657,39.47 136.289,39.304 C135.965,39.158 135.65,38.889 135.376,38.814 C134.637,38.613 133.625,38.837 132.804,39.677 C132.601,39.885 132.409,40.283 132.216,40.725 C131.878,41.494 131.564,42.396 131.31,42.909 C130.28,44.989 129.161,46.569 127.771,47.595 C127.684,47.658 127.017,48.178 126.653,48.367 C126.433,48.482 126.244,48.496 126.148,48.48 C125.585,48.385 125.028,48.061 124.472,47.762 C124.001,47.509 123.536,47.25 123.04,47.395 C122.501,47.552 121.988,48.141 121.385,49.431 C121.107,50.024 120.874,50.721 120.681,51.378 C120.619,51.587 120.588,51.758 120.586,51.897 C120.586,51.985 120.585,52.05 120.625,52.089 C120.673,52.135 120.745,52.142 120.819,52.153 C120.918,52.168 121.024,52.171 121.128,52.172 C121.453,52.174 121.77,52.165 121.981,52.223 C122.239,52.294 122.71,52.536 122.912,53.033 C123.035,53.339 123.073,53.753 122.836,54.298 C122.23,55.692 121.28,56.605 120.274,57.441 C119.359,58.203 118.396,58.897 117.672,59.914 C117.545,60.093 116.981,60.924 116.617,61.594 C116.52,61.773 116.421,62.013 116.377,62.123 C116.394,62.145 116.413,62.162 116.436,62.173 C116.53,62.222 116.643,62.187 116.763,62.147 C117.135,62.021 117.53,61.712 117.831,61.416 C118.629,60.632 119.161,59.518 119.791,58.639 C120.286,57.95 120.843,57.398 121.557,57.145 C122.307,56.879 123.237,56.556 123.939,56.655 C124.339,56.712 124.542,56.834 124.879,57.081 C125.696,57.679 125.9,58.613 125.681,59.685 C125.252,61.789 123.103,64.472 122.189,65.324 C121.762,65.722 121.016,66.246 120.414,66.469 C120.058,66.601 119.734,66.626 119.5,66.557 C119.182,66.463 118.804,66.221 118.417,66.038 C118.191,65.932 117.964,65.82 117.749,65.917 C116.952,66.274 116.162,67.04 115.562,68.152 C114.843,69.485 113.876,72.613 113.619,73.756 C113.405,74.706 113.302,75.478 113.289,76.399 C113.278,77.13 113.501,77.58 113.694,78.106 C113.854,78.545 114.028,78.806 114.267,78.906 C114.49,78.998 114.74,78.933 115.008,78.826 C115.519,78.623 116.069,78.238 116.617,77.878 C117.111,77.554 117.801,76.972 118.362,76.822 C118.666,76.741 118.947,76.76 119.191,76.885 C119.42,77.003 119.634,77.221 119.772,77.615 C119.969,78.178 120.034,78.936 120.037,79.759 C120.041,80.89 119.933,82.151 119.986,83.129 C120.114,85.466 120.754,87.464 120.918,89.817 C120.975,90.627 121.117,91.453 121.411,91.934 C121.48,92.048 121.541,92.151 121.644,92.163 C121.779,92.179 121.914,92.071 122.096,91.899 C122.308,91.7 122.492,91.333 122.667,90.918 C122.968,90.204 123.212,89.348 123.371,88.767 C124.135,85.969 124.187,83.273 124.682,80.53 C124.93,79.155 125.108,77.664 125.662,76.374 C126.012,75.558 126.528,74.84 126.991,74.066 C127.408,73.367 127.781,72.619 127.894,71.675 C127.927,71.403 128.073,69.768 128.112,69.326 C128.029,69.304 127.919,69.277 127.827,69.26 C127.432,69.187 126.949,69.109 126.566,68.952 C126.166,68.789 125.865,68.537 125.73,68.199 C125.634,67.961 125.61,67.671 125.723,67.314 C125.939,66.632 126.373,66.252 126.846,65.887 C127.182,65.628 127.546,65.381 127.766,64.905 C127.95,64.506 127.967,63.923 128.048,63.403 C128.12,62.939 128.237,62.516 128.45,62.218 C129.863,60.231 132.006,60.941 133.065,61.839 C133.223,61.973 133.456,62.133 133.665,62.34 C133.935,62.607 134.161,62.943 134.23,63.369 C134.305,63.831 134.215,65.678 134.336,66.745 C134.347,66.841 134.369,66.953 134.389,67.042 C134.75,66.972 134.992,66.747 135.166,66.432 C135.443,65.931 135.575,65.246 135.694,64.517 C135.854,63.538 135.982,62.484 136.288,61.616 C136.52,60.959 136.855,60.402 137.345,60.021 C137.763,59.695 138.168,59.589 138.546,59.615 C138.913,59.64 139.263,59.797 139.584,60.046 C140.106,60.453 140.552,61.123 140.882,61.69 C140.978,61.856 141.053,62.075 141.123,62.292 C141.143,62.354 141.173,62.431 141.2,62.5 C141.387,62.313 141.515,61.993 141.635,61.637 C141.913,60.818 142.064,59.79 142.197,59.111 C142.589,57.109 142.252,56.004 142.422,54.262 C142.472,53.758 142.681,53.001 142.799,52.322 C142.861,51.964 142.908,51.635 142.843,51.409 C142.742,51.053 142.606,50.796 142.49,50.558 C142.145,49.854 141.886,49.282 142.547,47.565 C143.125,46.061 143.854,45.78 144.549,45.675 C144.76,45.644 144.97,45.635 145.176,45.611 C145.382,45.587 145.585,45.552 145.767,45.397 C146.011,45.189 146.207,44.807 146.383,44.132 C146.527,43.583 146.553,42.889 146.449,42.371 C146.426,42.253 146.395,42.145 146.356,42.053 C146.345,42.028 146.328,41.999 146.312,41.974 Z M96.557,62.894 C97.4638,62.256 98.5139,61.344 99.2448,60.384 C100.253,59.059 101.158,57.426 102.153,56.082 C102.862,55.125 103.619,54.312 104.474,53.818 C104.796,53.633 105.434,53.203 106.091,52.878 C106.589,52.632 107.1,52.451 107.518,52.43 C107.831,52.414 108.104,52.482 108.323,52.629 C108.549,52.782 108.732,53.023 108.817,53.398 C108.931,53.9 108.833,54.565 108.605,55.227 C108.288,56.148 107.736,57.065 107.343,57.487 C107.056,57.796 106.714,57.983 106.364,58.136 C106.1,58.252 105.832,58.342 105.603,58.491 C104.445,59.245 102.608,61.378 102.086,63.461 C102.077,63.496 102.07,63.531 102.064,63.566 C103.043,62.632 103.922,61.88 104.95,61.564 C105.142,61.505 105.345,61.451 105.522,61.448 C105.731,61.444 105.918,61.498 106.074,61.616 C106.268,61.762 106.458,62.044 106.447,62.617 C106.414,64.257 105.807,65.515 105.046,66.624 C104.344,67.649 103.505,68.536 102.933,69.508 C102.303,70.58 101.998,71.884 101.688,73.205 C101.357,74.62 101.023,76.054 100.363,77.286 C99.8052,78.328 99.0216,78.884 98.2115,79.403 C97.524,79.843 96.8132,80.248 96.2809,81.037 C96.2397,81.098 96.2535,81.185 96.2599,81.269 C96.2771,81.497 96.3548,81.724 96.3953,81.809 C96.9596,82.99 97.496,83.519 97.4697,85.429 C97.4633,85.901 97.404,86.623 97.1981,87.073 C97.0539,87.389 96.8358,87.597 96.5798,87.679 C96.0143,87.863 95.6148,87.541 95.373,86.929 C95.2777,86.687 95.2033,86.396 95.1099,86.157 C95.0902,86.107 95.0541,86.039 95.0322,85.999 C94.8334,85.979 94.6057,86.018 94.3665,86.069 C94.0266,86.14 93.6691,86.242 93.3269,86.315 C92.7503,86.437 92.2088,86.458 91.7994,86.265 C91.4667,86.108 91.1004,85.644 90.8141,84.967 C90.2641,83.668 89.8856,81.558 89.9754,80.282 C90.0796,78.804 90.4757,77.176 90.7886,75.595 C91.0842,74.101 91.3105,72.652 91.0857,71.431 C91.0355,71.158 90.9751,70.952 90.898,70.802 C90.8642,70.737 90.8386,70.685 90.7954,70.664 C90.7665,70.649 90.7362,70.671 90.7018,70.683 C90.6211,70.711 90.5379,70.758 90.4513,70.814 C89.8276,71.223 89.1173,72.056 88.5287,72.416 C88.3374,72.533 87.9019,72.735 87.5317,72.762 C87.285,72.78 87.0607,72.726 86.8873,72.606 C86.6541,72.444 86.4479,72.141 86.5294,71.557 C86.6152,70.943 87.2101,69.909 87.4622,69.4 C87.8456,68.626 88.5241,67.213 89.0125,66.662 C89.8022,65.771 90.6496,65.49 91.4948,65.35 C92.1954,65.234 92.8939,65.243 93.5306,64.953 C93.7233,64.866 93.9515,64.675 94.201,64.459 C94.6534,64.066 95.1527,63.587 95.6004,63.279 C95.9419,63.044 96.2732,62.912 96.557,62.894 Z M105.44,62.471 C105.376,62.485 105.297,62.504 105.244,62.52 C104.279,62.817 103.486,63.583 102.554,64.482 C102.096,64.924 101.603,64.878 101.312,64.597 C101.111,64.402 100.93,63.957 101.116,63.218 C101.7,60.885 103.761,58.498 105.057,57.653 C105.283,57.506 105.537,57.399 105.797,57.291 C106.081,57.172 106.378,57.057 106.611,56.806 C106.941,56.451 107.393,55.675 107.659,54.902 C107.82,54.436 107.922,53.973 107.842,53.62 C107.825,53.546 107.808,53.489 107.764,53.459 C107.711,53.423 107.643,53.425 107.568,53.429 C107.36,53.439 107.121,53.517 106.873,53.62 C106.131,53.928 105.339,54.474 104.974,54.684 C104.03,55.23 103.24,56.235 102.476,57.355 C101.662,58.55 100.887,59.877 100.041,60.989 C99.2364,62.046 98.0786,63.052 97.0863,63.744 C97.0564,63.776 97.0218,63.805 96.983,63.829 C96.983,63.829 96.7191,63.991 96.7294,63.984 C96.5752,64.084 96.4272,64.175 96.2874,64.256 C96.1653,64.326 96.0257,64.34 95.9,64.303 L95.8805,64.319 C95.2008,64.866 94.4542,65.632 93.9448,65.863 C93.3569,66.131 92.7271,66.196 92.084,66.277 C91.3034,66.374 90.4942,66.498 89.7608,67.325 C89.3133,67.83 88.7096,69.134 88.3584,69.844 C88.1403,70.284 87.594,71.164 87.5198,71.696 C87.5176,71.711 87.5162,71.728 87.5154,71.745 C87.6053,71.726 87.7352,71.695 87.8095,71.663 C87.8908,71.628 87.9608,71.591 88.0068,71.563 C88.5881,71.207 89.2871,70.382 89.9031,69.978 C90.391,69.658 90.8592,69.579 91.24,69.768 C91.567,69.93 91.9032,70.348 92.0692,71.25 C92.3142,72.581 92.0917,74.161 91.7696,75.789 C91.4648,77.328 91.0744,78.913 90.973,80.353 C90.892,81.503 91.2388,83.406 91.735,84.578 C91.8319,84.806 91.9336,85.006 92.0408,85.16 C92.1046,85.252 92.1593,85.329 92.2264,85.361 C92.3556,85.422 92.5126,85.421 92.6821,85.406 C92.9241,85.385 93.1857,85.325 93.4505,85.26 C94.1065,85.099 94.7792,84.931 95.2905,85.027 C95.4924,85.065 95.6701,85.177 95.8141,85.366 C95.9838,85.589 96.1053,85.972 96.2239,86.336 C96.2477,86.41 96.2848,86.499 96.3195,86.576 C96.3257,86.561 96.3312,86.547 96.3355,86.533 C96.4437,86.188 96.4655,85.729 96.4698,85.416 C96.4929,83.735 95.9895,83.279 95.493,82.24 C95.4258,82.099 95.2913,81.723 95.2627,81.345 C95.2385,81.025 95.2955,80.709 95.4522,80.477 C96.0695,79.563 96.8752,79.071 97.6725,78.56 C98.3474,78.128 99.0168,77.682 99.4817,76.814 C100.102,75.657 100.403,74.306 100.715,72.977 C101.048,71.555 101.392,70.156 102.071,69.001 C102.654,68.01 103.506,67.103 104.222,66.059 C104.88,65.099 105.418,64.016 105.447,62.597 C105.448,62.556 105.445,62.51 105.44,62.471 Z M149.385,69.379 C149.474,69.207 149.554,69 149.631,68.775 C149.905,67.974 150.127,66.976 150.386,66.391 C150.494,66.147 150.616,65.96 150.737,65.843 C150.893,65.692 151.064,65.622 151.237,65.612 C151.414,65.602 151.611,65.652 151.811,65.826 C151.995,65.987 152.148,66.307 152.218,66.732 C152.328,67.403 152.282,68.395 152.317,68.943 C152.341,69.331 152.457,69.75 152.541,70.188 C152.641,70.71 152.698,71.254 152.588,71.806 C152.519,72.148 152.387,72.402 152.239,72.643 C152.09,72.882 151.912,73.097 151.849,73.47 C151.473,75.713 150.668,79.361 149.345,81.06 C148.991,81.515 148.656,81.637 148.409,81.632 C148.194,81.627 147.994,81.54 147.82,81.359 C147.675,81.209 147.541,80.971 147.428,80.674 C147.219,80.13 147.061,79.348 146.821,78.831 C146.78,78.742 146.701,78.631 146.666,78.584 C146.593,78.607 146.529,78.656 146.467,78.714 C146.338,78.833 146.224,78.991 146.11,79.163 C145.823,79.597 145.55,80.109 145.215,80.491 C144.386,81.437 143.372,81.884 142.577,81.708 C142.329,81.654 142.069,81.428 141.949,80.984 C141.706,80.087 141.922,77.941 142.215,77.134 C142.547,76.22 143.007,75.633 143.499,75.114 C143.932,74.656 144.394,74.26 144.792,73.689 C144.932,73.488 144.956,73.207 144.972,72.928 C144.993,72.539 144.977,72.147 145.014,71.857 C145.237,70.115 146.26,68.661 147.118,67.988 C147.566,67.637 148.159,67.666 148.592,67.871 C148.933,68.031 149.158,68.302 149.222,68.528 C149.287,68.756 149.327,69.06 149.377,69.341 L149.385,69.379 Z M151.239,66.945 C151.206,67.03 151.174,67.123 151.142,67.221 C150.895,67.971 150.663,68.989 150.357,69.665 C150.184,70.048 149.973,70.335 149.752,70.487 C149.445,70.699 149.192,70.684 148.996,70.602 C148.821,70.529 148.659,70.373 148.552,70.122 C148.417,69.801 148.372,69.23 148.271,68.845 C148.238,68.823 148.126,68.751 148.041,68.732 C147.941,68.709 147.826,68.704 147.735,68.775 C147.025,69.332 146.19,70.542 146.006,71.984 C145.964,72.318 145.997,72.792 145.95,73.233 C145.909,73.618 145.808,73.98 145.613,74.261 C145.264,74.76 144.875,75.142 144.489,75.53 C143.986,76.037 143.489,76.556 143.155,77.476 C142.935,78.08 142.765,79.563 142.864,80.438 C142.875,80.541 142.907,80.669 142.929,80.749 C143.118,80.755 143.322,80.694 143.528,80.591 C143.848,80.432 144.168,80.169 144.463,79.833 C144.84,79.402 145.127,78.79 145.462,78.347 C145.778,77.928 146.144,77.644 146.572,77.583 C146.916,77.534 147.216,77.666 147.463,77.97 C147.776,78.357 147.995,79.148 148.205,79.845 C148.276,80.08 148.402,80.368 148.479,80.534 C148.506,80.506 148.533,80.476 148.556,80.446 C149.799,78.85 150.51,75.411 150.863,73.304 C150.94,72.849 151.116,72.546 151.3,72.256 C151.422,72.064 151.552,71.884 151.607,71.61 C151.692,71.189 151.635,70.774 151.559,70.376 C151.467,69.894 151.345,69.433 151.319,69.005 C151.29,68.55 151.321,67.778 151.264,67.157 C151.257,67.084 151.249,67.012 151.239,66.945 Z"/>
    <path fill="#EFF4F7" d="M64.1214,105.066 C75.6995,98.381 85.0994,103.808 85.0994,117.178 C85.0994,130.547 75.6995,146.828 64.1214,153.513 C52.5433,160.197 43.1434,154.77 43.1434,141.401 C43.1434,128.032 52.5433,111.751 64.1214,105.066 Z"/>
    <line x1="77.939" x2="73.687" y1="102.902" y2="110.266" stroke="#01050C" stroke-linecap="round" stroke-linejoin="round"/>
    <line x1="52.43" x2="56.254" y1="115.929" y2="119.427" stroke="#01050C" stroke-linecap="round" stroke-linejoin="round"/>
    <line x1="54.194" x2="56.681" y1="154.92" y2="148.662" stroke="#01050C" stroke-linecap="round" stroke-linejoin="round"/>
    <line x1="41.901" x2="50.666" y1="162.017" y2="156.957" stroke="#5A6D83" stroke-linecap="round" stroke-linejoin="round"/>
    <line x1="41.901" x2="45.933" y1="167.27" y2="164.942" stroke="#5A6D83" stroke-linecap="round" stroke-linejoin="round"/>
    <line x1="83.408" x2="87.44" y1="143.306" y2="140.978" stroke="#5A6D83" stroke-linecap="round" stroke-linejoin="round"/>
    <line x1="48.65" x2="50.666" y1="163.374" y2="162.21" stroke="#5A6D83" stroke-linecap="round" stroke-linejoin="round"/>
    <line x1="80.717" x2="89.482" y1="99.572" y2="94.511" stroke="#5A6D83" stroke-linecap="round" stroke-linejoin="round"/>
    <line x1="80.717" x2="84.749" y1="104.824" y2="102.496" stroke="#5A6D83" stroke-linecap="round" stroke-linejoin="round"/>
    <line x1="87.466" x2="89.482" y1="100.928" y2="99.764" stroke="#5A6D83" stroke-linecap="round" stroke-linejoin="round"/>
    <line x1="40.695" x2="47.751" y1="120.631" y2="116.557" stroke="#5A6D83" stroke-linecap="round" stroke-linejoin="round"/>
    <line x1="40.695" x2="48.846" y1="115.153" y2="110.873" stroke="#5A6D83" stroke-linecap="round" stroke-linejoin="round"/>
    <line x1="51.362" x2="56.227" y1="109.42" y2="106.612" stroke="#5A6D83" stroke-linecap="round" stroke-linejoin="round"/>
    <line x1="117.546" x2="128.623" y1="110.715" y2="104.32" stroke="#5A6D83" stroke-linecap="round" stroke-linejoin="round"/>
    <line x1="117.546" x2="130.342" y1="103.594" y2="96.759" stroke="#5A6D83" stroke-linecap="round" stroke-linejoin="round"/>
    <line x1="134.291" x2="141.927" y1="94.48" y2="90.071" stroke="#5A6D83" stroke-linecap="round" stroke-linejoin="round"/>
    <line x1="81.929" x2="75.813" y1="141.344" y2="138.494" stroke="#01050C" stroke-linecap="round" stroke-linejoin="round"/>
    <path fill="#EFF4F7" d="M131.27,206.6967 C130.245,206.105 128.845,205.7792 127.376,205.790595 C125.907,205.8026 124.49,206.1509 123.437,206.7591 C112.031,213.3477 79.2563,232.2792 67.8501,238.8678 C66.7971,239.476 66.1941,240.2945 66.1732756,241.143 C66.1536,241.9915 66.7177,242.8006 67.7421,243.3923 C78.8379,249.8016 110.72,268.2179 121.816,274.6272 C122.841,275.2189 124.241,275.5448 125.71,275.533404 C127.179,275.5214 128.596,275.1731 129.649,274.5648 C141.055,267.9762 173.83,249.0448 185.236,242.4562 C186.289,241.8479 186.892,241.0295 186.912565,240.181 C186.933,239.3325 186.368,238.5234 185.344,237.9316 C174.248,231.5223 142.366,213.106 131.27,206.6967 Z"/>
    <path fill="#3F6C9F" fill-opacity=".1" d="M124.419,231.0392 C135.888,229.7372 144.101,232.7999 142.748,237.8742 C141.396,242.9485 130.987,248.1252 119.518,249.4272 C108.049,250.7291 99.8358,247.6664 101.188,242.5921 C102.541,237.5178 112.95,232.3411 124.419,231.0392 Z"/>
    <path fill="#FFF" d="M86.2729,127.279 C85.6103,126.792 84.7924,126.504 83.9077,126.504 C81.7007,126.504 79.9089,128.296 79.9089,130.503 C79.9089,131.663 80.4037,132.708 81.1936,133.439 L81.1764,133.46 C81.1764,133.46 89.5532,142.967 93.6334,147.597 C95.021,149.172 97.0168,150.077 99.1157,150.083 C101.671,150.089 105.209,150.099 107.863,150.106 C109.916,150.111 111.577,151.777 111.577,153.83 C111.577,161.642 111.577,179.056 111.577,179.056 L108.846,209.2245 L107.765,238.3371 C107.761,238.3988 107.759,238.4608 107.758,238.5231 L107.758,238.5248 C107.757,238.5663 107.756,238.6078 107.756,238.6495 C107.756,241.8614 110.364,244.4691 113.576,244.4691 C116.788,244.4691 119.396,241.8614 119.396,238.6495 C119.396,238.5804 119.395,238.5117 119.392,238.4432 L119.396,238.4432 L120.682,210.8014 L123.413,193.4556 L125.234,237.377 L125.234,237.4023 C125.234,240.6143 127.841,243.222 131.053,243.222 C134.265,243.222 136.873,240.6143 136.873,237.4023 C136.873,237.3768 136.873,237.3513 136.873,237.3259 L136.877,237.3257 L136.869,237.1946 C136.866,237.0913 136.859,236.9887 136.851,236.8868 L135.248,210.8014 L136.47,176.95 L137.8,163.917 L139.283,171.012 L139.031,187.148 L139.039,187.148 C139.023,187.2922 139.015,187.4386 139.015,187.587 C139.015,189.794 140.807,191.5858 143.014,191.5858 C145.221,191.5858 147.012,189.794 147.012,187.587 C147.012,187.4386 147.004,187.2922 146.989,187.148 L147.029,187.148 C147.029,187.148 147.308,172.966 147.351515,170.77 C147.354,170.58 147.344,170.391 147.318,170.203 C147.09,168.512 145.88,159.542 144.911,152.362 C144.155,146.758 139.962,142.232 134.433,141.049 C127.661,139.601 119.917,137.945 116.048,137.118 C114.421,136.77 112.736,136.787 111.116,137.17 C108.362,137.819 103.944,138.862 101.335,139.477 C100.014,139.789 98.6245,139.4 97.6564,138.448 C94.3662,135.213 87.0014,127.971 87.0014,127.971 C86.8303,127.762 86.6385,127.571 86.4291,127.4 L86.2886,127.26 L86.2729,127.279 Z"/>
    <g transform="translate(79 126.271)">
      <mask id="policy-violation@1x-d" fill="#fff">
        <use xlink:href="#policy-violation@1x-c"/>
      </mask>
      <path fill="#EFF4F7" d="M57.809,27.656 L50.91,72.4837 C50.91,72.4837 53.492,92.3119 55.429,107.178 C55.72,109.4135 54.533,111.581 52.493,112.5406 C50.454,113.5001 48.027,113.0319 46.491,111.3821 C46.325,111.2039 46.234,111.106 46.234,111.106 C46.234,111.106 45.425,81.264 44.995,65.3702 C44.979,64.7913 44.533,64.3158 43.956,64.2637 C43.379,64.2116 42.855,64.5995 42.736,65.1662 C42.735,65.1677 42.735,65.1692 42.735,65.1706 C42.724,65.2189 42.713,65.2669 42.701,65.3147 C42.431,66.3737 39.248,78.8656 38.353,82.3781 C38.199,82.9848 38.121,83.6085 38.121,84.2345 C38.121,88.5424 38.121,106.1453 38.121,106.1453 C38.121,106.1453 38.112,106.2353 38.095,106.3984 C37.888,108.4824 36.604,110.3053 34.712,111.2027 C32.82,112.1001 30.596,111.9407 28.851,110.7828 C28.849,110.7818 28.848,110.7814 28.848,110.7814 L28.311,119.6059 L59.1,118.258 L57.519,92.399 C57.519,92.399 60.407,69.3692 60.703,67.0099 C60.719,66.8804 60.728,66.75 60.728,66.6194 C60.728,63.5702 60.728,25.97 60.728,25.97 L57.809,27.656 Z" mask="url(#policy-violation@1x-d)"/>
      <path fill="#EFF4F7" d="M59.302,16.26 C59.302,16.26 61.43,20.154 62.467,22.051 C62.833,22.722 63.07,23.457 63.165,24.216 C63.682,28.352 65.427,42.329 65.629,43.944 C65.642,44.046 65.648,44.148 65.648,44.251 C65.648,45.417 65.648,52.963 65.648,58.3877 C65.648,59.6829 65.02,60.8977 63.963,61.6463 C62.906,62.3948 61.551,62.5841 60.329,62.154 C59.715,61.9376 59.302,61.7924 59.302,61.7924 L63.022,70.8676 L69.522,68.593 L69.522,45.816 C72.614,24.118 68.187,14.11 59.302,16.26 Z" mask="url(#policy-violation@1x-d)"/>
    </g>
    <path stroke="#01050C" stroke-linecap="round" stroke-linejoin="round" d="M86.2729,127.279 C85.6103,126.792 84.7924,126.504 83.9077,126.504 C81.7007,126.504 79.9089,128.296 79.9089,130.503 C79.9089,131.663 80.4037,132.708 81.1936,133.439 L81.1764,133.46 C81.1764,133.46 89.5532,142.967 93.6334,147.597 C95.021,149.172 97.0168,150.077 99.1157,150.083 C101.671,150.089 105.209,150.099 107.863,150.106 C109.916,150.111 111.577,151.777 111.577,153.83 C111.577,161.642 111.577,179.056 111.577,179.056 L108.846,209.2245 L107.765,238.3371 C107.761,238.3988 107.759,238.4608 107.758,238.5231 L107.758,238.5248 C107.757,238.5663 107.756,238.6078 107.756,238.6495 C107.756,241.8614 110.364,244.4691 113.576,244.4691 C116.788,244.4691 119.396,241.8614 119.396,238.6495 C119.396,238.5804 119.395,238.5117 119.392,238.4432 L119.396,238.4432 L120.682,210.8014 L123.413,193.4556 L125.234,237.377 L125.234,237.4023 C125.234,240.6143 127.841,243.222 131.053,243.222 C134.265,243.222 136.873,240.6143 136.873,237.4023 C136.873,237.3768 136.873,237.3513 136.873,237.3259 L136.877,237.3257 L136.869,237.1946 C136.866,237.0913 136.859,236.9887 136.851,236.8868 L135.248,210.8014 L136.47,176.95 L137.8,163.917 L139.283,171.012 L139.031,187.148 L139.039,187.148 C139.023,187.2922 139.015,187.4386 139.015,187.587 C139.015,189.794 140.807,191.5858 143.014,191.5858 C145.221,191.5858 147.012,189.794 147.012,187.587 C147.012,187.4386 147.004,187.2922 146.989,187.148 L147.029,187.148 C147.029,187.148 147.308,172.966 147.351515,170.77 C147.354,170.58 147.344,170.391 147.318,170.203 C147.09,168.512 145.88,159.542 144.911,152.362 C144.155,146.758 139.962,142.232 134.433,141.049 C127.661,139.601 119.917,137.945 116.048,137.118 C114.421,136.77 112.736,136.787 111.116,137.17 C108.362,137.819 103.944,138.862 101.335,139.477 C100.014,139.789 98.6245,139.4 97.6564,138.448 C94.3662,135.213 87.0014,127.971 87.0014,127.971 C86.8303,127.762 86.6385,127.571 86.4291,127.4 L86.2886,127.26 L86.2729,127.279 Z"/>
    <polyline stroke="#01050C" stroke-linecap="round" stroke-linejoin="round" points="139.103 153.742 137.964 155.791 137.784 164.363"/>
    <line x1="124.1" x2="123.372" y1="191.905" y2="193.596" stroke="#01050C" stroke-linecap="round" stroke-linejoin="round"/>
    <path fill="#FFF" d="M127.825,111.375 C121.553,111.375 116.462,116.466 116.462,122.738 C116.462,129.01 121.553,134.101 127.825,134.101 C134.096,134.101 139.188,129.01 139.188,122.738 C139.188,116.466 134.096,111.375 127.825,111.375 Z"/>
    <g transform="translate(116 111.271)">
      <mask id="policy-violation@1x-f" fill="#fff">
        <use xlink:href="#policy-violation@1x-e"/>
      </mask>
      <path fill="#EFF4F7" d="M11.678,0.189 L11.89,0.178 C18.292,0.178 23.489,5.375 23.489,11.777 C23.489,18.179 18.292,23.376 11.89,23.376 C10.546,23.376 9.256,23.147 8.058,22.714 C14.363,22.609 19.445,17.456 19.445,11.125 C19.445,6.067 16.201,1.761 11.678,0.189 Z" mask="url(#policy-violation@1x-f)"/>
    </g>
    <path stroke="#01050C" stroke-linecap="round" stroke-linejoin="round" d="M127.825,111.375 C121.553,111.375 116.462,116.466 116.462,122.738 C116.462,129.01 121.553,134.101 127.825,134.101 C134.096,134.101 139.188,129.01 139.188,122.738 C139.188,116.466 134.096,111.375 127.825,111.375 Z"/>
    <path fill="#FFF" d="M64.2254,116.236 C70.4898,112.619 75.5756,115.555 75.5756,122.789 C75.5756,130.022 70.4898,138.831 64.2254,142.448 C57.9611,146.064 52.8753,143.128 52.8753,135.895 C52.8753,128.661 57.9611,119.852 64.2254,116.236 Z"/>
    <g transform="translate(52 114.271)">
      <mask id="policy-violation@1x-h" fill="#fff">
        <use xlink:href="#policy-violation@1x-g"/>
      </mask>
      <path stroke="#05122C" stroke-linecap="round" stroke-linejoin="round" d="M12.2254 21.07C18.4898 17.454 23.5756 20.39 23.5756 27.623 23.5756 34.857 18.4898 43.666 12.2254 47.282 5.9611 50.899.8753 47.963.8753 40.729.8753 33.496 5.9611 24.687 12.2254 21.07zM12.2254-16.645C18.4898-20.262 23.5756-17.325 23.5756-10.092 23.5756-2.858 18.4898 5.951 12.2254 9.567 5.9611 13.184.8753 10.248.8753 3.014.8753-4.219 5.9611-13.028 12.2254-16.645z" mask="url(#policy-violation@1x-h)"/>
      <path stroke="#05122C" stroke-linecap="round" stroke-linejoin="round" d="M12.361,1.886 C14.6539,0.562 16.5154,5.36 16.5154,12.594 C16.5154,19.827 14.6539,26.775 12.361,28.098 C10.0681,29.422 8.2065,24.624 8.2065,17.391 C8.2065,10.157 10.0681,3.21 12.361,1.886 Z" mask="url(#policy-violation@1x-h)"/>
      <line x1="-1.132" x2="25.27" y1="22.887" y2="7.644" stroke="#05122C" stroke-linecap="round" stroke-linejoin="round" mask="url(#policy-violation@1x-h)"/>
    </g>
    <path stroke="#05122C" stroke-linecap="round" stroke-linejoin="round" d="M64.2254,116.236 C70.4898,112.619 75.5756,115.555 75.5756,122.789 C75.5756,130.022 70.4898,138.831 64.2254,142.448 C57.9611,146.064 52.8753,143.128 52.8753,135.895 C52.8753,128.661 57.9611,119.852 64.2254,116.236 Z"/>
    <path fill="#E01A33" d="M98.0282 69.331C99.0755 68.726 99.9257 69.217 99.9257 70.427 99.9257 71.636 99.0755 73.109 98.0282 73.713 96.9809 74.318 96.1306 73.827 96.1306 72.618 96.1306 71.408 96.9809 69.936 98.0282 69.331zM138.555 45.933C139.603 45.328 140.453 45.819 140.453 47.028 140.453 48.238 139.603 49.71 138.555 50.315 137.508 50.919 136.658 50.429 136.658 49.219 136.658 48.01 137.508 46.537 138.555 45.933zM121.968 68.673C123.016 68.069 123.866 68.56 123.866 69.769 123.866 70.978 123.016 72.451 121.968 73.055 120.921 73.66 120.071 73.169 120.071 71.96 120.071 70.751 120.921 69.278 121.968 68.673z"/>
    <path fill="#FFF" fill-opacity=".9" d="M79.3344,39.472 C79.3344,38.366 78.7445,37.344 77.7868,36.792 C76.8292,36.239 75.6494,36.239 74.6918,36.792 C60.0757,45.23 15.2727,71.097 3.3649,77.972 C1.5507,79.02 0.433,80.955 0.433,83.05 C0.433,91.304 0.433,112.514 0.433,122.508 C0.433,123.614 1.0229,124.635 1.9805,125.188 C2.9381,125.741 4.118,125.741 5.0756,125.188 C19.6916,116.75 64.4947,90.883 76.4024,84.008 C78.2167,82.96 79.3344,81.024 79.3344,78.929 C79.3344,70.676 79.3344,49.466 79.3344,39.472 Z"/>
    <path stroke="#01050C" stroke-linecap="round" stroke-linejoin="round" stroke-opacity=".9" d="M79.3344,39.472 C79.3344,38.366 78.7445,37.344 77.7868,36.792 C76.8292,36.239 75.6494,36.239 74.6918,36.792 C60.0757,45.23 15.2727,71.097 3.3649,77.972 C1.5507,79.02 0.433,80.955 0.433,83.05 C0.433,91.304 0.433,112.514 0.433,122.508 C0.433,123.614 1.0229,124.635 1.9805,125.188 C2.9381,125.741 4.118,125.741 5.0756,125.188 C19.6916,116.75 64.4947,90.883 76.4024,84.008 C78.2167,82.96 79.3344,81.024 79.3344,78.929 C79.3344,70.676 79.3344,49.466 79.3344,39.472 Z"/>
    <path fill="#FFF" d="M6.2267,94.487 C6.2267,92.736 7.1611,91.119 8.6776,90.244 C19.0816,84.244 59.5662,60.898 70.704,54.475 C71.292,54.136 72.0162,54.137 72.604,54.476 C73.1918,54.816 73.5538,55.443 73.5538,56.122 C73.5538,61.341 73.5538,71.428 73.5538,76.323 C73.5538,78.059 72.6351,79.665 71.1389,80.545 C60.7967,86.626 20.261,110.463 9.0905,117.031 C8.5029,117.377 7.7752,117.381 7.1835,117.043 C6.5918,116.704 6.2267,116.075 6.2267,115.393 C6.2267,110.022 6.2267,99.524 6.2267,94.487 Z"/>
    <path fill="#EFF4F7" d="M8.4546,80.844 C9.6842,80.134 10.6824,80.711 10.6824,82.13 C10.6824,83.55 9.6842,85.279 8.4546,85.989 C7.225,86.699 6.2267,86.123 6.2267,84.703 C6.2267,83.283 7.225,81.554 8.4546,80.844 Z"/>
    <path stroke="#01050C" stroke-linecap="round" stroke-linejoin="round" d="M8.4546,80.844 C9.6842,80.134 10.6824,80.711 10.6824,82.13 C10.6824,83.55 9.6842,85.279 8.4546,85.989 C7.225,86.699 6.2267,86.123 6.2267,84.703 C6.2267,83.283 7.225,81.554 8.4546,80.844 Z"/>
    <path fill="#EFF4F7" d="M17.1133,75.845 C18.3429,75.135 19.3412,75.711 19.3412,77.131 C19.3412,78.551 18.3429,80.28 17.1133,80.99 C15.8837,81.7 14.8855,81.123 14.8855,79.704 C14.8855,78.284 15.8837,76.555 17.1133,75.845 Z"/>
    <path stroke="#01050C" stroke-linecap="round" stroke-linejoin="round" d="M17.1133,75.845 C18.3429,75.135 19.3412,75.711 19.3412,77.131 C19.3412,78.551 18.3429,80.28 17.1133,80.99 C15.8837,81.7 14.8855,81.123 14.8855,79.704 C14.8855,78.284 15.8837,76.555 17.1133,75.845 Z"/>
    <path fill="#EFF4F7" d="M25.7721,70.846 C27.0017,70.136 27.9999,70.712 27.9999,72.132 C27.9999,73.552 27.0017,75.281 25.7721,75.991 C24.5425,76.701 23.5442,76.124 23.5442,74.705 C23.5442,73.285 24.5425,71.556 25.7721,70.846 Z"/>
    <path stroke="#01050C" stroke-linecap="round" stroke-linejoin="round" d="M25.7721,70.846 C27.0017,70.136 27.9999,70.712 27.9999,72.132 C27.9999,73.552 27.0017,75.281 25.7721,75.991 C24.5425,76.701 23.5442,76.124 23.5442,74.705 C23.5442,73.285 24.5425,71.556 25.7721,70.846 Z"/>
    <polyline stroke="#E01A33" stroke-linecap="round" stroke-linejoin="round" points="71.497 67.12 86.677 58.356 96.131 69.072"/>
    <path fill="#FFF" d="M20.9581,89.577 C20.535,88.971 19.812,88.647 19.0781,88.736 C18.3441,88.825 17.719,89.311 17.4525,90.001 C15.7188,94.487 12.6994,102.299 10.6859,107.509 C10.3802,108.3 10.6065,109.198 11.2508,109.75 C11.895,110.301 12.817,110.386 13.5514,109.962 C17.9037,107.449 24.0293,103.913 27.0847,102.149 C27.5698,101.869 27.9153,101.398 28.0369,100.851 C28.1586,100.304 28.0454,99.732 27.7247,99.272 C26.0404,96.859 23.0133,92.522 20.9581,89.577 Z"/>
    <path stroke="#E01A33" stroke-linecap="round" stroke-linejoin="round" d="M20.9581,89.577 C20.535,88.971 19.812,88.647 19.0781,88.736 C18.3441,88.825 17.719,89.311 17.4525,90.001 C15.7188,94.487 12.6994,102.299 10.6859,107.509 C10.3802,108.3 10.6065,109.198 11.2508,109.75 C11.895,110.301 12.817,110.386 13.5514,109.962 C17.9037,107.449 24.0293,103.913 27.0847,102.149 C27.5698,101.869 27.9153,101.398 28.0369,100.851 C28.1586,100.304 28.0454,99.732 27.7247,99.272 C26.0404,96.859 23.0133,92.522 20.9581,89.577 Z"/>
    <line x1="19.829" x2="19.829" y1="92.959" y2="98.955" stroke="#E01A33" stroke-linecap="round" stroke-linejoin="round"/>
    <path fill="#E01A33" d="M19.8289,100.869 C19.2788,101.187 18.8322,101.96 18.8322,102.595 C18.8322,103.231 19.2788,103.488 19.8289,103.171 C20.379,102.853 20.8256,102.08 20.8256,101.444 C20.8256,100.809 20.379,100.551 19.8289,100.869 Z"/>
    <line x1="57.689" x2="32.294" y1="69.357" y2="84.019" stroke="#5A6D83" stroke-linecap="round" stroke-linejoin="round" stroke-width="2"/>
    <line x1="55.064" x2="32.294" y1="83.842" y2="96.989" stroke="#B1BBC9" stroke-linecap="round" stroke-linejoin="round"/>
    <line x1="68.645" x2="53.82" y1="69.502" y2="78.061" stroke="#B1BBC9" stroke-linecap="round" stroke-linejoin="round"/>
    <line x1="48.465" x2="32.294" y1="81.152" y2="90.489" stroke="#B1BBC9" stroke-linecap="round" stroke-linejoin="round"/>
    <path stroke="#EFF4F7" stroke-linecap="round" stroke-linejoin="round" d="M60.8896,250.146 C60.4858,249.9128 59.9382,249.7818 59.3673,249.7818 C58.7963,249.7818 58.2487,249.9128 57.845,250.146 C53.4717,252.6721 40.9058,259.9306 36.5326,262.4567 C36.1288,262.6899 35.902,263.0062 35.902,263.336 C35.902,263.6658 36.1288,263.9821 36.5326,264.2153 C40.9058,266.7415 53.4717,273.9999 57.845,276.526 C58.2487,276.7592 58.7963,276.8903 59.3673,276.8903 C59.9382,276.8903 60.4858,276.7592 60.8896,276.526 C65.2628,273.9999 77.8287,266.7415 82.2019,264.2153 C82.6057,263.9821 82.8325,263.6658 82.8325,263.336 C82.8325,263.0062 82.6057,262.6899 82.2019,262.4567 C77.8287,259.9306 65.2628,252.6721 60.8896,250.146 Z"/>
    <path fill="#EFF4F7" d="M58.0184,210.3324 C57.6599,210.1253 57.0986,210.0523 56.458,210.1296 C55.8173,210.2068 55.1498,210.4278 54.6023,210.7441 C48.6716,214.1698 31.6305,224.0133 25.6998,227.4391 C25.1522,227.7553 24.7695,228.1409 24.6359,228.511 C24.5022,228.881 24.6285,229.2053 24.987,229.4123 C28.87,231.6553 40.0274,238.1002 43.9105,240.3431 C44.269,240.5502 44.8303,240.6232 45.4709,240.5459 C46.1116,240.4687 46.7791,240.2477 47.3266,239.9314 C53.2573,236.5057 70.2984,226.6622 76.2291,223.2364 C76.7767,222.9202 77.1594,222.5346 77.293,222.1645 C77.4267,221.7945 77.3004,221.4702 76.9419,221.2632 C73.0589,219.0202 61.9014,212.5753 58.0184,210.3324 Z"/>
  </g>
</svg>
