<svg xmlns="http://www.w3.org/2000/svg" xmlns:xlink="http://www.w3.org/1999/xlink" width="550" height="550" viewBox="0 0 550 550">
  <defs>
    <path id="policy-dark@1x-a" d="M35.472,0.1387 C35.472,0.1387 58.821,13.6191 65.742,17.6151 C66.136,17.8427 66.379,18.2633 66.379,18.7185 C66.379,19.1737 66.136,19.5943 65.742,19.8219 C60.605,22.7877 46.571,30.8899 41.859,33.6107 C40.889,34.1705 39.695,34.1705 38.725,33.6107 C32.364,29.9381 8.479,16.1484 1.525,12.1331 C1.13,11.9055 0.888,11.4849 0.888,11.0297 C0.888,10.5745 1.13,10.1538 1.525,9.9262 C6.319,7.158 18.477,0.1387 18.477,0.1387 L35.472,0.1387 Z"/>
    <path id="policy-dark@1x-c" d="M37.295,0.68 C37.979,0.286 39.011,0.125 40.164,0.233 C41.318,0.341 42.498,0.71 43.447,1.257 C53.717,7.19 83.227,24.236 93.497,30.168 C94.445,30.716 95.083,31.398 95.27,32.064 C95.458,32.73 95.179,33.326 94.496,33.721 C87.096,37.996 65.832,50.278 58.432,54.553 C57.749,54.947 56.717,55.108 55.563,55 C54.41,54.892 53.229,54.523 52.281,53.976 C42.011,48.043 12.501,30.997 2.23,25.065 C1.282,24.517 0.644,23.835 0.457,23.169 C0.27,22.503 0.548,21.907 1.231,21.512 C8.632,17.237 29.895,4.955 37.295,0.68 Z"/>
    <path id="policy-dark@1x-e" d="M32.577,0.072 C35.815,0.321 39.777,0.626 42.979,0.872 C46.517,1.144 49.542,3.526 50.635,6.903 C52.476,12.589 55.149,20.847 55.793,22.834 C55.888,23.128 55.95,23.431 55.978,23.739 L57.508,40.647 L57.545,40.889 L57.564,41.265 C57.564,43.3 55.913,44.951 53.879,44.951 C51.845,44.951 50.193,43.3 50.193,41.265 L50.201,41.118 L48.828,24.725 L46.134,17.617 L46.67,43.246 L46.134,67.847 L48.286,89.2613 L48.255,89.2662 C48.298,89.5422 48.321,89.8251 48.321,90.1134 C48.321,93.0737 45.918,95.4771 42.957,95.4771 C40.268,95.4771 38.038,93.4933 37.653,90.9104 L37.643,90.9119 L37.639,90.8139 C37.609,90.5846 37.594,90.3508 37.594,90.1134 C37.594,90.0324 37.596,89.9517 37.599,89.8716 L36.625,66.962 L35.456,52.409 L33.964,69.2901 L33.937,90.9611 C33.941,91.0468 33.943,91.1331 33.943,91.2198 C33.943,91.3113 33.94,91.4023 33.936,91.4927 L33.936,91.5542 L33.932,91.5539 C33.76,94.3589 31.427,96.5835 28.579,96.5835 C25.619,96.5835 23.215,94.1801 23.215,91.2198 C23.215,91.0137 23.227,90.8103 23.25,90.6102 L23.215,90.6072 L23.602,69.2901 L26.46,42.1 L26.722,16.854 C26.722,16.854 23.427,22.011 21.925,24.361 C21.445,25.114 20.8,25.747 20.041,26.216 C17.272,27.922 10.18,32.293 6.066,34.829 C4.356,35.883 2.116,35.376 1.027,33.687 C1.026,33.687 1.026,33.686 1.026,33.686 C-0.108,31.928 0.338,29.589 2.039,28.372 C5.437,25.941 10.864,22.06 13.91,19.88 C15.402,18.813 16.637,17.426 17.524,15.82 C19.17,12.842 21.932,7.844 23.531,4.95 C25.331,1.693 28.866,-0.213 32.577,0.072 Z"/>
    <path id="policy-dark@1x-g" d="M11.197,-0.002 C16.977,-0.002 21.67,4.691 21.67,10.471 C21.67,16.251 16.977,20.944 11.197,20.944 C5.417,20.944 0.724,16.251 0.724,10.471 C0.724,4.691 5.417,-0.002 11.197,-0.002 Z"/>
    <path id="policy-dark@1x-i" d="M20.643,0.718 L31.671,7.084 C31.671,7.084 33.353,6.113 35.109,5.099 C37.541,3.695 40.537,3.695 42.969,5.099 C46.117,6.916 50.49,9.441 53.513,11.187 C54.232,11.602 54.674,12.368 54.674,13.198 C54.674,14.028 54.232,14.794 53.513,15.209 C51.607,16.31 49.628,17.452 49.628,17.452 C49.628,17.452 56.653,21.508 61.407,24.252 C62.007,24.599 62.329,25.282 62.214,25.966 C62.1,26.649 61.573,27.19 60.893,27.322 C54.339,28.498 49.565,31.375 46.506,35.864 C45.474,37.383 43.444,37.847 41.854,36.929 C33.368,32.064 9.698,18.398 2.181,14.058 C1.517,13.675 1.033,13.044 0.835,12.303 C0.638,11.562 0.743,10.773 1.128,10.11 C5.032,3.429 11.656,0.465 20.643,0.718 Z"/>
    <path id="policy-dark@1x-k" d="M39.042,0.99 C41.334,0.99 43.195,5.293 43.195,10.594 C43.195,14.018 42.419,17.026 41.251,18.727 C40.247,20.265 38.673,21.707 36.531,22.943 C28.463,27.602 15.362,27.602 7.294,22.943 C4.071,21.083 2.136,18.759 1.487,16.342 C0.971,14.741 0.665,12.755 0.665,10.606 C0.665,5.305 2.525,1.001 4.817,1.001 C6.298,1.001 7.599,2.799 8.334,5.502 C16.106,1.588 27.756,1.592 35.518,5.516 C36.252,2.799 37.557,0.99 39.042,0.99 Z"/>
    <path id="policy-dark@1x-m" d="M29.981,3.489 C33.405,5.466 35.066,8.079 34.964,10.672 L34.968,10.672 L34.968,37.983 L34.961,37.983 C35.093,40.597 33.433,43.235 29.981,45.228 C23.331,49.068 12.533,49.068 5.882,45.228 C2.43,43.235 0.77,40.597 0.902,37.983 L0.856,37.983 L0.856,10.672 L0.899,10.672 C0.797,8.079 2.458,5.466 5.882,3.489 C12.533,-0.35 23.331,-0.35 29.981,3.489 Z"/>
    <path id="policy-dark@1x-o" d="M39.042,0.065 C41.334,0.065 43.195,4.368 43.195,9.669 C43.195,13.093 42.419,16.101 41.251,17.802 C40.247,19.34 38.673,20.781 36.531,22.018 C28.463,26.677 15.362,26.677 7.294,22.018 C4.071,20.158 2.136,17.834 1.487,15.417 C0.971,13.816 0.665,11.83 0.665,9.68 C0.665,4.379 2.525,0.076 4.817,0.076 C6.298,0.076 7.599,1.874 8.334,4.577 C16.106,0.662 27.756,0.667 35.518,4.591 C36.252,1.874 37.557,0.065 39.042,0.065 Z"/>
    <path id="policy-dark@1x-q" d="M10.9935,0.052 C16.5449,0.052 21.052,4.559 21.052,10.111 C21.052,15.662 16.5449,20.169 10.9935,20.169 C5.4421,20.169 0.9351,15.662 0.9351,10.111 C0.9351,4.559 5.4421,0.052 10.9935,0.052 Z"/>
    <path id="policy-dark@1x-s" d="M4.1971,2.786 C6.4877,0.909 9.5401,0.245 12.4032,1.002 C14.9869,1.685 17.2255,2.277 18.2008,2.535 C20.3987,3.116 22.2567,4.583 23.3313,6.586 C25.4557,10.547 28.976,17.11 30.179,19.353 C30.274,19.529 30.449,19.647 30.648,19.669 C30.847,19.691 31.043,19.613 31.174,19.461 L31.174,19.461 L37.587,11.996 C38.224,11.056 39.3,10.438 40.52,10.438 C42.474,10.438 44.06,12.024 44.06,13.977 C44.06,14.838 43.752,15.627 43.241,16.24 L43.241,16.24 L43.241,16.241 C43.15,16.349 43.059,16.447 42.962,16.539 L42.962,16.539 L32.969,27.212 C32.169,28.066 31.043,28.538 29.873,28.508 C28.703,28.478 27.602,27.949 26.847,27.056 C25.2585,25.175 23.626,23.242 23.626,23.242 L23.626,23.242 L24.8925,36.958 L28.244,64.456 L29.525,88.6013 C29.544,88.782 29.554,88.9656 29.554,89.1514 C29.554,91.9945 27.246,94.3028 24.4027,94.3028 C21.6882,94.3028 19.4612,92.1986 19.2654,89.5337 L19.2654,89.5337 L19.2513,89.5343 L17.2331,66.429 C17.2331,66.429 13.6101,45.333 13.6101,45.333 L14.5407,65.412 L12.5727,89.3829 L12.5495,89.3818 C12.3022,91.9953 10.0989,94.0427 7.4213,94.0427 C4.5781,94.0427 2.2698,91.7344 2.2698,88.8913 C2.2698,88.6854 2.2819,88.4824 2.3056,88.2827 L2.3056,88.2827 L3.6822,64.827 L2.3278,35.097 C2.3278,35.097 1.4915,21.305 0.8352,10.481 C0.6559,7.525 1.9064,4.663 4.1971,2.786 Z"/>
    <path id="policy-dark@1x-u" d="M66.836,0.0812 C66.836,0.0812 84.948,10.5379 90.957,14.007 C91.351,14.2346 91.594,14.6553 91.594,15.1105 C91.594,15.5657 91.351,15.9863 90.957,16.2139 C82.232,21.2514 46.265,42.0166 38.299,46.6157 C37.33,47.1755 36.135,47.1755 35.165,46.6157 C29.14,43.1368 7.47,30.626 0.886,26.8244 C0.492,26.5968 0.249,26.1762 0.249,25.721 C0.249,25.2658 0.492,24.8451 0.886,24.6175 C9.391,19.707 43.384,0.0812 43.384,0.0812 L43.384,0.0812 L66.836,0.0812 Z"/>
    <path id="policy-dark@1x-w" d="M9.7234,7.2465 C21.2387,2.417 38.6578,4.632 48.5979,12.1898 C58.5381,19.7476 57.2592,29.8046 45.7439,34.6341 C34.2286,39.4636 16.8095,37.2485 6.8694,29.6907 C-3.0708,22.1329 -1.7919,12.076 9.7234,7.2465 Z"/>
    <path id="policy-dark@1x-y" d="M14.3331,0.1458 C14.6698,-0.0486 15.0847,-0.0486 15.4214,0.1458 C15.7581,0.3402 15.9656,0.6995 15.9656,1.0883 L15.9656,1.0883 L15.9656,10.6199 C15.9656,11.3194 15.5924,11.9657 14.9867,12.3155 C12.3794,13.8208 5.2348,17.9457 1.8391,19.9062 C1.4598,20.1252 0.9924,20.1252 0.6131,19.9062 C0.2337,19.6872 -2.30926389e-13,19.2824 -2.30926389e-13,18.8444 L-2.30926389e-13,18.8444 L-2.30926389e-13,9.5514 C-2.30926389e-13,8.8519 0.3732,8.2056 0.9789,7.8558"/>
    <path id="policy-dark@1x-A" d="M14.3331,0.1458 C14.6698,-0.0486 15.0847,-0.0486 15.4214,0.1458 C15.7581,0.3402 15.9656,0.6995 15.9656,1.0883 L15.9656,1.0883 L15.9656,10.6199 C15.9656,11.3194 15.5924,11.9657 14.9867,12.3155 C12.3794,13.8208 5.2348,17.9457 1.8391,19.9062 C1.4598,20.1252 0.9924,20.1252 0.6131,19.9062 C0.2337,19.6872 -2.30926389e-13,19.2824 -2.30926389e-13,18.8444 L-2.30926389e-13,18.8444 L-2.30926389e-13,9.5514 C-2.30926389e-13,8.8519 0.3732,8.2056 0.9789,7.8558"/>
    <path id="policy-dark@1x-C" d="M14.3331,0.1458 C14.6698,-0.0486 15.0847,-0.0486 15.4214,0.1458 C15.7581,0.3402 15.9656,0.6995 15.9656,1.0883 L15.9656,1.0883 L15.9656,10.6199 C15.9656,11.3194 15.5924,11.9657 14.9867,12.3155 C12.3794,13.8208 5.2348,17.9457 1.8391,19.9062 C1.4598,20.1252 0.9924,20.1252 0.6131,19.9062 C0.2337,19.6872 -2.30926389e-13,19.2824 -2.30926389e-13,18.8444 L-2.30926389e-13,18.8444 L-2.30926389e-13,9.5514 C-2.30926389e-13,8.8519 0.3732,8.2056 0.9789,7.8558"/>
  </defs>
  <g fill="none" fill-rule="evenodd">
    <g transform="translate(22 88)">
      <polygon fill="#112443" fill-opacity=".3" points="239.595 318.14 230.855 323.186 260.756 340.45 269.496 335.404"/>
      <polygon stroke="#01050C" stroke-linecap="round" stroke-linejoin="round" stroke-opacity=".3" points="239.595 318.14 230.855 323.186 260.756 340.45 269.496 335.404"/>
      <polygon fill="#112443" fill-opacity=".6" points="260.874 313.124 252.134 318.17 275.268 331.526 284.007 326.48"/>
      <polygon stroke="#01050C" stroke-linecap="round" stroke-linejoin="round" stroke-opacity=".6" points="260.874 313.124 252.134 318.17 275.268 331.526 284.007 326.48"/>
      <polygon fill="#112443" points="286.292 310.497 277.553 315.543 289.886 322.664 298.626 317.618"/>
      <polygon stroke="#01050C" stroke-linecap="round" stroke-linejoin="round" points="286.292 310.497 277.553 315.543 289.886 322.664 298.626 317.618"/>
      <path stroke="#3F6C9F" stroke-linecap="round" stroke-linejoin="round" d="M256.439 272.214C255.113 271.447 253.308 271.02 251.422 271.025938 249.536 271.031 247.724 271.47 246.383 272.244 231.863 280.6313 190.141 304.7313 175.62 313.1186 174.28 313.8929 173.521 314.94 173.5109 316.0293 173.501 317.1187 174.241 318.1612 175.568 318.9274 189.937 327.2273 231.224 351.0761 245.593 359.376 246.919 360.1423 248.724 360.5696 250.61 360.563956 252.496 360.5582 254.308 360.1199 255.649 359.3456 270.169 350.9583 311.891 326.8583 326.412 318.471 327.752 317.6966 328.511 316.6496 328.5211 315.5602 328.531 314.4709 327.791 313.4284 326.464 312.6621 312.095 304.3622 270.808 280.5134 256.439 272.214zM123.635 201.614C122.309 200.848 120.504 200.421 118.618 200.425957 116.732 200.432 114.919 200.87 113.579 201.645 99.0586 210.032 57.3364 234.132 42.8162 242.519 41.4756 243.294 40.717 244.341 40.7070019 245.43 40.6972 246.519 41.4369 247.562 42.7635 248.328 57.1324 256.628 98.4197 280.4767 112.789 288.7766 114.115 289.5429 115.92 289.9702 117.806 289.964556 119.692 289.9588 121.504 289.5205 122.845 288.7462 137.365 280.3589 179.087 256.259 193.607 247.872 194.948 247.097 195.707002 246.05 195.717081 244.961 195.726 243.871 194.987 242.829 193.66 242.063 179.291 233.763 138.004 209.914 123.635 201.614zM126.69 328.6195C126.021 328.233 125.11 328.0174 124.159 328.020271 123.208 328.0232 122.293 328.2442 121.617 328.6348 114.293 332.8657 93.2464 345.0226 85.9219 349.2535 85.2457 349.6441 84.863 350.1722 84.8579504 350.7218 84.853 351.2713 85.2262 351.7971 85.8953 352.1837 93.1435 356.3704 113.97 368.4006 121.219 372.5874 121.888 372.9739 122.798 373.1895 123.749 373.186629 124.701 373.1837 125.615 372.9627 126.291 372.5721 133.616 368.3412 154.662 356.1843 161.986 351.9534 162.663 351.5628 163.045 351.0347 163.05005 350.4851 163.055 349.9356 162.682 349.4098 162.013 349.0232 154.765 344.8365 133.938 332.8063 126.69 328.6195z"/>
      <path fill="#FFF" fill-opacity=".1" d="M478.032,168.52 C478.008,168.232 477.996,167.946 477.996,167.665 C477.996,163.019 481.263,161.132 485.287,163.456 C488.85,165.512 491.819,170.184 492.453,174.452 C493.764,174.276 495.308,174.628 496.96,175.582 C501.709,178.324 505.564,185.001 505.564,190.484 C505.564,195.967 501.709,198.193 496.96,195.452 L474.866,182.695 C470.842,180.372 467.575,174.713 467.575,170.067 C467.575,165.421 470.842,163.534 474.866,165.858 C476,166.512 477.074,167.432 478.032,168.52 Z"/>
      <path stroke="#01050C" stroke-linecap="round" stroke-linejoin="round" stroke-opacity=".1" d="M478.032,168.52 C478.008,168.232 477.996,167.946 477.996,167.665 C477.996,163.019 481.263,161.132 485.287,163.456 C488.85,165.512 491.819,170.184 492.453,174.452 C493.764,174.276 495.308,174.628 496.96,175.582 C501.709,178.324 505.564,185.001 505.564,190.484 C505.564,195.967 501.709,198.193 496.96,195.452 L474.866,182.695 C470.842,180.372 467.575,174.713 467.575,170.067 C467.575,165.421 470.842,163.534 474.866,165.858 C476,166.512 477.074,167.432 478.032,168.52 Z"/>
      <path fill="#E01A33" d="M190.525,348.6781 C190.13,348.4505 189.888,348.0299 189.888,347.5747 C189.888,347.1195 190.13,346.6988 190.525,346.4712 C195.319,343.703 207.477,336.6837 207.477,336.6837 L224.472,336.6837 C224.472,336.6837 247.821,350.1641 254.742,354.1601 C255.136,354.3877 255.379,354.8083 255.379,355.2635 C255.379,355.7187 255.136,356.1393 254.742,356.3669 C249.605,359.3327 235.571,367.4349 230.859,370.1557 C229.889,370.7155 228.695,370.7155 227.725,370.1557 C221.364,366.4831 197.479,352.6934 190.525,348.6781 Z"/>
      <g transform="translate(189 336.545)">
        <mask id="policy-dark@1x-b" fill="#fff">
          <use xlink:href="#policy-dark@1x-a"/>
        </mask>
        <path fill="#FFF" d="M25.087,-5.8567 L16.778,-1.0595 C16.778,-1.0595 23.951,3.0816 26.229,4.3969 C26.653,4.6418 27.176,4.6418 27.6,4.3969 C29.59,3.2482 35.224,-0.0045 35.224,-0.0045 L25.087,-5.8567 Z" mask="url(#policy-dark@1x-b)"/>
        <path stroke="#01050C" stroke-linecap="round" stroke-linejoin="round" d="M25.087,-5.8567 L16.778,-1.0595 C16.778,-1.0595 23.951,3.0816 26.229,4.3969 C26.653,4.6418 27.176,4.6418 27.6,4.3969 C29.59,3.2482 35.224,-0.0045 35.224,-0.0045 L25.087,-5.8567 Z" mask="url(#policy-dark@1x-b)"/>
      </g>
      <path stroke="#01050C" stroke-linecap="round" stroke-linejoin="round" d="M190.525,348.6781 C190.13,348.4505 189.888,348.0299 189.888,347.5747 C189.888,347.1195 190.13,346.6988 190.525,346.4712 C195.319,343.703 207.477,336.6837 207.477,336.6837 L224.472,336.6837 C224.472,336.6837 247.821,350.1641 254.742,354.1601 C255.136,354.3877 255.379,354.8083 255.379,355.2635 C255.379,355.7187 255.136,356.1393 254.742,356.3669 C249.605,359.3327 235.571,367.4349 230.859,370.1557 C229.889,370.7155 228.695,370.7155 227.725,370.1557 C221.364,366.4831 197.479,352.6934 190.525,348.6781 Z"/>
      <line x1="211.258" x2="226.803" y1="353.872" y2="344.897" stroke="#FFF" stroke-linecap="round" stroke-linejoin="round"/>
      <line x1="221.148" x2="236.693" y1="359.582" y2="350.607" stroke="#FFF" stroke-linecap="round" stroke-linejoin="round"/>
      <line x1="226.278" x2="234.233" y1="362.544" y2="357.951" stroke="#FFF" stroke-linecap="round" stroke-linejoin="round"/>
      <line x1="237.229" x2="241.823" y1="356.221" y2="353.569" stroke="#FFF" stroke-linecap="round" stroke-linejoin="round"/>
      <line x1="205.972" x2="221.517" y1="350.82" y2="341.846" stroke="#FFF" stroke-linecap="round" stroke-linejoin="round"/>
      <line x1="216.544" x2="228.408" y1="356.924" y2="350.074" stroke="#FFF" stroke-linecap="round" stroke-linejoin="round"/>
      <path fill="#01050C" d="M314.447,125.802 C313.498,125.255 312.318,124.886 311.164,124.778 C310.011,124.67 308.979,124.831 308.295,125.225 C300.895,129.5 279.632,141.782 272.231,146.057 C271.548,146.452 271.27,147.048 271.457,147.714 C271.644,148.38 272.282,149.062 273.23,149.61 C283.501,155.542 313.011,172.588 323.281,178.521 C324.229,179.068 325.41,179.437 326.563,179.545 C327.717,179.653 328.749,179.492 329.432,179.098 C336.832,174.823 358.096,162.541 365.496,158.266 C366.179,157.871 366.458,157.275 366.27,156.609 C366.083,155.943 365.445,155.261 364.497,154.713 C354.227,148.781 324.717,131.735 314.447,125.802 Z"/>
      <path fill="#5A6D83" d="M314.447,123.802 C313.498,123.255 312.318,122.886 311.164,122.778 C310.011,122.67 308.979,122.831 308.295,123.225 C300.895,127.5 279.632,139.782 272.231,144.057 C271.548,144.452 271.27,145.048 271.457,145.714 C271.644,146.38 272.282,147.062 273.23,147.61 C283.501,153.542 313.011,170.588 323.281,176.521 C324.229,177.068 325.41,177.437 326.563,177.545 C327.717,177.653 328.749,177.492 329.432,177.098 C336.832,172.823 358.096,160.541 365.496,156.266 C366.179,155.871 366.458,155.275 366.27,154.609 C366.083,153.943 365.445,153.261 364.497,152.713 C354.227,146.781 324.717,129.735 314.447,123.802 Z"/>
      <g transform="translate(271 122.545)">
        <mask id="policy-dark@1x-d" fill="#fff">
          <use xlink:href="#policy-dark@1x-c"/>
        </mask>
        <polygon fill="#112443" fill-opacity=".5" points="24.304 -1.624 14.703 3.918 87.302 45.833 96.902 40.291" mask="url(#policy-dark@1x-d)"/>
        <polygon fill="#EFF4F7" fill-opacity=".036" points="17.335 45.348 48.774 48.673 67.27 -9.634 35.831 -12.958" mask="url(#policy-dark@1x-d)"/>
        <polygon fill="#EFF4F7" fill-opacity=".036" points="53.335 56.348 58.022 56.844 76.518 -1.463 71.831 -1.958" mask="url(#policy-dark@1x-d)"/>
        <path fill="#D1D9E0" fill-opacity=".2" d="M24.869,12.702 C24.519,12.5 24.088,12.5 23.738,12.702 C22.465,13.437 19.358,15.231 17.733,16.169 C17.52,16.292 17.39,16.519 17.39,16.764 C17.39,17.009 17.52,17.236 17.733,17.358 C24.264,21.129 59.813,41.653 64.736,44.496 C65.086,44.698 65.517,44.698 65.868,44.496 C67.141,43.76 70.247,41.967 71.873,41.029 C72.085,40.906 72.216,40.679 72.216,40.434 C72.216,40.189 72.085,39.962 71.873,39.84 C65.341,36.069 29.793,15.545 24.869,12.702 Z" mask="url(#policy-dark@1x-d)"/>
        <path fill="#D1D9E0" d="M25.252 16.889C24.644 16.538 23.896 16.538 23.288 16.889 23.288 16.889 23.288 16.889 23.287 16.889 23.16 16.963 23.081 17.099 23.081 17.246 23.081 17.393 23.16 17.529 23.287 17.603 24.594 18.357 27.644 20.118 29.22 21.028 29.828 21.379 30.577 21.379 31.184 21.028 31.184 21.028 31.185 21.028 31.185 21.028 31.312 20.954 31.391 20.818 31.391 20.671 31.391 20.524 31.312 20.388 31.185 20.314 29.879 19.56 26.828 17.799 25.252 16.889zM35.252 22.662C34.644 22.311 33.896 22.311 33.288 22.662 33.288 22.662 33.288 22.662 33.287 22.662 33.16 22.736 33.081 22.872 33.081 23.019 33.081 23.166 33.16 23.302 33.287 23.376 34.594 24.13 37.644 25.891 39.22 26.801 39.828 27.152 40.577 27.152 41.184 26.801 41.184 26.801 41.185 26.801 41.185 26.801 41.312 26.727 41.391 26.591 41.391 26.444 41.391 26.297 41.312 26.161 41.185 26.087 39.879 25.333 36.828 23.572 35.252 22.662zM45.252 28.436C44.644 28.085 43.896 28.085 43.288 28.436 43.288 28.436 43.288 28.436 43.287 28.436 43.16 28.51 43.081 28.646 43.081 28.793 43.081 28.94 43.16 29.076 43.287 29.15 44.594 29.904 47.644 31.665 49.22 32.575 49.828 32.926 50.577 32.926 51.184 32.575 51.184 32.575 51.185 32.575 51.185 32.575 51.312 32.501 51.391 32.365 51.391 32.218 51.391 32.071 51.312 31.935 51.185 31.861 49.879 31.107 46.828 29.346 45.252 28.436zM55.252 34.209C54.644 33.858 53.896 33.858 53.288 34.209 53.288 34.209 53.288 34.209 53.287 34.209 53.16 34.283 53.081 34.419 53.081 34.566 53.081 34.713 53.16 34.849 53.287 34.923 54.594 35.677 57.644 37.438 59.22 38.348 59.828 38.699 60.577 38.699 61.184 38.348 61.184 38.348 61.185 38.348 61.185 38.348 61.312 38.274 61.391 38.138 61.391 37.991 61.391 37.844 61.312 37.708 61.185 37.634 59.879 36.88 56.828 35.119 55.252 34.209z" mask="url(#policy-dark@1x-d)"/>
      </g>
      <path fill="#05122C" d="M2 .732C3.6557-.2239 6.3443-.2239 8 .732 9.6557 1.688 9.6557 3.2402 8 4.1961 6.3443 5.1521 3.6557 5.1521 2 4.1961.3443 3.2402.3443 1.688 2 .732zM10 5.3508C11.6557 4.3949 14.3443 4.3949 16 5.3508 17.6557 6.3068 17.6557 7.859 16 8.8149 14.3443 9.7709 11.6557 9.7709 10 8.8149 8.3443 7.859 8.3443 6.3068 10 5.3508z" opacity=".3" transform="translate(280 142)"/>
      <path fill="#3F6C9F" fill-opacity=".3" d="M115.897 185.559C115.247 185.183 114.352 184.979 113.411 184.991 112.469 185.004 111.558 185.232 110.877 185.625 103.501 189.886 82.307 202.128 74.931 206.389 74.2501 206.782 73.8555 207.308 73.834 207.852 73.8125 208.396 74.1659 208.913 74.8165 209.289 81.8636 213.359 102.112 225.055 109.159 229.126 109.81 229.502 110.704 229.706 111.646 229.694 112.587 229.681 113.499 229.453 114.18 229.06 121.556 224.799 142.75 212.557 150.126 208.297 150.807 207.903 151.201 207.377 151.223 206.833 151.244 206.289 150.891 205.772 150.24 205.396 143.193 201.326 122.944 189.63 115.897 185.559zM447.873 270.05C446.815 269.438 445.437 269.062 444.041 269.004 442.646 268.945 441.348 269.209 440.433 269.738 430.521 275.4631 402.04 291.9142 392.129 297.6396 391.213 298.1682 390.756 298.918 390.858 299.724 390.959 300.53 391.61 301.3263 392.669 301.9376 404.132 308.5592 437.071 327.5858 448.534 334.2074 449.593 334.8187 450.971 335.195 452.367 335.2535 453.762 335.312 455.06 335.048 455.975 334.5194 465.887 328.794 494.367 312.3428 504.279 306.6175 505.194 306.0889 505.652 305.3391 505.55 304.5331 505.449 303.7271 504.798 302.9308 503.739 302.3195 492.276 295.6978 459.337 276.6713 447.873 270.05z"/>
      <path fill="#5A6D83" d="M72.7241,261.815 C75.6671,260.367 78.4887,260.367 81.4317,261.815 L181.813,314.5909 L181.813,321.5 L181.759,321.4896 L181.774,321.7156 C181.774,322.9334 181.125,324.0587 180.07,324.6676 C169.218,330.9327 144.049,345.4642 133.905,351.3211 C131.211,352.8765 127.891,352.8765 125.197,351.3211 C107.952,341.3643 44.4898,304.7247 26.3301,294.2402 C25.3227,293.6585 24.7021,292.5836 24.7021,291.4202 L24.7257,291.0647 L24.6696,291.0538 L24.6696,284.0816 L72.7241,261.815 Z"/>
      <path stroke="#01050C" stroke-linecap="round" stroke-linejoin="round" d="M72.7241,261.815 C75.6671,260.367 78.4887,260.367 81.4317,261.815 L181.813,314.5909 L181.813,321.5 L181.759,321.4896 L181.774,321.7156 C181.774,322.9334 181.125,324.0587 180.07,324.6676 C169.218,330.9327 144.049,345.4642 133.905,351.3211 C131.211,352.8765 127.891,352.8765 125.197,351.3211 C107.952,341.3643 44.4898,304.7247 26.3301,294.2402 C25.3227,293.6585 24.7021,292.5836 24.7021,291.4202 L24.7257,291.0647 L24.6696,291.0538 L24.6696,284.0816 L72.7241,261.815 Z"/>
      <path fill="#D1D9E0" d="M81.4316,254.454 C78.7375,252.899 75.4182,252.899 72.7241,254.454 C62.5078,260.352 37.0526,275.049 26.3302,281.2396 C25.3227,281.8213 24.7021,282.8963 24.7021,284.0596 C24.7021,285.2229 25.3227,286.2979 26.3301,286.8795 C44.4898,297.364 107.952,334.0037 125.197,343.9604 C127.891,345.5159 131.211,345.5159 133.905,343.9604 C144.121,338.0621 169.576,323.3655 180.299,317.1749 C181.306,316.5932 181.927,315.5183 181.927,314.3549 C181.927,313.1916 181.306,312.1167 180.299,311.535 C162.139,301.0505 98.6772,264.411 81.4316,254.454 Z"/>
      <path stroke="#01050C" stroke-linecap="round" stroke-linejoin="round" d="M81.4316,254.454 C78.7375,252.899 75.4182,252.899 72.7241,254.454 C62.5078,260.352 37.0526,275.049 26.3302,281.2396 C25.3227,281.8213 24.7021,282.8963 24.7021,284.0596 C24.7021,285.2229 25.3227,286.2979 26.3301,286.8795 C44.4898,297.364 107.952,334.0037 125.197,343.9604 C127.891,345.5159 131.211,345.5159 133.905,343.9604 C144.121,338.0621 169.576,323.3655 180.299,317.1749 C181.306,316.5932 181.927,315.5183 181.927,314.3549 C181.927,313.1916 181.306,312.1167 180.299,311.535 C162.139,301.0505 98.6772,264.411 81.4316,254.454 Z"/>
      <path fill="#5A6D83" d="M87.6912,262.99 C86.6836,262.408 85.4422,262.408 84.4346,262.99 C77.3518,267.079 49.2098,283.3267 40.9424,288.0999 C40.469,288.3732 40.1774,288.8783 40.1774,289.4249 C40.1774,289.9716 40.469,290.4767 40.9424,290.75 C52.9709,297.6947 108.579,329.7998 118.834,335.7208 C119.842,336.3025 121.083,336.3025 122.091,335.7208 C129.173,331.6315 157.316,315.3837 165.583,310.6105 C166.056,310.3372 166.348,309.8321 166.348,309.2854 C166.348,308.7388 166.056,308.2337 165.583,307.9603 C153.554,301.0157 97.9466,268.911 87.6912,262.99 Z"/>
      <path stroke="#01050C" stroke-linecap="round" stroke-linejoin="round" d="M87.6912,262.99 C86.6836,262.408 85.4422,262.408 84.4346,262.99 C77.3518,267.079 49.2098,283.3267 40.9424,288.0999 C40.469,288.3732 40.1774,288.8783 40.1774,289.4249 C40.1774,289.9716 40.469,290.4767 40.9424,290.75 C52.9709,297.6947 108.579,329.7998 118.834,335.7208 C119.842,336.3025 121.083,336.3025 122.091,335.7208 C129.173,331.6315 157.316,315.3837 165.583,310.6105 C166.056,310.3372 166.348,309.8321 166.348,309.2854 C166.348,308.7388 166.056,308.2337 165.583,307.9603 C153.554,301.0157 97.9466,268.911 87.6912,262.99 Z"/>
      <g stroke="#B1BBC9" stroke-linecap="round" stroke-linejoin="round" stroke-width="2" transform="translate(57 273)">
        <line x1="9.335" x2="39.825" y1="22.57" y2="4.967"/>
        <line x1="25.432" x2="55.922" y1="31.864" y2="14.261"/>
        <line x1="33.781" x2="49.384" y1="36.684" y2="27.676"/>
        <line x1="55.262" x2="64.271" y1="24.283" y2="19.081"/>
        <line x1=".732" x2="31.221" y1="17.603"/>
        <line x1="17.939" x2="41.21" y1="27.537" y2="14.102"/>
        <line x1="50.466" x2="80.955" y1="46.635" y2="29.032"/>
        <line x1="41.862" x2="72.352" y1="41.667" y2="24.064"/>
        <line x1="59.069" x2="82.34" y1="51.602" y2="38.166"/>
      </g>
      <path fill="#3F6C9F" fill-opacity=".2" d="M92.5753,286.194 C103.502,288.0055 111.813,293.8458 111.123,299.2278 C110.432,304.6099 101,307.5088 90.0734,305.6972 C79.1465,303.8857 70.8357,298.0454 71.5261,292.6634 C72.2165,287.2813 81.6483,284.3824 92.5753,286.194 Z"/>
      <path fill="#01050C" fill-opacity=".2" d="M446.071,289.4252 C456.998,291.2367 465.308,297.077 464.618,302.4591 C463.928,307.8412 454.496,310.74 443.569,308.9285 C432.642,307.117 424.331,301.2767 425.021,295.8946 C425.712,290.5125 435.144,287.6137 446.071,289.4252 Z"/>
      <path fill="#5A6D83" d="M70.7353,263.581 C70.2552,263.304 69.604,263.148 68.9249,263.148 C68.2459,263.148 67.5947,263.304 67.1146,263.581 C63.6348,265.59 56.0495,269.97 52.5697,271.979 C52.0895,272.256 51.8198,272.632 51.8198,273.024 C51.8198,273.416 52.0895,273.792 52.5697,274.069 C52.5699,274.069 52.5702,274.07 52.5705,274.07 C53.0506,274.347 53.7018,274.503 54.3808,274.503 C55.0599,274.503 55.7111,274.347 56.1912,274.07 C59.671,272.061 67.2563,267.681 70.7361,265.672 C71.2162,265.395 71.486,265.019 71.486,264.627 C71.486,264.235 71.2162,263.859 70.7361,263.582 C70.7358,263.582 70.7356,263.581 70.7353,263.581 Z"/>
      <path stroke="#01050C" stroke-linecap="round" stroke-linejoin="round" d="M70.7353,263.581 C70.2552,263.304 69.604,263.148 68.9249,263.148 C68.2459,263.148 67.5947,263.304 67.1146,263.581 C63.6348,265.59 56.0495,269.97 52.5697,271.979 C52.0895,272.256 51.8198,272.632 51.8198,273.024 C51.8198,273.416 52.0895,273.792 52.5697,274.069 C52.5699,274.069 52.5702,274.07 52.5705,274.07 C53.0506,274.347 53.7018,274.503 54.3808,274.503 C55.0599,274.503 55.7111,274.347 56.1912,274.07 C59.671,272.061 67.2563,267.681 70.7361,265.672 C71.2162,265.395 71.486,265.019 71.486,264.627 C71.486,264.235 71.2162,263.859 70.7361,263.582 C70.7358,263.582 70.7356,263.581 70.7353,263.581 Z"/>
      <path fill="#E01A33" d="M45.4016,276.1173 C46.4009,275.5403 48.0237,275.5403 49.0231,276.1173 C50.0225,276.6943 50.0225,277.6312 49.0231,278.2082 C48.0237,278.7852 46.4009,278.7852 45.4016,278.2082 C44.4022,277.6312 44.4022,276.6943 45.4016,276.1173 Z"/>
      <path stroke="#01050C" stroke-linecap="round" stroke-linejoin="round" d="M45.4016,276.1173 C46.4009,275.5403 48.0237,275.5403 49.0231,276.1173 C50.0225,276.6943 50.0225,277.6312 49.0231,278.2082 C48.0237,278.7852 46.4009,278.7852 45.4016,278.2082 C44.4022,277.6312 44.4022,276.6943 45.4016,276.1173 Z"/>
      <path fill="#01050C" d="M163.165,330.1404 C163.165,330.0235 163.103,329.9155 163.002,329.857 C162.901,329.7986 162.776,329.7986 162.675,329.857 C161.085,330.7748 156.086,333.661 154.435,334.6139 C154.105,334.805 153.901,335.158 153.901,335.54 C153.901,335.9115 153.901,336.3809 153.901,336.743 C153.901,336.8599 153.963,336.9679 154.064,337.0264 C154.166,337.0848 154.29,337.0848 154.392,337.0264 C155.981,336.1086 160.98,333.2224 162.631,332.2695 C162.962,332.0784 163.165,331.7254 163.165,331.3434 C163.165,330.9719 163.165,330.5025 163.165,330.1404 Z"/>
      <path stroke="#01050C" stroke-linecap="round" stroke-linejoin="round" d="M163.165,330.1404 C163.165,330.0235 163.103,329.9155 163.002,329.857 C162.901,329.7986 162.776,329.7986 162.675,329.857 C161.085,330.7748 156.086,333.661 154.435,334.6139 C154.105,334.805 153.901,335.158 153.901,335.54 C153.901,335.9115 153.901,336.3809 153.901,336.743 C153.901,336.8599 153.963,336.9679 154.064,337.0264 C154.166,337.0848 154.29,337.0848 154.392,337.0264 C155.981,336.1086 160.98,333.2224 162.631,332.2695 C162.962,332.0784 163.165,331.7254 163.165,331.3434 C163.165,330.9719 163.165,330.5025 163.165,330.1404 Z"/>
      <path fill="#5A6D83" d="M155.681,321.108 C154.819,320.6102 153.757,320.6102 152.895,321.108 C150.165,322.684 144.143,326.1608 141.419,327.7333 C141.134,327.8983 140.957,328.2033 140.957,328.5334 C140.957,328.8635 141.134,329.1685 141.419,329.3335 C142.509,329.9625 144.02,330.8347 145.111,331.4648 C145.973,331.9626 147.035,331.9626 147.898,331.4648 C150.627,329.8889 156.649,326.412 159.373,324.8396 C159.659,324.6745 159.835,324.3695 159.835,324.0394 C159.835,323.7094 159.659,323.4043 159.373,323.2393 C158.283,322.6103 156.773,321.7381 155.681,321.108 Z"/>
      <path stroke="#01050C" stroke-linecap="round" stroke-linejoin="round" d="M155.681,321.108 C154.819,320.6102 153.757,320.6102 152.895,321.108 C150.165,322.684 144.143,326.1608 141.419,327.7333 C141.134,327.8983 140.957,328.2033 140.957,328.5334 C140.957,328.8635 141.134,329.1685 141.419,329.3335 C142.509,329.9625 144.02,330.8347 145.111,331.4648 C145.973,331.9626 147.035,331.9626 147.898,331.4648 C150.627,329.8889 156.649,326.412 159.373,324.8396 C159.659,324.6745 159.835,324.3695 159.835,324.0394 C159.835,323.7094 159.659,323.4043 159.373,323.2393 C158.283,322.6103 156.773,321.7381 155.681,321.108 Z"/>
      <path fill="#3F6C9F" fill-opacity=".2" d="M100.688,250.662 C100.156,250.355 99.4341,250.182 98.6815,250.182 C97.929,250.182 97.2073,250.355 96.6752,250.662 C90.9113,253.992 74.3497,263.558 68.5859,266.888 C68.0538,267.195 67.7548,267.612 67.7548,268.047 C67.7548,268.481 68.0538,268.898 68.5859,269.206 C74.3497,272.535 90.9113,282.1014 96.6752,285.4308 C97.2073,285.7382 97.929,285.9108 98.6815,285.9108 C99.4341,285.9108 100.156,285.7382 100.688,285.4308 C106.452,282.1014 123.013,272.535 128.777,269.206 C129.309,268.898 129.608,268.481 129.608,268.047 C129.608,267.612 129.309,267.195 128.777,266.888 C123.013,263.558 106.452,253.992 100.688,250.662 Z"/>
      <path stroke="#3F6C9F" stroke-linecap="round" stroke-linejoin="round" d="M214.653 136.299C213.857 135.84 212.673 135.642 211.36 135.75 210.048 135.858 208.715 136.262 207.655 136.875 196.174 143.507 163.183 162.564 151.701 169.196 150.641 169.808 149.941 170.578 149.754 171.336 149.567 172.094 149.909 172.778 150.705 173.238 159.326 178.217 184.095 192.525 192.716 197.504 193.512 197.964 194.696 198.162 196.008 198.054 197.321 197.946 198.653 197.541 199.713 196.929 211.195 190.297 244.186 171.24 255.668 164.608 256.728 163.996 257.428 163.226 257.615 162.468 257.802 161.71 257.459 161.026 256.664 160.566 248.043 155.587 223.273 141.279 214.653 136.299zM375.417 313.9699C374.836 313.6342 374.047 313.4456 373.226 313.4456 372.404 313.4456 371.616 313.6342 371.034 313.9699 364.74 317.6058 346.653 328.0532 340.359 331.6891 339.778 332.0248 339.451 332.4801 339.451 332.9548 339.451 333.4295 339.778 333.8848 340.359 334.2204 346.653 337.8564 364.74 348.3038 371.034 351.9397 371.616 352.2754 372.404 352.4639 373.226 352.4639 374.047 352.4639 374.836 352.2754 375.417 351.9397 381.711 348.3038 399.798 337.8564 406.092 334.2204 406.674 333.8848 407 333.4295 407 332.9548 407 332.4801 406.674 332.0248 406.092 331.6891 399.798 328.0532 381.711 317.6058 375.417 313.9699z"/>
      <path fill="#3F6C9F" fill-opacity=".1" d="M171.716,286.3778 C170.638,285.7552 169.309,285.7552 168.231,286.3778 C162.271,289.8186 142.627,301.1601 134.59,305.8003 C133.874,306.214 133.432,306.9786 133.432,307.806 C133.432,308.6334 133.874,309.3979 134.59,309.8116 C144.861,315.7414 174.861,333.0623 182.83,337.6631 C184.045,338.3643 185.541,338.3643 186.755,337.6631 C192.964,334.0785 212.235,322.9522 220.176,318.3676 C220.893,317.9539 221.334,317.1893 221.334,316.3619 C221.334,315.5345 220.893,314.7699 220.176,314.3562 C209.809,308.3705 179.336,290.7772 171.716,286.3778 Z"/>
      <path fill="#EFF4F7" fill-opacity=".2" d="M373.074,50.899 C373.016,50.191 372.986,49.491 372.986,48.799 C372.986,37.381 381.014,32.746 390.902,38.455 C399.657,43.509 406.953,54.988 408.511,65.478 C411.733,65.043 415.527,65.909 419.587,68.253 C431.256,74.99 440.729,91.399 440.729,104.873 C440.729,118.346 431.256,123.816 419.587,117.079 L365.294,85.733 C355.406,80.024 347.378,66.119 347.378,54.701 C347.378,43.283 355.406,38.649 365.294,44.357 C368.081,45.967 370.72,48.227 373.074,50.899 Z"/>
      <path stroke="#01050C" stroke-linecap="round" stroke-linejoin="round" stroke-opacity=".2" d="M373.074,50.899 C373.016,50.191 372.986,49.491 372.986,48.799 C372.986,37.381 381.014,32.746 390.902,38.455 C399.657,43.509 406.953,54.988 408.511,65.478 C411.733,65.043 415.527,65.909 419.587,68.253 C431.256,74.99 440.729,91.399 440.729,104.873 C440.729,118.346 431.256,123.816 419.587,117.079 L365.294,85.733 C355.406,80.024 347.378,66.119 347.378,54.701 C347.378,43.283 355.406,38.649 365.294,44.357 C368.081,45.967 370.72,48.227 373.074,50.899 Z"/>
      <path fill="#4D72EF" d="M367.848,53.681 C367.791,52.974 367.761,52.273 367.761,51.581 C367.761,40.163 375.789,35.528 385.677,41.237 C394.432,46.292 401.728,57.77 403.286,68.26 C406.508,67.825 410.302,68.692 414.362,71.036 C426.03,77.773 435.504,94.181 435.504,107.655 C435.504,121.129 426.03,126.598 414.362,119.861 L360.068,88.515 C350.18,82.806 342.152,68.901 342.152,57.483 C342.152,46.066 350.18,41.431 360.068,47.14 C362.855,48.749 365.495,51.009 367.848,53.681 Z"/>
      <path stroke="#01050C" stroke-linecap="round" stroke-linejoin="round" d="M367.848,53.681 C367.791,52.974 367.761,52.273 367.761,51.581 C367.761,40.163 375.789,35.528 385.677,41.237 C394.432,46.292 401.728,57.77 403.286,68.26 C406.508,67.825 410.302,68.692 414.362,71.036 C426.03,77.773 435.504,94.181 435.504,107.655 C435.504,121.129 426.03,126.598 414.362,119.861 L360.068,88.515 C350.18,82.806 342.152,68.901 342.152,57.483 C342.152,46.066 350.18,41.431 360.068,47.14 C362.855,48.749 365.495,51.009 367.848,53.681 Z"/>
      <line x1="389.134" x2="382.227" y1="61.224" y2="57.236" stroke="#B1BBC9" stroke-linecap="round" stroke-linejoin="round" stroke-width="2"/>
      <line x1="379.617" x2="377.315" y1="55.729" y2="54.4" stroke="#B1BBC9" stroke-linecap="round" stroke-linejoin="round" stroke-width="2"/>
      <line x1="412.001" x2="399.701" y1="85.794" y2="78.692" stroke="#B1BBC9" stroke-linecap="round" stroke-linejoin="round" stroke-width="2"/>
      <line x1="404.449" x2="398.488" y1="101.817" y2="98.375" stroke="#B1BBC9" stroke-linecap="round" stroke-linejoin="round" stroke-width="2"/>
      <line x1="416.672" x2="407.391" y1="97.684" y2="92.325" stroke="#B1BBC9" stroke-linecap="round" stroke-linejoin="round" stroke-width="2"/>
      <line x1="395.051" x2="390.951" y1="76.008" y2="73.641" stroke="#B1BBC9" stroke-linecap="round" stroke-linejoin="round" stroke-width="2"/>
      <line x1="393.838" x2="389.738" y1="95.691" y2="93.324" stroke="#B1BBC9" stroke-linecap="round" stroke-linejoin="round" stroke-width="2"/>
      <line x1="401.507" x2="388.828" y1="88.928" y2="81.608" stroke="#B1BBC9" stroke-linecap="round" stroke-linejoin="round" stroke-width="2"/>
      <line x1="376.178" x2="371.573" y1="75.453" y2="72.794" stroke="#B1BBC9" stroke-linecap="round" stroke-linejoin="round" stroke-width="2"/>
      <line x1="366.969" x2="359.35" y1="70.136" y2="65.737" stroke="#B1BBC9" stroke-linecap="round" stroke-linejoin="round" stroke-width="2"/>
      <line x1="372.368" x2="364.749" y1="80.769" y2="76.371" stroke="#B1BBC9" stroke-linecap="round" stroke-linejoin="round" stroke-width="2"/>
      <path fill="#EFF4F7" fill-opacity=".2" d="M202.469,10.488 C202.509,10.003 202.529,9.523 202.529,9.049 C202.529,1.228 197.03,-1.947 190.256,1.963 C184.259,5.426 179.261,13.288 178.194,20.474 C175.987,20.176 173.388,20.77 170.607,22.375 C162.614,26.99 156.125,38.23 156.125,47.459 C156.125,56.689 162.614,60.435 170.607,55.821 L207.798,34.349 C214.572,30.438 220.071,20.913 220.071,13.092 C220.071,5.271 214.572,2.096 207.798,6.006 C205.889,7.109 204.081,8.657 202.469,10.488 Z"/>
      <path stroke="#01050C" stroke-linecap="round" stroke-linejoin="round" stroke-opacity=".2" d="M202.469,10.488 C202.509,10.003 202.529,9.523 202.529,9.049 C202.529,1.228 197.03,-1.947 190.256,1.963 C184.259,5.426 179.261,13.288 178.194,20.474 C175.987,20.176 173.388,20.77 170.607,22.375 C162.614,26.99 156.125,38.23 156.125,47.459 C156.125,56.689 162.614,60.435 170.607,55.821 L207.798,34.349 C214.572,30.438 220.071,20.913 220.071,13.092 C220.071,5.271 214.572,2.096 207.798,6.006 C205.889,7.109 204.081,8.657 202.469,10.488 Z"/>
      <path fill="#4D72EF" d="M206.048,12.393 C206.088,11.909 206.108,11.428 206.108,10.955 C206.108,3.133 200.609,-0.041 193.836,3.869 C187.839,7.331 182.841,15.194 181.774,22.38 C179.567,22.082 176.968,22.675 174.187,24.281 C166.194,28.896 159.704,40.136 159.704,49.365 C159.704,58.595 166.194,62.341 174.187,57.727 L211.378,36.254 C218.151,32.344 223.65,22.819 223.65,14.998 C223.65,7.177 218.151,4.002 211.378,7.912 C209.468,9.015 207.661,10.563 206.048,12.393 Z"/>
      <path stroke="#01050C" stroke-linecap="round" stroke-linejoin="round" d="M206.048,12.393 C206.088,11.909 206.108,11.428 206.108,10.955 C206.108,3.133 200.609,-0.041 193.836,3.869 C187.839,7.331 182.841,15.194 181.774,22.38 C179.567,22.082 176.968,22.675 174.187,24.281 C166.194,28.896 159.704,40.136 159.704,49.365 C159.704,58.595 166.194,62.341 174.187,57.727 L211.378,36.254 C218.151,32.344 223.65,22.819 223.65,14.998 C223.65,7.177 218.151,4.002 211.378,7.912 C209.468,9.015 207.661,10.563 206.048,12.393 Z"/>
      <line x1="191.468" x2="196.199" y1="17.56" y2="14.828" stroke="#B1BBC9" stroke-linecap="round" stroke-linejoin="round" stroke-width="2"/>
      <line x1="197.987" x2="199.564" y1="13.796" y2="12.886" stroke="#B1BBC9" stroke-linecap="round" stroke-linejoin="round" stroke-width="2"/>
      <line x1="175.804" x2="184.229" y1="34.39" y2="29.526" stroke="#B1BBC9" stroke-linecap="round" stroke-linejoin="round" stroke-width="2"/>
      <line x1="180.977" x2="185.06" y1="45.366" y2="43.009" stroke="#B1BBC9" stroke-linecap="round" stroke-linejoin="round" stroke-width="2"/>
      <line x1="172.604" x2="178.962" y1="42.535" y2="38.864" stroke="#B1BBC9" stroke-linecap="round" stroke-linejoin="round" stroke-width="2"/>
      <line x1="187.414" x2="190.223" y1="27.687" y2="26.065" stroke="#B1BBC9" stroke-linecap="round" stroke-linejoin="round" stroke-width="2"/>
      <line x1="188.245" x2="191.054" y1="41.17" y2="39.548" stroke="#B1BBC9" stroke-linecap="round" stroke-linejoin="round" stroke-width="2"/>
      <line x1="182.992" x2="191.677" y1="36.537" y2="31.523" stroke="#B1BBC9" stroke-linecap="round" stroke-linejoin="round" stroke-width="2"/>
      <line x1="200.343" x2="203.497" y1="27.307" y2="25.486" stroke="#B1BBC9" stroke-linecap="round" stroke-linejoin="round" stroke-width="2"/>
      <line x1="206.651" x2="211.87" y1="23.665" y2="20.652" stroke="#B1BBC9" stroke-linecap="round" stroke-linejoin="round" stroke-width="2"/>
      <line x1="202.952" x2="208.171" y1="30.949" y2="27.935" stroke="#B1BBC9" stroke-linecap="round" stroke-linejoin="round" stroke-width="2"/>
      <path fill="#FFF" d="M431.25,296.1552 L431.215,296.1522 L431.602,274.8351 L434.46,247.645 L434.722,222.399 C434.722,222.399 431.427,227.556 429.925,229.906 C429.445,230.659 428.8,231.292 428.041,231.761 C425.272,233.467 418.18,237.838 414.066,240.374 C412.356,241.428 410.116,240.921 409.027,239.232 C409.026,239.232 409.026,239.231 409.026,239.231 C407.892,237.473 408.338,235.134 410.039,233.917 C413.437,231.486 418.864,227.605 421.91,225.425 C423.402,224.358 424.637,222.971 425.524,221.365 C427.17,218.387 429.932,213.389 431.531,210.495 C433.331,207.238 436.866,205.332 440.577,205.617 C443.815,205.866 447.777,206.171 450.979,206.417 C454.517,206.689 457.542,209.071 458.635,212.448 C460.476,218.134 463.149,226.392 463.793,228.379 C463.888,228.673 463.95,228.976 463.978,229.284 L465.508,246.192 L465.545,246.434 L465.564,246.81 C465.564,248.845 463.913,250.496 461.879,250.496 C459.845,250.496 458.193,248.845 458.193,246.81 L458.201,246.663 L456.828,230.27 L454.134,223.162 L454.67,248.791 L454.134,273.392 L456.286,294.8063 L456.255,294.8112 C456.298,295.0872 456.321,295.3701 456.321,295.6584 C456.321,298.6187 453.918,301.0221 450.957,301.0221 C448.268,301.0221 446.038,299.0383 445.653,296.4554 L445.643,296.4569 L445.639,296.3589 C445.609,296.1296 445.594,295.8958 445.594,295.6584 C445.594,295.5774 445.596,295.4967 445.599,295.4166 L444.625,272.507 L443.456,257.954 L441.964,274.8351 L441.937,296.5061 C441.941,296.5918 441.943,296.6781 441.943,296.7648 C441.943,296.8563 441.94,296.9473 441.936,297.0377 L441.936,297.0992 L441.932,297.0989 C441.76,299.9039 439.427,302.1285 436.579,302.1285 C433.619,302.1285 431.215,299.7251 431.215,296.7648 C431.215,296.5587 431.227,296.3553 431.25,296.1552 Z"/>
      <g transform="translate(408 205.545)">
        <mask id="policy-dark@1x-f" fill="#fff">
          <use xlink:href="#policy-dark@1x-e"/>
        </mask>
        <path fill="#EFF4F7" d="M44.938 14.469C44.938 14.469 44.642 15.075 44.299 15.781 43.606 17.203 43.276 18.773 43.336 20.353 43.538 25.658 44.012 38.117 44.122 41.016 44.137 41.423 44.125 41.83 44.086 42.235 43.746 45.73 42.043 63.26 41.609 67.73 41.542 68.42 41.571 69.1151 41.694 69.7967 42.409 73.7438 44.938 87.716 44.938 87.716 44.938 87.716 44.931 87.7863 44.918 87.9138 44.755 89.5532 43.745 90.9873 42.256 91.6932 40.768 92.3991 39.018 92.2738 37.645 91.3628 37.645 91.3626 37.645 91.3624 37.645 91.3624L37.222 98.3033 55.44 97.1871 60.195 76.904 62.257 7.488 41.508.759C49.15 4.14 52.94 17.792 54.339 24.703 55.254 29.226 54.81 33.52 54.977 37.575 55.054 38.45 54.679 39.304 53.984 39.84 53.289 40.376 52.368 40.522 51.541 40.226 51.536 40.239 51.535 40.239 51.534 40.239 50.634 39.917 49.967 39.147 49.776 38.21 48.667 32.767 44.938 14.469 44.938 14.469zM34.833 49.957C34.833 49.957 33.008 57.106 32.43 59.372 32.315 59.824 32.242 60.286 32.212 60.751 31.99 64.225 30.993 79.8261 30.376 89.4759 30.274 91.0834 29.322 92.5142 27.879 93.23 26.436 93.9459 24.721 93.8383 23.379 92.9476 23.379 92.9476 23.379 92.9476 23.379 92.9476L22.956 99.8884 35.625 97.505 34.833 49.957zM26.585 13.921C26.585 13.921 20.613 22.042 18.631 24.737 18.216 25.302 17.681 25.767 17.065 26.101 14.8 27.329 8.884 30.535 4.439 32.945 3.302 33.561 1.924 33.533.813 32.872-.299 32.21-.98 31.012-.98 29.718-.98 29.717-.98 29.717-.98 29.717L-6.558 33.87 3.434 42.016C7.918 39.536 18 32.105 18 32.105 18 32.105 26.694 19.546 26.585 13.921z" mask="url(#policy-dark@1x-f)"/>
      </g>
      <path stroke="#01050C" stroke-linecap="round" stroke-linejoin="round" d="M431.25,296.1552 L431.215,296.1522 L431.602,274.8351 L434.46,247.645 L434.722,222.399 C434.722,222.399 431.427,227.556 429.925,229.906 C429.445,230.659 428.8,231.292 428.041,231.761 C425.272,233.467 418.18,237.838 414.066,240.374 C412.356,241.428 410.116,240.921 409.027,239.232 C409.026,239.232 409.026,239.231 409.026,239.231 C407.892,237.473 408.338,235.134 410.039,233.917 C413.437,231.486 418.864,227.605 421.91,225.425 C423.402,224.358 424.637,222.971 425.524,221.365 C427.17,218.387 429.932,213.389 431.531,210.495 C433.331,207.238 436.866,205.332 440.577,205.617 C443.815,205.866 447.777,206.171 450.979,206.417 C454.517,206.689 457.542,209.071 458.635,212.448 C460.476,218.134 463.149,226.392 463.793,228.379 C463.888,228.673 463.95,228.976 463.978,229.284 L465.508,246.192 L465.545,246.434 L465.564,246.81 C465.564,248.845 463.913,250.496 461.879,250.496 C459.845,250.496 458.193,248.845 458.193,246.81 L458.201,246.663 L456.828,230.27 L454.134,223.162 L454.67,248.791 L454.134,273.392 L456.286,294.8063 L456.255,294.8112 C456.298,295.0872 456.321,295.3701 456.321,295.6584 C456.321,298.6187 453.918,301.0221 450.957,301.0221 C448.268,301.0221 446.038,299.0383 445.653,296.4554 L445.643,296.4569 L445.639,296.3589 C445.609,296.1296 445.594,295.8958 445.594,295.6584 C445.594,295.5774 445.596,295.4967 445.599,295.4166 L444.625,272.507 L443.456,257.954 L441.964,274.8351 L441.937,296.5061 C441.941,296.5918 441.943,296.6781 441.943,296.7648 C441.943,296.8563 441.94,296.9473 441.936,297.0377 L441.936,297.0992 L441.932,297.0989 C441.76,299.9039 439.427,302.1285 436.579,302.1285 C433.619,302.1285 431.215,299.7251 431.215,296.7648 C431.215,296.5587 431.227,296.3553 431.25,296.1552 Z"/>
      <line x1="434.714" x2="434.714" y1="223.39" y2="219.665" stroke="#01050C" stroke-linecap="round" stroke-linejoin="round"/>
      <line x1="452.913" x2="454.134" y1="220.351" y2="223.162" stroke="#01050C" stroke-linecap="round" stroke-linejoin="round"/>
      <line x1="443.395" x2="442.491" y1="257.979" y2="255.706" stroke="#01050C" stroke-linecap="round" stroke-linejoin="round"/>
      <path fill="#FFF" d="M444.197,179.543 C438.417,179.543 433.724,184.236 433.724,190.016 C433.724,195.796 438.417,200.489 444.197,200.489 C449.977,200.489 454.67,195.796 454.67,190.016 C454.67,184.236 449.977,179.543 444.197,179.543 Z"/>
      <g transform="translate(433 179.545)">
        <mask id="policy-dark@1x-h" fill="#fff">
          <use xlink:href="#policy-dark@1x-g"/>
        </mask>
        <path fill="#EFF4F7" d="M11.005,0.003 L11.197,-0.007 C16.977,-0.007 21.67,4.686 21.67,10.466 C21.67,16.246 16.977,20.939 11.197,20.939 C9.984,20.939 8.819,20.732 7.737,20.341 C13.43,20.246 18.019,15.593 18.019,9.877 C18.019,5.31 15.089,1.422 11.005,0.003 Z" mask="url(#policy-dark@1x-h)"/>
      </g>
      <path stroke="#01050C" stroke-linecap="round" stroke-linejoin="round" d="M444.197,179.543 C438.417,179.543 433.724,184.236 433.724,190.016 C433.724,195.796 438.417,200.489 444.197,200.489 C449.977,200.489 454.67,195.796 454.67,190.016 C454.67,184.236 449.977,179.543 444.197,179.543 Z"/>
      <path fill="#5A6D83" d="M310.161,158.624 C308.912,157.903 307.372,157.903 306.122,158.624 C289.733,168.087 178.541,232.284 155.602,245.527 C154.749,246.02 154.224,246.93 154.224,247.914 C154.224,248.899 154.749,249.809 155.602,250.301 C172.961,260.323 239.767,298.8938 255.173,307.7888 C257.143,308.9258 259.569,308.9258 261.538,307.7888 C281.292,296.3838 387.073,235.311 410.454,221.812 C411.398,221.267 411.979,220.26 411.979,219.17 C411.979,218.08 411.398,217.073 410.454,216.528 C391.927,205.832 322.878,165.966 310.161,158.624 Z"/>
      <path stroke="#01050C" stroke-linecap="round" stroke-linejoin="round" d="M310.161,158.624 C308.912,157.903 307.372,157.903 306.122,158.624 C289.733,168.087 178.541,232.284 155.602,245.527 C154.749,246.02 154.224,246.93 154.224,247.914 C154.224,248.899 154.749,249.809 155.602,250.301 C172.961,260.323 239.767,298.8938 255.173,307.7888 C257.143,308.9258 259.569,308.9258 261.538,307.7888 C281.292,296.3838 387.073,235.311 410.454,221.812 C411.398,221.267 411.979,220.26 411.979,219.17 C411.979,218.08 411.398,217.073 410.454,216.528 C391.927,205.832 322.878,165.966 310.161,158.624 Z"/>
      <path fill="#B1BBC9" d="M310.161,154.624 C308.912,153.903 307.372,153.903 306.122,154.624 C289.733,164.087 178.541,228.284 155.602,241.527 C154.749,242.02 154.224,242.93 154.224,243.914 C154.224,244.899 154.749,245.809 155.602,246.301 C172.961,256.323 239.767,294.8938 255.173,303.7888 C257.143,304.9258 259.569,304.9258 261.538,303.7888 C281.292,292.3838 387.073,231.311 410.454,217.812 C411.398,217.267 411.979,216.26 411.979,215.17 C411.979,214.08 411.398,213.073 410.454,212.528 C391.927,201.832 322.878,161.966 310.161,154.624 Z"/>
      <path stroke="#01050C" stroke-linecap="round" stroke-linejoin="round" d="M310.161,154.624 C308.912,153.903 307.372,153.903 306.122,154.624 C289.733,164.087 178.541,228.284 155.602,241.527 C154.749,242.02 154.224,242.93 154.224,243.914 C154.224,244.899 154.749,245.809 155.602,246.301 C172.961,256.323 239.767,294.8938 255.173,303.7888 C257.143,304.9258 259.569,304.9258 261.538,303.7888 C281.292,292.3838 387.073,231.311 410.454,217.812 C411.398,217.267 411.979,216.26 411.979,215.17 C411.979,214.08 411.398,213.073 410.454,212.528 C391.927,201.832 322.878,161.966 310.161,154.624 Z"/>
      <path fill="#3F6C9F" fill-opacity=".3" d="M255.537,294.1901 C255.537,294.1901 262.822,294.3611 267.614,294.4736 C270.29,294.5364 272.93,293.8397 275.227,292.464 C293.929,281.2643 381.483,228.833 397.646,219.154 C398.184,218.832 398.511,218.25 398.50802,217.624 C398.505,216.997 398.171,216.419 397.631,216.102 C385.301,208.886 333.05,178.304 333.05,178.304 L255.537,201.716 L255.537,294.1901 Z"/>
      <path fill="#B1BBC9" d="M307.08,169.31 C305.942,168.653 304.539,168.653 303.401,169.31 C289.157,177.534 196.444,231.061 176.12,242.796 C175.308,243.264 174.808,244.13 174.808,245.067 C174.808,246.004 175.308,246.87 176.12,247.338 C191.359,256.136 246.191,287.7937 256.949,294.0051 C258.087,294.6622 259.489,294.6622 260.627,294.0051 C274.84,285.7998 367.166,232.495 387.77,220.599 C388.61,220.114 389.128,219.218 389.128,218.248 C389.128,217.278 388.61,216.381 387.77,215.896 C372.34,206.988 317.806,175.502 307.08,169.31 Z"/>
      <path stroke="#01050C" stroke-linecap="round" stroke-linejoin="round" d="M307.08,169.31 C305.942,168.653 304.539,168.653 303.401,169.31 C289.157,177.534 196.444,231.061 176.12,242.796 C175.308,243.264 174.808,244.13 174.808,245.067 C174.808,246.004 175.308,246.87 176.12,247.338 C191.359,256.136 246.191,287.7937 256.949,294.0051 C258.087,294.6622 259.489,294.6622 260.627,294.0051 C274.84,285.7998 367.166,232.495 387.77,220.599 C388.61,220.114 389.128,219.218 389.128,218.248 C389.128,217.278 388.61,216.381 387.77,215.896 C372.34,206.988 317.806,175.502 307.08,169.31 Z"/>
      <path fill="#B1BBC9" d="M307.08,166.31 C305.942,165.653 304.539,165.653 303.401,166.31 C289.157,174.534 196.444,228.061 176.12,239.796 C175.308,240.264 174.808,241.13 174.808,242.067 C174.808,243.004 175.308,243.87 176.12,244.338 C191.359,253.136 246.191,284.7937 256.949,291.0051 C258.087,291.6622 259.489,291.6622 260.627,291.0051 C274.84,282.7998 367.166,229.495 387.77,217.599 C388.61,217.114 389.128,216.218 389.128,215.248 C389.128,214.278 388.61,213.381 387.77,212.896 C372.34,203.988 317.806,172.502 307.08,166.31 Z"/>
      <path stroke="#01050C" stroke-linecap="round" stroke-linejoin="round" d="M307.08,166.31 C305.942,165.653 304.539,165.653 303.401,166.31 C289.157,174.534 196.444,228.061 176.12,239.796 C175.308,240.264 174.808,241.13 174.808,242.067 C174.808,243.004 175.308,243.87 176.12,244.338 C191.359,253.136 246.191,284.7937 256.949,291.0051 C258.087,291.6622 259.489,291.6622 260.627,291.0051 C274.84,282.7998 367.166,229.495 387.77,217.599 C388.61,217.114 389.128,216.218 389.128,215.248 C389.128,214.278 388.61,213.381 387.77,212.896 C372.34,203.988 317.806,172.502 307.08,166.31 Z"/>
      <path fill="#B1BBC9" d="M307.08,163.31 C305.942,162.653 304.539,162.653 303.401,163.31 C289.157,171.534 196.444,225.061 176.12,236.796 C175.308,237.264 174.808,238.13 174.808,239.067 C174.808,240.004 175.308,240.87 176.12,241.338 C191.359,250.136 246.191,281.7937 256.949,288.0051 C258.087,288.6622 259.489,288.6622 260.627,288.0051 C274.84,279.7998 367.166,226.495 387.77,214.599 C388.61,214.114 389.128,213.218 389.128,212.248 C389.128,211.278 388.61,210.381 387.77,209.896 C372.34,200.988 317.806,169.502 307.08,163.31 Z"/>
      <path stroke="#01050C" stroke-linecap="round" stroke-linejoin="round" d="M307.08,163.31 C305.942,162.653 304.539,162.653 303.401,163.31 C289.157,171.534 196.444,225.061 176.12,236.796 C175.308,237.264 174.808,238.13 174.808,239.067 C174.808,240.004 175.308,240.87 176.12,241.338 C191.359,250.136 246.191,281.7937 256.949,288.0051 C258.087,288.6622 259.489,288.6622 260.627,288.0051 C274.84,279.7998 367.166,226.495 387.77,214.599 C388.61,214.114 389.128,213.218 389.128,212.248 C389.128,211.278 388.61,210.381 387.77,209.896 C372.34,200.988 317.806,169.502 307.08,163.31 Z"/>
      <path fill="#FFF" d="M307.08,160.31 C305.942,159.653 304.539,159.653 303.401,160.31 C289.157,168.534 196.444,222.061 176.12,233.796 C175.308,234.264 174.808,235.13 174.808,236.067 C174.808,237.004 175.308,237.87 176.12,238.338 C191.359,247.136 246.191,278.7937 256.949,285.0051 C258.087,285.6622 259.489,285.6622 260.627,285.0051 C274.84,276.7998 367.166,223.495 387.77,211.599 C388.61,211.114 389.128,210.218 389.128,209.248 C389.128,208.278 388.61,207.381 387.77,206.896 C372.34,197.988 317.806,166.502 307.08,160.31 Z"/>
      <path stroke="#01050C" stroke-linecap="round" stroke-linejoin="round" d="M307.08,160.31 C305.942,159.653 304.539,159.653 303.401,160.31 C289.157,168.534 196.444,222.061 176.12,233.796 C175.308,234.264 174.808,235.13 174.808,236.067 C174.808,237.004 175.308,237.87 176.12,238.338 C191.359,247.136 246.191,278.7937 256.949,285.0051 C258.087,285.6622 259.489,285.6622 260.627,285.0051 C274.84,276.7998 367.166,223.495 387.77,211.599 C388.61,211.114 389.128,210.218 389.128,209.248 C389.128,208.278 388.61,207.381 387.77,206.896 C372.34,197.988 317.806,166.502 307.08,160.31 Z"/>
      <path fill="#B1BBC9" d="M341.643,165.263 L352.671,171.629 C352.671,171.629 354.353,170.658 356.109,169.644 C358.541,168.24 361.537,168.24 363.969,169.644 C367.117,171.461 371.49,173.986 374.513,175.732 C375.232,176.147 375.674,176.913 375.674,177.743 C375.674,178.573 375.232,179.339 374.513,179.754 C372.607,180.855 370.628,181.997 370.628,181.997 C370.628,181.997 377.653,186.053 382.407,188.797 C383.007,189.144 383.329,189.827 383.214,190.511 C383.1,191.194 382.573,191.735 381.893,191.867 C375.339,193.043 370.565,195.92 367.506,200.409 C366.474,201.928 364.444,202.392 362.854,201.474 C354.368,196.609 330.698,182.943 323.181,178.603 C322.517,178.22 322.033,177.589 321.835,176.848 C321.638,176.107 321.743,175.318 322.128,174.655 C326.032,167.974 332.656,165.01 341.643,165.263 Z"/>
      <g transform="translate(321 164.545)">
        <mask id="policy-dark@1x-j" fill="#fff">
          <use xlink:href="#policy-dark@1x-i"/>
        </mask>
        <polygon fill="#FFF" fill-opacity=".2" points="-3.848 5.777 52.839 38.505 60.307 34.194 3.62 1.466" mask="url(#policy-dark@1x-j)"/>
        <polygon fill="#FFF" fill-opacity=".2" points="6.072 .05 62.758 32.779 65.25 31.34 8.563 -1.388" mask="url(#policy-dark@1x-j)"/>
      </g>
      <path stroke="#01050C" stroke-linecap="round" stroke-linejoin="round" d="M341.643,165.263 L352.671,171.629 C352.671,171.629 354.353,170.658 356.109,169.644 C358.541,168.24 361.537,168.24 363.969,169.644 C367.117,171.461 371.49,173.986 374.513,175.732 C375.232,176.147 375.674,176.913 375.674,177.743 C375.674,178.573 375.232,179.339 374.513,179.754 C372.607,180.855 370.628,181.997 370.628,181.997 C370.628,181.997 377.653,186.053 382.407,188.797 C383.007,189.144 383.329,189.827 383.214,190.511 C383.1,191.194 382.573,191.735 381.893,191.867 C375.339,193.043 370.565,195.92 367.506,200.409 C366.474,201.928 364.444,202.392 362.854,201.474 C354.368,196.609 330.698,182.943 323.181,178.603 C322.517,178.22 322.033,177.589 321.835,176.848 C321.638,176.107 321.743,175.318 322.128,174.655 C326.032,167.974 332.656,165.01 341.643,165.263 Z"/>
      <polygon stroke="#01050C" stroke-linecap="round" stroke-linejoin="round" stroke-width="2" points="310.127 189.199 292.806 179.199 275.486 189.199 292.806 199.199"/>
      <line x1="315.986" x2="352.488" y1="196.621" y2="217.695" stroke="#01050C" stroke-linecap="round" stroke-linejoin="round" stroke-width="2"/>
      <line x1="308.265" x2="322.847" y1="201.079" y2="209.498" stroke="#01050C" stroke-linecap="round" stroke-linejoin="round" stroke-width="2"/>
      <line x1="329.05" x2="335.978" y1="213.079" y2="217.079" stroke="#01050C" stroke-linecap="round" stroke-linejoin="round" stroke-width="2"/>
      <polyline stroke="#E01A33" stroke-linecap="round" stroke-linejoin="round" stroke-width="2" points="291.083 184.913 287.481 189.079 302.484 189.647"/>
      <polygon stroke="#01050C" stroke-linecap="round" stroke-linejoin="round" stroke-width="2" points="256.967 219.891 239.646 209.891 222.326 219.891 239.646 229.891"/>
      <line x1="262.826" x2="297.251" y1="227.313" y2="247.189" stroke="#01050C" stroke-linecap="round" stroke-linejoin="round" stroke-width="2"/>
      <line x1="255.105" x2="269.687" y1="231.771" y2="240.19" stroke="#01050C" stroke-linecap="round" stroke-linejoin="round" stroke-width="2"/>
      <line x1="275.89" x2="282.818" y1="243.771" y2="247.771" stroke="#01050C" stroke-linecap="round" stroke-linejoin="round" stroke-width="2"/>
      <polyline stroke="#E01A33" stroke-linecap="round" stroke-linejoin="round" stroke-width="2" points="237.923 215.605 234.32 219.771 249.324 220.339"/>
      <polygon stroke="#01050C" stroke-linecap="round" stroke-linejoin="round" stroke-width="2" points="230.452 235.199 213.132 225.199 195.811 235.199 213.132 245.199"/>
      <line x1="236.312" x2="270.737" y1="242.621" y2="262.497" stroke="#01050C" stroke-linecap="round" stroke-linejoin="round" stroke-width="2"/>
      <line x1="228.591" x2="243.173" y1="247.079" y2="255.498" stroke="#01050C" stroke-linecap="round" stroke-linejoin="round" stroke-width="2"/>
      <line x1="249.375" x2="256.304" y1="259.079" y2="263.079" stroke="#01050C" stroke-linecap="round" stroke-linejoin="round" stroke-width="2"/>
      <polyline stroke="#E01A33" stroke-linecap="round" stroke-linejoin="round" stroke-width="2" points="211.409 230.913 207.806 235.079 222.81 235.647"/>
      <polygon stroke="#01050C" stroke-linecap="round" stroke-linejoin="round" stroke-width="2" points="283.34 204.664 266.019 194.664 248.699 204.664 266.019 214.664"/>
      <line x1="289.199" x2="323.66" y1="212.087" y2="231.983" stroke="#01050C" stroke-linecap="round" stroke-linejoin="round" stroke-width="2"/>
      <line x1="281.478" x2="296.06" y1="216.544" y2="224.963" stroke="#01050C" stroke-linecap="round" stroke-linejoin="round" stroke-width="2"/>
      <line x1="302.263" x2="309.191" y1="228.544" y2="232.544" stroke="#01050C" stroke-linecap="round" stroke-linejoin="round" stroke-width="2"/>
      <polyline stroke="#E01A33" stroke-linecap="round" stroke-linejoin="round" stroke-width="2" points="264.296 200.379 260.694 204.544 275.697 205.113"/>
      <path fill="#5A6D83" d="M210.566,131.308 C223.183,124.024 243.67,124.024 256.286,131.308 C268.903,138.593 268.903,150.421 256.286,157.705 C243.67,164.989 223.183,164.989 210.566,157.705 C197.949,150.421 197.949,138.593 210.566,131.308 Z"/>
      <path stroke="#01050C" stroke-linecap="round" stroke-linejoin="round" d="M210.566,131.308 C223.183,124.024 243.67,124.024 256.286,131.308 C268.903,138.593 268.903,150.421 256.286,157.705 C243.67,164.989 223.183,164.989 210.566,157.705 C197.949,150.421 197.949,138.593 210.566,131.308 Z"/>
      <path fill="#B1BBC9" d="M210.566,123.186 C223.183,115.902 243.67,115.902 256.286,123.186 C268.903,130.471 268.903,142.299 256.286,149.583 C243.67,156.867 223.183,156.867 210.566,149.583 C197.949,142.299 197.949,130.471 210.566,123.186 Z"/>
      <path stroke="#01050C" stroke-linecap="round" stroke-linejoin="round" d="M210.566,123.186 C223.183,115.902 243.67,115.902 256.286,123.186 C268.903,130.471 268.903,142.299 256.286,149.583 C243.67,156.867 223.183,156.867 210.566,149.583 C197.949,142.299 197.949,130.471 210.566,123.186 Z"/>
      <path fill="#5A6D83" d="M280.249,95.615 C280.249,93.893 279.33,92.302 277.839,91.441 C276.348,90.58 274.511,90.58 273.02,91.441 C261.351,98.178 239.657,110.703 239.657,110.703 L250.304,116.85 C250.304,116.85 269.615,105.701 277.222,101.309 C279.095,100.228 280.249,98.229 280.249,96.066 C280.249,95.918 280.249,95.768 280.249,95.615 Z"/>
      <path stroke="#01050C" stroke-linecap="round" stroke-linejoin="round" d="M280.249,95.615 C280.249,93.893 279.33,92.302 277.839,91.441 C276.348,90.58 274.511,90.58 273.02,91.441 C261.351,98.178 239.657,110.703 239.657,110.703 L250.304,116.85 C250.304,116.85 269.615,105.701 277.222,101.309 C279.095,100.228 280.249,98.229 280.249,96.066 C280.249,95.918 280.249,95.768 280.249,95.615 Z"/>
      <path fill="#B1BBC9" d="M263.743,109.106 C262.991,109.534 270.006,105.49 270.006,105.49 C271.608,104.578 272.693,102.83 272.693,100.825 C272.693,97.879 270.352,95.488 267.468,95.488 C266.551,95.488 265.689,95.73 264.939,96.155 L258.676,99.771 C259.425,99.346 260.288,99.104 261.205,99.104 C264.088,99.104 266.429,101.495 266.429,104.441 C266.429,106.446 265.345,108.194 263.743,109.106 Z"/>
      <path stroke="#01050C" stroke-linecap="round" stroke-linejoin="round" d="M263.743,109.106 C262.991,109.534 270.006,105.49 270.006,105.49 C271.608,104.578 272.693,102.83 272.693,100.825 C272.693,97.879 270.352,95.488 267.468,95.488 C266.551,95.488 265.689,95.73 264.939,96.155 L258.676,99.771 C259.425,99.346 260.288,99.104 261.205,99.104 C264.088,99.104 266.429,101.495 266.429,104.441 C266.429,106.446 265.345,108.194 263.743,109.106 Z"/>
      <path fill="#5A6D83" d="M247.518,126.061 C248.252,123.344 249.557,121.535 251.042,121.535 C253.334,121.535 255.195,125.838 255.195,131.139 C255.195,134.563 254.419,137.571 253.251,139.272 C252.247,140.81 250.673,142.252 248.531,143.488 C240.463,148.147 227.362,148.147 219.294,143.488 C216.071,141.628 214.136,139.304 213.487,136.887 C212.971,135.286 212.665,133.3 212.665,131.151 C212.665,125.85 214.525,121.546 216.817,121.546 C218.298,121.546 219.599,123.344 220.334,126.047 C228.106,122.133 239.756,122.137 247.518,126.061 Z"/>
      <g transform="translate(212 120.545)">
        <mask id="policy-dark@1x-l" fill="#fff">
          <use xlink:href="#policy-dark@1x-k"/>
        </mask>
        <polygon fill="#FFF" fill-opacity=".1" points="24.385 29.219 38.968 29.219 38.968 -7.083 24.385 -7.083" mask="url(#policy-dark@1x-l)"/>
        <polygon fill="#FFF" fill-opacity=".1" points="15.305 29.219 18.912 29.219 18.912 -7.083 15.305 -7.083" mask="url(#policy-dark@1x-l)"/>
      </g>
      <path stroke="#01050C" stroke-linecap="round" stroke-linejoin="round" d="M247.518,126.061 C248.252,123.344 249.557,121.535 251.042,121.535 C253.334,121.535 255.195,125.838 255.195,131.139 C255.195,134.563 254.419,137.571 253.251,139.272 C252.247,140.81 250.673,142.252 248.531,143.488 C240.463,148.147 227.362,148.147 219.294,143.488 C216.071,141.628 214.136,139.304 213.487,136.887 C212.971,135.286 212.665,133.3 212.665,131.151 C212.665,125.85 214.525,121.546 216.817,121.546 C218.298,121.546 219.599,123.344 220.334,126.047 C228.106,122.133 239.756,122.137 247.518,126.061 Z"/>
      <path fill="#B1BBC9" d="M219.216,118.78 C227.268,114.131 240.221,114.061 248.124,118.624 C256.027,123.186 255.905,130.665 247.853,135.314 C239.801,139.963 226.847,140.033 218.945,135.47 C211.042,130.908 211.163,123.429 219.216,118.78 Z"/>
      <path stroke="#01050C" stroke-linecap="round" stroke-linejoin="round" d="M219.216,118.78 C227.268,114.131 240.221,114.061 248.124,118.624 C256.027,123.186 255.905,130.665 247.853,135.314 C239.801,139.963 226.847,140.033 218.945,135.47 C211.042,130.908 211.163,123.429 219.216,118.78 Z"/>
      <path fill="#5A6D83" d="M216.899,96.217 C216.797,93.624 218.458,91.011 221.882,89.034 C228.533,85.195 239.331,85.195 245.981,89.034 C249.405,91.011 251.066,93.624 250.964,96.217 L250.968,96.217 L250.968,123.528 L250.961,123.528 C251.093,126.142 249.433,128.78 245.981,130.773 C239.331,134.613 228.533,134.613 221.882,130.773 C218.43,128.78 216.77,126.142 216.902,123.528 L216.856,123.528 L216.856,96.217 L216.899,96.217 Z"/>
      <g transform="translate(216 85.545)">
        <mask id="policy-dark@1x-n" fill="#fff">
          <use xlink:href="#policy-dark@1x-m"/>
        </mask>
        <polygon fill="#FFF" fill-opacity=".1" points="20.385 53.302 31.853 53.302 31.853 17 20.385 17" mask="url(#policy-dark@1x-n)"/>
        <polygon fill="#FFF" fill-opacity=".1" points="14.305 53.302 17.912 53.302 17.912 17 14.305 17" mask="url(#policy-dark@1x-n)"/>
      </g>
      <path stroke="#01050C" stroke-linecap="round" stroke-linejoin="round" d="M216.899,96.217 C216.797,93.624 218.458,91.011 221.882,89.034 C228.533,85.195 239.331,85.195 245.981,89.034 C249.405,91.011 251.066,93.624 250.964,96.217 L250.968,96.217 L250.968,123.528 L250.961,123.528 C251.093,126.142 249.433,128.78 245.981,130.773 C239.331,134.613 228.533,134.613 221.882,130.773 C218.43,128.78 216.77,126.142 216.902,123.528 L216.856,123.528 L216.856,96.217 L216.899,96.217 Z"/>
      <path fill="#5A6D83" d="M247.518,93.136 C248.252,90.419 249.557,88.61 251.042,88.61 C253.334,88.61 255.195,92.913 255.195,98.214 C255.195,101.638 254.419,104.646 253.251,106.347 C252.247,107.885 250.673,109.326 248.531,110.563 C240.463,115.222 227.362,115.222 219.294,110.563 C216.071,108.703 214.136,106.379 213.487,103.962 C212.971,102.361 212.665,100.375 212.665,98.225 C212.665,92.924 214.525,88.621 216.817,88.621 C218.298,88.621 219.599,90.419 220.334,93.122 C228.106,89.207 239.756,89.212 247.518,93.136 Z"/>
      <g transform="translate(212 88.545)">
        <mask id="policy-dark@1x-p" fill="#fff">
          <use xlink:href="#policy-dark@1x-o"/>
        </mask>
        <polygon fill="#FFF" fill-opacity=".1" points="24.385 47.188 38.968 47.188 38.968 10.886 24.385 10.886" mask="url(#policy-dark@1x-p)"/>
        <polygon fill="#FFF" fill-opacity=".1" points="15.305 47.188 18.912 47.188 18.912 10.886 15.305 10.886" mask="url(#policy-dark@1x-p)"/>
      </g>
      <path stroke="#01050C" stroke-linecap="round" stroke-linejoin="round" d="M247.518,93.136 C248.252,90.419 249.557,88.61 251.042,88.61 C253.334,88.61 255.195,92.913 255.195,98.214 C255.195,101.638 254.419,104.646 253.251,106.347 C252.247,107.885 250.673,109.326 248.531,110.563 C240.463,115.222 227.362,115.222 219.294,110.563 C216.071,108.703 214.136,106.379 213.487,103.962 C212.971,102.361 212.665,100.375 212.665,98.225 C212.665,92.924 214.525,88.621 216.817,88.621 C218.298,88.621 219.599,90.419 220.334,93.122 C228.106,89.207 239.756,89.212 247.518,93.136 Z"/>
      <path fill="#B1BBC9" d="M219.216,85.855 C227.268,81.206 240.221,81.136 248.124,85.698 C256.027,90.261 255.905,97.74 247.853,102.389 C239.801,107.038 226.847,107.108 218.945,102.545 C211.042,97.983 211.163,90.504 219.216,85.855 Z"/>
      <path stroke="#01050C" stroke-linecap="round" stroke-linejoin="round" d="M219.216,85.855 C227.268,81.206 240.221,81.136 248.124,85.698 C256.027,90.261 255.905,97.74 247.853,102.389 C239.801,107.038 226.847,107.108 218.945,102.545 C211.042,97.983 211.163,90.504 219.216,85.855 Z"/>
      <path fill="#5A6D83" d="M225.956,87.532 C230.308,85.02 237.374,85.02 241.726,87.532 C246.077,90.045 246.077,94.124 241.726,96.637 C237.374,99.149 230.308,99.149 225.956,96.637 C221.604,94.124 221.604,90.045 225.956,87.532 Z"/>
      <path stroke="#01050C" stroke-linecap="round" stroke-linejoin="round" d="M225.956,87.532 C230.308,85.02 237.374,85.02 241.726,87.532 C246.077,90.045 246.077,94.124 241.726,96.637 C237.374,99.149 230.308,99.149 225.956,96.637 C221.604,94.124 221.604,90.045 225.956,87.532 Z"/>
      <path fill="#5A6D83" d="M451.041,268.345 C450.994,268.328 450.948,268.307 450.903,268.281 C450.608,268.115 450.425,267.802 450.425,267.463 C450.425,263.827 450.425,255.286 450.425,252.565 C450.425,252.038 450.699,251.549 451.148,251.272 C453.817,249.629 463.158,243.879 466.795,241.64 C467.092,241.457 467.464,241.45 467.768,241.619 C467.793,241.633 467.817,241.648 467.84,241.664 L467.842,241.662 L471.576,243.818 L468.261,249.071 L468.261,257.55 C468.261,258.031 468.009,258.477 467.598,258.726 L458.805,264.053 L454.626,270.674 L451.041,268.345 Z"/>
      <path stroke="#05122C" stroke-linecap="round" stroke-linejoin="round" d="M451.041,268.345 C450.994,268.328 450.948,268.307 450.903,268.281 C450.608,268.115 450.425,267.802 450.425,267.463 C450.425,263.827 450.425,255.286 450.425,252.565 C450.425,252.038 450.699,251.549 451.148,251.272 C453.817,249.629 463.158,243.879 466.795,241.64 C467.092,241.457 467.464,241.45 467.768,241.619 C467.793,241.633 467.817,241.648 467.84,241.664 L467.842,241.662 L471.576,243.818 L468.261,249.071 L468.261,257.55 C468.261,258.031 468.009,258.477 467.598,258.726 L458.805,264.053 L454.626,270.674 L451.041,268.345 Z"/>
      <path fill="#B1BBC9" d="M454.107,269.229 C454.107,269.703 454.362,270.139 454.775,270.372 C455.188,270.604 455.694,270.596 456.099,270.351 C459.941,268.024 468.24,262.996 471.016,261.314 C471.591,260.965 471.942,260.342 471.942,259.67 C471.942,256.888 471.942,249.438 471.942,245.571 C471.942,245.084 471.679,244.635 471.254,244.398 C470.829,244.161 470.309,244.172 469.895,244.427 C466.067,246.783 457.959,251.774 455.117,253.524 C454.489,253.91 454.107,254.594 454.107,255.331 C454.107,258.182 454.107,265.466 454.107,269.229 Z"/>
      <path stroke="#05122C" stroke-linecap="round" stroke-linejoin="round" d="M454.107,269.229 C454.107,269.703 454.362,270.139 454.775,270.372 C455.188,270.604 455.694,270.596 456.099,270.351 C459.941,268.024 468.24,262.996 471.016,261.314 C471.591,260.965 471.942,260.342 471.942,259.67 C471.942,256.888 471.942,249.438 471.942,245.571 C471.942,245.084 471.679,244.635 471.254,244.398 C470.829,244.161 470.309,244.172 469.895,244.427 C466.067,246.783 457.959,251.774 455.117,253.524 C454.489,253.91 454.107,254.594 454.107,255.331 C454.107,258.182 454.107,265.466 454.107,269.229 Z"/>
      <path fill="#5A6D83" d="M137.853,148.559 C135.801,147.351 132.712,147.211 130.954,148.246 C116.889,156.527 45.1574,195.734 45.1574,195.734 C45.1574,195.734 45.1443,199.177 45.1574,199.844 C45.173,200.637 45.7522,201.473 46.8659,202.128 C58.8199,209.166 96.207,231.178 108.161,238.216 C110.213,239.424 113.301,239.564 115.06,238.529 C129.125,230.248 184.851,197.438 198.916,189.157 C202.124,187.269 200.856,183.938 200.856,183.938 C200.856,183.938 149.807,155.597 137.853,148.559 Z"/>
      <path stroke="#01050C" stroke-linecap="round" stroke-linejoin="round" d="M137.853,148.559 C135.801,147.351 132.712,147.211 130.954,148.246 C116.889,156.527 45.1574,195.734 45.1574,195.734 C45.1574,195.734 45.1443,199.177 45.1574,199.844 C45.173,200.637 45.7522,201.473 46.8659,202.128 C58.8199,209.166 96.207,231.178 108.161,238.216 C110.213,239.424 113.301,239.564 115.06,238.529 C129.125,230.248 184.851,197.438 198.916,189.157 C202.124,187.269 200.856,183.938 200.856,183.938 C200.856,183.938 149.807,155.597 137.853,148.559 Z"/>
      <path fill="#B1BBC9" d="M137.853,144.108 C135.801,142.9 132.712,142.76 130.954,143.795 C116.889,152.076 60.3998,185.334 46.3348,193.615 C44.5765,194.651 44.8143,196.469 46.8659,197.677 C58.8199,204.715 96.207,226.727 108.161,233.765 C110.213,234.973 113.301,235.113 115.06,234.078 C129.125,225.797 185.614,192.538 199.679,184.257 C201.437,183.222 201.199,181.404 199.148,180.196 C187.194,173.158 149.807,151.146 137.853,144.108 Z"/>
      <path stroke="#01050C" stroke-linecap="round" stroke-linejoin="round" d="M137.853,144.108 C135.801,142.9 132.712,142.76 130.954,143.795 C116.889,152.076 60.3998,185.334 46.3348,193.615 C44.5765,194.651 44.8143,196.469 46.8659,197.677 C58.8199,204.715 96.207,226.727 108.161,233.765 C110.213,234.973 113.301,235.113 115.06,234.078 C129.125,225.797 185.614,192.538 199.679,184.257 C201.437,183.222 201.199,181.404 199.148,180.196 C187.194,173.158 149.807,151.146 137.853,144.108 Z"/>
      <path fill="#5A6D83" d="M138.055 152.063C137.094 151.497 135.125 151.739 133.656 152.604 121.91 159.519 74.7352 187.294 62.9893 194.21 61.5209 195.074 61.1094 196.234 62.0702 196.8 67.6683 200.095 85.1767 210.404 90.7747 213.7 91.7355 214.265 93.7047 214.023 95.1731 213.158 106.919 206.243 154.094 178.468 165.84 171.553 167.309 170.688 167.72 169.529 166.759 168.963 161.161 165.667 143.653 155.359 138.055 152.063zM150.805 188.408C150.355 188.143 149.56 188.182 149.028 188.495 144.777 190.998 127.704 201.05 123.453 203.553 122.921 203.866 122.855 204.334 123.305 204.599 125.927 206.143 134.126 210.97 136.748 212.513 137.198 212.778 137.993 212.739 138.525 212.426 142.776 209.924 159.849 199.871 164.1 197.369 164.632 197.056 164.698 196.587 164.248 196.322 161.626 194.779 153.427 189.952 150.805 188.408zM41.9085 191.049C41.1762 190.679 40.707 189.719 40.707 188.333L40.707 116.157C40.707 113.741 42.1324 110.944 43.8907 109.908 57.9557 101.627 114.445 68.369 128.51 60.088 129.219 59.67 129.874 59.603 130.403 59.83L130.415 59.823 134.291 61.816 131.694 65.622 131.694 134.764C131.694 137.18 130.268 139.978 128.51 141.013L47.7742 188.547 45.1516 192.388 42.126 191.139C42.0522 191.115 41.9806 191.085 41.9115 191.05L41.9085 191.049z"/>
      <path stroke="#01050C" stroke-linecap="round" stroke-linejoin="round" d="M41.9085,191.049 C41.1762,190.679 40.707,189.719 40.707,188.333 L40.707,116.157 C40.707,113.741 42.1324,110.944 43.8907,109.908 C57.9557,101.627 114.445,68.369 128.51,60.088 C129.219,59.67 129.874,59.603 130.403,59.83 L130.415,59.823 L134.291,61.816 L131.694,65.622 L131.694,134.764 C131.694,137.18 130.268,139.978 128.51,141.013 L47.7742,188.547 L45.1516,192.388 L42.126,191.139 C42.0522,191.115 41.9806,191.085 41.9115,191.05 L41.9085,191.049 Z"/>
      <path fill="#B1BBC9" d="M135.536,64.547 C135.536,62.131 134.11,61.012 132.352,62.047 C118.287,70.328 61.7978,103.586 47.7328,111.867 C45.9745,112.903 44.5491,115.7 44.5491,118.116 L44.5491,190.292 C44.5491,192.708 45.9745,193.828 47.7328,192.792 C61.7978,184.511 118.287,151.253 132.352,142.972 C134.11,141.937 135.536,139.139 135.536,136.723 L135.536,64.547 Z"/>
      <path stroke="#01050C" stroke-linecap="round" stroke-linejoin="round" d="M135.536,64.547 C135.536,62.131 134.11,61.012 132.352,62.047 C118.287,70.328 61.7978,103.586 47.7328,111.867 C45.9745,112.903 44.5491,115.7 44.5491,118.116 L44.5491,190.292 C44.5491,192.708 45.9745,193.828 47.7328,192.792 C61.7978,184.511 118.287,151.253 132.352,142.972 C134.11,141.937 135.536,139.139 135.536,136.723 L135.536,64.547 Z"/>
      <path fill="#112443" d="M129.77,72.515 C129.77,70.405 128.525,69.428 126.99,70.332 C114.707,77.563 65.3773,106.607 53.0948,113.838 C51.5594,114.742 50.3146,117.185 50.3146,119.295 L50.3146,182.324 C50.3146,184.434 51.5594,185.411 53.0948,184.507 C65.3773,177.276 114.707,148.232 126.99,141.001 C128.525,140.097 129.77,137.654 129.77,135.544 L129.77,72.515 Z"/>
      <path stroke="#01050C" stroke-linecap="round" stroke-linejoin="round" d="M129.77,72.515 C129.77,70.405 128.525,69.428 126.99,70.332 C114.707,77.563 65.3773,106.607 53.0948,113.838 C51.5594,114.742 50.3146,117.185 50.3146,119.295 L50.3146,182.324 C50.3146,184.434 51.5594,185.411 53.0948,184.507 C65.3773,177.276 114.707,148.232 126.99,141.001 C128.525,140.097 129.77,137.654 129.77,135.544 L129.77,72.515 Z"/>
      <path fill="#EFF4F7" d="M97.9019,99.863 C97.9019,98.161 97.2253,97.179 96.3906,97.67 C89.714,101.601 62.8989,117.389 56.2224,121.32 C55.3877,121.811 54.7111,123.59 54.7111,125.293 L54.7111,176.161 C54.7111,177.863 55.3877,178.845 56.2224,178.354 C62.8989,174.423 89.714,158.635 96.3906,154.704 C97.2253,154.213 97.9019,152.434 97.9019,150.732 L97.9019,99.863 Z"/>
      <path fill="#FFF" fill-opacity=".1" d="M121.431,80.384 C121.431,79.393 121.005,78.84 120.48,79.149 C116.279,81.622 99.4054,91.557 95.2042,94.03 C94.679,94.339 94.2533,95.394 94.2533,96.386 L94.2533,126.01 C94.2533,127.002 94.679,127.555 95.2042,127.246 C99.4054,124.772 116.279,114.838 120.48,112.364 C121.005,112.055 121.431,111.001 121.431,110.009 L121.431,80.384 Z"/>
      <polygon fill="#4D72EF" fill-opacity=".5" points="82.1 133.229 88.333 129.63 88.333 152.417 82.1 156.016"/>
      <polygon fill="#4D72EF" fill-opacity=".78" points="72.082 144.608 78.315 141.01 78.315 158.201 72.082 161.8"/>
      <polygon fill="#4D72EF" points="62.064 155.988 68.297 152.389 68.297 163.985 62.064 167.584"/>
      <line x1="94.19" x2="61.064" y1="108.598" y2="127.232" stroke="#5A6D83" stroke-linecap="round" stroke-linejoin="round"/>
      <line x1="114.627" x2="102.79" y1="92.307" y2="98.856" stroke="#5A6D83" stroke-linecap="round" stroke-linejoin="round"/>
      <line x1="123.553" x2="102.79" y1="82.389" y2="94.069" stroke="#5A6D83" stroke-linecap="round" stroke-linejoin="round"/>
      <line x1="86.975" x2="61.064" y1="119.781" y2="134.357" stroke="#5A6D83" stroke-linecap="round" stroke-linejoin="round"/>
      <line x1="78.056" x2="72.371" y1="131.986" y2="135.184" stroke="#5A6D83" stroke-linecap="round" stroke-linejoin="round"/>
      <line x1="66.362" x2="61.064" y1="138.564" y2="141.545" stroke="#5A6D83" stroke-linecap="round" stroke-linejoin="round"/>
      <path fill="#FFF" fill-opacity=".1" d="M35.5635,104.7 C35.5934,104.332 35.6087,103.968 35.6087,103.609 C35.6087,97.68 31.4402,95.274 26.3057,98.238 C21.7599,100.862 17.9713,106.823 17.1623,112.269 C15.4894,112.044 13.5193,112.494 11.4112,113.711 C5.3522,117.209 0.433,125.729 0.433,132.726 C0.433,139.722 5.3521,142.562 11.4112,139.064 L39.6032,122.787 C44.7377,119.823 48.9062,112.603 48.9062,106.674 C48.9062,100.745 44.7377,98.338 39.6032,101.303 C38.156,102.138 36.7855,103.312 35.5635,104.7 Z"/>
      <path stroke="#01050C" stroke-linecap="round" stroke-linejoin="round" stroke-opacity=".1" d="M35.5635,104.7 C35.5934,104.332 35.6087,103.968 35.6087,103.609 C35.6087,97.68 31.4402,95.274 26.3057,98.238 C21.7599,100.862 17.9713,106.823 17.1623,112.269 C15.4894,112.044 13.5193,112.494 11.4112,113.711 C5.3522,117.209 0.433,125.729 0.433,132.726 C0.433,139.722 5.3521,142.562 11.4112,139.064 L39.6032,122.787 C44.7377,119.823 48.9062,112.603 48.9062,106.674 C48.9062,100.745 44.7377,98.338 39.6032,101.303 C38.156,102.138 36.7855,103.312 35.5635,104.7 Z"/>
      <path fill="#FFF" d="M90.9935,180.597 C85.4421,180.597 80.9351,185.104 80.9351,190.656 C80.9351,196.207 85.4421,200.714 90.9935,200.714 C96.5449,200.714 101.052,196.207 101.052,190.656 C101.052,185.104 96.5449,180.597 90.9935,180.597 Z"/>
      <g transform="translate(80 180.545)">
        <mask id="policy-dark@1x-r" fill="#fff">
          <use xlink:href="#policy-dark@1x-q"/>
        </mask>
        <path fill="#EFF4F7" d="M3.8287,2.74 C2.0784,4.588 0.995,7.143 0.995,9.963 C0.995,15.596 5.318,20.169 10.6427,20.169 C11.7565,20.169 12.8265,19.969 13.8223,19.601 C7.8946,18.334 3.4256,12.787 3.4256,6.145 C3.4256,4.97 3.5655,3.829 3.8287,2.74 Z" mask="url(#policy-dark@1x-r)"/>
      </g>
      <path stroke="#01050C" stroke-linecap="round" stroke-linejoin="round" d="M90.9935,180.597 C85.4421,180.597 80.9351,185.104 80.9351,190.656 C80.9351,196.207 85.4421,200.714 90.9935,200.714 C96.5449,200.714 101.052,196.207 101.052,190.656 C101.052,185.104 96.5449,180.597 90.9935,180.597 Z"/>
      <path fill="#4D72EF" d="M122.265,207.574 C118.283,206.177 114.261,204.5 110.177,202.456 L95.7121,216.792 L107.692,222.725 L122.265,207.574 Z"/>
      <path stroke="#01050C" stroke-linecap="round" stroke-linejoin="round" d="M122.265,207.574 C118.283,206.177 114.261,204.5 110.177,202.456 L95.7121,216.792 L107.692,222.725 L122.265,207.574 Z"/>
      <path stroke="#FFF" stroke-linecap="round" stroke-linejoin="round" d="M115.607 210.059C113.652 209.589 111.352 208.441 109.654 207.288M113.615 212.508C113.066 212.367 112.502 212.207 111.684 211.734M109.654 210.823C108.813 210.488 108.182 209.983 107.522 209.501M111.535 215.171C109.822 214.698 106.479 212.656 105.641 211.873"/>
      <path fill="#FFF" d="M111.587,215.541 L105.174,223.006 C105.043,223.158 104.847,223.236 104.648,223.214 C104.449,223.192 104.274,223.074 104.179,222.898 C102.976,220.655 99.4557,214.092 97.3313,210.131 C96.2567,208.128 94.3987,206.661 92.2008,206.08 C91.2255,205.822 88.9869,205.23 86.4032,204.547 C83.5401,203.79 80.4877,204.454 78.1971,206.331 C75.9064,208.208 74.6559,211.07 74.8352,214.026 C75.4915,224.85 76.3278,238.642 76.3278,238.642 L77.6822,268.372 L76.3056,291.8277 C76.2819,292.0274 76.2698,292.2304 76.2698,292.4363 C76.2698,295.2794 78.5781,297.5877 81.4213,297.5877 C84.0989,297.5877 86.3022,295.5403 86.5495,292.9268 L86.5727,292.9279 L88.5407,268.957 L87.6101,248.878 C87.6101,248.878 91.2331,269.974 91.2331,269.974 L93.2513,293.0793 L93.2654,293.0787 C93.4612,295.7436 95.6882,297.8478 98.4027,297.8478 C101.246,297.8478 103.554,295.5395 103.554,292.6964 C103.554,292.5106 103.544,292.327 103.525,292.1463 L102.244,268.001 L98.8925,240.503 L97.626,226.787 C97.626,226.787 99.2585,228.72 100.847,230.601 C101.602,231.494 102.703,232.023 103.873,232.053 C105.043,232.083 106.169,231.611 106.969,230.757 L116.962,220.084 C117.059,219.992 117.15,219.894 117.236,219.791 L117.241,219.786 L117.241,219.785 C117.752,219.172 118.06,218.383 118.06,217.522 C118.06,215.569 116.474,213.983 114.52,213.983 C113.3,213.983 112.224,214.601 111.587,215.541 Z"/>
      <g transform="translate(74 203.545)">
        <mask id="policy-dark@1x-t" fill="#fff">
          <use xlink:href="#policy-dark@1x-s"/>
        </mask>
        <path fill="#EFF4F7" d="M14.7029 45.378C14.7029 45.378 16.8102 54.43 17.0767 55.575 17.0951 55.654 17.1125 55.733 17.1287 55.812 17.4236 57.254 20.2983 71.3036 20.5902 72.7302 20.6061 72.808 20.6208 72.886 20.6343 72.9643 20.8646 74.3051 22.9905 86.6794 22.9905 86.6794 22.9905 86.6794 22.9906 86.6798 22.9908 86.6807 23.2455 87.9637 24.1416 89.0259 25.3634 89.493 26.585 89.9602 27.961 89.7668 29.007 88.981 29.14 88.8809 29.216 88.8238 29.216 88.8238L30.024 94.0227 15.0027 94.6929 13.6746 79.6087C14.727 64.149 11.8538 48.838 14.7029 45.378zM7.6296 40.802L7.7961 52.482C7.7961 52.482 7.6566 70.211 7.6449 71.6907 7.6444 71.756 7.6431 71.8213 7.6408 71.8866 7.5963 73.1985 7.1193 87.2495 7.1193 87.2495 7.1193 87.2495 7.1157 87.5321 7.11 87.981 7.0945 89.2101 7.7344 90.3546 8.7897 90.9849 9.845 91.6152 11.156 91.636 12.2308 91.0396 12.231 91.0395 12.231 91.0395 12.231 91.0395L11.9579 96.83-1.4874 93.9793.2051 77.4198C1.8689 70.378-1.4874-7.546-1.4874-7.546L9.0339.796C9.0339.796 7.6926 2.172 6.4412 3.455 5.0966 4.834 4.4256 6.734 4.606 8.651 5.4078 17.178 7.6296 40.802 7.6296 40.802z" mask="url(#policy-dark@1x-t)"/>
      </g>
      <path stroke="#01050C" stroke-linecap="round" stroke-linejoin="round" d="M111.587,215.541 L105.174,223.006 C105.043,223.158 104.847,223.236 104.648,223.214 C104.449,223.192 104.274,223.074 104.179,222.898 C102.976,220.655 99.4557,214.092 97.3313,210.131 C96.2567,208.128 94.3987,206.661 92.2008,206.08 C91.2255,205.822 88.9869,205.23 86.4032,204.547 C83.5401,203.79 80.4877,204.454 78.1971,206.331 C75.9064,208.208 74.6559,211.07 74.8352,214.026 C75.4915,224.85 76.3278,238.642 76.3278,238.642 L77.6822,268.372 L76.3056,291.8277 C76.2819,292.0274 76.2698,292.2304 76.2698,292.4363 C76.2698,295.2794 78.5781,297.5877 81.4213,297.5877 C84.0989,297.5877 86.3022,295.5403 86.5495,292.9268 L86.5727,292.9279 L88.5407,268.957 L87.6101,248.878 C87.6101,248.878 91.2331,269.974 91.2331,269.974 L93.2513,293.0793 L93.2654,293.0787 C93.4612,295.7436 95.6882,297.8478 98.4027,297.8478 C101.246,297.8478 103.554,295.5395 103.554,292.6964 C103.554,292.5106 103.544,292.327 103.525,292.1463 L102.244,268.001 L98.8925,240.503 L97.626,226.787 C97.626,226.787 99.2585,228.72 100.847,230.601 C101.602,231.494 102.703,232.023 103.873,232.053 C105.043,232.083 106.169,231.611 106.969,230.757 L116.962,220.084 C117.059,219.992 117.15,219.894 117.236,219.791 L117.241,219.786 L117.241,219.785 C117.752,219.172 118.06,218.383 118.06,217.522 C118.06,215.569 116.474,213.983 114.52,213.983 C113.3,213.983 112.224,214.601 111.587,215.541 Z"/>
      <line x1="85.998" x2="87.61" y1="247.017" y2="248.878" stroke="#01050C" stroke-linecap="round" stroke-linejoin="round"/>
      <polyline stroke="#01050C" stroke-linecap="round" stroke-linejoin="round" points="98.088 227.526 94.15 221.378 91.87 219.01"/>
      <path fill="#5A6D83" d="M349.901,280.4912 C334.54,284.3063 314.618,280.8625 302.632,271.749 C289.012,261.394 290.764,247.614 306.542,240.997 C322.32,234.38 346.187,237.415 359.807,247.77 C371.793,256.883 371.874,268.649 360.967,275.8501 C360.967,275.8501 378.662,284.8138 386.84,291.0316 C387.771,291.7394 386.987,296.4179 386.84,297.5781 C386.692,298.7382 385.937,299.7316 384.858,300.1839 C384.236,300.4448 383.609,300.7078 383.008,300.9598 C380.541,301.9946 377.709,301.6345 375.579,300.015 C367.872,294.1555 349.901,280.4912 349.901,280.4912 Z M312.911,245.839 C324.617,240.929 342.325,243.181 352.43,250.864 C362.535,258.547 361.234,268.771 349.528,273.681 C337.822,278.5901 320.114,276.3383 310.009,268.655 C299.904,260.972 301.204,250.749 312.911,245.839 Z"/>
      <path stroke="#01050C" stroke-linecap="round" stroke-linejoin="round" d="M349.901,280.4912 C334.54,284.3063 314.618,280.8625 302.632,271.749 C289.012,261.394 290.764,247.614 306.542,240.997 C322.32,234.38 346.187,237.415 359.807,247.77 C371.793,256.883 371.874,268.649 360.967,275.8501 C360.967,275.8501 378.662,284.8138 386.84,291.0316 C387.771,291.7394 386.987,296.4179 386.84,297.5781 C386.692,298.7382 385.937,299.7316 384.858,300.1839 C384.236,300.4448 383.609,300.7078 383.008,300.9598 C380.541,301.9946 377.709,301.6345 375.579,300.015 C367.872,294.1555 349.901,280.4912 349.901,280.4912 Z M312.911,245.839 C324.617,240.929 342.325,243.181 352.43,250.864 C362.535,258.547 361.234,268.771 349.528,273.681 C337.822,278.5901 320.114,276.3383 310.009,268.655 C299.904,260.972 301.204,250.749 312.911,245.839 Z"/>
      <path fill="#B1BBC9" d="M350.658,274.539 C335.297,278.3542 315.375,274.9105 303.389,265.797 C289.769,255.442 291.521,241.662 307.299,235.045 C323.077,228.428 346.944,231.463 360.564,241.818 C372.55,250.931 372.631,262.697 361.724,269.898 C361.724,269.898 378.153,282.3895 386.33,288.6073 C387.261,289.3151 387.744,290.4659 387.596,291.626 C387.449,292.7862 386.694,293.7795 385.615,294.2318 C384.993,294.4927 384.366,294.7557 383.765,295.0077 C381.298,296.0426 378.465,295.6824 376.335,294.0629 C368.629,288.2034 350.658,274.539 350.658,274.539 Z M313.668,239.887 C325.374,234.977 343.082,237.229 353.186,244.912 C363.291,252.595 361.991,262.819 350.285,267.728 C338.579,272.638 320.871,270.386 310.766,262.703 C300.661,255.02 301.961,244.796 313.668,239.887 Z"/>
      <path stroke="#01050C" stroke-linecap="round" stroke-linejoin="round" d="M350.658,274.539 C335.297,278.3542 315.375,274.9105 303.389,265.797 C289.769,255.442 291.521,241.662 307.299,235.045 C323.077,228.428 346.944,231.463 360.564,241.818 C372.55,250.931 372.631,262.697 361.724,269.898 C361.724,269.898 378.153,282.3895 386.33,288.6073 C387.261,289.3151 387.744,290.4659 387.596,291.626 C387.449,292.7862 386.694,293.7795 385.615,294.2318 C384.993,294.4927 384.366,294.7557 383.765,295.0077 C381.298,296.0426 378.465,295.6824 376.335,294.0629 C368.629,288.2034 350.658,274.539 350.658,274.539 Z M313.668,239.887 C325.374,234.977 343.082,237.229 353.186,244.912 C363.291,252.595 361.991,262.819 350.285,267.728 C338.579,272.638 320.871,270.386 310.766,262.703 C300.661,255.02 301.961,244.796 313.668,239.887 Z"/>
      <path stroke="#000" stroke-linecap="round" stroke-linejoin="round" stroke-opacity=".8" d="M313.884,240.738 C325.399,235.908 342.818,238.124 352.758,245.681 C362.699,253.239 361.42,263.296 349.904,268.126 C338.389,272.955 320.97,270.74 311.03,263.182 C301.09,255.624 302.369,245.567 313.884,240.738 Z"/>
      <path fill="#4D72EF" d="M373.957,325.7589 C374.351,325.5313 374.594,325.1107 374.594,324.6555 C374.594,324.2003 374.351,323.7796 373.957,323.552 C367.948,320.0829 349.836,309.6262 349.836,309.6262 L326.384,309.6262 C326.384,309.6262 292.391,329.252 283.886,334.1625 C283.492,334.3901 283.249,334.8108 283.249,335.266 C283.249,335.7212 283.492,336.1418 283.886,336.3694 C290.47,340.171 312.14,352.6818 318.165,356.1607 C319.135,356.7205 320.33,356.7205 321.299,356.1607 C329.265,351.5616 365.232,330.7964 373.957,325.7589 Z"/>
      <g transform="translate(283 309.545)">
        <mask id="policy-dark@1x-v" fill="#fff">
          <use xlink:href="#policy-dark@1x-u"/>
        </mask>
        <path fill="#FFF" d="M57.714,-8.1924 L69.181,-1.5723 C69.181,-1.5723 58.689,4.4851 55.878,6.1078 C55.454,6.3527 54.931,6.3527 54.507,6.1078 C52.035,4.6806 43.726,-0.1164 43.726,-0.1164 L57.714,-8.1924 Z" mask="url(#policy-dark@1x-v)"/>
        <path stroke="#01050C" stroke-linecap="round" stroke-linejoin="round" d="M57.714,-8.1924 L69.181,-1.5723 C69.181,-1.5723 58.689,4.4851 55.878,6.1078 C55.454,6.3527 54.931,6.3527 54.507,6.1078 C52.035,4.6806 43.726,-0.1164 43.726,-0.1164 L57.714,-8.1924 Z" mask="url(#policy-dark@1x-v)"/>
      </g>
      <path stroke="#01050C" stroke-linecap="round" stroke-linejoin="round" d="M373.957,325.7589 C374.351,325.5313 374.594,325.1107 374.594,324.6555 C374.594,324.2003 374.351,323.7796 373.957,323.552 C367.948,320.0829 349.836,309.6262 349.836,309.6262 L326.384,309.6262 C326.384,309.6262 292.391,329.252 283.886,334.1625 C283.492,334.3901 283.249,334.8108 283.249,335.266 C283.249,335.7212 283.492,336.1418 283.886,336.3694 C290.47,340.171 312.14,352.6818 318.165,356.1607 C319.135,356.7205 320.33,356.7205 321.299,356.1607 C329.265,351.5616 365.232,330.7964 373.957,325.7589 Z"/>
      <line x1="344.618" x2="323.167" y1="333.346" y2="320.961" stroke="#FFF" stroke-linecap="round" stroke-linejoin="round"/>
      <line x1="330.97" x2="309.519" y1="341.225" y2="328.841" stroke="#FFF" stroke-linecap="round" stroke-linejoin="round"/>
      <line x1="323.891" x2="312.914" y1="345.312" y2="338.975" stroke="#FFF" stroke-linecap="round" stroke-linejoin="round"/>
      <line x1="308.779" x2="302.44" y1="336.587" y2="332.928" stroke="#FFF" stroke-linecap="round" stroke-linejoin="round"/>
      <line x1="351.913" x2="330.462" y1="329.134" y2="316.749" stroke="#FFF" stroke-linecap="round" stroke-linejoin="round"/>
      <line x1="337.324" x2="320.951" y1="337.557" y2="328.104" stroke="#FFF" stroke-linecap="round" stroke-linejoin="round"/>
      <path stroke="#4D72EF" stroke-dasharray="0 6 0 0" stroke-linecap="round" stroke-linejoin="round" stroke-width="2" d="M192.564 53.698L192.564 78.288C192.564 80.641 191.309 82.815 189.272 83.991 178.372 90.284 144.145 110.045 144.145 110.045M386.581 110.94L386.581 158.658C386.581 160.736 385.473 162.656 383.673 163.695 379.733 165.969 373.186 169.749 373.186 169.749"/>
      <path fill="#FFF" d="M457.7,240.683 C457.7,240.683 457.93,244.126 458.122,247 C458.189,248.007 458.659,248.945 459.426,249.601 C460.193,250.257 461.192,250.576 462.197,250.487 C462.292,250.479 462.386,250.47 462.48,250.462 C464.196,250.309 465.478,248.817 465.37,247.097 C465.162,243.81 464.864,239.08 464.864,239.08"/>
      <path stroke="#01050C" stroke-linecap="round" stroke-linejoin="round" d="M457.7,240.683 C457.7,240.683 457.93,244.126 458.122,247 C458.189,248.007 458.659,248.945 459.426,249.601 C460.193,250.257 461.192,250.576 462.197,250.487 C462.292,250.479 462.386,250.47 462.48,250.462 C464.196,250.309 465.478,248.817 465.37,247.097 C465.162,243.81 464.864,239.08 464.864,239.08"/>
      <path stroke="#01050C" stroke-linecap="round" stroke-linejoin="round" stroke-opacity=".5" d="M118.68,113.955 C118.68,113.566 118.473,113.207 118.136,113.013 C117.8,112.818 117.385,112.818 117.048,113.013 C113.744,114.92 106.355,119.186 103.694,120.723 C103.088,121.072 102.715,121.719 102.715,122.418 C102.715,124.513 102.715,129.029 102.715,131.711 C102.715,132.149 102.949,132.554 103.328,132.773 C103.707,132.992 104.175,132.992 104.554,132.773 C107.95,130.812 115.094,126.687 117.702,125.182 C118.307,124.832 118.68,124.186 118.68,123.487 C118.68,121.328 118.68,116.599 118.68,113.955 Z"/>
    </g>
    <g transform="translate(326 322)">
      <mask id="policy-dark@1x-x" fill="#fff">
        <use xlink:href="#policy-dark@1x-w"/>
      </mask>
      <use fill="#FFF" fill-opacity=".8" xlink:href="#policy-dark@1x-w"/>
      <path stroke="#000" stroke-linecap="round" stroke-linejoin="round" stroke-opacity=".8" d="M9.7234,7.2465 C21.2387,2.417 38.6578,4.632 48.5979,12.1898 C58.5381,19.7476 57.2592,29.8046 45.7439,34.6341 C34.2286,39.4636 16.8095,37.2485 6.8694,29.6907 C-3.0708,22.1329 -1.7919,12.076 9.7234,7.2465 Z" mask="url(#policy-dark@1x-x)"/>
      <polygon fill="#3F6C9F" fill-opacity=".2" points="26.009 .858 .849 40.9 14.655 44.869 39.815 4.827" mask="url(#policy-dark@1x-x)"/>
      <polygon fill="#3F6C9F" fill-opacity=".2" points="46.718 6.812 21.558 46.854 27.745 48.633 52.905 8.591" mask="url(#policy-dark@1x-x)"/>
    </g>
    <g transform="translate(125 216)">
      <path fill="#FFF" d="M15.9656,1.0883 C15.9656,0.6995 15.7581,0.3402 15.4214,0.1458 C15.0847,-0.0486 14.6698,-0.0486 14.3331,0.1458 C11.0295,2.0531 3.6404,6.3193 0.9789,7.8558 C0.3732,8.2056 -2.30926389e-13,8.8519 -2.30926389e-13,9.5514 C-2.30926389e-13,11.6464 -2.30926389e-13,16.1627 -2.30926389e-13,18.8444 C-2.30926389e-13,19.2824 0.2337,19.6872 0.6131,19.9062 C0.9924,20.1252 1.4598,20.1252 1.8391,19.9062 C5.2348,17.9457 12.3794,13.8208 14.9867,12.3155 C15.5924,11.9657 15.9656,11.3194 15.9656,10.6199 C15.9656,8.4614 15.9656,3.7327 15.9656,1.0883 Z"/>
      <mask id="policy-dark@1x-z" fill="#fff">
        <use xlink:href="#policy-dark@1x-y"/>
      </mask>
      <path stroke="#01050C" stroke-linecap="round" stroke-linejoin="round" d="M-2.30926389e-13,10.3243 C-2.30926389e-13,10.3243 6.5833,10.5709 8.4756,10.6418 C8.7902,10.6536 9.0901,10.5084 9.2759,10.2543 C10.6081,8.4325 15.9656,1.1066 15.9656,1.1066" mask="url(#policy-dark@1x-z)"/>
      <path stroke="#01050C" stroke-linecap="round" stroke-linejoin="round" d="M15.9656,1.0883 C15.9656,0.6995 15.7581,0.3402 15.4214,0.1458 C15.0847,-0.0486 14.6698,-0.0486 14.3331,0.1458 C11.0295,2.0531 3.6404,6.3193 0.9789,7.8558 C0.3732,8.2056 -2.30926389e-13,8.8519 -2.30926389e-13,9.5514 C-2.30926389e-13,11.6464 -2.30926389e-13,16.1627 -2.30926389e-13,18.8444 C-2.30926389e-13,19.2824 0.2337,19.6872 0.6131,19.9062 C0.9924,20.1252 1.4598,20.1252 1.8391,19.9062 C5.2348,17.9457 12.3794,13.8208 14.9867,12.3155 C15.5924,11.9657 15.9656,11.3194 15.9656,10.6199 C15.9656,8.4614 15.9656,3.7327 15.9656,1.0883 Z" mask="url(#policy-dark@1x-z)"/>
    </g>
    <g opacity=".6" transform="translate(125 200)">
      <path fill="#FFF" d="M15.9656,1.0883 C15.9656,0.6995 15.7581,0.3402 15.4214,0.1458 C15.0847,-0.0486 14.6698,-0.0486 14.3331,0.1458 C11.0295,2.0531 3.6404,6.3193 0.9789,7.8558 C0.3732,8.2056 -2.30926389e-13,8.8519 -2.30926389e-13,9.5514 C-2.30926389e-13,11.6464 -2.30926389e-13,16.1627 -2.30926389e-13,18.8444 C-2.30926389e-13,19.2824 0.2337,19.6872 0.6131,19.9062 C0.9924,20.1252 1.4598,20.1252 1.8391,19.9062 C5.2348,17.9457 12.3794,13.8208 14.9867,12.3155 C15.5924,11.9657 15.9656,11.3194 15.9656,10.6199 C15.9656,8.4614 15.9656,3.7327 15.9656,1.0883 Z"/>
      <mask id="policy-dark@1x-B" fill="#fff">
        <use xlink:href="#policy-dark@1x-A"/>
      </mask>
      <path stroke="#01050C" stroke-linecap="round" stroke-linejoin="round" d="M-2.30926389e-13,10.3243 C-2.30926389e-13,10.3243 6.5833,10.5709 8.4756,10.6418 C8.7902,10.6536 9.0901,10.5084 9.2759,10.2543 C10.6081,8.4325 15.9656,1.1066 15.9656,1.1066" mask="url(#policy-dark@1x-B)"/>
      <path stroke="#01050C" stroke-linecap="round" stroke-linejoin="round" d="M15.9656,1.0883 C15.9656,0.6995 15.7581,0.3402 15.4214,0.1458 C15.0847,-0.0486 14.6698,-0.0486 14.3331,0.1458 C11.0295,2.0531 3.6404,6.3193 0.9789,7.8558 C0.3732,8.2056 -2.30926389e-13,8.8519 -2.30926389e-13,9.5514 C-2.30926389e-13,11.6464 -2.30926389e-13,16.1627 -2.30926389e-13,18.8444 C-2.30926389e-13,19.2824 0.2337,19.6872 0.6131,19.9062 C0.9924,20.1252 1.4598,20.1252 1.8391,19.9062 C5.2348,17.9457 12.3794,13.8208 14.9867,12.3155 C15.5924,11.9657 15.9656,11.3194 15.9656,10.6199 C15.9656,8.4614 15.9656,3.7327 15.9656,1.0883 Z" mask="url(#policy-dark@1x-B)"/>
    </g>
    <g opacity=".2" transform="translate(125 184)">
      <path fill="#FFF" d="M15.9656,1.0883 C15.9656,0.6995 15.7581,0.3402 15.4214,0.1458 C15.0847,-0.0486 14.6698,-0.0486 14.3331,0.1458 C11.0295,2.0531 3.6404,6.3193 0.9789,7.8558 C0.3732,8.2056 -2.30926389e-13,8.8519 -2.30926389e-13,9.5514 C-2.30926389e-13,11.6464 -2.30926389e-13,16.1627 -2.30926389e-13,18.8444 C-2.30926389e-13,19.2824 0.2337,19.6872 0.6131,19.9062 C0.9924,20.1252 1.4598,20.1252 1.8391,19.9062 C5.2348,17.9457 12.3794,13.8208 14.9867,12.3155 C15.5924,11.9657 15.9656,11.3194 15.9656,10.6199 C15.9656,8.4614 15.9656,3.7327 15.9656,1.0883 Z"/>
      <mask id="policy-dark@1x-D" fill="#fff">
        <use xlink:href="#policy-dark@1x-C"/>
      </mask>
      <path stroke="#01050C" stroke-linecap="round" stroke-linejoin="round" d="M-2.30926389e-13,10.3243 C-2.30926389e-13,10.3243 6.5833,10.5709 8.4756,10.6418 C8.7902,10.6536 9.0901,10.5084 9.2759,10.2543 C10.6081,8.4325 15.9656,1.1066 15.9656,1.1066" mask="url(#policy-dark@1x-D)"/>
      <path stroke="#01050C" stroke-linecap="round" stroke-linejoin="round" d="M15.9656,1.0883 C15.9656,0.6995 15.7581,0.3402 15.4214,0.1458 C15.0847,-0.0486 14.6698,-0.0486 14.3331,0.1458 C11.0295,2.0531 3.6404,6.3193 0.9789,7.8558 C0.3732,8.2056 -2.30926389e-13,8.8519 -2.30926389e-13,9.5514 C-2.30926389e-13,11.6464 -2.30926389e-13,16.1627 -2.30926389e-13,18.8444 C-2.30926389e-13,19.2824 0.2337,19.6872 0.6131,19.9062 C0.9924,20.1252 1.4598,20.1252 1.8391,19.9062 C5.2348,17.9457 12.3794,13.8208 14.9867,12.3155 C15.5924,11.9657 15.9656,11.3194 15.9656,10.6199 C15.9656,8.4614 15.9656,3.7327 15.9656,1.0883 Z" mask="url(#policy-dark@1x-D)"/>
    </g>
  </g>
</svg>
