<svg xmlns="http://www.w3.org/2000/svg" xmlns:xlink="http://www.w3.org/1999/xlink" width="335" height="335" viewBox="0 0 335 335">
  <defs>
    <path id="privilege-escalation@1x-a" d="M0.135,28.14 C0.135,27.461 0.602,26.81 1.433,26.33 C10.434,21.131 36.298,6.191 45.299,0.991 C46.13,0.511 47.257,0.242 48.432,0.242 C49.607,0.242 50.734,0.511 51.565,0.991 C60.567,6.191 86.43,21.131 95.432,26.33 C96.263,26.81 96.729,27.461 96.729,28.14 L96.729,157.1414 C96.729,157.8202 96.263,158.4713 95.432,158.9513 C86.43,164.1506 60.567,179.0903 51.565,184.2897 C50.734,184.7697 49.607,185.0394 48.432,185.0394 C47.257,185.0394 46.13,184.7697 45.299,184.2897 C36.298,179.0903 10.434,164.1506 1.433,158.9513 C0.602,158.4714 0.135,157.8206 0.135,157.1414 L0.135,28.14 Z"/>
    <path id="privilege-escalation@1x-c" d="M23.915,0.986 C22.43,0.128 20.599,0.128 19.113,0.986 C14.673,3.549 5.279,8.973 1.393,11.216 C1.035,11.423 0.814,11.806 0.814,12.22 C0.814,12.634 1.035,13.016 1.393,13.223 C5.279,15.467 14.673,20.891 19.113,23.454 C20.599,24.312 22.43,24.312 23.915,23.454 C28.031,21.078 36.405,16.243 40.7,13.763 C41.252,13.445 41.592,12.856 41.592,12.22 C41.592,11.583 41.252,10.995 40.7,10.676 C36.405,8.196 28.031,3.362 23.915,0.986 Z"/>
    <path id="privilege-escalation@1x-e" d="M7.9119,9.974 L23.135,1.185 C25.1663,0.012 27.6689,0.012 29.7002,1.185 L58.0292,17.54 L72.62,20.474 L72.62,27.3546 C72.648,27.5281 72.663,27.7051 72.663,27.8842 C72.663,29.0569 72.037,30.1406 71.021,30.727 C65.074,34.1608 55.2347,39.8414 50.1409,42.7823 C48.1097,43.955 45.607,43.955 43.5758,42.7823 C34.1264,37.3267 13.4953,25.415 2.2546,18.926 C1.2815,18.364 0.6664,17.345 0.6167,16.229 L0.6019,16.227 L0.6019,8.504 L7.9119,9.974 Z"/>
    <path id="privilege-escalation@1x-g" d="M7.4472,9.8817 L22.6703,1.0927 C24.7016,-0.0801 27.2042,-0.0801 29.2355,1.0927 L57.5645,17.4484 L72.1549,20.3824 L72.1549,27.2626 C72.1833,27.4361 72.1979,27.6131 72.1979,27.7922 C72.1979,28.965 71.5723,30.0487 70.5566,30.635 C64.6091,34.0688 54.77,39.7495 49.6762,42.6904 C47.645,43.8631 45.1423,43.8631 43.1111,42.6904 C33.6617,37.2348 13.0306,25.3234 1.7899,18.8336 C0.8168,18.2717 0.2017,17.2534 0.152,16.1376 L0.1372,16.1346 L0.1372,8.4118 L7.4472,9.8817 Z"/>
    <path id="privilege-escalation@1x-i" d="M7.3766,10.066 L22.5997,1.277 C24.631,0.104 27.1336,0.104 29.165,1.277 L57.494,17.632 L72.084,20.566 L72.084,27.446 C72.113,27.62 72.127,27.797 72.127,27.976 C72.127,29.149 71.502,30.233 70.486,30.819 C64.539,34.253 54.699,39.933 49.606,42.874 C47.574,44.047 45.072,44.047 43.04,42.874 C33.591,37.419 12.96,25.507 1.7193,19.017 C0.7462,18.456 0.1311,17.437 0.0814,16.321 L0.0666,16.318 L0.0666,8.596 L7.3766,10.066 Z"/>
  </defs>
  <g fill="none" fill-rule="evenodd">
    <g transform="translate(50 32)">
      <path fill="#EFF4F7" d="M164.422,144.449 C162.566,143.377 160.279,143.377 158.422,144.449 C146.701,151.216 103.955,175.8955 89.9171,184.0001 C88.9889,184.536 88.4171,185.5263 88.4171,186.5981 C88.4171,187.6699 88.9889,188.6603 89.9171,189.1962 C104.165,197.4225 148.048,222.7584 159.942,229.6253 C161.799,230.6971 164.086,230.6971 165.942,229.6254 C177.663,222.8582 220.41,198.1784 234.448,190.0739 C235.376,189.538 235.948,188.5476 235.948,187.4758 C235.948,186.404 235.376,185.4136 234.448,184.8777 C220.199,176.6514 176.316,151.316 164.422,144.449 Z"/>
      <path fill="#5A6D83" fill-opacity=".2" d="M156.531,215.4715 C156.531,215.4715 166.038,215.6309 171.652,215.725 C174.282,215.7691 176.871,215.0807 179.132,213.7367 C187.543,208.7359 209.079,195.9324 218.592,190.2764 C219.56,189.7008 220.152,188.6563 220.14802,187.53 C220.144,186.4037 219.545,185.3633 218.573,184.7944 C209.339,179.3898 189.59,167.831 189.59,167.831 L156.531,173.9762 L156.531,215.4715 Z"/>
      <path fill="#3F6C9F" fill-opacity=".1" d="M105.985 194.705C107.841 193.6332 110.128 193.6332 111.985 194.705 118.123 198.2489 132.145 206.3447 139.378 210.5209 140.307 211.0568 140.878 212.0471 140.878 213.1189 140.878 214.1907 140.307 215.1811 139.378 215.717 135.416 218.0048 129.756 221.2725 126.322 223.2551 124.466 224.3269 122.178 224.3269 120.322 223.2551 114.184 219.7112 100.162 211.6154 92.9283 207.4393 92 206.9034 91.4283 205.913 91.4283 204.8412 91.4283 203.7694 92 202.779 92.9283 202.2431 96.8908 199.9553 102.551 196.6876 105.985 194.705zM77.6366 211.1725C79.493 210.1007 81.7802 210.1007 83.6366 211.1725 90.4118 215.0842 106.928 224.62 114.936 229.2432 115.864 229.7791 116.436 230.7695 116.436 231.8413 116.436 232.9131 115.864 233.9034 114.936 234.4393 110.391 237.0636 103.497 241.0437 99.579 243.3057 97.722 244.3775 95.4352 244.3775 93.5788 243.3057 86.8036 239.3941 70.287 229.8582 62.2795 225.2351 61.3513 224.6992 60.7795 223.7088 60.7795 222.637 60.7795 221.5652 61.3513 220.5748 62.2795 220.0389 66.8248 217.4147 73.7185 213.4346 77.6366 211.1725zM30.7231 226.675C32.5795 225.6033 34.8667 225.6033 36.7231 226.675 45.4101 231.6905 70.6222 246.2467 80.9576 252.2138 81.8858 252.7497 82.4575 253.7401 82.4575 254.8119 82.4575 255.8837 81.8857 256.8741 80.9575 257.41 74.651 261.0511 63.3547 267.573 57.9802 270.6759 56.1238 271.7477 53.8366 271.7477 51.9802 270.676 43.2932 265.6605 18.0811 251.1043 7.7457 245.1372 6.8175 244.6013 6.2458 243.6109 6.2458 242.5391 6.2458 241.4673 6.8176 240.4769 7.7458 239.941 14.0523 236.2999 25.3486 229.778 30.7231 226.675z"/>
      <path fill="#FFF" d="M109.135,58.548 C109.135,57.869 109.602,57.218 110.433,56.738 C119.434,51.539 145.298,36.599 154.299,31.399 C155.13,30.919 156.257,30.65 157.432,30.65 C158.607,30.65 159.734,30.919 160.565,31.399 C169.567,36.599 195.43,51.539 204.432,56.738 C205.263,57.218 205.729,57.869 205.729,58.548 L205.729,187.5494 C205.729,188.2282 205.263,188.8793 204.432,189.3593 C195.43,194.5586 169.567,209.4983 160.565,214.6977 C159.734,215.1777 158.607,215.4474 157.432,215.4474 C156.257,215.4474 155.13,215.1777 154.299,214.6977 C145.298,209.4983 119.434,194.5586 110.433,189.3593 C109.602,188.8794 109.135,188.2286 109.135,187.5494 L109.135,58.548 Z"/>
      <g transform="translate(109 30.408)">
        <mask id="privilege-escalation@1x-b" fill="#fff">
          <use xlink:href="#privilege-escalation@1x-a"/>
        </mask>
        <polygon fill="#EFF4F7" points="97.174 -19.353 48.432 7.143 48.432 194.632 97.174 168.136" mask="url(#privilege-escalation@1x-b)"/>
        <path stroke="#01050C" stroke-linecap="round" stroke-linejoin="round" d="M96.7,59.998 C96.7,60.677 96.233,61.328 95.402,61.808 C86.401,67.008 60.537,81.947 51.536,87.147 C50.705,87.627 49.577,87.896 48.402,87.896 C47.227,87.896 46.1,87.627 45.269,87.147 C36.268,81.947 10.404,67.008 1.403,61.808 C0.572,61.328 0.105,60.677 0.105,59.998" mask="url(#privilege-escalation@1x-b)"/>
        <path fill="#01050C" d="M86.581 78.435C87.542 77.881 88.322 78.331 88.322 79.441 88.322 80.55 87.542 81.902 86.581 82.456 85.62 83.011 84.84 82.561 84.84 81.451 84.84 80.342 85.62 78.99 86.581 78.435zM24.548 87.244C23.587 86.689 22.806 87.14 22.806 88.249 22.806 89.359 23.587 90.71 24.548 91.265 25.508 91.82 26.289 91.369 26.289 90.26 26.289 89.15 25.508 87.799 24.548 87.244zM16.721 82.725C15.76 82.171 14.98 82.621 14.98 83.731 14.98 84.84 15.76 86.192 16.721 86.746 17.682 87.301 18.462 86.851 18.462 85.741 18.462 84.632 17.682 83.28 16.721 82.725zM8.894 78.207C7.934 77.652 7.153 78.102 7.153 79.212 7.153 80.322 7.934 81.673 8.894 82.228 9.855 82.783 10.636 82.332 10.636 81.223 10.636 80.113 9.855 78.762 8.894 78.207z" mask="url(#privilege-escalation@1x-b)"/>
        <line x1="58.526" x2="80.519" y1="96.038" y2="83.341" stroke="#01050C" stroke-linecap="round" stroke-linejoin="round" mask="url(#privilege-escalation@1x-b)"/>
        <path stroke="#01050C" stroke-linecap="round" stroke-linejoin="round" d="M96.7,92.252 C96.7,92.931 96.233,93.582 95.402,94.062 C86.401,99.262 60.537,114.201 51.536,119.401 C50.705,119.881 49.577,120.15 48.402,120.15 C47.227,120.15 46.1,119.881 45.269,119.401 C36.268,114.201 10.404,99.262 1.403,94.062 C0.572,93.582 0.105,92.931 0.105,92.252" mask="url(#privilege-escalation@1x-b)"/>
        <path fill="#01050C" d="M86.581 110.69C87.542 110.135 88.322 110.585 88.322 111.695 88.322 112.804 87.542 114.156 86.581 114.711 85.62 115.265 84.84 114.815 84.84 113.705 84.84 112.596 85.62 111.244 86.581 110.69zM24.548 119.498C23.587 118.943 22.806 119.394 22.806 120.503 22.806 121.613 23.587 122.964 24.548 123.519 25.508 124.074 26.289 123.624 26.289 122.514 26.289 121.404 25.508 120.053 24.548 119.498zM16.721 114.979C15.76 114.425 14.98 114.875 14.98 115.985 14.98 117.094 15.76 118.446 16.721 119.001 17.682 119.555 18.462 119.105 18.462 117.995 18.462 116.886 17.682 115.534 16.721 114.979zM8.894 110.461C7.934 109.906 7.153 110.356 7.153 111.466 7.153 112.576 7.934 113.927 8.894 114.482 9.855 115.037 10.636 114.586 10.636 113.477 10.636 112.367 9.855 111.016 8.894 110.461z" mask="url(#privilege-escalation@1x-b)"/>
        <line x1="58.526" x2="80.519" y1="128.292" y2="115.595" stroke="#01050C" stroke-linecap="round" stroke-linejoin="round" mask="url(#privilege-escalation@1x-b)"/>
        <path stroke="#01050C" stroke-linecap="round" stroke-linejoin="round" d="M96.7,122.89 C96.7,123.569 96.233,124.22 95.402,124.7 C86.401,129.899 60.537,144.8388 51.536,150.0382 C50.705,150.5182 49.577,150.7879 48.402,150.7879 C47.227,150.7879 46.1,150.5182 45.269,150.0382 C36.268,144.8388 10.404,129.899 1.403,124.7 C0.572,124.22 0.105,123.569 0.105,122.89" mask="url(#privilege-escalation@1x-b)"/>
        <path stroke="#01050C" stroke-linecap="round" stroke-linejoin="round" d="M96.7,149.1796 C96.7,149.8585 96.233,150.5095 95.402,150.9895 C86.401,156.1889 60.537,171.1286 51.536,176.3279 C50.705,176.8079 49.577,177.0776 48.402,177.0776 C47.227,177.0776 46.1,176.8079 45.269,176.3279 C36.268,171.1286 10.404,156.1889 1.403,150.9895 C0.572,150.5095 0.105,149.8585 0.105,149.1796" mask="url(#privilege-escalation@1x-b)"/>
        <path fill="#01050C" d="M86.581 141.327C87.542 140.772 88.322 141.223 88.322 142.3323 88.322 143.4419 87.542 144.7932 86.581 145.3481 85.62 145.9029 84.84 145.4524 84.84 144.3428 84.84 143.2332 85.62 141.882 86.581 141.327zM24.548 150.1356C23.587 149.5808 22.806 150.0312 22.806 151.1409 22.806 152.2505 23.587 153.6018 24.548 154.1567 25.508 154.7115 26.289 154.261 26.289 153.1514 26.289 152.0417 25.508 150.6904 24.548 150.1356zM16.721 145.6169C15.76 145.0621 14.98 145.5126 14.98 146.6222 14.98 147.7319 15.76 149.0832 16.721 149.638 17.682 150.1928 18.462 149.7424 18.462 148.6327 18.462 147.5231 17.682 146.1718 16.721 145.6169zM8.894 141.098C7.934 140.543 7.153 140.994 7.153 142.1036 7.153 143.2132 7.934 144.5645 8.894 145.1194 9.855 145.6742 10.636 145.2237 10.636 144.1141 10.636 143.0045 9.855 141.653 8.894 141.098z" mask="url(#privilege-escalation@1x-b)"/>
        <line x1="58.526" x2="80.519" y1="158.93" y2="146.232" stroke="#01050C" stroke-linecap="round" stroke-linejoin="round" mask="url(#privilege-escalation@1x-b)"/>
        <path fill="#FFF" d="M51.565,0.991 C50.734,0.511 49.607,0.242 48.432,0.242 C47.257,0.242 46.13,0.511 45.299,0.991 C36.298,6.191 10.434,21.131 1.433,26.33 C0.602,26.81 0.135,27.461 0.135,28.14 C0.135,28.819 0.602,29.47 1.433,29.95 C10.434,35.149 36.298,50.089 45.299,55.288 C46.13,55.768 47.257,56.038 48.432,56.038 C49.607,56.038 50.734,55.768 51.565,55.288 C60.567,50.089 86.43,35.149 95.432,29.95 C96.263,29.47 96.729,28.819 96.729,28.14 C96.729,27.461 96.263,26.81 95.432,26.33 C86.43,21.131 60.567,6.191 51.565,0.991 Z" mask="url(#privilege-escalation@1x-b)"/>
        <path stroke="#01050C" stroke-linecap="round" stroke-linejoin="round" d="M51.565,0.991 C50.734,0.511 49.607,0.242 48.432,0.242 C47.257,0.242 46.13,0.511 45.299,0.991 C36.298,6.191 10.434,21.131 1.433,26.33 C0.602,26.81 0.135,27.461 0.135,28.14 C0.135,28.819 0.602,29.47 1.433,29.95 C10.434,35.149 36.298,50.089 45.299,55.288 C46.13,55.768 47.257,56.038 48.432,56.038 C49.607,56.038 50.734,55.768 51.565,55.288 C60.567,50.089 86.43,35.149 95.432,29.95 C96.263,29.47 96.729,28.819 96.729,28.14 C96.729,27.461 96.263,26.81 95.432,26.33 C86.43,21.131 60.567,6.191 51.565,0.991 Z" mask="url(#privilege-escalation@1x-b)"/>
      </g>
      <path stroke="#01050C" stroke-linecap="round" stroke-linejoin="round" d="M109.135,58.548 C109.135,57.869 109.602,57.218 110.433,56.738 C119.434,51.539 145.298,36.599 154.299,31.399 C155.13,30.919 156.257,30.65 157.432,30.65 C158.607,30.65 159.734,30.919 160.565,31.399 C169.567,36.599 195.43,51.539 204.432,56.738 C205.263,57.218 205.729,57.869 205.729,58.548 L205.729,187.5494 C205.729,188.2282 205.263,188.8793 204.432,189.3593 C195.43,194.5586 169.567,209.4983 160.565,214.6977 C159.734,215.1777 158.607,215.4474 157.432,215.4474 C156.257,215.4474 155.13,215.1777 154.299,214.6977 C145.298,209.4983 119.434,194.5586 110.433,189.3593 C109.602,188.8794 109.135,188.2286 109.135,187.5494 L109.135,58.548 Z"/>
      <path fill="#5A6D83" d="M160.915,45.394 C159.43,44.536 157.599,44.536 156.113,45.394 C151.673,47.957 142.279,53.381 138.393,55.624 C138.035,55.831 137.814,56.214 137.814,56.628 C137.814,57.042 138.035,57.424 138.393,57.631 C142.279,59.875 151.673,65.299 156.113,67.862 C157.599,68.72 159.43,68.72 160.915,67.862 C165.031,65.486 173.405,60.651 177.7,58.171 C178.252,57.853 178.592,57.264 178.592,56.628 C178.592,55.991 178.252,55.403 177.7,55.084 C173.405,52.604 165.031,47.77 160.915,45.394 Z"/>
      <g transform="translate(137 44.408)">
        <mask id="privilege-escalation@1x-d" fill="#fff">
          <use xlink:href="#privilege-escalation@1x-c"/>
        </mask>
        <polygon fill="#01050C" points="-6.98 33.133 21.398 33.133 21.398 -11.655 -6.98 -11.655" mask="url(#privilege-escalation@1x-d)"/>
      </g>
      <path stroke="#01050C" stroke-linecap="round" stroke-linejoin="round" d="M160.915,45.394 C159.43,44.536 157.599,44.536 156.113,45.394 C151.673,47.957 142.279,53.381 138.393,55.624 C138.035,55.831 137.814,56.214 137.814,56.628 C137.814,57.042 138.035,57.424 138.393,57.631 C142.279,59.875 151.673,65.299 156.113,67.862 C157.599,68.72 159.43,68.72 160.915,67.862 C165.031,65.486 173.405,60.651 177.7,58.171 C178.252,57.853 178.592,57.264 178.592,56.628 C178.592,55.991 178.252,55.403 177.7,55.084 C173.405,52.604 165.031,47.77 160.915,45.394 Z"/>
      <path fill="#01050C" d="M133.548 86.391C132.587 85.836 131.806 86.287 131.806 87.396 131.806 88.506 132.587 89.857 133.548 90.412 134.508 90.967 135.289 90.517 135.289 89.407 135.289 88.297 134.508 86.946 133.548 86.391zM125.721 81.872C124.76 81.318 123.98 81.768 123.98 82.878 123.98 83.987 124.76 85.339 125.721 85.893 126.682 86.448 127.462 85.998 127.462 84.888 127.462 83.779 126.682 82.427 125.721 81.872zM117.894 77.354C116.934 76.799 116.153 77.249 116.153 78.359 116.153 79.469 116.934 80.82 117.894 81.375 118.855 81.93 119.636 81.479 119.636 80.37 119.636 79.26 118.855 77.909 117.894 77.354zM195.581 77.766C196.542 77.211 197.322 77.662 197.322 78.771 197.322 79.881 196.542 81.232 195.581 81.787 194.62 82.342 193.84 81.892 193.84 80.782 193.84 79.672 194.62 78.321 195.581 77.766z"/>
      <line x1="167.526" x2="189.519" y1="96.5" y2="83.803" stroke="#01050C" stroke-linecap="round" stroke-linejoin="round"/>
      <path fill="#EFF4F7" d="M41.9119,156.382 L57.135,147.593 C59.1663,146.42 61.6689,146.42 63.7002,147.593 L92.0292,163.948 L106.62,166.882 L106.62,173.7626 C106.648,173.9361 106.663,174.1131 106.663,174.2922 C106.663,175.4649 106.037,176.5486 105.021,177.135 C99.074,180.5688 89.2347,186.2494 84.1409,189.1903 C82.1097,190.363 79.607,190.363 77.5758,189.1903 C68.1264,183.7347 47.4953,171.823 36.2546,165.334 C35.2815,164.772 34.6664,163.753 34.6167,162.637 L34.6019,162.635 L34.6019,154.912 L41.9119,156.382 Z"/>
      <g transform="translate(34 146.408)">
        <mask id="privilege-escalation@1x-f" fill="#fff">
          <use xlink:href="#privilege-escalation@1x-e"/>
        </mask>
        <polygon fill="#D1D9E0" points="75.068 -19.419 46.674 -3.026 46.674 58.407 75.068 42.014" mask="url(#privilege-escalation@1x-f)"/>
      </g>
      <path stroke="#01050C" stroke-linecap="round" stroke-linejoin="round" d="M41.9119,156.382 L57.135,147.593 C59.1663,146.42 61.6689,146.42 63.7002,147.593 L92.0292,163.948 L106.62,166.882 L106.62,173.7626 C106.648,173.9361 106.663,174.1131 106.663,174.2922 C106.663,175.4649 106.037,176.5486 105.021,177.135 C99.074,180.5688 89.2347,186.2494 84.1409,189.1903 C82.1097,190.363 79.607,190.363 77.5758,189.1903 C68.1264,183.7347 47.4953,171.823 36.2546,165.334 C35.2815,164.772 34.6664,163.753 34.6167,162.637 L34.6019,162.635 L34.6019,154.912 L41.9119,156.382 Z"/>
      <path fill="#FFF" d="M57.4176,139.749 C59.274,138.677 61.5612,138.677 63.4176,139.749 C71.775,144.574 95.3582,158.19 105.292,163.925 C106.22,164.461 106.792,165.451 106.792,166.523 C106.792,167.595 106.22,168.585 105.292,169.121 C99.29,172.5863 88.828,178.6266 83.705,181.5844 C81.8486,182.6562 79.5614,182.6562 77.705,181.5844 C69.3475,176.7592 45.7643,163.143 35.8307,157.408 C34.9025,156.872 34.3307,155.882 34.3307,154.81 C34.3307,153.738 34.9025,152.748 35.8307,152.212 C41.8325,148.747 52.2945,142.707 57.4176,139.749 Z"/>
      <path stroke="#01050C" stroke-linecap="round" stroke-linejoin="round" d="M57.4176,139.749 C59.274,138.677 61.5612,138.677 63.4176,139.749 C71.775,144.574 95.3582,158.19 105.292,163.925 C106.22,164.461 106.792,165.451 106.792,166.523 C106.792,167.595 106.22,168.585 105.292,169.121 C99.29,172.5863 88.828,178.6266 83.705,181.5844 C81.8486,182.6562 79.5614,182.6562 77.705,181.5844 C69.3475,176.7592 45.7643,163.143 35.8307,157.408 C34.9025,156.872 34.3307,155.882 34.3307,154.81 C34.3307,153.738 34.9025,152.748 35.8307,152.212 C41.8325,148.747 52.2945,142.707 57.4176,139.749 Z"/>
      <path fill="#EFF4F7" d="M8.4472,204.2897 L23.6703,195.5007 C25.7016,194.3279 28.2042,194.3279 30.2355,195.5007 L58.5645,211.8564 L73.1549,214.7904 L73.1549,221.6706 C73.1833,221.8441 73.1979,222.0211 73.1979,222.2002 C73.1979,223.373 72.5723,224.4567 71.5566,225.043 C65.6091,228.4768 55.77,234.1575 50.6762,237.0984 C48.645,238.2711 46.1423,238.2711 44.1111,237.0984 C34.6617,231.6428 14.0306,219.7314 2.7899,213.2416 C1.8168,212.6797 1.2017,211.6614 1.152,210.5456 L1.1372,210.5426 L1.1372,202.8198 L8.4472,204.2897 Z"/>
      <g transform="translate(1 194.408)">
        <mask id="privilege-escalation@1x-h" fill="#fff">
          <use xlink:href="#privilege-escalation@1x-g"/>
        </mask>
        <polygon fill="#D1D9E0" points="74.863 -25.247 46.469 -8.853 46.469 52.58 74.863 36.186" mask="url(#privilege-escalation@1x-h)"/>
      </g>
      <path stroke="#01050C" stroke-linecap="round" stroke-linejoin="round" d="M8.4472,204.2897 L23.6703,195.5007 C25.7016,194.3279 28.2042,194.3279 30.2355,195.5007 L58.5645,211.8564 L73.1549,214.7904 L73.1549,221.6706 C73.1833,221.8441 73.1979,222.0211 73.1979,222.2002 C73.1979,223.373 72.5723,224.4567 71.5566,225.043 C65.6091,228.4768 55.77,234.1575 50.6762,237.0984 C48.645,238.2711 46.1423,238.2711 44.1111,237.0984 C34.6617,231.6428 14.0306,219.7314 2.7899,213.2416 C1.8168,212.6797 1.2017,211.6614 1.152,210.5456 L1.1372,210.5426 L1.1372,202.8198 L8.4472,204.2897 Z"/>
      <path fill="#FFF" d="M23.9529,187.657 C25.8093,186.5852 28.0965,186.5852 29.9529,187.657 C38.3103,192.4822 61.8935,206.0979 71.8271,211.8331 C72.7553,212.369 73.3271,213.3594 73.3271,214.4312 C73.3271,215.503 72.7553,216.4934 71.8271,217.0293 C65.8253,220.4944 55.3633,226.5346 50.2403,229.4924 C48.3839,230.5642 46.0967,230.5642 44.2403,229.4924 C35.8828,224.6673 12.2996,211.0515 2.366,205.3163 C1.4378,204.7804 0.866,203.7901 0.866,202.7183 C0.866,201.6465 1.4378,200.6561 2.366,200.1202 C8.3678,196.655 18.8298,190.6148 23.9529,187.657 Z"/>
      <path stroke="#E01A33" stroke-linecap="round" stroke-linejoin="round" d="M23.9529,187.657 C25.8093,186.5852 28.0965,186.5852 29.9529,187.657 C38.3103,192.4822 61.8935,206.0979 71.8271,211.8331 C72.7553,212.369 73.3271,213.3594 73.3271,214.4312 C73.3271,215.503 72.7553,216.4934 71.8271,217.0293 C65.8253,220.4944 55.3633,226.5346 50.2403,229.4924 C48.3839,230.5642 46.0967,230.5642 44.2403,229.4924 C35.8828,224.6673 12.2996,211.0515 2.366,205.3163 C1.4378,204.7804 0.866,203.7901 0.866,202.7183 C0.866,201.6465 1.4378,200.6561 2.366,200.1202 C8.3678,196.655 18.8298,190.6148 23.9529,187.657 Z"/>
      <line x1="43.553" x2="46.788" y1="218.694" y2="220.562" stroke="#E01A33" stroke-linecap="round" stroke-linejoin="round"/>
      <line x1="53.309" x2="57.435" y1="215.811" y2="218.193" stroke="#E01A33" stroke-linecap="round" stroke-linejoin="round"/>
      <line x1="47.896" x2="61.666" y1="208.075" y2="216.025" stroke="#E01A33" stroke-linecap="round" stroke-linejoin="round"/>
      <line x1="37.418" x2="40.653" y1="215.152" y2="217.02" stroke="#E01A33" stroke-linecap="round" stroke-linejoin="round"/>
      <line x1="44.412" x2="50.883" y1="210.674" y2="214.41" stroke="#E01A33" stroke-linecap="round" stroke-linejoin="round"/>
      <line x1="22.405" x2="25.64" y1="206.941" y2="208.809" stroke="#E01A33" stroke-linecap="round" stroke-linejoin="round"/>
      <line x1="32.161" x2="36.288" y1="204.058" y2="206.44" stroke="#E01A33" stroke-linecap="round" stroke-linejoin="round"/>
      <line x1="26.748" x2="40.519" y1="196.322" y2="204.272" stroke="#E01A33" stroke-linecap="round" stroke-linejoin="round"/>
      <line x1="16.27" x2="19.506" y1="203.4" y2="205.268" stroke="#E01A33" stroke-linecap="round" stroke-linejoin="round"/>
      <line x1="23.265" x2="29.735" y1="198.922" y2="202.658" stroke="#E01A33" stroke-linecap="round" stroke-linejoin="round"/>
      <path fill="#EFF4F7" d="M75.3766,108.474 L90.5997,99.685 C92.631,98.512 95.1336,98.512 97.165,99.685 L125.494,116.04 L140.084,118.974 L140.084,125.854 C140.113,126.028 140.127,126.205 140.127,126.384 C140.127,127.557 139.502,128.641 138.486,129.227 C132.539,132.661 122.699,138.341 117.606,141.282 C115.574,142.455 113.072,142.455 111.04,141.282 C101.591,135.827 80.96,123.915 69.7193,117.425 C68.7462,116.864 68.1311,115.845 68.0814,114.729 L68.0666,114.726 L68.0666,107.004 L75.3766,108.474 Z"/>
      <g transform="translate(68 98.408)">
        <mask id="privilege-escalation@1x-j" fill="#fff">
          <use xlink:href="#privilege-escalation@1x-i"/>
        </mask>
        <polygon fill="#D1D9E0" points="72.127 -8.501 43.733 7.892 43.733 69.325 72.127 52.932" mask="url(#privilege-escalation@1x-j)"/>
      </g>
      <path stroke="#01050C" stroke-linecap="round" stroke-linejoin="round" d="M75.3766,108.474 L90.5997,99.685 C92.631,98.512 95.1336,98.512 97.165,99.685 L125.494,116.04 L140.084,118.974 L140.084,125.854 C140.113,126.028 140.127,126.205 140.127,126.384 C140.127,127.557 139.502,128.641 138.486,129.227 C132.539,132.661 122.699,138.341 117.606,141.282 C115.574,142.455 113.072,142.455 111.04,141.282 C101.591,135.827 80.96,123.915 69.7193,117.425 C68.7462,116.864 68.1311,115.845 68.0814,114.729 L68.0666,114.726 L68.0666,107.004 L75.3766,108.474 Z"/>
      <path fill="#FFF" d="M90.8823,91.841 C92.7387,90.769 95.0259,90.769 96.8823,91.841 C105.24,96.666 128.823,110.282 138.757,116.017 C139.685,116.553 140.257,117.543 140.257,118.615 C140.257,119.687 139.685,120.677 138.757,121.213 C132.755,124.678 122.293,130.718 117.17,133.676 C115.313,134.748 113.026,134.748 111.17,133.676 C102.812,128.851 79.229,115.235 69.2954,109.5 C68.3672,108.964 67.7954,107.974 67.7954,106.902 C67.7954,105.83 68.3672,104.84 69.2954,104.304 C75.2972,100.839 85.7592,94.799 90.8823,91.841 Z"/>
      <path stroke="#01050C" stroke-linecap="round" stroke-linejoin="round" d="M90.8823,91.841 C92.7387,90.769 95.0259,90.769 96.8823,91.841 C105.24,96.666 128.823,110.282 138.757,116.017 C139.685,116.553 140.257,117.543 140.257,118.615 C140.257,119.687 139.685,120.677 138.757,121.213 C132.755,124.678 122.293,130.718 117.17,133.676 C115.313,134.748 113.026,134.748 111.17,133.676 C102.812,128.851 79.229,115.235 69.2954,109.5 C68.3672,108.964 67.7954,107.974 67.7954,106.902 C67.7954,105.83 68.3672,104.84 69.2954,104.304 C75.2972,100.839 85.7592,94.799 90.8823,91.841 Z"/>
      <path fill="#3F6C9F" fill-opacity=".12" d="M36.0639,199.0242 C44.1856,200.3706 50.3628,204.7116 49.8497,208.7119 C49.3365,212.7123 42.3261,214.8669 34.2043,213.5204 C26.0826,212.174 19.9054,207.8331 20.4186,203.8327 C20.9317,199.8323 27.9422,197.6777 36.0639,199.0242 Z"/>
      <path fill="#FFF" d="M26.7557,204.7179 L26.7557,204.7179 L26.312,173.3508 L25.7033,164.696 C25.7033,164.696 25.4245,154.096 25.2345,146.877 C25.1923,145.27 25.8743,143.73 27.0922,142.681 C28.31,141.632 29.9348,141.186 31.5176,141.465 C34.5594,142.003 37.8578,142.587 39.4204,142.863 C40.0295,142.971 40.615,143.184 41.1506,143.493 C43.4104,144.798 49.6218,148.384 49.6218,148.384 L57.4194,143.49 C57.4717,143.455 57.5254,143.421 57.5804,143.389 L57.5806,143.389 C57.9601,143.17 58.4005,143.045 58.8699,143.045 C60.296,143.045 61.4539,144.203 61.4539,145.629 C61.4539,146.586 60.9328,147.422 60.1591,147.868 L60.1591,147.868 C60.1591,147.868 54.5304,152.16 51.9415,154.134 C51.1503,154.737 50.1007,154.882 49.1758,154.515 C46.6316,153.506 41.7229,151.558 41.7229,151.558 L41.7229,169.873 L42.6515,189.0394 L41.7229,208.4382 L41.7229,208.4382 C41.7235,208.465 41.7237,208.4918 41.7237,208.5188 C41.7237,210.5943 40.0386,212.2795 37.963,212.2795 C35.8875,212.2795 34.2023,210.5943 34.2023,208.5188 C34.2023,208.4741 34.2031,208.4297 34.2047,208.3855 L34.2023,208.3854 L34.2023,205.4264 C33.855,207.1441 32.3357,208.4389 30.5162,208.4389 C28.4539,208.4389 26.777,206.7752 26.7557,204.7179 Z"/>
      <path stroke="#01050C" stroke-linecap="round" stroke-linejoin="round" d="M26.7557,204.7179 L26.7557,204.7179 L26.312,173.3508 L25.7033,164.696 C25.7033,164.696 25.4245,154.096 25.2345,146.877 C25.1923,145.27 25.8743,143.73 27.0922,142.681 C28.31,141.632 29.9348,141.186 31.5176,141.465 C34.5594,142.003 37.8578,142.587 39.4204,142.863 C40.0295,142.971 40.615,143.184 41.1506,143.493 C43.4104,144.798 49.6218,148.384 49.6218,148.384 L57.4194,143.49 C57.4717,143.455 57.5254,143.421 57.5804,143.389 L57.5806,143.389 C57.9601,143.17 58.4005,143.045 58.8699,143.045 C60.296,143.045 61.4539,144.203 61.4539,145.629 C61.4539,146.586 60.9328,147.422 60.1591,147.868 L60.1591,147.868 C60.1591,147.868 54.5304,152.16 51.9415,154.134 C51.1503,154.737 50.1007,154.882 49.1758,154.515 C46.6316,153.506 41.7229,151.558 41.7229,151.558 L41.7229,169.873 L42.6515,189.0394 L41.7229,208.4382 L41.7229,208.4382 C41.7235,208.465 41.7237,208.4918 41.7237,208.5188 C41.7237,210.5943 40.0386,212.2795 37.963,212.2795 C35.8875,212.2795 34.2023,210.5943 34.2023,208.5188 C34.2023,208.4741 34.2031,208.4297 34.2047,208.3855 L34.2023,208.3854 L34.2023,205.4264 C33.855,207.1441 32.3357,208.4389 30.5162,208.4389 C28.4539,208.4389 26.777,206.7752 26.7557,204.7179 Z"/>
      <path fill="#FFF" d="M33.4241,124.146 C37.4768,124.146 40.7671,127.437 40.7671,131.489 C40.7671,135.542 37.4768,138.832 33.4241,138.832 C29.3714,138.832 26.0811,135.542 26.0811,131.489 C26.0811,127.437 29.3714,124.146 33.4241,124.146 Z"/>
      <path stroke="#01050C" stroke-linecap="round" stroke-linejoin="round" d="M33.4241,124.146 C37.4768,124.146 40.7671,127.437 40.7671,131.489 C40.7671,135.542 37.4768,138.832 33.4241,138.832 C29.3714,138.832 26.0811,135.542 26.0811,131.489 C26.0811,127.437 29.3714,124.146 33.4241,124.146 Z"/>
      <line x1="40.149" x2="41.723" y1="150.649" y2="151.558" stroke="#01050C" stroke-linecap="round" stroke-linejoin="round"/>
      <polyline stroke="#01050C" stroke-linecap="round" stroke-linejoin="round" points="33.122 174.044 34.202 189.236 34.202 207.605"/>
      <path fill="#EFF4F7" d="M122.772,114.453 C121.238,113.568 118.724,113.581 117.162,114.483 C115.6,115.385 115.577,116.836 117.111,117.722 C118.645,118.607 121.158,118.594 122.721,117.692 C124.283,116.79 124.306,115.339 122.772,114.453 Z"/>
      <path stroke="#01050C" stroke-linecap="round" stroke-linejoin="round" d="M122.772,114.453 C121.238,113.568 118.724,113.581 117.162,114.483 C115.6,115.385 115.577,116.836 117.111,117.722 C118.645,118.607 121.158,118.594 122.721,117.692 C124.283,116.79 124.306,115.339 122.772,114.453 Z"/>
      <path fill="#EFF4F7" d="M110.188,123.958 C110.188,123.958 106.848,121.893 105.094,120.809 C104.873,120.673 104.741,120.431 104.744912,120.171 C104.749,119.912 104.888,119.674 105.113,119.545 C105.578,119.276 106.22,118.906 107.088,118.404 C109.408,117.065 113.134,117.045 115.411,118.36 C115.609,118.474 115.807,118.589 116.005,118.703 C118.282,120.018 118.248,122.169 115.929,123.508 C113.582,124.863 112.886,125.265 112.886,125.265"/>
      <path stroke="#01050C" stroke-linecap="round" stroke-linejoin="round" d="M110.188,123.958 C110.188,123.958 106.848,121.893 105.094,120.809 C104.873,120.673 104.741,120.431 104.744912,120.171 C104.749,119.912 104.888,119.674 105.113,119.545 C105.578,119.276 106.22,118.906 107.088,118.404 C109.408,117.065 113.134,117.045 115.411,118.36 C115.609,118.474 115.807,118.589 116.005,118.703 C118.282,120.018 118.248,122.169 115.929,123.508 C113.582,124.863 112.886,125.265 112.886,125.265"/>
      <line x1="93.084" x2="96.319" y1="112.136" y2="114.004" stroke="#01050C" stroke-linecap="round" stroke-linejoin="round"/>
      <line x1="102.84" x2="106.966" y1="109.253" y2="111.635" stroke="#01050C" stroke-linecap="round" stroke-linejoin="round"/>
      <line x1="97.427" x2="111.197" y1="101.517" y2="109.467" stroke="#01050C" stroke-linecap="round" stroke-linejoin="round"/>
      <line x1="86.949" x2="90.185" y1="108.594" y2="110.462" stroke="#01050C" stroke-linecap="round" stroke-linejoin="round"/>
      <line x1="93.944" x2="100.414" y1="104.117" y2="107.852" stroke="#01050C" stroke-linecap="round" stroke-linejoin="round"/>
      <path fill="#EFF4F7" d="M91.5027,163.219 C89.9688,162.334 87.455,162.347 85.8927,163.249 C84.3305,164.151 84.3075,165.602 85.8415,166.488 C87.3754,167.373 89.8892,167.36 91.4515,166.458 C93.0137,165.556 93.0367,164.105 91.5027,163.219 Z"/>
      <path stroke="#01050C" stroke-linecap="round" stroke-linejoin="round" d="M91.5027,163.219 C89.9688,162.334 87.455,162.347 85.8927,163.249 C84.3305,164.151 84.3075,165.602 85.8415,166.488 C87.3754,167.373 89.8892,167.36 91.4515,166.458 C93.0137,165.556 93.0367,164.105 91.5027,163.219 Z"/>
      <path fill="#EFF4F7" d="M78.9192,172.7243 C78.9192,172.7243 75.579,170.659 73.8247,169.575 C73.6042,169.439 73.4717,169.197 73.4754204,168.938 C73.4794,168.678 73.6193,168.44 73.8437,168.311 C74.3084,168.042 74.9508,167.672 75.8192,167.17 C78.1385,165.831 81.8647,165.812 84.142,167.126 C84.3396,167.24 84.538,167.355 84.7356,167.469 C87.0128,168.784 86.9788,170.935 84.6595,172.274 C82.3126,173.6292 81.6167,174.0309 81.6167,174.0309"/>
      <path stroke="#01050C" stroke-linecap="round" stroke-linejoin="round" d="M78.9192,172.7243 C78.9192,172.7243 75.579,170.659 73.8247,169.575 C73.6042,169.439 73.4717,169.197 73.4754204,168.938 C73.4794,168.678 73.6193,168.44 73.8437,168.311 C74.3084,168.042 74.9508,167.672 75.8192,167.17 C78.1385,165.831 81.8647,165.812 84.142,167.126 C84.3396,167.24 84.538,167.355 84.7356,167.469 C87.0128,168.784 86.9788,170.935 84.6595,172.274 C82.3126,173.6292 81.6167,174.0309 81.6167,174.0309"/>
      <line x1="61.815" x2="65.05" y1="160.902" y2="162.77" stroke="#01050C" stroke-linecap="round" stroke-linejoin="round"/>
      <line x1="71.571" x2="75.697" y1="158.019" y2="160.401" stroke="#01050C" stroke-linecap="round" stroke-linejoin="round"/>
      <line x1="66.158" x2="79.928" y1="150.283" y2="158.233" stroke="#01050C" stroke-linecap="round" stroke-linejoin="round"/>
      <line x1="55.68" x2="58.916" y1="157.36" y2="159.228" stroke="#01050C" stroke-linecap="round" stroke-linejoin="round"/>
      <line x1="62.675" x2="69.145" y1="152.883" y2="156.618" stroke="#01050C" stroke-linecap="round" stroke-linejoin="round"/>
      <path fill="#E01A33" d="M151.671,12.527 C151.671,13.602 151.097,14.595 150.167,15.132 C149.236,15.669 148.089,15.669 147.159,15.132 C146.469,14.734 145.79,14.342 145.197,13.999 C143.996,13.306 143.257,12.025 143.257,10.638 C143.257,8.715 143.257,5.863 143.257,3.355 C143.257,2.251 143.846,1.23 144.802,0.678 C145.759,0.125 146.938,0.125 147.894,0.678 C148.556,1.06 149.204,1.434 149.771,1.761 C150.947,2.44 151.671,3.694 151.671,5.051 C151.671,6.502 151.671,8.139 151.671,8.139 C151.671,8.139 162.397,14.331 165.898,16.353 C166.574,16.743 166.99,17.463 166.99,18.243 C166.99,18.301 166.99,18.361 166.99,18.421 C166.99,18.928 166.719,19.396 166.28,19.65 C165.841,19.904 165.3,19.904 164.86,19.65 C164.419,19.395 164.086,19.203 164.086,19.203 L164.086,23.124 L160.235,20.901 L160.235,16.979 L151.671,12.035 C151.671,12.035 151.671,12.221 151.671,12.527 Z M148.924,6.285 C148.924,5.394 148.449,4.57 147.677,4.125 C147.676,4.124 147.675,4.124 147.674,4.123 C147.259,3.883 146.747,3.883 146.332,4.123 C145.917,4.363 145.661,4.806 145.661,5.285 C145.661,6.755 145.661,8.584 145.661,9.717 C145.661,10.374 146.011,10.981 146.58,11.31 C146.726,11.394 146.882,11.484 147.04,11.575 C147.429,11.8 147.907,11.8 148.296,11.575 C148.685,11.351 148.924,10.936 148.924,10.488 C148.924,9.146 148.924,7.462 148.924,6.285 Z"/>
      <line x1="134.639" x2="142.989" y1="11.739" y2="31.091" stroke="#B1BBC9" stroke-linecap="round" stroke-linejoin="round"/>
      <line x1="178.424" x2="173.272" y1="15.895" y2="27.835" stroke="#B1BBC9" stroke-linecap="round" stroke-linejoin="round"/>
      <line x1="158.473" x2="158.473" y1="23.584" y2="27.414" stroke="#B1BBC9" stroke-linecap="round" stroke-linejoin="round"/>
    </g>
    <g stroke="#3F6C9F" stroke-linecap="round" stroke-linejoin="round" opacity=".2" transform="translate(56 158)">
      <line x1=".5" x2=".5" y1="99.14" y2="112.27"/>
      <line x1="98.121" x2="98.121" y1="59.398" y2="72.529"/>
      <line x1="129.374" x2="129.374" y1="9.416" y2="22.546"/>
      <line x1="30.823" x2="30.823" y1="112.27" y2="120.617"/>
      <line x1="64.656" x2="64.656" y1=".5" y2="8.847"/>
      <line x1="99.051" x2="99.051" y1="18.373" y2="31.096"/>
      <line x1="64.937" x2="64.937" y1="105.467" y2="110.773"/>
      <line x1="76.308" x2="76.308" y1="70.191" y2="77.106"/>
    </g>
  </g>
</svg>
