<svg version="1.1" id="_x31_" xmlns="http://www.w3.org/2000/svg" x="0" y="0" viewBox="0 0 700 419.06" style="enable-background:new 0 0 700 419.06" xml:space="preserve"><style>.st0{fill:#404040}.st1{fill:#4d4d4f}.st2{fill:#43b049}.st3{fill:#14487f}.st4{fill:#4c9fc8}</style><path class="st0" d="M30.8 1.92h2.02v14.1h-2.28V6.7l-3.72 7.04H25.1L21.36 6.8l.02 9.22H19.1V1.92h2.04l4.84 9.22 4.82-9.22zM37.49 15.56a4.29 4.29 0 0 1-1.75-1.78c-.41-.77-.62-1.67-.62-2.7 0-1.03.21-1.92.62-2.69s1-1.36 1.75-1.77S39.12 6 40.12 6s1.88.21 2.63.62c.75.41 1.33 1 1.74 1.77s.61 1.66.61 2.69-.2 1.93-.61 2.7c-.41.77-.99 1.37-1.74 1.78-.75.41-1.63.62-2.63.62s-1.87-.21-2.63-.62zm4.47-2.12c.43-.53.64-1.32.64-2.36 0-1.03-.21-1.81-.64-2.35-.43-.54-1.04-.81-1.84-.81s-1.42.27-1.85.81c-.43.54-.65 1.32-.65 2.35 0 1.04.21 1.83.64 2.36.43.53 1.04.8 1.84.8.82 0 1.44-.27 1.86-.8zM48.37 15.86a5.35 5.35 0 0 1-1.85-.92l.7-1.74c1.04.76 2.23 1.14 3.58 1.14.57 0 1.01-.09 1.31-.28.3-.19.45-.45.45-.8 0-.29-.1-.52-.31-.68-.21-.16-.58-.31-1.11-.44l-1.6-.36c-.91-.2-1.58-.53-2.02-.98s-.66-1.04-.66-1.76c0-.6.17-1.13.51-1.59.34-.46.81-.82 1.42-1.07C49.4 6.13 50.1 6 50.9 6c.69 0 1.36.11 2.01.32.65.21 1.22.51 1.71.9l-.7 1.7c-1.01-.73-2.03-1.1-3.04-1.1-.55 0-.97.1-1.28.3-.31.2-.46.48-.46.84 0 .27.1.49.29.66.19.17.5.31.93.4l1.66.38c.97.21 1.69.55 2.14 1.01s.68 1.06.68 1.81c0 .91-.37 1.63-1.1 2.16s-1.73.8-2.98.8c-.86 0-1.66-.11-2.39-.32zM62.68 14.24l-.12 1.86c-.4.04-.77.06-1.1.06-1.37 0-2.39-.32-3.04-.95-.65-.63-.98-1.58-.98-2.83V8.12h-1.88V6.24h1.88V3.32h2.5v2.92h2.58v1.88h-2.58v4.22c0 1.31.61 1.96 1.82 1.96.3 0 .6-.02.92-.06zM69.78 1.92h6.16c1.51 0 2.68.38 3.52 1.13.84.75 1.26 1.81 1.26 3.17s-.42 2.42-1.26 3.18c-.84.76-2.01 1.14-3.52 1.14h-3.58v5.48h-2.58V1.92zm5.84 6.64c1.77 0 2.66-.77 2.66-2.32 0-.79-.22-1.37-.66-1.75-.44-.38-1.11-.57-2-.57h-3.26v4.64h3.26zM84.23 15.56a4.29 4.29 0 0 1-1.75-1.78c-.41-.77-.62-1.67-.62-2.7 0-1.03.21-1.92.62-2.69s1-1.36 1.75-1.77S85.86 6 86.86 6s1.88.21 2.63.62c.75.41 1.33 1 1.74 1.77s.61 1.66.61 2.69-.2 1.93-.61 2.7c-.41.77-.99 1.37-1.74 1.78-.75.41-1.63.62-2.63.62s-1.87-.21-2.63-.62zm4.47-2.12c.43-.53.64-1.32.64-2.36 0-1.03-.21-1.81-.64-2.35-.43-.54-1.04-.81-1.84-.81s-1.42.27-1.85.81c-.43.54-.65 1.32-.65 2.35 0 1.04.21 1.83.64 2.36.43.53 1.04.8 1.84.8.82 0 1.44-.27 1.86-.8zM101.77 6.64c.66.43 1.17 1.03 1.54 1.81.37.78.55 1.68.55 2.69s-.18 1.9-.55 2.66-.88 1.35-1.53 1.76c-.65.41-1.41.62-2.26.62-.69 0-1.31-.15-1.86-.44-.55-.29-.97-.7-1.26-1.22v5.1h-2.5V6.24h2.46v1.48c.29-.55.72-.97 1.27-1.27.56-.3 1.19-.45 1.89-.45.84 0 1.59.21 2.25.64zm-1.07 6.79c.44-.54.66-1.3.66-2.29 0-1.01-.22-1.8-.66-2.36-.44-.56-1.05-.84-1.84-.84-.8 0-1.42.27-1.85.82-.43.55-.65 1.33-.65 2.34 0 1 .22 1.77.65 2.32.43.55 1.05.82 1.85.82.79 0 1.4-.27 1.84-.81zM114.9 6.24v9.78h-2.44v-1.5c-.31.53-.72.94-1.24 1.23-.52.29-1.11.43-1.76.43-2.4 0-3.6-1.35-3.6-4.04v-5.9h2.5v5.92c0 .69.14 1.21.42 1.54.28.33.72.5 1.32.5.69 0 1.25-.23 1.67-.69s.63-1.07.63-1.83V6.24h2.5zM117.5 16.02V1.92h2.5v14.1h-2.5zM129.84 7c.67.67 1 1.69 1 3.08v5.94h-2.38v-1.5c-.23.52-.58.93-1.07 1.22-.49.29-1.05.44-1.69.44-.65 0-1.25-.13-1.78-.4s-.95-.63-1.26-1.1-.46-.99-.46-1.56c0-.72.18-1.29.55-1.7.37-.41.96-.71 1.79-.9.83-.19 1.97-.28 3.42-.28h.5v-.46c0-.67-.14-1.15-.43-1.44-.29-.29-.76-.44-1.43-.44-.52 0-1.06.09-1.63.27-.57.18-1.12.43-1.67.75l-.7-1.72c.55-.35 1.21-.63 1.98-.86s1.51-.34 2.2-.34c1.38 0 2.4.33 3.06 1zm-2.01 6.71c.42-.45.63-1.02.63-1.73v-.42h-.36c-.89 0-1.59.04-2.08.12-.49.08-.85.22-1.06.42-.21.2-.32.47-.32.82 0 .43.15.78.44 1.05s.67.41 1.12.41c.67 0 1.21-.23 1.63-.67zM139.82 8.08l-1.46.14c-1.65.17-2.48 1.01-2.48 2.52v5.28h-2.5V6.24h2.38v1.72c.51-1.17 1.55-1.81 3.14-1.92l.76-.06.16 2.1zM150 16.02V4.04h-4.6V1.92h11.78v2.12h-4.6v11.98H150zM167.02 7c.57.67.86 1.67.86 3.02v6h-2.5v-5.86c0-.76-.14-1.31-.43-1.66s-.74-.52-1.35-.52c-.72 0-1.3.23-1.73.68-.43.45-.65 1.06-.65 1.82v5.54h-2.5V1.92h2.5V7.6c.33-.52.78-.92 1.33-1.19S163.72 6 164.4 6c1.18 0 2.05.33 2.62 1zM176.86 8.08l-1.46.14c-1.65.17-2.48 1.01-2.48 2.52v5.28h-2.5V6.24h2.38v1.72c.51-1.17 1.55-1.81 3.14-1.92l.76-.06.16 2.1zM186.46 11.58h-6.66c.08.91.35 1.58.82 2.02.47.44 1.13.66 2 .66 1.08 0 2.07-.35 2.96-1.04l.72 1.72c-.45.37-1.02.67-1.71.9-.69.23-1.38.34-2.07.34-1.6 0-2.86-.45-3.79-1.36-.93-.91-1.39-2.15-1.39-3.72 0-1 .2-1.89.6-2.66.4-.77.96-1.37 1.69-1.8S181.18 6 182.1 6c1.35 0 2.41.43 3.19 1.3.78.87 1.17 2.06 1.17 3.58v.7zm-5.91-3.18c-.41.43-.66 1.04-.75 1.84h4.52c-.03-.81-.23-1.43-.6-1.85-.37-.42-.89-.63-1.56-.63-.66 0-1.2.21-1.61.64zM195.76 7c.67.67 1 1.69 1 3.08v5.94h-2.38v-1.5c-.23.52-.58.93-1.07 1.22-.49.29-1.05.44-1.69.44-.65 0-1.25-.13-1.78-.4s-.95-.63-1.26-1.1-.46-.99-.46-1.56c0-.72.18-1.29.55-1.7.37-.41.96-.71 1.79-.9.83-.19 1.97-.28 3.42-.28h.5v-.46c0-.67-.14-1.15-.43-1.44-.29-.29-.76-.44-1.43-.44-.52 0-1.06.09-1.63.27-.57.18-1.12.43-1.67.75l-.7-1.72c.55-.35 1.21-.63 1.98-.86s1.51-.34 2.2-.34c1.38 0 2.4.33 3.06 1zm-2.01 6.71c.42-.45.63-1.02.63-1.73v-.42h-.36c-.89 0-1.59.04-2.08.12-.49.08-.85.22-1.06.42-.21.2-.32.47-.32.82 0 .43.15.78.44 1.05s.67.41 1.12.41c.67 0 1.21-.23 1.63-.67zM205.22 14.24l-.12 1.86c-.4.04-.77.06-1.1.06-1.37 0-2.39-.32-3.04-.95-.65-.63-.98-1.58-.98-2.83V8.12h-1.88V6.24h1.88V3.32h2.5v2.92h2.58v1.88h-2.58v4.22c0 1.31.61 1.96 1.82 1.96.3 0 .6-.02.92-.06zM212.32 16.02V1.92h2.58v14.1h-2.58zM226.02 7c.57.67.86 1.67.86 3.02v6h-2.5v-5.86c0-.76-.14-1.31-.43-1.66s-.74-.52-1.35-.52c-.72 0-1.3.23-1.73.68-.43.45-.65 1.06-.65 1.82v5.54h-2.5V6.24h2.44V7.7c.33-.55.78-.97 1.34-1.26.56-.29 1.19-.44 1.9-.44 1.17 0 2.05.33 2.62 1zM231.21 15.56c-.75-.41-1.33-1-1.73-1.76s-.6-1.65-.6-2.66c0-1.01.21-1.91.63-2.69.42-.78 1.02-1.38 1.79-1.81.77-.43 1.67-.64 2.68-.64.69 0 1.37.11 2.03.33.66.22 1.19.52 1.59.89l-.72 1.76c-.41-.33-.85-.59-1.31-.76-.46-.17-.92-.26-1.37-.26-.87 0-1.54.27-2.02.81s-.72 1.32-.72 2.33c0 1 .24 1.77.72 2.31s1.15.81 2.02.81c.45 0 .91-.09 1.37-.26s.9-.43 1.31-.76l.72 1.74c-.43.39-.97.69-1.64.91-.67.22-1.36.33-2.08.33-1.03 0-1.92-.21-2.67-.62zM239.04 1.7h2.76v2.46h-2.76V1.7zm.14 14.32V6.24h2.5v9.78h-2.5zM253.7 1.92v14.1h-2.48v-1.58c-.29.55-.72.97-1.27 1.28-.55.31-1.18.46-1.89.46-.84 0-1.59-.21-2.25-.64-.66-.43-1.17-1.03-1.54-1.81-.37-.78-.55-1.68-.55-2.69s.18-1.9.55-2.66.88-1.35 1.53-1.76 1.41-.62 2.26-.62c.71 0 1.33.15 1.88.44.55.29.97.71 1.26 1.24V1.92h2.5zm-3.13 11.5c.43-.55.65-1.33.65-2.34 0-1.01-.22-1.79-.65-2.33s-1.04-.81-1.83-.81c-.8 0-1.42.27-1.86.8s-.66 1.3-.66 2.3c0 1.01.22 1.8.66 2.36.44.56 1.05.84 1.84.84.8 0 1.42-.27 1.85-.82zM264.86 11.58h-6.66c.08.91.35 1.58.82 2.02.47.44 1.13.66 2 .66 1.08 0 2.07-.35 2.96-1.04l.72 1.72c-.45.37-1.02.67-1.71.9-.69.23-1.38.34-2.07.34-1.6 0-2.86-.45-3.79-1.36-.93-.91-1.39-2.15-1.39-3.72 0-1 .2-1.89.6-2.66.4-.77.96-1.37 1.69-1.8S259.58 6 260.5 6c1.35 0 2.41.43 3.19 1.3.78.87 1.17 2.06 1.17 3.58v.7zm-5.91-3.18c-.41.43-.66 1.04-.75 1.84h4.52c-.03-.81-.23-1.43-.6-1.85-.37-.42-.89-.63-1.56-.63s-1.2.21-1.61.64zM275.2 7c.57.67.86 1.67.86 3.02v6h-2.5v-5.86c0-.76-.14-1.31-.43-1.66s-.74-.52-1.35-.52c-.72 0-1.3.23-1.73.68-.43.45-.65 1.06-.65 1.82v5.54h-2.5V6.24h2.44V7.7c.33-.55.78-.97 1.34-1.26.56-.29 1.19-.44 1.9-.44 1.17 0 2.05.33 2.62 1zM284.52 14.24l-.12 1.86c-.4.04-.77.06-1.1.06-1.37 0-2.39-.32-3.04-.95-.65-.63-.98-1.58-.98-2.83V8.12h-1.88V6.24h1.88V3.32h2.5v2.92h2.58v1.88h-2.58v4.22c0 1.31.61 1.96 1.82 1.96.29 0 .6-.02.92-.06zM294.94 16.02V4.04h-4.6V1.92h11.78v2.12h-4.6v11.98h-2.58z"/><path class="st0" d="M308.98 6.26h2.46l-5.88 13.36h-2.52l1.78-3.98-4.08-9.38h2.64l2.76 6.9 2.84-6.9zM320.51 6.64c.66.43 1.17 1.03 1.54 1.81.37.78.55 1.68.55 2.69s-.18 1.9-.55 2.66-.88 1.35-1.53 1.76c-.65.41-1.41.62-2.26.62-.69 0-1.31-.15-1.86-.44-.55-.29-.97-.7-1.26-1.22v5.1h-2.5V6.24h2.46v1.48c.29-.55.72-.97 1.27-1.27.55-.3 1.18-.45 1.89-.45.84 0 1.59.21 2.25.64zm-1.07 6.79c.44-.54.66-1.3.66-2.29 0-1.01-.22-1.8-.66-2.36-.44-.56-1.05-.84-1.84-.84-.8 0-1.42.27-1.85.82-.43.55-.65 1.33-.65 2.34 0 1 .22 1.77.65 2.32.43.55 1.05.82 1.85.82.79 0 1.4-.27 1.84-.81zM333.24 11.58h-6.66c.08.91.35 1.58.82 2.02.47.44 1.13.66 2 .66 1.08 0 2.07-.35 2.96-1.04l.72 1.72c-.45.37-1.02.67-1.71.9-.69.23-1.38.34-2.07.34-1.6 0-2.86-.45-3.79-1.36-.93-.91-1.39-2.15-1.39-3.72 0-1 .2-1.89.6-2.66.4-.77.96-1.37 1.69-1.8s1.55-.64 2.47-.64c1.35 0 2.41.43 3.19 1.3.78.87 1.17 2.06 1.17 3.58v.7zm-5.91-3.18c-.41.43-.66 1.04-.75 1.84h4.52c-.03-.81-.23-1.43-.6-1.85-.37-.42-.89-.63-1.56-.63s-1.2.21-1.61.64zM336.49 15.86a5.35 5.35 0 0 1-1.85-.92l.7-1.74c1.04.76 2.23 1.14 3.58 1.14.57 0 1.01-.09 1.31-.28.3-.19.45-.45.45-.8 0-.29-.1-.52-.31-.68-.21-.16-.58-.31-1.11-.44l-1.6-.36c-.91-.2-1.58-.53-2.02-.98s-.66-1.04-.66-1.76c0-.6.17-1.13.51-1.59.34-.46.81-.82 1.42-1.07.61-.25 1.31-.38 2.11-.38.69 0 1.36.11 2.01.32.65.21 1.22.51 1.71.9l-.7 1.7c-1.01-.73-2.03-1.1-3.04-1.1-.55 0-.97.1-1.28.3-.31.2-.46.48-.46.84 0 .27.1.49.29.66.19.17.5.31.93.4l1.66.38c.97.21 1.69.55 2.14 1.01s.68 1.06.68 1.81c0 .91-.37 1.63-1.1 2.16s-1.73.8-2.98.8c-.87 0-1.66-.11-2.39-.32zM350.46 11.66V9.68h5.96v1.98h-5.96zM364.72 1.92h6.16c1.51 0 2.68.38 3.52 1.13.84.75 1.26 1.81 1.26 3.17s-.42 2.42-1.26 3.18c-.84.76-2.01 1.14-3.52 1.14h-3.58v5.48h-2.58V1.92zm5.84 6.64c1.77 0 2.66-.77 2.66-2.32 0-.79-.22-1.37-.66-1.75-.44-.38-1.11-.57-2-.57h-3.26v4.64h3.26zM384.7 7c.67.67 1 1.69 1 3.08v5.94h-2.38v-1.5c-.23.52-.58.93-1.07 1.22-.49.29-1.05.44-1.69.44-.65 0-1.25-.13-1.78-.4s-.95-.63-1.26-1.1-.46-.99-.46-1.56c0-.72.18-1.29.55-1.7.37-.41.96-.71 1.79-.9.83-.19 1.97-.28 3.42-.28h.5v-.46c0-.67-.14-1.15-.43-1.44s-.76-.44-1.43-.44c-.52 0-1.06.09-1.63.27-.57.18-1.12.43-1.67.75l-.7-1.72c.55-.35 1.21-.63 1.98-.86s1.51-.34 2.2-.34c1.37 0 2.39.33 3.06 1zm-2.01 6.71c.42-.45.63-1.02.63-1.73v-.42h-.36c-.89 0-1.59.04-2.08.12s-.85.22-1.06.42c-.21.2-.32.47-.32.82 0 .43.15.78.44 1.05.29.27.67.41 1.12.41.67 0 1.21-.23 1.63-.67zM389.45 15.86a5.35 5.35 0 0 1-1.85-.92l.7-1.74c1.04.76 2.23 1.14 3.58 1.14.57 0 1.01-.09 1.31-.28.3-.19.45-.45.45-.8 0-.29-.1-.52-.31-.68-.21-.16-.58-.31-1.11-.44l-1.6-.36c-.91-.2-1.58-.53-2.02-.98-.44-.45-.66-1.04-.66-1.76 0-.6.17-1.13.51-1.59.34-.46.81-.82 1.42-1.07.61-.25 1.31-.38 2.11-.38.69 0 1.36.11 2.01.32.65.21 1.22.51 1.71.9l-.7 1.7c-1.01-.73-2.03-1.1-3.04-1.1-.55 0-.97.1-1.28.3-.31.2-.46.48-.46.84 0 .27.1.49.29.66.19.17.5.31.93.4l1.66.38c.97.21 1.69.55 2.14 1.01s.68 1.06.68 1.81c0 .91-.37 1.63-1.1 2.16s-1.73.8-2.98.8c-.87 0-1.67-.11-2.39-.32zM403.76 14.24l-.12 1.86c-.4.04-.77.06-1.1.06-1.37 0-2.39-.32-3.04-.95-.65-.63-.98-1.58-.98-2.83V8.12h-1.88V6.24h1.88V3.32h2.5v2.92h2.58v1.88h-2.58v4.22c0 1.31.61 1.96 1.82 1.96.29 0 .6-.02.92-.06zM414.18 16.02V4.04h-4.6V1.92h11.78v2.12h-4.6v11.98h-2.58zM431.2 7c.57.67.86 1.67.86 3.02v6h-2.5v-5.86c0-.76-.14-1.31-.43-1.66-.29-.35-.74-.52-1.35-.52-.72 0-1.3.23-1.73.68-.43.45-.65 1.06-.65 1.82v5.54h-2.5V1.92h2.5V7.6c.33-.52.78-.92 1.33-1.19.55-.27 1.17-.41 1.85-.41 1.17 0 2.04.33 2.62 1zM441.04 8.08l-1.46.14c-1.65.17-2.48 1.01-2.48 2.52v5.28h-2.5V6.24h2.38v1.72c.51-1.17 1.55-1.81 3.14-1.92l.76-.06.16 2.1zM450.64 11.58h-6.66c.08.91.35 1.58.82 2.02.47.44 1.13.66 2 .66 1.08 0 2.07-.35 2.96-1.04l.72 1.72c-.45.37-1.02.67-1.71.9-.69.23-1.38.34-2.07.34-1.6 0-2.86-.45-3.79-1.36-.93-.91-1.39-2.15-1.39-3.72 0-1 .2-1.89.6-2.66.4-.77.96-1.37 1.69-1.8s1.55-.64 2.47-.64c1.35 0 2.41.43 3.19 1.3.78.87 1.17 2.06 1.17 3.58v.7zm-5.91-3.18c-.41.43-.66 1.04-.75 1.84h4.52c-.03-.81-.23-1.43-.6-1.85-.37-.42-.89-.63-1.56-.63s-1.21.21-1.61.64zM461.26 11.58h-6.66c.08.91.35 1.58.82 2.02.47.44 1.13.66 2 .66 1.08 0 2.07-.35 2.96-1.04l.72 1.72c-.45.37-1.02.67-1.71.9-.69.23-1.38.34-2.07.34-1.6 0-2.86-.45-3.79-1.36-.93-.91-1.39-2.15-1.39-3.72 0-1 .2-1.89.6-2.66.4-.77.96-1.37 1.69-1.8S455.98 6 456.9 6c1.35 0 2.41.43 3.19 1.3.78.87 1.17 2.06 1.17 3.58v.7zm-5.91-3.18c-.41.43-.66 1.04-.75 1.84h4.52c-.03-.81-.23-1.43-.6-1.85-.37-.42-.89-.63-1.56-.63s-1.21.21-1.61.64zM479.08 16.01c.24.21.47.5.7.87l1.44 2.34-2.16 1.04-1.94-3.14c-.37-.61-1.01-.92-1.9-.92-1.37 0-2.56-.29-3.57-.88-1.01-.59-1.78-1.43-2.33-2.52s-.82-2.37-.82-3.84.27-2.74.82-3.83 1.32-1.92 2.33-2.51 2.2-.88 3.57-.88c1.36 0 2.54.29 3.55.88s1.78 1.42 2.33 2.51.82 2.36.82 3.83c0 1.6-.32 2.97-.95 4.11a5.604 5.604 0 0 1-2.73 2.49c.32.09.6.24.84.45zm-.83-3.21c.73-.89 1.09-2.17 1.09-3.84s-.36-2.94-1.09-3.83c-.73-.89-1.74-1.33-3.03-1.33-1.31 0-2.32.44-3.05 1.33-.73.89-1.09 2.16-1.09 3.83s.36 2.95 1.09 3.84c.73.89 1.74 1.34 3.05 1.34 1.29 0 2.3-.45 3.03-1.34zM493.28 6.24v9.78h-2.44v-1.5c-.31.53-.72.94-1.24 1.23-.52.29-1.11.43-1.76.43-2.4 0-3.6-1.35-3.6-4.04v-5.9h2.5v5.92c0 .69.14 1.21.42 1.54.28.33.72.5 1.32.5.69 0 1.25-.23 1.67-.69s.63-1.07.63-1.83V6.24h2.5zM503.14 7c.67.67 1 1.69 1 3.08v5.94h-2.38v-1.5c-.23.52-.58.93-1.07 1.22-.49.29-1.05.44-1.69.44-.65 0-1.25-.13-1.78-.4s-.95-.63-1.26-1.1-.46-.99-.46-1.56c0-.72.18-1.29.55-1.7.37-.41.96-.71 1.79-.9.83-.19 1.97-.28 3.42-.28h.5v-.46c0-.67-.14-1.15-.43-1.44s-.76-.44-1.43-.44c-.52 0-1.06.09-1.63.27-.57.18-1.12.43-1.67.75l-.7-1.72c.55-.35 1.21-.63 1.98-.86s1.5-.34 2.2-.34c1.37 0 2.39.33 3.06 1zm-2.01 6.71c.42-.45.63-1.02.63-1.73v-.42h-.36c-.89 0-1.59.04-2.08.12s-.85.22-1.06.42c-.21.2-.32.47-.32.82 0 .43.15.78.44 1.05.29.27.67.41 1.12.41.66 0 1.21-.23 1.63-.67zM513.12 8.08l-1.46.14c-1.65.17-2.48 1.01-2.48 2.52v5.28h-2.5V6.24h2.38v1.72c.51-1.17 1.55-1.81 3.14-1.92l.76-.06.16 2.1zM521.16 14.24l-.12 1.86c-.4.04-.77.06-1.1.06-1.37 0-2.39-.32-3.04-.95-.65-.63-.98-1.58-.98-2.83V8.12h-1.88V6.24h1.88V3.32h2.5v2.92H521v1.88h-2.58v4.22c0 1.31.61 1.96 1.82 1.96.29 0 .6-.02.92-.06zM531.2 11.58h-6.66c.08.91.35 1.58.82 2.02.47.44 1.13.66 2 .66 1.08 0 2.07-.35 2.96-1.04l.72 1.72c-.45.37-1.02.67-1.71.9-.69.23-1.38.34-2.07.34-1.6 0-2.86-.45-3.79-1.36-.93-.91-1.39-2.15-1.39-3.72 0-1 .2-1.89.6-2.66.4-.77.96-1.37 1.69-1.8s1.55-.64 2.47-.64c1.35 0 2.41.43 3.19 1.3.78.87 1.17 2.06 1.17 3.58v.7zm-5.91-3.18c-.41.43-.66 1.04-.75 1.84h4.52c-.03-.81-.23-1.43-.6-1.85-.37-.42-.89-.63-1.56-.63s-1.21.21-1.61.64zM539.68 8.08l-1.46.14c-1.65.17-2.48 1.01-2.48 2.52v5.28h-2.5V6.24h2.38v1.72c.51-1.17 1.55-1.81 3.14-1.92l.76-.06.16 2.1zM542.01 15.86a5.35 5.35 0 0 1-1.85-.92l.7-1.74c1.04.76 2.23 1.14 3.58 1.14.57 0 1.01-.09 1.31-.28.3-.19.45-.45.45-.8 0-.29-.1-.52-.31-.68s-.58-.31-1.11-.44l-1.6-.36c-.91-.2-1.58-.53-2.02-.98-.44-.45-.66-1.04-.66-1.76 0-.6.17-1.13.51-1.59s.81-.82 1.42-1.07 1.31-.38 2.11-.38c.69 0 1.36.11 2.01.32.65.21 1.22.51 1.71.9l-.7 1.7c-1.01-.73-2.03-1.1-3.04-1.1-.55 0-.97.1-1.28.3-.31.2-.46.48-.46.84 0 .27.1.49.29.66.19.17.5.31.93.4l1.66.38c.97.21 1.69.55 2.14 1.01s.68 1.06.68 1.81c0 .91-.37 1.63-1.1 2.16s-1.73.8-2.98.8c-.87 0-1.67-.11-2.39-.32z"/><path class="st1" d="M162.77 374.28c-.52-.52-.78-1.28-.78-2.28v-4.37h1.31v4.44c0 .63.15 1.11.45 1.43.3.32.73.48 1.31.48.57 0 1-.16 1.3-.49.3-.32.45-.8.45-1.42v-4.44h1.31V372c0 .99-.26 1.75-.78 2.27s-1.28.79-2.28.79c-1.01 0-1.77-.26-2.29-.78zM173.99 370.28c.3.35.45.87.45 1.57v3.12h-1.3v-3.05c0-.39-.07-.68-.22-.86s-.38-.27-.7-.27c-.37 0-.67.12-.9.35-.23.23-.34.55-.34.95v2.88h-1.3v-5.09h1.27v.76c.17-.28.41-.5.7-.65s.62-.23.99-.23c.6 0 1.05.17 1.35.52zM179.67 370.28c.35.35.52.88.52 1.6v3.09h-1.24v-.78c-.12.27-.3.48-.56.63-.25.15-.55.23-.88.23-.34 0-.65-.07-.93-.21s-.5-.33-.65-.57c-.16-.24-.24-.51-.24-.81 0-.38.1-.67.29-.88.19-.21.5-.37.93-.47.43-.1 1.02-.15 1.78-.15h.26v-.24c0-.35-.07-.6-.22-.75-.15-.15-.4-.23-.74-.23-.27 0-.55.05-.85.14-.29.09-.58.22-.87.39l-.36-.89c.28-.18.63-.33 1.03-.45s.78-.18 1.14-.18c.71.01 1.24.18 1.59.53zm-1.05 3.48c.22-.23.33-.53.33-.9v-.22h-.19c-.46 0-.83.02-1.08.06-.26.04-.44.11-.55.22-.11.1-.17.25-.17.43 0 .22.08.4.23.54.15.14.35.21.58.21.35.01.63-.1.85-.34zM186.31 369.88v5.09h-1.27v-.78c-.16.28-.37.49-.64.64-.27.15-.58.22-.92.22-1.25 0-1.87-.7-1.87-2.1v-3.07h1.3v3.08c0 .36.07.63.22.8.15.17.37.26.69.26.36 0 .65-.12.87-.36.22-.24.33-.56.33-.95v-2.83h1.29zM190.88 374.04l-.06.97c-.21.02-.4.03-.57.03-.71 0-1.24-.17-1.58-.49-.34-.33-.51-.82-.51-1.47v-2.21h-.98v-.98h.98v-1.52h1.3v1.52h1.34v.98h-1.34v2.19c0 .68.32 1.02.95 1.02.14-.01.3-.02.47-.04zM196.09 370.28c.3.35.45.87.45 1.57v3.12h-1.3v-3.05c0-.39-.07-.68-.22-.86s-.38-.27-.7-.27c-.37 0-.67.12-.9.35-.23.23-.34.55-.34.95v2.88h-1.3v-7.33h1.3v2.96c.17-.27.4-.48.69-.62.29-.14.61-.21.96-.21.61-.01 1.06.16 1.36.51zM198.94 374.73c-.39-.21-.69-.52-.91-.93-.22-.4-.32-.87-.32-1.4s.11-1 .32-1.4c.21-.4.52-.71.91-.92s.85-.32 1.37-.32.98.11 1.37.32.69.52.9.92.32.87.32 1.4-.11 1-.32 1.4-.51.71-.9.93-.85.32-1.37.32-.97-.11-1.37-.32zm2.33-1.11c.22-.28.33-.69.33-1.23 0-.53-.11-.94-.33-1.22-.22-.28-.54-.42-.96-.42s-.74.14-.96.42c-.23.28-.34.69-.34 1.22 0 .54.11.95.33 1.23.22.28.54.42.96.42.42 0 .75-.14.97-.42zM207.46 370.84l-.76.07c-.86.09-1.29.53-1.29 1.31v2.74h-1.3v-5.09h1.24v.89c.26-.61.81-.94 1.63-1l.4-.03.08 1.11zM208.15 367.52h1.44v1.28h-1.44v-1.28zm.08 7.45v-5.09h1.3v5.09h-1.3zM212.35 373.99h2.89v.98h-4.43v-.9l2.77-3.2h-2.71v-.98h4.27v.88l-2.79 3.22zM220.9 372.66h-3.46c.04.47.18.82.43 1.05s.59.34 1.04.34c.56 0 1.07-.18 1.54-.54l.37.89c-.24.19-.53.35-.89.47s-.72.18-1.08.18c-.83 0-1.49-.24-1.97-.71s-.72-1.12-.72-1.94c0-.52.1-.98.31-1.38s.5-.71.88-.94.81-.33 1.28-.33c.7 0 1.25.22 1.66.68.41.45.61 1.07.61 1.86v.37zm-3.07-1.66c-.21.22-.34.54-.39.96h2.35c-.01-.42-.12-.74-.31-.96-.19-.22-.46-.33-.81-.33s-.63.11-.84.33zM227.01 367.63v7.33h-1.29v-.82c-.15.28-.37.51-.66.66-.29.16-.62.24-.98.24-.44 0-.83-.11-1.17-.33-.34-.22-.61-.54-.8-.94-.19-.41-.29-.87-.29-1.4 0-.53.1-.99.29-1.38.19-.39.46-.7.8-.91.34-.21.73-.32 1.18-.32.37 0 .69.08.98.23s.5.37.66.64v-3h1.28zm-1.63 5.98c.23-.28.34-.69.34-1.22s-.11-.93-.34-1.21c-.23-.28-.54-.42-.95-.42-.42 0-.74.14-.97.42-.23.28-.34.68-.34 1.2 0 .53.11.94.34 1.23.23.29.55.44.96.44.41-.01.74-.15.96-.44zM237.16 374.97l-.74-1.71h-3.57l-.74 1.71h-1.35l3.32-7.33h1.09l3.32 7.33h-1.33zm-3.87-2.76h2.68l-1.34-3.12-1.34 3.12zM240.22 374.73a2.16 2.16 0 0 1-.9-.92c-.21-.39-.31-.86-.31-1.38s.11-.99.33-1.4c.22-.41.53-.72.93-.94.4-.22.87-.33 1.39-.33.36 0 .71.06 1.06.17.34.12.62.27.83.46l-.37.92c-.21-.17-.44-.3-.68-.39-.24-.09-.48-.14-.71-.14-.45 0-.8.14-1.05.42s-.37.69-.37 1.21.12.92.37 1.2c.25.28.6.42 1.05.42.24 0 .47-.04.71-.13s.47-.22.68-.4l.37.91c-.22.2-.51.36-.85.47s-.71.17-1.08.17c-.54 0-1.01-.11-1.4-.32zM245.43 374.73a2.16 2.16 0 0 1-.9-.92c-.21-.39-.31-.86-.31-1.38s.11-.99.33-1.4c.22-.41.53-.72.93-.94.4-.22.87-.33 1.39-.33.36 0 .71.06 1.06.17.34.12.62.27.83.46l-.37.92c-.21-.17-.44-.3-.68-.39-.24-.09-.48-.14-.71-.14-.45 0-.8.14-1.05.42s-.37.69-.37 1.21.12.92.37 1.2c.25.28.6.42 1.05.42.24 0 .47-.04.71-.13s.47-.22.68-.4l.37.91c-.22.2-.51.36-.85.47s-.71.17-1.08.17c-.54 0-1.01-.11-1.4-.32zM254.17 372.66h-3.46c.04.47.18.82.43 1.05s.59.34 1.04.34c.56 0 1.07-.18 1.54-.54l.37.89c-.24.19-.53.35-.89.47s-.72.18-1.08.18c-.83 0-1.49-.24-1.97-.71s-.72-1.12-.72-1.94c0-.52.1-.98.31-1.38s.5-.71.88-.94.81-.33 1.28-.33c.7 0 1.25.22 1.66.68.41.45.61 1.07.61 1.86v.37zM251.1 371c-.21.22-.34.54-.39.96h2.35c-.01-.42-.12-.74-.31-.96-.19-.22-.46-.33-.81-.33s-.63.11-.84.33zM256 374.88c-.38-.11-.7-.27-.96-.48l.36-.91c.54.4 1.16.59 1.86.59.3 0 .53-.05.68-.15.16-.1.23-.23.23-.42 0-.15-.05-.27-.16-.35-.11-.08-.3-.16-.58-.23l-.83-.19c-.47-.1-.82-.27-1.05-.51-.23-.23-.34-.54-.34-.91 0-.31.09-.59.27-.83.18-.24.42-.43.74-.56.32-.13.68-.2 1.1-.2.36 0 .71.05 1.05.17s.63.27.89.47l-.36.88c-.53-.38-1.05-.57-1.58-.57-.28 0-.51.05-.67.16a.49.49 0 0 0-.24.44c0 .14.05.25.15.34s.26.16.48.21l.86.2c.51.11.88.29 1.11.53.24.24.35.55.35.94 0 .47-.19.85-.57 1.12s-.9.42-1.55.42c-.45.01-.86-.05-1.24-.16zM261.18 374.88c-.38-.11-.7-.27-.96-.48l.36-.91c.54.4 1.16.59 1.86.59.3 0 .53-.05.68-.15.16-.1.23-.23.23-.42 0-.15-.05-.27-.16-.35-.11-.08-.3-.16-.58-.23l-.83-.19c-.47-.1-.82-.27-1.05-.51-.23-.23-.34-.54-.34-.91 0-.31.09-.59.27-.83.18-.24.42-.43.74-.56.32-.13.68-.2 1.1-.2.36 0 .71.05 1.05.17s.63.27.89.47l-.36.88c-.53-.38-1.05-.57-1.58-.57-.28 0-.51.05-.67.16a.49.49 0 0 0-.24.44c0 .14.05.25.15.34s.26.16.48.21l.86.2c.51.11.88.29 1.11.53.24.24.35.55.35.94 0 .47-.19.85-.57 1.12s-.9.42-1.55.42c-.45.01-.87-.05-1.24-.16zM322.98 374.97h-1.46l-1.26-2.34c-.12-.22-.26-.38-.44-.47-.17-.09-.39-.14-.66-.14h-1.02v2.94h-1.32v-7.33h3.24c.83 0 1.46.19 1.9.56s.65.91.65 1.61c0 .56-.16 1.02-.47 1.39-.32.36-.76.6-1.34.71.39.11.7.38.94.82l1.24 2.25zm-1.98-4.26c.24-.19.35-.48.35-.88s-.12-.7-.35-.88c-.24-.18-.61-.28-1.11-.28h-1.75v2.32h1.75c.5 0 .88-.09 1.11-.28zM327.85 370.28c.35.35.52.88.52 1.6v3.09h-1.24v-.78c-.12.27-.3.48-.56.63-.25.15-.55.23-.88.23-.34 0-.65-.07-.93-.21s-.5-.33-.65-.57c-.16-.24-.24-.51-.24-.81 0-.38.1-.67.29-.88.19-.21.5-.37.93-.47.43-.1 1.02-.15 1.78-.15h.26v-.24c0-.35-.07-.6-.22-.75-.15-.15-.4-.23-.74-.23-.27 0-.55.05-.85.14-.29.09-.58.22-.87.39l-.36-.89c.28-.18.63-.33 1.03-.45s.78-.18 1.14-.18c.72.01 1.25.18 1.59.53zm-1.04 3.48c.22-.23.33-.53.33-.9v-.22h-.19c-.46 0-.83.02-1.08.06-.26.04-.44.11-.55.22-.11.1-.17.25-.17.43 0 .22.08.4.23.54.15.14.35.21.58.21.35.01.63-.1.85-.34zM334.15 370.28c.3.35.45.87.45 1.57v3.12h-1.3v-3.05c0-.39-.07-.68-.22-.86s-.38-.27-.7-.27c-.37 0-.67.12-.9.35-.23.23-.34.55-.34.95v2.88h-1.3v-5.09h1.27v.76c.17-.28.41-.5.7-.65s.62-.23.99-.23c.59 0 1.05.17 1.35.52zM336.68 374.88c-.38-.11-.7-.27-.96-.48l.36-.91c.54.4 1.16.59 1.86.59.3 0 .53-.05.68-.15.16-.1.23-.23.23-.42 0-.15-.05-.27-.16-.35-.11-.08-.3-.16-.58-.23l-.83-.19c-.47-.1-.82-.27-1.05-.51-.23-.23-.34-.54-.34-.91 0-.31.09-.59.27-.83.18-.24.42-.43.74-.56.32-.13.68-.2 1.1-.2.36 0 .71.05 1.05.17s.63.27.89.47l-.36.88c-.53-.38-1.05-.57-1.58-.57-.28 0-.51.05-.67.16a.49.49 0 0 0-.24.44c0 .14.05.25.15.34s.26.16.48.21l.86.2c.51.11.88.29 1.11.53.24.24.35.55.35.94 0 .47-.19.85-.57 1.12s-.9.42-1.55.42c-.45.01-.86-.05-1.24-.16zM342.18 374.73c-.39-.21-.69-.52-.91-.93-.22-.4-.32-.87-.32-1.4s.11-1 .32-1.4c.21-.4.52-.71.91-.92s.85-.32 1.37-.32.98.11 1.37.32.69.52.9.92.32.87.32 1.4-.11 1-.32 1.4-.51.71-.9.93-.85.32-1.37.32-.98-.11-1.37-.32zm2.32-1.11c.22-.28.33-.69.33-1.23 0-.53-.11-.94-.33-1.22-.22-.28-.54-.42-.96-.42s-.74.14-.96.42c-.23.28-.34.69-.34 1.22 0 .54.11.95.33 1.23.22.28.54.42.96.42.43 0 .75-.14.97-.42zM354.67 370.27c.28.34.43.87.43 1.58v3.12h-1.3v-3.07c0-.39-.07-.67-.2-.85-.13-.18-.34-.26-.63-.26-.35 0-.62.12-.81.35-.19.23-.29.56-.29.99v2.84h-1.3v-3.07c0-.39-.06-.67-.19-.85-.13-.18-.34-.26-.64-.26-.34 0-.61.12-.8.35-.19.23-.29.56-.29.99v2.84h-1.3v-5.09h1.27v.72c.15-.28.36-.49.63-.63s.58-.21.93-.21c.77 0 1.28.32 1.53.96.16-.3.39-.53.69-.7.3-.17.63-.25 1-.25.56-.01.99.16 1.27.5zM363.42 369.88h1.27l-2 5.09h-1.13l-1.25-3.28-1.22 3.28h-1.12l-2.01-5.09h1.33l1.3 3.54 1.3-3.54h.94l1.3 3.56 1.29-3.56zM369.37 370.28c.35.35.52.88.52 1.6v3.09h-1.24v-.78c-.12.27-.3.48-.56.63-.25.15-.55.23-.88.23-.34 0-.65-.07-.93-.21s-.5-.33-.66-.57c-.16-.24-.24-.51-.24-.81 0-.38.1-.67.29-.88s.5-.37.93-.47 1.02-.15 1.78-.15h.26v-.24c0-.35-.07-.6-.22-.75-.15-.15-.4-.23-.74-.23-.27 0-.55.05-.85.14s-.58.22-.87.39l-.36-.89c.28-.18.63-.33 1.03-.45s.78-.18 1.14-.18c.72.01 1.25.18 1.6.53zm-1.04 3.48c.22-.23.33-.53.33-.9v-.22h-.19c-.46 0-.83.02-1.08.06-.26.04-.44.11-.55.22-.11.1-.17.25-.17.43 0 .22.08.4.23.54.15.14.35.21.58.21.34.01.63-.1.85-.34zM374.7 370.84l-.76.07c-.86.09-1.29.53-1.29 1.31v2.74h-1.3v-5.09h1.24v.89c.26-.61.81-.94 1.63-1l.39-.03.09 1.11zM379.93 372.66h-3.46c.04.47.18.82.43 1.05.24.23.59.34 1.04.34.56 0 1.08-.18 1.54-.54l.37.89c-.24.19-.53.35-.89.47s-.72.18-1.08.18c-.83 0-1.49-.24-1.97-.71s-.72-1.12-.72-1.94c0-.52.1-.98.31-1.38s.5-.71.88-.94.81-.33 1.29-.33c.7 0 1.25.22 1.66.68.41.45.61 1.07.61 1.86v.37zm-3.08-1.66c-.21.22-.34.54-.39.96h2.35c-.01-.42-.12-.74-.31-.96s-.46-.33-.81-.33-.63.11-.84.33z"/><path class="st2" d="M62.14 91.24h29.23v266.38H62.14z"/><path class="st4" d="M95.77 91.24H125v266.38H95.77z"/><path class="st3" d="M27.89 73.51h29.23v284.1H27.89z"/><path class="st1" d="M35.19 59.31c.31.41.46.92.46 1.53 0 .86-.29 1.54-.88 2.03-.58.49-1.37.74-2.37.74-.63 0-1.25-.11-1.83-.32s-1.08-.51-1.48-.9l.43-.88c.9.76 1.85 1.13 2.86 1.13.7 0 1.23-.16 1.6-.47.36-.31.55-.77.55-1.38 0-1.2-.76-1.81-2.27-1.81h-1.13v-.97h.91c.73 0 1.29-.16 1.68-.48.39-.32.59-.79.59-1.39 0-.53-.16-.94-.48-1.23-.32-.28-.77-.43-1.36-.43-.95 0-1.89.38-2.8 1.13l-.43-.88c.4-.38.89-.68 1.47-.9.58-.21 1.18-.32 1.81-.32.9 0 1.61.23 2.13.68.53.45.79 1.06.79 1.83 0 .57-.14 1.07-.41 1.49s-.66.73-1.15.92c.56.18 1 .47 1.31.88zM43.54 62.55v.97h-6.36v-.87l3.46-3.81c.47-.52.81-.99 1.02-1.41.21-.42.31-.83.31-1.25 0-.54-.16-.96-.48-1.25-.32-.29-.77-.43-1.34-.43-.95 0-1.89.38-2.8 1.13l-.43-.88c.39-.37.88-.67 1.48-.89.59-.22 1.19-.33 1.79-.33.91 0 1.62.23 2.15.7.53.47.79 1.1.79 1.89 0 .57-.13 1.12-.38 1.64-.26.52-.68 1.11-1.27 1.75l-2.8 3.04h4.86zM45.1 58.8c-.42-.51-.63-1.26-.63-2.26 0-.99.21-1.74.63-2.25s1-.76 1.75-.76 1.33.25 1.75.76.63 1.26.63 2.25c0 1-.21 1.75-.63 2.26s-1 .76-1.75.76-1.33-.25-1.75-.76zm2.76-.58c.22-.35.33-.91.33-1.68 0-.76-.11-1.31-.33-1.67s-.56-.53-1.02-.53-.8.18-1.02.53-.34.91-.34 1.67c0 .77.11 1.33.34 1.68.22.36.56.53 1.02.53s.8-.17 1.02-.53zm-.16 5.64-.83-.48 5.84-10.09.83.48-5.84 10.09zm4.12-1.01c-.42-.51-.63-1.26-.63-2.26 0-.99.21-1.74.63-2.25s1-.76 1.75-.76c.76 0 1.34.25 1.76.76.42.5.62 1.25.62 2.25s-.21 1.75-.62 2.26c-.42.51-1 .76-1.76.76-.75 0-1.33-.25-1.75-.76zm2.78-.57c.22-.35.33-.91.33-1.69 0-.76-.11-1.31-.34-1.67s-.56-.53-1.02-.53c-.46 0-.8.18-1.02.53s-.33.91-.33 1.67c0 .77.11 1.33.33 1.68.22.36.56.53 1.02.53.46 0 .81-.17 1.03-.52zM68.77 77.03c.31.41.46.92.46 1.53 0 .86-.29 1.54-.88 2.03-.58.49-1.37.74-2.37.74-.63 0-1.25-.11-1.83-.32s-1.08-.51-1.48-.9l.43-.88c.9.76 1.85 1.13 2.86 1.13.7 0 1.23-.16 1.6-.47.36-.31.55-.77.55-1.38 0-1.2-.76-1.81-2.27-1.81H64.7v-.97h.91c.73 0 1.29-.16 1.68-.48.39-.32.59-.79.59-1.39 0-.53-.16-.94-.48-1.23-.32-.28-.77-.43-1.36-.43-.95 0-1.89.38-2.8 1.13l-.43-.88c.4-.38.89-.68 1.47-.9s1.18-.32 1.81-.32c.9 0 1.61.23 2.13.68.53.45.79 1.06.79 1.83 0 .57-.14 1.07-.41 1.49s-.66.73-1.15.92c.57.19 1.01.48 1.32.88zM71.87 80.06c-.59-.86-.88-2.11-.88-3.75 0-1.65.29-2.91.88-3.77s1.45-1.29 2.58-1.29c1.13 0 1.99.43 2.58 1.28.59.85.88 2.11.88 3.76s-.29 2.91-.88 3.77c-.59.86-1.45 1.29-2.58 1.29-1.14 0-2-.43-2.58-1.29zm4.31-.67c.37-.66.56-1.69.56-3.09 0-1.41-.18-2.44-.55-3.09s-.95-.97-1.74-.97c-.78 0-1.36.33-1.74.98-.37.65-.56 1.68-.56 3.08s.19 2.43.56 3.09c.37.66.95.99 1.74.99.78 0 1.35-.33 1.73-.99zM80 76.53c-.42-.51-.63-1.26-.63-2.26 0-.99.21-1.74.63-2.25s1-.76 1.75-.76 1.33.25 1.75.76.63 1.26.63 2.25c0 1-.21 1.75-.63 2.26-.42.51-1 .76-1.75.76s-1.33-.25-1.75-.76zm2.77-.58c.22-.35.33-.91.33-1.68 0-.76-.11-1.31-.33-1.67-.22-.35-.56-.53-1.02-.53s-.8.18-1.02.53c-.22.36-.34.91-.34 1.67 0 .77.11 1.33.34 1.68.22.36.56.53 1.02.53s.8-.18 1.02-.53zm-.17 5.64-.83-.48 5.84-10.09.83.48-5.84 10.09zm4.12-1.02c-.42-.51-.63-1.26-.63-2.26 0-.99.21-1.74.63-2.25.42-.51 1-.76 1.75-.76.76 0 1.34.25 1.76.76.42.5.62 1.25.62 2.25s-.21 1.75-.62 2.26c-.42.51-1 .76-1.76.76-.75.01-1.33-.25-1.75-.76zM89.5 80c.22-.35.33-.91.33-1.69 0-.76-.11-1.31-.34-1.67-.22-.36-.56-.53-1.02-.53-.46 0-.8.18-1.02.53-.22.35-.33.91-.33 1.67 0 .76.11 1.32.33 1.68.22.35.56.53 1.02.53.47 0 .81-.17 1.03-.52zM102.4 77.42c.31.41.46.92.46 1.53 0 .86-.29 1.54-.88 2.03-.58.49-1.37.74-2.37.74-.63 0-1.25-.11-1.83-.32s-1.08-.51-1.48-.9l.43-.88c.9.76 1.85 1.13 2.86 1.13.7 0 1.23-.16 1.6-.47.36-.31.55-.77.55-1.38 0-1.2-.76-1.81-2.27-1.81h-1.13v-.97h.91c.73 0 1.29-.16 1.68-.48.39-.32.59-.79.59-1.39 0-.53-.16-.94-.48-1.23-.32-.28-.77-.43-1.36-.43-.95 0-1.89.38-2.8 1.13l-.43-.88c.4-.38.89-.68 1.47-.9.58-.21 1.18-.32 1.81-.32.9 0 1.61.23 2.13.68.53.45.79 1.06.79 1.83 0 .57-.14 1.07-.41 1.49s-.66.73-1.15.92c.56.19 1 .48 1.31.88zM105.49 80.45c-.59-.86-.88-2.11-.88-3.75 0-1.65.29-2.91.88-3.77.59-.86 1.45-1.29 2.58-1.29 1.13 0 1.99.43 2.58 1.28.59.85.88 2.11.88 3.76s-.29 2.91-.88 3.77-1.45 1.29-2.58 1.29c-1.13 0-1.99-.43-2.58-1.29zm4.32-.67c.37-.66.56-1.69.56-3.09 0-1.41-.18-2.44-.55-3.09-.37-.65-.95-.97-1.74-.97-.78 0-1.36.33-1.74.98-.37.65-.56 1.68-.56 3.08 0 1.4.19 2.43.56 3.09.37.66.95.99 1.74.99.77 0 1.35-.33 1.73-.99zM113.63 76.92c-.42-.51-.63-1.26-.63-2.26 0-.99.21-1.74.63-2.25s1-.76 1.75-.76 1.33.25 1.75.76.63 1.26.63 2.25c0 1-.21 1.75-.63 2.26s-1 .76-1.75.76-1.33-.25-1.75-.76zm2.76-.58c.22-.35.33-.91.33-1.68 0-.76-.11-1.31-.33-1.67s-.56-.53-1.02-.53-.8.18-1.02.53-.34.91-.34 1.67c0 .77.11 1.33.34 1.68.22.36.56.53 1.02.53s.8-.18 1.02-.53zm-.16 5.64-.83-.48 5.84-10.09.83.48-5.84 10.09zm4.12-1.02c-.42-.51-.63-1.26-.63-2.26 0-.99.21-1.74.63-2.25s1-.76 1.75-.76c.76 0 1.34.25 1.76.76.42.5.62 1.25.62 2.25s-.21 1.75-.62 2.26c-.42.51-1 .76-1.76.76-.75.01-1.33-.25-1.75-.76zm2.78-.57c.22-.35.33-.91.33-1.69 0-.76-.11-1.31-.34-1.67s-.56-.53-1.02-.53c-.46 0-.8.18-1.02.53s-.33.91-.33 1.67c0 .77.11 1.33.33 1.68.22.36.56.53 1.02.53.46 0 .81-.17 1.03-.52zM169.62 195.48h2.17v.97h-5.49v-.97h2.17V188l-1.74 1.09-.53-.88 2.59-1.64h.83v8.91zM173.12 186.57h6.52v.85l-4.62 9.02h-1.25l4.61-8.9h-5.26v-.97zM181.28 191.73c-.42-.51-.63-1.26-.63-2.26 0-.99.21-1.74.63-2.25.42-.51 1-.76 1.75-.76s1.33.25 1.75.76c.42.51.63 1.26.63 2.25 0 1-.21 1.75-.63 2.26s-1 .76-1.75.76-1.33-.25-1.75-.76zm2.76-.58c.22-.35.33-.91.33-1.68 0-.76-.11-1.31-.33-1.67-.22-.36-.56-.53-1.02-.53s-.8.18-1.02.53c-.22.35-.34.91-.34 1.67 0 .77.11 1.33.34 1.68.22.36.56.53 1.02.53s.8-.17 1.02-.53zm-.16 5.64-.83-.48 5.84-10.09.83.48-5.84 10.09zm4.12-1.01c-.42-.51-.63-1.26-.63-2.26 0-.99.21-1.74.63-2.25s1-.76 1.75-.76c.76 0 1.34.25 1.76.76.42.5.62 1.26.62 2.25s-.21 1.75-.62 2.26c-.42.51-1 .76-1.76.76-.75 0-1.33-.25-1.75-.76zm2.78-.58c.22-.35.33-.91.33-1.69 0-.76-.11-1.31-.34-1.67s-.56-.53-1.02-.53c-.46 0-.8.18-1.02.53s-.33.91-.33 1.67c0 .76.11 1.33.33 1.68s.56.53 1.02.53c.46.01.81-.17 1.03-.52zM205.62 115.72v.97h-6.36v-.87l3.46-3.81c.47-.52.81-.99 1.02-1.41.21-.42.31-.83.31-1.25 0-.54-.16-.96-.48-1.25-.32-.29-.77-.43-1.34-.43-.95 0-1.89.38-2.8 1.13l-.43-.88c.39-.37.88-.67 1.48-.89.59-.22 1.19-.33 1.79-.33.91 0 1.62.23 2.15.7.53.47.79 1.1.79 1.89 0 .57-.13 1.12-.38 1.64-.26.52-.68 1.11-1.27 1.75l-2.8 3.04h4.86zM212.65 110.88c.47.26.83.63 1.09 1.11.26.48.39 1.02.39 1.64 0 .61-.14 1.15-.41 1.64-.27.49-.65.86-1.13 1.13-.49.27-1.03.41-1.64.41-1.19 0-2.12-.42-2.77-1.25-.65-.83-.97-2.02-.97-3.56 0-1.11.15-2.06.45-2.86.3-.79.74-1.4 1.31-1.81.57-.42 1.25-.62 2.04-.62.57 0 1.12.1 1.67.31.54.21 1.02.51 1.43.9l-.43.88c-.47-.39-.91-.68-1.34-.86-.42-.18-.86-.27-1.29-.27-.85 0-1.51.38-1.98 1.13-.47.75-.71 1.81-.71 3.18v.21c.21-.52.56-.94 1.04-1.25.48-.31 1.03-.46 1.65-.46.6 0 1.13.13 1.6.4zm-.23 4.35c.38-.4.57-.93.57-1.6 0-.65-.19-1.18-.58-1.58s-.9-.6-1.53-.6c-.64 0-1.17.2-1.58.61-.41.41-.61.93-.61 1.58s.2 1.18.61 1.59c.41.41.94.61 1.59.61.64-.01 1.15-.21 1.53-.61zM216.17 111.98c-.42-.51-.63-1.26-.63-2.26 0-.99.21-1.74.63-2.25s1-.76 1.75-.76 1.33.25 1.75.76.63 1.26.63 2.25c0 1-.21 1.75-.63 2.26s-1 .76-1.75.76-1.33-.26-1.75-.76zm2.77-.59c.22-.35.33-.91.33-1.68 0-.76-.11-1.31-.33-1.67s-.56-.53-1.02-.53-.8.18-1.02.53-.34.91-.34 1.67c0 .77.11 1.33.34 1.68.22.36.56.53 1.02.53s.8-.17 1.02-.53zm-.16 5.65-.83-.48 5.84-10.09.83.48-5.84 10.09zm4.11-1.02c-.42-.51-.63-1.26-.63-2.26 0-.99.21-1.74.63-2.25s1-.76 1.75-.76c.76 0 1.34.25 1.76.76.42.5.62 1.25.62 2.25s-.21 1.75-.62 2.26c-.42.51-1 .76-1.76.76-.74 0-1.33-.25-1.75-.76zm2.78-.57c.22-.35.33-.91.33-1.69 0-.76-.11-1.31-.34-1.67s-.56-.53-1.02-.53c-.46 0-.8.18-1.02.53s-.33.91-.33 1.67c0 .77.11 1.33.33 1.68.22.36.56.53 1.02.53.47 0 .81-.17 1.03-.52zM240.03 107.12v.97h-6.36v-.87l3.46-3.81c.47-.52.81-.99 1.02-1.41.21-.42.31-.83.31-1.25 0-.54-.16-.96-.48-1.25-.32-.29-.77-.43-1.34-.43-.95 0-1.89.38-2.8 1.13l-.43-.88c.39-.37.88-.67 1.48-.89.59-.22 1.19-.33 1.79-.33.91 0 1.62.23 2.15.7.53.47.79 1.1.79 1.89 0 .57-.13 1.12-.38 1.64-.26.52-.68 1.11-1.27 1.75l-2.8 3.04h4.86zM241.78 98.21h6.52v.85l-4.62 9.02h-1.25l4.61-8.9h-5.26v-.97zM250.6 103.37c-.42-.51-.63-1.26-.63-2.26 0-.99.21-1.74.63-2.25s1-.76 1.75-.76 1.33.25 1.75.76.63 1.26.63 2.25c0 1-.21 1.75-.63 2.26s-1 .76-1.75.76-1.33-.25-1.75-.76zm2.76-.58c.22-.35.33-.91.33-1.68 0-.76-.11-1.31-.33-1.67s-.56-.53-1.02-.53-.8.18-1.02.53-.34.91-.34 1.67c0 .77.11 1.33.34 1.68.22.36.56.53 1.02.53s.8-.17 1.02-.53zm-.16 5.65-.83-.48 5.84-10.09.83.48-5.84 10.09zm4.12-1.02c-.42-.51-.63-1.26-.63-2.26 0-.99.21-1.74.63-2.25s1-.76 1.75-.76c.76 0 1.34.25 1.76.76.42.5.62 1.25.62 2.25s-.21 1.75-.62 2.26c-.42.51-1 .76-1.76.76-.75 0-1.33-.25-1.75-.76zm2.78-.57c.22-.35.33-.91.33-1.69 0-.76-.11-1.31-.34-1.67s-.56-.53-1.02-.53c-.46 0-.8.18-1.02.53s-.33.91-.33 1.67c0 .77.11 1.33.33 1.68.22.36.56.53 1.02.53.46 0 .81-.17 1.03-.52z"/><path class="st2" d="M198.32 126.69h29.23v230.93h-29.23z"/><path class="st4" d="M232.73 117.82h29.23v239.79h-29.23z"/><path class="st3" d="M164.07 206.44h29.23v151.17h-29.23zM246.47 405.9h11.7v11.7h-11.7z"/><path class="st2" d="M320.08 405.9h11.7v11.7h-11.7z"/><path class="st1" d="M268.51 414.95c.12.11.24.27.36.47l.7 1.12-.72.37-.86-1.4c-.24-.39-.63-.59-1.17-.59-.68 0-1.27-.15-1.77-.46-.5-.31-.89-.74-1.16-1.3s-.41-1.22-.41-1.99.13-1.44.4-2 .65-1 1.15-1.3c.5-.3 1.1-.45 1.78-.45.68 0 1.27.15 1.77.45a3 3 0 0 1 1.16 1.3c.27.57.41 1.23.41 1.99 0 .89-.18 1.64-.54 2.25-.36.61-.86 1.04-1.52 1.29.16.05.3.13.42.25zm-3.5-1.55c.43.53 1.04.79 1.81.79s1.38-.26 1.81-.79c.43-.52.65-1.27.65-2.24s-.21-1.72-.64-2.24c-.43-.52-1.04-.78-1.82-.78s-1.38.26-1.81.79c-.43.52-.65 1.27-.65 2.23s.21 1.71.65 2.24zM274.56 414.12h1.61v.72h-4.08v-.72h1.61v-5.55l-1.29.81-.4-.66 1.92-1.22h.61v6.62zM285.27 414.12v.72h-4.72v-.64l2.57-2.83c.35-.39.6-.74.75-1.04.16-.31.23-.62.23-.93 0-.4-.12-.71-.35-.93-.24-.21-.57-.32-1-.32-.71 0-1.4.28-2.08.84l-.32-.66c.29-.28.66-.5 1.1-.66.44-.16.88-.24 1.33-.24.67 0 1.21.17 1.6.52s.59.82.59 1.4c0 .42-.1.83-.29 1.22-.19.39-.5.82-.94 1.3l-2.08 2.26h3.61zM287.17 413.96c-.44-.64-.66-1.57-.66-2.79 0-1.23.22-2.16.66-2.8.44-.64 1.07-.96 1.91-.96s1.48.32 1.91.95c.44.63.66 1.57.66 2.79 0 1.23-.22 2.16-.66 2.8-.44.64-1.07.96-1.91.96s-1.48-.31-1.91-.95zm3.2-.5c.28-.49.42-1.26.42-2.3 0-1.05-.14-1.81-.41-2.29-.27-.48-.71-.72-1.29-.72-.58 0-1.01.24-1.29.73s-.42 1.25-.42 2.29.14 1.81.42 2.3c.28.49.71.74 1.29.74s1-.25 1.28-.75zM297.78 414.12v.72h-4.72v-.64l2.57-2.83c.35-.39.6-.74.75-1.04.16-.31.23-.62.23-.93 0-.4-.12-.71-.35-.93-.24-.21-.57-.32-1-.32-.71 0-1.4.28-2.08.84l-.32-.66c.29-.28.66-.5 1.1-.66.44-.16.88-.24 1.33-.24.67 0 1.21.17 1.6.52s.59.82.59 1.4c0 .42-.1.83-.29 1.22-.19.39-.5.82-.94 1.3l-2.08 2.26h3.61zM303.91 414.12v.72h-4.72v-.64l2.57-2.83c.35-.39.6-.74.75-1.04.16-.31.23-.62.23-.93 0-.4-.12-.71-.35-.93-.24-.21-.57-.32-1-.32-.71 0-1.4.28-2.08.84l-.32-.66c.29-.28.66-.5 1.1-.66.44-.16.88-.24 1.33-.24.67 0 1.21.17 1.6.52s.59.82.59 1.4c0 .42-.1.83-.29 1.22-.19.39-.5.82-.94 1.3l-2.08 2.26h3.61zM342.12 414.95c.12.11.24.27.36.47l.7 1.12-.72.37-.86-1.4c-.24-.39-.63-.59-1.17-.59-.68 0-1.27-.15-1.77-.46-.5-.31-.89-.74-1.16-1.3s-.41-1.22-.41-1.99.13-1.44.4-2 .65-1 1.15-1.3c.5-.3 1.1-.45 1.78-.45.68 0 1.27.15 1.77.45a3 3 0 0 1 1.16 1.3c.27.57.41 1.23.41 1.99 0 .89-.18 1.64-.54 2.25-.36.61-.86 1.04-1.52 1.29.17.05.3.13.42.25zm-3.5-1.55c.43.53 1.04.79 1.81.79s1.38-.26 1.81-.79c.43-.52.65-1.27.65-2.24s-.21-1.72-.64-2.24c-.43-.52-1.04-.78-1.82-.78s-1.38.26-1.81.79c-.43.52-.65 1.27-.65 2.23s.22 1.71.65 2.24zM350.2 414.12v.72h-4.72v-.64l2.57-2.83c.35-.39.6-.74.75-1.04.16-.31.23-.62.23-.93 0-.4-.12-.71-.35-.93-.24-.21-.57-.32-1-.32-.71 0-1.4.28-2.08.84l-.32-.66c.29-.28.66-.5 1.1-.66.44-.16.88-.24 1.33-.24.67 0 1.21.17 1.6.52s.59.82.59 1.4c0 .42-.1.83-.29 1.22-.19.39-.5.82-.94 1.3l-2.08 2.26h3.61zM359.12 414.12v.72h-4.72v-.64l2.57-2.83c.35-.39.6-.74.75-1.04s.23-.62.23-.93c0-.4-.12-.71-.35-.93-.24-.21-.57-.32-1-.32-.71 0-1.4.28-2.08.84l-.32-.66c.29-.28.66-.5 1.1-.66.44-.16.88-.24 1.33-.24.67 0 1.21.17 1.6.52s.59.82.59 1.4c0 .42-.1.83-.29 1.22s-.5.82-.94 1.3l-2.08 2.26h3.61zM361.02 413.96c-.44-.64-.66-1.57-.66-2.79 0-1.23.22-2.16.66-2.8.44-.64 1.07-.96 1.91-.96s1.48.32 1.91.95c.44.63.66 1.57.66 2.79 0 1.23-.22 2.16-.66 2.8-.44.64-1.08.96-1.91.96s-1.48-.31-1.91-.95zm3.2-.5c.28-.49.42-1.26.42-2.3 0-1.05-.14-1.81-.41-2.29-.27-.48-.71-.72-1.29-.72-.58 0-1.01.24-1.29.73s-.42 1.25-.42 2.29.14 1.81.42 2.3c.28.49.71.74 1.29.74.57-.01 1-.25 1.28-.75zM371.63 414.12v.72h-4.72v-.64l2.57-2.83c.35-.39.6-.74.75-1.04.16-.31.23-.62.23-.93 0-.4-.12-.71-.35-.93s-.57-.32-1-.32c-.71 0-1.4.28-2.08.84l-.32-.66c.29-.28.66-.5 1.1-.66s.88-.24 1.33-.24c.67 0 1.21.17 1.6.52s.59.82.59 1.4c0 .42-.09.83-.29 1.22-.19.39-.5.82-.94 1.3l-2.08 2.26h3.61zM377.76 414.12v.72h-4.72v-.64l2.57-2.83c.35-.39.6-.74.75-1.04s.23-.62.23-.93c0-.4-.12-.71-.35-.93-.24-.21-.57-.32-1-.32-.71 0-1.4.28-2.08.84l-.32-.66c.29-.28.66-.5 1.1-.66.44-.16.88-.24 1.33-.24.67 0 1.21.17 1.6.52s.59.82.59 1.4c0 .42-.1.83-.29 1.22s-.5.82-.94 1.3l-2.08 2.26h3.61z"/><path class="st4" d="M395.22 405.9h11.7v11.7h-11.7z"/><path class="st1" d="M417.25 414.95c.12.11.24.27.36.47l.7 1.12-.72.37-.86-1.4c-.24-.39-.63-.59-1.17-.59-.68 0-1.27-.15-1.77-.46-.5-.31-.89-.74-1.16-1.3s-.41-1.22-.41-1.99.13-1.44.4-2 .65-1 1.15-1.3c.5-.3 1.1-.45 1.78-.45.68 0 1.27.15 1.77.45a3 3 0 0 1 1.16 1.3c.27.57.41 1.23.41 1.99 0 .89-.18 1.64-.54 2.25-.36.61-.87 1.04-1.52 1.29.17.05.31.13.42.25zm-3.49-1.55c.43.53 1.04.79 1.81.79s1.38-.26 1.81-.79.65-1.27.65-2.24-.21-1.72-.64-2.24c-.43-.52-1.04-.78-1.82-.78s-1.38.26-1.81.79c-.43.52-.65 1.27-.65 2.23s.21 1.71.65 2.24zM424.85 411.71c.23.3.34.68.34 1.14 0 .64-.22 1.14-.65 1.51-.43.37-1.02.55-1.76.55-.47 0-.93-.08-1.36-.24-.44-.16-.8-.38-1.1-.67l.32-.66c.67.56 1.37.84 2.12.84.52 0 .92-.12 1.19-.35s.41-.57.41-1.02c0-.89-.56-1.34-1.68-1.34h-.84v-.72h.68c.54 0 .96-.12 1.25-.36.29-.24.44-.58.44-1.04 0-.39-.12-.7-.35-.91-.24-.21-.57-.32-1.01-.32-.71 0-1.4.28-2.08.84l-.32-.66c.3-.28.66-.51 1.09-.67s.88-.24 1.34-.24c.67 0 1.19.17 1.59.5.39.34.59.79.59 1.36 0 .42-.1.79-.31 1.11-.2.32-.49.54-.86.68.4.16.73.37.96.67zM434.26 414.12v.72h-4.72v-.64l2.57-2.83c.35-.39.6-.74.75-1.04.16-.31.23-.62.23-.93 0-.4-.12-.71-.35-.93s-.57-.32-1-.32c-.71 0-1.4.28-2.08.84l-.32-.66c.29-.28.66-.5 1.1-.66s.88-.24 1.33-.24c.67 0 1.21.17 1.6.52s.59.82.59 1.4c0 .42-.09.83-.29 1.22-.19.39-.5.82-.94 1.3l-2.08 2.26h3.61zM436.15 413.96c-.44-.64-.66-1.57-.66-2.79 0-1.23.22-2.16.66-2.8.44-.64 1.08-.96 1.91-.96s1.48.32 1.91.95c.44.63.66 1.57.66 2.79 0 1.23-.22 2.16-.66 2.8-.44.64-1.07.96-1.91.96s-1.47-.31-1.91-.95zm3.2-.5c.28-.49.42-1.26.42-2.3 0-1.05-.14-1.81-.41-2.29-.27-.48-.71-.72-1.29-.72-.58 0-1.01.24-1.29.73s-.42 1.25-.42 2.29.14 1.81.42 2.3.71.74 1.29.74c.58-.01 1.01-.25 1.28-.75zM446.77 414.12v.72h-4.72v-.64l2.57-2.83c.35-.39.6-.74.75-1.04s.23-.62.23-.93c0-.4-.12-.71-.35-.93-.24-.21-.57-.32-1-.32-.71 0-1.4.28-2.08.84l-.32-.66c.29-.28.66-.5 1.1-.66.44-.16.88-.24 1.33-.24.67 0 1.21.17 1.6.52s.59.82.59 1.4c0 .42-.1.83-.29 1.22s-.5.82-.94 1.3l-2.08 2.26h3.61zM452.9 414.12v.72h-4.72v-.64l2.57-2.83c.35-.39.6-.74.75-1.04.16-.31.23-.62.23-.93 0-.4-.12-.71-.35-.93s-.57-.32-1-.32c-.71 0-1.4.28-2.08.84l-.32-.66c.29-.28.66-.5 1.1-.66s.88-.24 1.33-.24c.67 0 1.21.17 1.6.52s.59.82.59 1.4c0 .42-.09.83-.29 1.22-.19.39-.5.82-.94 1.3l-2.08 2.26h3.61zM29.91 374.97v-7.33h4.91v1.06h-3.6v2.02h3.39v1.05h-3.39v2.14h3.6v1.06h-4.91zM43.39 370.27c.28.34.43.87.43 1.58v3.12h-1.3v-3.07c0-.39-.07-.67-.2-.85-.13-.18-.34-.26-.63-.26-.35 0-.62.12-.81.35-.19.23-.29.56-.29.99v2.84h-1.3v-3.07c0-.39-.06-.67-.19-.85-.13-.18-.34-.26-.64-.26-.34 0-.61.12-.8.35-.19.23-.29.56-.29.99v2.84h-1.3v-5.09h1.27v.72c.15-.28.36-.49.63-.63s.58-.21.93-.21c.77 0 1.28.32 1.53.96.16-.3.39-.53.69-.7.3-.17.63-.25 1-.25.55-.01.98.16 1.27.5zM49.05 370.28c.35.35.52.88.52 1.6v3.09h-1.24v-.78c-.12.27-.3.48-.56.63-.25.15-.55.23-.88.23-.34 0-.65-.07-.93-.21s-.5-.33-.65-.57c-.16-.24-.24-.51-.24-.81 0-.38.1-.67.29-.88.19-.21.5-.37.93-.47.43-.1 1.02-.15 1.78-.15h.26v-.24c0-.35-.07-.6-.22-.75-.15-.15-.4-.23-.74-.23-.27 0-.55.05-.85.14-.29.09-.58.22-.87.39l-.36-.89c.28-.18.63-.33 1.03-.45s.78-.18 1.14-.18c.71.01 1.24.18 1.59.53zM48 373.76c.22-.23.33-.53.33-.9v-.22h-.19c-.46 0-.83.02-1.08.06-.26.04-.44.11-.55.22-.11.1-.17.25-.17.43 0 .22.08.4.23.54.15.14.35.21.58.21.35.01.63-.1.85-.34zM50.95 367.52h1.44v1.28h-1.44v-1.28zm.07 7.45v-5.09h1.3v5.09h-1.3zM53.8 374.97v-7.33h1.3v7.33h-1.3zM61.08 374.6c-.54-.31-.95-.75-1.24-1.31s-.43-1.23-.43-1.99.14-1.42.43-1.98.7-1 1.24-1.31c.54-.31 1.17-.46 1.89-.46.49 0 .96.08 1.39.23.44.15.8.37 1.1.65l-.45.98c-.33-.26-.66-.46-.99-.58-.33-.12-.67-.18-1.04-.18-.71 0-1.25.23-1.64.69-.38.46-.58 1.12-.58 1.98 0 .87.19 1.53.58 1.99.39.46.93.69 1.64.69.37 0 .71-.06 1.04-.18.33-.12.66-.31.99-.58l.45.98c-.3.28-.67.49-1.1.64-.44.15-.9.23-1.39.23-.72-.03-1.35-.19-1.89-.49zM67.67 374.73c-.39-.21-.69-.52-.91-.93-.22-.4-.32-.87-.32-1.4s.11-1 .32-1.4c.21-.4.52-.71.91-.92s.85-.32 1.37-.32.98.11 1.37.32.69.52.9.92.32.87.32 1.4-.11 1-.32 1.4-.51.71-.9.93-.85.32-1.37.32-.98-.11-1.37-.32zm2.32-1.11c.22-.28.33-.69.33-1.23 0-.53-.11-.94-.33-1.22-.22-.28-.54-.42-.96-.42s-.74.14-.96.42c-.23.28-.34.69-.34 1.22 0 .54.11.95.33 1.23.22.28.54.42.96.42.43 0 .75-.14.97-.42zM80.16 370.27c.28.34.43.87.43 1.58v3.12h-1.3v-3.07c0-.39-.07-.67-.2-.85-.13-.18-.34-.26-.63-.26-.35 0-.62.12-.81.35-.19.23-.29.56-.29.99v2.84h-1.3v-3.07c0-.39-.06-.67-.19-.85-.13-.18-.34-.26-.64-.26-.34 0-.61.12-.8.35-.19.23-.29.56-.29.99v2.84h-1.3v-5.09h1.27v.72c.15-.28.36-.49.63-.63s.58-.21.93-.21c.77 0 1.28.32 1.53.96.16-.3.39-.53.69-.7.3-.17.63-.25 1-.25.56-.01.99.16 1.27.5zM86.14 370.09c.34.22.61.54.8.94.19.4.29.87.29 1.4s-.1.99-.29 1.38c-.19.4-.46.7-.8.92s-.73.32-1.17.32c-.36 0-.68-.08-.97-.23-.28-.15-.5-.37-.66-.63v2.65h-1.3v-6.96h1.28v.77c.15-.28.37-.5.66-.66.29-.16.62-.23.98-.23.44 0 .83.11 1.18.33zm-.56 3.53c.23-.28.34-.68.34-1.19 0-.53-.11-.94-.34-1.23-.23-.29-.55-.44-.96-.44-.42 0-.74.14-.96.43-.23.29-.34.69-.34 1.22 0 .52.11.92.34 1.21.23.29.55.43.96.43.41-.01.73-.15.96-.43zM91.78 370.84l-.76.07c-.86.09-1.29.53-1.29 1.31v2.74h-1.3v-5.09h1.24v.89c.26-.61.81-.94 1.63-1l.4-.03.08 1.11zM93.5 374.73c-.39-.21-.69-.52-.91-.93-.22-.4-.32-.87-.32-1.4s.11-1 .32-1.4c.21-.4.52-.71.91-.92s.85-.32 1.37-.32.98.11 1.37.32.69.52.9.92.32.87.32 1.4-.11 1-.32 1.4-.51.71-.9.93-.85.32-1.37.32-.98-.11-1.37-.32zm2.32-1.11c.22-.28.33-.69.33-1.23 0-.53-.11-.94-.33-1.22-.22-.28-.54-.42-.96-.42s-.74.14-.96.42c-.23.28-.34.69-.34 1.22 0 .54.11.95.33 1.23.22.28.54.42.96.42.43 0 .75-.14.97-.42zM106 370.27c.28.34.43.87.43 1.58v3.12h-1.3v-3.07c0-.39-.07-.67-.2-.85-.13-.18-.34-.26-.63-.26-.35 0-.62.12-.81.35-.19.23-.29.56-.29.99v2.84h-1.3v-3.07c0-.39-.06-.67-.19-.85-.13-.18-.34-.26-.64-.26-.34 0-.61.12-.8.35-.19.23-.29.56-.29.99v2.84h-1.3v-5.09h1.27v.72c.15-.28.36-.49.63-.63s.58-.21.93-.21c.77 0 1.28.32 1.53.96.16-.3.39-.53.69-.7.3-.17.63-.25 1-.25.55-.01.98.16 1.27.5zM107.8 367.52h1.44v1.28h-1.44v-1.28zm.08 7.45v-5.09h1.3v5.09h-1.3zM111.28 374.88c-.38-.11-.7-.27-.96-.48l.36-.91c.54.4 1.16.59 1.86.59.3 0 .53-.05.68-.15.16-.1.23-.23.23-.42 0-.15-.05-.27-.16-.35-.11-.08-.3-.16-.58-.23l-.83-.19c-.47-.1-.82-.27-1.05-.51-.23-.23-.34-.54-.34-.91 0-.31.09-.59.27-.83.18-.24.42-.43.74-.56.32-.13.68-.2 1.1-.2.36 0 .71.05 1.05.17s.63.27.89.47l-.36.88c-.53-.38-1.05-.57-1.58-.57-.28 0-.51.05-.67.16a.49.49 0 0 0-.24.44c0 .14.05.25.15.34s.26.16.48.21l.86.2c.51.11.88.29 1.11.53.24.24.35.55.35.94 0 .47-.19.85-.57 1.12s-.9.42-1.55.42c-.44.01-.86-.05-1.24-.16zM120.3 372.66h-3.46c.04.47.18.82.43 1.05s.59.34 1.04.34c.56 0 1.07-.18 1.54-.54l.37.89c-.24.19-.53.35-.89.47s-.72.18-1.08.18c-.83 0-1.49-.24-1.97-.71s-.72-1.12-.72-1.94c0-.52.1-.98.31-1.38s.5-.71.88-.94.81-.33 1.28-.33c.7 0 1.25.22 1.66.68.41.45.61 1.07.61 1.86v.37zm-3.08-1.66c-.21.22-.34.54-.39.96h2.35c-.01-.42-.12-.74-.31-.96-.19-.22-.46-.33-.81-.33s-.63.11-.84.33zM308.33 59.31c.31.41.46.92.46 1.53 0 .86-.29 1.54-.88 2.03-.58.49-1.37.74-2.37.74-.63 0-1.25-.11-1.83-.32s-1.08-.51-1.48-.9l.43-.88c.9.76 1.85 1.13 2.86 1.13.7 0 1.23-.16 1.6-.47.36-.31.55-.77.55-1.38 0-1.2-.76-1.81-2.27-1.81h-1.13v-.97h.91c.73 0 1.29-.16 1.68-.48.39-.32.59-.79.59-1.39 0-.53-.16-.94-.48-1.23-.32-.28-.77-.43-1.36-.43-.95 0-1.89.38-2.8 1.13l-.43-.88c.4-.38.89-.68 1.47-.9.58-.21 1.18-.32 1.81-.32.9 0 1.61.23 2.13.68.53.45.79 1.06.79 1.83 0 .57-.14 1.07-.41 1.49s-.66.73-1.15.92c.56.18 1.01.47 1.31.88zM316.69 62.55v.97h-6.36v-.87l3.46-3.81c.47-.52.81-.99 1.02-1.41.21-.42.31-.83.31-1.25 0-.54-.16-.96-.48-1.25-.32-.29-.77-.43-1.34-.43-.95 0-1.89.38-2.8 1.13l-.43-.88c.39-.37.88-.67 1.48-.89.59-.22 1.19-.33 1.79-.33.91 0 1.62.23 2.15.7.53.47.79 1.1.79 1.89 0 .57-.13 1.12-.38 1.64-.26.52-.68 1.11-1.27 1.75l-2.8 3.04h4.86zM318.25 58.8c-.42-.51-.63-1.26-.63-2.26 0-.99.21-1.74.63-2.25s1-.76 1.75-.76 1.33.25 1.75.76.63 1.26.63 2.25c0 1-.21 1.75-.63 2.26s-1 .76-1.75.76-1.33-.25-1.75-.76zm2.76-.58c.22-.35.33-.91.33-1.68 0-.76-.11-1.31-.33-1.67s-.56-.53-1.02-.53-.8.18-1.02.53-.34.91-.34 1.67c0 .77.11 1.33.34 1.68.22.36.56.53 1.02.53s.8-.17 1.02-.53zm-.16 5.64-.83-.48 5.84-10.09.83.48-5.84 10.09zm4.12-1.01c-.42-.51-.63-1.26-.63-2.26 0-.99.21-1.74.63-2.25s1-.76 1.75-.76c.76 0 1.34.25 1.76.76.42.5.62 1.25.62 2.25s-.21 1.75-.62 2.26c-.42.51-1 .76-1.76.76-.75 0-1.33-.25-1.75-.76zm2.78-.57c.22-.35.33-.91.33-1.69 0-.76-.11-1.31-.34-1.67s-.56-.53-1.02-.53c-.46 0-.8.18-1.02.53s-.33.91-.33 1.67c0 .77.11 1.33.33 1.68.22.36.56.53 1.02.53.46 0 .81-.17 1.03-.52zM341.92 50.45c.31.41.46.92.46 1.53 0 .86-.29 1.54-.88 2.03-.58.5-1.37.74-2.37.74-.63 0-1.25-.11-1.83-.32-.59-.21-1.08-.51-1.48-.9l.43-.88c.9.76 1.85 1.13 2.86 1.13.7 0 1.23-.16 1.6-.47.36-.31.55-.77.55-1.38 0-1.2-.76-1.81-2.27-1.81h-1.13v-.97h.91c.73 0 1.29-.16 1.68-.48.39-.32.59-.79.59-1.39 0-.53-.16-.94-.48-1.22-.32-.29-.77-.43-1.36-.43-.95 0-1.89.38-2.8 1.13l-.43-.88c.4-.38.89-.68 1.47-.9s1.18-.32 1.81-.32c.9 0 1.61.23 2.13.68.53.45.79 1.06.79 1.83 0 .57-.14 1.07-.41 1.49s-.66.73-1.15.92c.56.17 1 .46 1.31.87zM350.28 50.45c.31.41.46.92.46 1.53 0 .86-.29 1.54-.88 2.03-.58.5-1.37.74-2.37.74-.63 0-1.25-.11-1.83-.32-.59-.21-1.08-.51-1.48-.9l.43-.88c.9.76 1.85 1.13 2.86 1.13.7 0 1.23-.16 1.6-.47.36-.31.55-.77.55-1.38 0-1.2-.76-1.81-2.27-1.81h-1.13v-.97h.91c.73 0 1.29-.16 1.68-.48.39-.32.59-.79.59-1.39 0-.53-.16-.94-.48-1.22-.32-.29-.77-.43-1.36-.43-.95 0-1.89.38-2.8 1.13l-.43-.88c.4-.38.89-.68 1.47-.9s1.18-.32 1.81-.32c.9 0 1.61.23 2.13.68.53.45.79 1.06.79 1.83 0 .57-.14 1.07-.41 1.49s-.66.73-1.15.92c.56.17 1 .46 1.31.87zM353.15 49.94c-.42-.51-.63-1.26-.63-2.26 0-.99.21-1.74.63-2.25.42-.51 1-.76 1.75-.76s1.33.25 1.75.76c.42.51.63 1.26.63 2.25 0 1-.21 1.75-.63 2.26s-1 .76-1.75.76-1.33-.25-1.75-.76zm2.76-.58c.22-.35.33-.92.33-1.68 0-.76-.11-1.31-.33-1.67-.22-.35-.56-.53-1.01-.53-.46 0-.8.18-1.02.53-.22.36-.34.91-.34 1.67 0 .77.11 1.33.34 1.68.22.35.56.53 1.02.53.46 0 .79-.17 1.01-.53zm-.16 5.64-.83-.48 5.84-10.09.83.48L355.75 55zm4.12-1.01c-.42-.51-.63-1.26-.63-2.26 0-.99.21-1.74.63-2.25s1-.76 1.75-.76c.76 0 1.34.25 1.76.76.42.5.62 1.26.62 2.25 0 1-.21 1.75-.62 2.26s-1 .76-1.76.76c-.75 0-1.33-.25-1.75-.76zm2.78-.58c.22-.35.33-.91.33-1.69 0-.76-.11-1.31-.34-1.67-.22-.36-.57-.53-1.02-.53s-.8.18-1.01.53c-.22.35-.33.91-.33 1.67 0 .76.11 1.33.33 1.68.22.35.56.53 1.01.53.46.01.81-.17 1.03-.52zM376.21 124.58v.97h-6.36v-.87l3.46-3.81c.47-.52.81-.99 1.02-1.41.21-.42.31-.83.31-1.25 0-.54-.16-.96-.48-1.25-.32-.29-.77-.43-1.34-.43-.95 0-1.89.38-2.8 1.13l-.43-.88c.39-.37.88-.67 1.48-.89.59-.22 1.19-.33 1.79-.33.91 0 1.62.23 2.15.7s.79 1.1.79 1.89c0 .57-.13 1.12-.38 1.64-.26.52-.68 1.11-1.27 1.75l-2.8 3.04h4.86zM383.27 119.75c.46.26.82.63 1.07 1.1.25.47.38 1.01.38 1.63 0 .62-.14 1.18-.41 1.65s-.67.85-1.17 1.11c-.5.27-1.09.4-1.76.4-.6 0-1.19-.11-1.77-.33-.58-.22-1.08-.52-1.48-.89l.43-.88c.92.76 1.85 1.13 2.81 1.13.69 0 1.23-.2 1.62-.59.39-.39.59-.92.59-1.6 0-.65-.19-1.18-.58-1.58-.39-.4-.9-.6-1.55-.6-.94 0-1.69.38-2.25 1.15h-.8v-5.78h5.92v.95h-4.79v3.51c.26-.25.57-.45.93-.58.36-.13.75-.2 1.17-.2.63.01 1.18.14 1.64.4zM386.78 120.84c-.42-.51-.63-1.26-.63-2.26 0-.99.21-1.74.63-2.25.42-.51 1-.76 1.75-.76s1.33.25 1.75.76c.42.51.63 1.26.63 2.25 0 1-.21 1.75-.63 2.26s-1 .76-1.75.76-1.33-.25-1.75-.76zm2.76-.58c.22-.35.33-.91.33-1.68 0-.76-.11-1.31-.33-1.67-.22-.36-.56-.53-1.02-.53-.46 0-.8.18-1.02.53-.22.35-.34.91-.34 1.67 0 .77.11 1.33.34 1.68.22.36.56.53 1.02.53.46 0 .8-.18 1.02-.53zm-.16 5.64-.83-.48 5.84-10.09.83.48-5.84 10.09zm4.12-1.02c-.42-.51-.63-1.26-.63-2.26 0-.99.21-1.74.63-2.25s1-.76 1.75-.76c.76 0 1.34.25 1.76.76.42.5.62 1.26.62 2.25s-.21 1.75-.62 2.26c-.42.51-1 .76-1.76.76-.75.01-1.33-.25-1.75-.76zm2.78-.57c.22-.35.33-.91.33-1.69 0-.76-.11-1.31-.34-1.67-.22-.35-.56-.53-1.02-.53-.46 0-.8.18-1.02.53-.22.35-.33.91-.33 1.67 0 .76.11 1.33.33 1.68.22.35.56.53 1.02.53.46 0 .81-.17 1.03-.52z"/><path class="st2" d="M335.29 65.17h29.23v292.44h-29.23z"/><path class="st4" d="M368.92 135.55h29.23v222.07h-29.23z"/><path class="st3" d="M301.04 73.9h29.23v283.71h-29.23z"/><path class="st1" d="M450.39 367.63h1.28l-2.59 7.33h-1.09l-1.84-5.27-1.85 5.27h-1.09l-2.58-7.33h1.35l1.82 5.46 1.91-5.46h.95l1.86 5.49 1.87-5.49zM457.19 372.66h-3.46c.04.47.18.82.43 1.05.24.23.59.34 1.04.34.56 0 1.07-.18 1.54-.54l.37.89c-.24.19-.53.35-.89.47s-.72.18-1.08.18c-.83 0-1.49-.24-1.97-.71s-.72-1.12-.72-1.94c0-.52.1-.98.31-1.38s.5-.71.88-.94.81-.33 1.28-.33c.7 0 1.25.22 1.66.68.41.45.61 1.07.61 1.86v.37zm-3.07-1.66c-.21.22-.34.54-.39.96h2.35c-.01-.42-.12-.74-.31-.96-.19-.22-.46-.33-.81-.33s-.63.11-.84.33zM462.48 370.08c.34.21.6.52.8.91.19.4.29.86.29 1.38 0 .53-.09.99-.29 1.4-.19.4-.46.72-.8.94-.34.22-.73.33-1.17.33-.37 0-.7-.08-.98-.24-.29-.16-.51-.38-.66-.66v.82h-1.28v-7.33h1.3v2.98c.15-.28.37-.49.66-.64s.61-.22.97-.22c.43.01.82.11 1.16.33zm-.56 3.52c.23-.29.34-.7.34-1.23 0-.52-.11-.92-.34-1.2s-.55-.42-.96-.42-.74.14-.96.42c-.23.28-.34.68-.34 1.21s.11.93.34 1.22c.23.29.55.43.96.43.41.01.73-.13.96-.43zM469.28 374.6c-.54-.31-.95-.75-1.24-1.31-.29-.57-.43-1.23-.43-1.99s.14-1.42.43-1.98.7-1 1.24-1.31c.54-.31 1.17-.46 1.89-.46.49 0 .96.08 1.39.23.44.15.8.37 1.1.65l-.45.98c-.33-.26-.66-.46-.99-.58-.33-.12-.67-.18-1.04-.18-.71 0-1.25.23-1.64.69-.38.46-.58 1.12-.58 1.98 0 .87.19 1.53.58 1.99.39.46.93.69 1.64.69.37 0 .71-.06 1.04-.18.33-.12.66-.31.99-.58l.45.98c-.3.28-.67.49-1.1.64-.44.15-.9.23-1.39.23-.73-.03-1.35-.19-1.89-.49zM475.86 374.73c-.39-.21-.69-.52-.91-.93-.22-.4-.32-.87-.32-1.4s.11-1 .32-1.4c.21-.4.52-.71.91-.92s.85-.32 1.37-.32c.52 0 .98.11 1.37.32s.69.52.91.92c.21.4.32.87.32 1.4s-.11 1-.32 1.4c-.21.4-.51.71-.91.93s-.85.32-1.37.32c-.52 0-.98-.11-1.37-.32zm2.33-1.11c.22-.28.33-.69.33-1.23 0-.53-.11-.94-.33-1.22-.22-.28-.54-.42-.96-.42s-.74.14-.96.42c-.23.28-.34.69-.34 1.22 0 .54.11.95.33 1.23.22.28.54.42.96.42.42 0 .74-.14.97-.42zM488.36 370.27c.28.34.43.87.43 1.58v3.12h-1.3v-3.07c0-.39-.07-.67-.2-.85-.13-.18-.34-.26-.63-.26-.35 0-.62.12-.81.35-.19.23-.29.56-.29.99v2.84h-1.3v-3.07c0-.39-.06-.67-.19-.85-.13-.18-.34-.26-.64-.26-.34 0-.61.12-.8.35-.19.23-.29.56-.29.99v2.84h-1.3v-5.09h1.27v.72c.15-.28.36-.49.63-.63s.58-.21.93-.21c.77 0 1.28.32 1.53.96.16-.3.39-.53.69-.7s.63-.25 1-.25c.55-.01.98.16 1.27.5zM494.33 370.09c.34.22.61.54.8.94.19.4.29.87.29 1.4s-.1.99-.29 1.38c-.19.4-.46.7-.8.92s-.73.32-1.17.32c-.36 0-.68-.08-.97-.23-.29-.15-.5-.37-.66-.63v2.65h-1.3v-6.96h1.28v.77c.15-.28.37-.5.66-.66.29-.16.62-.23.98-.23.45 0 .84.11 1.18.33zm-.56 3.53c.23-.28.34-.68.34-1.19 0-.53-.11-.94-.34-1.23-.23-.29-.55-.44-.96-.44-.42 0-.74.14-.96.43-.22.29-.34.69-.34 1.22 0 .52.11.92.34 1.21.23.29.55.43.96.43.42-.01.74-.15.96-.43zM499.97 370.84l-.76.07c-.86.09-1.29.53-1.29 1.31v2.74h-1.3v-5.09h1.24v.89c.26-.61.81-.94 1.63-1l.39-.03.09 1.11zM501.69 374.73c-.39-.21-.7-.52-.91-.93s-.32-.87-.32-1.4.11-1 .32-1.4.52-.71.91-.92.85-.32 1.37-.32c.52 0 .98.11 1.37.32s.69.52.9.92c.21.4.32.87.32 1.4s-.11 1-.32 1.4c-.21.4-.51.71-.9.93s-.85.32-1.37.32c-.52 0-.97-.11-1.37-.32zm2.33-1.11c.22-.28.33-.69.33-1.23 0-.53-.11-.94-.33-1.22-.22-.28-.54-.42-.96-.42s-.74.14-.96.42c-.23.28-.34.69-.34 1.22 0 .54.11.95.33 1.23s.54.42.96.42c.42 0 .75-.14.97-.42zM514.19 370.27c.28.34.43.87.43 1.58v3.12h-1.3v-3.07c0-.39-.07-.67-.2-.85-.13-.18-.34-.26-.63-.26-.35 0-.62.12-.81.35-.19.23-.29.56-.29.99v2.84h-1.3v-3.07c0-.39-.06-.67-.19-.85-.13-.18-.34-.26-.64-.26-.34 0-.61.12-.8.35-.19.23-.29.56-.29.99v2.84h-1.3v-5.09h1.27v.72c.15-.28.36-.49.63-.63s.58-.21.93-.21c.77 0 1.28.32 1.53.96.16-.3.39-.53.69-.7.3-.17.63-.25 1-.25.56-.01.99.16 1.27.5zM516 367.52h1.44v1.28H516v-1.28zm.07 7.45v-5.09h1.3v5.09h-1.3zM519.48 374.88c-.38-.11-.7-.27-.96-.48l.36-.91c.54.4 1.16.59 1.86.59.3 0 .53-.05.68-.15.16-.1.23-.23.23-.42 0-.15-.05-.27-.16-.35-.11-.08-.3-.16-.58-.23l-.83-.19c-.47-.1-.82-.27-1.05-.51-.23-.23-.34-.54-.34-.91 0-.31.09-.59.27-.83.18-.24.42-.43.74-.56.32-.13.68-.2 1.1-.2.36 0 .71.05 1.05.17.34.11.63.27.89.47l-.36.88c-.53-.38-1.05-.57-1.58-.57-.28 0-.51.05-.67.16s-.24.25-.24.44c0 .14.05.25.15.34s.26.16.48.21l.86.2c.51.11.88.29 1.11.53.24.24.35.55.35.94 0 .47-.19.85-.57 1.12-.38.28-.9.42-1.55.42-.45.01-.86-.05-1.24-.16zM528.49 372.66h-3.46c.04.47.18.82.43 1.05.24.23.59.34 1.04.34.56 0 1.08-.18 1.54-.54l.37.89c-.24.19-.53.35-.89.47s-.72.18-1.08.18c-.83 0-1.49-.24-1.97-.71s-.72-1.12-.72-1.94c0-.52.1-.98.31-1.38s.5-.71.88-.94.81-.33 1.29-.33c.7 0 1.25.22 1.66.68.41.45.61 1.07.61 1.86v.37zm-3.07-1.66c-.21.22-.34.54-.39.96h2.35c-.01-.42-.12-.74-.31-.96s-.46-.33-.81-.33-.63.11-.84.33zM609.1 367.63h1.05v7.33h-1.19v-4.85l-1.93 3.66h-.89l-1.94-3.61.01 4.79h-1.19v-7.33h1.06l2.52 4.79 2.5-4.78zM615.54 370.28c.35.35.52.88.52 1.6v3.09h-1.24v-.78c-.12.27-.3.48-.56.63-.25.15-.55.23-.88.23-.34 0-.65-.07-.93-.21s-.5-.33-.66-.57c-.16-.24-.24-.51-.24-.81 0-.38.1-.67.29-.88s.5-.37.93-.47 1.02-.15 1.78-.15h.26v-.24c0-.35-.07-.6-.22-.75-.15-.15-.4-.23-.74-.23-.27 0-.55.05-.85.14s-.58.22-.87.39l-.36-.89c.28-.18.63-.33 1.03-.45s.78-.18 1.14-.18c.72.01 1.25.18 1.6.53zm-1.05 3.48c.22-.23.33-.53.33-.9v-.22h-.19c-.46 0-.83.02-1.08.06-.26.04-.44.11-.55.22-.11.1-.17.25-.17.43 0 .22.08.4.23.54.15.14.35.21.58.21.35.01.63-.1.85-.34zM617.51 374.97v-7.33h1.3v7.33h-1.3zM627.15 369.88h1.27l-2 5.09h-1.13l-1.25-3.28-1.22 3.28h-1.12l-2.01-5.09h1.33l1.3 3.54 1.3-3.54h.94l1.3 3.56 1.29-3.56zM633.1 370.28c.35.35.52.88.52 1.6v3.09h-1.24v-.78c-.12.27-.3.48-.56.63-.25.15-.55.23-.88.23-.34 0-.65-.07-.93-.21s-.5-.33-.66-.57c-.16-.24-.24-.51-.24-.81 0-.38.1-.67.29-.88s.5-.37.93-.47 1.02-.15 1.78-.15h.26v-.24c0-.35-.07-.6-.22-.75-.15-.15-.4-.23-.74-.23-.27 0-.55.05-.85.14s-.58.22-.87.39l-.36-.89c.28-.18.63-.33 1.03-.45s.78-.18 1.14-.18c.73.01 1.26.18 1.6.53zm-1.04 3.48c.22-.23.33-.53.33-.9v-.22h-.19c-.46 0-.83.02-1.08.06-.26.04-.44.11-.55.22-.11.1-.17.25-.17.43 0 .22.08.4.23.54.15.14.35.21.58.21.35.01.63-.1.85-.34zM638.43 370.84l-.76.07c-.86.09-1.29.53-1.29 1.31v2.74h-1.3v-5.09h1.24v.89c.26-.61.81-.94 1.63-1l.39-.03.09 1.11zM643.66 372.66h-3.46c.04.47.18.82.43 1.05.24.23.59.34 1.04.34.56 0 1.07-.18 1.54-.54l.37.89c-.24.19-.53.35-.89.47s-.72.18-1.08.18c-.83 0-1.49-.24-1.97-.71s-.72-1.12-.72-1.94c0-.52.1-.98.31-1.38s.5-.71.88-.94.81-.33 1.28-.33c.7 0 1.25.22 1.66.68.41.45.61 1.07.61 1.86v.37zm-3.07-1.66c-.21.22-.34.54-.39.96h2.35c-.01-.42-.12-.74-.31-.96-.19-.22-.46-.33-.81-.33s-.63.11-.84.33zM448.2 258.6c.65.83.97 2.02.97 3.56 0 1.67-.34 2.97-1.01 3.9s-1.61 1.39-2.81 1.39c-.56 0-1.11-.11-1.65-.32-.54-.21-1.02-.51-1.43-.9l.43-.88c.47.39.91.68 1.34.86.42.18.86.27 1.29.27.85 0 1.51-.38 1.97-1.13.47-.75.7-1.81.7-3.19v-.18c-.21.52-.56.93-1.04 1.23-.48.3-1.02.45-1.63.45-.6 0-1.13-.13-1.6-.39a2.71 2.71 0 0 1-1.09-1.11c-.26-.48-.39-1.02-.39-1.64 0-.61.13-1.15.41-1.64.27-.49.65-.86 1.13-1.13.49-.27 1.03-.41 1.64-.41 1.2.02 2.12.43 2.77 1.26zm-1.12 3.5c.41-.41.61-.93.61-1.57 0-.65-.2-1.18-.61-1.59-.41-.41-.94-.61-1.59-.61-.64 0-1.14.2-1.53.6s-.57.93-.57 1.6c0 .66.19 1.19.58 1.59s.9.59 1.53.59c.65-.01 1.17-.21 1.58-.61zM451.3 262.63c-.42-.51-.63-1.26-.63-2.26 0-.99.21-1.74.63-2.25s1-.76 1.75-.76 1.33.25 1.75.76.63 1.26.63 2.25c0 1-.21 1.75-.63 2.26s-1 .76-1.75.76-1.33-.25-1.75-.76zm2.76-.58c.22-.35.33-.91.33-1.68 0-.76-.11-1.31-.33-1.67-.22-.35-.56-.53-1.01-.53-.46 0-.8.18-1.02.53-.22.35-.34.91-.34 1.67 0 .77.11 1.33.34 1.68.22.36.56.53 1.02.53.46 0 .8-.18 1.01-.53zm-.16 5.64-.83-.48 5.84-10.09.83.48-5.84 10.09zm4.12-1.02c-.42-.51-.63-1.26-.63-2.26 0-.99.21-1.74.63-2.25s1-.76 1.75-.76c.76 0 1.34.25 1.76.76s.62 1.25.62 2.25-.21 1.75-.62 2.26-1 .76-1.76.76c-.75.01-1.33-.25-1.75-.76zm2.78-.57c.22-.35.33-.91.33-1.69 0-.76-.11-1.31-.34-1.67-.22-.35-.57-.53-1.02-.53s-.8.18-1.01.53c-.22.35-.33.91-.33 1.67 0 .77.11 1.33.33 1.68.22.36.56.53 1.01.53.47 0 .81-.17 1.03-.52zM482.04 296.25c.46.26.82.63 1.07 1.1.25.47.38 1.01.38 1.63 0 .63-.14 1.18-.41 1.65-.28.48-.67.85-1.17 1.11-.5.27-1.09.4-1.76.4-.6 0-1.19-.11-1.77-.33-.58-.22-1.08-.52-1.48-.89l.43-.88c.92.76 1.85 1.13 2.81 1.13.69 0 1.23-.2 1.62-.59.39-.39.59-.92.59-1.6 0-.65-.19-1.18-.58-1.58-.39-.4-.9-.6-1.55-.6-.94 0-1.69.38-2.25 1.15h-.8v-5.78h5.92v.95h-4.79v3.51c.26-.25.57-.45.93-.58.36-.13.75-.2 1.17-.2.63 0 1.18.13 1.64.4zM485.54 297.33c-.42-.51-.63-1.26-.63-2.26 0-.99.21-1.74.63-2.25.42-.51 1-.76 1.75-.76s1.33.25 1.75.76c.42.51.63 1.26.63 2.25 0 1-.21 1.75-.63 2.26s-1 .76-1.75.76c-.74 0-1.33-.25-1.75-.76zm2.77-.58c.22-.35.33-.92.33-1.68 0-.76-.11-1.31-.33-1.67-.22-.35-.56-.53-1.02-.53-.46 0-.8.18-1.02.53-.22.36-.34.91-.34 1.67 0 .77.11 1.33.34 1.68.22.35.56.53 1.02.53.46 0 .8-.18 1.02-.53zm-.16 5.64-.83-.48 5.84-10.09.83.48-5.84 10.09zm4.11-1.01c-.42-.51-.63-1.26-.63-2.26 0-.99.21-1.74.63-2.25s1-.76 1.75-.76c.76 0 1.34.25 1.76.76.42.5.62 1.26.62 2.25 0 1-.21 1.75-.62 2.26-.42.51-1 .76-1.76.76-.74 0-1.33-.25-1.75-.76zm2.78-.58c.22-.35.33-.91.33-1.69 0-.76-.11-1.31-.34-1.67-.22-.36-.56-.53-1.02-.53-.46 0-.8.18-1.02.53-.22.35-.33.91-.33 1.67 0 .76.11 1.33.33 1.68.22.35.56.53 1.02.53.47.01.81-.17 1.03-.52zM510.35 275.19h6.52v.85l-4.62 9.02H511l4.61-8.9h-5.26v-.97zM519.17 280.35c-.42-.51-.63-1.26-.63-2.26 0-.99.21-1.74.63-2.25s1-.76 1.75-.76 1.33.25 1.75.76.63 1.26.63 2.25c0 1-.21 1.75-.63 2.26s-1 .76-1.75.76c-.74 0-1.33-.25-1.75-.76zm2.77-.58c.22-.35.33-.91.33-1.68 0-.76-.11-1.31-.33-1.67-.22-.35-.56-.53-1.02-.53-.46 0-.8.18-1.02.53-.22.35-.34.91-.34 1.67 0 .77.11 1.33.34 1.68.22.36.56.53 1.02.53.46 0 .8-.17 1.02-.53zm-.16 5.64-.83-.48 5.84-10.09.83.48-5.84 10.09zm4.11-1.01c-.42-.51-.63-1.26-.63-2.26 0-.99.21-1.74.63-2.25s1-.76 1.75-.76c.76 0 1.34.25 1.76.76.42.5.62 1.25.62 2.25s-.21 1.75-.62 2.26c-.42.51-1 .76-1.76.76-.74 0-1.33-.25-1.75-.76zm2.78-.58c.22-.35.33-.91.33-1.69 0-.76-.11-1.31-.34-1.67-.22-.35-.56-.53-1.02-.53-.46 0-.8.18-1.02.53-.22.35-.33.91-.33 1.67 0 .77.11 1.33.33 1.68.22.36.56.53 1.02.53.47.01.81-.17 1.03-.52z"/><path class="st2" d="M471.86 312.79h29.23v44.83h-29.23z"/><path class="st4" d="M505.49 295.06h29.23v62.55h-29.23z"/><path class="st3" d="M437.62 277.34h29.23v80.28h-29.23z"/><path class="st2" d="M608.89 348.23h29.23v9.38h-29.23z"/><path class="st4" d="M642.51 312.79h29.23v44.83h-29.23z"/><path class="st3" d="M574.64 330.55h29.23v27.06h-29.23z"/><path class="st1" d="M585.46 316.3c.31.41.46.92.46 1.53 0 .86-.29 1.54-.88 2.03s-1.37.74-2.37.74c-.63 0-1.25-.11-1.83-.32s-1.08-.51-1.48-.9l.43-.88c.9.76 1.85 1.13 2.86 1.13.7 0 1.23-.16 1.6-.47s.55-.77.55-1.38c0-1.2-.76-1.81-2.27-1.81h-1.13V315h.91c.73 0 1.29-.16 1.68-.48.39-.32.59-.79.59-1.39 0-.53-.16-.94-.48-1.23-.32-.28-.77-.43-1.36-.43-.95 0-1.89.38-2.8 1.13l-.43-.88c.4-.38.89-.68 1.47-.9.58-.21 1.18-.32 1.81-.32.9 0 1.61.23 2.13.68.53.45.79 1.06.79 1.83 0 .57-.14 1.07-.41 1.49s-.66.73-1.16.92c.56.19 1.01.48 1.32.88zM588.33 315.8c-.42-.51-.63-1.26-.63-2.26 0-.99.21-1.74.63-2.25s1-.76 1.75-.76 1.33.25 1.75.76.63 1.26.63 2.25c0 1-.21 1.75-.63 2.26-.42.51-1 .76-1.75.76s-1.33-.25-1.75-.76zm2.76-.58c.22-.35.33-.91.33-1.68 0-.76-.11-1.31-.33-1.67-.22-.35-.56-.53-1.01-.53-.46 0-.8.18-1.02.53-.22.36-.34.91-.34 1.67 0 .77.11 1.33.34 1.68.22.36.56.53 1.02.53.45 0 .79-.18 1.01-.53zm-.16 5.64-.83-.48 5.84-10.09.83.48-5.84 10.09zm4.11-1.02c-.42-.51-.63-1.26-.63-2.26 0-.99.21-1.74.63-2.25.42-.51 1-.76 1.75-.76.76 0 1.34.25 1.76.76.42.5.62 1.25.62 2.25s-.21 1.75-.62 2.26c-.42.51-1 .76-1.76.76-.74.01-1.33-.25-1.75-.76zm2.78-.57c.22-.35.33-.91.33-1.69 0-.76-.11-1.31-.34-1.67-.22-.36-.57-.53-1.02-.53s-.8.18-1.01.53c-.22.35-.33.91-.33 1.67 0 .76.11 1.32.33 1.68.22.35.56.53 1.01.53.47.01.81-.17 1.03-.52zM617.95 337.27h2.17v.97h-5.49v-.97h2.17v-7.48l-1.74 1.09-.53-.88 2.59-1.64h.83v8.91zM622.57 333.52c-.42-.51-.63-1.26-.63-2.26 0-.99.21-1.74.63-2.25s1-.76 1.75-.76 1.33.25 1.75.76.63 1.26.63 2.25c0 1-.21 1.75-.63 2.26s-1 .76-1.75.76-1.33-.25-1.75-.76zm2.76-.58c.22-.35.33-.91.33-1.68 0-.76-.11-1.31-.33-1.67-.22-.35-.56-.53-1.02-.53-.46 0-.8.18-1.02.53-.22.35-.34.91-.34 1.67 0 .77.11 1.33.34 1.68.22.36.56.53 1.02.53.47 0 .8-.17 1.02-.53zm-.16 5.64-.83-.48 5.84-10.09.83.48-5.84 10.09zm4.12-1.01c-.42-.51-.63-1.26-.63-2.26 0-.99.21-1.74.63-2.25s1-.76 1.75-.76c.76 0 1.34.25 1.76.76.42.5.62 1.25.62 2.25s-.21 1.75-.62 2.26c-.42.51-1 .76-1.76.76-.75 0-1.33-.25-1.75-.76zm2.78-.58c.22-.35.33-.91.33-1.69 0-.76-.11-1.31-.34-1.67-.22-.35-.56-.53-1.02-.53-.46 0-.8.18-1.02.53-.22.35-.33.91-.33 1.67 0 .77.11 1.33.33 1.68.22.36.56.53 1.02.53.46.01.81-.17 1.03-.52zM652.69 296.25c.46.26.82.63 1.07 1.1.25.47.38 1.01.38 1.63 0 .63-.14 1.18-.41 1.65-.28.48-.67.85-1.17 1.11-.5.27-1.09.4-1.76.4-.6 0-1.19-.11-1.77-.33-.58-.22-1.08-.52-1.48-.89l.43-.88c.91.76 1.85 1.13 2.81 1.13.69 0 1.23-.2 1.62-.59.39-.39.59-.92.59-1.6 0-.65-.19-1.18-.58-1.58-.39-.4-.9-.6-1.55-.6-.94 0-1.69.38-2.25 1.15h-.8v-5.78h5.92v.95h-4.79v3.51c.26-.25.57-.45.93-.58.36-.13.75-.2 1.17-.2.63 0 1.18.14 1.64.4zM656.2 297.33c-.42-.51-.63-1.26-.63-2.26 0-.99.21-1.74.63-2.25.42-.51 1-.76 1.75-.76s1.33.25 1.75.76c.42.51.63 1.26.63 2.25 0 1-.21 1.75-.63 2.26-.42.51-1 .76-1.75.76s-1.33-.25-1.75-.76zm2.76-.58c.22-.36.33-.92.33-1.68 0-.76-.11-1.31-.33-1.67-.22-.35-.56-.53-1.01-.53-.46 0-.8.18-1.02.53-.22.35-.34.91-.34 1.67 0 .77.11 1.33.34 1.68.22.35.56.53 1.02.53.45 0 .79-.17 1.01-.53zm-.16 5.64-.83-.48 5.84-10.09.83.48-5.84 10.09zm4.12-1.01c-.42-.51-.63-1.26-.63-2.26 0-.99.21-1.74.63-2.25.42-.51 1-.76 1.75-.76.76 0 1.34.25 1.76.76s.62 1.26.62 2.25c0 1-.21 1.75-.62 2.26-.42.51-1 .76-1.76.76-.75 0-1.33-.25-1.75-.76zm2.78-.58c.22-.35.33-.91.33-1.69 0-.76-.11-1.31-.34-1.67-.22-.35-.57-.53-1.02-.53s-.8.18-1.01.53c-.22.36-.33.91-.33 1.67 0 .77.11 1.33.33 1.68.22.36.56.53 1.01.53.46.01.81-.17 1.03-.52z"/><path style="fill:none;stroke:#b8b8ba;stroke-miterlimit:10" d="M17.26 357.63h665.48"/></svg>
