<?xml version="1.0" encoding="UTF-8" standalone="no"?>
<svg xmlns="http://www.w3.org/2000/svg" xmlns:xlink="http://www.w3.org/1999/xlink" xmlns:serif="http://www.serif.com/" width="100%" height="100%" viewBox="0 0 800 433" version="1.1" xml:space="preserve" style="fill-rule:evenodd;clip-rule:evenodd;stroke-linejoin:round;stroke-miterlimit:2;">
    <g transform="matrix(1,0,0,1,0,-39)">
        <rect x="177.62" y="398.3" width="336.34" height="24.13" style="fill:rgb(67,176,73);fill-rule:nonzero;"></rect>
    </g>
    <g transform="matrix(1,0,0,1,0,-39)">
        <rect x="177.62" y="371.49" width="302.71" height="24.13" style="fill:rgb(20,72,127);fill-rule:nonzero;"></rect>
    </g>
    <g transform="matrix(1,0,0,1,0,-39)">
        <rect x="177.62" y="317.86" width="403.61" height="24.13" style="fill:rgb(67,176,73);fill-rule:nonzero;"></rect>
    </g>
    <g transform="matrix(1,0,0,1,0,-39)">
        <rect x="177.62" y="291.05" width="336.34" height="24.13" style="fill:rgb(20,72,127);fill-rule:nonzero;"></rect>
    </g>
    <g transform="matrix(1,0,0,1,0,-39)">
        <rect x="177.62" y="237.42" width="403.61" height="24.13" style="fill:rgb(67,176,73);fill-rule:nonzero;"></rect>
    </g>
    <g transform="matrix(1,0,0,1,0,-39)">
        <rect x="177.62" y="210.61" width="403.61" height="24.13" style="fill:rgb(20,72,127);fill-rule:nonzero;"></rect>
    </g>
    <g transform="matrix(1,0,0,1,0,-39)">
        <rect x="177.62" y="156.98" width="437.25" height="24.13" style="fill:rgb(67,176,73);fill-rule:nonzero;"></rect>
    </g>
    <g transform="matrix(1,0,0,1,0,-39)">
        <rect x="177.62" y="130.16" width="403.61" height="24.13" style="fill:rgb(20,72,127);fill-rule:nonzero;"></rect>
    </g>
    <g transform="matrix(1,0,0,1,0,-39)">
        <rect x="177.62" y="76.54" width="538.15" height="24.13" style="fill:rgb(67,176,73);fill-rule:nonzero;"></rect>
    </g>
    <g transform="matrix(1,0,0,1,0,-39)">
        <rect x="177.62" y="49.72" width="571.78" height="24.13" style="fill:rgb(20,72,127);fill-rule:nonzero;"></rect>
    </g>
    <g transform="matrix(1,0,0,1,0,-39)">
        <path d="M5.54,68.05L10.47,68.05C11.68,68.05 12.61,68.35 13.29,68.95C13.97,69.55 14.3,70.4 14.3,71.49C14.3,72.58 13.96,73.43 13.29,74.03C12.62,74.63 11.68,74.94 10.47,74.94L7.61,74.94L7.61,79.32L5.55,79.32L5.55,68.04L5.54,68.05ZM10.21,73.36C11.63,73.36 12.34,72.74 12.34,71.5C12.34,70.87 12.16,70.4 11.81,70.1C11.46,69.8 10.92,69.64 10.21,69.64L7.6,69.64L7.6,73.35L10.21,73.35L10.21,73.36ZM20.98,72.98L19.81,73.09C18.49,73.23 17.83,73.9 17.83,75.11L17.83,79.33L15.83,79.33L15.83,71.51L17.73,71.51L17.73,72.89C18.14,71.95 18.97,71.44 20.24,71.35L20.85,71.3L20.98,72.98ZM23.5,78.96C22.9,78.63 22.43,78.15 22.1,77.54C21.77,76.93 21.6,76.2 21.6,75.38C21.6,74.56 21.77,73.84 22.1,73.23C22.43,72.62 22.9,72.14 23.5,71.81C24.1,71.48 24.8,71.31 25.6,71.31C26.4,71.31 27.1,71.48 27.7,71.81C28.3,72.14 28.77,72.61 29.09,73.23C29.42,73.84 29.58,74.56 29.58,75.38C29.58,76.2 29.42,76.92 29.09,77.54C28.778,78.141 28.294,78.636 27.7,78.96C27.1,79.29 26.4,79.46 25.6,79.46C24.8,79.46 24.1,79.29 23.5,78.96ZM27.08,77.26C27.42,76.83 27.59,76.2 27.59,75.37C27.59,74.54 27.42,73.92 27.08,73.49C26.74,73.06 26.25,72.84 25.61,72.84C24.97,72.84 24.48,73.06 24.13,73.49C23.78,73.92 23.61,74.55 23.61,75.37C23.61,76.19 23.78,76.83 24.12,77.26C24.46,77.69 24.95,77.9 25.59,77.9C26.23,77.9 26.74,77.69 27.08,77.26ZM33.79,71.51L35.85,71.51L35.85,73.01L33.79,73.01L33.79,79.33L31.79,79.33L31.79,73.01L30.29,73.01L30.29,71.51L31.79,71.51C31.79,70.39 32.08,69.55 32.66,68.98C33.24,68.41 34.15,68.1 35.37,68.04L36.15,67.99L36.28,69.48L35.53,69.51C34.9,69.54 34.45,69.68 34.19,69.93C33.93,70.18 33.79,70.58 33.79,71.14L33.79,71.51ZM43.85,75.78L38.51,75.78C38.57,76.51 38.79,77.04 39.17,77.4C39.55,77.76 40.08,77.93 40.77,77.93C41.63,77.93 42.42,77.65 43.14,77.1L43.72,78.48C43.36,78.78 42.9,79.02 42.35,79.2C41.8,79.38 41.25,79.47 40.69,79.47C39.41,79.47 38.4,79.11 37.66,78.38C36.92,77.65 36.55,76.66 36.55,75.4C36.55,74.6 36.71,73.89 37.03,73.27C37.35,72.65 37.8,72.17 38.38,71.83C38.96,71.49 39.62,71.32 40.36,71.32C41.44,71.32 42.29,71.67 42.91,72.36C43.53,73.05 43.85,74.01 43.85,75.22L43.85,75.78ZM39.11,73.24C38.78,73.58 38.58,74.07 38.51,74.71L42.13,74.71C42.11,74.06 41.95,73.57 41.65,73.23C41.35,72.89 40.94,72.73 40.4,72.73C39.86,72.73 39.44,72.9 39.11,73.24ZM46.41,79.2C45.83,79.03 45.34,78.78 44.93,78.46L45.49,77.07C46.32,77.68 47.28,77.98 48.35,77.98C48.81,77.98 49.16,77.91 49.4,77.76C49.64,77.61 49.76,77.4 49.76,77.12C49.76,76.89 49.68,76.7 49.51,76.58C49.34,76.46 49.05,76.33 48.62,76.23L47.34,75.94C46.61,75.78 46.08,75.52 45.72,75.16C45.37,74.8 45.19,74.33 45.19,73.75C45.19,73.27 45.33,72.85 45.6,72.48C45.87,72.11 46.25,71.83 46.74,71.62C47.22,71.42 47.79,71.32 48.43,71.32C48.98,71.32 49.52,71.41 50.04,71.58C50.56,71.75 51.01,71.99 51.41,72.3L50.85,73.66C50.04,73.07 49.23,72.78 48.42,72.78C47.98,72.78 47.64,72.86 47.4,73.02C47.15,73.18 47.03,73.4 47.03,73.69C47.03,73.9 47.11,74.08 47.26,74.22C47.41,74.36 47.66,74.47 48,74.54L49.33,74.84C50.11,75.01 50.68,75.28 51.04,75.65C51.4,76.02 51.58,76.5 51.58,77.1C51.58,77.83 51.29,78.4 50.7,78.83C50.11,79.26 49.32,79.47 48.32,79.47C47.63,79.47 46.99,79.38 46.41,79.21L46.41,79.2ZM54.1,79.2C53.52,79.03 53.03,78.78 52.62,78.46L53.18,77.07C54.01,77.68 54.97,77.98 56.04,77.98C56.5,77.98 56.85,77.91 57.09,77.76C57.33,77.61 57.45,77.4 57.45,77.12C57.45,76.89 57.37,76.7 57.2,76.58C57.03,76.46 56.74,76.33 56.31,76.23L55.03,75.94C54.3,75.78 53.77,75.52 53.41,75.16C53.06,74.8 52.88,74.33 52.88,73.75C52.88,73.27 53.02,72.85 53.29,72.48C53.56,72.11 53.94,71.83 54.43,71.62C54.91,71.42 55.48,71.32 56.12,71.32C56.67,71.32 57.21,71.41 57.73,71.58C58.25,71.75 58.7,71.99 59.1,72.3L58.54,73.66C57.73,73.07 56.92,72.78 56.11,72.78C55.67,72.78 55.33,72.86 55.09,73.02C54.84,73.18 54.72,73.4 54.72,73.69C54.72,73.9 54.8,74.08 54.95,74.22C55.1,74.36 55.35,74.47 55.69,74.54L57.02,74.84C57.8,75.01 58.37,75.28 58.73,75.65C59.09,76.02 59.27,76.5 59.27,77.1C59.27,77.83 58.98,78.4 58.39,78.83C57.8,79.26 57.01,79.47 56.01,79.47C55.32,79.47 54.68,79.38 54.1,79.21L54.1,79.2ZM60.72,67.88L62.93,67.88L62.93,69.85L60.72,69.85L60.72,67.88ZM60.83,79.34L60.83,71.52L62.83,71.52L62.83,79.34L60.83,79.34ZM66.32,78.96C65.72,78.63 65.25,78.15 64.92,77.54C64.59,76.93 64.42,76.2 64.42,75.38C64.42,74.56 64.59,73.84 64.92,73.23C65.25,72.62 65.72,72.14 66.32,71.81C66.92,71.48 67.62,71.31 68.42,71.31C69.22,71.31 69.92,71.48 70.52,71.81C71.12,72.14 71.59,72.61 71.91,73.23C72.24,73.84 72.4,74.56 72.4,75.38C72.4,76.2 72.24,76.92 71.91,77.54C71.598,78.141 71.114,78.636 70.52,78.96C69.92,79.29 69.22,79.46 68.42,79.46C67.62,79.46 66.92,79.29 66.32,78.96ZM69.9,77.26C70.24,76.83 70.41,76.2 70.41,75.37C70.41,74.54 70.24,73.92 69.9,73.49C69.56,73.06 69.07,72.84 68.43,72.84C67.79,72.84 67.3,73.06 66.95,73.49C66.6,73.92 66.43,74.55 66.43,75.37C66.43,76.19 66.6,76.83 66.94,77.26C67.28,77.69 67.77,77.9 68.41,77.9C69.05,77.9 69.56,77.69 69.9,77.26ZM80.66,72.12C81.12,72.65 81.35,73.46 81.35,74.54L81.35,79.34L79.35,79.34L79.35,74.65C79.35,74.04 79.24,73.6 79.01,73.32C78.78,73.04 78.42,72.9 77.93,72.9C77.35,72.9 76.89,73.08 76.55,73.44C76.2,73.8 76.03,74.29 76.03,74.9L76.03,79.33L74.03,79.33L74.03,71.51L75.98,71.51L75.98,72.68C76.25,72.24 76.6,71.91 77.05,71.67C77.5,71.44 78,71.32 78.57,71.32C79.51,71.32 80.21,71.59 80.67,72.12L80.66,72.12ZM89.04,72.12C89.57,72.65 89.84,73.47 89.84,74.58L89.84,79.33L87.94,79.33L87.94,78.13C87.765,78.54 87.463,78.883 87.08,79.11C86.69,79.34 86.24,79.46 85.73,79.46C85.22,79.46 84.73,79.35 84.31,79.14C83.89,78.93 83.55,78.63 83.3,78.26C83.05,77.89 82.93,77.47 82.93,77.01C82.93,76.43 83.08,75.98 83.37,75.65C83.66,75.32 84.14,75.08 84.8,74.93C85.46,74.78 86.37,74.71 87.54,74.71L87.94,74.71L87.94,74.34C87.94,73.81 87.83,73.42 87.6,73.19C87.37,72.96 86.99,72.84 86.46,72.84C86.04,72.84 85.61,72.91 85.16,73.06C84.71,73.2 84.26,73.4 83.82,73.66L83.26,72.28C83.7,72 84.23,71.77 84.84,71.59C85.46,71.41 86.05,71.32 86.6,71.32C87.7,71.32 88.51,71.59 89.05,72.12L89.04,72.12ZM87.43,77.49C87.77,77.13 87.93,76.67 87.93,76.11L87.93,75.77L87.64,75.77C86.93,75.77 86.37,75.8 85.98,75.87C85.59,75.94 85.3,76.05 85.13,76.21C84.96,76.37 84.87,76.59 84.87,76.87C84.87,77.21 84.99,77.49 85.22,77.71C85.45,77.93 85.75,78.04 86.12,78.04C86.65,78.04 87.09,77.86 87.42,77.5L87.43,77.49ZM91.82,79.33L91.82,68.05L93.82,68.05L93.82,79.33L91.82,79.33ZM101.79,79.12C101.092,78.917 100.44,78.581 99.87,78.13L100.56,76.63C101.1,77.05 101.68,77.35 102.28,77.54C102.88,77.73 103.54,77.83 104.24,77.83C105.02,77.83 105.62,77.69 106.04,77.42C106.46,77.15 106.67,76.77 106.67,76.28C106.67,75.85 106.48,75.53 106.09,75.3C105.7,75.08 105.05,74.86 104.15,74.66C103.21,74.46 102.45,74.22 101.86,73.96C101.27,73.7 100.83,73.35 100.53,72.94C100.23,72.52 100.08,72 100.08,71.36C100.08,70.72 100.26,70.11 100.62,69.58C100.98,69.06 101.49,68.65 102.16,68.36C102.82,68.07 103.58,67.92 104.45,67.92C105.24,67.92 105.99,68.04 106.71,68.28C107.42,68.52 108.01,68.85 108.47,69.26L107.78,70.76C106.78,69.96 105.67,69.56 104.45,69.56C103.72,69.56 103.15,69.71 102.73,70C102.31,70.29 102.1,70.7 102.1,71.22C102.1,71.66 102.29,71.99 102.66,72.23C103.03,72.46 103.67,72.68 104.56,72.89C105.51,73.1 106.28,73.34 106.87,73.6C107.46,73.86 107.92,74.19 108.23,74.6C108.54,75.01 108.7,75.52 108.7,76.14C108.7,76.81 108.52,77.4 108.16,77.91C107.8,78.42 107.29,78.81 106.61,79.08C105.93,79.35 105.13,79.49 104.22,79.49C103.36,79.49 102.55,79.37 101.79,79.14L101.79,79.12ZM117.37,75.78L112.03,75.78C112.09,76.51 112.31,77.04 112.69,77.4C113.07,77.76 113.6,77.93 114.29,77.93C115.15,77.93 115.94,77.65 116.66,77.1L117.24,78.48C116.88,78.78 116.42,79.02 115.87,79.2C115.32,79.38 114.77,79.47 114.21,79.47C112.93,79.47 111.92,79.11 111.18,78.38C110.44,77.65 110.07,76.66 110.07,75.4C110.07,74.6 110.23,73.89 110.55,73.27C110.87,72.65 111.32,72.17 111.9,71.83C112.48,71.49 113.14,71.32 113.88,71.32C114.96,71.32 115.81,71.67 116.43,72.36C117.05,73.05 117.37,74.01 117.37,75.22L117.37,75.78ZM112.63,73.24C112.3,73.58 112.1,74.07 112.03,74.71L115.65,74.71C115.63,74.06 115.47,73.57 115.17,73.23C114.87,72.89 114.46,72.73 113.92,72.73C113.38,72.73 112.96,72.9 112.63,73.24ZM124.15,72.98L122.98,73.09C121.66,73.23 121,73.9 121,75.11L121,79.33L119,79.33L119,71.51L120.9,71.51L120.9,72.89C121.31,71.95 122.14,71.44 123.41,71.35L124.02,71.3L124.15,72.98ZM131.22,71.52L133.19,71.52L129.77,79.33L128.03,79.33L124.64,71.52L126.75,71.52L128.96,77.04L131.23,71.52L131.22,71.52ZM134.15,67.88L136.36,67.88L136.36,69.85L134.15,69.85L134.15,67.88ZM134.26,79.34L134.26,71.52L136.26,71.52L136.26,79.34L134.26,79.34ZM139.71,78.96C139.11,78.63 138.65,78.16 138.33,77.55C138.01,76.94 137.85,76.23 137.85,75.42C137.85,74.61 138.02,73.89 138.35,73.27C138.69,72.65 139.16,72.16 139.78,71.82C140.4,71.48 141.11,71.31 141.92,71.31C142.47,71.31 143.02,71.4 143.54,71.57C144.07,71.75 144.49,71.98 144.81,72.28L144.23,73.69C143.9,73.42 143.55,73.22 143.18,73.08C142.81,72.94 142.45,72.87 142.08,72.87C141.39,72.87 140.85,73.09 140.46,73.52C140.08,73.95 139.88,74.57 139.88,75.38C139.88,76.19 140.07,76.8 140.46,77.23C140.84,77.66 141.38,77.88 142.08,77.88C142.44,77.88 142.81,77.81 143.18,77.67C143.55,77.53 143.9,77.33 144.23,77.06L144.81,78.45C144.47,78.76 144.03,79 143.5,79.18C142.97,79.36 142.41,79.44 141.84,79.44C141.02,79.44 140.31,79.27 139.7,78.94L139.71,78.96ZM152.9,75.78L147.56,75.78C147.62,76.51 147.84,77.04 148.22,77.4C148.6,77.76 149.13,77.93 149.82,77.93C150.68,77.93 151.47,77.65 152.19,77.1L152.77,78.48C152.41,78.78 151.95,79.02 151.4,79.2C150.85,79.38 150.3,79.47 149.74,79.47C148.46,79.47 147.45,79.11 146.71,78.38C145.97,77.65 145.6,76.66 145.6,75.4C145.6,74.6 145.76,73.89 146.08,73.27C146.4,72.65 146.85,72.17 147.43,71.83C148.01,71.49 148.67,71.32 149.41,71.32C150.49,71.32 151.34,71.67 151.96,72.36C152.58,73.05 152.9,74.01 152.9,75.22L152.9,75.78ZM148.16,73.24C147.83,73.58 147.63,74.07 147.56,74.71L151.18,74.71C151.16,74.06 151,73.57 150.7,73.23C150.4,72.89 149.99,72.73 149.45,72.73C148.91,72.73 148.49,72.9 148.16,73.24ZM155.46,79.2C154.88,79.03 154.39,78.78 153.98,78.46L154.54,77.07C155.37,77.68 156.33,77.98 157.4,77.98C157.86,77.98 158.21,77.91 158.45,77.76C158.69,77.61 158.81,77.4 158.81,77.12C158.81,76.89 158.73,76.7 158.56,76.58C158.39,76.46 158.1,76.33 157.67,76.23L156.39,75.94C155.66,75.78 155.13,75.52 154.77,75.16C154.42,74.8 154.24,74.33 154.24,73.75C154.24,73.27 154.38,72.85 154.65,72.48C154.92,72.11 155.3,71.83 155.79,71.62C156.27,71.42 156.84,71.32 157.48,71.32C158.03,71.32 158.57,71.41 159.09,71.58C159.61,71.75 160.06,71.99 160.46,72.3L159.9,73.66C159.09,73.07 158.28,72.78 157.47,72.78C157.03,72.78 156.69,72.86 156.45,73.02C156.2,73.18 156.08,73.4 156.08,73.69C156.08,73.9 156.16,74.08 156.31,74.22C156.46,74.36 156.71,74.47 157.05,74.54L158.38,74.84C159.16,75.01 159.73,75.28 160.09,75.65C160.45,76.02 160.63,76.5 160.63,77.1C160.63,77.83 160.34,78.4 159.75,78.83C159.16,79.26 158.37,79.47 157.37,79.47C156.68,79.47 156.04,79.38 155.46,79.21L155.46,79.2ZM771.69,64.69L774.17,64.69L774.17,65.79L767.9,65.79L767.9,64.69L770.38,64.69L770.38,56.15L768.4,57.4L767.79,56.39L770.75,54.52L771.69,54.52L771.69,64.7L771.69,64.69ZM775.9,54.51L783.36,54.51L783.36,55.49L778.08,65.79L776.66,65.79L781.92,55.61L775.9,55.61L775.9,54.51ZM785.82,60.41C785.34,59.83 785.1,58.97 785.1,57.83C785.1,56.69 785.34,55.84 785.82,55.26C786.3,54.68 786.97,54.39 787.82,54.39C788.67,54.39 789.34,54.68 789.82,55.26C790.3,55.84 790.54,56.7 790.54,57.83C790.54,58.96 790.3,59.83 789.82,60.41C789.34,60.99 788.67,61.28 787.82,61.28C786.97,61.28 786.3,60.99 785.82,60.41ZM788.98,59.75C789.23,59.34 789.36,58.7 789.36,57.83C789.36,56.96 789.24,56.33 788.98,55.93C788.73,55.52 788.34,55.32 787.82,55.32C787.3,55.32 786.91,55.52 786.65,55.93C786.39,56.34 786.27,56.97 786.27,57.83C786.27,58.69 786.4,59.34 786.65,59.75C786.91,60.16 787.3,60.36 787.82,60.36C788.34,60.36 788.73,60.16 788.98,59.75ZM788.8,66.2L787.86,65.66L794.53,54.12L795.47,54.66L788.8,66.2ZM793.5,65.04C793.02,64.46 792.78,63.6 792.78,62.46C792.78,61.32 793.02,60.47 793.5,59.89C793.98,59.31 794.65,59.02 795.5,59.02C796.35,59.02 797.03,59.31 797.51,59.88C797.98,60.46 798.22,61.31 798.22,62.46C798.22,63.61 797.98,64.46 797.51,65.04C797.04,65.62 796.37,65.91 795.5,65.91C794.63,65.91 793.98,65.62 793.5,65.04ZM796.68,64.38C796.93,63.98 797.06,63.34 797.06,62.45C797.06,61.56 796.93,60.95 796.68,60.55C796.42,60.14 796.03,59.94 795.51,59.94C794.99,59.94 794.6,60.14 794.35,60.55C794.1,60.96 793.97,61.59 793.97,62.45C793.97,63.31 794.09,63.97 794.35,64.37C794.6,64.78 794.99,64.98 795.51,64.98C796.03,64.98 796.43,64.78 796.69,64.38L796.68,64.38ZM738.06,91.53L740.54,91.53L740.54,92.63L734.27,92.63L734.27,91.53L736.75,91.53L736.75,82.99L734.77,84.24L734.16,83.23L737.12,81.36L738.06,81.36L738.06,91.54L738.06,91.53ZM748.2,85.99C748.73,86.29 749.15,86.71 749.45,87.25C749.75,87.79 749.9,88.42 749.9,89.12C749.9,89.82 749.75,90.44 749.44,90.99C749.13,91.54 748.7,91.98 748.14,92.29C747.59,92.6 746.96,92.75 746.27,92.75C744.9,92.75 743.85,92.28 743.11,91.33C742.37,90.38 742,89.03 742,87.27C742,86 742.17,84.91 742.52,84.01C742.87,83.1 743.37,82.41 744.02,81.94C744.67,81.47 745.45,81.23 746.36,81.23C747.01,81.23 747.65,81.35 748.26,81.59C748.88,81.83 749.42,82.17 749.89,82.62L749.39,83.63C748.86,83.18 748.35,82.85 747.86,82.65C747.37,82.45 746.88,82.34 746.38,82.34C745.41,82.34 744.65,82.77 744.12,83.63C743.58,84.49 743.31,85.7 743.31,87.27L743.31,87.51C743.56,86.91 743.95,86.44 744.49,86.09C745.03,85.74 745.66,85.56 746.38,85.56C747.1,85.56 747.67,85.71 748.2,86.01L748.2,85.99ZM747.94,90.97C748.38,90.51 748.6,89.9 748.6,89.15C748.6,88.4 748.38,87.8 747.94,87.34C747.5,86.88 746.91,86.65 746.19,86.65C745.47,86.65 744.85,86.88 744.39,87.35C743.93,87.82 743.69,88.41 743.69,89.15C743.69,89.89 743.92,90.5 744.39,90.97C744.85,91.43 745.46,91.67 746.21,91.67C746.96,91.67 747.52,91.44 747.95,90.98L747.94,90.97ZM752.28,87.25C751.8,86.67 751.56,85.81 751.56,84.67C751.56,83.53 751.8,82.68 752.28,82.1C752.76,81.52 753.43,81.23 754.28,81.23C755.13,81.23 755.8,81.52 756.28,82.1C756.76,82.68 757,83.54 757,84.67C757,85.8 756.76,86.67 756.28,87.25C755.8,87.83 755.13,88.12 754.28,88.12C753.43,88.12 752.76,87.83 752.28,87.25ZM755.44,86.59C755.69,86.18 755.82,85.54 755.82,84.67C755.82,83.8 755.7,83.17 755.44,82.77C755.19,82.36 754.8,82.16 754.28,82.16C753.76,82.16 753.37,82.36 753.11,82.77C752.85,83.18 752.73,83.81 752.73,84.67C752.73,85.53 752.86,86.18 753.11,86.59C753.37,87 753.76,87.2 754.28,87.2C754.8,87.2 755.19,87 755.44,86.59ZM755.26,93.04L754.32,92.5L760.99,80.96L761.93,81.5L755.26,93.04ZM759.96,91.88C759.48,91.3 759.24,90.44 759.24,89.3C759.24,88.16 759.48,87.31 759.96,86.73C760.44,86.15 761.11,85.86 761.96,85.86C762.81,85.86 763.49,86.15 763.97,86.72C764.44,87.3 764.68,88.15 764.68,89.3C764.68,90.45 764.44,91.3 763.97,91.88C763.5,92.46 762.83,92.75 761.96,92.75C761.09,92.75 760.44,92.46 759.96,91.88ZM763.14,91.22C763.39,90.82 763.52,90.18 763.52,89.29C763.52,88.4 763.39,87.79 763.14,87.39C762.88,86.98 762.49,86.78 761.97,86.78C761.45,86.78 761.06,86.98 760.81,87.39C760.56,87.8 760.43,88.43 760.43,89.29C760.43,90.15 760.55,90.81 760.81,91.21C761.06,91.62 761.45,91.82 761.97,91.82C762.49,91.82 762.89,91.62 763.15,91.22L763.14,91.22ZM603.52,145.53L606,145.53L606,146.63L599.73,146.63L599.73,145.53L602.21,145.53L602.21,136.99L600.23,138.24L599.62,137.23L602.58,135.36L603.52,135.36L603.52,145.54L603.52,145.53ZM615.52,145.52L615.52,146.63L608.26,146.63L608.26,145.64L612.21,141.29C612.74,140.69 613.13,140.16 613.37,139.68C613.61,139.21 613.73,138.73 613.73,138.25C613.73,137.63 613.55,137.16 613.19,136.83C612.83,136.5 612.31,136.33 611.65,136.33C610.56,136.33 609.5,136.76 608.45,137.63L607.95,136.62C608.4,136.19 608.96,135.85 609.64,135.6C610.32,135.35 611,135.22 611.68,135.22C612.71,135.22 613.53,135.49 614.14,136.02C614.75,136.55 615.04,137.27 615.04,138.18C615.04,138.83 614.89,139.45 614.6,140.05C614.31,140.65 613.82,141.31 613.15,142.05L609.95,145.52L615.52,145.52ZM617.88,141.25C617.4,140.67 617.16,139.81 617.16,138.67C617.16,137.53 617.4,136.68 617.88,136.1C618.36,135.52 619.03,135.23 619.88,135.23C620.73,135.23 621.4,135.52 621.88,136.1C622.36,136.68 622.6,137.54 622.6,138.67C622.6,139.8 622.36,140.67 621.88,141.25C621.4,141.83 620.73,142.12 619.88,142.12C619.03,142.12 618.36,141.83 617.88,141.25ZM621.04,140.59C621.29,140.18 621.42,139.54 621.42,138.67C621.42,137.8 621.3,137.17 621.04,136.77C620.79,136.36 620.4,136.16 619.88,136.16C619.36,136.16 618.97,136.36 618.71,136.77C618.45,137.18 618.33,137.81 618.33,138.67C618.33,139.53 618.46,140.18 618.71,140.59C618.97,141 619.36,141.2 619.88,141.2C620.4,141.2 620.79,141 621.04,140.59ZM620.86,147.04L619.92,146.5L626.59,134.96L627.53,135.5L620.86,147.04ZM625.56,145.88C625.08,145.3 624.84,144.44 624.84,143.3C624.84,142.16 625.08,141.31 625.56,140.73C626.04,140.15 626.71,139.86 627.56,139.86C628.41,139.86 629.09,140.15 629.57,140.72C630.04,141.3 630.28,142.15 630.28,143.3C630.28,144.45 630.04,145.3 629.57,145.88C629.1,146.46 628.43,146.75 627.56,146.75C626.69,146.75 626.04,146.46 625.56,145.88ZM628.74,145.22C628.99,144.82 629.12,144.18 629.12,143.29C629.12,142.4 628.99,141.79 628.74,141.39C628.48,140.98 628.09,140.78 627.57,140.78C627.05,140.78 626.66,140.98 626.41,141.39C626.16,141.8 626.03,142.43 626.03,143.29C626.03,144.15 626.15,144.81 626.41,145.21C626.66,145.62 627.05,145.82 627.57,145.82C628.09,145.82 628.49,145.62 628.75,145.22L628.74,145.22ZM637.15,172.37L639.63,172.37L639.63,173.47L633.36,173.47L633.36,172.37L635.84,172.37L635.84,163.83L633.86,165.08L633.25,164.07L636.21,162.2L637.15,162.2L637.15,172.38L637.15,172.37ZM648.63,168.67C648.98,169.13 649.16,169.72 649.16,170.42C649.16,171.4 648.83,172.17 648.16,172.74C647.49,173.31 646.59,173.59 645.45,173.59C644.72,173.59 644.03,173.47 643.35,173.22C642.68,172.97 642.11,172.63 641.65,172.2L642.15,171.19C643.17,172.05 644.26,172.49 645.41,172.49C646.21,172.49 646.82,172.31 647.23,171.95C647.64,171.59 647.85,171.07 647.85,170.37C647.85,168.99 646.99,168.31 645.26,168.31L643.96,168.31L643.96,167.21L645,167.21C645.83,167.21 646.47,167.03 646.92,166.66C647.37,166.29 647.59,165.76 647.59,165.07C647.59,164.46 647.41,164 647.05,163.67C646.69,163.34 646.17,163.18 645.5,163.18C644.41,163.18 643.35,163.61 642.3,164.48L641.8,163.47C642.26,163.03 642.82,162.69 643.48,162.45C644.14,162.2 644.83,162.08 645.54,162.08C646.56,162.08 647.38,162.34 647.98,162.86C648.58,163.38 648.88,164.07 648.88,164.95C648.88,165.6 648.72,166.17 648.41,166.65C648.1,167.13 647.66,167.48 647.09,167.7C647.75,167.89 648.26,168.22 648.61,168.68L648.63,168.67ZM651.74,168.09C651.26,167.51 651.02,166.65 651.02,165.51C651.02,164.37 651.26,163.52 651.74,162.94C652.22,162.36 652.89,162.07 653.74,162.07C654.59,162.07 655.26,162.36 655.74,162.94C656.22,163.52 656.46,164.38 656.46,165.51C656.46,166.64 656.22,167.51 655.74,168.09C655.26,168.67 654.59,168.96 653.74,168.96C652.89,168.96 652.22,168.67 651.74,168.09ZM654.9,167.43C655.15,167.02 655.28,166.38 655.28,165.51C655.28,164.64 655.16,164.01 654.9,163.61C654.65,163.2 654.26,163 653.74,163C653.22,163 652.83,163.2 652.57,163.61C652.31,164.02 652.19,164.65 652.19,165.51C652.19,166.37 652.32,167.02 652.57,167.43C652.83,167.84 653.22,168.04 653.74,168.04C654.26,168.04 654.65,167.84 654.9,167.43ZM654.72,173.88L653.78,173.34L660.45,161.8L661.39,162.34L654.72,173.88ZM659.42,172.72C658.94,172.14 658.7,171.28 658.7,170.14C658.7,169 658.94,168.15 659.42,167.57C659.9,166.99 660.57,166.7 661.42,166.7C662.27,166.7 662.95,166.99 663.43,167.56C663.9,168.14 664.14,168.99 664.14,170.14C664.14,171.29 663.9,172.14 663.43,172.72C662.96,173.3 662.29,173.59 661.42,173.59C660.55,173.59 659.9,173.3 659.42,172.72ZM662.6,172.06C662.85,171.66 662.98,171.02 662.98,170.13C662.98,169.24 662.85,168.63 662.6,168.23C662.34,167.82 661.95,167.62 661.43,167.62C660.91,167.62 660.52,167.82 660.27,168.23C660.02,168.64 659.89,169.27 659.89,170.13C659.89,170.99 660.01,171.65 660.27,172.05C660.52,172.46 660.91,172.66 661.43,172.66C661.95,172.66 662.35,172.46 662.61,172.06L662.6,172.06ZM603.52,224.85L606,224.85L606,225.95L599.73,225.95L599.73,224.85L602.21,224.85L602.21,216.31L600.23,217.56L599.62,216.55L602.58,214.68L603.52,214.68L603.52,224.86L603.52,224.85ZM615.52,224.84L615.52,225.95L608.26,225.95L608.26,224.96L612.21,220.61C612.74,220.01 613.13,219.48 613.37,219C613.61,218.53 613.73,218.05 613.73,217.57C613.73,216.95 613.55,216.48 613.19,216.15C612.83,215.82 612.31,215.65 611.65,215.65C610.56,215.65 609.5,216.08 608.45,216.95L607.95,215.94C608.4,215.51 608.96,215.17 609.64,214.92C610.32,214.67 611,214.54 611.68,214.54C612.71,214.54 613.53,214.81 614.14,215.34C614.74,215.87 615.04,216.59 615.04,217.5C615.04,218.15 614.89,218.78 614.6,219.37C614.31,219.97 613.82,220.63 613.15,221.37L609.95,224.84L615.52,224.84ZM617.88,220.57C617.4,219.99 617.16,219.13 617.16,217.99C617.16,216.85 617.4,216 617.88,215.42C618.36,214.84 619.03,214.55 619.88,214.55C620.73,214.55 621.4,214.84 621.88,215.42C622.36,216 622.6,216.86 622.6,217.99C622.6,219.12 622.36,219.99 621.88,220.57C621.4,221.15 620.73,221.44 619.88,221.44C619.03,221.44 618.36,221.15 617.88,220.57ZM621.04,219.91C621.29,219.5 621.42,218.87 621.42,217.99C621.42,217.11 621.3,216.49 621.04,216.09C620.78,215.69 620.4,215.48 619.88,215.48C619.36,215.48 618.97,215.68 618.71,216.09C618.45,216.5 618.33,217.13 618.33,217.99C618.33,218.85 618.46,219.5 618.71,219.91C618.97,220.32 619.36,220.52 619.88,220.52C620.4,220.52 620.79,220.32 621.04,219.91ZM620.86,226.36L619.92,225.82L626.59,214.28L627.53,214.82L620.86,226.36ZM625.56,225.2C625.08,224.62 624.84,223.76 624.84,222.62C624.84,221.48 625.08,220.63 625.56,220.05C626.04,219.47 626.71,219.18 627.56,219.18C628.41,219.18 629.09,219.47 629.57,220.04C630.05,220.61 630.28,221.47 630.28,222.62C630.28,223.77 630.04,224.62 629.57,225.2C629.1,225.78 628.43,226.07 627.56,226.07C626.69,226.07 626.04,225.78 625.56,225.2ZM628.74,224.54C628.99,224.14 629.12,223.5 629.12,222.61C629.12,221.72 628.99,221.11 628.74,220.71C628.49,220.31 628.09,220.1 627.57,220.1C627.05,220.1 626.66,220.3 626.41,220.71C626.16,221.12 626.03,221.75 626.03,222.61C626.03,223.47 626.15,224.12 626.41,224.53C626.66,224.94 627.05,225.14 627.57,225.14C628.09,225.14 628.49,224.94 628.75,224.54L628.74,224.54ZM603.52,251.68L606,251.68L606,252.78L599.73,252.78L599.73,251.68L602.21,251.68L602.21,243.14L600.23,244.39L599.62,243.38L602.58,241.51L603.52,241.51L603.52,251.69L603.52,251.68ZM615.52,251.67L615.52,252.78L608.26,252.78L608.26,251.79L612.21,247.44C612.74,246.84 613.13,246.31 613.37,245.83C613.61,245.36 613.73,244.88 613.73,244.4C613.73,243.78 613.55,243.31 613.19,242.98C612.83,242.65 612.31,242.48 611.65,242.48C610.56,242.48 609.5,242.91 608.45,243.78L607.95,242.77C608.4,242.34 608.96,242 609.64,241.75C610.32,241.5 611,241.37 611.68,241.37C612.71,241.37 613.53,241.64 614.14,242.17C614.74,242.7 615.04,243.42 615.04,244.33C615.04,244.98 614.89,245.61 614.6,246.2C614.31,246.8 613.82,247.46 613.15,248.2L609.95,251.67L615.52,251.67ZM617.88,247.4C617.4,246.82 617.16,245.96 617.16,244.82C617.16,243.68 617.4,242.83 617.88,242.25C618.36,241.67 619.03,241.38 619.88,241.38C620.73,241.38 621.4,241.67 621.88,242.25C622.36,242.83 622.6,243.69 622.6,244.82C622.6,245.95 622.36,246.82 621.88,247.4C621.4,247.98 620.73,248.27 619.88,248.27C619.03,248.27 618.36,247.98 617.88,247.4ZM621.04,246.74C621.29,246.33 621.42,245.7 621.42,244.82C621.42,243.94 621.3,243.32 621.04,242.92C620.78,242.52 620.4,242.31 619.88,242.31C619.36,242.31 618.97,242.51 618.71,242.92C618.45,243.33 618.33,243.96 618.33,244.82C618.33,245.68 618.46,246.33 618.71,246.74C618.97,247.15 619.36,247.35 619.88,247.35C620.4,247.35 620.79,247.15 621.04,246.74ZM620.86,253.19L619.92,252.65L626.59,241.11L627.53,241.65L620.86,253.19ZM625.56,252.03C625.08,251.45 624.84,250.59 624.84,249.45C624.84,248.31 625.08,247.46 625.56,246.88C626.04,246.3 626.71,246.01 627.56,246.01C628.41,246.01 629.09,246.3 629.57,246.87C630.05,247.44 630.28,248.3 630.28,249.45C630.28,250.6 630.04,251.45 629.57,252.03C629.1,252.61 628.43,252.9 627.56,252.9C626.69,252.9 626.04,252.61 625.56,252.03ZM628.74,251.37C628.99,250.97 629.12,250.33 629.12,249.44C629.12,248.55 628.99,247.94 628.74,247.54C628.49,247.14 628.09,246.93 627.57,246.93C627.05,246.93 626.66,247.13 626.41,247.54C626.16,247.95 626.03,248.58 626.03,249.44C626.03,250.3 626.15,250.95 626.41,251.36C626.66,251.77 627.05,251.97 627.57,251.97C628.09,251.97 628.49,251.77 628.75,251.37L628.74,251.37ZM536.25,304.77L538.73,304.77L538.73,305.87L532.46,305.87L532.46,304.77L534.94,304.77L534.94,296.23L532.96,297.48L532.35,296.47L535.31,294.6L536.25,294.6L536.25,304.78L536.25,304.77ZM541.22,304.53C540.55,303.55 540.21,302.12 540.21,300.24C540.21,298.36 540.55,296.92 541.22,295.94C541.89,294.96 542.87,294.47 544.16,294.47C545.45,294.47 546.43,294.96 547.1,295.93C547.77,296.91 548.11,298.34 548.11,300.23C548.11,302.12 547.77,303.55 547.1,304.53C546.43,305.51 545.45,306 544.16,306C542.87,306 541.89,305.51 541.22,304.53ZM546.15,303.76C546.58,303 546.79,301.82 546.79,300.22C546.79,298.62 546.58,297.43 546.16,296.69C545.74,295.95 545.07,295.58 544.17,295.58C543.27,295.58 542.61,295.95 542.19,296.7C541.76,297.45 541.55,298.62 541.55,300.22C541.55,301.82 541.76,303 542.19,303.76C542.62,304.52 543.28,304.9 544.17,304.9C545.06,304.9 545.73,304.52 546.15,303.76ZM550.61,300.49C550.13,299.91 549.89,299.05 549.89,297.91C549.89,296.77 550.13,295.92 550.61,295.34C551.09,294.76 551.76,294.47 552.61,294.47C553.46,294.47 554.13,294.76 554.61,295.34C555.09,295.92 555.33,296.78 555.33,297.91C555.33,299.04 555.09,299.91 554.61,300.49C554.13,301.07 553.46,301.36 552.61,301.36C551.76,301.36 551.09,301.07 550.61,300.49ZM553.77,299.83C554.02,299.42 554.15,298.79 554.15,297.91C554.15,297.03 554.03,296.41 553.77,296.01C553.51,295.61 553.13,295.4 552.61,295.4C552.09,295.4 551.7,295.6 551.44,296.01C551.18,296.42 551.06,297.05 551.06,297.91C551.06,298.77 551.19,299.42 551.44,299.83C551.7,300.24 552.09,300.44 552.61,300.44C553.13,300.44 553.52,300.24 553.77,299.83ZM553.59,306.28L552.65,305.74L559.32,294.2L560.26,294.74L553.59,306.28ZM558.29,305.12C557.81,304.54 557.57,303.68 557.57,302.54C557.57,301.4 557.81,300.55 558.29,299.97C558.77,299.39 559.44,299.1 560.29,299.1C561.14,299.1 561.82,299.39 562.3,299.96C562.78,300.53 563.01,301.39 563.01,302.54C563.01,303.69 562.77,304.54 562.3,305.12C561.83,305.7 561.16,305.99 560.29,305.99C559.42,305.99 558.77,305.7 558.29,305.12ZM561.47,304.46C561.72,304.06 561.85,303.42 561.85,302.53C561.85,301.64 561.72,301.03 561.47,300.63C561.22,300.23 560.82,300.02 560.3,300.02C559.78,300.02 559.39,300.22 559.14,300.63C558.89,301.04 558.76,301.67 558.76,302.53C558.76,303.39 558.88,304.04 559.14,304.45C559.39,304.86 559.78,305.06 560.3,305.06C560.82,305.06 561.22,304.86 561.48,304.46L561.47,304.46ZM603.52,331.61L606,331.61L606,332.71L599.73,332.71L599.73,331.61L602.21,331.61L602.21,323.07L600.23,324.32L599.62,323.31L602.58,321.44L603.52,321.44L603.52,331.62L603.52,331.61ZM615.52,331.6L615.52,332.71L608.26,332.71L608.26,331.72L612.21,327.37C612.74,326.77 613.13,326.24 613.37,325.76C613.61,325.29 613.73,324.81 613.73,324.33C613.73,323.71 613.55,323.24 613.19,322.91C612.83,322.58 612.31,322.41 611.65,322.41C610.56,322.41 609.5,322.84 608.45,323.71L607.95,322.7C608.4,322.27 608.96,321.93 609.64,321.68C610.32,321.43 611,321.3 611.68,321.3C612.71,321.3 613.53,321.57 614.14,322.1C614.74,322.63 615.04,323.35 615.04,324.26C615.04,324.91 614.89,325.54 614.6,326.13C614.31,326.73 613.82,327.39 613.15,328.13L609.95,331.6L615.52,331.6ZM617.88,327.33C617.4,326.75 617.16,325.89 617.16,324.75C617.16,323.61 617.4,322.76 617.88,322.18C618.36,321.6 619.03,321.31 619.88,321.31C620.73,321.31 621.4,321.6 621.88,322.18C622.36,322.76 622.6,323.62 622.6,324.75C622.6,325.88 622.36,326.75 621.88,327.33C621.4,327.91 620.73,328.2 619.88,328.2C619.03,328.2 618.36,327.91 617.88,327.33ZM621.04,326.67C621.29,326.26 621.42,325.63 621.42,324.75C621.42,323.87 621.3,323.25 621.04,322.85C620.78,322.45 620.4,322.24 619.88,322.24C619.36,322.24 618.97,322.44 618.71,322.85C618.45,323.26 618.33,323.89 618.33,324.75C618.33,325.61 618.46,326.26 618.71,326.67C618.97,327.08 619.36,327.28 619.88,327.28C620.4,327.28 620.79,327.08 621.04,326.67ZM620.86,333.12L619.92,332.58L626.59,321.04L627.53,321.58L620.86,333.12ZM625.56,331.96C625.08,331.38 624.84,330.52 624.84,329.38C624.84,328.24 625.08,327.39 625.56,326.81C626.04,326.23 626.71,325.94 627.56,325.94C628.41,325.94 629.09,326.23 629.57,326.8C630.05,327.37 630.28,328.23 630.28,329.38C630.28,330.53 630.04,331.38 629.57,331.96C629.1,332.54 628.43,332.83 627.56,332.83C626.69,332.83 626.04,332.54 625.56,331.96ZM628.74,331.3C628.99,330.9 629.12,330.26 629.12,329.37C629.12,328.48 628.99,327.87 628.74,327.47C628.49,327.07 628.09,326.86 627.57,326.86C627.05,326.86 626.66,327.06 626.41,327.47C626.16,327.88 626.03,328.51 626.03,329.37C626.03,330.23 626.15,330.88 626.41,331.29C626.66,331.7 627.05,331.9 627.57,331.9C628.09,331.9 628.49,331.7 628.75,331.3L628.74,331.3ZM504.35,377.07C505.09,378.02 505.46,379.37 505.46,381.13C505.46,383.04 505.08,384.52 504.31,385.59C503.54,386.65 502.47,387.18 501.09,387.18C500.45,387.18 499.82,387.06 499.2,386.82C498.58,386.58 498.04,386.24 497.57,385.79L498.07,384.78C498.6,385.23 499.11,385.56 499.6,385.76C500.08,385.97 500.58,386.07 501.08,386.07C502.05,386.07 502.8,385.64 503.34,384.78C503.88,383.92 504.14,382.71 504.14,381.14L504.14,380.93C503.89,381.53 503.5,382 502.95,382.34C502.4,382.68 501.78,382.85 501.09,382.85C500.4,382.85 499.8,382.7 499.27,382.4C498.74,382.1 498.32,381.68 498.02,381.14C497.72,380.6 497.57,379.97 497.57,379.27C497.57,378.57 497.72,377.95 498.03,377.4C498.34,376.85 498.77,376.41 499.33,376.1C499.88,375.79 500.51,375.64 501.2,375.64C502.57,375.64 503.62,376.11 504.36,377.06L504.35,377.07ZM503.07,381.06C503.53,380.6 503.77,380 503.77,379.26C503.77,378.52 503.54,377.91 503.07,377.44C502.61,376.98 502,376.74 501.25,376.74C500.5,376.74 499.94,376.97 499.51,377.43C499.07,377.89 498.85,378.5 498.85,379.25C498.85,380 499.07,380.61 499.51,381.07C499.95,381.52 500.54,381.75 501.26,381.75C501.98,381.75 502.6,381.52 503.06,381.05L503.07,381.06ZM507.99,381.67C507.51,381.09 507.27,380.23 507.27,379.09C507.27,377.95 507.51,377.1 507.99,376.52C508.47,375.94 509.14,375.65 509.99,375.65C510.84,375.65 511.51,375.94 511.99,376.52C512.47,377.1 512.71,377.96 512.71,379.09C512.71,380.22 512.47,381.09 511.99,381.67C511.51,382.25 510.84,382.54 509.99,382.54C509.14,382.54 508.47,382.25 507.99,381.67ZM511.15,381.01C511.4,380.6 511.53,379.97 511.53,379.09C511.53,378.21 511.41,377.59 511.15,377.19C510.89,376.79 510.51,376.58 509.99,376.58C509.47,376.58 509.08,376.78 508.82,377.19C508.56,377.6 508.44,378.23 508.44,379.09C508.44,379.95 508.57,380.6 508.82,381.01C509.08,381.42 509.47,381.62 509.99,381.62C510.51,381.62 510.9,381.42 511.15,381.01ZM510.97,387.46L510.03,386.92L516.7,375.38L517.64,375.92L510.97,387.46ZM515.67,386.3C515.19,385.72 514.95,384.86 514.95,383.72C514.95,382.58 515.19,381.73 515.67,381.15C516.15,380.57 516.82,380.28 517.67,380.28C518.52,380.28 519.2,380.57 519.68,381.14C520.16,381.71 520.39,382.57 520.39,383.72C520.39,384.87 520.15,385.72 519.68,386.3C519.21,386.88 518.54,387.17 517.67,387.17C516.8,387.17 516.15,386.88 515.67,386.3ZM518.85,385.64C519.1,385.24 519.23,384.6 519.23,383.71C519.23,382.82 519.1,382.21 518.85,381.81C518.6,381.41 518.2,381.2 517.68,381.2C517.16,381.2 516.77,381.4 516.52,381.81C516.27,382.22 516.14,382.85 516.14,383.71C516.14,384.57 516.26,385.22 516.52,385.63C516.77,386.04 517.16,386.24 517.68,386.24C518.2,386.24 518.6,386.04 518.86,385.64L518.85,385.64ZM536.25,412.79L538.73,412.79L538.73,413.89L532.46,413.89L532.46,412.79L534.94,412.79L534.94,404.25L532.96,405.5L532.35,404.49L535.31,402.62L536.25,402.62L536.25,412.8L536.25,412.79ZM541.22,412.55C540.55,411.57 540.21,410.14 540.21,408.26C540.21,406.38 540.55,404.94 541.22,403.96C541.89,402.98 542.87,402.49 544.16,402.49C545.45,402.49 546.43,402.98 547.1,403.95C547.77,404.93 548.11,406.36 548.11,408.25C548.11,410.14 547.77,411.57 547.1,412.55C546.43,413.53 545.45,414.02 544.16,414.02C542.87,414.02 541.89,413.53 541.22,412.55ZM546.15,411.78C546.58,411.02 546.79,409.84 546.79,408.24C546.79,406.64 546.58,405.45 546.16,404.71C545.74,403.97 545.07,403.6 544.17,403.6C543.27,403.6 542.61,403.97 542.19,404.72C541.76,405.47 541.55,406.64 541.55,408.24C541.55,409.84 541.76,411.02 542.19,411.78C542.62,412.54 543.28,412.92 544.17,412.92C545.06,412.92 545.73,412.54 546.15,411.78ZM550.61,408.51C550.13,407.93 549.89,407.07 549.89,405.93C549.89,404.79 550.13,403.94 550.61,403.36C551.09,402.78 551.76,402.49 552.61,402.49C553.46,402.49 554.13,402.78 554.61,403.36C555.09,403.94 555.33,404.8 555.33,405.93C555.33,407.06 555.09,407.93 554.61,408.51C554.13,409.09 553.46,409.38 552.61,409.38C551.76,409.38 551.09,409.09 550.61,408.51ZM553.77,407.85C554.02,407.44 554.15,406.81 554.15,405.93C554.15,405.05 554.03,404.43 553.77,404.03C553.51,403.63 553.13,403.42 552.61,403.42C552.09,403.42 551.7,403.62 551.44,404.03C551.18,404.44 551.06,405.07 551.06,405.93C551.06,406.79 551.19,407.44 551.44,407.85C551.7,408.26 552.09,408.46 552.61,408.46C553.13,408.46 553.52,408.26 553.77,407.85ZM553.59,414.3L552.65,413.76L559.32,402.22L560.26,402.76L553.59,414.3ZM558.29,413.14C557.81,412.56 557.57,411.7 557.57,410.56C557.57,409.42 557.81,408.57 558.29,407.99C558.77,407.41 559.44,407.12 560.29,407.12C561.14,407.12 561.82,407.41 562.3,407.98C562.78,408.55 563.01,409.41 563.01,410.56C563.01,411.71 562.77,412.56 562.3,413.14C561.83,413.72 561.16,414.01 560.29,414.01C559.42,414.01 558.77,413.72 558.29,413.14ZM561.47,412.48C561.72,412.08 561.85,411.44 561.85,410.55C561.85,409.66 561.72,409.05 561.47,408.65C561.22,408.25 560.82,408.04 560.3,408.04C559.78,408.04 559.39,408.24 559.14,408.65C558.89,409.06 558.76,409.69 558.76,410.55C558.76,411.41 558.88,412.06 559.14,412.47C559.39,412.88 559.78,413.08 560.3,413.08C560.82,413.08 561.22,412.88 561.48,412.48L561.47,412.48ZM86.15,148.78L88.17,148.78L88.17,160.06L86.15,160.06L86.15,155.16L80.37,155.16L80.37,160.06L78.34,160.06L78.34,148.78L80.37,148.78L80.37,153.5L86.15,153.5L86.15,148.78ZM97.39,156.5L92.05,156.5C92.11,157.23 92.33,157.76 92.71,158.12C93.09,158.48 93.62,158.65 94.31,158.65C95.17,158.65 95.96,158.37 96.68,157.82L97.26,159.2C96.9,159.5 96.44,159.74 95.89,159.92C95.34,160.1 94.79,160.19 94.23,160.19C92.95,160.19 91.94,159.83 91.2,159.1C90.46,158.37 90.09,157.38 90.09,156.12C90.09,155.32 90.25,154.61 90.57,153.99C90.89,153.37 91.34,152.89 91.92,152.55C92.5,152.21 93.16,152.04 93.9,152.04C94.98,152.04 95.83,152.39 96.45,153.08C97.07,153.77 97.39,154.73 97.39,155.94L97.39,156.5ZM92.65,153.96C92.32,154.3 92.12,154.79 92.05,155.43L95.67,155.43C95.65,154.78 95.49,154.29 95.19,153.95C94.89,153.61 94.48,153.45 93.94,153.45C93.4,153.45 92.98,153.62 92.65,153.96ZM104.68,152.84C105.21,153.37 105.48,154.19 105.48,155.3L105.48,160.05L103.58,160.05L103.58,158.85C103.405,159.26 103.103,159.603 102.72,159.83C102.33,160.06 101.88,160.18 101.37,160.18C100.86,160.18 100.37,160.07 99.95,159.86C99.53,159.65 99.19,159.35 98.94,158.98C98.69,158.61 98.57,158.19 98.57,157.73C98.57,157.15 98.72,156.7 99.01,156.37C99.3,156.04 99.78,155.8 100.44,155.65C101.1,155.5 102.01,155.43 103.18,155.43L103.58,155.43L103.58,155.06C103.58,154.53 103.47,154.14 103.24,153.91C103.01,153.68 102.63,153.56 102.1,153.56C101.68,153.56 101.25,153.63 100.8,153.78C100.35,153.92 99.9,154.12 99.46,154.38L98.9,153C99.34,152.72 99.87,152.49 100.48,152.31C101.1,152.13 101.69,152.04 102.24,152.04C103.34,152.04 104.15,152.31 104.69,152.84L104.68,152.84ZM103.07,158.21C103.41,157.85 103.57,157.39 103.57,156.83L103.57,156.49L103.28,156.49C102.57,156.49 102.01,156.52 101.62,156.59C101.23,156.66 100.94,156.77 100.77,156.93C100.6,157.09 100.51,157.31 100.51,157.59C100.51,157.93 100.63,158.21 100.86,158.43C101.09,158.65 101.39,158.76 101.76,158.76C102.29,158.76 102.73,158.58 103.06,158.22L103.07,158.21ZM107.45,160.06L107.45,148.78L109.45,148.78L109.45,160.06L107.45,160.06ZM116.3,158.63L116.2,160.12C115.88,160.15 115.59,160.17 115.32,160.17C114.22,160.17 113.41,159.92 112.89,159.41C112.37,158.9 112.11,158.15 112.11,157.15L112.11,153.74L110.61,153.74L110.61,152.24L112.11,152.24L112.11,149.9L114.11,149.9L114.11,152.24L116.17,152.24L116.17,153.74L114.11,153.74L114.11,157.12C114.11,158.17 114.6,158.69 115.57,158.69C115.8,158.69 116.05,158.67 116.31,158.64L116.3,158.63ZM124.12,152.84C124.58,153.37 124.81,154.18 124.81,155.26L124.81,160.06L122.81,160.06L122.81,155.37C122.81,154.76 122.7,154.32 122.47,154.04C122.24,153.76 121.88,153.62 121.39,153.62C120.81,153.62 120.35,153.8 120.01,154.16C119.66,154.52 119.49,155.01 119.49,155.62L119.49,160.05L117.49,160.05L117.49,148.77L119.49,148.77L119.49,153.31C119.76,152.89 120.11,152.58 120.55,152.36C120.99,152.14 121.49,152.03 122.03,152.03C122.97,152.03 123.67,152.3 124.13,152.83L124.12,152.84ZM132.6,159.69C132,159.36 131.54,158.89 131.22,158.28C130.9,157.67 130.74,156.96 130.74,156.15C130.74,155.34 130.91,154.62 131.24,154C131.58,153.38 132.05,152.89 132.67,152.55C133.29,152.21 134,152.04 134.81,152.04C135.36,152.04 135.91,152.13 136.43,152.3C136.96,152.48 137.38,152.71 137.7,153.01L137.12,154.42C136.79,154.15 136.44,153.95 136.07,153.81C135.7,153.67 135.34,153.6 134.97,153.6C134.28,153.6 133.74,153.82 133.35,154.25C132.97,154.68 132.77,155.3 132.77,156.11C132.77,156.92 132.96,157.53 133.35,157.96C133.73,158.39 134.27,158.61 134.97,158.61C135.33,158.61 135.7,158.54 136.07,158.4C136.44,158.26 136.79,158.06 137.12,157.79L137.7,159.18C137.36,159.49 136.92,159.73 136.39,159.91C135.86,160.09 135.3,160.17 134.73,160.17C133.91,160.17 133.2,160 132.59,159.67L132.6,159.69ZM144.77,152.84C145.3,153.37 145.57,154.19 145.57,155.3L145.57,160.05L143.67,160.05L143.67,158.85C143.495,159.26 143.193,159.603 142.81,159.83C142.42,160.06 141.97,160.18 141.46,160.18C140.95,160.18 140.46,160.07 140.04,159.86C139.62,159.65 139.28,159.35 139.03,158.98C138.78,158.61 138.66,158.19 138.66,157.73C138.66,157.15 138.81,156.7 139.1,156.37C139.39,156.04 139.87,155.8 140.53,155.65C141.19,155.5 142.1,155.43 143.27,155.43L143.67,155.43L143.67,155.06C143.67,154.53 143.56,154.14 143.33,153.91C143.1,153.68 142.72,153.56 142.19,153.56C141.77,153.56 141.34,153.63 140.89,153.78C140.44,153.92 139.99,154.12 139.55,154.38L138.99,153C139.43,152.72 139.96,152.49 140.57,152.31C141.19,152.13 141.78,152.04 142.33,152.04C143.43,152.04 144.24,152.31 144.78,152.84L144.77,152.84ZM143.16,158.21C143.5,157.85 143.66,157.39 143.66,156.83L143.66,156.49L143.37,156.49C142.66,156.49 142.1,156.52 141.71,156.59C141.32,156.66 141.03,156.77 140.86,156.93C140.69,157.09 140.6,157.31 140.6,157.59C140.6,157.93 140.72,158.21 140.95,158.43C141.18,158.65 141.48,158.76 141.85,158.76C142.38,158.76 142.82,158.58 143.15,158.22L143.16,158.21ZM152.7,153.7L151.53,153.81C150.21,153.95 149.55,154.62 149.55,155.83L149.55,160.05L147.55,160.05L147.55,152.23L149.45,152.23L149.45,153.61C149.86,152.67 150.69,152.16 151.96,152.07L152.57,152.02L152.7,153.7ZM160.63,156.5L155.29,156.5C155.35,157.23 155.57,157.76 155.95,158.12C156.33,158.48 156.86,158.65 157.55,158.65C158.41,158.65 159.2,158.37 159.92,157.82L160.5,159.2C160.14,159.5 159.68,159.74 159.13,159.92C158.58,160.1 158.03,160.19 157.47,160.19C156.19,160.19 155.18,159.83 154.44,159.1C153.7,158.37 153.33,157.38 153.33,156.12C153.33,155.32 153.49,154.61 153.81,153.99C154.13,153.37 154.58,152.89 155.16,152.55C155.74,152.21 156.4,152.04 157.14,152.04C158.22,152.04 159.07,152.39 159.69,153.08C160.31,153.77 160.63,154.73 160.63,155.94L160.63,156.5ZM155.89,153.96C155.56,154.3 155.36,154.79 155.29,155.43L158.91,155.43C158.89,154.78 158.73,154.29 158.43,153.95C158.13,153.61 157.72,153.45 157.18,153.45C156.64,153.45 156.22,153.62 155.89,153.96ZM31.41,240.78L31.41,229.5L38.8,229.5L38.8,231.15L33.44,231.15L33.44,234.22L38.48,234.22L38.48,235.87L33.44,235.87L33.44,240.78L31.41,240.78ZM40.21,229.32L42.42,229.32L42.42,231.29L40.21,231.29L40.21,229.32ZM40.32,240.78L40.32,232.96L42.32,232.96L42.32,240.78L40.32,240.78ZM50.98,233.56C51.44,234.09 51.67,234.9 51.67,235.98L51.67,240.78L49.67,240.78L49.67,236.09C49.67,235.48 49.56,235.04 49.33,234.76C49.1,234.48 48.74,234.34 48.25,234.34C47.67,234.34 47.21,234.52 46.87,234.88C46.52,235.24 46.35,235.73 46.35,236.34L46.35,240.77L44.35,240.77L44.35,232.95L46.3,232.95L46.3,234.12C46.57,233.68 46.92,233.35 47.37,233.11C47.82,232.88 48.32,232.76 48.89,232.76C49.83,232.76 50.53,233.03 50.99,233.56L50.98,233.56ZM59.36,233.56C59.89,234.09 60.16,234.91 60.16,236.02L60.16,240.77L58.26,240.77L58.26,239.57C58.085,239.98 57.783,240.323 57.4,240.55C57.01,240.78 56.56,240.9 56.05,240.9C55.54,240.9 55.05,240.79 54.63,240.58C54.2,240.37 53.87,240.07 53.62,239.7C53.37,239.33 53.25,238.91 53.25,238.45C53.25,237.87 53.4,237.42 53.69,237.09C53.98,236.76 54.46,236.52 55.12,236.37C55.78,236.22 56.69,236.15 57.86,236.15L58.26,236.15L58.26,235.78C58.26,235.25 58.15,234.86 57.92,234.63C57.69,234.39 57.31,234.28 56.78,234.28C56.36,234.28 55.93,234.35 55.48,234.5C55.03,234.64 54.58,234.84 54.14,235.1L53.58,233.72C54.02,233.44 54.55,233.21 55.16,233.03C55.78,232.85 56.37,232.76 56.92,232.76C58.02,232.76 58.83,233.03 59.37,233.56L59.36,233.56ZM57.75,238.93C58.09,238.57 58.25,238.11 58.25,237.55L58.25,237.21L57.96,237.21C57.25,237.21 56.69,237.24 56.3,237.31C55.91,237.37 55.62,237.49 55.45,237.65C55.28,237.81 55.19,238.03 55.19,238.31C55.19,238.65 55.31,238.93 55.54,239.15C55.77,239.37 56.07,239.48 56.44,239.48C56.97,239.48 57.41,239.3 57.74,238.94L57.75,238.93ZM68.78,233.56C69.24,234.09 69.47,234.9 69.47,235.98L69.47,240.78L67.47,240.78L67.47,236.09C67.47,235.48 67.36,235.04 67.13,234.76C66.9,234.48 66.54,234.34 66.05,234.34C65.47,234.34 65.01,234.52 64.67,234.88C64.32,235.24 64.15,235.73 64.15,236.34L64.15,240.77L62.15,240.77L62.15,232.95L64.1,232.95L64.1,234.12C64.37,233.68 64.72,233.35 65.17,233.11C65.62,232.88 66.12,232.76 66.69,232.76C67.63,232.76 68.33,233.03 68.79,233.56L68.78,233.56ZM72.88,240.41C72.28,240.08 71.82,239.61 71.5,239C71.18,238.39 71.02,237.68 71.02,236.87C71.02,236.06 71.19,235.34 71.52,234.72C71.86,234.1 72.33,233.61 72.95,233.27C73.57,232.93 74.28,232.76 75.09,232.76C75.64,232.76 76.19,232.85 76.71,233.02C77.23,233.19 77.66,233.43 77.98,233.73L77.4,235.14C77.07,234.87 76.72,234.67 76.35,234.53C75.98,234.39 75.62,234.32 75.25,234.32C74.56,234.32 74.02,234.54 73.63,234.97C73.25,235.4 73.05,236.02 73.05,236.83C73.05,237.64 73.24,238.25 73.63,238.68C74.01,239.11 74.55,239.33 75.25,239.33C75.61,239.33 75.98,239.26 76.35,239.12C76.72,238.98 77.07,238.78 77.4,238.51L77.98,239.9C77.64,240.21 77.2,240.45 76.67,240.63C76.14,240.81 75.58,240.89 75.01,240.89C74.19,240.89 73.48,240.72 72.87,240.39L72.88,240.41ZM79.2,229.32L81.41,229.32L81.41,231.29L79.2,231.29L79.2,229.32ZM79.31,240.78L79.31,232.96L81.31,232.96L81.31,240.78L79.31,240.78ZM89.04,233.56C89.57,234.09 89.84,234.91 89.84,236.02L89.84,240.77L87.94,240.77L87.94,239.57C87.765,239.98 87.463,240.323 87.08,240.55C86.69,240.78 86.24,240.9 85.73,240.9C85.22,240.9 84.73,240.79 84.31,240.58C83.88,240.37 83.55,240.07 83.3,239.7C83.05,239.33 82.93,238.91 82.93,238.45C82.93,237.87 83.08,237.42 83.37,237.09C83.66,236.76 84.14,236.52 84.8,236.37C85.46,236.22 86.37,236.15 87.54,236.15L87.94,236.15L87.94,235.78C87.94,235.25 87.83,234.86 87.6,234.63C87.37,234.39 86.99,234.28 86.46,234.28C86.04,234.28 85.61,234.35 85.16,234.5C84.71,234.64 84.26,234.84 83.82,235.1L83.26,233.72C83.7,233.44 84.23,233.21 84.84,233.03C85.46,232.85 86.05,232.76 86.6,232.76C87.7,232.76 88.51,233.03 89.05,233.56L89.04,233.56ZM87.43,238.93C87.77,238.57 87.93,238.11 87.93,237.55L87.93,237.21L87.64,237.21C86.93,237.21 86.37,237.24 85.98,237.31C85.59,237.37 85.3,237.49 85.13,237.65C84.96,237.81 84.87,238.03 84.87,238.31C84.87,238.65 84.99,238.93 85.22,239.15C85.45,239.37 85.75,239.48 86.12,239.48C86.65,239.48 87.09,239.3 87.42,238.94L87.43,238.93ZM91.82,240.78L91.82,229.5L93.82,229.5L93.82,240.78L91.82,240.78ZM101.79,240.57C101.092,240.367 100.44,240.031 99.87,239.58L100.56,238.08C101.1,238.5 101.68,238.8 102.28,238.99C102.88,239.18 103.54,239.28 104.24,239.28C105.02,239.28 105.62,239.14 106.04,238.87C106.46,238.6 106.67,238.22 106.67,237.73C106.67,237.3 106.48,236.98 106.09,236.75C105.7,236.53 105.05,236.31 104.15,236.11C103.21,235.91 102.45,235.67 101.86,235.41C101.27,235.15 100.83,234.8 100.53,234.39C100.23,233.97 100.08,233.45 100.08,232.81C100.08,232.17 100.26,231.56 100.62,231.03C100.98,230.5 101.49,230.1 102.16,229.81C102.82,229.52 103.58,229.37 104.45,229.37C105.24,229.37 105.99,229.49 106.71,229.73C107.42,229.97 108.01,230.3 108.47,230.71L107.78,232.21C106.78,231.41 105.67,231.01 104.45,231.01C103.72,231.01 103.15,231.16 102.73,231.45C102.31,231.74 102.1,232.15 102.1,232.67C102.1,233.11 102.29,233.44 102.66,233.68C103.03,233.91 103.67,234.13 104.56,234.34C105.51,234.55 106.28,234.79 106.87,235.05C107.46,235.31 107.92,235.64 108.23,236.05C108.54,236.46 108.7,236.97 108.7,237.59C108.7,238.26 108.52,238.85 108.16,239.36C107.8,239.87 107.29,240.26 106.61,240.53C105.93,240.8 105.13,240.94 104.22,240.94C103.36,240.94 102.55,240.82 101.79,240.59L101.79,240.57ZM117.37,237.23L112.03,237.23C112.09,237.96 112.31,238.49 112.69,238.85C113.06,239.2 113.6,239.38 114.29,239.38C115.15,239.38 115.94,239.1 116.66,238.55L117.24,239.93C116.88,240.23 116.42,240.47 115.87,240.65C115.32,240.83 114.77,240.92 114.21,240.92C112.93,240.92 111.92,240.56 111.18,239.83C110.44,239.1 110.07,238.11 110.07,236.85C110.07,236.05 110.23,235.34 110.55,234.72C110.87,234.1 111.32,233.62 111.9,233.28C112.48,232.94 113.14,232.77 113.88,232.77C114.96,232.77 115.81,233.12 116.43,233.81C117.05,234.5 117.37,235.46 117.37,236.67L117.37,237.23ZM112.63,234.69C112.3,235.03 112.1,235.52 112.03,236.16L115.65,236.16C115.63,235.51 115.47,235.02 115.17,234.68C114.87,234.34 114.46,234.18 113.92,234.18C113.38,234.18 112.96,234.35 112.63,234.69ZM124.15,234.43L122.98,234.54C121.66,234.68 121,235.35 121,236.56L121,240.78L119,240.78L119,232.96L120.9,232.96L120.9,234.34C121.31,233.4 122.14,232.89 123.41,232.8L124.02,232.75L124.15,234.43ZM131.22,232.97L133.19,232.97L129.77,240.78L128.03,240.78L124.64,232.97L126.75,232.97L128.96,238.49L131.23,232.97L131.22,232.97ZM134.15,229.32L136.36,229.32L136.36,231.29L134.15,231.29L134.15,229.32ZM134.26,240.78L134.26,232.96L136.26,232.96L136.26,240.78L134.26,240.78ZM139.71,240.41C139.11,240.08 138.65,239.61 138.33,239C138.01,238.39 137.85,237.68 137.85,236.87C137.85,236.06 138.02,235.34 138.35,234.72C138.69,234.1 139.16,233.61 139.78,233.27C140.4,232.93 141.11,232.76 141.92,232.76C142.47,232.76 143.02,232.85 143.54,233.02C144.06,233.19 144.49,233.43 144.81,233.73L144.23,235.14C143.9,234.87 143.55,234.67 143.18,234.53C142.81,234.39 142.45,234.32 142.08,234.32C141.39,234.32 140.85,234.54 140.46,234.97C140.08,235.4 139.88,236.02 139.88,236.83C139.88,237.64 140.07,238.25 140.46,238.68C140.84,239.11 141.38,239.33 142.08,239.33C142.44,239.33 142.81,239.26 143.18,239.12C143.55,238.98 143.9,238.78 144.23,238.51L144.81,239.9C144.47,240.21 144.03,240.45 143.5,240.63C142.97,240.81 142.41,240.89 141.84,240.89C141.02,240.89 140.31,240.72 139.7,240.39L139.71,240.41ZM152.9,237.23L147.56,237.23C147.62,237.96 147.84,238.49 148.22,238.85C148.59,239.2 149.13,239.38 149.82,239.38C150.68,239.38 151.47,239.1 152.19,238.55L152.77,239.93C152.41,240.23 151.95,240.47 151.4,240.65C150.85,240.83 150.3,240.92 149.74,240.92C148.46,240.92 147.45,240.56 146.71,239.83C145.97,239.1 145.6,238.11 145.6,236.85C145.6,236.05 145.76,235.34 146.08,234.72C146.4,234.1 146.85,233.62 147.43,233.28C148.01,232.94 148.67,232.77 149.41,232.77C150.49,232.77 151.34,233.12 151.96,233.81C152.58,234.5 152.9,235.46 152.9,236.67L152.9,237.23ZM148.16,234.69C147.83,235.03 147.63,235.52 147.56,236.16L151.18,236.16C151.16,235.51 151,235.02 150.7,234.68C150.4,234.34 149.99,234.18 149.45,234.18C148.91,234.18 148.49,234.35 148.16,234.69ZM155.46,240.65C154.88,240.48 154.39,240.23 153.98,239.91L154.54,238.52C155.37,239.13 156.33,239.43 157.4,239.43C157.86,239.43 158.21,239.35 158.45,239.21C158.679,239.08 158.818,238.833 158.81,238.57C158.81,238.34 158.73,238.15 158.56,238.03C158.39,237.91 158.1,237.78 157.67,237.68L156.39,237.39C155.66,237.23 155.13,236.97 154.77,236.61C154.41,236.25 154.24,235.78 154.24,235.2C154.24,234.72 154.38,234.3 154.65,233.93C154.92,233.56 155.3,233.28 155.79,233.07C156.27,232.87 156.84,232.77 157.48,232.77C158.03,232.77 158.57,232.85 159.09,233.03C159.61,233.2 160.06,233.44 160.46,233.75L159.9,235.11C159.09,234.52 158.28,234.23 157.47,234.23C157.03,234.23 156.69,234.31 156.45,234.47C156.2,234.63 156.08,234.85 156.08,235.14C156.08,235.35 156.16,235.53 156.31,235.67C156.46,235.81 156.71,235.92 157.05,235.99L158.38,236.29C159.16,236.46 159.73,236.73 160.09,237.1C160.45,237.47 160.63,237.95 160.63,238.55C160.63,239.28 160.34,239.85 159.75,240.28C159.16,240.71 158.37,240.92 157.37,240.92C156.68,240.92 156.04,240.84 155.46,240.66L155.46,240.65ZM64.32,310.22L65.94,310.22L65.94,321.5L64.12,321.5L64.12,314.04L61.14,319.67L59.76,319.67L56.77,314.12L56.79,321.5L54.97,321.5L54.97,310.22L56.6,310.22L60.47,317.6L64.33,310.22L64.32,310.22ZM74.02,314.28C74.55,314.81 74.82,315.63 74.82,316.74L74.82,321.49L72.92,321.49L72.92,320.29C72.745,320.7 72.443,321.043 72.06,321.27C71.67,321.5 71.22,321.62 70.71,321.62C70.2,321.62 69.71,321.51 69.29,321.3C68.86,321.09 68.53,320.79 68.28,320.42C68.03,320.05 67.91,319.63 67.91,319.17C67.91,318.59 68.06,318.14 68.35,317.81C68.64,317.48 69.12,317.24 69.78,317.09C70.44,316.94 71.35,316.87 72.52,316.87L72.92,316.87L72.92,316.5C72.92,315.97 72.81,315.58 72.58,315.35C72.35,315.11 71.97,315 71.44,315C71.02,315 70.59,315.07 70.14,315.22C69.69,315.36 69.24,315.56 68.8,315.82L68.24,314.44C68.68,314.16 69.21,313.93 69.82,313.75C70.44,313.57 71.03,313.48 71.58,313.48C72.68,313.48 73.49,313.75 74.03,314.28L74.02,314.28ZM72.41,319.65C72.75,319.29 72.91,318.83 72.91,318.27L72.91,317.93L72.62,317.93C71.91,317.93 71.35,317.96 70.96,318.03C70.57,318.09 70.28,318.21 70.11,318.37C69.94,318.53 69.85,318.75 69.85,319.03C69.85,319.37 69.97,319.65 70.2,319.87C70.43,320.09 70.73,320.2 71.1,320.2C71.63,320.2 72.07,320.02 72.4,319.66L72.41,319.65ZM83.43,314.28C83.89,314.81 84.12,315.62 84.12,316.7L84.12,321.5L82.12,321.5L82.12,316.81C82.12,316.2 82.01,315.76 81.78,315.48C81.55,315.2 81.19,315.06 80.7,315.06C80.12,315.06 79.66,315.24 79.32,315.6C78.97,315.96 78.8,316.45 78.8,317.06L78.8,321.49L76.8,321.49L76.8,313.67L78.75,313.67L78.75,314.84C79.02,314.4 79.37,314.07 79.82,313.83C80.27,313.6 80.77,313.48 81.34,313.48C82.28,313.48 82.98,313.75 83.44,314.28L83.43,314.28ZM93.25,313.67L93.25,321.49L91.3,321.49L91.3,320.29C91.05,320.72 90.72,321.04 90.31,321.27C89.9,321.5 89.42,321.61 88.9,321.61C86.98,321.61 86.02,320.53 86.02,318.38L86.02,313.66L88.02,313.66L88.02,318.4C88.02,318.95 88.13,319.37 88.36,319.63C88.58,319.9 88.94,320.03 89.42,320.03C89.97,320.03 90.42,319.85 90.76,319.48C91.1,319.11 91.26,318.62 91.26,318.02L91.26,313.67L93.26,313.67L93.25,313.67ZM97.91,313.67L99.97,313.67L99.97,315.17L97.91,315.17L97.91,321.49L95.91,321.49L95.91,315.17L94.41,315.17L94.41,313.67L95.91,313.67C95.91,312.55 96.2,311.71 96.78,311.14C97.36,310.57 98.27,310.26 99.49,310.2L100.27,310.15L100.4,311.64L99.65,311.67C99.02,311.7 98.57,311.84 98.31,312.09C98.04,312.34 97.91,312.74 97.91,313.3L97.91,313.67ZM106.92,314.28C107.45,314.81 107.72,315.63 107.72,316.74L107.72,321.49L105.82,321.49L105.82,320.29C105.645,320.7 105.343,321.043 104.96,321.27C104.57,321.5 104.12,321.62 103.61,321.62C103.1,321.62 102.61,321.51 102.19,321.3C101.76,321.09 101.43,320.79 101.18,320.42C100.93,320.05 100.81,319.63 100.81,319.17C100.81,318.59 100.96,318.14 101.25,317.81C101.54,317.48 102.02,317.24 102.68,317.09C103.34,316.94 104.25,316.87 105.42,316.87L105.82,316.87L105.82,316.5C105.82,315.97 105.71,315.58 105.48,315.35C105.25,315.11 104.87,315 104.34,315C103.92,315 103.49,315.07 103.04,315.22C102.59,315.36 102.14,315.56 101.7,315.82L101.14,314.44C101.58,314.16 102.11,313.93 102.72,313.75C103.34,313.57 103.93,313.48 104.48,313.48C105.58,313.48 106.39,313.75 106.93,314.28L106.92,314.28ZM105.31,319.65C105.65,319.29 105.81,318.83 105.81,318.27L105.81,317.93L105.52,317.93C104.81,317.93 104.25,317.96 103.86,318.03C103.47,318.09 103.18,318.21 103.01,318.37C102.84,318.53 102.75,318.75 102.75,319.03C102.75,319.37 102.87,319.65 103.1,319.87C103.33,320.09 103.63,320.2 104,320.2C104.53,320.2 104.97,320.02 105.3,319.66L105.31,319.65ZM111.12,321.13C110.52,320.8 110.06,320.33 109.74,319.72C109.42,319.11 109.26,318.4 109.26,317.59C109.26,316.78 109.43,316.06 109.76,315.44C110.1,314.82 110.57,314.33 111.19,313.99C111.81,313.65 112.52,313.48 113.33,313.48C113.88,313.48 114.43,313.57 114.95,313.74C115.47,313.91 115.9,314.15 116.22,314.45L115.64,315.86C115.31,315.59 114.96,315.39 114.59,315.25C114.22,315.11 113.86,315.04 113.49,315.04C112.8,315.04 112.26,315.26 111.87,315.69C111.49,316.12 111.29,316.74 111.29,317.55C111.29,318.36 111.48,318.97 111.87,319.4C112.25,319.83 112.79,320.05 113.49,320.05C113.85,320.05 114.22,319.98 114.59,319.84C114.96,319.7 115.31,319.5 115.64,319.23L116.22,320.62C115.88,320.93 115.44,321.17 114.91,321.35C114.38,321.53 113.82,321.61 113.25,321.61C112.43,321.61 111.72,321.44 111.11,321.11L111.12,321.13ZM122.68,320.07L122.58,321.56C122.26,321.59 121.97,321.61 121.7,321.61C120.6,321.61 119.79,321.36 119.27,320.85C118.75,320.34 118.49,319.59 118.49,318.59L118.49,315.18L116.99,315.18L116.99,313.68L118.49,313.68L118.49,311.34L120.49,311.34L120.49,313.68L122.55,313.68L122.55,315.18L120.49,315.18L120.49,318.56C120.49,319.61 120.98,320.13 121.95,320.13C122.18,320.13 122.43,320.11 122.69,320.08L122.68,320.07ZM131,313.67L131,321.49L129.05,321.49L129.05,320.29C128.8,320.72 128.47,321.04 128.06,321.27C127.65,321.5 127.17,321.61 126.65,321.61C124.73,321.61 123.77,320.53 123.77,318.38L123.77,313.66L125.77,313.66L125.77,318.4C125.77,318.95 125.88,319.37 126.11,319.63C126.33,319.9 126.69,320.03 127.17,320.03C127.72,320.03 128.17,319.85 128.51,319.48C128.85,319.11 129.01,318.62 129.01,318.02L129.01,313.67L131.01,313.67L131,313.67ZM138.16,315.15L136.99,315.26C135.67,315.4 135.01,316.07 135.01,317.28L135.01,321.5L133.01,321.5L133.01,313.68L134.91,313.68L134.91,315.06C135.32,314.12 136.15,313.61 137.42,313.52L138.03,313.47L138.16,315.15ZM139.14,310.04L141.35,310.04L141.35,312.01L139.14,312.01L139.14,310.04ZM139.25,321.5L139.25,313.68L141.25,313.68L141.25,321.5L139.25,321.5ZM149.91,314.28C150.37,314.81 150.6,315.62 150.6,316.7L150.6,321.5L148.6,321.5L148.6,316.81C148.6,316.2 148.49,315.76 148.26,315.48C148.03,315.2 147.67,315.06 147.18,315.06C146.6,315.06 146.14,315.24 145.8,315.6C145.45,315.96 145.28,316.45 145.28,317.06L145.28,321.49L143.28,321.49L143.28,313.67L145.23,313.67L145.23,314.84C145.5,314.4 145.85,314.07 146.3,313.83C146.75,313.6 147.25,313.48 147.82,313.48C148.76,313.48 149.46,313.75 149.92,314.28L149.91,314.28ZM160.19,313.67L160.19,320.77C160.19,322 159.85,322.92 159.17,323.55C158.49,324.18 157.49,324.49 156.17,324.49C155.49,324.49 154.83,324.4 154.2,324.23C153.57,324.06 153.02,323.81 152.55,323.49L153.11,322.08C154.08,322.67 155.08,322.96 156.12,322.96C157.51,322.96 158.2,322.28 158.2,320.91L158.2,319.89C157.97,320.33 157.62,320.67 157.18,320.91C156.73,321.15 156.22,321.27 155.64,321.27C154.96,321.27 154.35,321.11 153.82,320.78C153.29,320.45 152.88,320 152.58,319.41C152.28,318.82 152.13,318.15 152.13,317.38C152.13,316.61 152.28,315.93 152.57,315.34C152.86,314.75 153.28,314.29 153.81,313.96C154.34,313.63 154.95,313.47 155.63,313.47C156.21,313.47 156.72,313.59 157.17,313.83C157.62,314.07 157.96,314.41 158.19,314.85L158.19,313.67L160.19,313.67ZM157.67,319.09C158.03,318.67 158.21,318.1 158.21,317.38C158.21,316.66 158.03,316.07 157.67,315.65C157.31,315.23 156.81,315.03 156.17,315.03C155.53,315.03 155.04,315.24 154.68,315.65C154.32,316.06 154.14,316.64 154.14,317.38C154.14,318.12 154.32,318.66 154.68,319.08C155.04,319.5 155.54,319.71 156.17,319.71C156.8,319.71 157.31,319.5 157.67,319.09ZM65.77,390.73L65.77,381.15L62.09,381.15L62.09,379.45L71.51,379.45L71.51,381.15L67.83,381.15L67.83,390.73L65.77,390.73ZM78.31,387.18L72.97,387.18C73.03,387.91 73.25,388.44 73.63,388.8C74,389.15 74.54,389.33 75.23,389.33C76.09,389.33 76.88,389.05 77.6,388.5L78.18,389.88C77.82,390.18 77.36,390.42 76.81,390.6C76.26,390.78 75.71,390.87 75.15,390.87C73.87,390.87 72.86,390.51 72.12,389.78C71.38,389.05 71.01,388.06 71.01,386.8C71.01,386 71.17,385.29 71.49,384.67C71.81,384.05 72.26,383.57 72.84,383.23C73.42,382.89 74.08,382.72 74.82,382.72C75.9,382.72 76.75,383.07 77.37,383.76C77.99,384.45 78.31,385.41 78.31,386.62L78.31,387.18ZM73.57,384.64C73.24,384.98 73.04,385.47 72.97,386.11L76.59,386.11C76.57,385.46 76.41,384.97 76.11,384.63C75.81,384.29 75.4,384.13 74.86,384.13C74.32,384.13 73.9,384.3 73.57,384.64ZM81.36,390.37C80.76,390.04 80.3,389.57 79.98,388.96C79.66,388.35 79.5,387.64 79.5,386.83C79.5,386.02 79.67,385.3 80,384.68C80.34,384.06 80.81,383.57 81.43,383.23C82.05,382.89 82.76,382.72 83.57,382.72C84.12,382.72 84.67,382.81 85.19,382.98C85.71,383.15 86.14,383.39 86.46,383.69L85.88,385.1C85.55,384.83 85.2,384.63 84.83,384.49C84.46,384.35 84.1,384.28 83.73,384.28C83.04,384.28 82.5,384.5 82.11,384.93C81.73,385.36 81.53,385.98 81.53,386.79C81.53,387.6 81.72,388.21 82.11,388.64C82.49,389.07 83.03,389.29 83.73,389.29C84.09,389.29 84.46,389.22 84.83,389.08C85.2,388.94 85.55,388.74 85.88,388.47L86.46,389.86C86.12,390.17 85.68,390.41 85.15,390.59C84.62,390.77 84.06,390.85 83.49,390.85C82.67,390.85 81.96,390.68 81.35,390.35L81.36,390.37ZM94.44,383.52C94.9,384.05 95.13,384.86 95.13,385.94L95.13,390.74L93.13,390.74L93.13,386.05C93.13,385.44 93.02,385 92.79,384.72C92.56,384.44 92.2,384.3 91.71,384.3C91.13,384.3 90.67,384.48 90.33,384.84C89.98,385.2 89.81,385.69 89.81,386.3L89.81,390.73L87.81,390.73L87.81,379.45L89.81,379.45L89.81,383.99C90.08,383.57 90.43,383.26 90.87,383.04C91.31,382.82 91.81,382.71 92.35,382.71C93.29,382.71 93.99,382.98 94.45,383.51L94.44,383.52ZM103.75,383.52C104.21,384.05 104.44,384.86 104.44,385.94L104.44,390.74L102.44,390.74L102.44,386.05C102.44,385.44 102.33,385 102.1,384.72C101.87,384.44 101.51,384.3 101.02,384.3C100.44,384.3 99.98,384.48 99.64,384.84C99.29,385.2 99.12,385.69 99.12,386.3L99.12,390.73L97.12,390.73L97.12,382.91L99.07,382.91L99.07,384.08C99.34,383.64 99.69,383.31 100.14,383.07C100.59,382.84 101.09,382.72 101.66,382.72C102.6,382.72 103.3,382.99 103.76,383.52L103.75,383.52ZM107.88,390.37C107.28,390.04 106.81,389.57 106.48,388.95C106.15,388.33 105.98,387.61 105.98,386.79C105.98,385.97 106.15,385.25 106.48,384.64C106.81,384.03 107.28,383.55 107.88,383.22C108.48,382.89 109.18,382.72 109.98,382.72C110.78,382.72 111.48,382.89 112.08,383.22C112.68,383.55 113.15,384.02 113.47,384.64C113.8,385.25 113.96,385.97 113.96,386.79C113.96,387.61 113.8,388.33 113.47,388.95C113.158,389.551 112.674,390.046 112.08,390.37C111.48,390.7 110.78,390.87 109.98,390.87C109.18,390.87 108.48,390.7 107.88,390.37ZM111.46,388.67C111.8,388.24 111.97,387.61 111.97,386.78C111.97,385.95 111.8,385.33 111.46,384.9C111.12,384.47 110.63,384.25 109.99,384.25C109.35,384.25 108.86,384.47 108.51,384.9C108.16,385.33 107.99,385.96 107.99,386.78C107.99,387.6 108.16,388.24 108.5,388.67C108.84,389.1 109.33,389.31 109.97,389.31C110.61,389.31 111.12,389.1 111.46,388.67ZM115.6,390.73L115.6,379.45L117.6,379.45L117.6,390.73L115.6,390.73ZM121.1,390.37C120.5,390.04 120.03,389.57 119.7,388.95C119.37,388.33 119.2,387.61 119.2,386.79C119.2,385.97 119.37,385.25 119.7,384.64C120.03,384.03 120.5,383.55 121.1,383.22C121.7,382.89 122.4,382.72 123.2,382.72C124,382.72 124.7,382.89 125.3,383.22C125.9,383.55 126.37,384.02 126.69,384.64C127.02,385.25 127.18,385.97 127.18,386.79C127.18,387.61 127.02,388.33 126.69,388.95C126.378,389.551 125.894,390.046 125.3,390.37C124.7,390.7 124,390.87 123.2,390.87C122.4,390.87 121.7,390.7 121.1,390.37ZM124.68,388.67C125.02,388.24 125.19,387.61 125.19,386.78C125.19,385.95 125.02,385.33 124.68,384.9C124.34,384.47 123.85,384.25 123.21,384.25C122.57,384.25 122.08,384.47 121.73,384.9C121.38,385.33 121.21,385.96 121.21,386.78C121.21,387.6 121.38,388.24 121.72,388.67C122.06,389.1 122.55,389.31 123.19,389.31C123.83,389.31 124.34,389.1 124.68,388.67ZM136.43,382.91L136.43,390.01C136.43,391.24 136.09,392.16 135.41,392.79C134.73,393.42 133.73,393.73 132.41,393.73C131.73,393.73 131.07,393.64 130.44,393.47C129.81,393.3 129.26,393.05 128.79,392.73L129.35,391.32C130.32,391.91 131.32,392.2 132.36,392.2C133.75,392.2 134.44,391.52 134.44,390.15L134.44,389.13C134.21,389.57 133.86,389.91 133.42,390.15C132.97,390.39 132.46,390.51 131.88,390.51C131.2,390.51 130.59,390.35 130.06,390.02C129.53,389.69 129.12,389.24 128.82,388.65C128.52,388.06 128.37,387.39 128.37,386.62C128.37,385.85 128.52,385.17 128.81,384.58C129.1,383.99 129.52,383.53 130.05,383.2C130.58,382.87 131.19,382.71 131.87,382.71C132.45,382.71 132.96,382.83 133.41,383.07C133.86,383.31 134.2,383.65 134.43,384.09L134.43,382.91L136.43,382.91ZM133.91,388.33C134.27,387.91 134.45,387.34 134.45,386.62C134.45,385.9 134.27,385.31 133.91,384.89C133.55,384.47 133.05,384.27 132.41,384.27C131.77,384.27 131.28,384.48 130.92,384.89C130.56,385.3 130.38,385.88 130.38,386.62C130.38,387.36 130.56,387.9 130.92,388.32C131.28,388.74 131.78,388.95 132.41,388.95C133.04,388.95 133.55,388.74 133.91,388.33ZM144.09,382.93L146.06,382.93L141.36,393.62L139.34,393.62L140.76,390.44L137.5,382.94L139.61,382.94L141.82,388.46L144.09,382.94L144.09,382.93ZM159.41,390.73L158.23,389.51C157.76,389.94 157.24,390.27 156.65,390.5C156.07,390.73 155.46,390.85 154.82,390.85C154.06,390.85 153.39,390.72 152.8,390.46C152.21,390.2 151.76,389.84 151.43,389.37C151.1,388.91 150.94,388.37 150.94,387.76C150.94,387.09 151.13,386.49 151.51,385.95C151.89,385.41 152.49,384.91 153.33,384.45C152.91,383.99 152.61,383.57 152.43,383.19C152.25,382.81 152.15,382.41 152.15,381.99C152.15,381.19 152.44,380.55 153.01,380.06C153.58,379.57 154.32,379.33 155.24,379.33C156.09,379.33 156.77,379.55 157.28,379.99C157.79,380.43 158.04,381.03 158.04,381.77C158.04,382.35 157.87,382.86 157.54,383.31C157.21,383.76 156.67,384.22 155.91,384.68L158.13,386.95C158.57,386.09 158.81,385.08 158.85,383.93L160.51,383.93C160.45,385.57 160.05,386.99 159.31,388.17L161.79,390.71L159.41,390.71L159.41,390.73ZM157.12,388.38L154.37,385.53C153.85,385.85 153.47,386.18 153.24,386.51C153.01,386.84 152.9,387.23 152.9,387.67C152.9,388.17 153.08,388.57 153.44,388.86C153.8,389.15 154.28,389.3 154.89,389.3C155.73,389.3 156.48,388.99 157.13,388.37L157.12,388.38ZM154.3,381.06C154.07,381.29 153.95,381.6 153.95,381.98C153.95,382.24 154.01,382.48 154.14,382.72C154.27,382.95 154.51,383.26 154.88,383.65C155.45,383.33 155.84,383.03 156.06,382.76C156.28,382.49 156.4,382.19 156.4,381.87C156.4,381.52 156.29,381.24 156.08,381.03C155.87,380.82 155.59,380.72 155.25,380.72C154.85,380.72 154.54,380.83 154.31,381.06L154.3,381.06ZM15.75,410.73L15.75,401.15L12.07,401.15L12.07,399.45L21.49,399.45L21.49,401.15L17.81,401.15L17.81,410.73L15.75,410.73ZM28.28,407.18L22.94,407.18C23,407.91 23.22,408.44 23.6,408.8C23.97,409.15 24.51,409.33 25.2,409.33C26.06,409.33 26.85,409.05 27.57,408.5L28.15,409.88C27.79,410.18 27.33,410.42 26.78,410.6C26.23,410.78 25.68,410.87 25.12,410.87C23.84,410.87 22.83,410.51 22.09,409.78C21.35,409.05 20.98,408.06 20.98,406.8C20.98,406 21.14,405.29 21.46,404.67C21.78,404.05 22.23,403.57 22.81,403.23C23.39,402.89 24.05,402.72 24.79,402.72C25.87,402.72 26.72,403.07 27.34,403.76C27.96,404.45 28.28,405.41 28.28,406.62L28.28,407.18ZM23.54,404.64C23.21,404.98 23.01,405.47 22.94,406.11L26.56,406.11C26.54,405.46 26.38,404.97 26.08,404.63C25.78,404.29 25.37,404.13 24.83,404.13C24.29,404.13 23.87,404.3 23.54,404.64ZM29.91,410.73L29.91,399.45L31.91,399.45L31.91,410.73L29.91,410.73ZM40.84,407.18L35.5,407.18C35.56,407.91 35.78,408.44 36.16,408.8C36.53,409.15 37.07,409.33 37.76,409.33C38.62,409.33 39.41,409.05 40.13,408.5L40.71,409.88C40.35,410.18 39.89,410.42 39.34,410.6C38.79,410.78 38.24,410.87 37.68,410.87C36.4,410.87 35.39,410.51 34.65,409.78C33.91,409.05 33.54,408.06 33.54,406.8C33.54,406 33.7,405.29 34.02,404.67C34.34,404.05 34.79,403.57 35.37,403.23C35.95,402.89 36.61,402.72 37.35,402.72C38.43,402.72 39.28,403.07 39.9,403.76C40.52,404.45 40.84,405.41 40.84,406.62L40.84,407.18ZM36.1,404.64C35.77,404.98 35.57,405.47 35.5,406.11L39.12,406.11C39.1,405.46 38.94,404.97 38.64,404.63C38.34,404.29 37.93,404.13 37.39,404.13C36.85,404.13 36.43,404.3 36.1,404.64ZM43.9,410.37C43.3,410.04 42.84,409.57 42.52,408.96C42.2,408.35 42.04,407.64 42.04,406.83C42.04,406.02 42.21,405.3 42.54,404.68C42.88,404.06 43.35,403.57 43.97,403.23C44.59,402.89 45.3,402.72 46.11,402.72C46.66,402.72 47.21,402.81 47.73,402.98C48.25,403.15 48.68,403.39 49,403.69L48.42,405.1C48.09,404.83 47.74,404.63 47.37,404.49C47,404.35 46.64,404.28 46.27,404.28C45.58,404.28 45.04,404.5 44.65,404.93C44.27,405.36 44.07,405.98 44.07,406.79C44.07,407.6 44.26,408.21 44.65,408.64C45.03,409.07 45.57,409.29 46.27,409.29C46.63,409.29 47,409.22 47.37,409.08C47.74,408.94 48.09,408.74 48.42,408.47L49,409.86C48.66,410.17 48.22,410.41 47.69,410.59C47.16,410.77 46.6,410.85 46.03,410.85C45.21,410.85 44.5,410.68 43.89,410.35L43.9,410.37ZM51.68,410.37C51.08,410.04 50.61,409.57 50.28,408.95C49.95,408.33 49.78,407.61 49.78,406.79C49.78,405.97 49.95,405.25 50.28,404.64C50.61,404.03 51.08,403.55 51.68,403.22C52.28,402.89 52.98,402.72 53.78,402.72C54.58,402.72 55.28,402.89 55.88,403.22C56.48,403.55 56.95,404.02 57.27,404.64C57.6,405.25 57.76,405.97 57.76,406.79C57.76,407.61 57.6,408.33 57.27,408.95C56.958,409.551 56.474,410.046 55.88,410.37C55.28,410.7 54.58,410.87 53.78,410.87C52.98,410.87 52.28,410.7 51.68,410.37ZM55.26,408.67C55.6,408.24 55.77,407.61 55.77,406.78C55.77,405.95 55.6,405.33 55.26,404.9C54.92,404.47 54.43,404.25 53.79,404.25C53.15,404.25 52.66,404.47 52.31,404.9C51.96,405.33 51.79,405.96 51.79,406.78C51.79,407.6 51.96,408.24 52.3,408.67C52.64,409.1 53.13,409.31 53.77,409.31C54.41,409.31 54.92,409.1 55.26,408.67ZM70.66,403.51C71.1,404.04 71.32,404.85 71.32,405.93L71.32,410.73L69.32,410.73L69.32,406.01C69.32,405.41 69.22,404.98 69.02,404.71C68.82,404.44 68.49,404.3 68.04,404.3C67.51,404.3 67.09,404.48 66.79,404.84C66.49,405.2 66.34,405.71 66.34,406.36L66.34,410.73L64.34,410.73L64.34,406.01C64.34,405.41 64.24,404.98 64.04,404.71C63.84,404.44 63.51,404.3 63.06,404.3C62.54,404.3 62.13,404.48 61.83,404.84C61.53,405.2 61.38,405.71 61.38,406.36L61.38,410.73L59.38,410.73L59.38,402.91L61.33,402.91L61.33,404.01C61.56,403.58 61.89,403.26 62.31,403.04C62.73,402.82 63.2,402.71 63.73,402.71C64.91,402.71 65.7,403.2 66.08,404.18C66.33,403.72 66.68,403.36 67.14,403.1C67.6,402.84 68.11,402.71 68.68,402.71C69.57,402.71 70.23,402.97 70.66,403.5L70.66,403.51ZM84.58,403.51C85.02,404.04 85.24,404.85 85.24,405.93L85.24,410.73L83.24,410.73L83.24,406.01C83.24,405.41 83.14,404.98 82.94,404.71C82.74,404.44 82.41,404.3 81.96,404.3C81.43,404.3 81.01,404.48 80.71,404.84C80.41,405.2 80.26,405.71 80.26,406.36L80.26,410.73L78.26,410.73L78.26,406.01C78.26,405.41 78.16,404.98 77.96,404.71C77.76,404.44 77.43,404.3 76.98,404.3C76.46,404.3 76.05,404.48 75.75,404.84C75.45,405.2 75.3,405.71 75.3,406.36L75.3,410.73L73.3,410.73L73.3,402.91L75.25,402.91L75.25,404.01C75.48,403.58 75.81,403.26 76.23,403.04C76.65,402.82 77.12,402.71 77.65,402.71C78.83,402.71 79.62,403.2 80,404.18C80.25,403.72 80.6,403.36 81.06,403.1C81.52,402.84 82.03,402.71 82.6,402.71C83.49,402.71 84.15,402.97 84.58,403.5L84.58,403.51ZM94.38,402.91L94.38,410.73L92.43,410.73L92.43,409.53C92.18,409.96 91.85,410.28 91.44,410.51C91.03,410.74 90.55,410.85 90.03,410.85C88.11,410.85 87.15,409.77 87.15,407.62L87.15,402.9L89.15,402.9L89.15,407.64C89.15,408.19 89.26,408.61 89.49,408.87C89.71,409.14 90.07,409.27 90.55,409.27C91.1,409.27 91.55,409.09 91.89,408.72C92.23,408.35 92.39,407.86 92.39,407.26L92.39,402.91L94.39,402.91L94.38,402.91ZM103.03,403.52C103.49,404.05 103.72,404.86 103.72,405.94L103.72,410.74L101.72,410.74L101.72,406.05C101.72,405.44 101.61,405 101.38,404.72C101.15,404.44 100.79,404.3 100.3,404.3C99.72,404.3 99.26,404.48 98.92,404.84C98.57,405.2 98.4,405.69 98.4,406.3L98.4,410.73L96.4,410.73L96.4,402.91L98.35,402.91L98.35,404.08C98.62,403.64 98.97,403.31 99.42,403.07C99.87,402.84 100.37,402.72 100.94,402.72C101.88,402.72 102.58,402.99 103.04,403.52L103.03,403.52ZM105.58,399.28L107.79,399.28L107.79,401.25L105.58,401.25L105.58,399.28ZM105.69,410.74L105.69,402.92L107.69,402.92L107.69,410.74L105.69,410.74ZM111.14,410.37C110.54,410.04 110.08,409.57 109.76,408.96C109.44,408.35 109.28,407.64 109.28,406.83C109.28,406.02 109.45,405.3 109.78,404.68C110.12,404.06 110.59,403.57 111.21,403.23C111.83,402.89 112.54,402.72 113.35,402.72C113.9,402.72 114.45,402.81 114.97,402.98C115.49,403.15 115.92,403.39 116.24,403.69L115.66,405.1C115.33,404.83 114.98,404.63 114.61,404.49C114.24,404.35 113.88,404.28 113.51,404.28C112.82,404.28 112.28,404.5 111.89,404.93C111.51,405.36 111.31,405.98 111.31,406.79C111.31,407.6 111.5,408.21 111.89,408.64C112.27,409.07 112.81,409.29 113.51,409.29C113.87,409.29 114.24,409.22 114.61,409.08C114.98,408.94 115.33,408.74 115.66,408.47L116.24,409.86C115.9,410.17 115.46,410.41 114.93,410.59C114.4,410.77 113.84,410.85 113.27,410.85C112.45,410.85 111.74,410.68 111.13,410.35L111.14,410.37ZM123.3,403.52C123.83,404.05 124.1,404.87 124.1,405.98L124.1,410.73L122.2,410.73L122.2,409.53C122.025,409.94 121.723,410.283 121.34,410.51C120.95,410.74 120.5,410.86 119.99,410.86C119.48,410.86 118.99,410.75 118.57,410.54C118.14,410.33 117.81,410.03 117.56,409.66C117.31,409.29 117.19,408.87 117.19,408.41C117.19,407.83 117.34,407.38 117.63,407.05C117.92,406.72 118.4,406.48 119.06,406.33C119.72,406.18 120.63,406.11 121.8,406.11L122.2,406.11L122.2,405.74C122.2,405.21 122.09,404.82 121.86,404.59C121.63,404.35 121.25,404.24 120.72,404.24C120.3,404.24 119.87,404.31 119.42,404.46C118.97,404.6 118.52,404.8 118.08,405.06L117.52,403.68C117.96,403.4 118.49,403.17 119.1,402.99C119.72,402.81 120.31,402.72 120.86,402.72C121.96,402.72 122.77,402.99 123.31,403.52L123.3,403.52ZM121.69,408.89C122.03,408.53 122.19,408.07 122.19,407.51L122.19,407.17L121.9,407.17C121.19,407.17 120.63,407.2 120.24,407.27C119.85,407.33 119.56,407.45 119.39,407.61C119.22,407.77 119.13,407.99 119.13,408.27C119.13,408.61 119.25,408.89 119.48,409.11C119.71,409.33 120.01,409.44 120.38,409.44C120.91,409.44 121.35,409.26 121.68,408.9L121.69,408.89ZM130.84,409.31L130.74,410.8C130.42,410.83 130.13,410.85 129.86,410.85C128.76,410.85 127.95,410.6 127.43,410.09C126.91,409.58 126.65,408.83 126.65,407.83L126.65,404.42L125.15,404.42L125.15,402.92L126.65,402.92L126.65,400.58L128.65,400.58L128.65,402.92L130.71,402.92L130.71,404.42L128.65,404.42L128.65,407.8C128.65,408.85 129.14,409.37 130.11,409.37C130.34,409.37 130.59,409.35 130.85,409.32L130.84,409.31ZM131.91,399.28L134.12,399.28L134.12,401.25L131.91,401.25L131.91,399.28ZM132.02,410.74L132.02,402.92L134.02,402.92L134.02,410.74L132.02,410.74ZM137.5,410.37C136.9,410.04 136.43,409.57 136.1,408.95C135.77,408.33 135.6,407.61 135.6,406.79C135.6,405.97 135.77,405.25 136.1,404.64C136.43,404.03 136.9,403.55 137.5,403.22C138.1,402.89 138.8,402.72 139.6,402.72C140.4,402.72 141.1,402.89 141.7,403.22C142.3,403.55 142.77,404.02 143.09,404.64C143.42,405.25 143.58,405.97 143.58,406.79C143.58,407.61 143.42,408.33 143.09,408.95C142.778,409.551 142.294,410.046 141.7,410.37C141.1,410.7 140.4,410.87 139.6,410.87C138.8,410.87 138.1,410.7 137.5,410.37ZM141.08,408.67C141.42,408.24 141.59,407.61 141.59,406.78C141.59,405.95 141.42,405.33 141.08,404.9C140.74,404.47 140.25,404.25 139.61,404.25C138.97,404.25 138.48,404.47 138.13,404.9C137.78,405.33 137.61,405.96 137.61,406.78C137.61,407.6 137.78,408.24 138.12,408.67C138.46,409.1 138.95,409.31 139.59,409.31C140.23,409.31 140.74,409.1 141.08,408.67ZM151.85,403.52C152.31,404.05 152.54,404.86 152.54,405.94L152.54,410.74L150.54,410.74L150.54,406.05C150.54,405.44 150.43,405 150.2,404.72C149.97,404.44 149.61,404.3 149.12,404.3C148.54,404.3 148.08,404.48 147.74,404.84C147.39,405.2 147.22,405.69 147.22,406.3L147.22,410.73L145.22,410.73L145.22,402.91L147.17,402.91L147.17,404.08C147.44,403.64 147.79,403.31 148.24,403.07C148.69,402.84 149.19,402.72 149.76,402.72C150.7,402.72 151.4,402.99 151.86,403.52L151.85,403.52ZM155.46,410.61C154.88,410.44 154.39,410.19 153.98,409.87L154.54,408.48C155.37,409.09 156.33,409.39 157.4,409.39C157.86,409.39 158.21,409.31 158.45,409.17C158.679,409.04 158.818,408.793 158.81,408.53C158.81,408.3 158.73,408.11 158.56,407.99C158.39,407.87 158.1,407.74 157.67,407.64L156.39,407.35C155.66,407.19 155.13,406.93 154.77,406.57C154.41,406.21 154.24,405.74 154.24,405.16C154.24,404.68 154.38,404.26 154.65,403.89C154.92,403.52 155.3,403.24 155.79,403.03C156.27,402.83 156.84,402.73 157.48,402.73C158.03,402.73 158.57,402.81 159.09,402.99C159.61,403.16 160.06,403.4 160.46,403.71L159.9,405.07C159.09,404.48 158.28,404.19 157.47,404.19C157.03,404.19 156.69,404.27 156.45,404.43C156.2,404.59 156.08,404.81 156.08,405.1C156.08,405.31 156.16,405.49 156.31,405.63C156.46,405.77 156.71,405.88 157.05,405.95L158.38,406.25C159.16,406.42 159.73,406.69 160.09,407.06C160.45,407.43 160.63,407.91 160.63,408.51C160.63,409.24 160.34,409.81 159.75,410.24C159.16,410.67 158.37,410.88 157.37,410.88C156.68,410.88 156.04,410.8 155.46,410.62L155.46,410.61ZM354.56,462.34L354.56,464L346.98,464L346.98,462.48L350.82,458.35C351.27,457.86 351.6,457.41 351.8,457C352.01,456.59 352.11,456.18 352.11,455.78C352.11,455.27 351.96,454.88 351.67,454.62C351.38,454.36 350.95,454.23 350.38,454.23C349.37,454.23 348.35,454.62 347.32,455.4L346.63,453.9C347.08,453.51 347.65,453.19 348.35,452.95C349.05,452.71 349.75,452.59 350.45,452.59C351.58,452.59 352.48,452.87 353.14,453.42C353.8,453.97 354.13,454.72 354.13,455.66C354.13,456.31 353.99,456.92 353.71,457.49C353.43,458.06 352.96,458.7 352.3,459.4L349.53,462.34L354.56,462.34ZM357.16,462.67C356.46,461.68 356.1,460.25 356.1,458.36C356.1,456.47 356.45,455.07 357.16,454.09C357.87,453.11 358.88,452.62 360.22,452.62C361.56,452.62 362.57,453.11 363.28,454.09C363.99,455.07 364.34,456.5 364.34,458.36C364.34,460.22 363.99,461.67 363.28,462.66C362.57,463.65 361.56,464.15 360.22,464.15C358.88,464.15 357.87,463.66 357.16,462.67ZM361.8,461.53C362.13,460.86 362.3,459.8 362.3,458.35C362.3,456.9 362.13,455.86 361.8,455.21C361.47,454.56 360.94,454.23 360.22,454.23C359.5,454.23 358.97,454.56 358.64,455.21C358.31,455.86 358.14,456.91 358.14,458.35C358.14,459.79 358.31,460.86 358.64,461.53C358.97,462.2 359.5,462.53 360.22,462.53C360.94,462.53 361.47,462.2 361.8,461.53ZM373.77,462.34L373.77,464L366.19,464L366.19,462.48L370.03,458.35C370.48,457.86 370.81,457.41 371.01,457C371.22,456.59 371.32,456.18 371.32,455.78C371.32,455.27 371.17,454.88 370.88,454.62C370.59,454.36 370.16,454.23 369.59,454.23C368.58,454.23 367.56,454.62 366.53,455.4L365.84,453.9C366.29,453.51 366.86,453.19 367.56,452.95C368.26,452.71 368.96,452.59 369.66,452.59C370.79,452.59 371.69,452.87 372.35,453.42C373.01,453.97 373.34,454.72 373.34,455.66C373.34,456.31 373.2,456.92 372.92,457.49C372.64,458.06 372.17,458.7 371.51,459.4L368.74,462.34L373.77,462.34ZM380.97,462.34L383.42,462.34L383.42,464L376.46,464L376.46,462.34L378.91,462.34L378.91,455.08L376.97,456.25L376.15,454.75L379.49,452.73L380.96,452.73L380.96,462.35L380.97,462.34ZM460.12,462.34L460.12,464L452.54,464L452.54,462.48L456.38,458.35C456.83,457.86 457.16,457.41 457.36,457C457.57,456.59 457.67,456.18 457.67,455.78C457.67,455.27 457.52,454.88 457.23,454.62C456.94,454.36 456.51,454.23 455.94,454.23C454.93,454.23 453.91,454.62 452.88,455.4L452.19,453.9C452.64,453.51 453.21,453.19 453.91,452.95C454.61,452.71 455.31,452.59 456.01,452.59C457.14,452.59 458.04,452.87 458.7,453.42C459.36,453.97 459.69,454.72 459.69,455.66C459.69,456.31 459.55,456.92 459.27,457.49C458.99,458.06 458.52,458.7 457.86,459.4L455.09,462.34L460.12,462.34ZM462.73,462.67C462.03,461.68 461.67,460.25 461.67,458.36C461.67,456.47 462.02,455.07 462.73,454.09C463.44,453.11 464.45,452.62 465.79,452.62C467.13,452.62 468.14,453.11 468.85,454.09C469.55,455.07 469.91,456.5 469.91,458.36C469.91,460.22 469.56,461.67 468.85,462.66C468.15,463.65 467.13,464.15 465.79,464.15C464.45,464.15 463.44,463.66 462.73,462.67ZM467.37,461.53C467.7,460.86 467.87,459.8 467.87,458.35C467.87,456.9 467.7,455.86 467.37,455.21C467.04,454.55 466.51,454.23 465.79,454.23C465.07,454.23 464.54,454.56 464.21,455.21C463.88,455.86 463.71,456.91 463.71,458.35C463.71,459.79 463.88,460.86 464.21,461.53C464.54,462.2 465.07,462.53 465.79,462.53C466.51,462.53 467.04,462.2 467.37,461.53ZM479.34,462.34L479.34,464L471.76,464L471.76,462.48L475.6,458.35C476.05,457.86 476.38,457.41 476.58,457C476.79,456.59 476.89,456.18 476.89,455.78C476.89,455.27 476.74,454.88 476.45,454.62C476.16,454.36 475.73,454.23 475.16,454.23C474.15,454.23 473.13,454.62 472.1,455.4L471.41,453.9C471.86,453.51 472.43,453.19 473.13,452.95C473.83,452.71 474.53,452.59 475.23,452.59C476.36,452.59 477.26,452.87 477.92,453.42C478.58,453.97 478.91,454.72 478.91,455.66C478.91,456.31 478.77,456.92 478.49,457.49C478.21,458.06 477.74,458.7 477.08,459.4L474.31,462.34L479.34,462.34ZM488.96,462.34L488.96,464L481.38,464L481.38,462.48L485.22,458.35C485.67,457.86 486,457.41 486.2,457C486.41,456.59 486.51,456.18 486.51,455.78C486.51,455.27 486.36,454.88 486.07,454.62C485.78,454.36 485.35,454.23 484.78,454.23C483.77,454.23 482.75,454.62 481.72,455.4L481.03,453.9C481.48,453.51 482.05,453.19 482.75,452.95C483.45,452.71 484.15,452.59 484.85,452.59C485.98,452.59 486.88,452.87 487.54,453.42C488.2,453.97 488.53,454.72 488.53,455.66C488.53,456.31 488.39,456.92 488.11,457.49C487.83,458.06 487.36,458.7 486.7,459.4L483.93,462.34L488.96,462.34Z" style="fill:rgb(77,77,79);fill-rule:nonzero;"></path>
    </g>
    <g transform="matrix(1,0,0,1,0,-39)">
        <rect x="318.7" y="450.4" width="16.36" height="16.36" style="fill:rgb(20,72,127);fill-rule:nonzero;"></rect>
    </g>
    <g transform="matrix(1,0,0,1,0,-39)">
        <rect x="424.27" y="450.4" width="16.36" height="16.36" style="fill:rgb(67,176,73);fill-rule:nonzero;"></rect>
    </g>
    <g transform="matrix(1,0,0,1,0,-39)">
        <rect x="177.12" y="38.51" width="1" height="395.15" style="fill:rgb(167,168,169);fill-rule:nonzero;"></rect>
    </g>
</svg>
