<?xml version="1.0" encoding="utf-8"?>
<!-- Generator: Adobe Illustrator 25.0.1, SVG Export Plug-In . SVG Version: 6.00 Build 0)  -->
<svg version="1.0" xmlns="http://www.w3.org/2000/svg" xmlns:xlink="http://www.w3.org/1999/xlink" x="0px" y="0px"
	 viewBox="0 0 841.3 374.5" enable-background="new 0 0 841.3 374.5" xml:space="preserve">
<g id="Redscan">
	<g>
		<path fill="#4D4D4F" d="M88.1,87.9h18.5h24c8.2,0,15.7,3.1,21.2,8.3c5.5,5.2,8.6,11.8,8.6,19.9c0,7.7-3.1,14.7-8.6,19.6
			c-3.1,2.9-6.8,5.1-11,6.7l20.9,33.7h-19.6L122,143.8h-15.4v32.3H88.1v-32.3v-15.1v-25.4V87.9z M106.6,103.3v25.4h24
			c3.4,0,6.8-1.3,9.5-3.9c2.5-2.4,3.7-5.3,3.7-8.7c0-3.7-1.2-6.6-3.7-8.9c-2.5-2.4-5.8-3.9-9.5-3.9H106.6z"/>
		<polygon fill="#4D4D4F" points="252.6,87.9 252.6,103.9 202,103.9 202,122.3 235.5,122.3 235.5,138.2 202,138.2 202,160.1 
			253.5,160.1 253.5,176.1 202,176.1 183.9,176.1 183.9,87.9 		"/>
		<path fill="#4D4D4F" d="M313,87.9c13,0,24.5,4.8,33.1,12.8c8.6,8,13.7,18.9,13.7,31c0,12.2-5.1,23.4-13.7,31.4
			c-8.6,7.7-20.1,12.8-33.1,12.8h-14.7h-18.1v-15.4v-57.4V87.9h18.1H313z M313,160.7c16.7,0,30-12.8,30-28.9
			c0-15.7-13.3-28.5-30-28.5h-14.7v57.4H313z"/>
		<path fill="#4D4D4F" d="M450.8,112.2c-12.7-4.5-24.1-7.7-34.2-8.1c-5.8,0-12.6,1.3-17.8,4.1c-2.7,1.6-4.3,3.9-4.7,7.4
			c0,1.6,0.3,3,0.9,3.9c1.1,1.4,2.8,2.1,4.4,2.5c6.8,1.6,13.4,1.5,20.9,1.9h6.4c8,0.4,15.8,1.6,22.2,5.1c7.5,4.5,13,11.6,12.1,22.8
			c-2.2,20.1-18.2,27.3-38,27.3c-18.9,0-34.7-5.1-50.9-12.8l6.8-15.3c13.8,6,26.4,10.2,41,10.8c4.2,0.4,7.9,0,11.7-0.9
			c4.8-1.4,9.6-3.9,10.3-10.3c0.4-3.9-1.5-6-3.5-7c-3.1-1.9-7.8-2.5-13-2.9h-5.8c-5.7-0.4-11.5-0.6-17.8-1.6
			c-7.9-1-16.2-2.9-21.4-9.3c-3.6-3.9-5.5-8.9-4.8-15.1c0.4-9.5,6.1-16.3,13.7-20.5c8.2-4.9,19-6.4,28-6c5.8,0,11.2,0.9,17.8,2.5
			c6.4,1.6,12.6,3.4,21.2,6.8L450.8,112.2z"/>
		<path fill="#4D4D4F" d="M560,166.4c-9.3,8.9-21.6,13.2-35.5,13.2c-26.4,0-48.1-20.3-48.1-45.1c0-24.5,21.7-46.5,48.1-46.5
			c13.9,0,26.3,5.9,35.5,14.5l-12.3,10.3c-6.3-4.4-13.7-8.7-23.2-8.7c-17.1,0-30.9,14.4-30.9,30.4c0,16.1,13.8,29,30.9,29
			c9.2,0,17-2.9,23.2-8.6L560,166.4z"/>
		<path fill="#4D4D4F" d="M601.7,89.4h23.8l33.6,88.1h-19.7l-7.6-21.6H598l-7.6,21.6h-19.3L601.7,89.4z M625.8,141.5L614,106.8
			l-11.4,34.7H625.8z"/>
		<polygon fill="#4D4D4F" points="734.7,89.4 734.7,149.4 693,89.4 691.9,89.4 673.4,89.4 673.4,177.6 691.9,177.6 691.9,115.7 
			734.7,177.6 753.1,177.6 753.1,89.4 		"/>
	</g>
	<g>
		<g>
			<path fill="#14487F" d="M148.2,286.4v-56.7h11.3v24.5l23-24.5h14l-26.3,27l28.9,29.7h-15.3l-24.3-25.8v25.8H148.2z"/>
			<path fill="#14487F" d="M325.1,286.4v-56.7h11.4v47.3h25.6v9.3H325.1z"/>
			<path fill="#14487F" d="M371.5,286.4v-56.7h11.4v47.3h25.6v9.3H371.5z"/>
			<path fill="#14487F" d="M206.2,286.4v-56.7h18.6c4.3,0,8.1,0.7,11.2,2.2c3.1,1.5,5.5,3.6,7.2,6.3c1.7,2.7,2.5,6,2.5,9.8
				c0,3.5-0.9,6.5-2.6,9.1c-1.7,2.6-4,4.7-6.7,6.2l14.9,23h-12.7l-11.9-20.1c-0.4,0-0.8,0-1.1,0H217v20.1H206.2z M223.4,238.3H217
				v19.4h6c7.8,0,11.7-3.2,11.7-9.7C234.7,241.5,230.9,238.3,223.4,238.3z"/>
			<path fill="#43B049" d="M256,248.2l45.6-15.8c0,0-11-8.5-26.4-3.6C275.3,228.7,261.1,232.7,256,248.2z"/>
			<path fill="#14487F" d="M254.6,254.9l36.9,31.9c0,0-15.3,4.3-27.6-7.5C263.9,279.3,253.4,270.5,254.6,254.9z"/>
			<path fill="#14487F" d="M306.4,236.4l-9.3,48.6c0,0,13.4-5.1,17.1-20.8C314.2,264.2,318.5,249,306.4,236.4z"/>
		</g>
		<g>
			<path fill="#4D4D4F" d="M88.1,286l15.7-38.6h5l15.7,38.6h-4.9l-4.6-11.7H97.4L92.8,286H88.1z M98.9,270.5h14.6l-7.3-18.7
				L98.9,270.5z"/>
		</g>
		<g>
			<path fill="#4D4D4F" d="M434.7,286v-38.6h13.5c3.6,0,6.5,0.9,8.5,2.6c2.1,1.7,3.1,4.1,3.1,7.2c0,1.9-0.5,3.6-1.6,5.1
				c-1.1,1.5-2.5,2.6-4.4,3.2c2.5,0.5,4.4,1.6,5.8,3.3c1.4,1.7,2.1,3.8,2.1,6.2c0,3.5-1.1,6.2-3.4,8.2c-2.3,2-5.5,2.9-9.6,2.9H434.7
				z M447.6,251.1h-8.5V264h8.3c2.7,0,4.7-0.6,6-1.7c1.3-1.1,1.9-2.8,1.9-5.2c0-2-0.7-3.5-2-4.5C452,251.6,450.1,251.1,447.6,251.1z
				 M448.3,267.6h-9.2v14.6h9.9c2.6,0,4.6-0.6,6.1-1.9s2.1-3.1,2.1-5.4C457.2,270.1,454.2,267.6,448.3,267.6z"/>
			<path fill="#4D4D4F" d="M487.8,286.8c-5.1,0-9-1.5-11.9-4.4c-2.8-2.9-4.2-7-4.2-12.3v-22.8h4.6v22.4c0,4.2,1,7.5,3,9.6
				s4.9,3.3,8.7,3.3c3.8,0,6.7-1.1,8.7-3.3s3-5.4,3-9.6v-22.4h4.6v22.8c0,5.3-1.4,9.3-4.3,12.3C497,285.3,493,286.8,487.8,286.8z"/>
			<path fill="#4D4D4F" d="M526.7,286.8c-1.5,0-2.9-0.1-4.5-0.4c-1.5-0.3-3-0.6-4.3-1.1c-1.4-0.5-2.5-1-3.5-1.6l0.6-4.2
				c1.6,1,3.5,1.8,5.6,2.4c2.1,0.6,4.1,0.9,5.9,0.9c2.8,0,5.1-0.6,6.8-1.8c1.7-1.2,2.5-2.9,2.5-5c0-1.2-0.3-2.3-0.8-3.1
				c-0.5-0.8-1.4-1.6-2.8-2.3c-1.3-0.7-3.2-1.5-5.5-2.2c-2.9-0.9-5.2-1.9-6.9-2.9c-1.7-1-2.9-2.2-3.6-3.5c-0.7-1.3-1.1-2.9-1.1-4.8
				c0-2.1,0.5-4,1.6-5.6c1.1-1.6,2.6-2.8,4.4-3.7c1.9-0.9,4.1-1.3,6.7-1.3c1.9,0,3.8,0.2,5.7,0.7c1.9,0.5,3.7,1.2,5.2,2.1l-0.8,4
				c-1.5-0.9-3.1-1.6-4.9-2.1c-1.8-0.5-3.5-0.7-5.2-0.7c-2.6,0-4.6,0.6-6.1,1.7c-1.5,1.1-2.2,2.6-2.2,4.6c0,1.2,0.2,2.1,0.7,2.9
				c0.5,0.8,1.3,1.5,2.5,2.2c1.2,0.7,2.9,1.4,5,2.1c3.1,1.1,5.6,2.1,7.4,3.2c1.8,1.1,3.1,2.3,3.9,3.7c0.8,1.4,1.2,2.9,1.2,4.8
				c0,2.3-0.6,4.2-1.7,5.9c-1.1,1.7-2.7,3-4.7,3.9C532,286.3,529.5,286.8,526.7,286.8z"/>
			<path fill="#4D4D4F" d="M551.6,286v-38.6h4.6V286H551.6z"/>
			<path fill="#4D4D4F" d="M568.4,286v-38.6h4.4l24.4,32.1v-32.1h4.2V286H597l-24.4-32.1V286H568.4z"/>
			<path fill="#4D4D4F" d="M613.6,286v-38.6h23.8v3.9h-19.2v12.9h17.2v3.9h-17.2v14h20v3.9H613.6z"/>
			<path fill="#4D4D4F" d="M659.6,286.8c-1.5,0-2.9-0.1-4.5-0.4c-1.5-0.3-3-0.6-4.3-1.1c-1.4-0.5-2.5-1-3.5-1.6l0.6-4.2
				c1.6,1,3.5,1.8,5.6,2.4c2.1,0.6,4.1,0.9,5.9,0.9c2.8,0,5.1-0.6,6.8-1.8c1.7-1.2,2.5-2.9,2.5-5c0-1.2-0.3-2.3-0.8-3.1
				c-0.5-0.8-1.4-1.6-2.8-2.3c-1.3-0.7-3.2-1.5-5.5-2.2c-2.9-0.9-5.2-1.9-6.9-2.9c-1.7-1-2.9-2.2-3.6-3.5c-0.7-1.3-1.1-2.9-1.1-4.8
				c0-2.1,0.5-4,1.6-5.6c1.1-1.6,2.6-2.8,4.4-3.7c1.9-0.9,4.1-1.3,6.7-1.3c1.9,0,3.8,0.2,5.7,0.7c1.9,0.5,3.7,1.2,5.2,2.1l-0.8,4
				c-1.5-0.9-3.1-1.6-4.9-2.1c-1.8-0.5-3.5-0.7-5.2-0.7c-2.6,0-4.6,0.6-6.1,1.7c-1.5,1.1-2.2,2.6-2.2,4.6c0,1.2,0.2,2.1,0.7,2.9
				c0.5,0.8,1.3,1.5,2.5,2.2c1.2,0.7,2.9,1.4,5,2.1c3.1,1.1,5.6,2.1,7.4,3.2c1.8,1.1,3.1,2.3,3.9,3.7c0.8,1.4,1.2,2.9,1.2,4.8
				c0,2.3-0.6,4.2-1.7,5.9c-1.1,1.7-2.7,3-4.7,3.9C664.9,286.3,662.5,286.8,659.6,286.8z"/>
			<path fill="#4D4D4F" d="M694.5,286.8c-1.5,0-2.9-0.1-4.5-0.4c-1.5-0.3-3-0.6-4.3-1.1c-1.4-0.5-2.5-1-3.5-1.6l0.6-4.2
				c1.6,1,3.5,1.8,5.6,2.4c2.1,0.6,4.1,0.9,5.9,0.9c2.8,0,5.1-0.6,6.8-1.8c1.7-1.2,2.5-2.9,2.5-5c0-1.2-0.3-2.3-0.8-3.1
				c-0.5-0.8-1.4-1.6-2.8-2.3c-1.3-0.7-3.2-1.5-5.5-2.2c-2.9-0.9-5.2-1.9-6.9-2.9c-1.7-1-2.9-2.2-3.6-3.5c-0.7-1.3-1.1-2.9-1.1-4.8
				c0-2.1,0.5-4,1.6-5.6c1.1-1.6,2.6-2.8,4.4-3.7c1.9-0.9,4.1-1.3,6.7-1.3c1.9,0,3.8,0.2,5.7,0.7c1.9,0.5,3.7,1.2,5.2,2.1l-0.8,4
				c-1.5-0.9-3.1-1.6-4.9-2.1c-1.8-0.5-3.5-0.7-5.2-0.7c-2.6,0-4.6,0.6-6.1,1.7c-1.5,1.1-2.2,2.6-2.2,4.6c0,1.2,0.2,2.1,0.7,2.9
				c0.5,0.8,1.3,1.5,2.5,2.2c1.2,0.7,2.9,1.4,5,2.1c3.1,1.1,5.6,2.1,7.4,3.2c1.8,1.1,3.1,2.3,3.9,3.7c0.8,1.4,1.2,2.9,1.2,4.8
				c0,2.3-0.6,4.2-1.7,5.9c-1.1,1.7-2.7,3-4.7,3.9C699.8,286.3,697.3,286.8,694.5,286.8z"/>
		</g>
	</g>
</g>
<g id="R_Spacing">
	<path fill="none" d="M132.7,286.4h18.5h24c8.2,0,15.7,3.1,21.2,8.3c5.5,5.2,8.6,11.8,8.6,19.9c0,7.7-3.1,14.7-8.6,19.6
		c-3.1,2.9-6.8,5.1-11,6.7l20.9,33.7h-19.6l-20.1-32.3h-15.4v32.3h-18.5v-32.3v-15.1v-25.4V286.4z M151.2,301.7v25.4h24
		c3.4,0,6.8-1.3,9.5-3.9c2.5-2.4,3.7-5.3,3.7-8.7c0-3.7-1.2-6.6-3.7-8.9c-2.5-2.4-5.8-3.9-9.5-3.9H151.2z"/>
	<path fill="none" d="M181.9,0h18.5h24c8.2,0,15.7,3.1,21.2,8.3c5.5,5.2,8.6,11.8,8.6,19.9c0,7.7-3.1,14.7-8.6,19.6
		c-3.1,2.9-6.8,5.1-11,6.7l20.9,33.7h-19.6l-20.1-32.3h-15.4v32.3h-18.5V55.8V40.7V15.3V0z M200.4,15.3v25.4h24
		c3.4,0,6.8-1.3,9.5-3.9c2.5-2.4,3.7-5.3,3.7-8.7c0-3.7-1.2-6.6-3.7-8.9c-2.5-2.4-5.8-3.9-9.5-3.9H200.4z"/>
	<path fill="none" d="M0,182.4v-18.5v-24c0-8.2,3.1-15.7,8.3-21.2c5.2-5.5,11.8-8.6,19.9-8.6c7.7,0,14.7,3.1,19.6,8.6
		c2.9,3.1,5.1,6.8,6.7,11l33.7-20.9v19.6l-32.3,20.1v15.4h32.3v18.5H55.8H40.7H15.3H0z M15.3,163.9h25.4v-24c0-3.4-1.3-6.8-3.9-9.5
		c-2.4-2.5-5.3-3.7-8.7-3.7c-3.7,0-6.6,1.2-8.9,3.7c-2.4,2.5-3.9,5.8-3.9,9.5V163.9z"/>
	<path fill="none" d="M753.1,174.1v-18.5v-24c0-8.2,3.1-15.7,8.3-21.2c5.2-5.5,11.8-8.6,19.9-8.6c7.7,0,14.7,3.1,19.6,8.6
		c2.9,3.1,5.1,6.8,6.7,11l33.7-20.9v19.6L809,140.3v15.4h32.3v18.5H809h-15.1h-25.4H753.1z M768.5,155.7h25.4v-24
		c0-3.4-1.3-6.8-3.9-9.5c-2.4-2.5-5.3-3.7-8.7-3.7c-3.7,0-6.6,1.2-8.9,3.7c-2.4,2.5-3.9,5.8-3.9,9.5V155.7z"/>
</g>
</svg>
