<svg xmlns="http://www.w3.org/2000/svg" xmlns:xlink="http://www.w3.org/1999/xlink" width="550" height="550" viewBox="0 0 550 550">
  <defs>
    <path id="reports-v2@1x-a" d="M230.55,105.288 L230.546,105.288 C230.501,106.308 229.939,107.238 229.05,107.752 C209.813,118.858 134.746,162.1983 118.77,171.4218 C116.914,172.4936 114.627,172.4936 112.77,171.4218 C96.795,162.1983 21.727,118.858 2.491,107.752 C1.602,107.238 1.039,106.308 0.994,105.288 L0.991,105.288 L0.991,0.154 L230.55,0.154 L230.55,105.288 Z"/>
    <linearGradient id="reports-v2@1x-c" x1="50%" x2="50%" y1="1.694%" y2="100%">
      <stop offset="0%" stop-color="#3F6C9F" stop-opacity="0"/>
      <stop offset="100%" stop-color="#3F6C9F" stop-opacity=".9"/>
    </linearGradient>
    <path id="reports-v2@1x-d" d="M71.552,1.328 C70.066,0.47 68.236,0.47 66.75,1.328 C56.486,7.254 16.197,30.515 2.489,38.429 C1.541,38.976 0.957,39.988 0.957,41.082 C0.957,42.176 1.541,43.188 2.489,43.735 C16.197,51.649 56.486,74.91 66.75,80.836 C68.236,81.694 70.066,81.694 71.552,80.836 C81.816,74.91 122.105,51.649 135.813,43.735 C136.761,43.188 137.345,42.176 137.345,41.082 C137.345,39.988 136.761,38.976 135.813,38.429 C122.105,30.515 81.816,7.254 71.552,1.328 Z"/>
    <path id="reports-v2@1x-f" d="M3.8556,74.132 C0.6106,72.573 -0.0687,69.991 0.1269,67.061 C0.1269,61.112 4.3093,53.868 9.4609,50.893 L96.293,0.761 L132.739,21.396 L132.96,38.319 L63.972,78.149 L66.737,79.198 L53.625,101.909 L3.8556,74.132 Z"/>
    <polygon id="reports-v2@1x-h" points="52.995 .137 84.172 18.137 84.778 33.487 44.287 55.28 .12 29.78"/>
    <polygon id="reports-v2@1x-j" points=".958 17.361 29.536 .861 29.536 51.619 .958 66.361"/>
    <polygon id="reports-v2@1x-l" points="48.095 .082 .463 .082 .463 55.082 29.908 72.082 48.095 61.582"/>
    <polygon id="reports-v2@1x-n" points="28.87 16.582 .291 .082 .291 51.293 28.87 65.582"/>
    <path id="reports-v2@1x-p" d="M138.522,84.377 C138.522,80.219 136.304,76.377 132.703,74.298 C109.982,61.18 27.447,13.529 6.02,1.158 C4.966,0.549 3.667,0.549 2.613,1.158 C1.559,1.766 0.91,2.891 0.91,4.108 C0.91,24.243 0.91,90.164 0.91,111.488 C0.91,115.646 3.128,119.488 6.729,121.567 C29.45,134.685 111.985,182.336 133.412,194.707 C134.466,195.316 135.765,195.316 136.819,194.707 C137.873,194.099 138.522,192.974 138.522,191.757 C138.522,171.622 138.522,105.701 138.522,84.377 Z"/>
    <path id="reports-v2@1x-r" d="M81.016,22.419 L9.584,63.66 C4.432,66.6343 0.25,64.2195 0.25,58.271 C0.25,52.322 4.432,45.078 9.584,42.104 L81.016,0.858"/>
    <polygon id="reports-v2@1x-t" points="15.528 9.154 .549 .506 .549 32.506 15.528 41.154"/>
    <path id="reports-v2@1x-v" d="M8.984,71.555 L2.279,52.597 C1.092,51.009 0.605,49.006 0.931,47.051 C1.521,43.51 2.511,37.565 3.294,32.869 C3.998,28.644 7.253,25.301 11.458,24.486 C19.899,22.851 32.973,20.317 32.973,20.317 C32.973,20.317 41.06,15.649 44.024,13.937 C44.737,13.525 45.393,13.023 45.975,12.443 C48.623,9.804 56.352,2.104 56.352,2.104 C56.514,1.906 56.695,1.725 56.894,1.563 L57.029,1.429 L57.044,1.447 C57.674,0.983 58.452,0.71 59.294,0.71 C61.393,0.71 63.098,2.414 63.098,4.513 C63.098,5.617 62.627,6.611 61.875,7.306 L61.892,7.326 C61.892,7.326 53.663,16.893 50.578,20.48 C49.815,21.367 48.929,22.139 47.946,22.773 C45.355,24.445 39.987,27.909 36.942,29.874 C35.536,30.781 34.648,32.304 34.551,33.975 C34.18,40.36 33.252,56.33 33.024,60.244 C32.99,60.827 33,61.412 33.052,61.994 C33.488,66.803 35.571,89.817 35.571,89.817 L36.6,117.5121 C36.603,117.569 36.605,117.626 36.606,117.6831 L36.607,117.6887 C36.607,117.7281 36.608,117.7676 36.608,117.8073 C36.608,120.8626 34.127,123.3432 31.072,123.3432 C28.017,123.3432 25.536,120.8626 25.536,117.8073 C25.536,117.7416 25.537,117.6762 25.54,117.6111 L25.536,117.611 L24.313,91.317 L21.715,74.817 L19.983,116.5985 L19.983,116.621 C19.983,119.6763 17.502,122.1569 14.447,122.1569 C11.392,122.1569 8.911,119.6763 8.911,116.621 C8.911,116.5967 8.911,116.5725 8.912,116.5482 L8.907,116.5481 L8.915,116.4216 C8.918,116.3243 8.924,116.2276 8.932,116.1314 L10.457,91.317 L8.984,71.555 Z"/>
    <path id="reports-v2@1x-x" d="M11.518,0.739 C17.484,0.739 22.327,5.582 22.327,11.548 C22.327,17.514 17.484,22.357 11.518,22.357 C5.552,22.357 0.709,17.514 0.709,11.548 C0.709,5.582 5.552,0.739 11.518,0.739 Z"/>
    <path id="reports-v2@1x-z" d="M11.5489,0.977 C5.5831,0.977 0.7397,5.82 0.7397,11.786 C0.7397,17.752 5.5831,22.595 11.5489,22.595 C17.5146,22.595 22.358,17.752 22.358,11.786 C22.358,5.82 17.5146,0.977 11.5489,0.977 Z"/>
    <path id="reports-v2@1x-B" d="M41.6795,14.529 L34.7875,22.551 C34.6474,22.714 34.436,22.798 34.2223,22.774 C34.0086,22.751 33.8202,22.624 33.7186,22.434 C32.4256,20.024 28.6426,12.971 26.3597,8.715 C25.2049,6.562 23.2082,4.986 20.8463,4.361 C17.6025,3.504 12.7592,2.224 8.5289,1.105 C6.5282,0.576 4.3952,1.062 2.8205,2.405 C1.2457,3.747 0.4293,5.777 0.6353,7.836 C1.8317,19.794 3.7886,39.354 3.7886,39.354 L5.2441,71.3031 L3.7647,96.509 C3.7393,96.7236 3.7263,96.9418 3.7263,97.163 C3.7263,100.2183 6.2068,102.6989 9.2622,102.6989 C12.1397,102.6989 14.5074,100.4987 14.7732,97.6901 L14.7981,97.6913 L16.913,71.9314 L15.913,50.354 C15.913,50.354 19.8063,73.0245 19.8063,73.0245 L21.9751,97.854 L21.9903,97.8534 C22.2007,100.7172 24.5939,102.9784 27.511,102.9784 C30.5664,102.9784 33.0469,100.4979 33.0469,97.4425 C33.0469,97.2428 33.0363,97.0456 33.0156,96.8514 L31.6393,70.9041 L28.0373,41.354 L26.6763,26.614 C26.6763,26.614 28.4307,28.691 30.1382,30.712 C30.9495,31.673 32.1328,32.241 33.3897,32.273 C34.6466,32.305 35.8573,31.798 36.7167,30.88 L47.4551,19.411 C47.5593,19.312 47.6578,19.207 47.7501,19.096 L47.7555,19.09 L47.7552,19.09 C48.3047,18.431 48.6354,17.582 48.6354,16.658 C48.6354,14.558 46.931,12.854 44.8315,12.854 C43.5205,12.854 42.3635,13.519 41.6795,14.529 Z"/>
    <path id="reports-v2@1x-D" d="M13.829,2.88 C21.462,7.287 27.658,18.019 27.658,26.832 C27.658,35.645 21.462,39.223 13.829,34.816 C6.197,30.41 0,19.677 0,10.864 C0,2.051 6.197,-1.526 13.829,2.88 Z"/>
  </defs>
  <g fill="none" fill-rule="evenodd">
    <g opacity=".1" transform="translate(20 226)">
      <path fill="#3F6C9F" d="M178.749 221.4395C176.891 220.5108 174.705 220.5108 172.848 221.4395 168.824 223.4515 161.647 227.0398 157.545 229.091 156.957 229.3849 156.585 229.9858 156.585 230.643 156.585 231.3003 156.957 231.9011 157.545 232.195 160.02 233.4327 163.464 235.1546 165.898 236.3717 167.755 237.3004 169.942 237.3004 171.799 236.3717 175.823 234.3597 183 230.7714 187.102 228.7202 187.69 228.4263 188.061 227.8255 188.061 227.1682 188.061 226.511 187.69 225.9101 187.102 225.6162 184.627 224.3785 181.183 222.6566 178.749 221.4395zM220.017 1.535C217.301-.033 213.937-.024 211.193 1.56 187.584 15.191 76.6444 79.242 48.2157 95.655 46.8439 96.447 45.9906 97.906 45.9769375 99.482 45.9636 101.059 46.792 102.513 48.1502 103.297 76.2991 119.549 186.147 182.969 209.524 196.4659 212.24 198.0342 215.604 198.0246 218.347 196.4407 241.957 182.8097 352.896 118.759 381.325 102.345 382.697 101.553 383.55 100.095 383.564151 98.518 383.577 96.942 382.749 95.488 381.391 94.704 353.242 78.452 243.394 15.032 220.017 1.535zM411.636 115.862C410.007 114.922 408.352 114.718 407.295 115.328 398.199 120.58 355.457 145.2573 344.504 151.581 343.976 151.8861 343.826 152.5517 344.112 153.3271 344.398 154.1025 345.076 154.8698 345.89 155.34 362.77 165.0854 428.64 203.1153 442.658 211.2087 444.287 212.1491 445.941 212.3526 446.998 211.7423 456.095 206.4906 498.837 181.8133 509.79 175.4897 510.318 175.1845 510.468 174.5189 510.182 173.7436 509.896 172.9682 509.218 172.2009 508.403 171.7306 491.524 161.9853 425.654 123.955 411.636 115.862zM81.6025 136.79C79.7461 135.718 77.459 135.718 75.6026 136.79 63.006 144.0629 14.4625 172.0894 1.866 179.3621 1.2472 179.7193.866 180.3796.866 181.0941.866 181.8086 1.2472 182.4689 1.866 182.8261 14.1504 189.9186 60.5424 216.703 72.8268 223.7954 74.6832 224.8672 76.9704 224.8672 78.8268 223.7954 91.4233 216.5228 139.967 188.4962 152.563 181.2236 153.182 180.8663 153.563 180.206 153.563 179.4915 153.563 178.777 153.182 178.1167 152.563 177.7595 140.279 170.6671 93.8869 143.8827 81.6025 136.79z"/>
      <path stroke="#EFF4F7" stroke-linecap="round" stroke-linejoin="round" d="M81.6025,136.79 C79.7461,135.718 77.459,135.718 75.6026,136.79 C63.006,144.0629 14.4625,172.0894 1.866,179.3621 C1.2472,179.7193 0.866,180.3796 0.866,181.0941 C0.866,181.8086 1.2472,182.4689 1.866,182.8261 C14.1504,189.9186 60.5424,216.703 72.8268,223.7954 C74.6832,224.8672 76.9704,224.8672 78.8268,223.7954 C91.4233,216.5228 139.967,188.4962 152.563,181.2236 C153.182,180.8663 153.563,180.206 153.563,179.4915 C153.563,178.777 153.182,178.1167 152.563,177.7595 C140.279,170.6671 93.8869,143.8827 81.6025,136.79 Z"/>
      <path stroke="#3F6C9F" stroke-linecap="round" stroke-linejoin="round" stroke-width="2" d="M126.737 188.6072C126.737 188.6072 137.99 195.1043 143.343 198.1947 145.054 199.1828 147.163 199.1828 148.875 198.1947 153.095 195.758 160.658 191.3914 160.658 191.3914M161.876 187.3601C163.5 186.4225 166.137 186.4225 167.761 187.3601 169.385 188.2977 169.385 189.8201 167.761 190.7577 166.137 191.6954 163.5 191.6954 161.876 190.7577 160.252 189.8201 160.252 188.2977 161.876 187.3601zM285.659 151.1112C285.659 151.1112 296.913 157.6083 302.265 160.6986 303.977 161.6868 306.085 161.6868 307.797 160.6986 312.017 158.262 319.58 153.8954 319.58 153.8954M320.798 149.864C322.422 148.9264 325.059 148.9264 326.683 149.864 328.307 150.8016 328.307 152.3241 326.683 153.2617 325.059 154.1993 322.422 154.1993 320.798 153.2617 319.174 152.3241 319.174 150.8016 320.798 149.864zM409.952 181.2079C409.952 181.2079 403.124 184.6223 399.794 186.2869 398.682 186.8433 397.364 186.8037 396.286 186.1817 394.635 185.2282 392.117 183.7743 390.185 182.6592 388.474 181.671 386.365 181.671 384.654 182.6592 380.433 185.0958 372.87 189.4624 372.87 189.4624M371.652 193.4938C370.028 194.4314 367.391 194.4314 365.767 193.4938 364.143 192.5561 364.143 191.0337 365.767 190.0961 367.391 189.1585 370.028 189.1585 371.652 190.0961 373.276 191.0337 373.276 192.5561 371.652 193.4938z"/>
      <path fill="#3F6C9F" d="M311.706,199.5201 C310.088,198.7109 308.183,198.7109 306.564,199.5201 C299.863,202.8706 281.88,211.8622 274.619,215.4927 C274.032,215.7866 273.66,216.3874 273.66,217.0447 C273.66,217.7019 274.032,218.3027 274.619,218.5967 C280.39,221.4821 292.669,227.6213 298.01,230.2918 C299.628,231.1011 301.533,231.1011 303.152,230.2918 C309.853,226.9413 327.836,217.9498 335.097,214.3193 C335.685,214.0254 336.056,213.4246 336.056,212.7673 C336.056,212.1101 335.685,211.5092 335.097,211.2153 C329.326,208.3299 317.047,202.1907 311.706,199.5201 Z"/>
    </g>
    <g transform="translate(51 83)">
      <path fill="#EFF4F7" d="M474.162,151.046 C474.162,146.888 471.943,143.046 468.342,140.967 C445.622,127.849 363.086,80.198 341.66,67.827 C340.605,67.218 339.307,67.218 338.253,67.827 C337.198,68.436 336.549,69.56 336.549,70.777 C336.549,90.912 336.549,156.833 336.549,178.157 C336.549,182.315 338.767,186.157 342.368,188.236 C365.089,201.354 447.624,249.006 469.051,261.376 C470.105,261.985 471.404,261.985 472.458,261.376 C473.512,260.768 474.162,259.643 474.162,258.426 C474.162,238.292 474.162,172.37 474.162,151.046 Z"/>
      <path stroke="#01050C" stroke-linecap="round" stroke-linejoin="round" d="M474.162,151.046 C474.162,146.888 471.943,143.046 468.342,140.967 C445.622,127.849 363.086,80.198 341.66,67.827 C340.605,67.218 339.307,67.218 338.253,67.827 C337.198,68.436 336.549,69.56 336.549,70.777 C336.549,90.912 336.549,156.833 336.549,178.157 C336.549,182.315 338.767,186.157 342.368,188.236 C365.089,201.354 447.624,249.006 469.051,261.376 C470.105,261.985 471.404,261.985 472.458,261.376 C473.512,260.768 474.162,259.643 474.162,258.426 C474.162,238.292 474.162,172.37 474.162,151.046 Z"/>
      <path fill="#3F6C9F" fill-opacity=".12" d="M372.944 289.2105C383.618 291.6811 391.38 297.6303 390.266 302.4876 389.153 307.3448 379.583 309.2826 368.909 306.812 358.236 304.3415 350.474 298.3922 351.587 293.535 352.701 288.6777 362.27 286.74 372.944 289.2105zM99.273 213.688C108.602 210.781 117.257 211.863 118.589 216.104 119.92 220.344 113.427 226.147 104.097 229.055 94.768 231.962 86.113 230.88 84.782 226.639 83.45 222.399 89.943 216.596 99.273 213.688z"/>
      <path fill="#5A6D83" fill-opacity=".2" d="M188.059,304.9642 C188.059,304.9642 214.54,304.7511 224.642,304.6698 C227.164,304.6495 229.635,303.9563 231.8,302.6618 C247.432,293.3153 313.937,253.551 332.577,242.405 C333.566,241.814 334.158,240.735 334.126311,239.584 C334.093,238.433 333.441,237.389 332.421,236.855 C313.917,227.16 250.702,194.041 250.702,194.041 L187.914,191.354 L188.059,304.9642 Z"/>
      <path fill="#FFF" d="M302.55,237.677 L302.546,237.677 C302.501,238.697 301.939,239.627 301.05,240.141 C281.813,251.247 206.746,294.5873 190.77,303.8108 C188.914,304.8826 186.627,304.8826 184.77,303.8108 C168.795,294.5873 93.727,251.247 74.491,240.141 C73.602,239.627 73.039,238.697 72.994,237.677 L72.991,237.677 L72.991,132.543 L302.55,132.543 L302.55,237.677 Z"/>
      <g transform="translate(72 132.389)">
        <mask id="reports-v2@1x-b" fill="#fff">
          <use xlink:href="#reports-v2@1x-a"/>
        </mask>
        <polygon fill="#EFF4F7" points="116.265 186.254 234.265 186.254 234.265 -44.746 116.265 -44.746" mask="url(#reports-v2@1x-b)"/>
      </g>
      <path stroke="#01050C" stroke-linecap="round" stroke-linejoin="round" d="M302.55,237.677 L302.546,237.677 C302.501,238.697 301.939,239.627 301.05,240.141 C281.813,251.247 206.746,294.5873 190.77,303.8108 C188.914,304.8826 186.627,304.8826 184.77,303.8108 C168.795,294.5873 93.727,251.247 74.491,240.141 C73.602,239.627 73.039,238.697 72.994,237.677 L72.991,237.677 L72.991,132.543 L302.55,132.543 L302.55,237.677 Z"/>
      <path fill="#FFF" d="M190.77,65.275 C188.914,64.203 186.627,64.203 184.77,65.275 C168.795,74.498 93.727,117.839 74.491,128.945 C73.563,129.481 72.991,130.471 72.991,131.543 C72.991,132.615 73.563,133.605 74.491,134.141 C93.727,145.247 168.795,188.587 184.77,197.811 C186.627,198.883 188.914,198.883 190.77,197.811 C206.746,188.587 281.813,145.247 301.05,134.141 C301.978,133.605 302.55,132.615 302.55,131.543 C302.55,130.471 301.978,129.481 301.05,128.945 C281.813,117.839 206.746,74.498 190.77,65.275 Z"/>
      <path stroke="#01050C" stroke-linecap="round" stroke-linejoin="round" d="M190.77,65.275 C188.914,64.203 186.627,64.203 184.77,65.275 C168.795,74.498 93.727,117.839 74.491,128.945 C73.563,129.481 72.991,130.471 72.991,131.543 C72.991,132.615 73.563,133.605 74.491,134.141 C93.727,145.247 168.795,188.587 184.77,197.811 C186.627,198.883 188.914,198.883 190.77,197.811 C206.746,188.587 281.813,145.247 301.05,134.141 C301.978,133.605 302.55,132.615 302.55,131.543 C302.55,130.471 301.978,129.481 301.05,128.945 C281.813,117.839 206.746,74.498 190.77,65.275 Z"/>
      <polygon fill="url(#reports-v2@1x-c)" points="256.831 129.599 188.443 89.25 119.858 129.36 112 47.518 272.598 44" opacity=".2"/>
      <path fill="#5A6D83" d="M190.552,88.717 C189.066,87.859 187.236,87.859 185.75,88.717 C175.486,94.643 135.197,117.904 121.489,125.818 C120.541,126.365 119.957,127.377 119.957,128.471 C119.957,129.565 120.541,130.577 121.489,131.124 C135.197,139.038 175.486,162.299 185.75,168.225 C187.236,169.083 189.066,169.083 190.552,168.225 C200.816,162.299 241.105,139.038 254.813,131.124 C255.761,130.577 256.345,129.565 256.345,128.471 C256.345,127.377 255.761,126.365 254.813,125.818 C241.105,117.904 200.816,94.643 190.552,88.717 Z"/>
      <g transform="translate(119 87.389)">
        <mask id="reports-v2@1x-e" fill="#fff">
          <use xlink:href="#reports-v2@1x-d"/>
        </mask>
        <polygon fill="#01050C" points="-23.735 109.254 68.771 109.254 68.771 -36.746 -23.735 -36.746" mask="url(#reports-v2@1x-e)"/>
      </g>
      <path stroke="#01050C" stroke-linecap="round" stroke-linejoin="round" d="M190.552 88.717C189.066 87.859 187.236 87.859 185.75 88.717 175.486 94.643 135.197 117.904 121.489 125.818 120.541 126.365 119.957 127.377 119.957 128.471 119.957 129.565 120.541 130.577 121.489 131.124 135.197 139.038 175.486 162.299 185.75 168.225 187.236 169.083 189.066 169.083 190.552 168.225 200.816 162.299 241.105 139.038 254.813 131.124 255.761 130.577 256.345 129.565 256.345 128.471 256.345 127.377 255.761 126.365 254.813 125.818 241.105 117.904 200.816 94.643 190.552 88.717zM302.55 229.471L302.55 229.543C302.55 230.615 301.978 231.605 301.05 232.141 281.813 243.247 206.746 286.5873 190.77 295.8108 188.914 296.8826 186.627 296.8826 184.77 295.8108 168.795 286.5873 93.727 243.247 74.491 232.141 73.563 231.605 72.991 230.615 72.991 229.543L72.991 229.471"/>
      <line x1="206.739" x2="247.02" y1="209.599" y2="186.343" stroke="#01050C" stroke-linecap="round" stroke-linejoin="round"/>
      <line x1="206.739" x2="247.02" y1="221.599" y2="198.343" stroke="#01050C" stroke-linecap="round" stroke-linejoin="round"/>
      <line x1="206.739" x2="247.02" y1="233.599" y2="210.343" stroke="#01050C" stroke-linecap="round" stroke-linejoin="round"/>
      <line x1="206.739" x2="247.02" y1="245.855" y2="222.599" stroke="#01050C" stroke-linecap="round" stroke-linejoin="round"/>
      <polygon stroke="#01050C" stroke-linecap="round" stroke-linejoin="round" points="155.865 205.971 96.543 171.721 96.543 162.721 155.865 196.971"/>
      <path fill="#B1BBC9" d="M84.325,158.667 C82.717,157.739 81.412,158.493 81.412,160.349 C81.412,162.205 82.717,164.465 84.325,165.393 C85.932,166.322 87.237,165.568 87.237,163.712 C87.237,161.856 85.932,159.595 84.325,158.667 Z"/>
      <path stroke="#01050C" stroke-linecap="round" stroke-linejoin="round" d="M84.325,158.667 C82.717,157.739 81.412,158.493 81.412,160.349 C81.412,162.205 82.717,164.465 84.325,165.393 C85.932,166.322 87.237,165.568 87.237,163.712 C87.237,161.856 85.932,159.595 84.325,158.667 Z"/>
      <path fill="#B1BBC9" d="M175.902,212.539 C174.295,211.611 172.99,212.365 172.99,214.221 C172.99,216.077 174.295,218.338 175.902,219.266 C177.51,220.194 178.815,219.44 178.815,217.584 C178.815,215.728 177.51,213.468 175.902,212.539 Z"/>
      <path stroke="#01050C" stroke-linecap="round" stroke-linejoin="round" d="M175.902,212.539 C174.295,211.611 172.99,212.365 172.99,214.221 C172.99,216.077 174.295,218.338 175.902,219.266 C177.51,220.194 178.815,219.44 178.815,217.584 C178.815,215.728 177.51,213.468 175.902,212.539 Z"/>
      <path fill="#B1BBC9" d="M175.902,227.539 C174.295,226.611 172.99,227.365 172.99,229.221 C172.99,231.077 174.295,233.338 175.902,234.266 C177.51,235.194 178.815,234.44 178.815,232.584 C178.815,230.728 177.51,228.468 175.902,227.539 Z"/>
      <path stroke="#01050C" stroke-linecap="round" stroke-linejoin="round" d="M175.902,227.539 C174.295,226.611 172.99,227.365 172.99,229.221 C172.99,231.077 174.295,233.338 175.902,234.266 C177.51,235.194 178.815,234.44 178.815,232.584 C178.815,230.728 177.51,228.468 175.902,227.539 Z"/>
      <path fill="#B1BBC9" d="M291.831,164.608 C293.439,163.68 294.744,164.433 294.744,166.289 C294.744,168.146 293.439,170.406 291.831,171.334 C290.224,172.262 288.919,171.509 288.919,169.653 C288.919,167.796 290.224,165.536 291.831,164.608 Z"/>
      <path stroke="#01050C" stroke-linecap="round" stroke-linejoin="round" d="M291.831,164.608 C293.439,163.68 294.744,164.433 294.744,166.289 C294.744,168.146 293.439,170.406 291.831,171.334 C290.224,172.262 288.919,171.509 288.919,169.653 C288.919,167.796 290.224,165.536 291.831,164.608 Z"/>
      <path fill="#B1BBC9" d="M291.831,179.608 C293.439,178.68 294.744,179.433 294.744,181.289 C294.744,183.146 293.439,185.406 291.831,186.334 C290.224,187.262 288.919,186.509 288.919,184.653 C288.919,182.796 290.224,180.536 291.831,179.608 Z"/>
      <path stroke="#01050C" stroke-linecap="round" stroke-linejoin="round" d="M291.831,179.608 C293.439,178.68 294.744,179.433 294.744,181.289 C294.744,183.146 293.439,185.406 291.831,186.334 C290.224,187.262 288.919,186.509 288.919,184.653 C288.919,182.796 290.224,180.536 291.831,179.608 Z"/>
      <path fill="#4D72EF" d="M291.831,220.353 C293.439,219.424 294.744,220.178 294.744,222.034 C294.744,223.89 293.439,226.151 291.831,227.079 C290.224,228.007 288.919,227.253 288.919,225.397 C288.919,223.541 290.224,221.281 291.831,220.353 Z"/>
      <path stroke="#01050C" stroke-linecap="round" stroke-linejoin="round" d="M291.831,220.353 C293.439,219.424 294.744,220.178 294.744,222.034 C294.744,223.89 293.439,226.151 291.831,227.079 C290.224,228.007 288.919,227.253 288.919,225.397 C288.919,223.541 290.224,221.281 291.831,220.353 Z"/>
      <path fill="#E01A33" d="M215.831,258.353 C217.439,257.424 218.744,258.178 218.744,260.034 C218.744,261.89 217.439,264.151 215.831,265.079 C214.224,266.007 212.919,265.253 212.919,263.397 C212.919,261.541 214.224,259.281 215.831,258.353 Z"/>
      <path stroke="#01050C" stroke-linecap="round" stroke-linejoin="round" d="M215.831,258.353 C217.439,257.424 218.744,258.178 218.744,260.034 C218.744,261.89 217.439,264.151 215.831,265.079 C214.224,266.007 212.919,265.253 212.919,263.397 C212.919,261.541 214.224,259.281 215.831,258.353 Z"/>
      <path fill="#B1BBC9" d="M84.325,173.667 C82.717,172.739 81.412,173.493 81.412,175.349 C81.412,177.205 82.717,179.465 84.325,180.393 C85.932,181.322 87.237,180.568 87.237,178.712 C87.237,176.856 85.932,174.595 84.325,173.667 Z"/>
      <path stroke="#01050C" stroke-linecap="round" stroke-linejoin="round" d="M84.325 173.667C82.717 172.739 81.412 173.493 81.412 175.349 81.412 177.205 82.717 179.465 84.325 180.393 85.932 181.322 87.237 180.568 87.237 178.712 87.237 176.856 85.932 174.595 84.325 173.667zM279.707 173.2C279.707 172.224 279.187 171.323 278.342 170.835 277.497 170.348 276.457 170.348 275.612 170.835 272.038 172.899 267.01 175.802 264.299 177.367 263.116 178.05 262.386 179.313 262.386 180.68 262.386 188.124 262.386 212.405 262.386 222.743 262.386 223.718 262.907 224.619 263.751 225.107 264.596 225.594 265.637 225.594 266.481 225.107 270.056 223.043 275.083 220.14 277.794 218.575 278.978 217.892 279.707 216.629 279.707 215.262 279.707 207.819 279.707 183.537 279.707 173.2z"/>
      <polygon fill="#05122C" points="154.566 213.721 96.543 180.221 96.543 223.721 154.566 257.221"/>
      <polygon stroke="#01050C" stroke-linecap="round" stroke-linejoin="round" points="154.566 213.721 96.543 180.221 96.543 223.721 154.566 257.221"/>
      <path fill="#5A6D83" fill-opacity=".2" d="M114.522,264.122 C114.522,264.122 79.237,281.765 64.458,289.154 C63.216,289.7752 62.422,291.0356 62.3973939,292.4246 C62.373,293.8135 63.123,295.1007 64.343,295.7648 C71.844,299.8473 84.254,306.6015 91.219,310.3926 C94.448,312.1498 98.332,312.2174 101.619,310.5735 C115.544,303.6113 152.372,285.1971 152.372,285.1971 L153.199,256.221 L124.403,241.823 L114.522,264.122 Z"/>
      <line x1="208.908" x2="208.908" y1="8.471" y2="23.471" stroke="#B1BBC9" stroke-linecap="round" stroke-linejoin="round" stroke-width="2"/>
      <line x1="135.958" x2="135.958" y1="59.971" y2="74.179" stroke="#B1BBC9" stroke-linecap="round" stroke-linejoin="round" stroke-width="2"/>
      <line x1="239.87" x2="239.87" y1="54.258" y2="73.43" stroke="#B1BBC9" stroke-linecap="round" stroke-linejoin="round" stroke-width="2"/>
      <polygon fill="#FFF" points="154.739 230.33 83.985 271.18 83.985 292.736 154.739 251.886"/>
      <polygon stroke="#01050C" stroke-linecap="round" stroke-linejoin="round" points="154.739 230.33 83.985 271.18 83.985 292.736 154.739 251.886"/>
      <path fill="#FFF" d="M102.893,224.205 L31.4609,265.446 C26.3093,268.421 22.1269,266.006 22.1269,260.057 C22.1269,254.109 26.3093,246.865 31.4609,243.89 L102.893,202.645"/>
      <path stroke="#01050C" stroke-linecap="round" stroke-linejoin="round" d="M102.893,224.205 L31.4609,265.446 C26.3093,268.421 22.1269,266.006 22.1269,260.057 C22.1269,254.109 26.3093,246.865 31.4609,243.89 L102.893,202.645"/>
      <path fill="#FFF" d="M25.8556,266.521 C22.6106,264.962 21.9313,262.38 22.1269,259.45 C22.1269,253.501 26.3093,246.257 31.4609,243.282 L118.293,193.15 L154.739,213.785 L154.96,230.708 L85.972,270.538 L88.737,271.587 L75.625,294.298 L25.8556,266.521 Z"/>
      <g transform="translate(22 192.389)">
        <mask id="reports-v2@1x-g" fill="#fff">
          <use xlink:href="#reports-v2@1x-f"/>
        </mask>
        <polygon fill="#B1BBC9" fill-opacity=".3" points="28.562 56.986 54.543 71.986 96.112 47.986 70.131 32.986" mask="url(#reports-v2@1x-g)"/>
        <polygon fill="#B1BBC9" fill-opacity=".3" points="75.332 29.983 101.313 44.983 142.882 20.983 116.902 5.983" mask="url(#reports-v2@1x-g)"/>
      </g>
      <path stroke="#01050C" stroke-linecap="round" stroke-linejoin="round" d="M25.8556,266.521 C22.6106,264.962 21.9313,262.38 22.1269,259.45 C22.1269,253.501 26.3093,246.257 31.4609,243.282 L118.293,193.15 L154.739,213.785 L154.96,230.708 L85.972,270.538 L88.737,271.587 L75.625,294.298 L25.8556,266.521 Z"/>
      <polygon fill="#FFF" points="48.794 246.439 74.775 261.439 116.344 237.439 90.364 222.439"/>
      <polygon stroke="#01050C" stroke-linecap="round" stroke-linejoin="round" points="48.794 246.439 74.775 261.439 116.344 237.439 90.364 222.439"/>
      <polyline stroke="#E01A33" stroke-linecap="round" stroke-linejoin="round" points="89.607 233.459 94.064 232.706 94.531 234.792"/>
      <path stroke="#E01A33" stroke-linecap="round" stroke-linejoin="round" d="M87.781,231.279 C90.442,229.743 94.764,229.743 97.425,231.279 C100.086,232.816 100.086,235.311 97.425,236.847 C94.764,238.384 90.442,238.384 87.781,236.847 C85.12,235.311 85.12,232.816 87.781,231.279 Z"/>
      <path fill="#EFF4F7" d="M69.35,249.504 C68.707,249.63 68.048,249.555 67.621,249.309 C67.194,249.062 67.065,248.681 67.282,248.31 C69.034,245.321 72.517,239.376 74.264,236.395 C74.48,236.025 75.009,235.721 75.65,235.597 C76.291,235.473 76.948,235.548 77.373,235.794 C80.795,237.769 87.608,241.703 91.029,243.678 C91.455,243.924 91.585,244.303 91.37,244.673 C91.155,245.043 90.628,245.348 89.988,245.473 C84.825,246.482 74.528,248.493 69.35,249.504 Z"/>
      <path stroke="#01050C" stroke-linecap="round" stroke-linejoin="round" d="M69.35,249.504 C68.707,249.63 68.048,249.555 67.621,249.309 C67.194,249.062 67.065,248.681 67.282,248.31 C69.034,245.321 72.517,239.376 74.264,236.395 C74.48,236.025 75.009,235.721 75.65,235.597 C76.291,235.473 76.948,235.548 77.373,235.794 C80.795,237.769 87.608,241.703 91.029,243.678 C91.455,243.924 91.585,244.303 91.37,244.673 C91.155,245.043 90.628,245.348 89.988,245.473 C84.825,246.482 74.528,248.493 69.35,249.504 Z"/>
      <line x1="72.81" x2="78.086" y1="246.312" y2="243.267" stroke="#01050C" stroke-linecap="round" stroke-linejoin="round"/>
      <path fill="#000" d="M79.77,242.294 C79.289,242.017 79.352,241.529 79.911,241.207 C80.47,240.884 81.314,240.848 81.795,241.125 C82.276,241.403 82.213,241.89 81.654,242.213 C81.095,242.536 80.251,242.572 79.77,242.294 Z"/>
      <g transform="translate(69 196.389)">
        <mask id="reports-v2@1x-i" fill="#fff">
          <use xlink:href="#reports-v2@1x-h"/>
        </mask>
        <polygon fill="#FFF" points="26.565 23.048 52.545 38.048 94.115 14.048 68.134 -.952" mask="url(#reports-v2@1x-i)"/>
        <polygon stroke="#01050C" stroke-linecap="round" stroke-linejoin="round" points="26.565 23.048 52.545 38.048 94.115 14.048 68.134 -.952" mask="url(#reports-v2@1x-i)"/>
        <polyline stroke="#E01A33" stroke-linecap="round" stroke-linejoin="round" points="67.607 10.512 72.064 9.759 72.531 11.845" mask="url(#reports-v2@1x-i)"/>
        <path stroke="#E01A33" stroke-linecap="round" stroke-linejoin="round" d="M65.781,8.332 C68.442,6.796 72.764,6.796 75.425,8.332 C78.086,9.869 78.086,12.364 75.425,13.9 C72.764,15.437 68.442,15.437 65.781,13.9 C63.12,12.364 63.12,9.869 65.781,8.332 Z" mask="url(#reports-v2@1x-i)"/>
        <path fill="#EFF4F7" d="M47.12,26.112 C46.478,26.238 45.818,26.163 45.391,25.917 C44.964,25.67 44.835,25.289 45.052,24.918 C46.804,21.929 50.287,15.984 52.034,13.003 C52.25,12.633 52.779,12.329 53.42,12.205 C54.061,12.081 54.718,12.156 55.144,12.402 C58.565,14.377 65.378,18.311 68.799,20.286 C69.225,20.532 69.355,20.911 69.14,21.281 C68.925,21.652 68.399,21.957 67.758,22.082 C62.595,23.09 52.298,25.101 47.12,26.112 Z" mask="url(#reports-v2@1x-i)"/>
        <path stroke="#01050C" stroke-linecap="round" stroke-linejoin="round" d="M47.12,26.112 C46.478,26.238 45.818,26.163 45.391,25.917 C44.964,25.67 44.835,25.289 45.052,24.918 C46.804,21.929 50.287,15.984 52.034,13.003 C52.25,12.633 52.779,12.329 53.42,12.205 C54.061,12.081 54.718,12.156 55.144,12.402 C58.565,14.377 65.378,18.311 68.799,20.286 C69.225,20.532 69.355,20.911 69.14,21.281 C68.925,21.652 68.399,21.957 67.758,22.082 C62.595,23.09 52.298,25.101 47.12,26.112 Z" mask="url(#reports-v2@1x-i)"/>
        <line x1="50.58" x2="55.856" y1="22.921" y2="19.875" stroke="#01050C" stroke-linecap="round" stroke-linejoin="round" mask="url(#reports-v2@1x-i)"/>
        <path fill="#000" d="M57.54,18.903 C57.059,18.625 57.122,18.138 57.681,17.815 C58.24,17.492 59.084,17.456 59.565,17.734 C60.046,18.011 59.983,18.499 59.424,18.821 C58.865,19.144 58.021,19.18 57.54,18.903 Z" mask="url(#reports-v2@1x-i)"/>
      </g>
      <polygon fill="#FFF" points="135.958 85.75 164.536 69.25 164.536 120.008 135.958 134.75"/>
      <g transform="translate(135 68.389)">
        <mask id="reports-v2@1x-k" fill="#fff">
          <use xlink:href="#reports-v2@1x-j"/>
        </mask>
        <polygon fill="#5A6D83" fill-opacity=".2" points="29.536 45.016 -2.707 61.138 -2.707 77.392 29.536 61.271" mask="url(#reports-v2@1x-k)"/>
      </g>
      <polygon stroke="#01050C" stroke-linecap="round" stroke-linejoin="round" points="135.958 85.75 164.536 69.25 164.536 120.008 135.958 134.75"/>
      <path fill="#EFF4F7" d="M152.418,93.41 C152.06,92.897 151.396,92.836 150.676,93.252 C149.957,93.667 149.293,94.494 148.935,95.421 C147.279,99.705 144.804,106.11 143.153,110.382 C142.796,111.306 142.797,112.189 143.156,112.698 C143.515,113.207 144.178,113.265 144.894,112.851 C148.201,110.942 153.152,108.084 156.459,106.175 C157.175,105.761 157.838,104.937 158.197,104.014 C158.556,103.09 158.557,102.206 158.2,101.695 C156.549,99.329 154.074,95.782 152.418,93.41 Z"/>
      <path stroke="#01050C" stroke-linecap="round" stroke-linejoin="round" d="M152.418,93.41 C152.06,92.897 151.396,92.836 150.676,93.252 C149.957,93.667 149.293,94.494 148.935,95.421 C147.279,99.705 144.804,106.11 143.153,110.382 C142.796,111.306 142.797,112.189 143.156,112.698 C143.515,113.207 144.178,113.265 144.894,112.851 C148.201,110.942 153.152,108.084 156.459,106.175 C157.175,105.761 157.838,104.937 158.197,104.014 C158.556,103.09 158.557,102.206 158.2,101.695 C156.549,99.329 154.074,95.782 152.418,93.41 Z"/>
      <line x1="150.676" x2="150.676" y1="97.728" y2="103.186" stroke="#01050C" stroke-linecap="round" stroke-linejoin="round"/>
      <path fill="#000" d="M150.676,104.928 C150.176,105.217 149.769,105.921 149.769,106.499 C149.769,107.078 150.176,107.312 150.676,107.023 C151.177,106.734 151.584,106.03 151.584,105.452 C151.584,104.874 151.177,104.639 150.676,104.928 Z"/>
      <g transform="translate(158 97.389)">
        <mask id="reports-v2@1x-m" fill="#fff">
          <use xlink:href="#reports-v2@1x-l"/>
        </mask>
        <polygon fill="#FFF" points="39.435 32.082 10.856 17.793 10.856 64.582 39.435 81.082" mask="url(#reports-v2@1x-m)"/>
        <polygon stroke="#01050C" stroke-linecap="round" stroke-linejoin="round" points="39.435 32.082 10.856 17.793 10.856 64.582 39.435 81.082" mask="url(#reports-v2@1x-m)"/>
        <path fill="#EFF4F7" d="M22.974,39.743 C23.332,39.229 23.997,39.169 24.716,39.584 C25.435,39.999 26.099,40.827 26.457,41.754 C28.113,46.037 30.588,52.443 32.239,56.715 C32.596,57.639 32.595,58.521 32.236,59.03 C31.877,59.539 31.215,59.598 30.498,59.184 C27.191,57.275 22.24,54.416 18.934,52.507 C18.217,52.093 17.554,51.27 17.195,50.346 C16.836,49.423 16.835,48.539 17.192,48.027 C18.843,45.661 21.319,42.115 22.974,39.743 Z" mask="url(#reports-v2@1x-m)"/>
        <path stroke="#01050C" stroke-linecap="round" stroke-linejoin="round" d="M22.974,39.743 C23.332,39.229 23.997,39.169 24.716,39.584 C25.435,39.999 26.099,40.827 26.457,41.754 C28.113,46.037 30.588,52.443 32.239,56.715 C32.596,57.639 32.595,58.521 32.236,59.03 C31.877,59.539 31.215,59.598 30.498,59.184 C27.191,57.275 22.24,54.416 18.934,52.507 C18.217,52.093 17.554,51.27 17.195,50.346 C16.836,49.423 16.835,48.539 17.192,48.027 C18.843,45.661 21.319,42.115 22.974,39.743 Z" mask="url(#reports-v2@1x-m)"/>
        <line x1="24.716" x2="24.716" y1="44.061" y2="49.518" stroke="#01050C" stroke-linecap="round" stroke-linejoin="round" mask="url(#reports-v2@1x-m)"/>
        <path fill="#000" d="M24.716,51.261 C25.216,51.55 25.623,52.254 25.623,52.832 C25.623,53.41 25.216,53.645 24.716,53.356 C24.215,53.067 23.808,52.363 23.808,51.784 C23.808,51.206 24.215,50.972 24.716,51.261 Z" mask="url(#reports-v2@1x-m)"/>
        <polygon fill="#5A6D83" fill-opacity=".2" points="10.135 44.819 42.378 60.941 42.378 85.456 10.135 67.46" mask="url(#reports-v2@1x-m)"/>
      </g>
      <polygon fill="#FFF" points="239.87 86.971 211.291 70.471 211.291 121.682 239.87 135.971"/>
      <g transform="translate(211 70.389)">
        <mask id="reports-v2@1x-o" fill="#fff">
          <use xlink:href="#reports-v2@1x-n"/>
        </mask>
        <polygon fill="#5A6D83" fill-opacity=".2" points="-1.541 45.95 30.702 62.072 30.702 86.586 -1.541 68.591" mask="url(#reports-v2@1x-o)"/>
      </g>
      <polygon stroke="#01050C" stroke-linecap="round" stroke-linejoin="round" points="239.87 86.971 211.291 70.471 211.291 121.682 239.87 135.971"/>
      <path fill="#EFF4F7" d="M223.409,94.632 C223.768,94.118 224.432,94.058 225.151,94.473 C225.87,94.888 226.534,95.716 226.893,96.643 C228.548,100.926 231.024,107.332 232.675,111.604 C233.032,112.528 233.03,113.41 232.671,113.919 C232.312,114.428 231.65,114.487 230.933,114.073 C227.626,112.164 222.675,109.305 219.369,107.396 C218.652,106.982 217.99,106.159 217.63,105.235 C217.271,104.312 217.27,103.428 217.627,102.916 C219.278,100.55 221.754,97.004 223.409,94.632 Z"/>
      <path stroke="#01050C" stroke-linecap="round" stroke-linejoin="round" d="M223.409,94.632 C223.768,94.118 224.432,94.058 225.151,94.473 C225.87,94.888 226.534,95.716 226.893,96.643 C228.548,100.926 231.024,107.332 232.675,111.604 C233.032,112.528 233.03,113.41 232.671,113.919 C232.312,114.428 231.65,114.487 230.933,114.073 C227.626,112.164 222.675,109.305 219.369,107.396 C218.652,106.982 217.99,106.159 217.63,105.235 C217.271,104.312 217.27,103.428 217.627,102.916 C219.278,100.55 221.754,97.004 223.409,94.632 Z"/>
      <line x1="225.151" x2="225.151" y1="98.95" y2="104.407" stroke="#01050C" stroke-linecap="round" stroke-linejoin="round"/>
      <path fill="#000" d="M225.151,106.15 C225.652,106.439 226.058,107.143 226.058,107.721 C226.058,108.299 225.652,108.534 225.151,108.245 C224.65,107.956 224.244,107.252 224.244,106.673 C224.244,106.095 224.65,105.861 225.151,106.15 Z"/>
      <polygon fill="#FFF" points="223.848 42.721 195.269 26.221 195.269 75.221 223.848 91.721"/>
      <polygon stroke="#01050C" stroke-linecap="round" stroke-linejoin="round" points="223.848 42.721 195.269 26.221 195.269 75.221 223.848 91.721"/>
      <path fill="#EFF4F7" d="M207.388,50.382 C207.746,49.868 208.41,49.808 209.129,50.223 C209.849,50.638 210.513,51.466 210.871,52.393 C212.527,56.676 215.002,63.082 216.653,67.354 C217.01,68.278 217.009,69.16 216.65,69.669 C216.291,70.178 215.628,70.237 214.912,69.823 C211.605,67.914 206.654,65.055 203.347,63.146 C202.631,62.732 201.968,61.909 201.609,60.985 C201.25,60.062 201.249,59.178 201.606,58.666 C203.257,56.3 205.732,52.754 207.388,50.382 Z"/>
      <path stroke="#01050C" stroke-linecap="round" stroke-linejoin="round" d="M207.388,50.382 C207.746,49.868 208.41,49.808 209.129,50.223 C209.849,50.638 210.513,51.466 210.871,52.393 C212.527,56.676 215.002,63.082 216.653,67.354 C217.01,68.278 217.009,69.16 216.65,69.669 C216.291,70.178 215.628,70.237 214.912,69.823 C211.605,67.914 206.654,65.055 203.347,63.146 C202.631,62.732 201.968,61.909 201.609,60.985 C201.25,60.062 201.249,59.178 201.606,58.666 C203.257,56.3 205.732,52.754 207.388,50.382 Z"/>
      <line x1="209.129" x2="209.129" y1="54.7" y2="60.157" stroke="#01050C" stroke-linecap="round" stroke-linejoin="round"/>
      <path fill="#000" d="M209.129,61.9 C209.63,62.189 210.037,62.893 210.037,63.471 C210.037,64.049 209.63,64.284 209.129,63.995 C208.629,63.706 208.222,63.002 208.222,62.423 C208.222,61.845 208.629,61.611 209.129,61.9 Z"/>
      <polygon fill="#FFF" points="155.876 17.25 184.455 .75 184.455 49.75 155.876 66.25"/>
      <polygon stroke="#01050C" stroke-linecap="round" stroke-linejoin="round" points="155.876 17.25 184.455 .75 184.455 49.75 155.876 66.25"/>
      <path fill="#EFF4F7" d="M172.337,24.91 C171.978,24.397 171.314,24.336 170.595,24.752 C169.876,25.167 169.212,25.994 168.853,26.921 C167.198,31.205 164.722,37.61 163.071,41.882 C162.714,42.806 162.715,43.689 163.075,44.198 C163.434,44.707 164.096,44.765 164.813,44.351 C168.12,42.442 173.071,39.584 176.377,37.675 C177.094,37.261 177.756,36.437 178.115,35.514 C178.475,34.59 178.476,33.706 178.119,33.195 C176.468,30.829 173.992,27.282 172.337,24.91 Z"/>
      <path stroke="#01050C" stroke-linecap="round" stroke-linejoin="round" d="M172.337,24.91 C171.978,24.397 171.314,24.336 170.595,24.752 C169.876,25.167 169.212,25.994 168.853,26.921 C167.198,31.205 164.722,37.61 163.071,41.882 C162.714,42.806 162.715,43.689 163.075,44.198 C163.434,44.707 164.096,44.765 164.813,44.351 C168.12,42.442 173.071,39.584 176.377,37.675 C177.094,37.261 177.756,36.437 178.115,35.514 C178.475,34.59 178.476,33.706 178.119,33.195 C176.468,30.829 173.992,27.282 172.337,24.91 Z"/>
      <line x1="170.595" x2="170.595" y1="29.228" y2="34.686" stroke="#01050C" stroke-linecap="round" stroke-linejoin="round"/>
      <path fill="#000" d="M170.595,36.428 C170.094,36.717 169.688,37.421 169.688,37.999 C169.688,38.578 170.094,38.812 170.595,38.523 C171.096,38.234 171.502,37.53 171.502,36.952 C171.502,36.374 171.096,36.139 170.595,36.428 Z"/>
      <line x1="57.096" x2="65.756" y1="246.996" y2="251.996" stroke="#5A6D83" stroke-linecap="round" stroke-linejoin="round"/>
      <line x1="103.861" x2="112.522" y1="219.996" y2="224.996" stroke="#5A6D83" stroke-linecap="round" stroke-linejoin="round"/>
      <line x1="69.22" x2="72.685" y1="253.996" y2="255.996" stroke="#5A6D83" stroke-linecap="round" stroke-linejoin="round"/>
      <line x1="115.986" x2="119.45" y1="226.996" y2="228.996" stroke="#5A6D83" stroke-linecap="round" stroke-linejoin="round"/>
      <path stroke="#01050C" stroke-linecap="round" stroke-linejoin="round" d="M292.759,223.746 C292.759,223.746 294.287,224.628 295.631,225.404 C296.867,226.118 297.629,227.437 297.629,228.864 C297.629,233.87 297.629,245.781 297.629,252.02 C297.629,254.474 298.938,256.741 301.063,257.968 C311.029,263.722 339.88,280.379 349.798,286.1051 C351.9,287.3184 354.489,287.3184 356.591,286.1051 C366.228,280.541 393.501,264.795 400.461,260.777 C401.471,260.194 402.093,259.116 402.093,257.95 C402.093,250.963 402.093,226.942 402.093,226.942"/>
      <path fill="#FFF" d="M470.522,152.766 C470.522,148.608 468.304,144.766 464.703,142.687 C441.982,129.569 359.447,81.918 338.02,69.547 C336.966,68.938 335.667,68.938 334.613,69.547 C333.559,70.155 332.91,71.28 332.91,72.497 C332.91,92.632 332.91,158.553 332.91,179.877 C332.91,184.035 335.128,187.877 338.729,189.956 C361.45,203.074 443.985,250.725 465.412,263.096 C466.466,263.705 467.765,263.705 468.819,263.096 C469.873,262.488 470.522,261.363 470.522,260.146 C470.522,240.011 470.522,174.09 470.522,152.766 Z"/>
      <g transform="translate(332 68.389)">
        <mask id="reports-v2@1x-q" fill="#fff">
          <use xlink:href="#reports-v2@1x-p"/>
        </mask>
        <polygon fill="#EFF4F7" points="151.062 58.652 -10.93 -22.344 -10.93 7.349 151.062 99.019" mask="url(#reports-v2@1x-q)"/>
        <line x1=".953" x2="138.956" y1="13.29" y2="92.966" stroke="#01050C" stroke-linecap="round" stroke-linejoin="round" mask="url(#reports-v2@1x-q)"/>
      </g>
      <path stroke="#01050C" stroke-linecap="round" stroke-linejoin="round" d="M470.522,152.766 C470.522,148.608 468.304,144.766 464.703,142.687 C441.982,129.569 359.447,81.918 338.02,69.547 C336.966,68.938 335.667,68.938 334.613,69.547 C333.559,70.155 332.91,71.28 332.91,72.497 C332.91,92.632 332.91,158.553 332.91,179.877 C332.91,184.035 335.128,187.877 338.729,189.956 C361.45,203.074 443.985,250.725 465.412,263.096 C466.466,263.705 467.765,263.705 468.819,263.096 C469.873,262.488 470.522,261.363 470.522,260.146 C470.522,240.011 470.522,174.09 470.522,152.766 Z"/>
      <path fill="#EFF4F7" d="M433.682,147.752 C444.675,154.099 453.6,169.558 453.6,182.252 C453.6,194.946 444.675,200.099 433.682,193.752 C422.688,187.405 413.763,171.946 413.763,159.252 C413.763,146.558 422.688,141.405 433.682,147.752 Z"/>
      <path fill="#FFF" d="M433.682,151.086 C443.082,156.513 450.714,169.731 450.714,180.586 C450.714,191.44 443.082,195.846 433.682,190.419 C424.282,184.992 416.65,171.773 416.65,160.919 C416.65,150.065 424.282,145.658 433.682,151.086 Z"/>
      <path fill="#EFF4F7" d="M404.628 135.227C404.628 133.452 403.668 131.817 402.119 130.951 391.755 125.162 352.313 103.133 341.376 97.025 340.788 96.696 340.069 96.704 339.488 97.045 338.906 97.386 338.549 98.01 338.549 98.684 338.549 103.697 338.549 113.26 338.549 118.062 338.549 119.852 339.526 121.5 341.097 122.359 351.525 128.061 390.913 149.598 401.816 155.56 402.405 155.882 403.12 155.869 403.697 155.527 404.274 155.185 404.628 154.563 404.628 153.892 404.628 149.034 404.628 139.881 404.628 135.227zM404.628 163.886C404.628 162.112 403.669 160.477 402.121 159.612 391.761 153.817 352.316 131.758 341.377 125.64 340.789 125.311 340.07 125.318 339.488 125.659 338.906 126 338.549 126.624 338.549 127.298 338.549 132.372 338.549 142.112 338.549 146.98 338.549 148.778 339.535 150.432 341.116 151.287 351.576 156.946 390.938 178.24 401.823 184.129 402.412 184.447 403.125 184.433 403.701 184.09 404.276 183.747 404.628 183.127 404.628 182.457 404.628 177.626 404.628 168.523 404.628 163.886zM404.628 192.055C404.628 190.273 403.661 188.632 402.102 187.77 391.709 182.02 352.291 160.21 341.37 154.167 340.781 153.842 340.064 153.851 339.484 154.193 338.905 154.535 338.549 155.157 338.549 155.83L338.549 175.816C338.549 177.596 339.515 179.236 341.071 180.099 351.458 185.858 390.881 207.719 401.806 213.777 402.395 214.104 403.112 214.094 403.692 213.753 404.272 213.411 404.628 212.788 404.628 212.115 404.628 206.968 404.628 196.98 404.628 192.055z"/>
      <path fill="#FFF" d="M348.59,107.997 C349.013,107.391 349.736,107.068 350.47,107.156 C351.204,107.245 351.829,107.731 352.096,108.421 C353.785,112.791 356.688,120.302 358.647,125.373 C358.953,126.164 358.727,127.062 358.082,127.613 C357.438,128.165 356.516,128.25 355.782,127.826 C351.548,125.381 345.658,121.981 342.679,120.261 C342.194,119.981 341.848,119.51 341.727,118.963 C341.605,118.416 341.718,117.844 342.039,117.384 C343.68,115.033 346.59,110.863 348.59,107.997 Z"/>
      <path stroke="#E01A33" stroke-linecap="round" stroke-linejoin="round" d="M348.59,107.997 C349.013,107.391 349.736,107.068 350.47,107.156 C351.204,107.245 351.829,107.731 352.096,108.421 C353.785,112.791 356.688,120.302 358.647,125.373 C358.953,126.164 358.727,127.062 358.082,127.613 C357.438,128.165 356.516,128.25 355.782,127.826 C351.548,125.381 345.658,121.981 342.679,120.261 C342.194,119.981 341.848,119.51 341.727,118.963 C341.605,118.416 341.718,117.844 342.039,117.384 C343.68,115.033 346.59,110.863 348.59,107.997 Z"/>
      <line x1="349.741" x2="349.741" y1="111.242" y2="117.112" stroke="#E01A33" stroke-linecap="round" stroke-linejoin="round"/>
      <path fill="#E01A33" d="M349.741,118.985 C350.28,119.296 350.717,120.053 350.717,120.675 C350.717,121.297 350.28,121.549 349.741,121.238 C349.203,120.927 348.765,120.17 348.765,119.548 C348.765,118.927 349.203,118.674 349.741,118.985 Z"/>
      <path fill="#FFF" d="M348.59,135.069 C349.013,134.463 349.736,134.14 350.47,134.229 C351.204,134.317 351.829,134.804 352.096,135.493 C353.785,139.863 356.688,147.374 358.647,152.445 C358.953,153.236 358.727,154.134 358.082,154.685 C357.438,155.237 356.516,155.322 355.782,154.898 C351.548,152.453 345.658,149.053 342.679,147.333 C342.194,147.053 341.848,146.582 341.727,146.035 C341.605,145.488 341.718,144.916 342.039,144.456 C343.68,142.105 346.59,137.935 348.59,135.069 Z"/>
      <path stroke="#E01A33" stroke-linecap="round" stroke-linejoin="round" d="M348.59,135.069 C349.013,134.463 349.736,134.14 350.47,134.229 C351.204,134.317 351.829,134.804 352.096,135.493 C353.785,139.863 356.688,147.374 358.647,152.445 C358.953,153.236 358.727,154.134 358.082,154.685 C357.438,155.237 356.516,155.322 355.782,154.898 C351.548,152.453 345.658,149.053 342.679,147.333 C342.194,147.053 341.848,146.582 341.727,146.035 C341.605,145.488 341.718,144.916 342.039,144.456 C343.68,142.105 346.59,137.935 348.59,135.069 Z"/>
      <line x1="349.741" x2="349.741" y1="138.315" y2="144.184" stroke="#E01A33" stroke-linecap="round" stroke-linejoin="round"/>
      <path fill="#E01A33" d="M349.741,146.057 C350.28,146.368 350.717,147.125 350.717,147.747 C350.717,148.369 350.28,148.621 349.741,148.31 C349.203,147.999 348.765,147.242 348.765,146.62 C348.765,145.999 349.203,145.746 349.741,146.057 Z"/>
      <path fill="#FFF" d="M348.59,165.761 C349.013,165.155 349.736,164.831 350.47,164.92 C351.204,165.009 351.829,165.495 352.096,166.185 C353.785,170.555 356.688,178.066 358.647,183.136 C358.953,183.927 358.727,184.825 358.082,185.377 C357.438,185.928 356.516,186.013 355.782,185.589 C351.548,183.145 345.658,179.745 342.679,178.024 C342.194,177.744 341.848,177.274 341.727,176.727 C341.605,176.18 341.718,175.607 342.039,175.148 C343.68,172.796 346.59,168.626 348.59,165.761 Z"/>
      <path stroke="#E01A33" stroke-linecap="round" stroke-linejoin="round" d="M348.59,165.761 C349.013,165.155 349.736,164.831 350.47,164.92 C351.204,165.009 351.829,165.495 352.096,166.185 C353.785,170.555 356.688,178.066 358.647,183.136 C358.953,183.927 358.727,184.825 358.082,185.377 C357.438,185.928 356.516,186.013 355.782,185.589 C351.548,183.145 345.658,179.745 342.679,178.024 C342.194,177.744 341.848,177.274 341.727,176.727 C341.605,176.18 341.718,175.607 342.039,175.148 C343.68,172.796 346.59,168.626 348.59,165.761 Z"/>
      <line x1="349.741" x2="349.741" y1="169.006" y2="174.875" stroke="#E01A33" stroke-linecap="round" stroke-linejoin="round"/>
      <path fill="#E01A33" d="M349.741,176.749 C350.28,177.06 350.717,177.817 350.717,178.438 C350.717,179.06 350.28,179.313 349.741,179.002 C349.203,178.691 348.765,177.934 348.765,177.312 C348.765,176.69 349.203,176.438 349.741,176.749 Z"/>
      <path fill="#B1BBC9" d="M340.987,77.149 C342,77.734 342.822,79.158 342.822,80.327 C342.822,81.496 342,81.97 340.987,81.386 C339.975,80.801 339.153,79.377 339.153,78.208 C339.153,77.039 339.975,76.565 340.987,77.149 Z"/>
      <path stroke="#01050C" stroke-linecap="round" stroke-linejoin="round" d="M340.987,77.149 C342,77.734 342.822,79.158 342.822,80.327 C342.822,81.496 342,81.97 340.987,81.386 C339.975,80.801 339.153,79.377 339.153,78.208 C339.153,77.039 339.975,76.565 340.987,77.149 Z"/>
      <path fill="#B1BBC9" d="M347.885,81.132 C348.898,81.716 349.72,83.14 349.72,84.309 C349.72,85.478 348.898,85.953 347.885,85.368 C346.873,84.784 346.051,83.36 346.051,82.191 C346.051,81.022 346.873,80.547 347.885,81.132 Z"/>
      <path stroke="#01050C" stroke-linecap="round" stroke-linejoin="round" d="M347.885,81.132 C348.898,81.716 349.72,83.14 349.72,84.309 C349.72,85.478 348.898,85.953 347.885,85.368 C346.873,84.784 346.051,83.36 346.051,82.191 C346.051,81.022 346.873,80.547 347.885,81.132 Z"/>
      <path fill="#B1BBC9" d="M354.783,85.114 C355.796,85.699 356.618,87.123 356.618,88.292 C356.618,89.461 355.796,89.936 354.783,89.351 C353.771,88.766 352.949,87.343 352.949,86.173 C352.949,85.004 353.771,84.53 354.783,85.114 Z"/>
      <path stroke="#01050C" stroke-linecap="round" stroke-linejoin="round" d="M354.783,85.114 C355.796,85.699 356.618,87.123 356.618,88.292 C356.618,89.461 355.796,89.936 354.783,89.351 C353.771,88.766 352.949,87.343 352.949,86.173 C352.949,85.004 353.771,84.53 354.783,85.114 Z"/>
      <line x1="366.045" x2="397.222" y1="116.923" y2="134.923" stroke="#5A6D83" stroke-linecap="round" stroke-linejoin="round" stroke-width="2"/>
      <line x1="366.045" x2="386.829" y1="130.727" y2="142.727" stroke="#B1BBC9" stroke-linecap="round" stroke-linejoin="round"/>
      <line x1="366.045" x2="379.577" y1="123.809" y2="131.622" stroke="#B1BBC9" stroke-linecap="round" stroke-linejoin="round"/>
      <line x1="384.464" x2="399.226" y1="134.443" y2="142.966" stroke="#B1BBC9" stroke-linecap="round" stroke-linejoin="round"/>
      <line x1="366.045" x2="389.25" y1="171.992" y2="185.39" stroke="#5A6D83" stroke-linecap="round" stroke-linejoin="round" stroke-width="2"/>
      <line x1="366.045" x2="386.829" y1="185.796" y2="197.796" stroke="#B1BBC9" stroke-linecap="round" stroke-linejoin="round"/>
      <line x1="366.045" x2="379.577" y1="178.879" y2="186.691" stroke="#B1BBC9" stroke-linecap="round" stroke-linejoin="round"/>
      <line x1="384.464" x2="389.25" y1="189.513" y2="192.276" stroke="#B1BBC9" stroke-linecap="round" stroke-linejoin="round"/>
      <line x1="366.045" x2="383.819" y1="145.755" y2="156.017" stroke="#5A6D83" stroke-linecap="round" stroke-linejoin="round" stroke-width="2"/>
      <line x1="366.045" x2="392.805" y1="159.559" y2="175.009" stroke="#B1BBC9" stroke-linecap="round" stroke-linejoin="round"/>
      <line x1="366.045" x2="386.829" y1="152.641" y2="164.641" stroke="#B1BBC9" stroke-linecap="round" stroke-linejoin="round"/>
      <line x1="391.115" x2="399.226" y1="167.116" y2="171.799" stroke="#B1BBC9" stroke-linecap="round" stroke-linejoin="round"/>
      <path stroke="#4D72EF" stroke-linecap="round" stroke-linejoin="round" d="M416.751,209.785 C416.751,209.785 419.488,202.574 423.95,205.151 C428.608,207.84 428.801,234.19 435.442,235.2 C442.082,236.211 444.731,217.149 454.946,223.046"/>
      <path stroke="#4D72EF" stroke-linecap="round" stroke-linejoin="round" d="M415.553,220.979 C415.553,220.979 415.953,221.21 416.544,221.552 C419.574,223.301 423.307,223.301 426.337,221.552 C427.127,221.095 427.955,220.617 428.771,220.146 C432.176,218.18 436.53,219.347 438.496,222.752 C440.132,225.585 441.972,228.772 443.176,230.859 C444.038,232.351 445.277,233.59 446.768,234.451 C448.622,235.521 450.934,236.856 450.934,236.856"/>
      <path fill="#FFF" d="M423.204,203.107 C424.2,203.681 425.008,205.081 425.008,206.23 C425.008,207.379 424.2,207.846 423.204,207.271 C422.209,206.697 421.401,205.297 421.401,204.148 C421.401,202.999 422.209,202.532 423.204,203.107 Z"/>
      <path stroke="#4D72EF" stroke-linecap="round" stroke-linejoin="round" d="M423.204,203.107 C424.2,203.681 425.008,205.081 425.008,206.23 C425.008,207.379 424.2,207.846 423.204,207.271 C422.209,206.697 421.401,205.297 421.401,204.148 C421.401,202.999 422.209,202.532 423.204,203.107 Z"/>
      <path fill="#FFF" d="M434.899,232.343 C435.894,232.918 436.703,234.318 436.703,235.467 C436.703,236.616 435.894,237.083 434.899,236.508 C433.904,235.933 433.096,234.534 433.096,233.385 C433.096,232.235 433.904,231.769 434.899,232.343 Z"/>
      <path stroke="#4D72EF" stroke-linecap="round" stroke-linejoin="round" d="M434.899,232.343 C435.894,232.918 436.703,234.318 436.703,235.467 C436.703,236.616 435.894,237.083 434.899,236.508 C433.904,235.933 433.096,234.534 433.096,233.385 C433.096,232.235 433.904,231.769 434.899,232.343 Z"/>
      <path fill="#FFF" d="M451.287,220.18 C452.282,220.754 453.09,222.154 453.09,223.303 C453.09,224.453 452.282,224.919 451.287,224.344 C450.292,223.77 449.483,222.37 449.483,221.221 C449.483,220.072 450.292,219.605 451.287,220.18 Z"/>
      <path stroke="#4D72EF" stroke-linecap="round" stroke-linejoin="round" d="M451.287,220.18 C452.282,220.754 453.09,222.154 453.09,223.303 C453.09,224.453 452.282,224.919 451.287,224.344 C450.292,223.77 449.483,222.37 449.483,221.221 C449.483,220.072 450.292,219.605 451.287,220.18 Z"/>
      <path stroke="#000" stroke-linecap="round" stroke-linejoin="round" d="M392.305,220.888 L392.305,253.531 C392.305,255.983 390.997,258.248 388.873,259.474 C379.573,264.844 353.914,279.658 343.971,285.3985 C341.498,286.8265 338.444,286.7967 335.999,285.3207 C329.259,281.252 315.689,273.06 309.444,269.29 C307.42,268.068 304.891,268.043 302.843,269.225 C291.616,275.708 255.242,296.7077 245.907,302.0976 C244.553,302.8792 242.878,302.8496 241.553,302.0207 C238.028,299.8158 231.021,295.4332 227.043,292.9448 C225.215,291.8013 224.104,289.7971 224.104,287.6408 C224.104,282.959 224.104,274.614 224.104,269.509 C224.104,266.834 222.593,264.388 220.2,263.191 C218.416,262.299 216.694,261.438 216.694,261.438"/>
      <path stroke="#01050C" stroke-linecap="round" stroke-linejoin="round" d="M121.489,125.818 C120.541,126.365 119.957,127.377 119.957,128.471 C119.957,129.565 120.541,130.577 121.489,131.124 C135.197,139.038 175.486,162.299 185.75,168.225 C187.236,169.083 189.066,169.083 190.552,168.225 C200.816,162.299 241.105,139.038 254.813,131.124 C255.761,130.577 256.345,129.565 256.345,128.471 C256.345,127.377 255.761,126.365 254.813,125.818"/>
      <path fill="#FFF" d="M154.016,252.808 L82.584,294.049 C77.432,297.0233 73.25,294.6085 73.25,288.66 C73.25,282.711 77.432,275.467 82.584,272.493 L154.016,231.247"/>
      <g transform="translate(73 230.389)">
        <mask id="reports-v2@1x-s" fill="#fff">
          <use xlink:href="#reports-v2@1x-r"/>
        </mask>
        <path fill="#D1D9E0" d="M81.528,19.911 L10.832,60.7269 C6.213,63.3936 2.463,61.7507 2.463,57.0604 C2.463,52.37 6.213,46.397 10.832,43.73 L81.528,2.911" mask="url(#reports-v2@1x-s)"/>
        <path stroke="#01050C" stroke-linecap="round" stroke-linejoin="round" d="M81.528,19.911 L10.832,60.7269 C6.213,63.3936 2.463,61.7507 2.463,57.0604 C2.463,52.37 6.213,46.397 10.832,43.73 L81.528,2.911" mask="url(#reports-v2@1x-s)"/>
      </g>
      <path stroke="#01050C" stroke-linecap="round" stroke-linejoin="round" d="M154.016,252.808 L82.584,294.049 C77.432,297.0233 73.25,294.6085 73.25,288.66 C73.25,282.711 77.432,275.467 82.584,272.493 L154.016,231.247"/>
      <path fill="#FFF" d="M82.584,275.006 C86.534,272.726 89.741,274.577 89.741,279.139 C89.741,283.7001 86.534,289.255 82.584,291.5357 C78.634,293.8164 75.426,291.9647 75.426,287.4033 C75.426,282.842 78.634,277.287 82.584,275.006 Z"/>
      <path stroke="#01050C" stroke-linecap="round" stroke-linejoin="round" d="M82.584,275.006 C86.534,272.726 89.741,274.577 89.741,279.139 C89.741,283.7001 86.534,289.255 82.584,291.5357 C78.634,293.8164 75.426,291.9647 75.426,287.4033 C75.426,282.842 78.634,277.287 82.584,275.006 Z"/>
      <path fill="#5A6D83" d="M82.584,281.006 C83.666,280.381 84.545,280.889 84.545,282.139 C84.545,283.389 83.666,284.9107 82.584,285.5357 C81.501,286.1606 80.623,285.6533 80.623,284.4033 C80.623,283.153 81.501,281.631 82.584,281.006 Z"/>
      <path stroke="#01050C" stroke-linecap="round" stroke-linejoin="round" d="M82.584,281.006 C83.666,280.381 84.545,280.889 84.545,282.139 C84.545,283.389 83.666,284.9107 82.584,285.5357 C81.501,286.1606 80.623,285.6533 80.623,284.4033 C80.623,283.153 81.501,281.631 82.584,281.006 Z"/>
      <path fill="#FFF" d="M118.914,254.031 C122.864,251.75 126.071,253.602 126.071,258.163 C126.071,262.725 122.864,268.28 118.914,270.56 C114.964,272.841 111.757,270.99 111.757,266.428 C111.757,261.867 114.964,256.312 118.914,254.031 Z"/>
      <path stroke="#01050C" stroke-linecap="round" stroke-linejoin="round" d="M118.914,254.031 C122.864,251.75 126.071,253.602 126.071,258.163 C126.071,262.725 122.864,268.28 118.914,270.56 C114.964,272.841 111.757,270.99 111.757,266.428 C111.757,261.867 114.964,256.312 118.914,254.031 Z"/>
      <path fill="#5A6D83" d="M119.401,259.998 C120.484,259.373 121.363,259.881 121.363,261.131 C121.363,262.381 120.484,263.903 119.401,264.528 C118.319,265.153 117.44,264.645 117.44,263.395 C117.44,262.145 118.319,260.623 119.401,259.998 Z"/>
      <path stroke="#01050C" stroke-linecap="round" stroke-linejoin="round" d="M119.401,259.998 C120.484,259.373 121.363,259.881 121.363,261.131 C121.363,262.381 120.484,263.903 119.401,264.528 C118.319,265.153 117.44,264.645 117.44,263.395 C117.44,262.145 118.319,260.623 119.401,259.998 Z"/>
      <g transform="translate(139 219.389)">
        <mask id="reports-v2@1x-u" fill="#fff">
          <use xlink:href="#reports-v2@1x-t"/>
        </mask>
        <path fill="#FFF" d="M12.444,15.861 C16.395,13.58 19.602,15.432 19.602,19.993 C19.602,24.554 16.395,30.109 12.444,32.39 C8.494,34.671 5.287,32.819 5.287,28.258 C5.287,23.696 8.494,18.141 12.444,15.861 Z" mask="url(#reports-v2@1x-u)"/>
        <path stroke="#01050C" stroke-linecap="round" stroke-linejoin="round" d="M12.444,15.861 C16.395,13.58 19.602,15.432 19.602,19.993 C19.602,24.554 16.395,30.109 12.444,32.39 C8.494,34.671 5.287,32.819 5.287,28.258 C5.287,23.696 8.494,18.141 12.444,15.861 Z" mask="url(#reports-v2@1x-u)"/>
      </g>
      <path fill="#5A6D83" d="M151.269,241.599 C152.352,240.974 153.231,241.482 153.231,242.732 C153.231,243.982 152.352,245.504 151.269,246.129 C150.187,246.754 149.308,246.246 149.308,244.996 C149.308,243.746 150.187,242.224 151.269,241.599 Z"/>
      <path stroke="#01050C" stroke-linecap="round" stroke-linejoin="round" d="M151.269,241.599 C152.352,240.974 153.231,241.482 153.231,242.732 C153.231,243.982 152.352,245.504 151.269,246.129 C150.187,246.754 149.308,246.246 149.308,244.996 C149.308,243.746 150.187,242.224 151.269,241.599 Z"/>
      <line x1="93.651" x2="107.328" y1="277.28" y2="269.382" stroke="#B1BBC9" stroke-linecap="round" stroke-linejoin="round" stroke-width="2"/>
      <line x1="129.613" x2="139.944" y1="256.44" y2="250.475" stroke="#B1BBC9" stroke-linecap="round" stroke-linejoin="round" stroke-width="2"/>
      <path fill="#FFF" d="M356.984,245.944 L350.279,226.986 C349.092,225.398 348.605,223.395 348.931,221.44 C349.521,217.899 350.511,211.954 351.294,207.258 C351.998,203.033 355.253,199.69 359.458,198.875 C367.899,197.24 380.973,194.706 380.973,194.706 C380.973,194.706 389.06,190.038 392.024,188.326 C392.737,187.914 393.393,187.412 393.975,186.832 C396.623,184.193 404.352,176.493 404.352,176.493 C404.514,176.295 404.695,176.114 404.894,175.952 L405.029,175.818 L405.044,175.836 C405.674,175.372 406.452,175.099 407.294,175.099 C409.393,175.099 411.098,176.803 411.098,178.902 C411.098,180.006 410.627,181 409.875,181.695 L409.892,181.715 C409.892,181.715 401.663,191.282 398.578,194.869 C397.815,195.756 396.929,196.528 395.946,197.162 C393.355,198.834 387.987,202.298 384.942,204.263 C383.536,205.17 382.648,206.693 382.551,208.364 C382.18,214.749 381.252,230.719 381.024,234.633 C380.99,235.216 381,235.801 381.052,236.383 C381.488,241.192 383.571,264.206 383.571,264.206 L384.6,291.9011 C384.603,291.958 384.605,292.015 384.606,292.0721 L384.607,292.0777 C384.607,292.1171 384.608,292.1566 384.608,292.1963 C384.608,295.2516 382.127,297.7322 379.072,297.7322 C376.017,297.7322 373.536,295.2516 373.536,292.1963 C373.536,292.1306 373.537,292.0652 373.54,292.0001 L373.536,292 L372.313,265.706 L369.715,249.206 L367.983,290.9875 L367.983,291.01 C367.983,294.0653 365.502,296.5459 362.447,296.5459 C359.392,296.5459 356.911,294.0653 356.911,291.01 C356.911,290.9857 356.911,290.9615 356.912,290.9372 L356.907,290.9371 L356.915,290.8106 C356.918,290.7133 356.924,290.6166 356.932,290.5204 L358.457,265.706 L356.984,245.944 Z"/>
      <g transform="translate(348 174.389)">
        <mask id="reports-v2@1x-w" fill="#fff">
          <use xlink:href="#reports-v2@1x-v"/>
        </mask>
        <path fill="#EFF4F7" d="M31.101 65.774C31.101 65.774 33.013 91.966 33.334 96.354 33.364 96.766 33.36 97.181 33.322 97.593 33.022 100.833 31.65 115.6877 31.65 115.6877 31.65 115.6877 31.654 115.9924 31.66 116.4762 31.676 117.7965 30.989 119.0259 29.855 119.703 28.722 120.3801 27.313 120.4025 26.159 119.7618 26.157 119.7609 26.157 119.7605 26.157 119.7605L26.45 125.9833 40.899 122.9198 39.08 105.124C37.292 97.557 50.149 20.979 50.149 20.979 50.149 20.979 40.211 26.028 34.692 28.832 32.489 29.951 31.101 32.213 31.101 34.683 31.101 43.907 31.101 65.774 31.101 65.774zM19.658 71.273C19.658 71.273 17.888 94.244 17.757 95.94 17.752 96.005 17.748 96.071 17.744 96.137 17.672 97.575 16.83 114.1933 16.83 114.1933 16.83 114.1933 16.828 114.2191 16.823 114.2677 16.663 115.9967 15.659 117.5349 14.141 118.3783 12.623 119.2218 10.787 119.2617 9.234 118.4852 9.233 118.485 9.233 118.485 9.233 118.485L10.821 125.0479 23.451 123.1252 23.451 104.189C21.663 96.622 21.715 74.817 21.715 74.817L19.658 71.273z" mask="url(#reports-v2@1x-w)"/>
      </g>
      <path stroke="#01050C" stroke-linecap="round" stroke-linejoin="round" d="M356.984,245.944 L350.279,226.986 C349.092,225.398 348.605,223.395 348.931,221.44 C349.521,217.899 350.511,211.954 351.294,207.258 C351.998,203.033 355.253,199.69 359.458,198.875 C367.899,197.24 380.973,194.706 380.973,194.706 C380.973,194.706 389.06,190.038 392.024,188.326 C392.737,187.914 393.393,187.412 393.975,186.832 C396.623,184.193 404.352,176.493 404.352,176.493 C404.514,176.295 404.695,176.114 404.894,175.952 L405.029,175.818 L405.044,175.836 C405.674,175.372 406.452,175.099 407.294,175.099 C409.393,175.099 411.098,176.803 411.098,178.902 C411.098,180.006 410.627,181 409.875,181.695 L409.892,181.715 C409.892,181.715 401.663,191.282 398.578,194.869 C397.815,195.756 396.929,196.528 395.946,197.162 C393.355,198.834 387.987,202.298 384.942,204.263 C383.536,205.17 382.648,206.693 382.551,208.364 C382.18,214.749 381.252,230.719 381.024,234.633 C380.99,235.216 381,235.801 381.052,236.383 C381.488,241.192 383.571,264.206 383.571,264.206 L384.6,291.9011 C384.603,291.958 384.605,292.015 384.606,292.0721 L384.607,292.0777 C384.607,292.1171 384.608,292.1566 384.608,292.1963 C384.608,295.2516 382.127,297.7322 379.072,297.7322 C376.017,297.7322 373.536,295.2516 373.536,292.1963 C373.536,292.1306 373.537,292.0652 373.54,292.0001 L373.536,292 L372.313,265.706 L369.715,249.206 L367.983,290.9875 L367.983,291.01 C367.983,294.0653 365.502,296.5459 362.447,296.5459 C359.392,296.5459 356.911,294.0653 356.911,291.01 C356.911,290.9857 356.911,290.9615 356.912,290.9372 L356.907,290.9371 L356.915,290.8106 C356.918,290.7133 356.924,290.6166 356.932,290.5204 L358.457,265.706 L356.984,245.944 Z"/>
      <line x1="367.983" x2="369.715" y1="245.206" y2="249.206" stroke="#01050C" stroke-linecap="round" stroke-linejoin="round"/>
      <polyline stroke="#01050C" stroke-linecap="round" stroke-linejoin="round" points="354.98 212.079 355.929 214.64 356.984 245.944"/>
      <path fill="#FFF" d="M364.518,171.128 C370.484,171.128 375.327,175.971 375.327,181.937 C375.327,187.903 370.484,192.746 364.518,192.746 C358.552,192.746 353.709,187.903 353.709,181.937 C353.709,175.971 358.552,171.128 364.518,171.128 Z"/>
      <g transform="translate(353 170.389)">
        <mask id="reports-v2@1x-y" fill="#fff">
          <use xlink:href="#reports-v2@1x-x"/>
        </mask>
        <path fill="#EFF4F7" d="M18.83,3.118 C20.711,5.104 21.875,7.849 21.875,10.879 C21.875,16.933 17.23,21.847 11.507,21.847 C10.31,21.847 9.161,21.632 8.09,21.237 C14.461,19.875 19.263,13.915 19.263,6.777 C19.263,5.514 19.113,4.288 18.83,3.118 Z" mask="url(#reports-v2@1x-y)"/>
      </g>
      <path stroke="#01050C" stroke-linecap="round" stroke-linejoin="round" d="M364.518,171.128 C370.484,171.128 375.327,175.971 375.327,181.937 C375.327,187.903 370.484,192.746 364.518,192.746 C358.552,192.746 353.709,187.903 353.709,181.937 C353.709,175.971 358.552,171.128 364.518,171.128 Z"/>
      <path fill="#3F6C9F" fill-opacity=".12" d="M22.1503,331.4138 C10.7977,331.0452 1.1916,334.6378 0.7121,339.4313 C0.2326,344.2249 9.0603,348.4159 20.4129,348.7845 C31.7655,349.153 41.3716,345.5605 41.8511,340.7669 C42.3305,335.9734 33.5029,331.7824 22.1503,331.4138 Z"/>
      <path fill="#FFF" d="M20.5489,218.366 C14.5831,218.366 9.7397,223.209 9.7397,229.175 C9.7397,235.141 14.5831,239.984 20.5489,239.984 C26.5146,239.984 31.358,235.141 31.358,229.175 C31.358,223.209 26.5146,218.366 20.5489,218.366 Z"/>
      <g transform="translate(9 217.389)">
        <mask id="reports-v2@1x-A" fill="#fff">
          <use xlink:href="#reports-v2@1x-z"/>
        </mask>
        <path fill="#EFF4F7" d="M3.8493,3.866 C1.9684,5.852 0.8041,8.597 0.8041,11.627 C0.8041,17.681 5.4497,22.595 11.1718,22.595 C12.3688,22.595 13.5187,22.38 14.5888,21.984 C8.2186,20.623 3.4161,14.663 3.4161,7.525 C3.4161,6.262 3.5665,5.036 3.8493,3.866 Z" mask="url(#reports-v2@1x-A)"/>
      </g>
      <path stroke="#01050C" stroke-linecap="round" stroke-linejoin="round" d="M20.5489,218.366 C14.5831,218.366 9.7397,223.209 9.7397,229.175 C9.7397,235.141 14.5831,239.984 20.5489,239.984 C26.5146,239.984 31.358,235.141 31.358,229.175 C31.358,223.209 26.5146,218.366 20.5489,218.366 Z"/>
      <path fill="#FFF" d="M64.901,238.425 C58.1155,235.786 51.2524,232.483 43.6962,229.447 L14.4912,257.709 L37.5751,268.003 L64.901,238.425 Z"/>
      <path stroke="#01050C" stroke-linecap="round" stroke-linejoin="round" d="M64.901,238.425 C58.1155,235.786 51.2524,232.483 43.6962,229.447 L14.4912,257.709 L37.5751,268.003 L64.901,238.425 Z"/>
      <line x1="50.154" x2="58.88" y1="236.436" y2="240.496" stroke="#5A6D83" stroke-linecap="round" stroke-linejoin="round"/>
      <line x1="43.187" x2="46.88" y1="233.195" y2="234.913" stroke="#5A6D83" stroke-linecap="round" stroke-linejoin="round"/>
      <path fill="#FFF" d="M37.6165,250.724 C39.223,252.294 38.6316,255.508 36.2968,257.896 C33.962,260.284 30.7623,260.948 29.1558,259.377 C27.5494,257.807 28.1407,254.593 30.4755,252.205 C32.8103,249.817 36.0101,249.153 37.6165,250.724 Z"/>
      <path stroke="#E01A33" stroke-linecap="round" stroke-linejoin="round" d="M37.6165,250.724 C39.223,252.294 38.6316,255.508 36.2968,257.896 C33.962,260.284 30.7623,260.948 29.1558,259.377 C27.5494,257.807 28.1407,254.593 30.4755,252.205 C32.8103,249.817 36.0101,249.153 37.6165,250.724 Z"/>
      <polyline stroke="#E01A33" stroke-linecap="round" stroke-linejoin="round" points="31.411 253.547 31.084 256.215 35.575 255.11"/>
      <path fill="#3F6C9F" fill-opacity=".1" d="M47.3812,257.388 C40.5956,254.749 33.7325,251.446 26.1762,248.41 L14.4912,257.709 L37.5751,268.003 L47.3812,257.388 Z"/>
      <path fill="#EFF4F7" d="M34.3575,246.496 C33.9947,246.303 33.7721,245.921 33.7826,245.51 C33.7932,245.099 34.035,244.729 34.4072,244.555 C37.5569,243.08 43.7174,240.196 47.0475,238.636 C47.4834,238.432 47.9969,238.489 48.3774,238.784 C48.7579,239.079 48.9415,239.562 48.8529,240.035 C48.2662,243.165 47.2679,248.492 46.7578,251.214 C46.6828,251.614 46.4219,251.955 46.0551,252.131 C45.6884,252.307 45.2595,252.299 44.9003,252.107 C42.329,250.739 37.1618,247.988 34.3575,246.496 Z"/>
      <path stroke="#01050C" stroke-linecap="round" stroke-linejoin="round" d="M34.3575,246.496 C33.9947,246.303 33.7721,245.921 33.7826,245.51 C33.7932,245.099 34.035,244.729 34.4072,244.555 C37.5569,243.08 43.7174,240.196 47.0475,238.636 C47.4834,238.432 47.9969,238.489 48.3774,238.784 C48.7579,239.079 48.9415,239.562 48.8529,240.035 C48.2662,243.165 47.2679,248.492 46.7578,251.214 C46.6828,251.614 46.4219,251.955 46.0551,252.131 C45.6884,252.307 45.2595,252.299 44.9003,252.107 C42.329,250.739 37.1618,247.988 34.3575,246.496 Z"/>
      <line x1="45.419" x2="42.784" y1="242.08" y2="244.74" stroke="#01050C" stroke-linecap="round" stroke-linejoin="round"/>
      <path fill="#000" d="M41.3911,245.7 C41.8611,245.684 42.0345,246.062 41.7779,246.545 C41.5214,247.027 40.9316,247.432 40.4616,247.448 C39.9916,247.465 39.8182,247.086 40.0747,246.604 C40.3312,246.122 40.9211,245.717 41.3911,245.7 Z"/>
      <path fill="#FFF" d="M42.6795,255.918 L35.7875,263.94 C35.6474,264.103 35.436,264.187 35.2223,264.163 C35.0086,264.14 34.8202,264.013 34.7186,263.823 C33.4256,261.413 29.6426,254.36 27.3597,250.104 C26.2049,247.951 24.2082,246.375 21.8463,245.75 C18.6025,244.893 13.7592,243.613 9.5289,242.494 C7.5282,241.965 5.3952,242.451 3.8205,243.794 C2.2457,245.136 1.4293,247.166 1.6353,249.225 C2.8317,261.183 4.7886,280.743 4.7886,280.743 L6.2441,312.6921 L4.7647,337.898 C4.7393,338.1126 4.7263,338.3308 4.7263,338.552 C4.7263,341.6073 7.2068,344.0879 10.2622,344.0879 C13.1397,344.0879 15.5074,341.8877 15.7732,339.0791 L15.7981,339.0803 L17.913,313.3204 L16.913,291.743 C16.913,291.743 20.8063,314.4135 20.8063,314.4135 L22.9751,339.243 L22.9903,339.2424 C23.2007,342.1062 25.5939,344.3674 28.511,344.3674 C31.5664,344.3674 34.0469,341.8869 34.0469,338.8315 C34.0469,338.6318 34.0363,338.4346 34.0156,338.2404 L32.6393,312.2931 L29.0373,282.743 L27.6763,268.003 C27.6763,268.003 29.4307,270.08 31.1382,272.101 C31.9495,273.062 33.1328,273.63 34.3897,273.662 C35.6466,273.694 36.8573,273.187 37.7167,272.269 L48.4551,260.8 C48.5593,260.701 48.6578,260.596 48.7501,260.485 L48.7555,260.479 L48.7552,260.479 C49.3047,259.82 49.6354,258.971 49.6354,258.047 C49.6354,255.947 47.931,254.243 45.8315,254.243 C44.5205,254.243 43.3635,254.908 42.6795,255.918 Z"/>
      <g transform="translate(1 241.389)">
        <mask id="reports-v2@1x-C" fill="#fff">
          <use xlink:href="#reports-v2@1x-B"/>
        </mask>
        <path fill="#EFF4F7" d="M17.0873 50.4018C17.0873 50.4018 19.363 60.1772 19.6404 61.3688 19.6587 61.4478 19.6761 61.527 19.6923 61.6065 19.9996 63.1081 23.1116 78.318 23.4158 79.8044 23.4317 79.8823 23.4464 79.9603 23.4598 80.0386 23.6995 81.4334 25.9934 94.786 25.9934 94.786 25.9934 94.786 25.9935 94.7864 25.9937 94.7873 26.2674 96.1661 27.2304 97.3075 28.5434 97.8095 29.8565 98.3116 31.3353 98.1038 32.4591 97.2593 32.6022 97.1518 32.6838 97.0905 32.6838 97.0905L33.5517 102.6774 17.4095 103.3976 15.9823 87.1876C17.1132 70.5744 14.0255 54.12 17.0873 50.4018zM9.4861 45.4849L9.665 58.0361C9.665 58.0361 9.5146 77.1485 9.5025 78.6859 9.502 78.7513 9.5006 78.8166 9.4984 78.8819 9.4521 80.2458 8.9377 95.3987 8.9377 95.3987 8.9377 95.3987 8.9338 95.7034 8.9277 96.1872 8.911 97.5075 9.5984 98.7369 10.7321 99.414 11.8657 100.0911 13.2741 100.1135 14.4287 99.4727 14.4302 99.4719 14.4309 99.4715 14.4309 99.4715L14.1374 105.6942-.3113 102.6307 1.5074 84.8354C3.2954 77.268-.3113-6.472-.3113-6.472L10.9951 2.493C10.9951 2.493 9.4381 4.09 8.0508 5.513 6.7062 6.891 6.0352 8.791 6.2155 10.709 7.0585 19.672 9.4861 45.4849 9.4861 45.4849z" mask="url(#reports-v2@1x-C)"/>
      </g>
      <path stroke="#01050C" stroke-linecap="round" stroke-linejoin="round" d="M42.6795,255.918 L35.7875,263.94 C35.6474,264.103 35.436,264.187 35.2223,264.163 C35.0086,264.14 34.8202,264.013 34.7186,263.823 C33.4256,261.413 29.6426,254.36 27.3597,250.104 C26.2049,247.951 24.2082,246.375 21.8463,245.75 C18.6025,244.893 13.7592,243.613 9.5289,242.494 C7.5282,241.965 5.3952,242.451 3.8205,243.794 C2.2457,245.136 1.4293,247.166 1.6353,249.225 C2.8317,261.183 4.7886,280.743 4.7886,280.743 L6.2441,312.6921 L4.7647,337.898 C4.7393,338.1126 4.7263,338.3308 4.7263,338.552 C4.7263,341.6073 7.2068,344.0879 10.2622,344.0879 C13.1397,344.0879 15.5074,341.8877 15.7732,339.0791 L15.7981,339.0803 L17.913,313.3204 L16.913,291.743 C16.913,291.743 20.8063,314.4135 20.8063,314.4135 L22.9751,339.243 L22.9903,339.2424 C23.2007,342.1062 25.5939,344.3674 28.511,344.3674 C31.5664,344.3674 34.0469,341.8869 34.0469,338.8315 C34.0469,338.6318 34.0363,338.4346 34.0156,338.2404 L32.6393,312.2931 L29.0373,282.743 L27.6763,268.003 C27.6763,268.003 29.4307,270.08 31.1382,272.101 C31.9495,273.062 33.1328,273.63 34.3897,273.662 C35.6466,273.694 36.8573,273.187 37.7167,272.269 L48.4551,260.8 C48.5593,260.701 48.6578,260.596 48.7501,260.485 L48.7555,260.479 L48.7552,260.479 C49.3047,259.82 49.6354,258.971 49.6354,258.047 C49.6354,255.947 47.931,254.243 45.8315,254.243 C44.5205,254.243 43.3635,254.908 42.6795,255.918 Z"/>
      <line x1="15.181" x2="16.913" y1="289.743" y2="291.743" stroke="#01050C" stroke-linecap="round" stroke-linejoin="round"/>
      <polyline stroke="#01050C" stroke-linecap="round" stroke-linejoin="round" points="28.173 268.797 23.94 262.19 21.491 259.646"/>
      <path fill="#E01A33" d="M433.829,155.269 C441.462,159.676 447.658,170.408 447.658,179.221 C447.658,188.034 441.462,191.612 433.829,187.205 C426.197,182.799 420,172.066 420,163.253 C420,154.44 426.197,150.863 433.829,155.269 Z"/>
      <g transform="translate(420 152.389)">
        <mask id="reports-v2@1x-E" fill="#fff">
          <use xlink:href="#reports-v2@1x-D"/>
        </mask>
        <polygon stroke="#FFF" stroke-linecap="round" stroke-linejoin="round" points="5.909 1.295 5.909 11.36 .714 15.514 9.061 24.107 14.538 34.78 18.703 29.504 26.715 31.314 21.477 20.661 22.282 11.328 14.116 10.324" mask="url(#reports-v2@1x-E)"/>
        <polyline stroke="#FFF" stroke-linecap="round" stroke-linejoin="round" points="14.116 10.324 14.116 19.778 18.703 29.504" mask="url(#reports-v2@1x-E)"/>
        <polyline stroke="#FFF" stroke-linecap="round" stroke-linejoin="round" points="21.477 20.661 14.116 20.681 9.528 25.11" mask="url(#reports-v2@1x-E)"/>
        <line x1="5.909" x2="14.116" y1="11.683" y2="19.824" stroke="#FFF" stroke-linecap="round" stroke-linejoin="round" mask="url(#reports-v2@1x-E)"/>
        <path fill="#FFF" d="M5.909-.496C6.765-.002 7.461 1.202 7.461 2.191 7.461 3.18 6.765 3.581 5.909 3.087 5.053 2.592 4.358 1.388 4.358.4 4.358-.589 5.053-.99 5.909-.496zM22.282 9.536C23.139 10.031 23.834 11.235 23.834 12.223 23.834 13.212 23.139 13.613 22.282 13.119 21.426 12.625 20.731 11.421 20.731 10.432 20.731 9.443 21.426 9.042 22.282 9.536zM26.715 29.523C27.571 30.017 28.266 31.221 28.266 32.21 28.266 33.198 27.571 33.6 26.715 33.105 25.858 32.611 25.163 31.407 25.163 30.419 25.163 29.43 25.858 29.029 26.715 29.523zM.714 13.723C1.57 14.218 2.265 15.422 2.265 16.41 2.265 17.399 1.57 17.8.714 17.306-.142 16.811-.837 15.607-.837 14.619-.837 13.63-.142 13.229.714 13.723zM14.116 32.463C14.972 32.958 15.667 34.162 15.667 35.15 15.667 36.139 14.972 36.54 14.116 36.046 13.26 35.552 12.564 34.348 12.564 33.359 12.564 32.37 13.26 31.969 14.116 32.463zM14.116 17.987C14.972 18.481 15.667 19.685 15.667 20.673 15.667 21.662 14.972 22.063 14.116 21.569 13.26 21.075 12.564 19.871 12.564 18.882 12.564 17.894 13.26 17.492 14.116 17.987z" mask="url(#reports-v2@1x-E)"/>
      </g>
      <path stroke="#FFF" stroke-linecap="round" stroke-linejoin="round" d="M433.829,155.269 C441.462,159.676 447.658,170.408 447.658,179.221 C447.658,188.034 441.462,191.612 433.829,187.205 C426.197,182.799 420,172.066 420,163.253 C420,154.44 426.197,150.863 433.829,155.269 Z"/>
      <polygon stroke="#FFF" stroke-linecap="round" stroke-linejoin="round" points="433.884 162.086 441.987 173.563 438.892 182.776 428.876 176.993 425.781 164.206"/>
      <path fill="#FFF" d="M434.094 160.764C434.95 161.258 435.645 162.462 435.645 163.451 435.645 164.439 434.95 164.841 434.094 164.346 433.238 163.852 432.543 162.648 432.543 161.659 432.543 160.671 433.238 160.27 434.094 160.764zM429.012 174.741C429.868 175.235 430.563 176.439 430.563 177.428 430.563 178.416 429.868 178.817 429.012 178.323 428.156 177.829 427.461 176.625 427.461 175.636 427.461 174.648 428.156 174.246 429.012 174.741zM438.628 180.175C437.772 179.681 437.077 180.082 437.077 181.071 437.077 182.059 437.772 183.263 438.628 183.758 439.484 184.252 440.179 183.851 440.179 182.862 440.179 181.873 439.484 180.669 438.628 180.175zM425.909 162.281C426.765 162.775 427.461 163.979 427.461 164.968 427.461 165.957 426.765 166.358 425.909 165.864 425.053 165.369 424.358 164.165 424.358 163.177 424.358 162.188 425.053 161.787 425.909 162.281zM441.731 171.298C440.875 170.804 440.179 171.205 440.179 172.194 440.179 173.182 440.875 174.386 441.731 174.881 442.587 175.375 443.282 174.974 443.282 173.985 443.282 172.996 442.587 171.792 441.731 171.298z"/>
      <line x1="416.238" x2="449.081" y1="186.53" y2="205.492" stroke="#5A6D83" stroke-linecap="round" stroke-linejoin="round"/>
      <line x1="416.238" x2="436.338" y1="193.409" y2="205.193" stroke="#B1BBC9" stroke-linecap="round" stroke-linejoin="round"/>
    </g>
  </g>
</svg>
