<svg xmlns="http://www.w3.org/2000/svg" width="137" height="53" viewBox="0 0 137 53">
  <g fill="none" fill-rule="evenodd">
    <path fill="#1A1919" d="M129.225 13.2705C132.347 13.2705 134.239 14.0732 135.928 15.4195L134.121 18.0276C132.574 16.9672 131.056 16.3655 129.623 16.3655 128.307 16.3655 127.56 16.8811 127.56 17.7122 127.56 18.6293 128.393 19.0012 130.284 19.3455 133.293 19.8611 136.472 20.5493 136.472 24.0166 136.472 27.7132 133.265 29.1744 129.74 29.1744 126.387 29.1744 124.15 28.1431 122.603 26.8249L124.438 24.2459C125.814 25.4493 127.877 26.2232 129.74 26.2232 131.174 26.2232 132.176 25.7356 132.176 24.7331 132.176 23.6723 131.373 23.2715 129.282 22.8988 126.387 22.3832 123.293 21.6954 123.293 18.1133 123.293 15.0472 125.814 13.2705 129.225 13.2705zM54.2568 13.2705C58.4426 13.2705 60.16 15.3334 60.16 19.2594L60.16 25.1343C60.16 26.9682 60.2737 28.0855 60.5904 28.8593L56.0066 28.8593C55.8036 28.2292 55.6615 27.4834 55.6615 26.6243 54.2568 28.2 52.5962 29.0887 50.3308 29.0887 47.98 29.0887 45.9744 27.5695 45.9744 24.9621 45.9744 21.4376 48.9544 19.4888 55.6615 18.9444L55.6615 18.5717C55.6615 17.4544 55.0891 16.7378 53.5991 16.7378 51.6503 16.7378 49.9897 17.5404 48.585 18.6293L46.6362 15.9928C48.1546 14.6172 50.4444 13.2705 54.2568 13.2705zM89.4205 13.2705C93.6023 13.2705 95.3237 15.3334 95.3237 19.2594L95.3237 25.1343C95.3237 26.9682 95.4374 28.0855 95.7541 28.8593L91.1663 28.8593C90.9674 28.2292 90.8253 27.4834 90.8253 26.6243 89.4205 28.2 87.7559 29.0887 85.4945 29.0887 83.1437 29.0887 81.1381 27.5695 81.1381 24.9621 81.1381 21.4376 84.1181 19.4888 90.8253 18.9444L90.8253 18.5717C90.8253 17.4544 90.2487 16.7378 88.7587 16.7378 86.8099 16.7378 85.1494 17.5404 83.7446 18.6293L81.7958 15.9928C83.3142 14.6172 85.6082 13.2705 89.4205 13.2705zM121.629 7.6539L121.629 25.1343C121.629 26.9682 121.742 28.0855 122.087 28.8593L117.361 28.8593C117.158 28.4866 117.016 27.3405 117.016 26.5671 116.014 27.9422 114.58 29.0887 112.315 29.0887 108.848 29.0887 106.44 26.6243 106.44 21.3516 106.44 19.8043 106.65 18.4692 107.035 17.355 106.773 17.3258 106.176 17.2822 105.924 17.2822 104.093 17.2822 102.717 18.2566 101.856 19.3743L101.856 28.8593 97.2441 28.8593 97.2441 13.5856 101.856 13.5856 101.856 16.1361 101.885 16.1361C102.717 14.8466 104.179 13.2705 107.045 13.2705L107.187 13.2705 107.133 17.084C108.095 14.5781 109.986 13.2705 112.372 13.2705 114.438 13.2705 115.928 14.0151 117.016 15.5056L117.016 7.6539 121.629 7.6539zM64.7478 13.5856L66.0633 19.0593C66.4652 20.6638 66.7251 21.7527 67.0661 23.7299L67.1229 23.7299C67.4965 21.7239 67.7563 20.6066 68.1867 18.9444L69.5021 13.5856 73.0871 13.5856 74.4878 19.0305C74.9466 20.635 75.178 21.7527 75.5799 23.7299L75.6368 23.7299C76.0062 21.7815 76.2661 20.6638 76.6964 19.0877L78.1012 13.5856 82.1977 13.5856 77.7277 28.8593 73.4566 28.8593 71.1667 19.5461 71.1099 19.5461 68.816 28.8593 64.5733 28.8593 60.1032 13.5856 64.7478 13.5856zM113.979 17.0817C112.059 17.0817 111.056 18.5437 111.056 21.3227 111.056 23.8732 111.974 25.6211 114.036 25.6211 115.21 25.6211 116.269 24.9045 117.016 24.131L117.016 18.4856C116.014 17.5404 115.181 17.0817 113.979 17.0817zM90.8253 21.4661C87.1834 21.8388 85.6366 22.7559 85.6366 24.1599 85.6366 25.1343 86.3227 25.6211 87.3296 25.6211 88.9333 25.6211 90.0498 25.0766 90.8253 24.3032L90.8253 21.4661zM55.6615 21.4661C52.0238 21.8388 50.4769 22.7559 50.4769 24.1599 50.4769 25.1343 51.1631 25.6211 52.1659 25.6211 53.7696 25.6211 54.8901 25.0766 55.6615 24.3032L55.6615 21.4661zM66.7291.5891C69.9812.5891 71.8853 3.0381 71.8853 6.7355 71.8853 10.433 69.9812 12.8816 66.7291 12.8816 63.4811 12.8816 61.5607 10.433 61.5607 6.7355 61.5607 3.0381 63.4811.5891 66.7291.5891zM57.0947.5891C59.7825.5891 61.305 1.9338 61.305 4.1103 61.305 5.3109 61.1263 6.4794 58.8527 7.9198 57.318 8.8963 56.1487 9.6486 56.0838 10.1926L61.3821 10.1926 61.3821 12.6575 52.243 12.6575 52.243 12.4013C52.243 10.6888 52.4826 8.9921 55.6047 6.9917 57.4764 5.7908 58.199 5.4867 58.199 4.3349 58.199 3.6463 57.7484 3.246 56.9973 3.246 56.2137 3.246 55.219 3.8383 54.5329 4.7989L52.308 3.166C53.4123 1.6459 54.8374.5891 57.0947.5891zM66.7291 3.1339C65.3853 3.1339 64.7438 4.2865 64.7438 6.7355 64.7438 9.1841 65.434 10.4005 66.7291 10.4005 68.0608 10.4005 68.6982 9.1841 68.6982 6.7355 68.6982 4.2865 68.0283 3.1339 66.7291 3.1339zM15.7383 45.1383C17.5396 45.1383 19.5358 46.1016 19.5358 49.0193 19.5358 51.9091 17.5396 52.8864 15.7383 52.8864 14.3272 52.8864 12.7876 52.2864 12.1873 50.6364L12.1926 50.6248C11.7181 51.7835 10.7966 52.8864 8.8281 52.8864 7.0832 52.8864 5.1707 51.9091 5.1707 49.0193 5.1707 46.0457 7.2785 45.1383 8.9257 45.1383 10.9503 45.1383 11.7321 46.2132 12.1646 47.4139L10.2801 48.0421C9.9868 47.0928 9.5543 46.7856 8.8981 46.7856 7.9907 46.7856 7.4181 47.5535 7.4181 49.0333 7.4181 50.3595 7.837 51.3089 8.8701 51.3089 9.4703 51.3089 10.0148 50.9877 10.3361 49.9826L12.1822 50.6222C12.0195 50.1695 11.9273 49.6383 11.9273 49.0193 11.9273 46.1016 13.9239 45.1383 15.7383 45.1383zM47.4704 45.1383C49.006 45.1383 50.8909 45.9061 50.8909 49.2845L50.8909 49.6196 45.9624 49.6196C46.0744 50.8481 46.7582 51.3228 47.6937 51.3228 48.5731 51.3228 49.3969 50.8901 49.8994 50.4293L50.7649 51.7695C49.8994 52.5095 48.8243 52.8864 47.526 52.8864 45.5855 52.8864 43.729 51.8952 43.729 49.0193 43.729 46.1295 45.9348 45.1383 47.4704 45.1383zM80.9473 42.402L80.9473 50.918C80.9473 51.8114 81.0029 52.3559 81.1706 52.7328L78.8672 52.7328C78.7695 52.5513 78.6995 51.9929 78.6995 51.616 78.211 52.2861 77.5128 52.8445 76.4101 52.8445 74.8284 52.8445 73.6995 51.7919 73.5622 49.5491L73.5621 49.6196 68.634 49.6196C68.7457 50.8481 69.4298 51.3228 70.3653 51.3228 71.2447 51.3228 72.0686 50.8901 72.5707 50.4293L73.4365 51.7695C72.5707 52.5095 71.496 52.8864 70.1976 52.8864 68.2571 52.8864 66.4006 51.8952 66.4006 49.0193 66.4006 46.1295 68.606 45.1383 70.1416 45.1383 71.6109 45.1383 73.3999 45.8412 73.5518 48.8609L73.5481 49.0752C73.5481 46.5064 74.7349 45.1383 76.4381 45.1383 77.4428 45.1383 78.169 45.5013 78.6995 46.2272L78.6995 42.402 80.9473 42.402zM65.9957 42.402L65.9957 50.918C65.9957 51.8114 66.0518 52.3559 66.219 52.7328L63.916 52.7328C63.818 52.5513 63.7479 51.9929 63.7479 51.616 63.2598 52.2861 62.5616 52.8445 61.4585 52.8445 59.7697 52.8445 58.597 51.6439 58.597 49.0752 58.597 46.5064 59.7833 45.1383 61.4865 45.1383 62.4916 45.1383 63.2174 45.5013 63.7479 46.2272L63.7479 42.402 65.9957 42.402zM25.2453 35.0533C26.3484 35.0533 27.1858 35.3604 27.7443 35.8631 28.2469 35.4303 29.0427 35.1371 29.6568 35.0952L29.6568 36.8123C29.3916 36.8123 28.9311 36.8403 28.4005 36.9799 28.4841 37.1753 28.5402 37.4266 28.5402 37.7198 28.5402 39.2275 27.3814 40.3723 25.2453 40.3723 24.8268 40.3723 24.4359 40.3164 24.1006 40.2466 23.9469 40.3723 23.8493 40.484 23.8493 40.6236 23.8493 40.9028 24.1426 40.9586 24.6871 40.9865L25.8038 41.0564C28.3585 41.154 29.3916 41.7684 29.3916 43.1644 29.3916 44.5354 27.9563 45.2721 25.8901 45.4143 26.299 45.6438 26.5373 46.0075 26.6557 46.4645 27.1022 45.8921 27.94 45.1383 29.1127 45.1383 30.6203 45.1383 31.2905 46.0876 31.2905 47.4139L31.2905 52.7328 29.0427 52.7328 29.0427 48.0142C29.0427 47.3441 28.889 46.9951 28.2333 46.9951 27.6747 46.9951 27.2278 47.3022 26.7393 47.735L26.7393 52.7328 24.4915 52.7328 24.4915 48.0142C24.4915 47.3441 24.3382 46.9951 23.6821 46.9951 23.1235 46.9951 22.677 47.3022 22.174 47.735L22.174 52.7328 19.9267 52.7328 19.9267 45.2918 22.174 45.2918 22.174 46.4645C22.4697 46.0766 22.9304 45.6214 23.5479 45.3578 21.8611 45.1594 21.2666 44.5931 21.2666 43.7647 21.2666 43.0387 21.8668 42.5501 22.5509 42.2709 22.2301 42.0615 22.0484 41.7684 22.0484 41.3774 22.0484 40.7632 22.5369 40.2327 23.1235 39.8557 22.3137 39.3811 21.8948 38.6132 21.8948 37.7198 21.8948 36.226 23.0955 35.0533 25.2453 35.0533zM56.1115 45.1383C57.3682 45.1383 58.2757 45.7665 58.2757 47.3022L58.2757 52.7328 56.0419 52.7328 56.0419 48.0142C56.0419 47.3441 55.7906 46.9951 55.1624 46.9951 54.5619 46.9951 54.0458 47.3022 53.5428 47.735L53.5428 52.7328 51.2954 52.7328 51.2954 45.2918 53.5428 45.2918 53.5428 46.4645C53.9897 45.8782 54.8136 45.1383 56.1115 45.1383zM42.277 35.2068L43.9102 40.0372 43.9382 40.0372 45.5855 35.2068 47.7633 35.2068 44.636 43.4296C44.1976 44.5501 43.6212 45.2881 42.4893 45.4582 43.1079 45.8415 43.3941 46.5472 43.3941 47.4139L43.3941 52.7328 41.1463 52.7328 41.1463 48.0142C41.1463 47.3441 40.9927 46.9951 40.3365 46.9951 39.7784 46.9951 39.3314 47.3022 38.8429 47.735L38.8429 52.7328 36.5951 52.7328 36.5951 48.0142C36.5951 47.3441 36.4414 46.9951 35.7857 46.9951 35.2271 46.9951 34.7802 47.3022 34.2777 47.735L34.2777 52.7328 32.0303 52.7328 32.0303 45.2918 34.2777 45.2918 34.2777 46.4645C34.7246 45.8782 35.548 45.1383 36.7207 45.1383 37.9635 45.1383 38.5496 45.6549 38.7589 46.4645 39.0667 46.0702 39.5601 45.5898 40.2205 45.3291 40.069 45.2957 39.9424 45.2615 39.834 45.2306L40.3085 43.4994C40.5177 43.5553 41.0483 43.6949 41.7184 43.6949 42.207 43.6949 42.4863 43.5134 42.6679 43.0527L42.8076 42.6897 39.9596 35.2068 42.277 35.2068zM15.7383 46.7856C14.6637 46.7856 14.1751 47.6931 14.1751 49.0333 14.1751 50.2758 14.5936 51.3089 15.7383 51.3089 16.7994 51.3089 17.2879 50.3875 17.2879 49.0333 17.2879 47.7908 16.8554 46.7856 15.7383 46.7856zM62.2683 46.9951C61.3329 46.9951 60.8444 47.7071 60.8444 49.0612 60.8444 50.3037 61.2913 51.1553 62.2959 51.1553 62.8685 51.1553 63.385 50.8063 63.7479 50.4293L63.7479 47.6791C63.2598 47.2184 62.8545 46.9951 62.2683 46.9951zM77.2195 46.9951C76.2841 46.9951 75.796 47.7071 75.796 49.0612 75.796 50.3037 76.2425 51.1553 77.2479 51.1553 77.8201 51.1553 78.3366 50.8063 78.6995 50.4293L78.6995 47.6791C78.211 47.2184 77.8061 46.9951 77.2195 46.9951zM70.128 46.7438C69.4298 46.7438 68.8297 47.2045 68.662 48.2934L71.5516 48.2934C71.44 47.2463 70.9655 46.7438 70.128 46.7438zM47.4564 46.7438C46.7582 46.7438 46.158 47.2045 45.9904 48.2934L48.8804 48.2934C48.7687 47.2463 48.2938 46.7438 47.4564 46.7438zM23.7797 42.6897C23.5004 42.8712 23.3608 43.1085 23.3608 43.3598 23.3608 44.002 23.9609 44.3092 25.4825 44.3092 26.6276 44.3092 27.4235 44.0299 27.4235 43.5413 27.4235 43.0806 27.1998 42.8712 25.4409 42.7874L24.2682 42.7316 23.7797 42.6897zM13.519 32.3171L13.519 36.3795C13.9655 35.7932 14.7893 35.0533 16.0876 35.0533 17.358 35.0533 18.2654 35.6816 18.2654 37.2172L18.2654 42.6478 16.0176 42.6478 16.0176 37.9292C16.0176 37.2591 15.7663 36.9101 15.1522 36.9101 14.538 36.9101 14.0215 37.2172 13.519 37.65L13.519 42.6478 11.2711 42.6478 11.2711 32.3171 13.519 32.3171zM19.0748 42.6478L21.3085 42.6478 21.3085 35.2069 19.0748 35.2069 19.0748 42.6478zM32.1139 32.3171L32.1139 36.3795C32.5604 35.7932 33.3842 35.0533 34.6826 35.0533 35.9529 35.0533 36.8604 35.6816 36.8604 37.2172L36.8604 42.6478 34.6126 42.6478 34.6126 37.9292C34.6126 37.2591 34.3613 36.9101 33.7471 36.9101 33.133 36.9101 32.6164 37.2172 32.1139 37.65L32.1139 42.6478 29.8661 42.6478 29.8661 32.3171 32.1139 32.3171zM37.6702 42.6478L39.9039 42.6478 39.9039 32.3171 37.6702 32.3171 37.6702 42.6478zM25.2733 36.4773C24.4494 36.4773 24.0029 37.0497 24.0029 37.8035 24.0029 38.5574 24.4634 39.1298 25.2733 39.1298 26.0971 39.1298 26.5436 38.5574 26.5436 37.8035 26.5436 37.0497 26.1111 36.4773 25.2733 36.4773z"/>
    <path fill="#FFF" d="M12.6945,29.0319 C5.0008,29.0319 0.7621,25.6868 0.7621,20.5245 L0.7621,19.162 L7.4896,19.162 L7.4896,19.9874 C7.4896,22.7133 9.6089,23.9114 12.6011,23.9114 C15.5974,23.9114 16.8398,22.6309 16.8398,20.773 C16.8398,15.8994 1.2696,17.2619 1.2696,8.4241 C1.2696,3.7993 5.4149,0 12.5118,0 C19.6493,0 23.9367,3.5099 23.9367,8.3007 L23.9367,9.6636 L17.2092,9.6636 L17.2092,8.8374 C17.2092,6.6901 15.5974,5.1205 12.5118,5.1205 C9.885,5.1205 8.3665,6.3186 8.3665,8.1358 C8.3665,12.8024 24.026,11.4805 24.026,20.2765 C24.026,25.1079 20.1121,29.0319 12.6945,29.0319 Z"/>
    <path fill="#D8232A" d="M11.9324,29.0319 C4.2386,29.0319 0,25.6868 0,20.5245 L0,19.162 L6.7274,19.162 L6.7274,19.9874 C6.7274,22.7133 8.8468,23.9114 11.839,23.9114 C14.8353,23.9114 16.0776,22.6309 16.0776,20.773 C16.0776,15.8994 0.5075,17.2619 0.5075,8.4241 C0.5075,3.7993 4.6528,0 11.7497,0 C18.8871,0 23.1745,3.5099 23.1745,8.3007 L23.1745,9.6636 L16.4471,9.6636 L16.4471,8.8374 C16.4471,6.6901 14.8353,5.1205 11.7497,5.1205 C9.1228,5.1205 7.6044,6.3186 7.6044,8.1358 C7.6044,12.8024 23.2638,11.4805 23.2638,20.2765 C23.2638,25.1079 19.35,29.0319 11.9324,29.0319 Z M40.4471,10.6547 L40.4471,9.0441 C40.4471,6.5658 38.7906,5.2857 35.977,5.2857 C32.7087,5.2857 30.9589,6.9796 30.9589,9.7046 L30.9589,19.4511 C30.9589,22.0113 32.8468,23.7043 36.0257,23.7043 C38.8353,23.7043 40.3537,22.3414 40.3537,20.0706 L40.3537,18.294 L47.1745,18.294 L47.1745,20.4835 C47.1745,25.4802 42.7044,29.0319 35.839,29.0319 C28.0072,29.0319 23.4925,24.6536 23.4925,18.9549 L23.4925,10.0761 C23.4925,4.3775 28.194,0 35.839,0 C43.0739,0 47.2638,3.6341 47.2638,8.6308 L47.2638,10.6547 L40.4471,10.6547 Z"/>
    <path fill="#1A1919" d="M66.7291.5891C69.9812.5891 71.8853 3.0381 71.8853 6.7355 71.8853 10.433 69.9812 12.8816 66.7291 12.8816 63.4811 12.8816 61.5607 10.433 61.5607 6.7355 61.5607 3.0381 63.4811.5891 66.7291.5891zM57.0947.5891C59.7825.5891 61.305 1.9338 61.305 4.1103 61.305 5.3109 61.1263 6.4794 58.8527 7.9198 57.318 8.8963 56.1487 9.6486 56.0838 10.1926L61.3821 10.1926 61.3821 12.6575 52.243 12.6575 52.243 12.4013C52.243 10.6888 52.4826 8.9921 55.6047 6.9917 57.4764 5.7908 58.199 5.4867 58.199 4.3349 58.199 3.6463 57.7484 3.246 56.9973 3.246 56.2137 3.246 55.219 3.8383 54.5329 4.7989L52.308 3.166C53.4123 1.6459 54.8374.5891 57.0947.5891zM66.7291 3.1339C65.3853 3.1339 64.7438 4.2865 64.7438 6.7355 64.7438 9.1841 65.434 10.4005 66.7291 10.4005 68.0608 10.4005 68.6982 9.1841 68.6982 6.7355 68.6982 4.2865 68.0283 3.1339 66.7291 3.1339zM86.4861.5891C89.7382.5891 91.6423 3.0381 91.6423 6.7355 91.6423 10.433 89.7382 12.8816 86.4861 12.8816 83.2381 12.8816 81.3177 10.433 81.3177 6.7355 81.3177 3.0381 83.2381.5891 86.4861.5891zM76.8517.5891C79.5394.5891 81.0619 1.9338 81.0619 4.1103 81.0619 5.3109 80.8833 6.4794 78.6097 7.9198 77.075 8.8963 75.9057 9.6486 75.8408 10.1926L81.1391 10.1926 81.1391 12.6575 72 12.6575 72 12.4013C72 10.6888 72.2395 8.9921 75.3617 6.9917 77.2333 5.7908 77.956 5.4867 77.956 4.3349 77.956 3.6463 77.5054 3.246 76.7543 3.246 75.9707 3.246 74.976 3.8383 74.2898 4.7989L72.065 3.166C73.1693 1.6459 74.5943.5891 76.8517.5891zM86.4861 3.1339C85.1422 3.1339 84.5008 4.2865 84.5008 6.7355 84.5008 9.1841 85.191 10.4005 86.4861 10.4005 87.8178 10.4005 88.4552 9.1841 88.4552 6.7355 88.4552 4.2865 87.7853 3.1339 86.4861 3.1339z"/>
  </g>
</svg>
