<svg xmlns="http://www.w3.org/2000/svg" width="137" height="53" viewBox="0 0 137 53">
  <g fill="none" fill-rule="evenodd">
    <g fill="#1A1919" transform="translate(5)">
      <path d="M50.0557877,30.5483003 C51.55799,30.5483003 52.6095317,31.8795764 52.6095317,33.7841254 C52.6095317,35.6886744 51.55799,37.0203565 50.0557877,37.0203565 C48.5495253,37.0203565 47.4939236,35.6886744 47.4939236,33.7841254 C47.4939236,31.8795764 48.5495253,30.5483003 50.0557877,30.5483003 Z M23.0202049,30.6664465 L23.0202049,34.7617749 C23.0202049,35.8064146 23.5683058,36.6407459 24.8147278,36.6407459 C26.0449097,36.6407459 26.6011306,35.8401126 26.6011306,34.778827 L26.6011306,30.6664465 L27.0233713,30.6664465 L27.0233713,34.8372911 C27.0233713,36.0086029 26.2803901,37.0203565 24.8066078,37.0203565 C23.3409455,37.0203565 22.5979643,36.0260609 22.5979643,34.8628691 L22.5979643,30.6664465 L23.0202049,30.6664465 Z M76.5798096,30.6664465 L76.5798096,31.0537711 L73.3927046,31.0537711 L73.3927046,33.3959888 L75.7881083,33.3959888 L75.7881083,33.7841254 L73.3927046,33.7841254 L73.3927046,36.5144797 L76.7665699,36.5144797 L76.7665699,36.9022103 L72.9745239,36.9022103 L72.9745239,30.6664465 L76.5798096,30.6664465 Z M14.4779514,30.6664465 L14.4779514,31.0537711 L11.2908464,31.0537711 L11.2908464,33.3959888 L13.6862502,33.3959888 L13.6862502,33.7841254 L11.2908464,33.7841254 L11.2908464,36.5144797 L14.6647117,36.5144797 L14.6647117,36.9022103 L10.8726657,36.9022103 L10.8726657,30.6664465 L14.4779514,30.6664465 Z M37.536581,30.6664465 C38.9155577,30.6664465 39.6711048,31.2555534 39.6711048,32.284359 C39.6711048,33.2953006 39.0476752,33.7755994 38.1187239,33.9274436 L39.757807,36.9022103 L39.2582375,36.9022103 L37.6480552,33.9777877 L35.9016266,33.9777877 L35.9016266,36.9022103 L35.4722446,36.9022103 L35.4722446,30.6664465 L37.536581,30.6664465 Z M62.9055275,30.6664465 C64.3129786,30.6664465 65.084127,31.2555534 65.084127,32.284359 C65.084127,33.4467389 64.2202722,33.9863137 62.8381046,33.9863137 L61.2368129,33.9863137 L61.2368129,36.9022103 L60.7985647,36.9022103 L60.7985647,30.6664465 L62.9055275,30.6664465 Z M50.0557877,30.9275049 C48.8256057,30.9275049 47.9161643,31.9973166 47.9161643,33.7841254 C47.9161643,35.5701222 48.8256057,36.6407459 50.0557877,36.6407459 C51.2778496,36.6407459 52.191351,35.5701222 52.191351,33.7841254 C52.191351,31.9973166 51.2778496,30.9275049 50.0557877,30.9275049 Z M62.8633882,31.0537711 L61.2368129,31.0537711 L61.2368129,33.5985831 L62.871816,33.5985831 C63.9927203,33.5985831 64.6458787,33.2701286 64.6458787,32.3010051 C64.6458787,31.3907516 64.0011481,31.0537711 62.8633882,31.0537711 Z M37.4952943,31.0537711 L35.9016266,31.0537711 L35.9016266,33.5985831 L37.5035516,33.5985831 C38.6017786,33.5985831 39.2417229,33.2701286 39.2417229,32.3010051 C39.2417229,31.3907516 38.6100359,31.0537711 37.4952943,31.0537711 Z M84.2248017,13.270537 C87.3469466,13.270537 89.2389096,14.0732002 90.9278723,15.4194984 L89.1211694,18.0276465 C87.574307,16.9671728 86.0558646,16.3654799 84.6226823,16.3654799 C83.3072402,16.3654799 82.560199,16.8811007 82.560199,17.712184 C82.560199,18.6293394 83.3925004,19.001236 85.2844634,19.3455246 C88.2929281,19.8611454 91.4719131,20.5493165 91.4719131,24.016562 C91.4719131,27.7131978 88.2645081,29.1743941 84.7404225,29.1743941 C81.3868572,29.1743941 79.1497937,28.1431525 77.6029312,26.8248684 L79.4380541,24.2459523 C80.8143963,25.4493382 82.8768795,26.2231754 84.7404225,26.2231754 C86.1736048,26.2231754 87.1764263,25.7355687 87.1764263,24.7331531 C87.1764263,23.6722734 86.3725451,23.2715508 84.2816418,22.8988422 C81.3868572,22.3832214 78.2931323,21.6954563 78.2931323,18.1133126 C78.2931323,15.0471958 80.8143963,13.270537 84.2248017,13.270537 Z M9.25678319,13.270537 C13.4426498,13.270537 15.1600325,15.3334262 15.1600325,19.2594524 L15.1600325,25.1342817 C15.1600325,26.9681866 15.2737127,28.0855004 15.5903932,28.8593376 L11.006646,28.8593376 C10.8036456,28.2292246 10.6615454,27.4834014 10.6615454,26.6243041 C9.25678319,28.1999926 7.59624057,29.088728 5.33075698,29.088728 C2.98001327,29.088728 0.974370099,27.5694736 0.974370099,24.9621375 C0.974370099,21.4376459 3.95441481,19.4888428 10.6615454,18.9443959 L10.6615454,18.5716874 C10.6615454,17.4543736 10.0890845,16.7377825 8.59906215,16.7377825 C6.65025907,16.7377825 4.98971645,17.5404457 3.58495423,18.6293394 L1.63615115,15.9927713 C3.15459355,14.6172411 5.44443716,13.270537 9.25678319,13.270537 Z M44.4204988,13.270537 C48.6023054,13.270537 50.3237481,15.3334262 50.3237481,19.2594524 L50.3237481,25.1342817 C50.3237481,26.9681866 50.4374283,28.0855004 50.7541088,28.8593376 L46.1663015,28.8593376 C45.9673612,28.2292246 45.825261,27.4834014 45.825261,26.6243041 C44.4204988,28.1999926 42.7558961,29.088728 40.4944726,29.088728 C38.1437288,29.088728 36.1380857,27.5694736 36.1380857,24.9621375 C36.1380857,21.4376459 39.1181304,19.4888428 45.825261,18.9443959 L45.825261,18.5716874 C45.825261,17.4543736 45.2487401,16.7377825 43.7587177,16.7377825 C41.8099146,16.7377825 40.149372,17.5404457 38.7446098,18.6293394 L36.7958067,15.9927713 C38.3142491,14.6172411 40.6081527,13.270537 44.4204988,13.270537 Z M76.6285297,7.6539241 L76.6285297,25.1342817 C76.6285297,26.9681866 76.7422099,28.0855004 77.0873104,28.8593376 L72.3614629,28.8593376 C72.1584626,28.486629 72.0163624,27.3404892 72.0163624,26.567058 C71.0135408,27.9421822 69.5803585,29.088728 67.314875,29.088728 C63.8476295,29.088728 61.4400457,26.6243041 61.4400457,21.3515737 C61.4400457,19.804263 61.6498246,18.4691787 62.0346007,17.355011 C61.7729461,17.3257607 61.1757948,17.2822293 60.9244249,17.2822293 C59.093362,17.2822293 57.7170198,18.2566309 56.8562984,19.3743506 L56.8562984,28.8593376 L52.2441311,28.8593376 L52.2441311,13.5855935 L56.8562984,13.5855935 L56.8562984,16.1360895 L56.8847185,16.1360895 C57.7170198,14.8466315 59.1786221,13.270537 62.0449866,13.270537 L62.1870868,13.270537 L62.1332865,17.0840308 C63.0945145,14.5781204 64.9864187,13.270537 67.371715,13.270537 C69.4382583,13.270537 70.9282807,14.0151422 72.0163624,15.5055705 L72.0163624,7.6539241 L76.6285297,7.6539241 Z M19.7478398,13.5855935 L21.0632819,19.0592941 C21.4652225,20.6638087 21.7250629,21.7527024 22.0661034,23.7299255 L22.1229435,23.7299255 C22.4964641,21.7238763 22.7563045,20.6065626 23.1866652,18.9443959 L24.5021073,13.5855935 L28.087093,13.5855935 L29.4877952,19.0304681 C29.9465759,20.6349826 30.1779963,21.7527024 30.5799369,23.7299255 L30.636777,23.7299255 C31.0062376,21.7815284 31.266078,20.6638087 31.6964387,19.0877142 L33.1012009,13.5855935 L37.1977474,13.5855935 L32.7276803,28.8593376 L28.4565535,28.8593376 L26.1667099,19.5460889 L26.1098698,19.5460889 L23.8159662,28.8593376 L19.5732595,28.8593376 L15.1031924,13.5855935 L19.7478398,13.5855935 Z M68.9794776,17.081665 C67.0590945,17.081665 66.056273,18.5436733 66.056273,21.3227477 C66.056273,23.8732437 66.9738344,25.6210765 69.0363177,25.6210765 C70.2096595,25.6210765 71.2693212,24.9044854 72.0163624,24.1310541 L72.0163624,18.4856152 C71.0135408,17.5404457 70.1812395,17.081665 68.9794776,17.081665 Z M45.825261,21.4660659 C42.1834352,21.8387745 40.6365728,22.75593 40.6365728,24.1598802 C40.6365728,25.1342817 41.3227139,25.6210765 42.3295955,25.6210765 C43.933298,25.6210765 45.0497998,25.0766296 45.825261,24.3031984 L45.825261,21.4660659 Z M10.6615454,21.4660659 C7.02377966,21.8387745 5.47691722,22.75593 5.47691722,24.1598802 C5.47691722,25.1342817 6.1630583,25.6210765 7.16587989,25.6210765 C8.76958242,25.6210765 9.89014419,25.0766296 10.6615454,24.3031984 L10.6615454,21.4660659 Z M21.7291229,0.589106931 C24.981188,0.589106931 26.8853311,3.0381028 26.8853311,6.73555065 C26.8853311,10.4329985 24.981188,12.8815884 21.7291229,12.8815884 C18.4811178,12.8815884 16.5607347,10.4329985 16.5607347,6.73555065 C16.5607347,3.0381028 18.4811178,0.589106931 21.7291229,0.589106931 Z M38.2817691,0.589106931 C41.3389539,0.589106931 43.3730171,2.73400832 43.3730171,6.52727232 C43.3730171,11.4410981 40.3320723,12.8815884 37.9163685,12.8815884 C35.9472654,12.8815884 34.9525638,12.3533815 34.2339427,11.8572487 L35.5615648,9.79273548 C36.2680059,10.2409602 36.8567068,10.4488325 37.7539682,10.4488325 C39.0206902,10.4488325 40.0113318,9.53654907 40.2346322,7.67950214 C39.3698508,8.24018902 38.4766494,8.52804348 37.4494677,8.52804348 C35.5128447,8.52804348 33.5762216,7.59952001 33.5762216,4.75101951 C33.5762216,2.18996746 35.4966047,0.589106931 38.2817691,0.589106931 Z M12.0947277,0.589106931 C14.7824519,0.589106931 16.3049543,1.93378106 16.3049543,4.1103505 C16.3049543,5.31089439 16.126314,6.47936424 13.8527105,7.91985452 C12.318028,8.89628606 11.1487462,9.64860525 11.0837861,10.1926461 L16.3820945,10.1926461 L16.3820945,12.657476 L7.24302001,12.657476 L7.24302001,12.4012896 C7.24302001,10.6887789 7.48256039,8.99210221 10.6047053,6.99173705 C12.4763683,5.79078715 13.1990494,5.48669267 13.1990494,4.33486885 C13.1990494,3.64629176 12.7483887,3.24597513 11.9972875,3.24597513 C11.2137063,3.24597513 10.2190047,3.83833007 9.53286363,4.79892758 L7.30798011,3.165993 C8.41230186,1.6459266 9.83736411,0.589106931 12.0947277,0.589106931 Z M32.1673994,0.813219285 L32.1673994,10.1926461 L33.9781623,10.1926461 L33.9781623,12.657476 L26.9665312,12.657476 L26.9665312,10.1926461 L29.0614945,10.1926461 L29.0614945,3.64629176 C28.4849736,3.95038624 27.6851523,4.19073862 26.9990112,4.19073862 L26.9990112,1.5817785 C27.9084527,1.54970445 28.5986538,1.30975807 29.1264546,0.813219285 L32.1673994,0.813219285 Z M21.7291229,3.13391895 C20.3852608,3.13391895 19.7437798,4.28655478 19.7437798,6.73555065 C19.7437798,9.18414052 20.4339809,10.4005184 21.7291229,10.4005184 C23.060805,10.4005184 23.698226,9.18414052 23.698226,6.73555065 C23.698226,4.28655478 23.028325,3.13391895 21.7291229,3.13391895 Z M38.1559089,3.05393683 C37.0515871,3.05393683 36.5684464,3.85457009 36.5684464,4.60688928 C36.5684464,5.35920847 36.8404668,6.20734381 38.1396688,6.20734381 C39.0206902,6.20734381 39.7230713,5.95115741 40.2508722,5.55084077 C40.1859121,3.87040412 39.532251,3.05393683 38.1559089,3.05393683 Z" transform="translate(40)"/>
      <path d="M10.7383272,45.1383364 C12.5396316,45.1383364 14.5357518,46.1015928 14.5357518,49.0193323 C14.5357518,51.909144 12.5396316,52.8864068 10.7383272,52.8864068 C9.32721577,52.8864068 7.78763134,52.2863885 7.18730054,50.6363916 L7.19259291,50.6248021 C6.718074,51.7835535 5.7966245,52.8864068 3.82809256,52.8864068 C2.08323815,52.8864068 0.170731707,51.909144 0.170731707,49.0193323 C0.170731707,46.0457371 2.27847849,45.1383364 3.92571273,45.1383364 C5.95027015,45.1383364 6.73208038,46.2132194 7.16458017,47.4138625 L5.28008647,48.042112 C4.98680153,47.0927771 4.55430173,46.7856131 3.89812442,46.7856131 C2.99068129,46.7856131 2.41811777,47.5535018 2.41811777,49.0332963 C2.41811777,50.3595299 2.83703563,51.3088648 3.87011168,51.3088648 C4.4702635,51.3088648 5.01481427,50.9877369 5.33611196,49.9825887 L7.18217995,50.6222288 C7.01954377,50.1695489 6.92732071,49.6383137 6.92732071,49.0193323 C6.92732071,46.1015928 8.92386539,45.1383364 10.7383272,45.1383364 Z M42.4703998,45.1383364 C44.0060075,45.1383364 45.8909257,45.9061403 45.8909257,49.2845196 L45.8909257,49.6196115 L40.9623804,49.6196115 C41.0744314,50.8481401 41.758197,51.3227863 42.6936529,51.3227863 C43.5730833,51.3227863 44.3969127,50.8900743 44.8994443,50.4293496 L45.7648683,51.7695472 C44.8994443,52.5094656 43.8243491,52.8864068 42.5260009,52.8864068 C40.5854817,52.8864068 38.7290008,51.8951801 38.7290008,49.0193323 C38.7290008,46.1295207 40.9347921,45.1383364 42.4703998,45.1383364 Z M75.9473269,42.4020431 L75.9473269,50.9179597 C75.9473269,51.8114389 76.0029279,52.3559048 76.17058,52.7328036 L73.8671684,52.7328036 C73.7695482,52.5513149 73.6995164,51.9929276 73.6995164,51.6159864 C73.2109911,52.2861276 72.5127947,52.844515 71.4101112,52.844515 C69.8283768,52.844515 68.699519,51.7918841 68.5622259,49.549093 L68.5621489,49.6196115 L63.6340281,49.6196115 C63.7456546,50.8481401 64.4298447,51.3227863 65.3653005,51.3227863 C66.2447309,51.3227863 67.0685603,50.8900743 67.5706675,50.4293496 L68.4365159,51.7695472 C67.5706675,52.5094656 66.4959968,52.8864068 65.1976485,52.8864068 C63.2571293,52.8864068 61.4006484,51.8951801 61.4006484,49.0193323 C61.4006484,46.1295207 63.6060153,45.1383364 65.141623,45.1383364 C66.6108584,45.1383364 68.3998608,45.8412023 68.5517653,48.8609387 L68.5481425,49.075188 C68.5481425,46.5064194 69.7348642,45.1383364 71.4381239,45.1383364 C72.4427628,45.1383364 73.168972,45.5012712 73.6995164,46.2272257 L73.6995164,42.4020431 L75.9473269,42.4020431 Z M60.9957369,42.4020431 L60.9957369,50.9179597 C60.9957369,51.8114389 61.0517624,52.3559048 61.21899,52.7328036 L58.9160028,52.7328036 C58.8179582,52.5513149 58.7479264,51.9929276 58.7479264,51.6159864 C58.2598255,52.2861276 57.5616291,52.844515 56.4585212,52.844515 C54.7696923,52.844515 53.5969769,51.6439142 53.5969769,49.075188 C53.5969769,46.5064194 54.7832742,45.1383364 56.4865339,45.1383364 C57.4915973,45.1383364 58.217382,45.5012712 58.7479264,46.2272257 L58.7479264,42.4020431 L60.9957369,42.4020431 Z M20.2452584,35.0533241 C21.3483663,35.0533241 22.1857776,35.3604456 22.7443347,35.8630621 C23.2468664,35.4302652 24.042683,35.1370652 24.6568412,35.0951734 L24.6568412,36.8123122 C24.391569,36.8123122 23.9310564,36.8402825 23.400512,36.9798793 C23.4841258,37.1753319 23.5401513,37.4265977 23.5401513,37.7197978 C23.5401513,39.2275201 22.3814424,40.3722651 20.2452584,40.3722651 C19.826765,40.3722651 19.4358599,40.3164094 19.1005558,40.2466322 C18.9469101,40.3722651 18.84929,40.4839765 18.84929,40.6235734 C18.84929,40.902767 19.1425749,40.9586228 19.6871257,40.9865082 L20.8038155,41.0563703 C23.3584929,41.1540329 24.391569,41.7683608 24.391569,43.1644141 C24.391569,44.5353714 22.9562514,45.2720894 20.8901437,45.4143416 C21.2989579,45.6438125 21.5372949,46.0074653 21.6556576,46.4645276 C22.1021638,45.8921339 22.9399995,45.1383364 24.1127148,45.1383364 C25.6203098,45.1383364 26.2904935,46.0876289 26.2904935,47.4138625 L26.2904935,52.7328036 L24.042683,52.7328036 L24.042683,48.0141841 C24.042683,47.3440853 23.8890373,46.995072 23.2332844,46.995072 C22.6747273,46.995072 22.2277967,47.3021936 21.7392714,47.7349905 L21.7392714,52.7328036 L19.4914609,52.7328036 L19.4914609,48.0141841 C19.4914609,47.3440853 19.3382397,46.995072 18.6820624,46.995072 C18.1235052,46.995072 17.6769991,47.3021936 17.174043,47.7349905 L17.174043,52.7328036 L14.9266569,52.7328036 L14.9266569,45.2918547 L17.174043,45.2918547 L17.174043,46.4645276 C17.4697492,46.0765992 17.9304484,45.6214473 18.5479041,45.3578486 C16.8610541,45.1594159 16.2665998,44.5931428 16.2665998,43.7646933 C16.2665998,43.0386963 16.8667517,42.5501286 17.5509417,42.2709349 C17.2300685,42.061476 17.0484101,41.7683608 17.0484101,41.3774557 C17.0484101,40.7631702 17.5369354,40.2326682 18.1235052,39.8557271 C17.3136823,39.3810808 16.8947644,38.6132345 16.8947644,37.7197978 C16.8947644,36.225997 18.0954925,35.0533241 20.2452584,35.0533241 Z M51.1114825,45.1383364 C52.3682361,45.1383364 53.2756793,45.7665434 53.2756793,47.3021936 L53.2756793,52.7328036 L51.0418751,52.7328036 L51.0418751,48.0141841 C51.0418751,47.3440853 50.7906093,46.995072 50.1624447,46.995072 C49.5618685,46.995072 49.0457549,47.3021936 48.5427988,47.7349905 L48.5427988,52.7328036 L46.2954127,52.7328036 L46.2954127,45.2918547 L48.5427988,45.2918547 L48.5427988,46.4645276 C48.9897294,45.8782124 49.8135587,45.1383364 51.1114825,45.1383364 Z M37.2770068,35.2068424 L38.9102347,40.0372157 L38.9382475,40.0372157 L40.5854817,35.2068424 L42.7632603,35.2068424 L39.6360195,43.4296015 C39.1975999,44.5501262 38.6212397,45.2880996 37.4892629,45.4581605 C38.1079197,45.841474 38.3941211,46.5471821 38.3941211,47.4138625 L38.3941211,52.7328036 L36.1463106,52.7328036 L36.1463106,48.0141841 C36.1463106,47.3440853 35.992665,46.995072 35.3364877,46.995072 C34.778355,46.995072 34.3314244,47.3021936 33.8428991,47.7349905 L33.8428991,52.7328036 L31.5950886,52.7328036 L31.5950886,48.0141841 C31.5950886,47.3440853 31.4414429,46.995072 30.78569,46.995072 C30.2271329,46.995072 29.7802023,47.3021936 29.2776706,47.7349905 L29.2776706,52.7328036 L27.0302846,52.7328036 L27.0302846,45.2918547 L29.2776706,45.2918547 L29.2776706,46.4645276 C29.7246012,45.8782124 30.5480061,45.1383364 31.7207215,45.1383364 C32.9634687,45.1383364 33.5496141,45.6548744 33.7588608,46.4645276 C34.0667329,46.0702292 34.5600997,45.58985 35.2205088,45.3290899 C35.0689918,45.2957147 34.9423522,45.2615315 34.833956,45.2305662 L35.3084749,43.4994211 C35.5177216,43.5552768 36.048266,43.6949161 36.7184497,43.6949161 C37.206975,43.6949161 37.4862536,43.5134275 37.667912,43.0527027 L37.8075512,42.689683 L34.9595889,35.2068424 L37.2770068,35.2068424 Z M10.7383272,46.7856131 C9.6636565,46.7856131 9.17513122,47.6930987 9.17513122,49.0332963 C9.17513122,50.2757888 9.59362464,51.3088648 10.7383272,51.3088648 C11.799416,51.3088648 12.2879413,50.3874578 12.2879413,49.0332963 C12.2879413,47.7908037 11.8554415,46.7856131 10.7383272,46.7856131 Z M57.2683442,46.995072 C56.3328883,46.995072 55.844363,47.7070626 55.844363,49.0612241 C55.844363,50.3036742 56.2912936,51.1552616 57.2959325,51.1552616 C57.868496,51.1552616 58.385034,50.8062908 58.7479264,50.4293496 L58.7479264,47.6790923 C58.2598255,47.21841 57.8544896,46.995072 57.2683442,46.995072 Z M72.2195097,46.995072 C71.2840538,46.995072 70.795953,47.7070626 70.795953,49.0612241 C70.795953,50.3036742 71.2424592,51.1552616 72.2479469,51.1552616 C72.820086,51.1552616 73.336624,50.8062908 73.6995164,50.4293496 L73.6995164,47.6790923 C73.2109911,47.21841 72.8060796,46.995072 72.2195097,46.995072 Z M65.1280411,46.7437637 C64.4298447,46.7437637 63.8296928,47.2044885 63.6620408,48.2933778 L66.5515978,48.2933778 C66.4399713,47.2463378 65.9654524,46.7437637 65.1280411,46.7437637 Z M42.4563935,46.7437637 C41.758197,46.7437637 41.1580452,47.2044885 40.9903932,48.2933778 L43.8803746,48.2933778 C43.7687481,47.2463378 43.2938047,46.7437637 42.4563935,46.7437637 Z M18.7796825,42.689683 C18.500404,42.8712141 18.3607647,43.108516 18.3607647,43.3597818 C18.3607647,44.0019952 18.9609165,44.3091592 20.4825178,44.3091592 C21.6276449,44.3091592 22.4234615,44.029923 22.4234615,43.5412704 C22.4234615,43.0805881 22.1997839,42.8712141 20.4409232,42.7874305 L19.2682078,42.7316172 L18.7796825,42.689683 Z M8.51895391,32.3170732 L8.51895391,36.3795153 C8.96546007,35.7932425 9.78928941,35.0533241 11.0876377,35.0533241 C12.3579732,35.0533241 13.2654163,35.6815735 13.2654163,37.2172237 L13.2654163,42.6478337 L11.0176058,42.6478337 L11.0176058,37.9291718 C11.0176058,37.259073 10.76634,36.9100597 10.1521818,36.9100597 C9.53802358,36.9100597 9.02148556,37.2172237 8.51895391,37.6499781 L8.51895391,42.6478337 L6.2711434,42.6478337 L6.2711434,32.3170732 L8.51895391,32.3170732 Z M16.3084916,35.2068848 L16.3084916,42.6478337 L14.0748148,42.6478337 L14.0748148,35.2068848 L16.3084916,35.2068848 Z M27.1138984,32.3170732 L27.1138984,36.3795153 C27.5604045,35.7932425 28.3842339,35.0533241 29.6825821,35.0533241 C30.9529176,35.0533241 31.8603608,35.6815735 31.8603608,37.2172237 L31.8603608,42.6478337 L29.6125503,42.6478337 L29.6125503,37.9291718 C29.6125503,37.259073 29.3612844,36.9100597 28.7471262,36.9100597 C28.1329681,36.9100597 27.61643,37.2172237 27.1138984,37.6499781 L27.1138984,42.6478337 L24.8660879,42.6478337 L24.8660879,32.3170732 L27.1138984,32.3170732 Z M34.9038605,32.3171156 L34.9038605,42.6478337 L32.6701837,42.6478337 L32.6701837,32.3171156 L34.9038605,32.3171156 Z M20.2732711,36.4773052 C19.4494418,36.4773052 19.0029356,37.049699 19.0029356,37.8035389 C19.0029356,38.5573788 19.4634482,39.1297726 20.2732711,39.1297726 C21.0971005,39.1297726 21.5436066,38.5573788 21.5436066,37.8035389 C21.5436066,37.049699 21.1111068,36.4773052 20.2732711,36.4773052 Z"/>
      <polygon stroke="#FFF" stroke-width=".5" points="50.873 30.666 54.478 30.666 54.478 31.054 51.291 31.054 51.291 33.396 53.686 33.396 53.686 33.784 51.291 33.784 51.291 36.514 54.665 36.514 54.665 36.902 50.873 36.902"/>
      <path stroke="#FFF" stroke-width=".5" d="M62.5979643 34.8628691L62.5979643 30.6664465 63.0202049 30.6664465 63.0202049 34.7617749C63.0202049 35.8064146 63.5683058 36.6407459 64.8147278 36.6407459 66.0449097 36.6407459 66.6011306 35.8401126 66.6011306 34.778827L66.6011306 30.6664465 67.0233713 30.6664465 67.0233713 34.8372911C67.0233713 36.0086029 66.2803901 37.0203565 64.8066078 37.0203565 63.3409455 37.0203565 62.5979643 36.0260609 62.5979643 34.8628691zM77.5035516 33.5985831C78.6017786 33.5985831 79.2417229 33.2701286 79.2417229 32.3010051 79.2417229 31.3907516 78.6100359 31.0537711 77.4952943 31.0537711L75.9016266 31.0537711 75.9016266 33.5985831 77.5035516 33.5985831zM75.4722446 30.6664465L77.536581 30.6664465C78.9155577 30.6664465 79.6711048 31.2555534 79.6711048 32.284359 79.6711048 33.2953006 79.0476752 33.7755994 78.1187239 33.9274436L79.757807 36.9022103 79.2582375 36.9022103 77.6480552 33.9777877 75.9016266 33.9777877 75.9016266 36.9022103 75.4722446 36.9022103 75.4722446 30.6664465zM92.191351 33.7841254C92.191351 31.9973166 91.2778496 30.9275049 90.0557877 30.9275049 88.8256057 30.9275049 87.9161643 31.9973166 87.9161643 33.7841254 87.9161643 35.5701222 88.8256057 36.6407459 90.0557877 36.6407459 91.2778496 36.6407459 92.191351 35.5701222 92.191351 33.7841254zM87.4939236 33.7841254C87.4939236 31.8795764 88.5495253 30.5483003 90.0557877 30.5483003 91.55799 30.5483003 92.6095317 31.8795764 92.6095317 33.7841254 92.6095317 35.6886744 91.55799 37.0203565 90.0557877 37.0203565 88.5495253 37.0203565 87.4939236 35.6886744 87.4939236 33.7841254zM102.871816 33.5985831C103.99272 33.5985831 104.645879 33.2701286 104.645879 32.3010051 104.645879 31.3907516 104.001148 31.0537711 102.863388 31.0537711L101.236813 31.0537711 101.236813 33.5985831 102.871816 33.5985831zM100.798565 30.6664465L102.905527 30.6664465C104.312979 30.6664465 105.084127 31.2555534 105.084127 32.284359 105.084127 33.4467389 104.220272 33.9863137 102.838105 33.9863137L101.236813 33.9863137 101.236813 36.9022103 100.798565 36.9022103 100.798565 30.6664465z"/>
      <polygon stroke="#FFF" stroke-width=".5" points="112.975 30.666 116.58 30.666 116.58 31.054 113.393 31.054 113.393 33.396 115.788 33.396 115.788 33.784 113.393 33.784 113.393 36.514 116.767 36.514 116.767 36.902 112.975 36.902"/>
    </g>
    <path fill="#FFF" d="M12.6944975,29.0318879 C5.00078534,29.0318879 0.762138639,25.6868486 0.762138639,20.5245504 L0.762138639,19.1620123 L7.48956927,19.1620123 L7.48956927,19.9874116 C7.48956927,22.7132999 9.60889262,23.9114078 12.6011174,23.9114078 C15.5974021,23.9114078 16.8397641,22.6308818 16.8397641,20.7730228 C16.8397641,15.8993911 1.26963944,17.2619293 1.26963944,8.42410731 C1.26963944,3.79935401 5.41490599,1.42996726e-12 12.5117972,1.42996726e-12 C19.6492885,1.42996726e-12 23.9366553,3.50987555 23.9366553,8.30068312 L23.9366553,9.66362727 L17.2092246,9.66362727 L17.2092246,8.83741597 C17.2092246,6.69007857 15.5974021,5.12048009 12.5117972,5.12048009 C9.88497306,5.12048009 8.36653066,6.31858799 8.36653066,8.13584686 C8.36653066,12.8024182 24.0259754,11.4804801 24.0259754,20.276484 C24.0259754,25.1078917 20.1121292,29.0318879 12.6944975,29.0318879 Z"/>
    <path fill="#D8232A" d="M11.9323589 29.0318879C4.2386467 29.0318879-1.10134124e-13 25.6868486-1.10134124e-13 20.5245504L-1.10134124e-13 19.1620123 6.72743063 19.1620123 6.72743063 19.9874116C6.72743063 22.7132999 8.84675398 23.9114078 11.8389787 23.9114078 14.8352634 23.9114078 16.0776254 22.6308818 16.0776254 20.7730228 16.0776254 15.8993911.507500802 17.2619293.507500802 8.42410731.507500802 3.79935401 4.65276735 1.42996726e-12 11.7496586 1.42996726e-12 18.8871499 1.42996726e-12 23.1745166 3.50987555 23.1745166 8.30068312L23.1745166 9.66362727 16.447086 9.66362727 16.447086 8.83741597C16.447086 6.69007857 14.8352634 5.12048009 11.7496586 5.12048009 9.12283442 5.12048009 7.60439202 6.31858799 7.60439202 8.13584686 7.60439202 12.8024182 23.2638368 11.4804801 23.2638368 20.276484 23.2638368 25.1078917 19.3499906 29.0318879 11.9323589 29.0318879zM40.447086 10.6546748L40.447086 9.04407029C40.447086 6.56584238 38.7906034 5.28572235 35.9770189 5.28572235 32.7087138 5.28572235 30.958851 6.97955703 30.958851 9.70463334L30.958851 19.4510847C30.958851 22.0113248 32.846754 23.7043475 36.025739 23.7043475 38.8352634 23.7043475 40.3537058 22.3414033 40.3537058 20.0706417L40.3537058 18.2939829 47.1745166 18.2939829 47.1745166 20.4835444C47.1745166 25.4801943 42.7044496 29.0318879 35.8389787 29.0318879 28.0072263 29.0318879 23.4924992 24.653577 23.4924992 18.954952L23.4924992 10.0761239C23.4924992 4.37749892 28.1939866 6.57252031e-14 35.8389787 6.57252031e-14 43.0739101 6.57252031e-14 47.2638368 3.63411174 47.2638368 8.63076164L47.2638368 10.6546748 40.447086 10.6546748z"/>
  </g>
</svg>
