<svg xmlns="http://www.w3.org/2000/svg" width="115" height="83" viewBox="0 0 115 83">
  <g fill="none" fill-rule="evenodd">
    <path fill="#91928E" d="M8.17424242,16.4742424 C5.17681061,15.2166667 4.48514394,12.8065227 6.09924242,9.24318182 C8.94953788,11.569697 9.64183333,13.9804697 8.17424242,16.4742424 Z M83.9431818,74.6371212 C84.3833333,74.67925 84.7184773,74.7 84.9498712,74.7 C85.955303,74.7 86.6890985,74.563553 87.1506288,74.2912879 C87.6115303,73.9976439 87.8416667,73.4424242 87.8416667,72.625 C87.8416667,71.9754621 87.5901515,71.5145606 87.0871212,71.2416667 C86.6048409,70.9694015 85.8295455,70.8329545 84.7606061,70.8329545 C84.4883409,70.8329545 84.2160758,70.8537045 83.9431818,70.8958333 L83.9431818,74.6371212 Z M73.1280303,74.1026515 L77.5924242,74.1026515 L77.5924242,76.1462121 L73.1280303,76.1462121 L73.1280303,80.1704545 L79.2587121,80.1704545 L79.2587121,82.3083333 L70.7386364,82.3083333 L70.7386364,68.8208333 L79.3530303,68.8208333 L79.3530303,70.9587121 L73.1280303,70.9587121 L73.1280303,74.1026515 Z M75.4545455,46.4988636 C74.9722652,46.1215909 74.4591742,45.9329545 73.9140152,45.9329545 C72.9922121,45.9329545 72.2898561,46.2159091 71.8075758,46.7818182 C71.3045455,47.3269773 71.0530303,48.1236515 71.0530303,49.1712121 C71.0530303,51.2254621 72.0377121,52.2522727 74.0083333,52.2522727 C74.2384697,52.2522727 74.5113636,52.1893939 74.8257576,52.0636364 C75.1609015,51.9171288 75.3709167,51.7806818 75.4545455,51.6549242 L75.4545455,46.4988636 Z M59.3267652,68.8208333 L65.6768939,76.9636364 L65.6768939,68.8208333 L67.9725985,68.8208333 L67.9725985,82.4969697 L66.9973485,82.4969697 L60.4579545,73.9454545 L60.4579545,82.3083333 L58.1628788,82.3083333 L58.1628788,68.8208333 L59.3267652,68.8208333 Z M46.7189394,68.8208333 L53.069697,76.9636364 L53.069697,68.8208333 L55.3647727,68.8208333 L55.3647727,82.4969697 L54.3901515,82.4969697 L47.8507576,73.9454545 L47.8507576,82.3083333 L45.5556818,82.3083333 L45.5556818,68.8208333 L46.7189394,68.8208333 Z M40.3367424,82.3083333 L42.7575758,82.3083333 L42.7575758,68.8208333 L40.3367424,68.8208333 L40.3367424,82.3083333 Z M56.5909091,49.2655303 C54.7674242,49.2655303 53.8556818,49.8528182 53.8556818,51.0261364 C53.8556818,51.9271894 54.3694015,52.3780303 55.3962121,52.3780303 C56.7795455,52.3780303 57.4712121,51.6863636 57.4712121,50.3030303 L57.4712121,49.3598485 C57.0731894,49.2969697 56.7795455,49.2655303 56.5909091,49.2655303 Z M55.3962121,43.9522727 C56.905303,43.9522727 58.0163712,44.2981061 58.7287879,44.9897727 C59.4204545,45.6814394 59.7662879,46.9811439 59.7662879,48.8882576 L59.7662879,50.994697 C59.7662879,52.3151515 60.0284924,53.1432652 60.5522727,53.4784091 C60.3636364,53.813553 60.15425,54.0128788 59.9234848,54.0757576 C59.6933485,54.1600152 59.4204545,54.2015152 59.1060606,54.2015152 C58.7916667,54.2015152 58.4980227,54.0757576 58.2263864,53.8242424 C57.9534924,53.5727273 57.7755455,53.3111515 57.6912879,53.0382576 C57.4819015,53.3740303 57.1260076,53.6563561 56.6223485,53.8871212 C56.0985682,54.0971364 55.5534091,54.2015152 54.9875,54.2015152 C53.9185606,54.2015152 53.0803864,53.9399394 52.4723485,53.4155303 C51.8643106,52.8703712 51.5606061,52.1164545 51.5606061,51.1518939 C51.5606061,49.9993258 51.990697,49.0976439 52.8496212,48.4481061 C53.7091742,47.8193182 54.9246212,47.5049242 56.4965909,47.5049242 C56.7694848,47.5049242 57.08325,47.547053 57.4404015,47.6306818 C57.4404015,46.4781136 56.7066061,45.9015152 55.2390152,45.9015152 C54.3794621,45.9015152 53.6563561,46.0379621 53.069697,46.3102273 L52.5981061,44.5496212 C53.3734015,44.1515985 54.3065227,43.9522727 55.3962121,43.9522727 Z M39.3306818,44.1409091 L41.3113636,50.0200758 L43.732197,44.1409091 L44.5496212,44.1409091 L47.0333333,50.0829545 L49.1712121,44.1409091 L51.4348485,44.1409091 L47.725,54.2015152 L46.8761364,54.2015152 L44.1723485,48.1337121 L41.4685606,54.2015152 L40.619697,54.2015152 L36.9098485,44.1409091 L39.3306818,44.1409091 Z M85.2007576,44.6439394 L84.5405303,46.4359848 C84.0375,46.0165833 83.3458333,45.807197 82.4655303,45.807197 C81.6487348,45.807197 81.2393939,46.1215909 81.2393939,46.7503788 C81.2393939,47.0018939 81.3758409,47.2326591 81.6487348,47.4420455 C81.8996212,47.6520606 82.4655303,47.9243258 83.3458333,48.2594697 C84.2053864,48.5952424 84.8234848,49.0033258 85.2007576,49.4856061 C85.5786591,49.9678864 85.7666667,50.5545455 85.7666667,51.2462121 C85.7666667,52.1686439 85.4315227,52.89175 84.7606061,53.4155303 C84.0896894,53.9399394 83.1678864,54.2015152 81.9939394,54.2015152 C81.3444015,54.2015152 80.8199924,54.1493258 80.4219697,54.0443182 C80.023947,53.9399394 79.5102273,53.7192348 78.8814394,53.3840909 L79.6988636,51.5606061 C80.3911591,52.1057652 81.1664545,52.3780303 82.0253788,52.3780303 C82.9270606,52.3780303 83.3779015,52.0535758 83.3779015,51.4034091 C83.3779015,51.0261364 83.2414545,50.7224318 82.9685606,50.4916667 C82.6962955,50.2401515 82.1725152,49.957197 81.3965909,49.642803 C79.6988636,48.9303864 78.85,47.9450758 78.85,46.6875 C78.85,45.8285758 79.1750833,45.1576591 79.8246212,44.6753788 C80.4741591,44.1937273 81.3022727,43.9522727 82.3083333,43.9522727 C83.3351439,43.9522727 84.2990758,44.1830379 85.2007576,44.6439394 Z M75.4545455,40.4625 L77.7810606,39.9280303 L77.7810606,54.0128788 L75.4545455,54.0128788 L75.4545455,53.4155303 C75.2659091,53.6255455 74.9515152,53.813553 74.5113636,53.9814394 C74.0504621,54.127947 73.5788712,54.2015152 73.0965909,54.2015152 C71.7132576,54.2015152 70.6342576,53.7613636 69.8589621,52.8810606 C69.0622879,52.0221364 68.6636364,50.8060606 68.6636364,49.2340909 C68.6636364,47.6828712 69.1144773,46.4152348 70.0161591,45.4299242 C70.9165833,44.4446136 72.0490303,43.9522727 73.4109848,43.9522727 C74.1655303,43.9522727 74.8465076,44.1094697 75.4545455,44.4238636 L75.4545455,40.4625 Z M63.9791667,45.0526515 C64.6287045,44.3194848 65.478197,43.9522727 66.5257576,43.9522727 C67.321803,43.9522727 67.9298409,44.0780303 68.3492424,44.3295455 L67.3746212,46.3102273 C66.9552197,46.0379621 66.5050076,45.9015152 66.0227273,45.9015152 C65.478197,45.9015152 65.0066061,46.1429697 64.6079545,46.6246212 C64.1891818,47.1069015 63.9791667,47.6935606 63.9791667,48.3852273 L63.9791667,54.0128788 L61.6847197,54.0128788 L61.6847197,44.1409091 L63.9791667,44.1409091 L63.9791667,45.0526515 Z M15.9712121,41.5628788 C18.5913712,46.2787879 18.0361515,49.4227273 14.3049242,50.994697 C12.0205379,47.6828712 12.5757576,44.5389318 15.9712121,41.5628788 Z M7.95416667,40.9340909 C6.61296212,37.7486515 7.7240303,35.1599318 11.2867424,33.1685606 C12.6493258,37.6122045 11.5382576,40.2002955 7.95416667,40.9340909 Z M31.125,68.8208333 L33.8602273,76.9636364 L36.3753788,68.8208333 L38.8905303,68.8208333 L34.5204545,82.4969697 L33.5143939,82.4969697 L30.5905303,73.9768939 L27.7295455,82.4969697 L26.7234848,82.4969697 L22.2905303,68.8208333 L24.8056818,68.8208333 L27.3208333,76.9636364 L30.0560606,68.8208333 L31.125,68.8208333 Z M33.3257576,49.4541667 L31.6909091,44.455303 L30.0875,49.4541667 L33.3257576,49.4541667 Z M32.2253788,40.3367424 L37.6329545,54.0128788 L34.9920455,54.0128788 L34.0174242,51.2776515 L29.3958333,51.2776515 L28.4526515,54.0128788 L25.780303,54.0128788 L31.1878788,40.3367424 L32.2253788,40.3367424 Z M30.3390152,5.31325758 C31.0728106,5.31325758 31.6594697,5.48114394 32.0996212,5.81628788 C32.5190227,6.17281061 32.7284091,6.64440152 32.7284091,7.23106061 C32.7284091,7.7969697 32.4561439,8.48863636 31.9109848,9.30606061 L30.4018939,11.569697 L33.1371212,11.569697 L33.1371212,12.7329545 L28.3897727,12.7329545 L28.3897727,12.3556818 L30.6848485,8.96022727 C31.1463788,8.26856061 31.3765152,7.69259091 31.3765152,7.23106061 C31.3765152,6.6865303 31.0413712,6.41363636 30.3704545,6.41363636 C29.8674242,6.41363636 29.4694015,6.6865303 29.1757576,7.23106061 L28.2954545,6.53939394 C28.4633409,6.18287121 28.7356061,5.88985606 29.1128788,5.65909091 C29.4901515,5.42895455 29.8988636,5.31325758 30.3390152,5.31325758 Z M16.3170455,4.11856061 C15.6675076,5.04099242 15.0494091,5.95273485 14.4621212,6.85378788 C15.384553,6.39288636 16.5578712,6.16212121 17.9833333,6.16212121 C16.9986515,9.55757576 15.1223485,10.9409091 12.3556818,10.3121212 C11.5803864,11.6747045 10.8679697,13.0265985 10.217803,14.367803 C11.2031136,12.7543333 13.1001667,11.9369091 15.9083333,11.9155303 C14.7978939,15.6675076 12.6700758,17.1137197 9.52613636,16.2541667 C9.58901515,15.9190227 9.67264394,15.6046288 9.77765152,15.3109848 C9.10673485,16.736447 8.53076515,18.1405303 8.04848485,19.5238636 C9.05454545,18.1619091 10.8258409,17.459553 13.3617424,17.4174242 C12.3349318,20.9807652 10.3435606,22.3848485 7.38825758,21.630303 C6.96948485,23.1601439 6.63371212,24.6484848 6.38219697,26.094697 C6.94810606,24.2297121 8.61439394,22.940697 11.3810606,22.2276515 C11.4231894,26.4405303 9.71477273,28.4947803 6.25643939,28.3897727 C6.21431061,28.0961288 6.19356061,27.8238636 6.19356061,27.5723485 C6.00492424,29.3329545 5.95273485,31.0621212 6.03636364,32.7598485 C6.33000758,30.8319848 7.7969697,29.3537045 10.4378788,28.3268939 C11.0459167,32.5190227 9.66258333,34.7512197 6.28787879,35.0234848 C6.79090909,38.503197 7.96485606,41.8357727 9.80909091,45.0212121 C8.90803788,42.4224318 9.8927197,40.1166667 12.7643939,38.1045455 C14.6086288,42.380303 13.8547121,45.0734015 10.5007576,46.1844697 C13.8962121,51.5084167 19.1887197,56.4022727 26.3776515,60.8666667 L24.5856061,61.9670455 C19.7439394,58.4250833 15.8033258,54.788803 12.7643939,51.0575758 C10.3121212,53.6777348 6.91666667,53.4369091 2.5780303,50.3344697 C6.20425,48.2808485 9.44250758,48.3437273 12.292803,50.5231061 C11.2238636,49.1605227 10.2599318,47.7878788 9.40037879,46.4045455 C6.50795455,48.1865303 3.51115152,47.2433485 0.408712121,43.575 C4.09781061,42.5903182 6.94810606,43.2606061 8.96022727,45.5871212 C8.14280303,44.1409091 7.45113636,42.694697 6.88522727,41.2484848 C3.30113636,41.4163712 1.14250758,39.2784924 0.408712121,34.8348485 C2.84023485,35.3800076 4.6115303,36.3125 5.7219697,37.6329545 C5.38682576,36.3125 5.15606061,34.9920455 5.03030303,33.6715909 C5.00955303,33.8394773 4.97811364,34.0174242 4.93598485,34.2060606 C1.33114394,33.5772727 -0.19869697,31.0935606 0.345833333,26.7549242 C2.84023485,27.9496212 4.34932576,29.4272727 4.87310606,31.1878788 C4.87310606,29.6580379 4.98880303,28.1068182 5.21893939,26.5348485 C5.07243182,26.99575 4.86241667,27.4465909 4.59015152,27.8867424 C1.25757576,26.4612803 0.492969697,23.7581212 2.29507576,19.7753788 C4.45433333,21.5359848 5.50189394,23.3494091 5.43901515,25.2143939 C5.6905303,23.9153182 6.02630303,22.626303 6.44507576,21.3473485 C6.40357576,21.4309773 6.35075758,21.5152348 6.28787879,21.5988636 C3.29044697,20.3205379 2.5987803,17.8997045 4.21287879,14.3363636 C6.35075758,16.0762197 7.28387879,17.8783258 7.01098485,19.7439394 C8.18493182,16.4956212 9.88265909,13.1944848 12.1041667,9.8405303 C12.3349318,8.87659848 12.7750833,8.11136364 13.4246212,7.54545455 C10.9723485,6.12062121 10.6372045,3.85698485 12.4185606,0.754545455 C14.5564394,2.82954545 15.1644773,4.83097727 14.2420455,6.7594697 C14.9129621,5.87916667 15.6046288,4.99886364 16.3170455,4.11856061 C16.8829545,1.64553788 18.852947,0.387962121 22.2276515,0.345833333 C21.2008409,3.86704545 19.2094697,5.22962879 16.2541667,4.43295455 C16.2749167,4.32857576 16.2962955,4.22356818 16.3170455,4.11856061 Z M10.2806818,12.5757576 C7.43038636,11.0880455 6.99023485,8.63577273 8.96022727,5.21893939 C11.5803864,7.7762197 12.0205379,10.2284924 10.2806818,12.5757576 Z M46.4359848,7.70265152 C46.4359848,8.10130303 46.530303,8.41569697 46.7189394,8.64583333 C46.9283258,8.89734848 47.1804697,9.02310606 47.4734848,9.02310606 C48.2072803,9.02310606 48.5738636,8.60370455 48.5738636,7.7655303 C48.5738636,6.86447727 48.1965909,6.41363636 47.4420455,6.41363636 C47.1484015,6.41363636 46.9075758,6.52933333 46.7189394,6.7594697 C46.530303,6.99023485 46.4359848,7.30462879 46.4359848,7.70265152 Z M37.4757576,8.96022727 C37.4757576,7.97491667 37.3814394,7.29393939 37.192803,6.91666667 C37.0041667,6.53939394 36.6897727,6.35075758 36.2496212,6.35075758 C35.390697,6.35075758 34.9606061,7.221 34.9606061,8.96022727 C34.9606061,9.92478788 35.0549242,10.6372045 35.2435606,11.0981061 C35.432197,11.5596364 35.7465909,11.7897727 36.1867424,11.7897727 C36.6482727,11.7897727 36.9834167,11.5803864 37.192803,11.1609848 C37.3814394,10.7629621 37.4757576,10.0291667 37.4757576,8.96022727 Z M38.1359848,11.7897727 C37.6750833,12.4814394 37.0356061,12.8272727 36.2181818,12.8272727 C35.3171288,12.8272727 34.6569015,12.5128788 34.2375,11.8840909 C33.8187273,11.234553 33.6087121,10.2284924 33.6087121,8.86590909 C33.6087121,7.88122727 33.8501667,7.04242424 34.3318182,6.35075758 C34.8140985,5.65909091 35.4636364,5.31325758 36.2810606,5.31325758 C37.9787879,5.31325758 38.8276515,6.55008333 38.8276515,9.02310606 C38.8276515,10.1756742 38.5968864,11.0981061 38.1359848,11.7897727 Z M43.0090909,5.40757576 L43.0090909,12.7329545 L41.7200758,12.7329545 L41.7200758,7.48257576 L40.2424242,8.36287879 L40.2424242,7.13674242 C41.1856061,6.67584091 41.9401515,6.09924242 42.5060606,5.40757576 L43.0090909,5.40757576 Z M47.3791667,5.31325758 C49.0768939,5.31325758 49.9257576,6.38219697 49.9257576,8.52007576 C49.9257576,9.40037879 49.6006742,10.3020606 48.9511364,11.2238636 C48.3015985,12.1255455 47.5891818,12.6700758 46.8132576,12.8587121 L46.1215909,12.1356061 C47.1276515,11.590447 47.8400682,10.8679697 48.2594697,9.96628788 C48.0287045,10.0712955 47.7463788,10.1234848 47.4106061,10.1234848 C46.7189394,10.1234848 46.1637197,9.90340909 45.7443182,9.46325758 C45.3255455,9.04448485 45.1155303,8.46788636 45.1155303,7.73409091 C45.1155303,7.02167424 45.3356061,6.43501515 45.7757576,5.97348485 C46.1951591,5.53333333 46.7296288,5.31325758 47.3791667,5.31325758 Z M108.43447,9.18030303 C110.048568,12.7436439 109.356902,15.1537879 106.35947,16.4113636 C104.891879,13.9175909 105.584174,11.5068182 108.43447,9.18030303 Z M100.228788,50.9318182 C96.4981894,49.3598485 95.9429697,46.2159091 98.5625,41.5 C101.957955,44.4766818 102.513174,47.6206212 100.228788,50.9318182 Z M89.6337121,74.8257576 C89.1514318,75.4966742 88.5547121,75.9682652 87.8416667,76.2405303 L91.8344697,82.3083333 L89.067803,82.3083333 L85.4522727,76.7435606 C85.0963788,76.7435606 84.5927197,76.7228106 83.9431818,76.6806818 L83.9431818,82.3083333 L81.4594697,82.3083333 L81.4594697,68.8208333 C81.5852273,68.8208333 82.0983182,68.8000833 83,68.7579545 C83.9016818,68.7158258 84.6354773,68.6950758 85.2007576,68.6950758 C88.6175909,68.6950758 90.3253788,70.0155303 90.3253788,72.6564394 C90.3253788,73.4531136 90.0946136,74.1762197 89.6337121,74.8257576 Z M106.579545,40.8712121 C102.995455,40.1374167 101.884386,37.5493258 103.24697,33.1056818 C106.810311,35.097053 107.921379,37.6851439 106.579545,40.8712121 Z M104.25303,12.5128788 C102.513174,10.1656136 102.953326,7.71334091 105.573485,5.15606061 C107.543477,8.57289394 107.103955,11.0251667 104.25303,12.5128788 Z M98.2795455,4.37007576 C95.3248712,5.16675 93.3335,3.80416667 92.3060606,0.282954545 C95.6807652,0.325083333 97.6507576,1.58265909 98.2166667,4.05568182 C98.2374167,4.16068939 98.2587955,4.26569697 98.2795455,4.37007576 Z M100.071591,6.79090909 C99.4849318,5.88985606 98.8662045,4.97811364 98.2166667,4.05568182 C98.9297121,4.93598485 99.6213788,5.81628788 100.291667,6.69659091 C99.3692348,4.76809848 99.9772727,2.76666667 102.115152,0.691666667 C103.896508,3.79410606 103.561364,6.05774242 101.109091,7.48257576 C101.759258,8.04848485 102.19878,8.8137197 102.429545,9.77765152 C104.651682,13.1316061 106.349409,16.4327424 107.522727,19.6810606 C107.249833,17.815447 108.182955,16.0133409 110.320833,14.2734848 C111.934932,17.8368258 111.243265,20.2576591 108.245833,21.5359848 C108.182955,21.4523561 108.130765,21.3687273 108.088636,21.2844697 C108.507409,22.5634242 108.843811,23.8518106 109.094697,25.1515152 C109.031818,23.2865303 110.079379,21.4731061 112.238636,19.7125 C114.041371,23.6946136 113.276136,26.3990303 109.944189,27.8238636 C109.671295,27.3837121 109.461909,26.9328712 109.315402,26.4719697 C109.545538,28.0439394 109.660606,29.5951591 109.660606,31.125 C110.184386,29.3643939 111.694106,27.8867424 114.188508,26.6920455 C114.733038,31.0306818 113.202568,33.5143939 109.597727,34.1431818 C109.555598,33.9545455 109.524788,33.7765985 109.503409,33.6087121 C109.377652,34.9291667 109.147515,36.2496212 108.811742,37.5700758 C109.922182,36.2496212 111.694106,35.3171288 114.125,34.7719697 C113.391833,39.2156136 111.232576,41.3534924 107.648485,41.1856061 C107.082576,42.6318182 106.390909,44.0780303 105.573485,45.5242424 C107.586235,43.1977273 110.43653,42.5274394 114.125,43.5121212 C111.022561,47.1804697 108.025758,48.1236515 105.133333,46.3416667 C104.274409,47.725 103.309848,49.0976439 102.241538,50.4602273 C105.091833,48.2808485 108.329462,48.2173409 111.955682,50.2715909 C107.617045,53.3740303 104.221591,53.6148561 101.769947,50.994697 C98.7303864,54.7259242 94.7897727,58.3622045 89.9481061,61.9041667 L88.1560606,60.8037879 C95.3456212,56.3393939 100.6375,51.4455379 104.032955,46.1215909 C100.679629,45.0105227 99.9250833,42.3174242 101.769947,38.0416667 C104.640992,40.0537879 105.625674,42.359553 104.724621,44.9583333 C106.568856,41.7722652 107.743432,38.4403182 108.245833,34.9606061 C104.871129,34.6883409 103.488424,32.4561439 104.095833,28.2640152 C106.736742,29.2908258 108.204333,30.7684773 108.497348,32.6969697 C108.581606,30.9992424 108.529417,29.2700758 108.340152,27.5094697 C108.340152,27.7609848 108.319402,28.03325 108.277273,28.3268939 C104.818939,28.4319015 103.110523,26.3776515 103.152652,22.1647727 C105.919318,22.8778182 107.586235,24.1662045 108.151515,26.0318182 C107.900629,24.5856061 107.564227,23.0978939 107.145455,21.5674242 C104.190152,22.3219697 102.19878,20.9178864 101.17197,17.3545455 C103.7085,17.3966742 105.479167,18.0990303 106.485856,19.4609848 C106.003576,18.0776515 105.426977,16.6735682 104.756689,15.2481061 C104.861068,15.54175 104.944697,15.8561439 105.007576,16.1912879 C101.863636,17.0508409 99.736447,15.6046288 98.6260076,11.8526515 C101.433545,11.8740303 103.331227,12.6908258 104.315909,14.3049242 C103.666371,12.9637197 102.953326,11.6118258 102.17803,10.2492424 C99.4119924,10.8780303 97.5356894,9.49469697 96.5503788,6.09924242 C97.9752121,6.09924242 99.1497879,6.33000758 100.071591,6.79090909 L100.071591,6.79090909 Z"/>
    <path fill="#1C1C46" d="M49.7371212,23.4852273 L47.6621212,23.4852273 L47.6621212,17.8575758 C47.6621212,16.6842576 47.1276515,16.0969697 46.0587121,16.0969697 C45.7443182,16.0969697 45.4406136,16.1912879 45.1469697,16.3799242 C44.8747045,16.5478106 44.6753788,16.757197 44.5496212,17.0087121 L44.5496212,23.4852273 L42.4431818,23.4852273 L42.4431818,17.5431818 C42.4431818,17.1030303 42.3073636,16.7471364 42.0344697,16.4742424 C41.7622045,16.2227273 41.3742424,16.0969697 40.8712121,16.0969697 C40.619697,16.0969697 40.3367424,16.1912879 40.0223485,16.3799242 C39.7079545,16.5685606 39.4878788,16.7886364 39.3621212,17.0401515 L39.3621212,23.4852273 L37.2556818,23.4852273 L37.2556818,14.4935606 L38.7018939,14.4935606 L39.1106061,15.2795455 C39.6972652,14.6507576 40.4524394,14.3363636 41.3742424,14.3363636 C42.5689394,14.3363636 43.4699924,14.661447 44.0780303,15.3109848 C44.3295455,15.0179697 44.6967576,14.7872045 45.1784091,14.6193182 C45.6399394,14.4306818 46.1115303,14.3363636 46.5931818,14.3363636 C47.5784924,14.3363636 48.3537879,14.6300076 48.919697,15.2166667 C49.4648561,15.7825758 49.7371212,16.5578712 49.7371212,17.5431818 L49.7371212,23.4852273 Z M53.0068182,14.4935606 L53.0068182,15.1223485 C53.5305985,14.5985682 54.1807652,14.3363636 54.9560606,14.3363636 C57.8069848,14.3363636 59.2318182,15.9083333 59.2318182,19.0522727 C59.2318182,20.5406136 58.8444848,21.6724318 58.0691894,22.4477273 C57.2725152,23.2444015 56.1928864,23.6424242 54.830303,23.6424242 C54.1593864,23.6424242 53.5519773,23.5166667 53.0068182,23.2651515 L53.0068182,27.0064394 L50.9318182,27.0064394 L50.9318182,14.4935606 L53.0068182,14.4935606 Z M56.4337121,16.757197 C56.0143106,16.3384242 55.3226439,16.1284091 54.3587121,16.1284091 C53.8556818,16.1284091 53.4054697,16.3170455 53.0068182,16.6943182 L53.0068182,21.4102273 C53.3840909,21.7246212 53.8349318,21.8818182 54.3587121,21.8818182 C55.3226439,21.8818182 56.0143106,21.651053 56.4337121,21.1901515 C56.8531136,20.72925 57.0625,20.0061439 57.0625,19.0208333 C57.0625,17.9518939 56.8531136,17.1973485 56.4337121,16.757197 Z M62.2814394,20.1840909 C62.2814394,21.3366591 62.7951591,21.9132576 63.8219697,21.9132576 C64.30425,21.9132576 64.7444015,21.7875 65.143053,21.5359848 C65.5618258,21.2844697 65.8340909,21.0015152 65.9598485,20.6871212 L65.9598485,14.4935606 L68.0662879,14.4935606 L68.0662879,23.4852273 L65.9598485,23.4852273 L65.9598485,22.7306818 C65.6668333,22.982197 65.2574924,23.2022727 64.7337121,23.3909091 C64.2099318,23.5587955 63.7282803,23.6424242 63.2875,23.6424242 C61.2131288,23.6424242 60.175,22.5420455 60.175,20.3412879 L60.175,14.4935606 L62.2814394,14.4935606 L62.2814394,20.1840909 Z M75.832447,23.4852273 L75.832447,16.2227273 L74.6685606,16.2227273 L74.6685606,14.4935606 L77.9382576,14.4935606 L77.9382576,23.4852273 L75.832447,23.4852273 Z M86.3954545,15.3109848 C87.0034924,15.9397727 87.3078258,16.8307652 87.3078258,17.9833333 L87.3078258,23.4852273 L85.232197,23.4852273 L85.232197,18.2977273 C85.232197,17.5224318 85.0850606,16.9672121 84.7926742,16.6314394 C84.4990303,16.2755455 84.01675,16.0969697 83.3458333,16.0969697 C83.0314394,16.0969697 82.7063561,16.1812273 82.3712121,16.3484848 C82.0153182,16.5163712 81.7424242,16.736447 81.5537879,17.0087121 L81.5537879,23.4852273 L79.4479773,23.4852273 L79.4479773,14.4935606 L80.9564394,14.4935606 L81.3343409,15.3424242 C81.8996212,14.6715076 82.7491136,14.3363636 83.880303,14.3363636 C84.9278636,14.3363636 85.7666667,14.661447 86.3954545,15.3109848 Z M33.7344697,21.1587121 C34.1117424,20.6556818 34.3003788,19.9325758 34.3003788,18.9893939 C34.3003788,17.0194015 33.5986515,16.0340909 32.1939394,16.0340909 C31.5230227,16.0340909 30.9992424,16.2962955 30.6219697,16.8200758 C30.244697,17.3438561 30.0560606,18.0675909 30.0560606,18.9893939 C30.0560606,20.9593864 30.7691061,21.944697 32.1939394,21.944697 C32.8434773,21.944697 33.357197,21.6831212 33.7344697,21.1587121 Z M36.5011364,18.9893939 C36.5011364,20.4148561 36.113803,21.5466742 35.3378788,22.3848485 C34.5625833,23.2230227 33.5143939,23.6424242 32.1939394,23.6424242 C30.8319848,23.6424242 29.7731061,23.2230227 29.0185606,22.3848485 C28.2432652,21.5259242 27.855303,20.3934773 27.855303,18.9893939 C27.855303,17.6060606 28.2539545,16.4849318 29.05,15.6253788 C29.8466742,14.7664545 30.8942348,14.3363636 32.1939394,14.3363636 C33.5565227,14.3363636 34.6147727,14.7557652 35.3693182,15.5939394 C36.1238636,16.4113636 36.5011364,17.5431818 36.5011364,18.9893939 Z M26.5348485,13.644697 C26.053197,13.1624167 25.2772727,12.9215909 24.2083333,12.9215909 C23.1815227,12.9215909 22.3433485,13.3516818 21.6931818,14.2106061 C21.0228939,15.0701591 20.6871212,16.1598485 20.6871212,17.480303 C20.6871212,18.7800076 20.9908258,19.8175076 21.5988636,20.592803 C22.2069015,21.3687273 23.0136364,21.7560606 24.019697,21.7560606 C25.1936439,21.7560606 26.1053864,21.3473485 26.7549242,20.5299242 L27.7609848,22.2905303 C26.8806818,23.2337121 25.5816061,23.705303 23.8625,23.705303 C22.1440227,23.705303 20.8128788,23.1393939 19.869697,22.0075758 C18.9057652,20.8757576 18.4234848,19.3352273 18.4234848,17.3859848 C18.4234848,15.5625 18.9579545,14.0427197 20.0268939,12.8272727 C21.0750833,11.6118258 22.4162879,11.0037879 24.0511364,11.0037879 C25.4552197,11.0037879 26.5876667,11.2867424 27.4465909,11.8526515 L26.5348485,13.644697 Z M77.7810606,11.3810606 C78.011197,11.6118258 78.1268939,11.8947803 78.1268939,12.2299242 C78.1268939,12.565697 78.011197,12.8587121 77.7810606,13.1102273 C77.5295455,13.3409924 77.2365303,13.4560606 76.9007576,13.4560606 C76.5656136,13.4560606 76.2820303,13.3409924 76.0518939,13.1102273 C75.8217576,12.8587121 75.7060606,12.565697 75.7060606,12.2299242 C75.7060606,11.8947803 75.8217576,11.6118258 76.0518939,11.3810606 C76.2820303,11.1509242 76.5656136,11.0352273 76.9007576,11.0352273 C77.2365303,11.0352273 77.5295455,11.1509242 77.7810606,11.3810606 Z M71.8075758,11.9155303 L71.8075758,14.4935606 L74.2604773,14.4935606 L74.2604773,16.1912879 L71.8075758,16.1912879 L71.8075758,20.1212121 C71.8075758,20.7713788 71.9025227,21.2322803 72.0905303,21.5045455 C72.2999167,21.7560606 72.6564394,21.8818182 73.1600985,21.8818182 C73.6625,21.8818182 74.1340909,21.7453712 74.5748712,21.4731061 L74.5748712,23.3909091 C74.0925909,23.5587955 73.4002955,23.6424242 72.4992424,23.6424242 C71.5981894,23.6424242 70.9065227,23.3909091 70.4242424,22.8878788 C69.9419621,22.3848485 69.7017652,21.6724318 69.7017652,20.75 L69.7017652,16.1912879 L68.6636364,16.1912879 L68.6636364,14.4935606 L69.7017652,14.4935606 L69.7017652,12.6700758 L71.8075758,11.9155303 Z M92.8405303,16.5056818 C92.5475152,16.1912879 92.1702424,16.0340909 91.7093409,16.0340909 C91.2270606,16.0340909 90.8390985,16.1912879 90.5454545,16.5056818 C90.2310606,16.7993258 90.0738636,17.1866591 90.0738636,17.6689394 C90.0738636,18.1927197 90.2203712,18.6121212 90.5140152,18.9265152 C90.8076591,19.2622879 91.2056818,19.4295455 91.7093409,19.4295455 C92.2117424,19.4295455 92.5997045,19.2723485 92.8719697,18.9579545 C93.1241136,18.6435606 93.2492424,18.2140985 93.2492424,17.6689394 C93.2492424,17.2080379 93.1134242,16.8200758 92.8405303,16.5056818 Z M94.8840909,15.8768939 C95.2406136,16.4006742 95.4185606,17.0194015 95.4185606,17.7318182 C95.4185606,18.7586288 95.1041667,19.5766818 94.4753788,20.1840909 C93.8465909,20.7921288 93.0606061,21.0958333 92.1174242,21.0958333 C91.9709167,21.0958333 91.7715909,21.0857727 91.5200758,21.0643939 L91.1742424,21.0015152 C91.1327424,21.0015152 90.9856061,21.0643939 90.7340909,21.1901515 C90.4618258,21.3159091 90.3253788,21.4416667 90.3253788,21.5674242 C90.3253788,21.7774394 90.5247045,21.8818182 90.9233561,21.8818182 C91.0906136,21.8818182 91.3729394,21.8403182 91.7715909,21.7560606 C92.1909924,21.6724318 92.5475152,21.630303 92.8405303,21.630303 C94.8740303,21.630303 95.8901515,22.4477273 95.8901515,24.0825758 C95.8901515,25.0050076 95.4820682,25.7174242 94.6640152,26.2204545 C93.8465909,26.7448636 92.8619091,27.0064394 91.7093409,27.0064394 C90.3467576,27.0064394 89.1099318,26.5977273 87.9988636,25.780303 L89.3193182,24.1454545 C90.0531136,24.8163712 90.8705379,25.1515152 91.7715909,25.1515152 C92.3588788,25.1515152 92.8512197,25.0678864 93.2492424,24.9 C93.6478939,24.7113636 93.8465909,24.4598485 93.8465909,24.1454545 C93.8465909,23.6216742 93.4064394,23.3594697 92.5261364,23.3594697 C92.2953712,23.3594697 91.9495379,23.3909091 91.4886364,23.4537879 C91.0277348,23.4959167 90.6819015,23.5166667 90.4517652,23.5166667 C89.0049242,23.5166667 88.2818182,23.002947 88.2818182,21.9761364 C88.2818182,21.6831212 88.3975152,21.3894773 88.6276515,21.0958333 C88.8797955,20.8235682 89.1621212,20.6141818 89.4765152,20.4670455 C88.4497045,19.8175076 87.9366136,18.8743258 87.9366136,17.6375 C87.9366136,16.6943182 88.2925076,15.9083333 89.0049242,15.2795455 C89.7179697,14.6507576 90.5869545,14.3363636 91.6143939,14.3363636 C92.4110682,14.3363636 93.0813561,14.4835 93.6265152,14.7765152 L94.4439394,13.8333333 L95.8901515,15.1223485 L94.8840909,15.8768939 L94.8840909,15.8768939 Z"/>
    <path fill="#0A0B09" d="M36.7526515,30.8106061 C35.4743258,30.8106061 34.6776515,31.5129621 34.3632576,32.9170455 L39.1106061,32.9170455 C38.9640985,31.5129621 38.1781136,30.8106061 36.7526515,30.8106061 Z M49.1397727,36.2496212 L49.957197,38.0416667 C49.3076591,38.4403182 48.74175,38.7018939 48.2594697,38.8276515 C47.7564394,38.9326591 47.1697803,38.9848485 46.4988636,38.9848485 C44.9897727,38.9848485 43.8057652,38.544697 42.9462121,37.6643939 C42.0872879,36.7840909 41.657197,35.5686439 41.657197,34.0174242 C41.657197,32.4875833 42.1287879,31.2507576 43.0719697,30.3075758 C44.0151515,29.3643939 45.3041667,28.892803 46.9390152,28.892803 C48.0708333,28.892803 49.0561439,29.2178864 49.8943182,29.8674242 L48.919697,31.5651515 C48.3959167,31.0621212 47.6835,30.8106061 46.7818182,30.8106061 C45.9228939,30.8106061 45.2519773,31.0935606 44.769697,31.6594697 C44.2666667,32.2253788 44.0151515,33.0113636 44.0151515,34.0174242 C44.0151515,36.0716742 44.9797121,37.0984848 46.9075758,37.0984848 C47.7463788,37.0984848 48.4902348,36.8155303 49.1397727,36.2496212 Z M53.1325758,29.0814394 L53.1325758,35.2121212 C53.1325758,36.469697 53.6877955,37.0984848 54.7988636,37.0984848 C55.3226439,37.0984848 55.8049242,36.9626667 56.2450758,36.6897727 C56.6852273,36.4175076 56.9788712,36.1031136 57.1260076,35.7465909 L57.1260076,29.0814394 L59.3890152,29.0814394 L59.3890152,38.7962121 L57.1260076,38.7962121 L57.1260076,37.9787879 C56.8109848,38.251053 56.3708333,38.4925076 55.8049242,38.7018939 C55.2390152,38.8905303 54.7152348,38.9848485 54.2329545,38.9848485 C51.990697,38.9848485 50.8689394,37.7901515 50.8689394,35.4007576 L50.8689394,29.0814394 L53.1325758,29.0814394 Z M69.669697,25.3401515 C70.0469697,25.3401515 70.3613636,25.4659091 70.6128788,25.7174242 C70.8643939,25.9689394 70.9901515,26.2732727 70.9901515,26.6291667 C70.9901515,27.0064394 70.8643939,27.3208333 70.6128788,27.5723485 C70.3613636,27.8238636 70.0469697,27.9496212 69.669697,27.9496212 C69.3131742,27.9496212 69.0094697,27.8238636 68.7585833,27.5723485 C68.5064394,27.3208333 68.3806818,27.0064394 68.3806818,26.6291667 C68.3806818,26.2732727 68.5064394,25.9689394 68.7585833,25.7174242 C69.0094697,25.4659091 69.3131742,25.3401515 69.669697,25.3401515 Z M67.280303,29.1757576 L67.280303,29.0814394 L70.8021439,29.0814394 L70.8021439,38.7962121 L68.5064394,38.7962121 L68.5064394,30.9363636 L67.280303,30.9363636 L67.280303,29.6473485 L66.4943182,31.1878788 C66.0962955,30.9363636 65.6561439,30.8106061 65.1738636,30.8106061 C64.6494545,30.8106061 64.1891818,31.0413712 63.7905303,31.5022727 C63.3711288,31.984553 63.1617424,32.5712121 63.1617424,33.2628788 L63.1617424,38.7962121 L60.8987348,38.7962121 L60.8987348,29.0814394 L63.1617424,29.0814394 L63.1617424,29.9617424 C63.7905303,29.2493258 64.6287045,28.892803 65.6768939,28.892803 C66.3427803,28.892803 66.87725,28.9871212 67.280303,29.1757576 Z M75.1401515,29.0814394 L80.1075758,29.0814394 L82.7491136,35.8094697 L85.1378788,29.0814394 L87.4958333,29.0814394 L83.2515152,40.3681818 C83,40.9969697 82.4762197,41.5314394 81.6795455,41.9715909 C80.8835,42.3909924 79.9610682,42.6003788 78.9128788,42.6003788 L78.9128788,40.5882576 C80.6527348,40.5882576 81.5223485,40.1587955 81.5223485,39.2992424 C81.5223485,38.7125833 81.2815227,37.8215909 80.7992424,36.6268939 L77.8125,29.2386364 L77.8125,30.9049242 L75.1401515,30.9049242 L75.1401515,35.1492424 C75.1401515,35.8622879 75.2451591,36.3546288 75.4545455,36.6268939 C75.6853106,36.9205379 76.0726439,37.0670455 76.6184318,37.0670455 C77.1629621,37.0670455 77.6659924,36.9205379 78.1268939,36.6268939 L78.1268939,38.7018939 C77.6031136,38.8905303 76.8586288,38.9848485 75.894697,38.9848485 C74.9100152,38.9848485 74.1655303,38.7125833 73.6625,38.1674242 C73.1380909,37.6222652 72.8765152,36.8362803 72.8765152,35.8094697 L72.8765152,30.9049242 L71.7453258,30.9049242 L71.7453258,29.0814394 L72.8765152,29.0814394 L72.8765152,27.1007576 L75.1401515,26.2833333 L75.1401515,29.0814394 Z M35.0549242,36.4382576 C35.5579545,36.8784091 36.2181818,37.0984848 37.0356061,37.0984848 C38.0837955,37.0984848 38.8697803,36.8262197 39.3935606,36.2810606 L40.2738636,38.0102273 C39.4778182,38.6603939 38.2931818,38.9848485 36.7212121,38.9848485 C35.2335,38.9848485 34.059553,38.5553864 33.2,37.6958333 C32.3410758,36.8155303 31.9109848,35.6000833 31.9109848,34.0488636 C31.9109848,32.5190227 32.3825758,31.282197 33.3257576,30.3390152 C34.2689394,29.3750833 35.4007576,28.892803 36.7212121,28.892803 C38.1252955,28.892803 39.2577424,29.3228939 40.1166667,30.1818182 C40.9762197,31.0199924 41.4056818,32.0895606 41.4056818,33.3886364 C41.4056818,33.6615303 41.342803,34.080303 41.2170455,34.6462121 L34.2689394,34.6462121 C34.3110682,35.4215076 34.5726439,36.0194848 35.0549242,36.4382576 Z M27.5409091,25.2772727 C29.07075,25.2772727 30.1925076,25.5709167 30.9049242,26.1575758 L30.2132576,28.169697 C29.3750833,27.5830379 28.4947803,27.2893939 27.5723485,27.2893939 C27.0271894,27.2893939 26.6084167,27.4365303 26.3147727,27.7295455 C26.0211288,28.0231894 25.8746212,28.3897727 25.8746212,28.8299242 C25.8746212,29.6052197 26.7127955,30.4018939 28.3897727,31.2193182 C29.2914545,31.6594697 29.930303,32.0581212 30.3075758,32.4140152 C30.7062273,32.7912879 31.0099318,33.22075 31.2193182,33.7030303 C31.4287045,34.1853106 31.5337121,34.7304697 31.5337121,35.3378788 C31.5337121,36.4068182 31.10425,37.2871212 30.244697,37.9787879 C29.4065227,38.6704545 28.2747045,39.0162879 26.8492424,39.0162879 C25.6124167,39.0162879 24.4912879,38.7018939 23.4852273,38.0731061 L24.3655303,35.9352273 C25.2879621,36.6061439 26.1997045,36.9412879 27.1007576,36.9412879 C28.4840909,36.9412879 29.1757576,36.448947 29.1757576,35.4636364 C29.1757576,35.0234848 29.0185606,34.5940227 28.7041667,34.1746212 C28.3690227,33.7765985 27.6981061,33.315697 26.6920455,32.7912879 C25.6652348,32.2882576 24.9735682,31.8688561 24.6170455,31.5337121 C24.2611515,31.2193182 23.9882576,30.8319848 23.7996212,30.3704545 C23.6109848,29.909553 23.5166667,29.4065227 23.5166667,28.8613636 C23.5166667,27.834553 23.8939394,26.9856894 24.6484848,26.3147727 C25.4030303,25.6231061 26.3675909,25.2772727 27.5409091,25.2772727 L27.5409091,25.2772727 Z"/>
  </g>
</svg>
