<svg xmlns="http://www.w3.org/2000/svg" xmlns:xlink="http://www.w3.org/1999/xlink" width="511" height="414" viewBox="0 0 511 414">
  <defs>
    <path id="sorting@1x-a" d="M230.55,106.108 L230.546,106.108 C230.501,107.128 229.939,108.059 229.05,108.572 C209.813,119.678 134.746,163.0184 118.77,172.2419 C116.914,173.3137 114.627,173.3137 112.77,172.2419 C96.795,163.0184 21.727,119.678 2.491,108.572 C1.602,108.059 1.039,107.128 0.994,106.108 L0.991,106.108 L0.991,0.974 L230.55,0.974 L230.55,106.108 Z"/>
    <linearGradient id="sorting@1x-c" x1="50%" x2="50%" y1="1.694%" y2="100%">
      <stop offset="0%" stop-color="#3F6C9F" stop-opacity="0"/>
      <stop offset="100%" stop-color="#3F6C9F" stop-opacity=".9"/>
    </linearGradient>
    <path id="sorting@1x-d" d="M71.552,1.148 C70.066,0.29 68.236,0.29 66.75,1.148 C56.486,7.074 16.197,30.335 2.489,38.249 C1.541,38.796 0.957,39.808 0.957,40.902 C0.957,41.997 1.541,43.008 2.489,43.555 C16.197,51.469 56.486,74.73 66.75,80.656 C68.236,81.514 70.066,81.514 71.552,80.656 C81.816,74.73 122.105,51.469 135.813,43.555 C136.761,43.008 137.345,41.997 137.345,40.902 C137.345,39.808 136.761,38.796 135.813,38.249 C122.105,30.335 81.816,7.074 71.552,1.148 Z"/>
    <path id="sorting@1x-f" d="M3.8556,73.952 C0.6106,72.393 -0.0687,69.811 0.1269,66.881 C0.1269,60.932 4.3093,53.688 9.4609,50.714 L96.293,0.581 L132.739,21.216 L132.96,38.14 L63.972,77.969 L66.737,79.018 L53.625,101.7291 L3.8556,73.952 Z"/>
    <polygon id="sorting@1x-h" points="33.956 .402 65.133 18.402 65.739 33.752 44.248 44.575 .081 19.075"/>
    <polygon id="sorting@1x-j" points=".958 17.181 29.536 .681 29.536 51.439 .958 66.181"/>
    <polygon id="sorting@1x-l" points="48.095 .902 .463 .902 .463 55.902 29.908 72.902 48.095 62.402"/>
    <polygon id="sorting@1x-n" points="28.87 17.402 .291 .902 .291 52.113 28.87 66.402"/>
    <path id="sorting@1x-p" d="M138.522,84.197 C138.522,80.039 136.304,76.197 132.703,74.118 C109.982,61 27.447,13.349 6.02,0.978 C4.966,0.369 3.667,0.369 2.613,0.978 C1.559,1.586 0.91,2.711 0.91,3.928 C0.91,24.063 0.91,89.984 0.91,111.308 C0.91,115.466 3.128,119.308 6.729,121.387 C29.45,134.505 111.985,182.157 133.412,194.527 C134.466,195.136 135.765,195.136 136.819,194.527 C137.873,193.919 138.522,192.794 138.522,191.577 C138.522,171.443 138.522,105.521 138.522,84.197 Z"/>
    <path id="sorting@1x-r" d="M81.016,22.239 L9.584,63.4801 C4.432,66.4544 0.25,64.0397 0.25,58.0911 C0.25,52.143 4.432,44.898 9.584,41.924 L81.016,0.679"/>
    <polygon id="sorting@1x-t" points="15.528 8.974 .549 .326 .549 32.326 15.528 40.974"/>
    <path id="sorting@1x-v" d="M8.984,71.376 L2.279,52.417 C1.092,50.829 0.605,48.826 0.931,46.871 C1.521,43.33 2.511,37.385 3.294,32.689 C3.998,28.464 7.253,25.121 11.458,24.306 C19.899,22.671 32.973,20.137 32.973,20.137 C32.973,20.137 41.06,15.469 44.024,13.757 C44.737,13.346 45.393,12.843 45.975,12.263 C48.623,9.624 56.352,1.924 56.352,1.924 C56.514,1.726 56.695,1.545 56.894,1.383 L57.029,1.249 L57.044,1.267 C57.674,0.804 58.452,0.53 59.294,0.53 C61.393,0.53 63.098,2.234 63.098,4.334 C63.098,5.437 62.627,6.431 61.875,7.126 L61.892,7.146 C61.892,7.146 53.663,16.713 50.578,20.3 C49.815,21.187 48.929,21.959 47.946,22.594 C45.355,24.266 39.987,27.729 36.942,29.694 C35.536,30.601 34.648,32.125 34.551,33.795 C34.18,40.181 33.252,56.15 33.024,60.064 C32.99,60.647 33,61.232 33.052,61.814 C33.488,66.623 35.571,89.637 35.571,89.637 L36.6,117.3322 C36.603,117.3891 36.605,117.4461 36.606,117.5033 L36.607,117.5089 C36.607,117.5482 36.608,117.5878 36.608,117.6274 C36.608,120.6828 34.127,123.1633 31.072,123.1633 C28.017,123.1633 25.536,120.6828 25.536,117.6274 C25.536,117.5617 25.537,117.4963 25.54,117.4312 L25.536,117.4312 L24.313,91.137 L21.715,74.637 L19.983,116.4186 L19.983,116.4411 C19.983,119.4964 17.502,121.977 14.447,121.977 C11.392,121.977 8.911,119.4964 8.911,116.4411 C8.911,116.4168 8.911,116.3926 8.912,116.3684 L8.907,116.3682 L8.915,116.2418 C8.918,116.1444 8.924,116.0477 8.932,115.9515 L10.457,91.137 L8.984,71.376 Z"/>
    <path id="sorting@1x-x" d="M11.518,0.559 C17.484,0.559 22.327,5.402 22.327,11.368 C22.327,17.334 17.484,22.177 11.518,22.177 C5.552,22.177 0.709,17.334 0.709,11.368 C0.709,5.402 5.552,0.559 11.518,0.559 Z"/>
    <path id="sorting@1x-z" d="M11.736,0.002 C17.702,0.002 22.546,4.845 22.546,10.811 C22.546,16.776 17.702,21.62 11.736,21.62 C5.771,21.62 0.927,16.776 0.927,10.811 C0.927,4.845 5.771,0.002 11.736,0.002 Z"/>
    <path id="sorting@1x-B" d="M7.606,14.554 L14.498,22.576 C14.638,22.739 14.849,22.822 15.063,22.799 C15.277,22.776 15.465,22.649 15.567,22.459 C16.86,20.049 20.643,12.996 22.926,8.74 C24.08,6.587 26.077,5.01 28.439,4.386 C31.683,3.528 36.526,2.248 40.756,1.13 C42.757,0.601 44.89,1.087 46.465,2.429 C48.04,3.772 48.856,5.801 48.65,7.861 C47.454,19.819 45.497,39.379 45.497,39.379 L44.041,71.3277 L45.521,96.5337 C45.546,96.7482 45.559,96.9664 45.559,97.1876 C45.559,100.243 43.078,102.7235 40.023,102.7235 C37.146,102.7235 34.778,100.5233 34.512,97.7148 L34.487,97.7159 L32.372,71.956 L33.372,50.379 C33.372,50.379 29.479,73.0491 29.479,73.0491 L27.31,97.8786 L27.295,97.8781 C27.085,100.7418 24.691,103.0031 21.774,103.0031 C18.719,103.0031 16.238,100.5225 16.238,97.4672 C16.238,97.2675 16.249,97.0703 16.27,96.8761 L17.646,70.929 L21.248,41.379 L22.609,26.639 C22.609,26.639 20.855,28.716 19.147,30.737 C18.336,31.697 17.152,32.265 15.896,32.297 C14.639,32.329 13.428,31.823 12.569,30.905 L1.83,19.436 C1.726,19.336 1.627,19.231 1.535,19.121 L1.53,19.115 L1.53,19.115 C0.981,18.455 0.65,17.607 0.65,16.682 C0.65,14.583 2.354,12.879 4.454,12.879 C5.765,12.879 6.922,13.543 7.606,14.554 Z"/>
  </defs>
  <g fill="none" fill-rule="evenodd">
    <g opacity=".1" transform="translate(0 164)">
      <path fill="#3F6C9F" d="M178.749 221.4395C176.891 220.5108 174.705 220.5108 172.848 221.4395 168.824 223.4515 161.647 227.0398 157.545 229.091 156.957 229.3849 156.585 229.9858 156.585 230.643 156.585 231.3003 156.957 231.9011 157.545 232.195 160.02 233.4327 163.464 235.1546 165.898 236.3717 167.755 237.3004 169.942 237.3004 171.799 236.3717 175.823 234.3597 183 230.7714 187.102 228.7202 187.69 228.4263 188.061 227.8255 188.061 227.1682 188.061 226.511 187.69 225.9101 187.102 225.6162 184.627 224.3785 181.183 222.6566 178.749 221.4395zM220.017 1.535C217.301-.033 213.937-.024 211.193 1.56 187.584 15.191 76.6444 79.242 48.2157 95.655 46.8439 96.447 45.9906 97.906 45.9769375 99.482 45.9636 101.059 46.792 102.513 48.1502 103.297 76.2991 119.549 186.147 182.969 209.524 196.4659 212.24 198.0342 215.604 198.0246 218.347 196.4407 241.957 182.8097 352.896 118.759 381.325 102.345 382.697 101.553 383.55 100.095 383.564151 98.518 383.577 96.942 382.749 95.488 381.391 94.704 353.242 78.452 243.394 15.032 220.017 1.535zM411.636 115.862C410.007 114.922 408.352 114.718 407.295 115.328 398.199 120.58 355.457 145.2573 344.504 151.581 343.976 151.8861 343.826 152.5517 344.112 153.3271 344.398 154.1025 345.076 154.8698 345.89 155.34 362.77 165.0854 428.64 203.1153 442.658 211.2087 444.287 212.1491 445.941 212.3526 446.998 211.7423 456.095 206.4906 498.837 181.8133 509.79 175.4897 510.318 175.1845 510.468 174.5189 510.182 173.7436 509.896 172.9682 509.218 172.2009 508.403 171.7306 491.524 161.9853 425.654 123.955 411.636 115.862zM81.6025 136.79C79.7461 135.718 77.459 135.718 75.6026 136.79 63.006 144.0629 14.4625 172.0894 1.866 179.3621 1.2472 179.7193.866 180.3796.866 181.0941.866 181.8086 1.2472 182.4689 1.866 182.8261 14.1504 189.9186 60.5424 216.703 72.8268 223.7954 74.6832 224.8672 76.9704 224.8672 78.8268 223.7954 91.4233 216.5228 139.967 188.4962 152.563 181.2236 153.182 180.8663 153.563 180.206 153.563 179.4915 153.563 178.777 153.182 178.1167 152.563 177.7595 140.279 170.6671 93.8869 143.8827 81.6025 136.79z"/>
      <path stroke="#EFF4F7" stroke-linecap="round" stroke-linejoin="round" d="M81.6025,136.79 C79.7461,135.718 77.459,135.718 75.6026,136.79 C63.006,144.0629 14.4625,172.0894 1.866,179.3621 C1.2472,179.7193 0.866,180.3796 0.866,181.0941 C0.866,181.8086 1.2472,182.4689 1.866,182.8261 C14.1504,189.9186 60.5424,216.703 72.8268,223.7954 C74.6832,224.8672 76.9704,224.8672 78.8268,223.7954 C91.4233,216.5228 139.967,188.4962 152.563,181.2236 C153.182,180.8663 153.563,180.206 153.563,179.4915 C153.563,178.777 153.182,178.1167 152.563,177.7595 C140.279,170.6671 93.8869,143.8827 81.6025,136.79 Z"/>
      <path stroke="#3F6C9F" stroke-linecap="round" stroke-linejoin="round" stroke-width="2" d="M126.737 188.6072C126.737 188.6072 137.99 195.1043 143.343 198.1947 145.054 199.1828 147.163 199.1828 148.875 198.1947 153.095 195.758 160.658 191.3914 160.658 191.3914M161.876 187.3601C163.5 186.4225 166.137 186.4225 167.761 187.3601 169.385 188.2977 169.385 189.8201 167.761 190.7577 166.137 191.6954 163.5 191.6954 161.876 190.7577 160.252 189.8201 160.252 188.2977 161.876 187.3601zM285.659 151.1112C285.659 151.1112 296.913 157.6083 302.265 160.6986 303.977 161.6868 306.085 161.6868 307.797 160.6986 312.017 158.262 319.58 153.8954 319.58 153.8954M320.798 149.864C322.422 148.9264 325.059 148.9264 326.683 149.864 328.307 150.8016 328.307 152.3241 326.683 153.2617 325.059 154.1993 322.422 154.1993 320.798 153.2617 319.174 152.3241 319.174 150.8016 320.798 149.864zM409.952 181.2079C409.952 181.2079 403.124 184.6223 399.794 186.2869 398.682 186.8433 397.364 186.8037 396.286 186.1817 394.635 185.2282 392.117 183.7743 390.185 182.6592 388.474 181.671 386.365 181.671 384.654 182.6592 380.433 185.0958 372.87 189.4624 372.87 189.4624M371.652 193.4938C370.028 194.4314 367.391 194.4314 365.767 193.4938 364.143 192.5561 364.143 191.0337 365.767 190.0961 367.391 189.1585 370.028 189.1585 371.652 190.0961 373.276 191.0337 373.276 192.5561 371.652 193.4938z"/>
      <path fill="#3F6C9F" d="M311.706,199.5201 C310.088,198.7109 308.183,198.7109 306.564,199.5201 C299.863,202.8706 281.88,211.8622 274.619,215.4927 C274.032,215.7866 273.66,216.3874 273.66,217.0447 C273.66,217.7019 274.032,218.3027 274.619,218.5967 C280.39,221.4821 292.669,227.6213 298.01,230.2918 C299.628,231.1011 301.533,231.1011 303.152,230.2918 C309.853,226.9413 327.836,217.9498 335.097,214.3193 C335.685,214.0254 336.056,213.4246 336.056,212.7673 C336.056,212.1101 335.685,211.5092 335.097,211.2153 C329.326,208.3299 317.047,202.1907 311.706,199.5201 Z"/>
    </g>
    <g transform="translate(39 20)">
      <path fill="#EFF4F7" d="M461.162,151.047 C461.162,146.889 458.943,143.046 455.342,140.967 C432.622,127.85 350.086,80.198 328.66,67.827 C327.605,67.218 326.307,67.218 325.253,67.827 C324.198,68.436 323.549,69.56 323.549,70.778 C323.549,90.912 323.549,156.834 323.549,178.157 C323.549,182.315 325.767,186.157 329.368,188.236 C352.089,201.354 434.624,249.006 456.051,261.377 C457.105,261.985 458.404,261.985 459.458,261.377 C460.512,260.768 461.162,259.643 461.162,258.426 C461.162,238.292 461.162,172.37 461.162,151.047 Z"/>
      <path stroke="#01050C" stroke-linecap="round" stroke-linejoin="round" d="M461.162,151.047 C461.162,146.889 458.943,143.046 455.342,140.967 C432.622,127.85 350.086,80.198 328.66,67.827 C327.605,67.218 326.307,67.218 325.253,67.827 C324.198,68.436 323.549,69.56 323.549,70.778 C323.549,90.912 323.549,156.834 323.549,178.157 C323.549,182.315 325.767,186.157 329.368,188.236 C352.089,201.354 434.624,249.006 456.051,261.377 C457.105,261.985 458.404,261.985 459.458,261.377 C460.512,260.768 461.162,259.643 461.162,258.426 C461.162,238.292 461.162,172.37 461.162,151.047 Z"/>
      <polygon stroke="#05122C" stroke-linecap="round" stroke-linejoin="round" points="17.591 300.422 15.696 301.516 34.199 312.199 36.094 311.104"/>
      <path fill="#3F6C9F" fill-opacity=".12" d="M359.944 289.2106C370.618 291.6812 378.38 297.6304 377.266 302.4877 376.153 307.345 366.583 309.2827 355.909 306.8121 345.236 304.3416 337.474 298.3924 338.587 293.5351 339.701 288.6778 349.27 286.74 359.944 289.2106zM86.273 213.688C95.602 210.781 104.257 211.863 105.589 216.104 106.92 220.344 100.427 226.148 91.097 229.055 81.768 231.962 73.113 230.88 71.782 226.639 70.45 222.399 76.943 216.596 86.273 213.688z"/>
      <path fill="#5A6D83" fill-opacity=".2" d="M175.059,304.9643 C175.059,304.9643 201.54,304.7512 211.642,304.6699 C214.164,304.6496 216.635,303.9564 218.8,302.6619 C234.432,293.3155 300.937,253.551 319.577,242.405 C320.566,241.814 321.158,240.735 321.126311,239.584 C321.093,238.433 320.441,237.389 319.421,236.855 C300.917,227.16 237.702,194.041 237.702,194.041 L174.914,191.354 L175.059,304.9643 Z"/>
      <path fill="#FFF" d="M289.55,237.677 L289.546,237.677 C289.501,238.697 288.939,239.628 288.05,240.141 C268.813,251.247 193.746,294.5874 177.77,303.8109 C175.914,304.8827 173.627,304.8827 171.77,303.8109 C155.795,294.5874 80.727,251.247 61.491,240.141 C60.602,239.628 60.039,238.697 59.994,237.677 L59.991,237.677 L59.991,132.543 L289.55,132.543 L289.55,237.677 Z"/>
      <g transform="translate(59 131.569)">
        <mask id="sorting@1x-b" fill="#fff">
          <use xlink:href="#sorting@1x-a"/>
        </mask>
        <polygon fill="#EFF4F7" points="116.265 187.075 234.265 187.075 234.265 -43.925 116.265 -43.925" mask="url(#sorting@1x-b)"/>
      </g>
      <path stroke="#01050C" stroke-linecap="round" stroke-linejoin="round" d="M289.55,237.677 L289.546,237.677 C289.501,238.697 288.939,239.628 288.05,240.141 C268.813,251.247 193.746,294.5874 177.77,303.8109 C175.914,304.8827 173.627,304.8827 171.77,303.8109 C155.795,294.5874 80.727,251.247 61.491,240.141 C60.602,239.628 60.039,238.697 59.994,237.677 L59.991,237.677 L59.991,132.543 L289.55,132.543 L289.55,237.677 Z"/>
      <path fill="#FFF" d="M177.77,65.275 C175.914,64.203 173.627,64.203 171.77,65.275 C155.795,74.498 80.727,117.839 61.491,128.945 C60.563,129.481 59.991,130.471 59.991,131.543 C59.991,132.615 60.563,133.605 61.491,134.141 C80.727,145.247 155.795,188.587 171.77,197.811 C173.627,198.883 175.914,198.883 177.77,197.811 C193.746,188.587 268.813,145.247 288.05,134.141 C288.978,133.605 289.55,132.615 289.55,131.543 C289.55,130.471 288.978,129.481 288.05,128.945 C268.813,117.839 193.746,74.498 177.77,65.275 Z"/>
      <path stroke="#01050C" stroke-linecap="round" stroke-linejoin="round" d="M177.77,65.275 C175.914,64.203 173.627,64.203 171.77,65.275 C155.795,74.498 80.727,117.839 61.491,128.945 C60.563,129.481 59.991,130.471 59.991,131.543 C59.991,132.615 60.563,133.605 61.491,134.141 C80.727,145.247 155.795,188.587 171.77,197.811 C173.627,198.883 175.914,198.883 177.77,197.811 C193.746,188.587 268.813,145.247 288.05,134.141 C288.978,133.605 289.55,132.615 289.55,131.543 C289.55,130.471 288.978,129.481 288.05,128.945 C268.813,117.839 193.746,74.498 177.77,65.275 Z"/>
      <polygon fill="url(#sorting@1x-c)" points="242.831 127.599 174.443 87.25 105.858 127.36 98 45.518 258.598 42" opacity=".2"/>
      <path fill="#5A6D83" d="M177.552,88.717 C176.066,87.859 174.236,87.859 172.75,88.717 C162.486,94.643 122.197,117.904 108.489,125.818 C107.541,126.365 106.957,127.377 106.957,128.471 C106.957,129.566 107.541,130.577 108.489,131.124 C122.197,139.038 162.486,162.299 172.75,168.225 C174.236,169.083 176.066,169.083 177.552,168.225 C187.816,162.299 228.105,139.038 241.813,131.124 C242.761,130.577 243.345,129.566 243.345,128.471 C243.345,127.377 242.761,126.365 241.813,125.818 C228.105,117.904 187.816,94.643 177.552,88.717 Z"/>
      <g transform="translate(106 87.569)">
        <mask id="sorting@1x-e" fill="#fff">
          <use xlink:href="#sorting@1x-d"/>
        </mask>
        <polygon fill="#01050C" points="-23.735 109.075 68.771 109.075 68.771 -36.925 -23.735 -36.925" mask="url(#sorting@1x-e)"/>
      </g>
      <path stroke="#01050C" stroke-linecap="round" stroke-linejoin="round" d="M177.552 88.717C176.066 87.859 174.236 87.859 172.75 88.717 162.486 94.643 122.197 117.904 108.489 125.818 107.541 126.365 106.957 127.377 106.957 128.471 106.957 129.566 107.541 130.577 108.489 131.124 122.197 139.038 162.486 162.299 172.75 168.225 174.236 169.083 176.066 169.083 177.552 168.225 187.816 162.299 228.105 139.038 241.813 131.124 242.761 130.577 243.345 129.566 243.345 128.471 243.345 127.377 242.761 126.365 241.813 125.818 228.105 117.904 187.816 94.643 177.552 88.717zM289.55 229.471L289.55 229.543C289.55 230.615 288.978 231.605 288.05 232.141 268.813 243.247 193.746 286.587 177.77 295.8109 175.914 296.8827 173.627 296.8827 171.77 295.8109 155.795 286.587 80.727 243.247 61.491 232.141 60.563 231.605 59.991 230.615 59.991 229.543L59.991 229.471"/>
      <line x1="193.739" x2="234.02" y1="209.599" y2="186.343" stroke="#01050C" stroke-linecap="round" stroke-linejoin="round"/>
      <line x1="193.739" x2="234.02" y1="221.599" y2="198.343" stroke="#01050C" stroke-linecap="round" stroke-linejoin="round"/>
      <line x1="193.739" x2="234.02" y1="233.599" y2="210.343" stroke="#01050C" stroke-linecap="round" stroke-linejoin="round"/>
      <line x1="193.739" x2="234.02" y1="245.855" y2="222.599" stroke="#01050C" stroke-linecap="round" stroke-linejoin="round"/>
      <polygon stroke="#01050C" stroke-linecap="round" stroke-linejoin="round" points="142.865 205.971 83.543 171.721 83.543 162.721 142.865 196.971"/>
      <path fill="#B1BBC9" d="M71.325,158.667 C69.717,157.739 68.412,158.493 68.412,160.349 C68.412,162.205 69.717,164.465 71.325,165.394 C72.932,166.322 74.237,165.568 74.237,163.712 C74.237,161.856 72.932,159.595 71.325,158.667 Z"/>
      <path stroke="#01050C" stroke-linecap="round" stroke-linejoin="round" d="M71.325,158.667 C69.717,157.739 68.412,158.493 68.412,160.349 C68.412,162.205 69.717,164.465 71.325,165.394 C72.932,166.322 74.237,165.568 74.237,163.712 C74.237,161.856 72.932,159.595 71.325,158.667 Z"/>
      <path fill="#B1BBC9" d="M162.902,212.54 C161.295,211.611 159.99,212.365 159.99,214.221 C159.99,216.077 161.295,218.338 162.902,219.266 C164.51,220.194 165.815,219.441 165.815,217.584 C165.815,215.728 164.51,213.468 162.902,212.54 Z"/>
      <path stroke="#01050C" stroke-linecap="round" stroke-linejoin="round" d="M162.902,212.54 C161.295,211.611 159.99,212.365 159.99,214.221 C159.99,216.077 161.295,218.338 162.902,219.266 C164.51,220.194 165.815,219.441 165.815,217.584 C165.815,215.728 164.51,213.468 162.902,212.54 Z"/>
      <path fill="#B1BBC9" d="M162.902,227.54 C161.295,226.611 159.99,227.365 159.99,229.221 C159.99,231.077 161.295,233.338 162.902,234.266 C164.51,235.194 165.815,234.441 165.815,232.584 C165.815,230.728 164.51,228.468 162.902,227.54 Z"/>
      <path stroke="#01050C" stroke-linecap="round" stroke-linejoin="round" d="M162.902,227.54 C161.295,226.611 159.99,227.365 159.99,229.221 C159.99,231.077 161.295,233.338 162.902,234.266 C164.51,235.194 165.815,234.441 165.815,232.584 C165.815,230.728 164.51,228.468 162.902,227.54 Z"/>
      <path fill="#B1BBC9" d="M278.831,164.608 C280.439,163.68 281.744,164.433 281.744,166.29 C281.744,168.146 280.439,170.406 278.831,171.334 C277.224,172.262 275.919,171.509 275.919,169.653 C275.919,167.797 277.224,165.536 278.831,164.608 Z"/>
      <path stroke="#01050C" stroke-linecap="round" stroke-linejoin="round" d="M278.831,164.608 C280.439,163.68 281.744,164.433 281.744,166.29 C281.744,168.146 280.439,170.406 278.831,171.334 C277.224,172.262 275.919,171.509 275.919,169.653 C275.919,167.797 277.224,165.536 278.831,164.608 Z"/>
      <path fill="#B1BBC9" d="M278.831,179.608 C280.439,178.68 281.744,179.433 281.744,181.29 C281.744,183.146 280.439,185.406 278.831,186.334 C277.224,187.262 275.919,186.509 275.919,184.653 C275.919,182.797 277.224,180.536 278.831,179.608 Z"/>
      <path stroke="#01050C" stroke-linecap="round" stroke-linejoin="round" d="M278.831,179.608 C280.439,178.68 281.744,179.433 281.744,181.29 C281.744,183.146 280.439,185.406 278.831,186.334 C277.224,187.262 275.919,186.509 275.919,184.653 C275.919,182.797 277.224,180.536 278.831,179.608 Z"/>
      <path fill="#4D72EF" d="M278.831,220.353 C280.439,219.425 281.744,220.178 281.744,222.034 C281.744,223.89 280.439,226.151 278.831,227.079 C277.224,228.007 275.919,227.254 275.919,225.397 C275.919,223.541 277.224,221.281 278.831,220.353 Z"/>
      <path stroke="#01050C" stroke-linecap="round" stroke-linejoin="round" d="M278.831,220.353 C280.439,219.425 281.744,220.178 281.744,222.034 C281.744,223.89 280.439,226.151 278.831,227.079 C277.224,228.007 275.919,227.254 275.919,225.397 C275.919,223.541 277.224,221.281 278.831,220.353 Z"/>
      <path fill="#E01A33" d="M202.831,258.353 C204.439,257.425 205.744,258.178 205.744,260.034 C205.744,261.89 204.439,264.151 202.831,265.079 C201.224,266.007 199.919,265.254 199.919,263.397 C199.919,261.541 201.224,259.281 202.831,258.353 Z"/>
      <path stroke="#01050C" stroke-linecap="round" stroke-linejoin="round" d="M202.831,258.353 C204.439,257.425 205.744,258.178 205.744,260.034 C205.744,261.89 204.439,264.151 202.831,265.079 C201.224,266.007 199.919,265.254 199.919,263.397 C199.919,261.541 201.224,259.281 202.831,258.353 Z"/>
      <path fill="#B1BBC9" d="M71.325,173.667 C69.717,172.739 68.412,173.493 68.412,175.349 C68.412,177.205 69.717,179.465 71.325,180.394 C72.932,181.322 74.237,180.568 74.237,178.712 C74.237,176.856 72.932,174.595 71.325,173.667 Z"/>
      <path stroke="#01050C" stroke-linecap="round" stroke-linejoin="round" d="M71.325 173.667C69.717 172.739 68.412 173.493 68.412 175.349 68.412 177.205 69.717 179.465 71.325 180.394 72.932 181.322 74.237 180.568 74.237 178.712 74.237 176.856 72.932 174.595 71.325 173.667zM266.707 173.2C266.707 172.224 266.187 171.323 265.342 170.835 264.497 170.348 263.457 170.348 262.612 170.835 259.038 172.899 254.01 175.802 251.299 177.367 250.116 178.05 249.386 179.313 249.386 180.68 249.386 188.124 249.386 212.405 249.386 222.743 249.386 223.718 249.907 224.619 250.751 225.107 251.596 225.595 252.637 225.595 253.481 225.107 257.056 223.043 262.083 220.141 264.794 218.575 265.978 217.892 266.707 216.629 266.707 215.263 266.707 207.819 266.707 183.537 266.707 173.2z"/>
      <polygon fill="#05122C" points="141.566 213.721 83.543 180.221 83.543 223.721 141.566 257.221"/>
      <polygon stroke="#01050C" stroke-linecap="round" stroke-linejoin="round" points="141.566 213.721 83.543 180.221 83.543 223.721 141.566 257.221"/>
      <path fill="#5A6D83" fill-opacity=".2" d="M101.522,264.122 C101.522,264.122 66.237,281.765 51.4584,289.1541 C50.2159,289.7753 49.4217,291.0357 49.3970314,292.4247 C49.3734,293.8136 50.1233,295.1009 51.3434,295.765 C58.8442,299.8474 71.254,306.6016 78.219,310.3927 C81.448,312.1499 85.332,312.2175 88.619,310.5736 C102.544,303.6114 139.372,285.197 139.372,285.197 L140.199,256.221 L111.403,241.823 L101.522,264.122 Z"/>
      <line x1="195.908" x2="195.908" y1="8.471" y2="23.471" stroke="#B1BBC9" stroke-linecap="round" stroke-linejoin="round" stroke-width="2"/>
      <line x1="122.958" x2="122.958" y1="59.971" y2="74.179" stroke="#B1BBC9" stroke-linecap="round" stroke-linejoin="round" stroke-width="2"/>
      <line x1="226.87" x2="226.87" y1="54.258" y2="73.43" stroke="#B1BBC9" stroke-linecap="round" stroke-linejoin="round" stroke-width="2"/>
      <polygon fill="#FFF" points="141.739 230.33 70.985 271.18 70.985 292.736 141.739 251.886"/>
      <polygon stroke="#01050C" stroke-linecap="round" stroke-linejoin="round" points="141.739 230.33 70.985 271.18 70.985 292.736 141.739 251.886"/>
      <path fill="#FFF" d="M89.893,224.206 L18.4609,265.447 C13.3093,268.421 9.1269,266.006 9.1269,260.058 C9.1269,254.109 13.3093,246.865 18.4609,243.891 L89.893,202.645"/>
      <path stroke="#01050C" stroke-linecap="round" stroke-linejoin="round" d="M89.893,224.206 L18.4609,265.447 C13.3093,268.421 9.1269,266.006 9.1269,260.058 C9.1269,254.109 13.3093,246.865 18.4609,243.891 L89.893,202.645"/>
      <path fill="#FFF" d="M12.8556,266.521 C9.6106,264.962 8.9313,262.38 9.1269,259.45 C9.1269,253.501 13.3093,246.257 18.4609,243.283 L105.293,193.15 L141.739,213.785 L141.96,230.709 L72.972,270.538 L75.737,271.587 L62.625,294.2981 L12.8556,266.521 Z"/>
      <g transform="translate(9 192.569)">
        <mask id="sorting@1x-g" fill="#fff">
          <use xlink:href="#sorting@1x-f"/>
        </mask>
        <polygon fill="#B1BBC9" fill-opacity=".3" points="48.562 45.259 74.543 60.259 116.112 36.259 90.131 21.259" mask="url(#sorting@1x-g)"/>
        <path fill="#B1BBC9" fill-opacity=".3" d="M10.3982,81.334 L36.3789,96.3344 C41.4055,82.65 52.705,71.897 69.021,63.488 L43.0407,48.488 C28.0209,56.188 17.47,67.395 10.3982,81.334 Z" mask="url(#sorting@1x-g)"/>
        <polygon fill="#B1BBC9" fill-opacity=".3" points="95.332 18.256 121.313 33.256 162.882 9.256 136.902 -5.744" mask="url(#sorting@1x-g)"/>
      </g>
      <path stroke="#01050C" stroke-linecap="round" stroke-linejoin="round" d="M12.8556,266.521 C9.6106,264.962 8.9313,262.38 9.1269,259.45 C9.1269,253.501 13.3093,246.257 18.4609,243.283 L105.293,193.15 L141.739,213.785 L141.96,230.709 L72.972,270.538 L75.737,271.587 L62.625,294.2981 L12.8556,266.521 Z"/>
      <polygon fill="#FFF" points="55.755 234.915 81.736 249.915 123.305 225.915 97.325 210.915"/>
      <polygon stroke="#01050C" stroke-linecap="round" stroke-linejoin="round" points="55.755 234.915 81.736 249.915 123.305 225.915 97.325 210.915"/>
      <polyline stroke="#E01A33" stroke-linecap="round" stroke-linejoin="round" points="96.568 221.934 101.025 221.182 101.492 223.267"/>
      <path stroke="#E01A33" stroke-linecap="round" stroke-linejoin="round" d="M94.742,219.755 C97.403,218.219 101.725,218.219 104.386,219.755 C107.047,221.292 107.047,223.787 104.386,225.323 C101.725,226.86 97.403,226.86 94.742,225.323 C92.081,223.787 92.081,221.292 94.742,219.755 Z"/>
      <path fill="#EFF4F7" d="M76.311,237.98 C75.668,238.105 75.009,238.031 74.582,237.784 C74.155,237.538 74.026,237.157 74.243,236.786 C75.995,233.796 79.478,227.851 81.225,224.871 C81.441,224.501 81.97,224.197 82.611,224.073 C83.252,223.949 83.909,224.024 84.334,224.269 C87.756,226.245 94.569,230.178 97.99,232.154 C98.416,232.399 98.546,232.779 98.331,233.149 C98.116,233.519 97.589,233.824 96.949,233.949 C91.786,234.957 81.489,236.969 76.311,237.98 Z"/>
      <path stroke="#01050C" stroke-linecap="round" stroke-linejoin="round" d="M76.311,237.98 C75.668,238.105 75.009,238.031 74.582,237.784 C74.155,237.538 74.026,237.157 74.243,236.786 C75.995,233.796 79.478,227.851 81.225,224.871 C81.441,224.501 81.97,224.197 82.611,224.073 C83.252,223.949 83.909,224.024 84.334,224.269 C87.756,226.245 94.569,230.178 97.99,232.154 C98.416,232.399 98.546,232.779 98.331,233.149 C98.116,233.519 97.589,233.824 96.949,233.949 C91.786,234.957 81.489,236.969 76.311,237.98 Z"/>
      <line x1="79.771" x2="85.047" y1="234.788" y2="231.742" stroke="#01050C" stroke-linecap="round" stroke-linejoin="round"/>
      <path fill="#000" d="M86.731,230.77 C86.25,230.492 86.313,230.005 86.872,229.682 C87.43,229.36 88.275,229.323 88.756,229.601 C89.237,229.879 89.174,230.366 88.615,230.689 C88.056,231.011 87.212,231.048 86.731,230.77 Z"/>
      <path fill="#FFF" d="M17.5914,270.99 L43.5722,285.99 C48.5987,272.306 59.899,261.553 76.215,253.144 L50.2339,238.144 C35.2142,245.844 24.6632,257.051 17.5914,270.99 Z"/>
      <path stroke="#01050C" stroke-linecap="round" stroke-linejoin="round" d="M17.5914,270.99 L43.5722,285.99 C48.5987,272.306 59.899,261.553 76.215,253.144 L50.2339,238.144 C35.2142,245.844 24.6632,257.051 17.5914,270.99 Z"/>
      <path stroke="#E01A33" stroke-linecap="round" stroke-linejoin="round" d="M47.6098,247.407 C50.2711,245.871 54.5924,245.871 57.2538,247.407 C59.915,248.944 59.915,251.439 57.2538,252.975 C54.5924,254.512 50.2711,254.512 47.6098,252.975 C44.9485,251.439 44.9485,248.944 47.6098,247.407 Z"/>
      <path fill="#EFF4F7" d="M36.0237,253.964 C36.1375,253.515 36.4548,253.146 36.8812,252.966 C37.3075,252.786 37.7935,252.816 38.1942,253.048 C41.1953,254.78 47.4774,258.407 51.0968,260.497 C51.5851,260.779 51.8641,261.319 51.8109,261.881 C51.7577,262.442 51.3821,262.921 50.8497,263.106 C46.1294,264.747 37.0939,267.889 33.5379,269.126 C33.2427,269.229 32.9149,269.161 32.6846,268.95 C32.4542,268.738 32.3585,268.418 32.4353,268.115 C33.2496,264.903 35.1351,257.468 36.0237,253.964 Z"/>
      <path stroke="#01050C" stroke-linecap="round" stroke-linejoin="round" d="M36.0237 253.964C36.1375 253.515 36.4548 253.146 36.8812 252.966 37.3075 252.786 37.7935 252.816 38.1942 253.048 41.1953 254.78 47.4774 258.407 51.0968 260.497 51.5851 260.779 51.8641 261.319 51.8109 261.881 51.7577 262.442 51.3821 262.921 50.8497 263.106 46.1294 264.747 37.0939 267.889 33.5379 269.126 33.2427 269.229 32.9149 269.161 32.6846 268.95 32.4542 268.738 32.3585 268.418 32.4353 268.115 33.2496 264.903 35.1351 257.468 36.0237 253.964zM35.5115 265.644C36.8202 263.586 38.1966 261.935 39.6879 260.972"/>
      <path fill="#000" d="M40.7132,259.647 C40.2322,259.37 40.2953,258.882 40.8542,258.56 C41.413,258.237 42.2573,258.2 42.7383,258.478 C43.2193,258.756 43.1561,259.243 42.5973,259.566 C42.0384,259.889 41.1942,259.925 40.7132,259.647 Z"/>
      <g transform="translate(76 195.569)">
        <mask id="sorting@1x-i" fill="#fff">
          <use xlink:href="#sorting@1x-h"/>
        </mask>
        <polygon fill="#FFF" points="26.526 12.343 52.506 27.343 94.076 3.343 68.095 -11.657" mask="url(#sorting@1x-i)"/>
        <polygon stroke="#01050C" stroke-linecap="round" stroke-linejoin="round" points="26.526 12.343 52.506 27.343 94.076 3.343 68.095 -11.657" mask="url(#sorting@1x-i)"/>
        <path fill="#EFF4F7" d="M47.081,15.408 C46.439,15.534 45.779,15.459 45.352,15.213 C44.925,14.966 44.796,14.585 45.013,14.214 C46.765,11.224 50.248,5.279 51.995,2.299 C52.211,1.929 52.74,1.625 53.381,1.501 C54.022,1.377 54.679,1.452 55.105,1.698 C58.526,3.673 65.339,7.607 68.76,9.582 C69.186,9.828 69.316,10.207 69.101,10.577 C68.886,10.947 68.359,11.252 67.719,11.377 C62.556,12.386 52.259,14.397 47.081,15.408 Z" mask="url(#sorting@1x-i)"/>
        <path stroke="#01050C" stroke-linecap="round" stroke-linejoin="round" d="M47.081,15.408 C46.439,15.534 45.779,15.459 45.352,15.213 C44.925,14.966 44.796,14.585 45.013,14.214 C46.765,11.224 50.248,5.279 51.995,2.299 C52.211,1.929 52.74,1.625 53.381,1.501 C54.022,1.377 54.679,1.452 55.105,1.698 C58.526,3.673 65.339,7.607 68.76,9.582 C69.186,9.828 69.316,10.207 69.101,10.577 C68.886,10.947 68.359,11.252 67.719,11.377 C62.556,12.386 52.259,14.397 47.081,15.408 Z" mask="url(#sorting@1x-i)"/>
        <line x1="50.541" x2="55.817" y1="12.216" y2="9.171" stroke="#01050C" stroke-linecap="round" stroke-linejoin="round" mask="url(#sorting@1x-i)"/>
        <path fill="#000" d="M57.501,8.198 C57.02,7.921 57.083,7.433 57.642,7.111 C58.201,6.788 59.045,6.751 59.526,7.029 C60.007,7.307 59.944,7.794 59.385,8.117 C58.826,8.44 57.982,8.476 57.501,8.198 Z" mask="url(#sorting@1x-i)"/>
        <line x1="70.299" x2="70.299" y1="-4.929" y2="3.991" stroke="#01050C" stroke-linecap="round" stroke-linejoin="round" mask="url(#sorting@1x-i)"/>
        <line x1="62.837" x2="77.761" y1=".685" y2="-1.624" stroke="#01050C" stroke-linecap="round" stroke-linejoin="round" mask="url(#sorting@1x-i)"/>
      </g>
      <polygon fill="#FFF" points="122.958 85.75 151.536 69.25 151.536 120.008 122.958 134.75"/>
      <g transform="translate(122 68.569)">
        <mask id="sorting@1x-k" fill="#fff">
          <use xlink:href="#sorting@1x-j"/>
        </mask>
        <polygon fill="#5A6D83" fill-opacity=".2" points="29.536 44.836 -2.707 60.958 -2.707 77.212 29.536 61.091" mask="url(#sorting@1x-k)"/>
      </g>
      <polygon stroke="#01050C" stroke-linecap="round" stroke-linejoin="round" points="122.958 85.75 151.536 69.25 151.536 120.008 122.958 134.75"/>
      <path fill="#EFF4F7" d="M139.418,93.41 C139.06,92.897 138.396,92.837 137.676,93.252 C136.957,93.667 136.293,94.494 135.935,95.421 C134.279,99.705 131.804,106.11 130.153,110.383 C129.796,111.306 129.797,112.189 130.156,112.698 C130.515,113.207 131.178,113.265 131.894,112.851 C135.201,110.942 140.152,108.084 143.459,106.175 C144.175,105.761 144.838,104.937 145.197,104.014 C145.556,103.09 145.557,102.206 145.2,101.695 C143.549,99.329 141.074,95.782 139.418,93.41 Z"/>
      <path stroke="#01050C" stroke-linecap="round" stroke-linejoin="round" d="M139.418,93.41 C139.06,92.897 138.396,92.837 137.676,93.252 C136.957,93.667 136.293,94.494 135.935,95.421 C134.279,99.705 131.804,106.11 130.153,110.383 C129.796,111.306 129.797,112.189 130.156,112.698 C130.515,113.207 131.178,113.265 131.894,112.851 C135.201,110.942 140.152,108.084 143.459,106.175 C144.175,105.761 144.838,104.937 145.197,104.014 C145.556,103.09 145.557,102.206 145.2,101.695 C143.549,99.329 141.074,95.782 139.418,93.41 Z"/>
      <line x1="137.676" x2="137.676" y1="97.728" y2="103.186" stroke="#01050C" stroke-linecap="round" stroke-linejoin="round"/>
      <path fill="#000" d="M137.676,104.928 C137.176,105.217 136.769,105.921 136.769,106.5 C136.769,107.078 137.176,107.312 137.676,107.023 C138.177,106.734 138.584,106.03 138.584,105.452 C138.584,104.874 138.177,104.639 137.676,104.928 Z"/>
      <g transform="translate(145 96.569)">
        <mask id="sorting@1x-m" fill="#fff">
          <use xlink:href="#sorting@1x-l"/>
        </mask>
        <polygon fill="#FFF" points="39.435 32.902 10.856 18.613 10.856 65.402 39.435 81.902" mask="url(#sorting@1x-m)"/>
        <polygon stroke="#01050C" stroke-linecap="round" stroke-linejoin="round" points="39.435 32.902 10.856 18.613 10.856 65.402 39.435 81.902" mask="url(#sorting@1x-m)"/>
        <path fill="#EFF4F7" d="M22.974,40.563 C23.332,40.049 23.997,39.989 24.716,40.404 C25.435,40.819 26.099,41.647 26.457,42.574 C28.113,46.857 30.588,53.263 32.239,57.535 C32.596,58.459 32.595,59.341 32.236,59.85 C31.877,60.359 31.215,60.418 30.498,60.004 C27.191,58.095 22.24,55.236 18.934,53.327 C18.217,52.914 17.554,52.09 17.195,51.166 C16.836,50.243 16.835,49.359 17.192,48.847 C18.843,46.482 21.319,42.935 22.974,40.563 Z" mask="url(#sorting@1x-m)"/>
        <path stroke="#01050C" stroke-linecap="round" stroke-linejoin="round" d="M22.974,40.563 C23.332,40.049 23.997,39.989 24.716,40.404 C25.435,40.819 26.099,41.647 26.457,42.574 C28.113,46.857 30.588,53.263 32.239,57.535 C32.596,58.459 32.595,59.341 32.236,59.85 C31.877,60.359 31.215,60.418 30.498,60.004 C27.191,58.095 22.24,55.236 18.934,53.327 C18.217,52.914 17.554,52.09 17.195,51.166 C16.836,50.243 16.835,49.359 17.192,48.847 C18.843,46.482 21.319,42.935 22.974,40.563 Z" mask="url(#sorting@1x-m)"/>
        <line x1="24.716" x2="24.716" y1="44.881" y2="50.339" stroke="#01050C" stroke-linecap="round" stroke-linejoin="round" mask="url(#sorting@1x-m)"/>
        <path fill="#000" d="M24.716,52.081 C25.216,52.37 25.623,53.074 25.623,53.652 C25.623,54.23 25.216,54.465 24.716,54.176 C24.215,53.887 23.808,53.183 23.808,52.605 C23.808,52.026 24.215,51.792 24.716,52.081 Z" mask="url(#sorting@1x-m)"/>
        <polygon fill="#5A6D83" fill-opacity=".2" points="10.135 45.64 42.378 61.761 42.378 86.276 10.135 68.28" mask="url(#sorting@1x-m)"/>
      </g>
      <polygon fill="#FFF" points="226.87 86.971 198.291 70.471 198.291 121.682 226.87 135.971"/>
      <g transform="translate(198 69.569)">
        <mask id="sorting@1x-o" fill="#fff">
          <use xlink:href="#sorting@1x-n"/>
        </mask>
        <polygon fill="#5A6D83" fill-opacity=".2" points="-1.541 46.77 30.702 62.892 30.702 87.406 -1.541 69.411" mask="url(#sorting@1x-o)"/>
      </g>
      <polygon stroke="#01050C" stroke-linecap="round" stroke-linejoin="round" points="226.87 86.971 198.291 70.471 198.291 121.682 226.87 135.971"/>
      <path fill="#EFF4F7" d="M210.409,94.632 C210.768,94.118 211.432,94.058 212.151,94.473 C212.87,94.888 213.534,95.716 213.893,96.643 C215.548,100.926 218.024,107.332 219.675,111.604 C220.032,112.528 220.03,113.41 219.671,113.919 C219.312,114.428 218.65,114.487 217.933,114.073 C214.626,112.164 209.675,109.305 206.369,107.396 C205.652,106.983 204.99,106.159 204.63,105.235 C204.271,104.312 204.27,103.428 204.627,102.916 C206.278,100.551 208.754,97.004 210.409,94.632 Z"/>
      <path stroke="#01050C" stroke-linecap="round" stroke-linejoin="round" d="M210.409,94.632 C210.768,94.118 211.432,94.058 212.151,94.473 C212.87,94.888 213.534,95.716 213.893,96.643 C215.548,100.926 218.024,107.332 219.675,111.604 C220.032,112.528 220.03,113.41 219.671,113.919 C219.312,114.428 218.65,114.487 217.933,114.073 C214.626,112.164 209.675,109.305 206.369,107.396 C205.652,106.983 204.99,106.159 204.63,105.235 C204.271,104.312 204.27,103.428 204.627,102.916 C206.278,100.551 208.754,97.004 210.409,94.632 Z"/>
      <line x1="212.151" x2="212.151" y1="98.95" y2="104.408" stroke="#01050C" stroke-linecap="round" stroke-linejoin="round"/>
      <path fill="#000" d="M212.151,106.15 C212.652,106.439 213.058,107.143 213.058,107.721 C213.058,108.299 212.652,108.534 212.151,108.245 C211.65,107.956 211.244,107.252 211.244,106.674 C211.244,106.095 211.65,105.861 212.151,106.15 Z"/>
      <polygon fill="#FFF" points="210.848 42.721 182.269 26.221 182.269 75.221 210.848 91.721"/>
      <polygon stroke="#01050C" stroke-linecap="round" stroke-linejoin="round" points="210.848 42.721 182.269 26.221 182.269 75.221 210.848 91.721"/>
      <path fill="#EFF4F7" d="M194.388,50.382 C194.746,49.868 195.41,49.808 196.129,50.223 C196.849,50.638 197.513,51.466 197.871,52.393 C199.527,56.676 202.002,63.082 203.653,67.354 C204.01,68.278 204.009,69.16 203.65,69.669 C203.291,70.178 202.628,70.237 201.912,69.823 C198.605,67.914 193.654,65.055 190.347,63.146 C189.631,62.733 188.968,61.909 188.609,60.985 C188.25,60.062 188.249,59.178 188.606,58.666 C190.257,56.301 192.732,52.754 194.388,50.382 Z"/>
      <path stroke="#01050C" stroke-linecap="round" stroke-linejoin="round" d="M194.388,50.382 C194.746,49.868 195.41,49.808 196.129,50.223 C196.849,50.638 197.513,51.466 197.871,52.393 C199.527,56.676 202.002,63.082 203.653,67.354 C204.01,68.278 204.009,69.16 203.65,69.669 C203.291,70.178 202.628,70.237 201.912,69.823 C198.605,67.914 193.654,65.055 190.347,63.146 C189.631,62.733 188.968,61.909 188.609,60.985 C188.25,60.062 188.249,59.178 188.606,58.666 C190.257,56.301 192.732,52.754 194.388,50.382 Z"/>
      <line x1="196.129" x2="196.129" y1="54.7" y2="60.158" stroke="#01050C" stroke-linecap="round" stroke-linejoin="round"/>
      <path fill="#000" d="M196.129,61.9 C196.63,62.189 197.037,62.893 197.037,63.471 C197.037,64.049 196.63,64.284 196.129,63.995 C195.629,63.706 195.222,63.002 195.222,62.424 C195.222,61.845 195.629,61.611 196.129,61.9 Z"/>
      <polygon fill="#FFF" points="142.876 17.25 171.455 .75 171.455 49.75 142.876 66.25"/>
      <polygon stroke="#01050C" stroke-linecap="round" stroke-linejoin="round" points="142.876 17.25 171.455 .75 171.455 49.75 142.876 66.25"/>
      <path fill="#EFF4F7" d="M159.337,24.91 C158.978,24.397 158.314,24.337 157.595,24.752 C156.876,25.167 156.212,25.994 155.853,26.921 C154.198,31.205 151.722,37.61 150.071,41.883 C149.714,42.806 149.715,43.689 150.075,44.198 C150.434,44.707 151.096,44.765 151.813,44.351 C155.12,42.442 160.071,39.584 163.377,37.675 C164.094,37.261 164.756,36.437 165.115,35.514 C165.475,34.59 165.476,33.706 165.119,33.195 C163.468,30.829 160.992,27.282 159.337,24.91 Z"/>
      <path stroke="#01050C" stroke-linecap="round" stroke-linejoin="round" d="M159.337,24.91 C158.978,24.397 158.314,24.337 157.595,24.752 C156.876,25.167 156.212,25.994 155.853,26.921 C154.198,31.205 151.722,37.61 150.071,41.883 C149.714,42.806 149.715,43.689 150.075,44.198 C150.434,44.707 151.096,44.765 151.813,44.351 C155.12,42.442 160.071,39.584 163.377,37.675 C164.094,37.261 164.756,36.437 165.115,35.514 C165.475,34.59 165.476,33.706 165.119,33.195 C163.468,30.829 160.992,27.282 159.337,24.91 Z"/>
      <line x1="157.595" x2="157.595" y1="29.228" y2="34.686" stroke="#01050C" stroke-linecap="round" stroke-linejoin="round"/>
      <path fill="#000" d="M157.595,36.428 C157.094,36.717 156.688,37.421 156.688,38 C156.688,38.578 157.094,38.812 157.595,38.523 C158.096,38.234 158.502,37.53 158.502,36.952 C158.502,36.374 158.096,36.139 157.595,36.428 Z"/>
      <line x1="64.057" x2="72.717" y1="235.471" y2="240.471" stroke="#5A6D83" stroke-linecap="round" stroke-linejoin="round"/>
      <line x1="110.822" x2="119.483" y1="208.471" y2="213.471" stroke="#5A6D83" stroke-linecap="round" stroke-linejoin="round"/>
      <line x1="23.354" x2="32.014" y1="268.971" y2="273.971" stroke="#5A6D83" stroke-linecap="round" stroke-linejoin="round"/>
      <line x1="76.181" x2="79.645" y1="242.471" y2="244.471" stroke="#5A6D83" stroke-linecap="round" stroke-linejoin="round"/>
      <line x1="122.947" x2="126.411" y1="215.471" y2="217.471" stroke="#5A6D83" stroke-linecap="round" stroke-linejoin="round"/>
      <line x1="35.478" x2="38.942" y1="275.971" y2="277.971" stroke="#5A6D83" stroke-linecap="round" stroke-linejoin="round"/>
      <path stroke="#01050C" stroke-linecap="round" stroke-linejoin="round" d="M279.759,223.746 C279.759,223.746 281.287,224.628 282.631,225.404 C283.867,226.118 284.629,227.437 284.629,228.864 C284.629,233.87 284.629,245.781 284.629,252.02 C284.629,254.474 285.938,256.741 288.063,257.968 C298.029,263.722 326.88,280.379 336.798,286.105 C338.9,287.319 341.489,287.319 343.591,286.105 C352.307,281.073 375.451,267.711 384.943,262.231 C387.511,260.748 389.093,258.008 389.093,255.042 C389.093,245.916 389.093,226.942 389.093,226.942"/>
      <path fill="#FFF" d="M457.522,152.766 C457.522,148.608 455.304,144.766 451.703,142.687 C428.982,129.569 346.447,81.918 325.02,69.547 C323.966,68.938 322.667,68.938 321.613,69.547 C320.559,70.155 319.91,71.28 319.91,72.497 C319.91,92.632 319.91,158.553 319.91,179.877 C319.91,184.035 322.128,187.877 325.729,189.956 C348.45,203.074 430.985,250.726 452.412,263.096 C453.466,263.705 454.765,263.705 455.819,263.096 C456.873,262.488 457.522,261.363 457.522,260.146 C457.522,240.012 457.522,174.09 457.522,152.766 Z"/>
      <g transform="translate(319 68.569)">
        <mask id="sorting@1x-q" fill="#fff">
          <use xlink:href="#sorting@1x-p"/>
        </mask>
        <polygon fill="#EFF4F7" points="151.062 58.472 -10.93 -22.524 -10.93 7.169 151.062 98.839" mask="url(#sorting@1x-q)"/>
        <line x1=".953" x2="138.956" y1="13.11" y2="92.786" stroke="#01050C" stroke-linecap="round" stroke-linejoin="round" mask="url(#sorting@1x-q)"/>
      </g>
      <path stroke="#01050C" stroke-linecap="round" stroke-linejoin="round" d="M457.522,152.766 C457.522,148.608 455.304,144.766 451.703,142.687 C428.982,129.569 346.447,81.918 325.02,69.547 C323.966,68.938 322.667,68.938 321.613,69.547 C320.559,70.155 319.91,71.28 319.91,72.497 C319.91,92.632 319.91,158.553 319.91,179.877 C319.91,184.035 322.128,187.877 325.729,189.956 C348.45,203.074 430.985,250.726 452.412,263.096 C453.466,263.705 454.765,263.705 455.819,263.096 C456.873,262.488 457.522,261.363 457.522,260.146 C457.522,240.012 457.522,174.09 457.522,152.766 Z"/>
      <path fill="#EFF4F7" d="M391.628 135.227C391.628 133.452 390.668 131.817 389.119 130.951 378.755 125.163 339.313 103.134 328.376 97.025 327.788 96.696 327.069 96.704 326.488 97.045 325.906 97.386 325.549 98.01 325.549 98.684 325.549 103.698 325.549 113.26 325.549 118.062 325.549 119.852 326.526 121.5 328.097 122.359 338.525 128.061 377.913 149.598 388.816 155.56 389.405 155.882 390.12 155.869 390.697 155.527 391.274 155.185 391.628 154.564 391.628 153.892 391.628 149.034 391.628 139.881 391.628 135.227zM391.628 163.886C391.628 162.112 390.669 160.477 389.121 159.612 378.761 153.818 339.316 131.758 328.377 125.64 327.789 125.311 327.07 125.318 326.488 125.659 325.906 126 325.549 126.624 325.549 127.299 325.549 132.372 325.549 142.112 325.549 146.98 325.549 148.778 326.535 150.432 328.116 151.287 338.576 156.946 377.938 178.24 388.823 184.129 389.412 184.448 390.125 184.433 390.701 184.09 391.276 183.747 391.628 183.127 391.628 182.457 391.628 177.626 391.628 168.523 391.628 163.886zM391.628 192.055C391.628 190.274 390.661 188.633 389.102 187.77 378.709 182.02 339.291 160.21 328.37 154.167 327.781 153.842 327.064 153.851 326.484 154.193 325.905 154.535 325.549 155.157 325.549 155.83 325.549 160.961 325.549 170.907 325.549 175.816 325.549 177.596 326.515 179.236 328.071 180.099 338.458 185.859 377.881 207.719 388.806 213.777 389.395 214.104 390.112 214.095 390.692 213.753 391.272 213.411 391.628 212.789 391.628 212.115 391.628 206.968 391.628 196.98 391.628 192.055z"/>
      <path fill="#FFF" d="M335.59,107.997 C336.013,107.391 336.736,107.068 337.47,107.157 C338.204,107.245 338.829,107.732 339.096,108.421 C340.785,112.791 343.688,120.303 345.647,125.373 C345.953,126.164 345.727,127.062 345.082,127.613 C344.438,128.165 343.516,128.25 342.782,127.826 C338.548,125.381 332.658,121.981 329.679,120.261 C329.194,119.981 328.848,119.51 328.727,118.963 C328.605,118.417 328.718,117.844 329.039,117.384 C330.68,115.033 333.59,110.863 335.59,107.997 Z"/>
      <path stroke="#E01A33" stroke-linecap="round" stroke-linejoin="round" d="M335.59,107.997 C336.013,107.391 336.736,107.068 337.47,107.157 C338.204,107.245 338.829,107.732 339.096,108.421 C340.785,112.791 343.688,120.303 345.647,125.373 C345.953,126.164 345.727,127.062 345.082,127.613 C344.438,128.165 343.516,128.25 342.782,127.826 C338.548,125.381 332.658,121.981 329.679,120.261 C329.194,119.981 328.848,119.51 328.727,118.963 C328.605,118.417 328.718,117.844 329.039,117.384 C330.68,115.033 333.59,110.863 335.59,107.997 Z"/>
      <line x1="336.741" x2="336.741" y1="111.243" y2="117.112" stroke="#E01A33" stroke-linecap="round" stroke-linejoin="round"/>
      <path fill="#E01A33" d="M336.741,118.985 C337.28,119.296 337.717,120.053 337.717,120.675 C337.717,121.297 337.28,121.549 336.741,121.238 C336.203,120.927 335.765,120.17 335.765,119.549 C335.765,118.927 336.203,118.674 336.741,118.985 Z"/>
      <path fill="#FFF" d="M335.59,135.07 C336.013,134.463 336.736,134.14 337.47,134.229 C338.204,134.317 338.829,134.804 339.096,135.493 C340.785,139.863 343.688,147.375 345.647,152.445 C345.953,153.236 345.727,154.134 345.082,154.685 C344.438,155.237 343.516,155.322 342.782,154.898 C338.548,152.453 332.658,149.053 329.679,147.333 C329.194,147.053 328.848,146.582 328.727,146.035 C328.605,145.489 328.718,144.916 329.039,144.456 C330.68,142.105 333.59,137.935 335.59,135.07 Z"/>
      <path stroke="#E01A33" stroke-linecap="round" stroke-linejoin="round" d="M335.59,135.07 C336.013,134.463 336.736,134.14 337.47,134.229 C338.204,134.317 338.829,134.804 339.096,135.493 C340.785,139.863 343.688,147.375 345.647,152.445 C345.953,153.236 345.727,154.134 345.082,154.685 C344.438,155.237 343.516,155.322 342.782,154.898 C338.548,152.453 332.658,149.053 329.679,147.333 C329.194,147.053 328.848,146.582 328.727,146.035 C328.605,145.489 328.718,144.916 329.039,144.456 C330.68,142.105 333.59,137.935 335.59,135.07 Z"/>
      <line x1="336.741" x2="336.741" y1="138.315" y2="144.184" stroke="#E01A33" stroke-linecap="round" stroke-linejoin="round"/>
      <path fill="#E01A33" d="M336.741,146.057 C337.28,146.368 337.717,147.125 337.717,147.747 C337.717,148.369 337.28,148.621 336.741,148.31 C336.203,148 335.765,147.242 335.765,146.621 C335.765,145.999 336.203,145.746 336.741,146.057 Z"/>
      <path fill="#FFF" d="M335.59,165.761 C336.013,165.155 336.736,164.831 337.47,164.92 C338.204,165.009 338.829,165.495 339.096,166.185 C340.785,170.555 343.688,178.066 345.647,183.136 C345.953,183.927 345.727,184.825 345.082,185.377 C344.438,185.928 343.516,186.013 342.782,185.589 C338.548,183.145 332.658,179.745 329.679,178.025 C329.194,177.744 328.848,177.274 328.727,176.727 C328.605,176.18 328.718,175.607 329.039,175.148 C330.68,172.796 333.59,168.626 335.59,165.761 Z"/>
      <path stroke="#E01A33" stroke-linecap="round" stroke-linejoin="round" d="M335.59,165.761 C336.013,165.155 336.736,164.831 337.47,164.92 C338.204,165.009 338.829,165.495 339.096,166.185 C340.785,170.555 343.688,178.066 345.647,183.136 C345.953,183.927 345.727,184.825 345.082,185.377 C344.438,185.928 343.516,186.013 342.782,185.589 C338.548,183.145 332.658,179.745 329.679,178.025 C329.194,177.744 328.848,177.274 328.727,176.727 C328.605,176.18 328.718,175.607 329.039,175.148 C330.68,172.796 333.59,168.626 335.59,165.761 Z"/>
      <line x1="336.741" x2="336.741" y1="169.006" y2="174.875" stroke="#E01A33" stroke-linecap="round" stroke-linejoin="round"/>
      <path fill="#E01A33" d="M336.741,176.749 C337.28,177.06 337.717,177.817 337.717,178.439 C337.717,179.06 337.28,179.313 336.741,179.002 C336.203,178.691 335.765,177.934 335.765,177.312 C335.765,176.69 336.203,176.438 336.741,176.749 Z"/>
      <path fill="#B1BBC9" d="M327.987,77.149 C329,77.734 329.822,79.158 329.822,80.327 C329.822,81.496 329,81.971 327.987,81.386 C326.975,80.801 326.153,79.378 326.153,78.208 C326.153,77.039 326.975,76.565 327.987,77.149 Z"/>
      <path stroke="#01050C" stroke-linecap="round" stroke-linejoin="round" d="M327.987,77.149 C329,77.734 329.822,79.158 329.822,80.327 C329.822,81.496 329,81.971 327.987,81.386 C326.975,80.801 326.153,79.378 326.153,78.208 C326.153,77.039 326.975,76.565 327.987,77.149 Z"/>
      <path fill="#B1BBC9" d="M334.885,81.132 C335.898,81.716 336.72,83.14 336.72,84.309 C336.72,85.478 335.898,85.953 334.885,85.369 C333.873,84.784 333.051,83.36 333.051,82.191 C333.051,81.022 333.873,80.547 334.885,81.132 Z"/>
      <path stroke="#01050C" stroke-linecap="round" stroke-linejoin="round" d="M334.885,81.132 C335.898,81.716 336.72,83.14 336.72,84.309 C336.72,85.478 335.898,85.953 334.885,85.369 C333.873,84.784 333.051,83.36 333.051,82.191 C333.051,81.022 333.873,80.547 334.885,81.132 Z"/>
      <path fill="#B1BBC9" d="M341.783,85.114 C342.796,85.699 343.618,87.123 343.618,88.292 C343.618,89.461 342.796,89.936 341.783,89.351 C340.771,88.767 339.949,87.343 339.949,86.174 C339.949,85.004 340.771,84.53 341.783,85.114 Z"/>
      <path stroke="#01050C" stroke-linecap="round" stroke-linejoin="round" d="M341.783,85.114 C342.796,85.699 343.618,87.123 343.618,88.292 C343.618,89.461 342.796,89.936 341.783,89.351 C340.771,88.767 339.949,87.343 339.949,86.174 C339.949,85.004 340.771,84.53 341.783,85.114 Z"/>
      <line x1="353.045" x2="384.222" y1="116.923" y2="134.923" stroke="#5A6D83" stroke-linecap="round" stroke-linejoin="round" stroke-width="2"/>
      <line x1="353.045" x2="373.829" y1="130.727" y2="142.727" stroke="#B1BBC9" stroke-linecap="round" stroke-linejoin="round"/>
      <line x1="353.045" x2="366.577" y1="123.809" y2="131.622" stroke="#B1BBC9" stroke-linecap="round" stroke-linejoin="round"/>
      <line x1="371.464" x2="386.226" y1="134.444" y2="142.966" stroke="#B1BBC9" stroke-linecap="round" stroke-linejoin="round"/>
      <line x1="353.045" x2="376.25" y1="171.993" y2="185.39" stroke="#5A6D83" stroke-linecap="round" stroke-linejoin="round" stroke-width="2"/>
      <line x1="353.045" x2="373.829" y1="185.796" y2="197.796" stroke="#B1BBC9" stroke-linecap="round" stroke-linejoin="round"/>
      <line x1="353.045" x2="366.577" y1="178.879" y2="186.692" stroke="#B1BBC9" stroke-linecap="round" stroke-linejoin="round"/>
      <line x1="371.464" x2="376.25" y1="189.513" y2="192.276" stroke="#B1BBC9" stroke-linecap="round" stroke-linejoin="round"/>
      <line x1="353.045" x2="370.819" y1="145.755" y2="156.017" stroke="#5A6D83" stroke-linecap="round" stroke-linejoin="round" stroke-width="2"/>
      <line x1="353.045" x2="379.805" y1="159.559" y2="175.009" stroke="#B1BBC9" stroke-linecap="round" stroke-linejoin="round"/>
      <line x1="353.045" x2="373.829" y1="152.642" y2="164.642" stroke="#B1BBC9" stroke-linecap="round" stroke-linejoin="round"/>
      <line x1="378.115" x2="386.226" y1="167.116" y2="171.799" stroke="#B1BBC9" stroke-linecap="round" stroke-linejoin="round"/>
      <line x1="403.238" x2="414.081" y1="189.53" y2="195.791" stroke="#5A6D83" stroke-linecap="round" stroke-linejoin="round"/>
      <line x1="403.238" x2="409.704" y1="196.409" y2="200.322" stroke="#B1BBC9" stroke-linecap="round" stroke-linejoin="round"/>
      <line x1="403.238" x2="413.514" y1="202.988" y2="209.207" stroke="#B1BBC9" stroke-linecap="round" stroke-linejoin="round"/>
      <path stroke="#4D72EF" stroke-linecap="round" stroke-linejoin="round" d="M396.927,156.752 C396.927,156.752 399.944,148.804 404.862,151.644 C409.998,154.608 410.21,183.655 417.53,184.768 C424.851,185.882 427.771,164.87 439.031,171.371"/>
      <path stroke="#4D72EF" stroke-linecap="round" stroke-linejoin="round" d="M395.606,169.092 C395.606,169.092 396.283,169.483 397.2,170.012 C400.23,171.762 403.963,171.762 406.992,170.012 C408.212,169.308 409.536,168.544 410.808,167.809 C414.213,165.844 418.567,167.01 420.533,170.415 C422.482,173.792 424.781,177.774 426.191,180.216 C427.053,181.708 428.291,182.947 429.783,183.808 C431.86,185.007 434.608,186.594 434.608,186.594"/>
      <path fill="#FFF" d="M404.041,149.391 C405.138,150.024 406.029,151.567 406.029,152.834 C406.029,154.101 405.138,154.615 404.041,153.981 C402.943,153.348 402.053,151.805 402.053,150.538 C402.053,149.271 402.943,148.757 404.041,149.391 Z"/>
      <path stroke="#4D72EF" stroke-linecap="round" stroke-linejoin="round" d="M404.041,149.391 C405.138,150.024 406.029,151.567 406.029,152.834 C406.029,154.101 405.138,154.615 404.041,153.981 C402.943,153.348 402.053,151.805 402.053,150.538 C402.053,149.271 402.943,148.757 404.041,149.391 Z"/>
      <path fill="#FFF" d="M416.932,181.619 C418.03,182.253 418.92,183.796 418.92,185.062 C418.92,186.329 418.03,186.844 416.932,186.21 C415.835,185.577 414.944,184.034 414.944,182.767 C414.944,181.5 415.835,180.986 416.932,181.619 Z"/>
      <path stroke="#4D72EF" stroke-linecap="round" stroke-linejoin="round" d="M416.932,181.619 C418.03,182.253 418.92,183.796 418.92,185.062 C418.92,186.329 418.03,186.844 416.932,186.21 C415.835,185.577 414.944,184.034 414.944,182.767 C414.944,181.5 415.835,180.986 416.932,181.619 Z"/>
      <path fill="#FFF" d="M434.997,168.211 C436.094,168.844 436.985,170.387 436.985,171.654 C436.985,172.921 436.094,173.435 434.997,172.802 C433.9,172.168 433.009,170.625 433.009,169.359 C433.009,168.092 433.9,167.577 434.997,168.211 Z"/>
      <path stroke="#4D72EF" stroke-linecap="round" stroke-linejoin="round" d="M434.997,168.211 C436.094,168.844 436.985,170.387 436.985,171.654 C436.985,172.921 436.094,173.435 434.997,172.802 C433.9,172.168 433.009,170.625 433.009,169.359 C433.009,168.092 433.9,167.577 434.997,168.211 Z"/>
      <path stroke="#000" stroke-linecap="round" stroke-linejoin="round" d="M61.962,337.8532 C61.962,337.8532 122.671,372.9034 141.624,383.8458 C145.077,385.8395 149.333,385.8342 152.781,383.8317 C171.985,372.6794 235.328,335.895 255.615,324.1135 C256.919,323.3564 257.721,321.9618 257.719004,320.4541 C257.717,318.9463 256.912,317.5538 255.606,316.8 C244.628,310.4616 222.424,297.6424 214.232,292.9129 C212.297,291.7953 211.104,289.7301 211.104,287.495 C211.104,282.787 211.104,274.561 211.104,269.509 C211.104,266.834 209.593,264.388 207.2,263.191 C205.416,262.299 203.694,261.438 203.694,261.438"/>
      <path stroke="#01050C" stroke-linecap="round" stroke-linejoin="round" d="M108.489,125.818 C107.541,126.365 106.957,127.377 106.957,128.471 C106.957,129.566 107.541,130.577 108.489,131.124 C122.197,139.038 162.486,162.299 172.75,168.225 C174.236,169.083 176.066,169.083 177.552,168.225 C187.816,162.299 228.105,139.038 241.813,131.124 C242.761,130.577 243.345,129.566 243.345,128.471 C243.345,127.377 242.761,126.365 241.813,125.818"/>
      <path fill="#FFF" d="M141.016,252.808 L69.584,294.0491 C64.432,297.0234 60.25,294.6087 60.25,288.6601 C60.25,282.712 64.432,275.467 69.584,272.493 L141.016,231.248"/>
      <g transform="translate(60 230.569)">
        <mask id="sorting@1x-s" fill="#fff">
          <use xlink:href="#sorting@1x-r"/>
        </mask>
        <path fill="#D1D9E0" d="M81.528,19.731 L10.832,60.547 C6.213,63.2137 2.463,61.5708 2.463,56.88 C2.463,52.19 6.213,46.217 10.832,43.551 L81.528,2.731" mask="url(#sorting@1x-s)"/>
        <path stroke="#01050C" stroke-linecap="round" stroke-linejoin="round" d="M81.528,19.731 L10.832,60.547 C6.213,63.2137 2.463,61.5708 2.463,56.88 C2.463,52.19 6.213,46.217 10.832,43.551 L81.528,2.731" mask="url(#sorting@1x-s)"/>
      </g>
      <path stroke="#01050C" stroke-linecap="round" stroke-linejoin="round" d="M141.016,252.808 L69.584,294.0491 C64.432,297.0234 60.25,294.6087 60.25,288.6601 C60.25,282.712 64.432,275.467 69.584,272.493 L141.016,231.248"/>
      <path fill="#FFF" d="M69.584,275.006 C73.534,272.726 76.741,274.577 76.741,279.139 C76.741,283.7 73.534,289.2551 69.584,291.5358 C65.634,293.8165 62.426,291.9649 62.426,287.403 C62.426,282.842 65.634,277.287 69.584,275.006 Z"/>
      <path stroke="#01050C" stroke-linecap="round" stroke-linejoin="round" d="M69.584,275.006 C73.534,272.726 76.741,274.577 76.741,279.139 C76.741,283.7 73.534,289.2551 69.584,291.5358 C65.634,293.8165 62.426,291.9649 62.426,287.403 C62.426,282.842 65.634,277.287 69.584,275.006 Z"/>
      <path fill="#5A6D83" d="M69.584,281.006 C70.666,280.381 71.545,280.889 71.545,282.139 C71.545,283.389 70.666,284.911 69.584,285.536 C68.501,286.161 67.623,285.653 67.623,284.403 C67.623,283.154 68.501,281.631 69.584,281.006 Z"/>
      <path stroke="#01050C" stroke-linecap="round" stroke-linejoin="round" d="M69.584,281.006 C70.666,280.381 71.545,280.889 71.545,282.139 C71.545,283.389 70.666,284.911 69.584,285.536 C68.501,286.161 67.623,285.653 67.623,284.403 C67.623,283.154 68.501,281.631 69.584,281.006 Z"/>
      <path fill="#FFF" d="M105.914,254.031 C109.864,251.751 113.071,253.602 113.071,258.164 C113.071,262.725 109.864,268.28 105.914,270.561 C101.964,272.841 98.757,270.99 98.757,266.428 C98.757,261.867 101.964,256.312 105.914,254.031 Z"/>
      <path stroke="#01050C" stroke-linecap="round" stroke-linejoin="round" d="M105.914,254.031 C109.864,251.751 113.071,253.602 113.071,258.164 C113.071,262.725 109.864,268.28 105.914,270.561 C101.964,272.841 98.757,270.99 98.757,266.428 C98.757,261.867 101.964,256.312 105.914,254.031 Z"/>
      <path fill="#5A6D83" d="M106.401,259.998 C107.484,259.373 108.363,259.881 108.363,261.131 C108.363,262.381 107.484,263.903 106.401,264.528 C105.319,265.153 104.44,264.645 104.44,263.395 C104.44,262.146 105.319,260.623 106.401,259.998 Z"/>
      <path stroke="#01050C" stroke-linecap="round" stroke-linejoin="round" d="M106.401,259.998 C107.484,259.373 108.363,259.881 108.363,261.131 C108.363,262.381 107.484,263.903 106.401,264.528 C105.319,265.153 104.44,264.645 104.44,263.395 C104.44,262.146 105.319,260.623 106.401,259.998 Z"/>
      <g transform="translate(126 219.569)">
        <mask id="sorting@1x-u" fill="#fff">
          <use xlink:href="#sorting@1x-t"/>
        </mask>
        <path fill="#FFF" d="M12.444,15.681 C16.395,13.4 19.602,15.252 19.602,19.813 C19.602,24.375 16.395,29.929 12.444,32.21 C8.494,34.491 5.287,32.639 5.287,28.078 C5.287,23.516 8.494,17.961 12.444,15.681 Z" mask="url(#sorting@1x-u)"/>
        <path stroke="#01050C" stroke-linecap="round" stroke-linejoin="round" d="M12.444,15.681 C16.395,13.4 19.602,15.252 19.602,19.813 C19.602,24.375 16.395,29.929 12.444,32.21 C8.494,34.491 5.287,32.639 5.287,28.078 C5.287,23.516 8.494,17.961 12.444,15.681 Z" mask="url(#sorting@1x-u)"/>
      </g>
      <path fill="#5A6D83" d="M138.269,241.599 C139.352,240.975 140.231,241.482 140.231,242.732 C140.231,243.982 139.352,245.504 138.269,246.129 C137.187,246.754 136.308,246.246 136.308,244.996 C136.308,243.747 137.187,242.224 138.269,241.599 Z"/>
      <path stroke="#01050C" stroke-linecap="round" stroke-linejoin="round" d="M138.269,241.599 C139.352,240.975 140.231,241.482 140.231,242.732 C140.231,243.982 139.352,245.504 138.269,246.129 C137.187,246.754 136.308,246.246 136.308,244.996 C136.308,243.747 137.187,242.224 138.269,241.599 Z"/>
      <line x1="80.651" x2="94.328" y1="277.28" y2="269.383" stroke="#B1BBC9" stroke-linecap="round" stroke-linejoin="round" stroke-width="2"/>
      <line x1="116.613" x2="126.944" y1="256.44" y2="250.475" stroke="#B1BBC9" stroke-linecap="round" stroke-linejoin="round" stroke-width="2"/>
      <path fill="#FFF" d="M343.984,245.945 L337.279,226.986 C336.092,225.398 335.605,223.395 335.931,221.44 C336.521,217.899 337.511,211.954 338.294,207.258 C338.998,203.033 342.253,199.69 346.458,198.875 C354.899,197.24 367.973,194.706 367.973,194.706 C367.973,194.706 376.06,190.038 379.024,188.326 C379.737,187.915 380.393,187.412 380.975,186.832 C383.623,184.193 391.352,176.493 391.352,176.493 C391.514,176.295 391.695,176.114 391.894,175.952 L392.029,175.818 L392.044,175.836 C392.674,175.373 393.452,175.099 394.294,175.099 C396.393,175.099 398.098,176.803 398.098,178.903 C398.098,180.006 397.627,181 396.875,181.695 L396.892,181.715 C396.892,181.715 388.663,191.282 385.578,194.869 C384.815,195.756 383.929,196.528 382.946,197.163 C380.355,198.835 374.987,202.298 371.942,204.263 C370.536,205.17 369.648,206.694 369.551,208.364 C369.18,214.75 368.252,230.719 368.024,234.633 C367.99,235.216 368,235.801 368.052,236.383 C368.488,241.192 370.571,264.206 370.571,264.206 L371.6,291.9012 C371.603,291.9581 371.605,292.0151 371.606,292.0723 L371.607,292.0779 C371.607,292.1172 371.608,292.1568 371.608,292.1964 C371.608,295.2518 369.127,297.7323 366.072,297.7323 C363.017,297.7323 360.536,295.2518 360.536,292.1964 C360.536,292.1307 360.537,292.0653 360.54,292.0002 L360.536,292.0002 L359.313,265.706 L356.715,249.206 L354.983,290.9876 L354.983,291.0101 C354.983,294.0654 352.502,296.546 349.447,296.546 C346.392,296.546 343.911,294.0654 343.911,291.0101 C343.911,290.9858 343.911,290.9616 343.912,290.9374 L343.907,290.9372 L343.915,290.8108 C343.918,290.7134 343.924,290.6167 343.932,290.5205 L345.457,265.706 L343.984,245.945 Z"/>
      <g transform="translate(335 174.569)">
        <mask id="sorting@1x-w" fill="#fff">
          <use xlink:href="#sorting@1x-v"/>
        </mask>
        <path fill="#EFF4F7" d="M31.101 65.594C31.101 65.594 33.013 91.786 33.334 96.174 33.364 96.586 33.36 97.001 33.322 97.413 33.022 100.653 31.65 115.5078 31.65 115.5078 31.65 115.5078 31.654 115.8125 31.66 116.2963 31.676 117.6167 30.989 118.846 29.855 119.5231 28.722 120.2002 27.313 120.2226 26.159 119.5819 26.157 119.5811 26.157 119.5806 26.157 119.5806L26.45 125.8034 40.899 122.7399 39.08 104.945C37.292 97.377 50.149 20.799 50.149 20.799 50.149 20.799 40.211 25.848 34.692 28.652 32.489 29.771 31.101 32.033 31.101 34.503 31.101 43.727 31.101 65.594 31.101 65.594zM19.658 71.093C19.658 71.093 17.888 94.064 17.757 95.76 17.752 95.826 17.748 95.891 17.744 95.957 17.672 97.395 16.83 114.0134 16.83 114.0134 16.83 114.0134 16.828 114.0392 16.823 114.0878 16.663 115.8168 15.659 117.355 14.141 118.1984 12.623 119.0419 10.787 119.0819 9.234 118.3053 9.233 118.3052 9.233 118.3051 9.233 118.3051L10.821 124.868 23.451 122.9453 23.451 104.009C21.663 96.442 21.715 74.637 21.715 74.637L19.658 71.093z" mask="url(#sorting@1x-w)"/>
      </g>
      <path stroke="#01050C" stroke-linecap="round" stroke-linejoin="round" d="M343.984,245.945 L337.279,226.986 C336.092,225.398 335.605,223.395 335.931,221.44 C336.521,217.899 337.511,211.954 338.294,207.258 C338.998,203.033 342.253,199.69 346.458,198.875 C354.899,197.24 367.973,194.706 367.973,194.706 C367.973,194.706 376.06,190.038 379.024,188.326 C379.737,187.915 380.393,187.412 380.975,186.832 C383.623,184.193 391.352,176.493 391.352,176.493 C391.514,176.295 391.695,176.114 391.894,175.952 L392.029,175.818 L392.044,175.836 C392.674,175.373 393.452,175.099 394.294,175.099 C396.393,175.099 398.098,176.803 398.098,178.903 C398.098,180.006 397.627,181 396.875,181.695 L396.892,181.715 C396.892,181.715 388.663,191.282 385.578,194.869 C384.815,195.756 383.929,196.528 382.946,197.163 C380.355,198.835 374.987,202.298 371.942,204.263 C370.536,205.17 369.648,206.694 369.551,208.364 C369.18,214.75 368.252,230.719 368.024,234.633 C367.99,235.216 368,235.801 368.052,236.383 C368.488,241.192 370.571,264.206 370.571,264.206 L371.6,291.9012 C371.603,291.9581 371.605,292.0151 371.606,292.0723 L371.607,292.0779 C371.607,292.1172 371.608,292.1568 371.608,292.1964 C371.608,295.2518 369.127,297.7323 366.072,297.7323 C363.017,297.7323 360.536,295.2518 360.536,292.1964 C360.536,292.1307 360.537,292.0653 360.54,292.0002 L360.536,292.0002 L359.313,265.706 L356.715,249.206 L354.983,290.9876 L354.983,291.0101 C354.983,294.0654 352.502,296.546 349.447,296.546 C346.392,296.546 343.911,294.0654 343.911,291.0101 C343.911,290.9858 343.911,290.9616 343.912,290.9374 L343.907,290.9372 L343.915,290.8108 C343.918,290.7134 343.924,290.6167 343.932,290.5205 L345.457,265.706 L343.984,245.945 Z"/>
      <line x1="354.983" x2="356.715" y1="245.206" y2="249.206" stroke="#01050C" stroke-linecap="round" stroke-linejoin="round"/>
      <polyline stroke="#01050C" stroke-linecap="round" stroke-linejoin="round" points="341.98 212.08 342.929 214.64 343.984 245.945"/>
      <path fill="#FFF" d="M351.518,171.128 C357.484,171.128 362.327,175.971 362.327,181.937 C362.327,187.903 357.484,192.746 351.518,192.746 C345.552,192.746 340.709,187.903 340.709,181.937 C340.709,175.971 345.552,171.128 351.518,171.128 Z"/>
      <g transform="translate(340 170.569)">
        <mask id="sorting@1x-y" fill="#fff">
          <use xlink:href="#sorting@1x-x"/>
        </mask>
        <path fill="#EFF4F7" d="M18.83,2.938 C20.711,4.924 21.875,7.669 21.875,10.699 C21.875,16.753 17.23,21.667 11.507,21.667 C10.31,21.667 9.161,21.452 8.09,21.057 C14.461,19.696 19.263,13.735 19.263,6.597 C19.263,5.334 19.113,4.108 18.83,2.938 Z" mask="url(#sorting@1x-y)"/>
      </g>
      <path stroke="#01050C" stroke-linecap="round" stroke-linejoin="round" d="M351.518,171.128 C357.484,171.128 362.327,175.971 362.327,181.937 C362.327,187.903 357.484,192.746 351.518,192.746 C345.552,192.746 340.709,187.903 340.709,181.937 C340.709,175.971 345.552,171.128 351.518,171.128 Z"/>
      <polyline stroke="#E01A33" stroke-linecap="round" stroke-linejoin="round" points="49.483 249.616 53.94 248.864 54.407 250.949"/>
      <path fill="#3F6C9F" fill-opacity=".12" d="M411.135,306.6185 C422.488,306.2499 432.094,309.8424 432.573,314.636 C433.053,319.4296 424.225,323.6206 412.872,323.9891 C401.52,324.3577 391.914,320.7652 391.434,315.9716 C390.955,311.178 399.782,306.987 411.135,306.6185 Z"/>
      <path fill="#FFF" d="M412.736,193.571 C418.702,193.571 423.546,198.414 423.546,204.38 C423.546,210.345 418.702,215.189 412.736,215.189 C406.771,215.189 401.927,210.345 401.927,204.38 C401.927,198.414 406.771,193.571 412.736,193.571 Z"/>
      <g transform="translate(401 193.569)">
        <mask id="sorting@1x-A" fill="#fff">
          <use xlink:href="#sorting@1x-z"/>
        </mask>
        <path fill="#EFF4F7" d="M19.436,2.89 C21.317,4.876 22.481,7.621 22.481,10.652 C22.481,16.705 17.836,21.62 12.113,21.62 C10.916,21.62 9.767,21.405 8.696,21.009 C15.067,19.648 19.869,13.687 19.869,6.549 C19.869,5.287 19.719,4.06 19.436,2.89 Z" mask="url(#sorting@1x-A)"/>
      </g>
      <path stroke="#01050C" stroke-linecap="round" stroke-linejoin="round" d="M412.736,193.571 C418.702,193.571 423.546,198.414 423.546,204.38 C423.546,210.345 418.702,215.189 412.736,215.189 C406.771,215.189 401.927,210.345 401.927,204.38 C401.927,198.414 406.771,193.571 412.736,193.571 Z"/>
      <path fill="#EFF4F7" d="M379.131,222.561 C383.75,221.867 388.111,220.158 392.121,217.061 L405.112,233.149 L394.792,238.842 L379.131,222.561 Z"/>
      <path stroke="#01050C" stroke-linecap="round" stroke-linejoin="round" d="M379.131,222.561 C383.75,221.867 388.111,220.158 392.121,217.061 L405.112,233.149 L394.792,238.842 L379.131,222.561 Z"/>
      <path stroke="#B1BBC9" stroke-linecap="round" stroke-linejoin="round" d="M386.285 225.231C388.387 224.726 390.343 223.837 392.168 222.598M388.427 227.863C389.017 227.711 389.623 227.539 390.502 227.032M392.683 226.053C393.587 225.693 394.266 225.149 394.974 224.631M390.114 230.278C392.196 229.704 394.157 228.826 395.996 227.645"/>
      <path fill="#FFF" d="M390.606,231.123 L397.498,239.145 C397.638,239.308 397.849,239.391 398.063,239.368 C398.277,239.345 398.465,239.218 398.567,239.028 C399.86,236.618 403.643,229.565 405.926,225.309 C407.08,223.156 409.077,221.579 411.439,220.955 C414.683,220.097 419.526,218.817 423.756,217.699 C425.757,217.17 427.89,217.656 429.465,218.998 C431.04,220.341 431.856,222.37 431.65,224.43 C430.454,236.388 428.497,255.948 428.497,255.948 L427.041,287.8967 L428.521,313.1027 C428.546,313.3172 428.559,313.5354 428.559,313.7566 C428.559,316.812 426.078,319.2925 423.023,319.2925 C420.146,319.2925 417.778,317.0923 417.512,314.2838 L417.487,314.2849 L415.372,288.525 L416.372,266.948 C416.372,266.948 412.479,289.6181 412.479,289.6181 L410.31,314.4476 L410.295,314.4471 C410.085,317.3108 407.691,319.5721 404.774,319.5721 C401.719,319.5721 399.238,317.0915 399.238,314.0362 C399.238,313.8365 399.249,313.6393 399.27,313.4451 L400.646,287.498 L404.248,257.948 L405.609,243.208 C405.609,243.208 403.855,245.285 402.147,247.306 C401.336,248.266 400.152,248.834 398.896,248.866 C397.639,248.898 396.428,248.392 395.569,247.474 L384.83,236.005 C384.726,235.905 384.627,235.8 384.535,235.69 L384.53,235.684 L384.53,235.684 C383.981,235.024 383.65,234.176 383.65,233.251 C383.65,231.152 385.354,229.448 387.454,229.448 C388.765,229.448 389.922,230.112 390.606,231.123 Z"/>
      <g transform="translate(383 216.569)">
        <mask id="sorting@1x-C" fill="#fff">
          <use xlink:href="#sorting@1x-B"/>
        </mask>
        <path fill="#EFF4F7" d="M32.198 50.426C32.198 50.426 29.922 60.202 29.645 61.393 29.627 61.472 29.609 61.552 29.593 61.631 29.286 63.133 26.174 78.3427 25.869 79.8291 25.854 79.9069 25.839 79.985 25.825 80.0632 25.586 81.4581 23.292 94.8106 23.292 94.8106 23.292 94.8106 23.292 94.8111 23.292 94.8119 23.018 96.1907 22.055 97.3322 20.742 97.8342 19.429 98.3362 17.95 98.1284 16.826 97.284 16.683 97.1764 16.601 97.1152 16.601 97.1152L15.734 102.7021 31.876 103.4223 33.303 87.2123C32.172 70.599 35.26 54.145 32.198 50.426zM39.799 45.51L39.62 58.061C39.62 58.061 39.771 77.1731 39.783 78.7106 39.783 78.7759 39.785 78.8412 39.787 78.9065 39.833 80.2705 40.348 95.4233 40.348 95.4233 40.348 95.4233 40.351 95.728 40.358 96.2118 40.374 97.5322 39.687 98.7616 38.553 99.4386 37.42 100.1157 36.011 100.1381 34.857 99.4974 34.855 99.4966 34.854 99.4962 34.854 99.4962L35.148 105.7189 49.597 102.6554 47.778 84.86C45.99 77.2927 49.597-6.448 49.597-6.448L38.29 2.518C38.29 2.518 39.847 4.114 41.234 5.537 42.579 6.916 43.25 8.816 43.07 10.733 42.227 19.697 39.799 45.51 39.799 45.51z" mask="url(#sorting@1x-C)"/>
      </g>
      <path stroke="#01050C" stroke-linecap="round" stroke-linejoin="round" d="M390.606,231.123 L397.498,239.145 C397.638,239.308 397.849,239.391 398.063,239.368 C398.277,239.345 398.465,239.218 398.567,239.028 C399.86,236.618 403.643,229.565 405.926,225.309 C407.08,223.156 409.077,221.579 411.439,220.955 C414.683,220.097 419.526,218.817 423.756,217.699 C425.757,217.17 427.89,217.656 429.465,218.998 C431.04,220.341 431.856,222.37 431.65,224.43 C430.454,236.388 428.497,255.948 428.497,255.948 L427.041,287.8967 L428.521,313.1027 C428.546,313.3172 428.559,313.5354 428.559,313.7566 C428.559,316.812 426.078,319.2925 423.023,319.2925 C420.146,319.2925 417.778,317.0923 417.512,314.2838 L417.487,314.2849 L415.372,288.525 L416.372,266.948 C416.372,266.948 412.479,289.6181 412.479,289.6181 L410.31,314.4476 L410.295,314.4471 C410.085,317.3108 407.691,319.5721 404.774,319.5721 C401.719,319.5721 399.238,317.0915 399.238,314.0362 C399.238,313.8365 399.249,313.6393 399.27,313.4451 L400.646,287.498 L404.248,257.948 L405.609,243.208 C405.609,243.208 403.855,245.285 402.147,247.306 C401.336,248.266 400.152,248.834 398.896,248.866 C397.639,248.898 396.428,248.392 395.569,247.474 L384.83,236.005 C384.726,235.905 384.627,235.8 384.535,235.69 L384.53,235.684 L384.53,235.684 C383.981,235.024 383.65,234.176 383.65,233.251 C383.65,231.152 385.354,229.448 387.454,229.448 C388.765,229.448 389.922,230.112 390.606,231.123 Z"/>
      <line x1="418.104" x2="416.372" y1="264.948" y2="266.948" stroke="#01050C" stroke-linecap="round" stroke-linejoin="round"/>
      <polyline stroke="#01050C" stroke-linecap="round" stroke-linejoin="round" points="405.112 244.002 409.345 237.395 411.794 234.85"/>
      <path fill="#FFF" d="M76.181,308.5169 L0.1578,307.3553 C0.1578,307.3553 0.1578,320.1874 0.1578,325.6502 C0.1578,327.1449 0.9552,328.5261 2.2497,329.2734 C8.8886,333.1064 29.4795,344.9946 36.8654,349.2588 C38.518,350.213 40.5542,350.213 42.2069,349.2588 C49.1783,345.2339 67.818,334.4721 74.089,330.8514 C75.384,330.104 76.181,328.7228 76.181,327.2281 C76.181,321.6835 76.181,308.5169 76.181,308.5169 Z"/>
      <path stroke="#01050C" stroke-linecap="round" stroke-linejoin="round" d="M76.181,308.5169 L0.1578,307.3553 C0.1578,307.3553 0.1578,320.1874 0.1578,325.6502 C0.1578,327.1449 0.9552,328.5261 2.2497,329.2734 C8.8886,333.1064 29.4795,344.9946 36.8654,349.2588 C38.518,350.213 40.5542,350.213 42.2069,349.2588 C49.1783,345.2339 67.818,334.4721 74.089,330.8514 C75.384,330.104 76.181,328.7228 76.181,327.2281 C76.181,321.6835 76.181,308.5169 76.181,308.5169 Z"/>
      <path fill="#FFF" d="M38.9173,285.85 C37.9041,285.265 36.6557,285.265 35.6425,285.85 C29.5918,289.3437 8.463,301.5424 1.0416,305.8272 C0.505,306.137 0.1745,306.7095 0.1745,307.3291 C0.1745,307.9486 0.505,308.5211 1.0416,308.8309 C8.4161,313.0886 29.4061,325.2072 36.8654,329.5138 C38.518,330.468 40.5542,330.468 42.2069,329.5138 C49.0806,325.5452 67.374,314.9834 74.983,310.5907 C75.683,310.1866 76.114,309.4399 76.114,308.6317 C76.114,307.8235 75.682,307.0767 74.983,306.6727 C66.577,301.8197 45.0278,289.3783 38.9173,285.85 Z"/>
      <path stroke="#01050C" stroke-linecap="round" stroke-linejoin="round" d="M38.9173,285.85 C37.9041,285.265 36.6557,285.265 35.6425,285.85 C29.5918,289.3437 8.463,301.5424 1.0416,305.8272 C0.505,306.137 0.1745,306.7095 0.1745,307.3291 C0.1745,307.9486 0.505,308.5211 1.0416,308.8309 C8.4161,313.0886 29.4061,325.2072 36.8654,329.5138 C38.518,330.468 40.5542,330.468 42.2069,329.5138 C49.0806,325.5452 67.374,314.9834 74.983,310.5907 C75.683,310.1866 76.114,309.4399 76.114,308.6317 C76.114,307.8235 75.682,307.0767 74.983,306.6727 C66.577,301.8197 45.0278,289.3783 38.9173,285.85 Z"/>
      <path fill="#EFF4F7" d="M14.8199,302.0219 L48.7283,321.599 L41.6131,325.7069 C39.9604,326.6611 37.9242,326.6611 36.2715,325.7069 C29.9951,322.0833 14.3505,313.0508 7.8921,309.3221 C7.3025,308.9817 6.93939998,308.3527 6.93939998,307.6719 C6.93939998,306.9912 7.3025,306.3621 7.8921,306.0217 L14.8199,302.0219 Z M59.882,315.1594 L50.8703,320.3623 L16.9619,300.7853 L25.9735,295.5824 L59.882,315.1594 Z M28.1155,294.3458 L36.2363,289.6572 C37.2496,289.0722 38.4979,289.0722 39.5112,289.6572 C44.7567,292.6857 61.219,302.1903 68.389,306.3298 C69.089,306.7339 69.52,307.4807 69.52,308.2888 C69.52,309.097 69.089,309.8438 68.389,310.2479 L62.024,313.9228 L28.1155,294.3458 Z"/>
      <path stroke="#01050C" stroke-linecap="round" stroke-linejoin="round" d="M14.8199,302.0219 L48.7283,321.599 L41.6131,325.7069 C39.9604,326.6611 37.9242,326.6611 36.2715,325.7069 C29.9951,322.0833 14.3505,313.0508 7.8921,309.3221 C7.3025,308.9817 6.93939998,308.3527 6.93939998,307.6719 C6.93939998,306.9912 7.3025,306.3621 7.8921,306.0217 L14.8199,302.0219 Z M59.882,315.1594 L50.8703,320.3623 L16.9619,300.7853 L25.9735,295.5824 L59.882,315.1594 Z M28.1155,294.3458 L36.2363,289.6572 C37.2496,289.0722 38.4979,289.0722 39.5112,289.6572 C44.7567,292.6857 61.219,302.1903 68.389,306.3298 C69.089,306.7339 69.52,307.4807 69.52,308.2888 C69.52,309.097 69.089,309.8438 68.389,310.2479 L62.024,313.9228 L28.1155,294.3458 Z"/>
    </g>
  </g>
</svg>
