<svg xmlns="http://www.w3.org/2000/svg" xmlns:xlink="http://www.w3.org/1999/xlink" width="335" height="335" viewBox="0 0 335 335">
  <defs>
    <path id="supply-chain-compromise@1x-a" d="M176.336,80.784 L176.333,80.784 C176.299,81.5636 175.869,82.275 175.189,82.6674 C160.486,91.1562 103.11,124.2825 90.899,131.3322 C89.48,132.1514 87.732,132.1514 86.313,131.3322 C74.103,124.2825 16.7264,91.1562 2.0234,82.6674 C1.3436,82.275 0.914,81.5636 0.8795,80.784 L0.8769,80.784 L0.8769,0.427 L176.336,0.427 L176.336,80.784 Z"/>
    <polygon id="supply-chain-compromise@1x-c" points="12.092 7.479 .644 .869 .644 25.327 12.092 31.937"/>
    <path id="supply-chain-compromise@1x-e" d="M81.372,1.246 C79.574,0.187 76.868,0.065 75.327,0.972 C63.002,8.228 0.1443,42.585 0.1443,42.585 C0.1443,42.585 0.1328,45.602 0.1443,46.187 C0.1579,46.881 0.6655,47.613 1.6414,48.188 C12.1166,54.355 44.879,73.644 55.354,79.812 C57.152,80.87 59.858,80.993 61.399,80.086 C73.724,72.829 122.557,44.078 134.882,36.822 C137.693,35.167 136.582,32.248 136.582,32.248 C136.582,32.248 91.847,7.413 81.372,1.246 Z"/>
    <polygon id="supply-chain-compromise@1x-g" points="17.65 .699 44.964 16.469 45.997 32.513 30.584 41.412 .055 23.786"/>
  </defs>
  <g fill="none" fill-rule="evenodd" transform="translate(32 27)">
    <path fill="#EFF4F7" d="M148.455,130.498 C146.417,129.322 143.852,129.353 141.726,130.58 C123.431,141.143 37.4652,190.7755 15.436,203.4941 C14.373,204.1078 13.6911,205.2263 13.6448384,206.4284 C13.6031,207.6304 14.2037,208.7332 15.2227,209.3215 C36.3402,221.5137 118.748,269.0922 136.286,279.2176 C138.324,280.3942 140.889,280.3629 143.015,279.1355 C161.31,268.5729 247.276,218.9404 269.305,206.2218 C270.368,205.6081 271.05,204.4896 271.096264,203.2876 C271.138,202.0856 270.538,200.9827 269.519,200.3944 C248.401,188.2022 165.993,140.624 148.455,130.498 Z"/>
    <path fill="#5A6D83" fill-opacity=".2" d="M139.58,253.5936 C139.58,253.5936 152.922,254.2256 159.938,254.5579 C162.678,254.6877 165.398,254.0191 167.766,252.6331 C180.932,244.928 226.179,218.4474 240.881,209.843 C241.853,209.2742 242.452,208.2339 242.45602,207.1077 C242.46,205.9815 241.869,204.9371 240.901,204.3613 C226.425,195.7507 183.023,169.933 183.023,169.933 L139.58,167.846 L139.58,253.5936 Z"/>
    <path fill="#EFF4F7" d="M229.336,201.903 L229.333,201.903 C229.299,202.6826 228.869,203.394 228.189,203.7864 C213.486,212.2752 156.11,245.4015 143.899,252.4512 C142.48,253.2704 140.732,253.2704 139.313,252.4512 C127.103,245.4015 69.7264,212.2752 55.0234,203.7864 C54.3436,203.394 53.914,202.6826 53.8795,201.903 L53.8769,201.903 L53.8769,121.546 L229.336,121.546 L229.336,201.903 Z"/>
    <g transform="translate(53 121.119)">
      <mask id="supply-chain-compromise@1x-b" fill="#fff">
        <use xlink:href="#supply-chain-compromise@1x-a"/>
      </mask>
      <polygon fill="#FFF" points="-7.326 155.036 88.606 155.036 88.606 -11.376 -7.326 -11.376" mask="url(#supply-chain-compromise@1x-b)"/>
      <polygon fill="#5A6D83" fill-opacity=".2" points="63.581 94.036 63.581 117.036 7.646 151.882 -41.326 127.397 22.116 88.153" mask="url(#supply-chain-compromise@1x-b)"/>
    </g>
    <path stroke="#01050C" stroke-linecap="round" stroke-linejoin="round" d="M229.336,201.903 L229.333,201.903 C229.299,202.6826 228.869,203.394 228.189,203.7864 C213.486,212.2752 156.11,245.4015 143.899,252.4512 C142.48,253.2704 140.732,253.2704 139.313,252.4512 C127.103,245.4015 69.7264,212.2752 55.0234,203.7864 C54.3436,203.394 53.914,202.6826 53.8795,201.903 L53.8769,201.903 L53.8769,121.546 L229.336,121.546 L229.336,201.903 Z"/>
    <path fill="#FFF" d="M143.899,70.131 C142.48,69.312 140.732,69.312 139.313,70.131 C127.103,77.181 69.7264,110.307 55.0234,118.796 C54.3139,119.205 53.8769,119.962 53.8769,120.782 C53.8769,121.601 54.3139,122.358 55.0234,122.767 C69.7264,131.256 127.103,164.382 139.313,171.432 C140.732,172.251 142.48,172.251 143.899,171.432 C156.11,164.382 213.486,131.256 228.189,122.767 C228.899,122.358 229.336,121.601 229.336,120.782 C229.336,119.962 228.899,119.205 228.189,118.796 C213.486,110.307 156.11,77.181 143.899,70.131 Z"/>
    <path stroke="#01050C" stroke-linecap="round" stroke-linejoin="round" d="M143.899,70.131 C142.48,69.312 140.732,69.312 139.313,70.131 C127.103,77.181 69.7264,110.307 55.0234,118.796 C54.3139,119.205 53.8769,119.962 53.8769,120.782 C53.8769,121.601 54.3139,122.358 55.0234,122.767 C69.7264,131.256 127.103,164.382 139.313,171.432 C140.732,172.251 142.48,172.251 143.899,171.432 C156.11,164.382 213.486,131.256 228.189,122.767 C228.899,122.358 229.336,121.601 229.336,120.782 C229.336,119.962 228.899,119.205 228.189,118.796 C213.486,110.307 156.11,77.181 143.899,70.131 Z"/>
    <path fill="#5A6D83" fill-opacity=".21" d="M132.666,158.556 C132.666,158.556 134.611,158.809 136.687,159.079 C139.872,159.494 143.103,158.814 145.851,157.151 C159.039,149.173 199.23,124.858 212.81,116.641 C213.767,116.063 214.35,115.025 214.345032,113.907 C214.341,112.789 213.751,111.755 212.79,111.183 C200.991,104.165 170.369,85.949 170.369,85.949 L132.666,84.138 L132.666,158.556 Z"/>
    <path stroke="#01050C" stroke-linecap="round" stroke-linejoin="round" d="M229.336,195.6311 L229.336,195.686 C229.336,196.5052 228.899,197.2622 228.189,197.6718 C213.486,206.1606 156.11,239.2868 143.899,246.3366 C142.48,247.1558 140.732,247.1558 139.313,246.3366 C127.103,239.2868 69.7264,206.1606 55.0234,197.6718 C54.3139,197.2622 53.8769,196.5052 53.8769,195.686 L53.8769,195.6311"/>
    <line x1="156.105" x2="186.892" y1="180.442" y2="162.667" stroke="#01050C" stroke-linecap="round" stroke-linejoin="round"/>
    <line x1="156.105" x2="186.892" y1="189.614" y2="171.839" stroke="#01050C" stroke-linecap="round" stroke-linejoin="round"/>
    <line x1="156.105" x2="186.892" y1="198.786" y2="181.011" stroke="#01050C" stroke-linecap="round" stroke-linejoin="round"/>
    <line x1="156.105" x2="186.892" y1="208.154" y2="190.379" stroke="#01050C" stroke-linecap="round" stroke-linejoin="round"/>
    <line x1="156.105" x2="186.892" y1="217.326" y2="199.551" stroke="#01050C" stroke-linecap="round" stroke-linejoin="round"/>
    <polygon fill="#EFF4F7" points="117.22 177.669 71.878 151.491 71.878 144.612 117.22 170.79"/>
    <polygon stroke="#01050C" stroke-linecap="round" stroke-linejoin="round" points="117.22 177.669 71.878 151.491 71.878 144.612 117.22 170.79"/>
    <path fill="#EFF4F7" d="M62.5397,141.514 C61.3111,140.804 60.3136,141.38 60.3136,142.799 C60.3136,144.218 61.3111,145.945 62.5397,146.655 C63.7684,147.364 64.7659,146.788 64.7659,145.369 C64.7659,143.951 63.7684,142.223 62.5397,141.514 Z"/>
    <path stroke="#01050C" stroke-linecap="round" stroke-linejoin="round" d="M62.5397,141.514 C61.3111,140.804 60.3136,141.38 60.3136,142.799 C60.3136,144.218 61.3111,145.945 62.5397,146.655 C63.7684,147.364 64.7659,146.788 64.7659,145.369 C64.7659,143.951 63.7684,142.223 62.5397,141.514 Z"/>
    <path fill="#EFF4F7" d="M132.535,182.6898 C131.307,181.9804 130.309,182.5564 130.309,183.9751 C130.309,185.3938 131.307,187.1216 132.535,187.831 C133.764,188.5403 134.761,187.9644 134.761,186.5457 C134.761,185.1269 133.764,183.3992 132.535,182.6898 Z"/>
    <path stroke="#01050C" stroke-linecap="round" stroke-linejoin="round" d="M132.535,182.6898 C131.307,181.9804 130.309,182.5564 130.309,183.9751 C130.309,185.3938 131.307,187.1216 132.535,187.831 C133.764,188.5403 134.761,187.9644 134.761,186.5457 C134.761,185.1269 133.764,183.3992 132.535,182.6898 Z"/>
    <path fill="#EFF4F7" d="M132.535,194.1548 C131.307,193.4454 130.309,194.0213 130.309,195.44 C130.309,196.8588 131.307,198.5865 132.535,199.2959 C133.764,200.0053 134.761,199.4294 134.761,198.0106 C134.761,196.5919 133.764,194.8641 132.535,194.1548 Z"/>
    <path stroke="#01050C" stroke-linecap="round" stroke-linejoin="round" d="M132.535 194.1548C131.307 193.4454 130.309 194.0213 130.309 195.44 130.309 196.8588 131.307 198.5865 132.535 199.2959 133.764 200.0053 134.761 199.4294 134.761 198.0106 134.761 196.5919 133.764 194.8641 132.535 194.1548zM221.143 146.054C222.372 145.345 223.369 145.921 223.369 147.34 223.369 148.758 222.372 150.486 221.143 151.195 219.915 151.905 218.917 151.329 218.917 149.91 218.917 148.491 219.915 146.764 221.143 146.054zM221.143 157.519C222.372 156.81 223.369 157.386 223.369 158.804 223.369 160.223 222.372 161.951 221.143 162.66 219.915 163.37 218.917 162.794 218.917 161.375 218.917 159.956 219.915 158.229 221.143 157.519zM221.143 188.6616C222.372 187.9522 223.369 188.5281 223.369 189.9469 223.369 191.3656 222.372 193.0934 221.143 193.8027 219.915 194.5121 218.917 193.9362 218.917 192.5174 218.917 191.0987 219.915 189.3709 221.143 188.6616z"/>
    <path fill="#EFF4F7" d="M62.5397,152.979 C61.3111,152.269 60.3136,152.845 60.3136,154.264 C60.3136,155.683 61.3111,157.41 62.5397,158.12 C63.7684,158.829 64.7659,158.253 64.7659,156.834 C64.7659,155.416 63.7684,153.688 62.5397,152.979 Z"/>
    <path stroke="#01050C" stroke-linecap="round" stroke-linejoin="round" d="M62.5397,152.979 C61.3111,152.269 60.3136,152.845 60.3136,154.264 C60.3136,155.683 61.3111,157.41 62.5397,158.12 C63.7684,158.829 64.7659,158.253 64.7659,156.834 C64.7659,155.416 63.7684,153.688 62.5397,152.979 Z"/>
    <polygon stroke="#01050C" stroke-linecap="round" stroke-linejoin="round" points="211.876 149.007 198.638 156.65 198.638 194.102 211.876 186.459"/>
    <polygon fill="#5A6D83" points="116.227 183.593 71.878 157.988 71.878 191.236 116.227 216.841"/>
    <polygon stroke="#01050C" stroke-linecap="round" stroke-linejoin="round" points="116.227 183.593 71.878 157.988 71.878 191.236 116.227 216.841"/>
    <polygon fill="#FFF" points="116.36 196.287 62.28 227.51 62.28 243.986 116.36 212.763"/>
    <polygon stroke="#01050C" stroke-linecap="round" stroke-linejoin="round" points="116.36 196.287 62.28 227.51 62.28 243.986 116.36 212.763"/>
    <polygon fill="#FFF" points="3.502 237.737 36.142 256.582 46.164 239.223 13.055 220.107"/>
    <polygon stroke="#01050C" stroke-linecap="round" stroke-linejoin="round" points="3.502 237.737 36.142 256.582 46.164 239.223 13.055 220.107"/>
    <path fill="#FFF" d="M82.8031,194.1505 L8.7094,236.9286 C4.3042,239.4719 0.7277,237.407 0.7277,232.3204 C0.7277,227.2337 4.3042,221.0391 8.7094,218.4958 L82.8031,175.714"/>
    <path stroke="#01050C" stroke-linecap="round" stroke-linejoin="round" d="M82.8031,194.1505 L8.7094,236.9286 C4.3042,239.4719 0.7277,237.407 0.7277,232.3204 C0.7277,227.2337 4.3042,221.0391 8.7094,218.4958 L82.8031,175.714"/>
    <polygon fill="#FFF" points="98.644 174.144 3.502 237.737 33.454 255.03 115.701 207.545 116.092 184.393"/>
    <path fill="#5A6D83" fill-opacity=".2" d="M30.1141 231.1549L38.6738 231.1549C38.6738 231.1549 49.5015 225.1526 52.7581 223.3472 52.9389 223.247 53.0499 223.0554 53.0469593 222.8487 53.0439 222.642 52.9274 222.4537 52.7438 222.3588 50.1162 221.0002 42.8263 217.2312 42.8263 217.2312L30.1141 223.5873 30.1141 231.1549zM59.2434 213.3264L67.8031 213.3264C67.8031 213.3264 78.7592 207.2529 81.9444 205.4871 82.114 205.3932 82.2181 205.2135 82.2152591 205.0196 82.2124 204.8258 82.1032 204.6492 81.931 204.5602 79.3543 203.228 71.9556 199.4027 71.9556 199.4027L59.2434 205.7588 59.2434 213.3264z"/>
    <polygon fill="#5A6D83" fill-opacity=".2" points="91.101 195.018 100.101 194.518 115.101 187.018 103.253 181.094 90.541 187.45"/>
    <line x1="74.237" x2="91.734" y1="189.375" y2="199.477" stroke="#01050C" stroke-linecap="round" stroke-linejoin="round"/>
    <line x1="55.569" x2="73.066" y1="200.154" y2="210.256" stroke="#01050C" stroke-linecap="round" stroke-linejoin="round"/>
    <line x1="36.9" x2="54.398" y1="210.932" y2="221.034" stroke="#01050C" stroke-linecap="round" stroke-linejoin="round"/>
    <line x1="18.232" x2="35.729" y1="221.71" y2="231.812" stroke="#01050C" stroke-linecap="round" stroke-linejoin="round"/>
    <line x1="3.502" x2="34.297" y1="237.737" y2="255.517" stroke="#01050C" stroke-linecap="round" stroke-linejoin="round"/>
    <path fill="#EFF4F7" d="M115.701,213.1439 L41.6069,255.922 C37.2017,258.4653 33.6252,256.4004 33.6252,251.3138 C33.6252,246.2271 37.2017,240.0325 41.6069,237.4892 L115.701,194.7073"/>
    <path stroke="#01050C" stroke-linecap="round" stroke-linejoin="round" d="M115.701,213.1439 L41.6069,255.922 C37.2017,258.4653 33.6252,256.4004 33.6252,251.3138 C33.6252,246.2271 37.2017,240.0325 41.6069,237.4892 L115.701,194.7073"/>
    <path fill="#FFF" d="M42.2068,240.0207 C45.2262,238.2775 47.6775,239.6927 47.6775,243.1791 C47.6775,246.6656 45.2262,250.9114 42.2068,252.6546 C39.1875,254.3978 36.7362,252.9825 36.7362,249.4961 C36.7362,246.0097 39.1875,241.7639 42.2068,240.0207 Z"/>
    <path stroke="#01050C" stroke-linecap="round" stroke-linejoin="round" d="M42.2068,240.0207 C45.2262,238.2775 47.6775,239.6927 47.6775,243.1791 C47.6775,246.6656 45.2262,250.9114 42.2068,252.6546 C39.1875,254.3978 36.7362,252.9825 36.7362,249.4961 C36.7362,246.0097 39.1875,241.7639 42.2068,240.0207 Z"/>
    <path fill="#B1BBC9" d="M42.2068,244.6066 C43.0342,244.129 43.7059,244.5168 43.7059,245.4721 C43.7059,246.4275 43.0342,247.5909 42.2068,248.0686 C41.3795,248.5463 40.7078,248.1584 40.7078,247.2031 C40.7078,246.2478 41.3795,245.0843 42.2068,244.6066 Z"/>
    <path stroke="#01050C" stroke-linecap="round" stroke-linejoin="round" d="M42.2068,244.6066 C43.0342,244.129 43.7059,244.5168 43.7059,245.4721 C43.7059,246.4275 43.0342,247.5909 42.2068,248.0686 C41.3795,248.5463 40.7078,248.1584 40.7078,247.2031 C40.7078,246.2478 41.3795,245.0843 42.2068,244.6066 Z"/>
    <path fill="#FFF" d="M81.7088,217.2142 C84.7282,215.471 87.1795,216.8862 87.1795,220.3727 C87.1795,223.8591 84.7282,228.1049 81.7088,229.8481 C78.6895,231.5913 76.2382,230.176 76.2382,226.6896 C76.2382,223.2032 78.6895,218.9574 81.7088,217.2142 Z"/>
    <path stroke="#01050C" stroke-linecap="round" stroke-linejoin="round" d="M81.7088,217.2142 C84.7282,215.471 87.1795,216.8862 87.1795,220.3727 C87.1795,223.8591 84.7282,228.1049 81.7088,229.8481 C78.6895,231.5913 76.2382,230.176 76.2382,226.6896 C76.2382,223.2032 78.6895,218.9574 81.7088,217.2142 Z"/>
    <path fill="#B1BBC9" d="M82.0814,221.7751 C82.9088,221.2974 83.5805,221.6852 83.5805,222.6406 C83.5805,223.5959 82.9088,224.7594 82.0814,225.237 C81.2541,225.7147 80.5824,225.3269 80.5824,224.3715 C80.5824,223.4162 81.2541,222.2528 82.0814,221.7751 Z"/>
    <path stroke="#01050C" stroke-linecap="round" stroke-linejoin="round" d="M82.0814,221.7751 C82.9088,221.2974 83.5805,221.6852 83.5805,222.6406 C83.5805,223.5959 82.9088,224.7594 82.0814,225.237 C81.2541,225.7147 80.5824,225.3269 80.5824,224.3715 C80.5824,223.4162 81.2541,222.2528 82.0814,221.7751 Z"/>
    <g transform="translate(104 187.119)">
      <mask id="supply-chain-compromise@1x-d" fill="#fff">
        <use xlink:href="#supply-chain-compromise@1x-c"/>
      </mask>
      <path fill="#FFF" d="M9.735,11.6046 C12.755,9.8614 15.206,11.2767 15.206,14.7631 C15.206,18.2495 12.755,22.4953 9.735,24.2385 C6.716,25.9817 4.265,24.5665 4.265,21.08 C4.265,17.5936 6.716,13.3478 9.735,11.6046 Z" mask="url(#supply-chain-compromise@1x-d)"/>
      <path stroke="#01050C" stroke-linecap="round" stroke-linejoin="round" d="M9.735,11.6046 C12.755,9.8614 15.206,11.2767 15.206,14.7631 C15.206,18.2495 12.755,22.4953 9.735,24.2385 C6.716,25.9817 4.265,24.5665 4.265,21.08 C4.265,17.5936 6.716,13.3478 9.735,11.6046 Z" mask="url(#supply-chain-compromise@1x-d)"/>
    </g>
    <path fill="#FFF" d="M113.602,203.5769 C114.429,203.0992 115.101,203.487 115.101,204.4424 C115.101,205.3977 114.429,206.5611 113.602,207.0388 C112.774,207.5165 112.103,207.1287 112.103,206.1733 C112.103,205.218 112.774,204.0545 113.602,203.5769 Z"/>
    <path stroke="#01050C" stroke-linecap="round" stroke-linejoin="round" d="M113.602,203.5769 C114.429,203.0992 115.101,203.487 115.101,204.4424 C115.101,205.3977 114.429,206.5611 113.602,207.0388 C112.774,207.5165 112.103,207.1287 112.103,206.1733 C112.103,205.218 112.774,204.0545 113.602,203.5769 Z"/>
    <path fill="#FFF" d="M156.372,78.365 C154.574,77.306 151.868,77.184 150.327,78.091 C138.002,85.347 75.1443,119.704 75.1443,119.704 C75.1443,119.704 75.1328,122.721 75.1443,123.306 C75.1579,124 75.6655,124.732 76.6414,125.307 C87.1166,131.474 119.879,150.763 130.354,156.931 C132.152,157.989 134.858,158.112 136.399,157.205 C148.724,149.948 197.557,121.197 209.882,113.941 C212.693,112.286 211.582,109.367 211.582,109.367 C211.582,109.367 166.847,84.532 156.372,78.365 Z"/>
    <g transform="translate(75 77.119)">
      <mask id="supply-chain-compromise@1x-f" fill="#fff">
        <use xlink:href="#supply-chain-compromise@1x-e"/>
      </mask>
      <polygon fill="#EFF4F7" points="59.674 95.207 144.674 95.207 144.674 24.207 59.674 24.207" mask="url(#supply-chain-compromise@1x-f)"/>
    </g>
    <path stroke="#01050C" stroke-linecap="round" stroke-linejoin="round" d="M156.372,78.365 C154.574,77.306 151.868,77.184 150.327,78.091 C138.002,85.347 75.1443,119.704 75.1443,119.704 C75.1443,119.704 75.1328,122.721 75.1443,123.306 C75.1579,124 75.6655,124.732 76.6414,125.307 C87.1166,131.474 119.879,150.763 130.354,156.931 C132.152,157.989 134.858,158.112 136.399,157.205 C148.724,149.948 197.557,121.197 209.882,113.941 C212.693,112.286 211.582,109.367 211.582,109.367 C211.582,109.367 166.847,84.532 156.372,78.365 Z"/>
    <path fill="#FFF" d="M156.372,74.464 C154.574,73.406 151.868,73.283 150.327,74.19 C138.002,81.447 88.501,110.591 76.176,117.847 C74.6352,118.754 74.8436,120.348 76.6414,121.406 C87.1166,127.574 119.879,146.863 130.354,153.03 C132.152,154.089 134.858,154.211 136.399,153.304 C148.724,146.048 198.225,116.903 210.55,109.647 C212.091,108.74 211.882,107.146 210.084,106.088 C199.609,99.92 166.847,80.632 156.372,74.464 Z"/>
    <path stroke="#01050C" stroke-linecap="round" stroke-linejoin="round" d="M156.372,74.464 C154.574,73.406 151.868,73.283 150.327,74.19 C138.002,81.447 88.501,110.591 76.176,117.847 C74.6352,118.754 74.8436,120.348 76.6414,121.406 C87.1166,127.574 119.879,146.863 130.354,153.03 C132.152,154.089 134.858,154.211 136.399,153.304 C148.724,146.048 198.225,116.903 210.55,109.647 C212.091,108.74 211.882,107.146 210.084,106.088 C199.609,99.92 166.847,80.632 156.372,74.464 Z"/>
    <path fill="#EFF4F7" d="M156.549,81.435 C155.707,80.94 153.982,81.152 152.695,81.909 C142.402,87.969 101.063,112.308 90.7702,118.368 C89.4835,119.126 89.1229,120.142 89.9648,120.638 C94.8703,123.526 110.213,132.559 115.118,135.447 C115.96,135.943 117.686,135.73 118.973,134.973 C129.265,128.913 170.605,104.574 180.897,98.514 C182.184,97.756 182.545,96.74 181.703,96.245 C176.797,93.356 161.455,84.323 156.549,81.435 Z"/>
    <path stroke="#01050C" stroke-linecap="round" stroke-linejoin="round" d="M156.549,81.435 C155.707,80.94 153.982,81.152 152.695,81.909 C142.402,87.969 101.063,112.308 90.7702,118.368 C89.4835,119.126 89.1229,120.142 89.9648,120.638 C94.8703,123.526 110.213,132.559 115.118,135.447 C115.96,135.943 117.686,135.73 118.973,134.973 C129.265,128.913 170.605,104.574 180.897,98.514 C182.184,97.756 182.545,96.74 181.703,96.245 C176.797,93.356 161.455,84.323 156.549,81.435 Z"/>
    <path fill="#EFF4F7" d="M167.723,113.284 C167.328,113.052 166.631,113.086 166.165,113.36 C162.44,115.554 147.479,124.362 143.754,126.555 C143.288,126.83 143.23,127.24 143.625,127.472 C145.922,128.825 153.107,133.055 155.404,134.407 C155.798,134.64 156.495,134.605 156.961,134.331 C160.686,132.138 175.647,123.329 179.373,121.136 C179.838,120.862 179.896,120.452 179.502,120.219 C177.205,118.867 170.02,114.637 167.723,113.284 Z"/>
    <path stroke="#01050C" stroke-linecap="round" stroke-linejoin="round" d="M167.723,113.284 C167.328,113.052 166.631,113.086 166.165,113.36 C162.44,115.554 147.479,124.362 143.754,126.555 C143.288,126.83 143.23,127.24 143.625,127.472 C145.922,128.825 153.107,133.055 155.404,134.407 C155.798,134.64 156.495,134.605 156.961,134.331 C160.686,132.138 175.647,123.329 179.373,121.136 C179.838,120.862 179.896,120.452 179.502,120.219 C177.205,118.867 170.02,114.637 167.723,113.284 Z"/>
    <path fill="#FFF" d="M72.2972,115.598 C71.6556,115.274 71.2444,114.433 71.2444,113.219 L71.2444,49.971 C71.2444,47.854 72.4935,45.403 74.0343,44.496 C86.3593,37.239 135.86,8.095 148.185,0.838 C148.806,0.473 149.38,0.414 149.844,0.613 L149.854,0.606 L153.252,2.353 L150.975,5.688 L150.975,66.276 C150.975,68.393 149.726,70.845 148.185,71.752 L77.4374,113.406 L75.1392,116.772 L72.4879,115.677 C72.4232,115.656 72.3605,115.63 72.2999,115.6 L72.2972,115.598 Z"/>
    <path stroke="#01050C" stroke-linecap="round" stroke-linejoin="round" d="M72.2972,115.598 C71.6556,115.274 71.2444,114.433 71.2444,113.219 L71.2444,49.971 C71.2444,47.854 72.4935,45.403 74.0343,44.496 C86.3593,37.239 135.86,8.095 148.185,0.838 C148.806,0.473 149.38,0.414 149.844,0.613 L149.854,0.606 L153.252,2.353 L150.975,5.688 L150.975,66.276 C150.975,68.393 149.726,70.845 148.185,71.752 L77.4374,113.406 L75.1392,116.772 L72.4879,115.677 C72.4232,115.656 72.3605,115.63 72.2999,115.6 L72.2972,115.598 Z"/>
    <path fill="#FFF" d="M154.342,4.746 C154.342,2.629 153.093,1.648 151.552,2.555 C139.227,9.812 89.7261,38.956 77.4011,46.212 C75.8603,47.119 74.6112,49.571 74.6112,51.688 L74.6112,114.935 C74.6112,117.052 75.8603,118.033 77.4011,117.126 C89.7261,109.87 139.227,80.725 151.552,73.469 C153.093,72.562 154.342,70.11 154.342,67.993 L154.342,4.746 Z"/>
    <path stroke="#01050C" stroke-linecap="round" stroke-linejoin="round" d="M154.342,4.746 C154.342,2.629 153.093,1.648 151.552,2.555 C139.227,9.812 89.7261,38.956 77.4011,46.212 C75.8603,47.119 74.6112,49.571 74.6112,51.688 L74.6112,114.935 C74.6112,117.052 75.8603,118.033 77.4011,117.126 C89.7261,109.87 139.227,80.725 151.552,73.469 C153.093,72.562 154.342,70.11 154.342,67.993 L154.342,4.746 Z"/>
    <path fill="#EFF4F7" d="M149.29,11.728 C149.29,9.879 148.199,9.023 146.853,9.815 C136.09,16.152 92.8628,41.603 82.0998,47.939 C80.7542,48.732 79.6635,50.873 79.6635,52.721 L79.6635,107.953 C79.6635,109.802 80.7542,110.658 82.0998,109.866 C92.8628,103.529 136.09,78.079 146.853,71.742 C148.199,70.95 149.29,68.809 149.29,66.96 L149.29,11.728 Z"/>
    <path stroke="#01050C" stroke-linecap="round" stroke-linejoin="round" d="M149.29,11.728 C149.29,9.879 148.199,9.023 146.853,9.815 C136.09,16.152 92.8628,41.603 82.0998,47.939 C80.7542,48.732 79.6635,50.873 79.6635,52.721 L79.6635,107.953 C79.6635,109.802 80.7542,110.658 82.0998,109.866 C92.8628,103.529 136.09,78.079 146.853,71.742 C148.199,70.95 149.29,68.809 149.29,66.96 L149.29,11.728 Z"/>
    <line x1="127.981" x2="119.83" y1="44.271" y2="49.035" stroke="#5A6D83" stroke-linecap="round" stroke-linejoin="round"/>
    <line x1="125.086" x2="113.532" y1="43.278" y2="49.949" stroke="#5A6D83" stroke-linecap="round" stroke-linejoin="round"/>
    <line x1="121.288" x2="113.532" y1="42.704" y2="47.182" stroke="#5A6D83" stroke-linecap="round" stroke-linejoin="round"/>
    <line x1="122.426" x2="115.633" y1="39.28" y2="43.202" stroke="#5A6D83" stroke-linecap="round" stroke-linejoin="round"/>
    <line x1="123.998" x2="113.532" y1="49.44" y2="55.483" stroke="#5A6D83" stroke-linecap="round" stroke-linejoin="round"/>
    <line x1="123.998" x2="113.532" y1="52.208" y2="58.25" stroke="#5A6D83" stroke-linecap="round" stroke-linejoin="round"/>
    <line x1="119.509" x2="115.633" y1="57.566" y2="59.804" stroke="#5A6D83" stroke-linecap="round" stroke-linejoin="round"/>
    <line x1="119.509" x2="115.633" y1="60.333" y2="62.571" stroke="#5A6D83" stroke-linecap="round" stroke-linejoin="round"/>
    <line x1="121.876" x2="113.532" y1="61.734" y2="66.551" stroke="#5A6D83" stroke-linecap="round" stroke-linejoin="round"/>
    <line x1="116.419" x2="113.532" y1="67.651" y2="69.318" stroke="#5A6D83" stroke-linecap="round" stroke-linejoin="round"/>
    <line x1="125.086" x2="119.83" y1="63.135" y2="66.169" stroke="#5A6D83" stroke-linecap="round" stroke-linejoin="round"/>
    <line x1="123.998" x2="112.106" y1="68.81" y2="75.676" stroke="#5A6D83" stroke-linecap="round" stroke-linejoin="round"/>
    <line x1="117.11" x2="112.106" y1="75.554" y2="78.443" stroke="#5A6D83" stroke-linecap="round" stroke-linejoin="round"/>
    <line x1="123.473" x2="119.309" y1="71.985" y2="74.248" stroke="#5A6D83" stroke-linecap="round" stroke-linejoin="round"/>
    <line x1="122.226" x2="115.009" y1="75.23" y2="79.511" stroke="#5A6D83" stroke-linecap="round" stroke-linejoin="round"/>
    <line x1="115.009" x2="104.431" y1="51.863" y2="57.97" stroke="#5A6D83" stroke-linecap="round" stroke-linejoin="round"/>
    <line x1="113.532" x2="110.679" y1="44.415" y2="46.062" stroke="#5A6D83" stroke-linecap="round" stroke-linejoin="round"/>
    <line x1="114.608" x2="110.93" y1="71.768" y2="73.892" stroke="#5A6D83" stroke-linecap="round" stroke-linejoin="round"/>
    <line x1="125.086" x2="121.408" y1="66.529" y2="68.652" stroke="#5A6D83" stroke-linecap="round" stroke-linejoin="round"/>
    <line x1="131.805" x2="129.928" y1="42.287" y2="43.37" stroke="#5A6D83" stroke-linecap="round" stroke-linejoin="round"/>
    <line x1="130.466" x2="127.362" y1="40.293" y2="42.085" stroke="#5A6D83" stroke-linecap="round" stroke-linejoin="round"/>
    <line x1="129.005" x2="123.473" y1="38.369" y2="41.402" stroke="#5A6D83" stroke-linecap="round" stroke-linejoin="round"/>
    <line x1="125.489" x2="124.562" y1="37.415" y2="37.951" stroke="#5A6D83" stroke-linecap="round" stroke-linejoin="round"/>
    <line x1="132.948" x2="127.362" y1="44.394" y2="47.619" stroke="#5A6D83" stroke-linecap="round" stroke-linejoin="round"/>
    <line x1="133.402" x2="127.362" y1="46.899" y2="50.386" stroke="#5A6D83" stroke-linecap="round" stroke-linejoin="round"/>
    <line x1="133.554" x2="127.362" y1="49.578" y2="53.153" stroke="#5A6D83" stroke-linecap="round" stroke-linejoin="round"/>
    <line x1="133.402" x2="126.783" y1="52.556" y2="56.242" stroke="#5A6D83" stroke-linecap="round" stroke-linejoin="round"/>
    <line x1="132.592" x2="125.489" y1="55.728" y2="59.747" stroke="#5A6D83" stroke-linecap="round" stroke-linejoin="round"/>
    <line x1="131.805" x2="126.862" y1="59.051" y2="61.905" stroke="#5A6D83" stroke-linecap="round" stroke-linejoin="round"/>
    <line x1="110.679" x2="104.431" y1="51.596" y2="55.203" stroke="#5A6D83" stroke-linecap="round" stroke-linejoin="round"/>
    <line x1="110.679" x2="107.284" y1="48.829" y2="50.789" stroke="#5A6D83" stroke-linecap="round" stroke-linejoin="round"/>
    <line x1="110.679" x2="103.169" y1="57.13" y2="61.466" stroke="#5A6D83" stroke-linecap="round" stroke-linejoin="round"/>
    <line x1="110.679" x2="102.714" y1="59.897" y2="64.496" stroke="#5A6D83" stroke-linecap="round" stroke-linejoin="round"/>
    <line x1="108.914" x2="102.125" y1="63.647" y2="67.424" stroke="#5A6D83" stroke-linecap="round" stroke-linejoin="round"/>
    <line x1="108.914" x2="102.4" y1="66.451" y2="70.211" stroke="#5A6D83" stroke-linecap="round" stroke-linejoin="round"/>
    <line x1="110.679" x2="103.169" y1="68.198" y2="72.534" stroke="#5A6D83" stroke-linecap="round" stroke-linejoin="round"/>
    <line x1="110.679" x2="104.431" y1="70.965" y2="74.573" stroke="#5A6D83" stroke-linecap="round" stroke-linejoin="round"/>
    <line x1="86.138" x2="94.024" y1="58.278" y2="53.725" stroke="#5A6D83" stroke-linecap="round" stroke-linejoin="round"/>
    <line x1="97.892" x2="105.778" y1="52.401" y2="47.848" stroke="#5A6D83" stroke-linecap="round" stroke-linejoin="round"/>
    <line x1="86.138" x2="92.571" y1="64.127" y2="60.413" stroke="#5A6D83" stroke-linecap="round" stroke-linejoin="round"/>
    <line x1="95.573" x2="102.581" y1="59.409" y2="55.364" stroke="#5A6D83" stroke-linecap="round" stroke-linejoin="round"/>
    <line x1="86.138" x2="97.892" y1="69.677" y2="63.131" stroke="#5A6D83" stroke-linecap="round" stroke-linejoin="round"/>
    <line x1="86.138" x2="95.573" y1="76.515" y2="71.067" stroke="#5A6D83" stroke-linecap="round" stroke-linejoin="round"/>
    <line x1="86.138" x2="90.461" y1="89.905" y2="87.409" stroke="#5A6D83" stroke-linecap="round" stroke-linejoin="round"/>
    <line x1="86.138" x2="96.604" y1="96.709" y2="90.667" stroke="#5A6D83" stroke-linecap="round" stroke-linejoin="round"/>
    <line x1="93.115" x2="101.835" y1="85.877" y2="80.843" stroke="#5A6D83" stroke-linecap="round" stroke-linejoin="round"/>
    <line x1="99.457" x2="105.705" y1="89.02" y2="85.412" stroke="#5A6D83" stroke-linecap="round" stroke-linejoin="round"/>
    <line x1="86.138" x2="93.115" y1="83.352" y2="79.324" stroke="#5A6D83" stroke-linecap="round" stroke-linejoin="round"/>
    <line x1="96.16" x2="98.79" y1="77.566" y2="76.048" stroke="#5A6D83" stroke-linecap="round" stroke-linejoin="round"/>
    <line x1="130.122" x2="144.363" y1="32.945" y2="25.215" stroke="#5A6D83" stroke-linecap="round" stroke-linejoin="round"/>
    <line x1="138.326" x2="144.758" y1="34.55" y2="30.836" stroke="#5A6D83" stroke-linecap="round" stroke-linejoin="round"/>
    <line x1="136.477" x2="145.122" y1="41.167" y2="36.175" stroke="#5A6D83" stroke-linecap="round" stroke-linejoin="round"/>
    <line x1="138.448" x2="144.363" y1="46.866" y2="43.451" stroke="#5A6D83" stroke-linecap="round" stroke-linejoin="round"/>
    <line x1="132.243" x2="136.566" y1="63.839" y2="61.343" stroke="#5A6D83" stroke-linecap="round" stroke-linejoin="round"/>
    <line x1="132.243" x2="144.871" y1="71.267" y2="63.353" stroke="#5A6D83" stroke-linecap="round" stroke-linejoin="round"/>
    <line x1="139.219" x2="145.137" y1="59.812" y2="56.395" stroke="#5A6D83" stroke-linecap="round" stroke-linejoin="round"/>
    <line x1="137.242" x2="139.461" y1="54.4" y2="53.119" stroke="#5A6D83" stroke-linecap="round" stroke-linejoin="round"/>
    <line x1="141.557" x2="144.758" y1="51.909" y2="50.061" stroke="#5A6D83" stroke-linecap="round" stroke-linejoin="round"/>
    <g transform="translate(65 164.119)">
      <mask id="supply-chain-compromise@1x-h" fill="#fff">
        <use xlink:href="#supply-chain-compromise@1x-g"/>
      </mask>
      <polygon fill="#E01A33" points="40.657 6.944 26.918 14.876 26.918 30.741 40.657 22.809" mask="url(#supply-chain-compromise@1x-h)"/>
      <polygon stroke="#FFF" stroke-linecap="round" stroke-linejoin="round" points="40.657 6.944 26.918 14.876 26.918 30.741 40.657 22.809" mask="url(#supply-chain-compromise@1x-h)"/>
      <path fill="#FFF" d="M32.279,23.0336 C32.279,22.7918 32.196,22.6079 32.047,22.5224 C31.899,22.437 31.699,22.4569 31.489,22.5778 C31.306,22.6834 31.118,22.7923 30.9545,22.8864 C30.6525,23.061 30.3751,23.0287 30.2335,22.8025 C29.9523,22.3062 29.7894,21.6598 29.7894,20.8758 C29.7894,18.2221 31.655,14.99 33.953,13.664 C36.252,12.337 38.117,13.414 38.117,16.068 C38.117,16.852 37.954,17.6861 37.666,18.507 C37.526,18.8928 37.251,19.2419 36.952,19.4145 C36.789,19.5177 36.601,19.6267 36.418,19.7323 C36.208,19.8532 36.007,20.0652 35.859,20.3217 C35.711,20.5781 35.628,20.8581 35.628,21.0999 C35.628,21.3791 35.628,21.0368 35.628,21.3236 C35.628,21.8946 35.227,22.5889 34.733,22.8743 C34.25,23.1529 33.657,23.4957 33.174,23.7743 C32.68,24.0597 32.279,23.8283 32.279,23.2574 C32.279,22.9706 32.279,23.3129 32.279,23.0336 Z M34.484,21.2668 C34.533,21.2386 34.578,21.1815 34.6,21.1185 C34.623,21.0555 34.62,20.9967 34.593,20.9659 C34.439,20.7923 34.194,20.5163 34.052,20.3568 C34.027,20.329 33.986,20.3278 33.942,20.3536 C33.898,20.3794 33.857,20.4289 33.833,20.4854 C33.695,20.807 33.457,21.3615 33.308,21.7094 C33.282,21.7716 33.279,21.8328 33.302,21.8688 C33.326,21.9048 33.37,21.9098 33.419,21.8818 C33.709,21.714 34.191,21.4356 34.484,21.2668 Z M32.484,18.6258 C32.965,18.3482 33.355,18.5736 33.355,19.1289 C33.355,19.6842 32.965,20.3604 32.484,20.6381 C32.003,20.9157 31.613,20.6903 31.613,20.135 C31.613,19.5797 32.003,18.9035 32.484,18.6258 Z M35.232,17.0394 C35.713,16.762 36.103,16.987 36.103,17.5424 C36.103,18.0977 35.713,18.774 35.232,19.0516 C34.751,19.3293 34.361,19.1039 34.361,18.5486 C34.361,17.9933 34.751,17.317 35.232,17.0394 Z" mask="url(#supply-chain-compromise@1x-h)"/>
      <polygon fill="#E01A33" points="13.178 6.944 26.918 14.876 26.918 30.741 13.178 22.809" mask="url(#supply-chain-compromise@1x-h)"/>
      <polygon stroke="#FFF" stroke-linecap="round" stroke-linejoin="round" points="13.178 6.944 26.918 14.876 26.918 30.741 13.178 22.809" mask="url(#supply-chain-compromise@1x-h)"/>
      <polygon fill="#E01A33" points="26.918 -.989 13.178 6.944 26.918 14.876 40.657 6.944" mask="url(#supply-chain-compromise@1x-h)"/>
      <polygon stroke="#FFF" stroke-linecap="round" stroke-linejoin="round" points="26.918 -.989 13.178 6.944 26.918 14.876 40.657 6.944" mask="url(#supply-chain-compromise@1x-h)"/>
    </g>
    <polygon fill="#EFF4F7" points="73.066 189.231 59.327 197.164 59.327 213.029 73.066 205.096"/>
    <polygon stroke="#01050C" stroke-linecap="round" stroke-linejoin="round" points="73.066 189.231 59.327 197.164 59.327 213.029 73.066 205.096"/>
    <polygon fill="#FFF" points="45.587 189.231 59.327 197.164 59.327 213.029 45.587 205.096"/>
    <polygon stroke="#01050C" stroke-linecap="round" stroke-linejoin="round" points="45.587 189.231 59.327 197.164 59.327 213.029 45.587 205.096"/>
    <polygon fill="#FFF" points="59.327 181.299 45.587 189.231 59.327 197.164 73.066 189.231"/>
    <polygon stroke="#01050C" stroke-linecap="round" stroke-linejoin="round" points="59.327 181.299 45.587 189.231 59.327 197.164 73.066 189.231"/>
    <polygon fill="#EFF4F7" points="43.853 206.917 30.114 214.85 30.114 230.714 43.853 222.782"/>
    <polygon stroke="#01050C" stroke-linecap="round" stroke-linejoin="round" points="43.853 206.917 30.114 214.85 30.114 230.714 43.853 222.782"/>
    <polygon fill="#FFF" points="16.375 206.917 30.114 214.85 30.114 230.714 16.375 222.782"/>
    <polygon stroke="#01050C" stroke-linecap="round" stroke-linejoin="round" points="16.375 206.917 30.114 214.85 30.114 230.714 16.375 222.782"/>
    <polygon fill="#FFF" points="30.114 198.985 16.375 206.917 30.114 214.85 43.853 206.917"/>
    <polygon stroke="#01050C" stroke-linecap="round" stroke-linejoin="round" points="30.114 198.985 16.375 206.917 30.114 214.85 43.853 206.917"/>
    <polygon fill="#5A6D83" fill-opacity=".3" points="81.674 168.168 95.841 176.018 95.841 192.833 108.224 199.024 108.224 217.461 116.36 212.763 116.227 183.593 85.812 166.032"/>
    <polyline stroke="#01050C" stroke-linecap="round" stroke-linejoin="round" points="112.549 214.717 116.227 216.841 116.227 183.593 71.878 157.988 71.878 182.022"/>
  </g>
</svg>
