<svg xmlns="http://www.w3.org/2000/svg" xmlns:xlink="http://www.w3.org/1999/xlink" width="1920" height="1080" viewBox="0 0 1920 1080">
  <defs>
    <clipPath id="clip-logo">
      <rect width="1920" height="1080"/>
    </clipPath>
  </defs>
  <g id="logo" clip-path="url(#clip-logo)">
    <g id="Logo_with_Tagline_orginal" data-name="Logo with Tagline orginal" transform="translate(-209.51 -59.72)">
      <g id="Group_6" data-name="Group 6" transform="translate(218.51 215.72)">
        <g id="Group_3" data-name="Group 3" transform="translate(665.495)">
          <path id="Path_32" data-name="Path 32" d="M480.236,256.517v189.7H432.671v-189.7H360.1v-40.8H552.713v40.8Z" transform="translate(-360.1 -215.72)" fill="#221e20"/>
          <path id="Path_33" data-name="Path 33" d="M509.9,348.44h46.3c-6.486,30.081-34.969,55.039-78.681,55.039-51.8,0-81.877-36.238-81.877-88.692,0-48.553,30.128-86.107,81.595-86.107,37.883,0,65.708,21.386,76.049,54.71,3.572,11.327,5.17,23.971,5.17,42.066H440.292c1.316,33.982,17.814,45.968,37.225,45.968C495.659,371.377,507.645,361.695,509.9,348.44Zm-68.622-51.514h71.866c-2.914-24.911-17.814-36.238-35.956-36.238C458.763,260.688,444.85,272.016,441.279,296.926Z" transform="translate(-228.596 -167.766)" fill="#221e20"/>
          <path id="Path_34" data-name="Path 34" d="M593.938,295.036H546.7c-1.6-19.412-13.3-31.4-30.739-31.4-22.044,0-35.3,20.07-35.3,52.454s13.254,52.454,35.3,52.454c17.485,0,29.141-13.255,30.41-34.64h47.566c-3.572,41.737-33.324,69.609-77.694,69.609-50.2,0-82.864-34.311-82.864-87.423,0-53.065,32.713-87.423,82.864-87.423C560.613,228.67,590.365,256.5,593.938,295.036Z" transform="translate(-88.952 -167.803)" fill="#221e20"/>
          <path id="Path_35" data-name="Path 35" d="M517.918,299.863c11.656-14.9,27.825-22,45.31-22,36.9,0,60.538,22.655,60.538,67.353V446.226h-45.31V349.778c0-24.911-11-36.238-28.812-36.238-18.754,0-32.384,14.571-32.384,44.652v88.034H471.95V215.73h45.31v84.18h.658Z" transform="translate(53.763 -215.683)" fill="#221e20"/>
          <path id="Path_36" data-name="Path 36" d="M365.96,507.149V276.7h29.8V507.2h-29.8Z" transform="translate(-338.417 9.916)" fill="#221e20"/>
          <path id="Path_37" data-name="Path 37" d="M520.134,357.662V458.011H491.651V359.918c0-34.311-14.241-46.626-37.883-46.626-23.313,0-42.724,17.485-42.724,50.48v94.191H382.56V293.505h27.5V315.22h.658c10.058-15.228,27.825-25.24,49.869-25.24C498.09,290.027,520.134,312.682,520.134,357.662Z" transform="translate(-276.994 59.054)" fill="#221e20"/>
          <path id="Path_38" data-name="Path 38" d="M473.066,326.84V344h32.713V366.65H473.066v141.8H444.912V366.65H416.1V344h28.812V323.6c0-31.726,15.887-47.237,44.981-47.237a80.962,80.962,0,0,1,16.5,1.6v22c-1.927-.658-5.828-.987-9.4-.987C481.15,298.968,473.066,306.441,473.066,326.84Z" transform="translate(-152.891 8.658)" fill="#221e20"/>
          <path id="Path_39" data-name="Path 39" d="M593.744,376.545c0,53.723-30.128,86.765-78.352,86.765s-78.023-33-78.023-86.765c0-53.723,29.8-86.765,78.023-86.765S593.744,322.822,593.744,376.545Zm-126.575,0c0,39.152,18.472,63.452,48.224,63.452,30.128,0,48.552-24.3,48.552-63.452s-18.472-63.452-48.552-63.452C485.641,313.093,467.169,337.393,467.169,376.545Z" transform="translate(-74.189 58.314)" fill="#221e20"/>
          <path id="Path_40" data-name="Path 40" d="M565.543,291.753v25.569c-3.572-.329-7.755-.987-11.327-.987-31.068,0-48.552,20.07-48.552,56.308v83.851H477.18V292.035h27.214v25.24h.658c11-18.143,27.5-26.885,48.553-26.885A52,52,0,0,1,565.543,291.753Z" transform="translate(73.114 60.571)" fill="#221e20"/>
          <path id="Path_41" data-name="Path 41" d="M730.909,356.356V458.021H702.426V358.659c0-33-12.643-45.31-33.653-45.31-23.971,0-38.87,20.07-38.87,51.467v93.251H601.419V354.476c0-25.9-12.314-41.126-33.324-41.126-24.3,0-39.152,20.4-39.152,53.394v91.277H500.46V293.562h27.5v20.4h.658c11.656-15.839,26.885-23.971,45.968-23.971,22.655,0,40.139,10.669,48.882,31.068,11-19.741,27.872-31.068,52.125-31.068C710.557,289.99,730.909,311.987,730.909,356.356Z" transform="translate(159.254 59.091)" fill="#221e20"/>
          <path id="Path_42" data-name="Path 42" d="M676.437,409.587h29.141c-5.5,28.812-30.457,53.723-72.523,53.723-48.553,0-77.365-35.3-77.365-89.021,0-48.552,28.483-84.509,76.378-84.509,37.225,0,63.452,22,71.865,57.295,2.256,9.4,3.243,21.057,3.243,35.3h-123c1.316,40.468,22,58.893,48.882,58.893C656.979,441.266,672.536,428.012,676.437,409.587ZM584.5,360.706h94.52c-2.914-32.055-21.715-48.882-46.954-48.882C605.841,311.777,587.416,329.262,584.5,360.706Z" transform="translate(363.614 58.314)" fill="#221e20"/>
          <path id="Path_43" data-name="Path 43" d="M712,507.149V483.178h-.658C702.27,500.334,683.187,511,660.861,511c-42.066,0-68.951-33.982-68.951-86.436s26.885-86.107,68.622-86.107c22.044,0,41.127,10.34,50.2,26.885h.658V276.7h28.483V507.2H712Zm-90.29-82.535c0,38.541,18.143,63.452,46.3,63.452,27.214,0,44.981-24.3,44.981-63.452,0-38.823-17.814-63.123-44.981-63.123C639.8,361.491,621.709,386.12,621.709,424.614Z" transform="translate(497.634 9.916)" fill="#221e20"/>
        </g>
        <rect id="Rectangle_11" data-name="Rectangle 11" width="516.829" height="516.829" transform="translate(0 0.141)" fill="#e84d37"/>
        <g id="Group_5" data-name="Group 5" transform="translate(92.875 93.486)">
          <g id="Group_4" data-name="Group 4" transform="translate(241.212)">
            <path id="Path_44" data-name="Path 44" d="M355.684,301.741V235.61H289.6Z" transform="translate(-289.553 -235.61)" fill="#fff"/>
            <path id="Path_45" data-name="Path 45" d="M289.59,251.83V503.664h66.131v-185.7Z" transform="translate(-289.59 -175.593)" fill="#fff"/>
          </g>
          <path id="Path_46" data-name="Path 46" d="M238.27,235.61H447.756v54.24h-71.63V563.681H309.947V289.85H238.27Z" transform="translate(-238.27 -235.61)" fill="#fff"/>
        </g>
      </g>
      <g id="Group_8" data-name="Group 8" transform="translate(226.077 839.844)">
        <g id="Group_7" data-name="Group 7">
          <path id="Path_47" data-name="Path 47" d="M303.454,350.29l-.7,29.47h-5.311a53.429,53.429,0,0,0-.987-13.677,13.5,13.5,0,0,0-4.982-8.178c-2.491-1.833-6.11-2.679-10.951-2.585l-11.891.141-4.606,76.049q-.141,3.807-.423,6.486c-.188,1.833-.376,3.337-.564,4.559,1.316-.094,2.585-.141,3.9-.188s2.585-.094,3.854-.188,2.538-.141,3.854-.141l-.282,6.157H242.07l.282-4.606q4.583-.282,6.627-2.538a12.078,12.078,0,0,0,2.726-6.063,71.309,71.309,0,0,0,.987-8.6l4.324-70.878-14.382.141c-5.875,0-10.105,1.974-12.737,5.875s-4.136,10.011-4.606,18.284h-5.17l2.4-29.47h80.937Z" transform="translate(-220.12 -341.914)" fill="#221e20"/>
          <path id="Path_48" data-name="Path 48" d="M293.066,455.682c-4.371,0-7.379-1.175-8.93-3.478s-2.4-5.64-2.4-9.917a81.3,81.3,0,0,1,.611-9.306c.423-3.572.893-7.379,1.41-11.374s.987-8.037,1.41-12.173a112.565,112.565,0,0,0,.611-11.609,12.829,12.829,0,0,0-.564-3.619,8.121,8.121,0,0,0-1.974-3.431,5.528,5.528,0,0,0-4.183-1.457c-2.538,0-5.029,1.128-7.567,3.431a37.553,37.553,0,0,0-7.191,9.306,81.915,81.915,0,0,0-6.157,13.348,99.317,99.317,0,0,0-4.277,15.51,83.819,83.819,0,0,0-1.551,15.886c0,1.41,0,2.679.047,3.854s.094,2.35.188,3.572H241.082a12.294,12.294,0,0,1-.141-1.739v-1.88c0-2.538.141-6.392.423-11.609s.658-11.139,1.128-17.814.987-13.49,1.6-20.493,1.222-13.63,1.88-19.929,1.316-11.562,1.974-15.887c.376-2.4.611-3.948.752-4.606s.282-1.6.47-2.773l-9.776.564.564-5.593a62.927,62.927,0,0,0,9.588-.564,21.144,21.144,0,0,0,5.264-1.41,11.121,11.121,0,0,0,2.914-1.833h4.042c-.376,2.35-.8,4.935-1.269,7.849s-.94,5.734-1.41,8.507-.846,5.264-1.128,7.426c-.282,2.35-.611,5.358-1.034,9.024s-.846,7.567-1.269,11.609-.8,7.943-1.128,11.656-.564,6.815-.752,9.212h.423c3.149-8.46,6.3-14.947,9.353-19.412s6.11-7.567,9.165-9.212a18.266,18.266,0,0,1,9.024-2.538c5.593,0,9.541,1.786,11.891,5.358a22.747,22.747,0,0,1,3.478,12.784,127.977,127.977,0,0,1-.987,15.7q-.987,8.037-1.974,14.806a79.107,79.107,0,0,0-.987,10.81,14.452,14.452,0,0,0,.611,4.465c.423,1.316,1.457,1.974,3.149,1.974,1.6,0,3.337-.987,5.264-3.008s3.572-5.5,4.982-10.576l3.478.987a33.3,33.3,0,0,1-1.692,5.734,28.681,28.681,0,0,1-3.431,6.486,19.516,19.516,0,0,1-5.311,5.264A11.407,11.407,0,0,1,293.066,455.682Z" transform="translate(-148.818 -347.945)" fill="#221e20"/>
          <path id="Path_49" data-name="Path 49" d="M290.038,355.91a28.73,28.73,0,0,1,9.494,1.551,16.058,16.058,0,0,1,7.285,5.029c1.88,2.35,2.773,5.5,2.773,9.494a14.119,14.119,0,0,1-3.9,9.917,30.941,30.941,0,0,1-10.2,6.909,78.516,78.516,0,0,1-13.4,4.418,110.272,110.272,0,0,1-13.677,2.4,51.159,51.159,0,0,0,1.739,14.524c1.175,3.9,2.914,6.862,5.264,8.789a13.353,13.353,0,0,0,8.93,2.914,20.179,20.179,0,0,0,8.178-1.833,27.956,27.956,0,0,0,7.9-5.5,37.774,37.774,0,0,0,6.862-9.588l4.606,2.679a59.221,59.221,0,0,1-8.366,12.032,29.221,29.221,0,0,1-9.776,7A29.756,29.756,0,0,1,282,428.9c-8.836,0-15.369-2.773-19.553-8.319s-6.3-12.831-6.3-21.856a59.234,59.234,0,0,1,2.115-15.792,44.442,44.442,0,0,1,6.3-13.772,31.131,31.131,0,0,1,10.622-9.635A29.465,29.465,0,0,1,290.038,355.91Zm-1.927,4.747a14.1,14.1,0,0,0-10.575,4.324,28.668,28.668,0,0,0-6.3,11.186,62.334,62.334,0,0,0-2.726,14.382,65.853,65.853,0,0,0,14.1-3.478,34.479,34.479,0,0,0,11.045-6.486,12.343,12.343,0,0,0,4.324-9.306,11.791,11.791,0,0,0-2.444-7.567C293.94,361.691,291.448,360.657,288.111,360.657Z" transform="translate(-86.804 -321.119)" fill="#221e20"/>
          <path id="Path_50" data-name="Path 50" d="M334.926,348.518c3.431-.094,6.11.47,7.943,1.739a6.19,6.19,0,0,1,2.773,5.5,7.379,7.379,0,0,1-.47,2.4,4.66,4.66,0,0,1-1.739,2.3,5.6,5.6,0,0,1-3.337.893,5,5,0,0,1-4.183-1.974,7.271,7.271,0,0,1-1.41-5.029,5.01,5.01,0,0,0-1.692-.47,8.261,8.261,0,0,0-2.4-.047,7.784,7.784,0,0,0-5.5,2.726,18.91,18.91,0,0,0-3.572,6.58,56.138,56.138,0,0,0-2.256,9.635c-.564,3.666-1.034,7.708-1.41,12.079h19.835l-.423,5.452-19.835.282c-.094,2.444-.188,4.888-.329,7.426s-.282,5.076-.423,7.755c-.141,2.632-.282,5.311-.47,7.943q-.282,4.019-.705,8.037c-.658,6.815-1.269,13.584-1.833,20.352s-1.363,13.16-2.444,19.224a70.823,70.823,0,0,1-4.7,16.121,27.208,27.208,0,0,1-8.46,11.092c-3.572,2.679-8.178,4.042-13.771,4.042-3.525,0-6.251-.611-8.084-1.88a6.188,6.188,0,0,1-2.773-5.405,6.3,6.3,0,0,1,.564-2.444,5.839,5.839,0,0,1,1.833-2.35,4.768,4.768,0,0,1,3.337-.893,5.319,5.319,0,0,1,4,1.88,6.808,6.808,0,0,1,1.457,4.559,6.742,6.742,0,0,0,4.042,1.128c3.243,0,5.734-1.739,7.473-5.17s3.008-8.225,3.854-14.335,1.5-13.207,2.021-21.245,1.175-16.686,2.021-25.945c.188-2.538.376-5.029.564-7.567s.376-5.029.564-7.567.376-5.029.611-7.473c.235-2.491.47-4.888.752-7.191l-12.314.141.705-6.016h12.314a98.767,98.767,0,0,1,4.465-18.33,31.3,31.3,0,0,1,8.507-13.019C323.834,350.3,328.769,348.612,334.926,348.518Z" transform="translate(-23.494 -348.508)" fill="#221e20"/>
          <path id="Path_51" data-name="Path 51" d="M299.974,427.316a12.323,12.323,0,0,1-.141-1.739V423.7q0-2.4.141-5.64c.094-2.209.282-5.076.611-8.742.329-3.619.8-8.366,1.457-14.241q.987-9.095,1.551-13.677t.846-6.768a28.816,28.816,0,0,0,.282-3.572,23.32,23.32,0,0,0-.329-5.452c-.329-1.786-1.457-2.679-3.431-2.679-1.5,0-3.2,1.034-5.17,3.055-1.974,2.068-3.619,5.546-5.029,10.481l-3.9-.846a26.935,26.935,0,0,1,1.739-5.781,32.84,32.84,0,0,1,3.572-6.486,19.543,19.543,0,0,1,5.452-5.311,13.218,13.218,0,0,1,7.426-2.115c4.183,0,7,1.457,8.366,4.324s2.021,6.768,1.833,11.609a54.078,54.078,0,0,1-.752,6.768c-.423,2.491-.846,5.076-1.316,7.755h.423c2.679-8.084,5.5-14.336,8.46-18.707,2.914-4.371,5.922-7.426,8.93-9.165a17.858,17.858,0,0,1,9.024-2.585,11.107,11.107,0,0,1,7,2.162A7.057,7.057,0,0,1,349.8,364a6.961,6.961,0,0,1-1.739,4.606,5.787,5.787,0,0,1-4.7,2.115,6.425,6.425,0,0,1-4.324-1.551,6.169,6.169,0,0,1-2.115-4.324q-3.948-.846-7.614,2.538a35.151,35.151,0,0,0-7,9.588,84.144,84.144,0,0,0-5.734,13.913,118.865,118.865,0,0,0-3.854,15.651,85.29,85.29,0,0,0-1.41,14.805,27.966,27.966,0,0,0,.094,3.149c.047.705.094,1.645.188,2.867H299.974Z" transform="translate(26.828 -321.082)" fill="#221e20"/>
          <path id="Path_52" data-name="Path 52" d="M335.876,355.91a25.78,25.78,0,0,1,13.536,3.572,24.872,24.872,0,0,1,9.494,10.387c2.35,4.559,3.478,10.105,3.478,16.639a54.2,54.2,0,0,1-4.042,20.916,37.791,37.791,0,0,1-11.656,15.6c-5.076,3.9-11.234,5.875-18.519,5.875-6.157,0-11.186-1.41-15.182-4.183a24.621,24.621,0,0,1-8.789-11.327A42.55,42.55,0,0,1,301.33,397.6a51.31,51.31,0,0,1,4.136-20.822A36.167,36.167,0,0,1,317.358,361.6,30.32,30.32,0,0,1,335.876,355.91Zm-2.115,5.17a14.264,14.264,0,0,0-10.622,4.136,27.846,27.846,0,0,0-6.909,11.515,52.821,52.821,0,0,0-2.585,16.216,62.454,62.454,0,0,0,.564,10.058,43.75,43.75,0,0,0,2.444,9.917,19.891,19.891,0,0,0,4.888,7.567,11.628,11.628,0,0,0,7.9,3.055,13.96,13.96,0,0,0,9.494-3.008,23.521,23.521,0,0,0,6.3-8.178A47.461,47.461,0,0,0,348.8,401.6a60.991,60.991,0,0,0,1.316-10.763,66.666,66.666,0,0,0-.47-10.058,37.164,37.164,0,0,0-2.444-9.635,18.026,18.026,0,0,0-5.029-7.191A13.333,13.333,0,0,0,333.761,361.08Z" transform="translate(80.37 -321.119)" fill="#221e20"/>
          <path id="Path_53" data-name="Path 53" d="M381.125,428.819c-4.371,0-7.379-1.175-8.93-3.478-1.6-2.35-2.4-5.64-2.4-9.917a78.55,78.55,0,0,1,.611-9.212c.423-3.525.94-7.332,1.551-11.327s1.128-8.037,1.551-12.173a114.539,114.539,0,0,0,.611-11.75,17.007,17.007,0,0,0-.47-3.619,7.485,7.485,0,0,0-1.88-3.431,5.528,5.528,0,0,0-4.183-1.457c-2.632,0-5.217,1.222-7.849,3.619a41.231,41.231,0,0,0-7.426,9.776,93.841,93.841,0,0,0-6.3,13.63,100.939,100.939,0,0,0-4.418,15.369,74.851,74.851,0,0,0-1.6,15.041c0,1.41,0,2.679.047,3.854s.094,2.35.188,3.572h-11.75a12.314,12.314,0,0,1-.141-1.739V423.7q0-2.4.282-5.5c.188-2.115.47-4.888.893-8.366s.94-8.178,1.6-14.053c.658-5.5,1.128-9.776,1.457-12.879.329-3.055.564-5.405.752-7.05s.282-2.867.329-3.76.047-1.833.047-2.867A12.627,12.627,0,0,0,333,364.8a2.907,2.907,0,0,0-3.055-1.88c-1.5,0-3.2,1.034-5.17,3.055-1.974,2.068-3.619,5.546-5.029,10.481l-3.9-.846a26.929,26.929,0,0,1,1.739-5.781,32.849,32.849,0,0,1,3.572-6.486,19.544,19.544,0,0,1,5.452-5.311,13.217,13.217,0,0,1,7.426-2.115c3.149,0,5.5.846,7.05,2.585a12.27,12.27,0,0,1,2.914,6.627,40.169,40.169,0,0,1,.329,8.648,75.841,75.841,0,0,1-.893,7.567c-.423,2.444-.8,4.559-1.175,6.439h.423c3.149-8.46,6.3-15.04,9.353-19.647s6.11-7.8,9.165-9.588a17.473,17.473,0,0,1,9.024-2.632c3.713,0,6.721.846,8.93,2.538a14.039,14.039,0,0,1,4.841,6.627,26.346,26.346,0,0,1,1.457,9.025,119.507,119.507,0,0,1-1.034,15.7q-1.058,8.037-2.115,14.805a73.4,73.4,0,0,0-1.034,10.81,14.455,14.455,0,0,0,.611,4.465c.423,1.316,1.457,1.974,3.149,1.974,1.6,0,3.337-.987,5.217-3.008,1.927-2.021,3.572-5.5,4.982-10.575l3.9.987A30.155,30.155,0,0,1,397.388,415a29.3,29.3,0,0,1-3.572,6.486,20.034,20.034,0,0,1-5.452,5.264A12.171,12.171,0,0,1,381.125,428.819Z" transform="translate(134.059 -321.082)" fill="#221e20"/>
          <path id="Path_54" data-name="Path 54" d="M361.908,352.087,359.37,371.78H381.6l-.423,5.311-22.373.282c-.376,3.9-.8,7.943-1.316,12.079s-.94,8.272-1.316,12.361-.705,8.037-.987,11.8-.423,7.191-.423,10.293a44.18,44.18,0,0,0,.329,5.5,9.73,9.73,0,0,0,1.739,4.747,5.2,5.2,0,0,0,4.465,1.88,12.193,12.193,0,0,0,7.99-3.2,25.381,25.381,0,0,0,5.17-6.58l3.619,2.35c-2.726,4.747-5.593,8.366-8.742,10.811a17.6,17.6,0,0,1-11.375,3.713c-3.619,0-6.486-.752-8.6-2.3a13.034,13.034,0,0,1-4.559-6.063,22.84,22.84,0,0,1-1.41-8.084c0-3.525.141-7.849.423-12.926s.705-10.716,1.269-16.92,1.222-12.644,1.974-19.365l-12.455.141.423-5.875c6.439,0,11.186-1.739,14.242-5.17s5.5-8.272,7.285-14.524h5.358Z" transform="translate(203.474 -335.438)" fill="#221e20"/>
          <path id="Path_55" data-name="Path 55" d="M362.569,379.665c3.9,0,6.862,1.316,8.789,4,1.974,2.679,2.914,6.157,2.914,10.575a68.374,68.374,0,0,1-.752,9.588c-.517,3.572-1.128,7.426-1.88,11.515s-1.363,8.225-1.88,12.361a97.459,97.459,0,0,0-.752,12.079,7.544,7.544,0,0,0,1.034,4.324,3.685,3.685,0,0,0,3.29,1.551c1.6,0,3.337-1.034,5.217-3.055,1.927-2.068,3.572-5.546,4.982-10.482l3.9.846a35.123,35.123,0,0,1-1.88,6.345,30.241,30.241,0,0,1-3.431,6.439A18.45,18.45,0,0,1,377,450.731a12.379,12.379,0,0,1-6.909,1.974c-4.277,0-7.473-1.128-9.494-3.337-2.068-2.256-3.055-5.5-3.055-9.776a82.543,82.543,0,0,1,.846-11.939c.564-3.854,1.175-7.661,1.88-11.468.7-3.76,1.316-7.567,1.88-11.374a80.411,80.411,0,0,0,.846-11.75,12.364,12.364,0,0,0-.752-4.042,3.048,3.048,0,0,0-3.149-2.256c-1.5,0-3.2,1.034-5.17,3.055-1.974,2.068-3.619,5.546-5.029,10.481l-3.9-.846a29.466,29.466,0,0,1,1.692-5.781,32.022,32.022,0,0,1,3.431-6.486,19.526,19.526,0,0,1,5.264-5.311A11.583,11.583,0,0,1,362.569,379.665Zm7.99-30.175a7.016,7.016,0,0,1,5.311,2.162,7.961,7.961,0,0,1,2.115,5.781,7.549,7.549,0,0,1-7.567,7.8,7.129,7.129,0,0,1-5.264-2.162,8.487,8.487,0,0,1,.094-11.421A7.5,7.5,0,0,1,370.559,349.49Z" transform="translate(241.918 -344.874)" fill="#221e20"/>
          <path id="Path_56" data-name="Path 56" d="M389.478,355.91a28.729,28.729,0,0,1,9.494,1.551,16.059,16.059,0,0,1,7.285,5.029c1.88,2.35,2.773,5.5,2.773,9.494a14.119,14.119,0,0,1-3.9,9.917,30.938,30.938,0,0,1-10.2,6.909,78.519,78.519,0,0,1-13.4,4.418,110.273,110.273,0,0,1-13.677,2.4A51.162,51.162,0,0,0,369.6,410.15c1.175,3.9,2.914,6.862,5.264,8.789a13.354,13.354,0,0,0,8.93,2.914,20.178,20.178,0,0,0,8.178-1.833,27.956,27.956,0,0,0,7.9-5.5,37.775,37.775,0,0,0,6.862-9.588l4.606,2.679a59.223,59.223,0,0,1-8.366,12.032,29.222,29.222,0,0,1-9.776,7,29.756,29.756,0,0,1-11.75,2.256c-8.836,0-15.369-2.773-19.553-8.319s-6.3-12.831-6.3-21.856a59.236,59.236,0,0,1,2.115-15.792,44.444,44.444,0,0,1,6.3-13.772,31.131,31.131,0,0,1,10.622-9.635A29.464,29.464,0,0,1,389.478,355.91Zm-1.974,4.747a14.1,14.1,0,0,0-10.575,4.324,28.669,28.669,0,0,0-6.3,11.186A62.332,62.332,0,0,0,367.9,390.55a65.855,65.855,0,0,0,14.1-3.478,34.48,34.48,0,0,0,11.046-6.486,12.343,12.343,0,0,0,4.324-9.306,11.791,11.791,0,0,0-2.444-7.567C393.332,361.691,390.841,360.657,387.5,360.657Z" transform="translate(281.14 -321.119)" fill="#221e20"/>
          <path id="Path_57" data-name="Path 57" d="M381.924,427.316a12.3,12.3,0,0,1-.141-1.739V423.7q0-2.4.141-5.64c.094-2.209.282-5.076.611-8.742.329-3.619.8-8.366,1.457-14.241q.987-9.095,1.551-13.677t.846-6.768a28.844,28.844,0,0,0,.282-3.572,23.316,23.316,0,0,0-.329-5.452c-.329-1.786-1.457-2.679-3.431-2.679-1.5,0-3.2,1.034-5.17,3.055-1.974,2.068-3.619,5.546-5.029,10.481l-3.9-.846a26.942,26.942,0,0,1,1.739-5.781,32.848,32.848,0,0,1,3.572-6.486,19.544,19.544,0,0,1,5.452-5.311A13.217,13.217,0,0,1,387,355.92c4.183,0,7,1.457,8.366,4.324s2.021,6.768,1.833,11.609a54.074,54.074,0,0,1-.752,6.768c-.423,2.491-.846,5.076-1.316,7.755h.423c2.679-8.084,5.5-14.336,8.46-18.707,2.914-4.371,5.922-7.426,8.93-9.165a17.859,17.859,0,0,1,9.024-2.585,11.107,11.107,0,0,1,7,2.162A7.057,7.057,0,0,1,431.745,364a6.961,6.961,0,0,1-1.739,4.606,5.787,5.787,0,0,1-4.7,2.115,6.425,6.425,0,0,1-4.324-1.551,6.171,6.171,0,0,1-2.115-4.324q-3.948-.846-7.614,2.538a35.152,35.152,0,0,0-7,9.588,84.155,84.155,0,0,0-5.734,13.913,118.874,118.874,0,0,0-3.854,15.651,85.29,85.29,0,0,0-1.41,14.805,28,28,0,0,0,.094,3.149c.047.705.094,1.645.188,2.867H381.924Z" transform="translate(330.056 -321.082)" fill="#221e20"/>
          <path id="Path_58" data-name="Path 58" d="M425.646,355.91a25.78,25.78,0,0,1,13.536,3.572,24.873,24.873,0,0,1,9.494,10.387c2.35,4.559,3.478,10.105,3.478,16.639a54.2,54.2,0,0,1-4.042,20.916,37.789,37.789,0,0,1-11.656,15.6c-5.076,3.9-11.233,5.875-18.519,5.875-6.157,0-11.186-1.41-15.182-4.183a24.621,24.621,0,0,1-8.789-11.327A42.548,42.548,0,0,1,391.1,397.6a51.31,51.31,0,0,1,4.136-20.822A36.168,36.168,0,0,1,407.128,361.6,30.32,30.32,0,0,1,425.646,355.91Zm-2.115,5.17a14.264,14.264,0,0,0-10.622,4.136A27.846,27.846,0,0,0,406,376.732a52.816,52.816,0,0,0-2.585,16.216,62.484,62.484,0,0,0,.564,10.058,43.769,43.769,0,0,0,2.444,9.917,19.9,19.9,0,0,0,4.888,7.567,11.629,11.629,0,0,0,7.9,3.055,13.959,13.959,0,0,0,9.494-3.008,23.522,23.522,0,0,0,6.3-8.178,47.46,47.46,0,0,0,3.572-10.763,60.994,60.994,0,0,0,1.316-10.763,66.663,66.663,0,0,0-.47-10.058,37.166,37.166,0,0,0-2.444-9.635,18.5,18.5,0,0,0-5.029-7.191A13.434,13.434,0,0,0,423.531,361.08Z" transform="translate(412.533 -321.119)" fill="#221e20"/>
          <path id="Path_59" data-name="Path 59" d="M463.339,348.518c3.431-.094,6.11.47,7.943,1.739a6.294,6.294,0,0,1,2.773,5.5,7.375,7.375,0,0,1-.47,2.4,4.66,4.66,0,0,1-1.739,2.3,5.6,5.6,0,0,1-3.337.893,5,5,0,0,1-4.183-1.974,7.271,7.271,0,0,1-1.41-5.029,5.008,5.008,0,0,0-1.692-.47,7.965,7.965,0,0,0-2.35-.047,7.783,7.783,0,0,0-5.5,2.726,18.91,18.91,0,0,0-3.572,6.58,57.216,57.216,0,0,0-2.256,9.635c-.564,3.666-1.034,7.708-1.41,12.079h19.835l-.423,5.452-19.835.282c-.094,2.444-.188,4.888-.329,7.426s-.282,5.076-.423,7.755c-.141,2.632-.282,5.311-.47,7.943q-.282,4.019-.705,8.037c-.658,6.815-1.269,13.584-1.833,20.352s-1.363,13.16-2.444,19.224a70.831,70.831,0,0,1-4.7,16.121,27.206,27.206,0,0,1-8.46,11.092c-3.572,2.679-8.178,4.042-13.771,4.042-3.525,0-6.251-.611-8.084-1.88a6.187,6.187,0,0,1-2.773-5.405,6.3,6.3,0,0,1,.564-2.444,5.839,5.839,0,0,1,1.833-2.35,4.547,4.547,0,0,1,3.337-.893,5.319,5.319,0,0,1,4,1.88,6.808,6.808,0,0,1,1.457,4.559,6.646,6.646,0,0,0,4.042,1.128c3.243,0,5.734-1.739,7.473-5.17s3.008-8.225,3.854-14.335,1.5-13.207,2.021-21.245,1.175-16.686,2.021-25.945c.188-2.538.376-5.029.564-7.567s.376-5.029.564-7.567.376-5.029.611-7.473c.235-2.491.47-4.888.752-7.191l-12.314.141.7-6.016h12.314a98.774,98.774,0,0,1,4.465-18.33,30.853,30.853,0,0,1,8.507-13.019C452.247,350.3,457.182,348.612,463.339,348.518Z" transform="translate(451.828 -348.508)" fill="#221e20"/>
          <path id="Path_60" data-name="Path 60" d="M450.868,352.087,448.33,371.78h22.232l-.423,5.311-22.373.282c-.376,3.9-.8,7.943-1.316,12.079s-.94,8.272-1.316,12.361-.705,8.037-.987,11.8-.423,7.191-.423,10.293a44.2,44.2,0,0,0,.329,5.5,9.73,9.73,0,0,0,1.739,4.747,5.2,5.2,0,0,0,4.465,1.88,12.194,12.194,0,0,0,7.99-3.2,25.381,25.381,0,0,0,5.17-6.58l3.619,2.35a37.091,37.091,0,0,1-8.742,10.811,17.873,17.873,0,0,1-11.374,3.713c-3.619,0-6.486-.752-8.6-2.3a13.036,13.036,0,0,1-4.559-6.063,23.024,23.024,0,0,1-1.41-8.084c0-3.525.141-7.849.423-12.926s.7-10.716,1.269-16.92,1.222-12.644,1.974-19.365l-12.455.141.423-5.875c6.439,0,11.186-1.739,14.241-5.17s5.5-8.272,7.285-14.524h5.358Z" transform="translate(532.64 -335.438)" fill="#221e20"/>
          <path id="Path_61" data-name="Path 61" d="M468.845,355.91a28.731,28.731,0,0,1,9.494,1.551,16.058,16.058,0,0,1,7.285,5.029c1.88,2.3,2.773,5.5,2.773,9.494a14.119,14.119,0,0,1-3.9,9.917,30.937,30.937,0,0,1-10.2,6.909,78.513,78.513,0,0,1-13.4,4.418,110.281,110.281,0,0,1-13.678,2.4,51.159,51.159,0,0,0,1.739,14.524c1.175,3.9,2.914,6.862,5.217,8.789a13.354,13.354,0,0,0,8.93,2.914,20.011,20.011,0,0,0,8.178-1.833,26.7,26.7,0,0,0,7.9-5.5,38.091,38.091,0,0,0,6.862-9.588l4.606,2.679a59.227,59.227,0,0,1-8.366,12.032,29.223,29.223,0,0,1-9.776,7,29.757,29.757,0,0,1-11.75,2.256c-8.836,0-15.37-2.773-19.553-8.319s-6.3-12.831-6.3-21.856a59.233,59.233,0,0,1,2.115-15.792,44.442,44.442,0,0,1,6.3-13.772,31.131,31.131,0,0,1,10.622-9.635A29.769,29.769,0,0,1,468.845,355.91Zm-1.974,4.747a14.1,14.1,0,0,0-10.575,4.324,28.1,28.1,0,0,0-6.3,11.186,62.33,62.33,0,0,0-2.726,14.382,65.856,65.856,0,0,0,14.1-3.478,34.479,34.479,0,0,0,11.045-6.486,12.343,12.343,0,0,0,4.324-9.306,11.79,11.79,0,0,0-2.444-7.567C472.746,361.691,470.208,360.657,466.871,360.657Z" transform="translate(574.636 -321.119)" fill="#221e20"/>
          <path id="Path_62" data-name="Path 62" d="M482.535,355.91a25.452,25.452,0,0,1,10.763,2.162,18.486,18.486,0,0,1,7.473,5.875,13.681,13.681,0,0,1,2.726,8.319,7.61,7.61,0,0,1-1.551,4.982,5.271,5.271,0,0,1-4.324,1.88c-2.256.094-3.807-.564-4.7-1.974a6.979,6.979,0,0,1-1.316-3.619,10.353,10.353,0,0,1,.329-2.632,6.58,6.58,0,0,1,1.457-2.679,7.537,7.537,0,0,0-3.854-5.64,14.543,14.543,0,0,0-7.191-1.739,15.806,15.806,0,0,0-10.058,3.2,22.684,22.684,0,0,0-6.439,8.366,44.858,44.858,0,0,0-3.431,11.092,65.526,65.526,0,0,0-1.034,11.515c0,6.533.7,11.75,2.162,15.745q2.186,5.922,6.063,8.6a15.164,15.164,0,0,0,8.789,2.679,19.909,19.909,0,0,0,7.567-1.6,22.421,22.421,0,0,0,7.567-5.452,32.138,32.138,0,0,0,6.3-10.575l4.888,2.4a43.893,43.893,0,0,1-8.084,12.926,29.16,29.16,0,0,1-9.87,7,27.459,27.459,0,0,1-10.716,2.162c-8.178,0-14.759-2.491-19.647-7.473s-7.332-12.69-7.332-23.125a55.226,55.226,0,0,1,1.974-14.241,48.117,48.117,0,0,1,6.016-13.771,32.72,32.72,0,0,1,10.434-10.34A27.681,27.681,0,0,1,482.535,355.91Z" transform="translate(627.031 -321.119)" fill="#221e20"/>
          <path id="Path_63" data-name="Path 63" d="M517.022,455.682c-4.371,0-7.379-1.175-8.93-3.478s-2.35-5.64-2.35-9.917a81.35,81.35,0,0,1,.611-9.306c.423-3.572.893-7.379,1.41-11.374s.987-8.037,1.41-12.173a112.549,112.549,0,0,0,.611-11.609,12.831,12.831,0,0,0-.564-3.619,8.122,8.122,0,0,0-1.974-3.431,5.528,5.528,0,0,0-4.183-1.457c-2.538,0-5.029,1.128-7.567,3.431a37.557,37.557,0,0,0-7.191,9.306,81.915,81.915,0,0,0-6.157,13.348,99.3,99.3,0,0,0-4.277,15.51,83.819,83.819,0,0,0-1.551,15.886c0,1.41,0,2.679.094,3.854.047,1.175.094,2.35.188,3.572H465.132a12.3,12.3,0,0,1-.141-1.739v-1.88c0-2.538.141-6.392.423-11.609s.658-11.139,1.128-17.814.987-13.49,1.6-20.493,1.222-13.63,1.88-19.929,1.316-11.562,1.974-15.887c.376-2.4.611-3.948.752-4.606s.282-1.6.47-2.773l-9.776.564.564-5.593a62.925,62.925,0,0,0,9.588-.564,20.127,20.127,0,0,0,5.217-1.41,11.967,11.967,0,0,0,2.914-1.833h4.042c-.376,2.35-.8,4.935-1.269,7.849s-.94,5.734-1.41,8.507-.846,5.264-1.128,7.426c-.282,2.35-.611,5.358-1.034,9.024s-.846,7.567-1.269,11.609-.8,7.943-1.128,11.656-.564,6.815-.752,9.212h.423c3.149-8.46,6.3-14.947,9.353-19.412s6.11-7.567,9.165-9.212a18.266,18.266,0,0,1,9.024-2.538c5.593,0,9.541,1.786,11.891,5.358a22.746,22.746,0,0,1,3.478,12.784,128,128,0,0,1-.987,15.7q-.987,8.037-1.974,14.806a79.105,79.105,0,0,0-.987,10.81,14.454,14.454,0,0,0,.611,4.465c.423,1.316,1.457,1.974,3.149,1.974,1.6,0,3.337-.987,5.264-3.008s3.572-5.5,4.982-10.576l3.478.987a33.331,33.331,0,0,1-1.692,5.734,28.686,28.686,0,0,1-3.431,6.486,19.516,19.516,0,0,1-5.311,5.264A11.83,11.83,0,0,1,517.022,455.682Z" transform="translate(680.202 -347.945)" fill="#221e20"/>
          <path id="Path_64" data-name="Path 64" d="M552.2,428.819c-4.371,0-7.379-1.175-8.93-3.478-1.6-2.35-2.4-5.64-2.4-9.917a78.517,78.517,0,0,1,.611-9.212c.423-3.525.94-7.332,1.551-11.327s1.128-8.037,1.551-12.173a115.208,115.208,0,0,0,.611-11.75,17,17,0,0,0-.47-3.619,7.486,7.486,0,0,0-1.88-3.431,5.528,5.528,0,0,0-4.183-1.457c-2.632,0-5.217,1.222-7.849,3.619a41.229,41.229,0,0,0-7.426,9.776,93.838,93.838,0,0,0-6.3,13.63,100.932,100.932,0,0,0-4.418,15.369,74.838,74.838,0,0,0-1.6,15.041c0,1.41,0,2.679.094,3.854.047,1.175.094,2.35.188,3.572h-11.75a12.314,12.314,0,0,1-.141-1.739V423.7q0-2.4.282-5.5c.188-2.115.47-4.888.893-8.366s.94-8.178,1.6-14.053c.658-5.5,1.128-9.776,1.457-12.879.329-3.055.564-5.405.752-7.05s.282-2.867.329-3.76.094-1.833.094-2.867a12.626,12.626,0,0,0-.705-4.418,2.907,2.907,0,0,0-3.055-1.88c-1.5,0-3.2,1.034-5.17,3.055-1.974,2.068-3.619,5.546-5.029,10.481l-3.9-.846a26.929,26.929,0,0,1,1.739-5.781,32.838,32.838,0,0,1,3.572-6.486,19.545,19.545,0,0,1,5.452-5.311,13.217,13.217,0,0,1,7.426-2.115c3.149,0,5.5.846,7.05,2.585a12.269,12.269,0,0,1,2.914,6.627,40.167,40.167,0,0,1,.329,8.648,75.787,75.787,0,0,1-.893,7.567c-.423,2.444-.8,4.559-1.175,6.439h.423c3.149-8.46,6.3-15.04,9.353-19.647s6.11-7.8,9.165-9.588a17.474,17.474,0,0,1,9.024-2.632c3.713,0,6.721.846,8.93,2.538a14.039,14.039,0,0,1,4.841,6.627,26.348,26.348,0,0,1,1.457,9.025,119.491,119.491,0,0,1-1.034,15.7q-1.058,8.037-2.115,14.805a73.389,73.389,0,0,0-1.034,10.81,14.452,14.452,0,0,0,.611,4.465c.423,1.316,1.457,1.974,3.149,1.974,1.6,0,3.337-.987,5.264-3.008s3.572-5.5,4.982-10.575l3.9.987A30.145,30.145,0,0,1,568.6,415a29.305,29.305,0,0,1-3.572,6.486,20.034,20.034,0,0,1-5.452,5.264A12.925,12.925,0,0,1,552.2,428.819Z" transform="translate(767.415 -321.082)" fill="#221e20"/>
          <path id="Path_65" data-name="Path 65" d="M540.205,355.91a28.73,28.73,0,0,1,9.494,1.551,16.059,16.059,0,0,1,7.285,5.029c1.88,2.3,2.773,5.5,2.773,9.494a14.118,14.118,0,0,1-3.9,9.917,30.936,30.936,0,0,1-10.2,6.909,78.508,78.508,0,0,1-13.4,4.418,110.277,110.277,0,0,1-13.678,2.4,51.164,51.164,0,0,0,1.739,14.524c1.175,3.9,2.914,6.862,5.217,8.789a13.354,13.354,0,0,0,8.93,2.914,20.009,20.009,0,0,0,8.178-1.833,26.7,26.7,0,0,0,7.9-5.5,38.083,38.083,0,0,0,6.862-9.588l4.606,2.679a59.234,59.234,0,0,1-8.366,12.032,29.224,29.224,0,0,1-9.776,7,29.757,29.757,0,0,1-11.75,2.256c-8.836,0-15.37-2.773-19.553-8.319s-6.3-12.831-6.3-21.856a59.233,59.233,0,0,1,2.115-15.792,44.443,44.443,0,0,1,6.3-13.772,31.129,31.129,0,0,1,10.623-9.635A29.768,29.768,0,0,1,540.205,355.91Zm-1.974,4.747a14.1,14.1,0,0,0-10.575,4.324,28.093,28.093,0,0,0-6.3,11.186,62.334,62.334,0,0,0-2.726,14.382,65.857,65.857,0,0,0,14.1-3.478,34.48,34.48,0,0,0,11.045-6.486,12.344,12.344,0,0,0,4.324-9.306,11.787,11.787,0,0,0-2.444-7.567C544.106,361.691,541.615,360.657,538.231,360.657Z" transform="translate(838.68 -321.119)" fill="#221e20"/>
          <path id="Path_66" data-name="Path 66" d="M608.105,355.91a13.453,13.453,0,0,1,10.152,4,23.008,23.008,0,0,1,5.452,10.482,43.132,43.132,0,0,1,.987,14.1,58.5,58.5,0,0,1-9.071,26.415,46.584,46.584,0,0,1-8.178,9.447,35.842,35.842,0,0,1-10.011,6.3A28.714,28.714,0,0,1,586.2,428.9a15.888,15.888,0,0,1-7.191-1.739,12.145,12.145,0,0,1-5.593-6.345c-1.363-3.055-1.786-7.426-1.316-13.019a35.845,35.845,0,0,1-6.063,10.669,33.853,33.853,0,0,1-8.742,7.614,18.506,18.506,0,0,1-9.494,2.773c-5.405,0-9.165-1.786-11.327-5.358a24.248,24.248,0,0,1-3.2-12.784c0-3.713.188-7.567.564-11.515s.8-7.849,1.269-11.609.893-7.238,1.269-10.387a67.958,67.958,0,0,0,.564-7.708,14.98,14.98,0,0,0-.611-4.606c-.423-1.316-1.457-1.974-3.149-1.974-1.5,0-3.149,1.034-4.982,3.055-1.833,2.068-3.431,5.546-4.841,10.481l-3.9-.846a29.45,29.45,0,0,1,1.692-5.781,32.021,32.021,0,0,1,3.431-6.486,19.046,19.046,0,0,1,5.311-5.311,12.91,12.91,0,0,1,7.332-2.115,11.4,11.4,0,0,1,6.3,1.6,9.659,9.659,0,0,1,3.76,4.606,18.97,18.97,0,0,1,1.269,7.332c0,3.055-.188,6.674-.564,10.763s-.8,8.272-1.316,12.6c-.517,4.277-.94,8.225-1.316,11.891-.376,3.619-.564,6.439-.564,8.366a15.569,15.569,0,0,0,.47,3.9,6.6,6.6,0,0,0,1.833,3.2,5.158,5.158,0,0,0,3.713,1.269,13.6,13.6,0,0,0,7.05-2.115,22.525,22.525,0,0,0,6.627-6.157,43.693,43.693,0,0,0,5.452-9.917,68.758,68.758,0,0,0,3.76-13.4,91.639,91.639,0,0,0,1.41-16.78c0-2.444-.047-4.935-.188-7.567-.141-2.585-.376-5.311-.752-8.084H586.2a18.941,18.941,0,0,1,.423,3.149c.094,1.363.141,2.4.141,3.149a122.59,122.59,0,0,1-.705,13.4c-.47,4.277-.987,8.366-1.6,12.314-.611,3.9-1.128,7.661-1.6,11.186a76.625,76.625,0,0,0-.705,10.058,19.005,19.005,0,0,0,1.41,7.426c.94,2.256,2.961,3.384,6.157,3.478a17.906,17.906,0,0,0,7.943-1.88,28.129,28.129,0,0,0,7.473-5.405,39.541,39.541,0,0,0,6.345-8.178,49.928,49.928,0,0,0,4.606-10.152,57.023,57.023,0,0,0,1.551-7.332,47.289,47.289,0,0,0,.47-9.353,28.328,28.328,0,0,0-1.692-8.742,8.731,8.731,0,0,0-4.982-5.311,5.282,5.282,0,0,1-2.4,2.632,6.906,6.906,0,0,1-3.337.846,6.708,6.708,0,0,1-3.854-1.457,5.22,5.22,0,0,1-2.021-4.559,7.186,7.186,0,0,1,.752-3.149,5.93,5.93,0,0,1,2.632-2.632A10.252,10.252,0,0,1,608.105,355.91Z" transform="translate(887.485 -321.119)" fill="#221e20"/>
          <path id="Path_67" data-name="Path 67" d="M566.336,428.782a33.109,33.109,0,0,1-10.763-1.739,20.631,20.631,0,0,1-8.366-5.076,11.326,11.326,0,0,1-3.2-8.084,7,7,0,0,1,1.739-4.982,5.569,5.569,0,0,1,4.277-1.88,5.156,5.156,0,0,1,4.277,1.833,6.2,6.2,0,0,1,1.457,4.042,8.752,8.752,0,0,1-.282,2.115,7.855,7.855,0,0,1-.987,2.256,8.611,8.611,0,0,0,4.465,4.747,15.672,15.672,0,0,0,7.145,1.692c5.029,0,8.789-1.175,11.327-3.478,2.538-2.35,3.76-5.593,3.76-9.776a9.69,9.69,0,0,0-2.679-6.721,30.969,30.969,0,0,0-6.721-5.5c-2.726-1.739-5.5-3.431-8.366-5.076-2.726-1.692-5.264-3.384-7.756-5.17a25.6,25.6,0,0,1-6.016-5.875,12.11,12.11,0,0,1-2.3-7.285,16.065,16.065,0,0,1,3.055-9.447,22.247,22.247,0,0,1,8.507-6.862,28.861,28.861,0,0,1,12.6-2.585,29.467,29.467,0,0,1,10.011,1.692,20.424,20.424,0,0,1,7.708,4.747,10.012,10.012,0,0,1,3.008,7.285,6.477,6.477,0,0,1-1.692,4.7,5.571,5.571,0,0,1-4.183,1.739,5.182,5.182,0,0,1-4.042-1.692,5.63,5.63,0,0,1-1.551-3.9,8.281,8.281,0,0,1,.282-2.162,7.957,7.957,0,0,1,.987-2.162,6.971,6.971,0,0,0-3.431-4,14.71,14.71,0,0,0-7.474-1.6,13.763,13.763,0,0,0-6.016,1.41,13.619,13.619,0,0,0-4.888,3.854,8.978,8.978,0,0,0-1.974,5.781,8.112,8.112,0,0,0,1.6,4.888,19.1,19.1,0,0,0,4.277,4.183c1.786,1.316,3.666,2.632,5.734,3.9,3.337,1.974,6.815,4.042,10.34,6.2a38.98,38.98,0,0,1,8.884,7.473,15.092,15.092,0,0,1,3.572,10.2,17.479,17.479,0,0,1-3.29,10.481,22.528,22.528,0,0,1-9.212,7.285A35.351,35.351,0,0,1,566.336,428.782Z" transform="translate(978.324 -321.045)" fill="#221e20"/>
        </g>
      </g>
    </g>
  </g>
</svg>
