<svg xmlns="http://www.w3.org/2000/svg" width="155" height="70" viewBox="0 0 155 70">
  <g fill="none" fill-rule="evenodd">
    <path fill="#875B96" d="M150.364375 39.3714205C150.358409 38.3588068 150.409716 37.3434091 150.245455 36.3367614 150.070455 35.2660795 149.893864 34.1938068 149.247557 33.2786364 148.131534 31.6980682 145.831477 31.7171591 144.743295 33.3128409 144.268409 34.0084659 144.016648 34.7927841 143.887784 35.6140909 143.519091 37.9726136 143.57517 40.3414773 143.812614 42.7039773 143.928352 43.8573864 144.266023 44.9586932 145.015341 45.89375 145.379261 46.3479545 145.847386 46.6235795 146.405795 46.7051136 147.606932 46.8805114 148.616761 46.5722727 149.298466 45.4825 149.58483 45.0251136 149.790057 44.5402841 149.934432 44.0244318 150.361193 42.4995455 150.388636 40.9380682 150.364375 39.3714205zM121.176364 39.519375C121.172784 38.4379545 121.214148 37.3545455 121.053864 36.2786932 120.90392 35.2720455 120.715398 34.2785227 120.145057 33.4043182 118.999205 31.6479545 116.573068 31.6686364 115.468182 33.4460795 115.128523 33.9925568 114.924091 34.5939205 114.788466 35.2179545 114.30483 37.4440341 114.432898 39.6959659 114.544659 41.9419318 114.59875 43.0257386 114.81392 44.0900568 115.314659 45.0736364 115.803466 46.0321591 116.47483 46.7023295 117.646932 46.7492614 118.8775 46.7989773 119.713125 46.2548864 120.278693 45.2084659 120.483523 44.8294318 120.643807 44.4344886 120.763125 44.0180682 121.18392 42.5436932 121.194261 41.033125 121.176364 39.519375zM110.120739 38.4836932C109.262045 39.7663636 108.177841 40.7276705 106.953636 41.5521591 105.471705 42.5508523 103.945227 43.4859091 102.567102 44.6333523 102.154659 44.9769886 101.788352 45.36 101.458239 45.7796023 101.377898 45.8818182 101.218011 45.9760795 101.297557 46.1260227 101.37392 46.2688068 101.546932 46.2059659 101.676591 46.2063636 104.255455 46.2099432 106.834318 46.2091477 109.413182 46.2091477 110.966307 46.2091477 110.966705 46.2091477 110.966307 47.7459659 110.965909 48.330625 110.959943 48.9152841 110.965511 49.4995455 110.968693 49.8010227 110.835455 49.9473864 110.533182 49.9402273 110.447273 49.9378409 110.361364 49.9426136 110.275455 49.9426136 105.581875 49.9430114 100.888295 49.9434091 96.1947159 49.9422159 95.5372727 49.9418182 95.5468182 49.9374432 95.5611364 49.2811932 95.6219886 46.4815909 97.0188068 44.3955114 99.1116477 42.7039773 100.650057 41.4606818 102.307386 40.3796591 103.957557 39.2898864 104.752216 38.7648864 105.45142 38.1340909 105.958523 37.3111932 106.81483 35.9207386 106.681193 34.1528409 105.636761 33.1147727 104.25267 31.7398295 101.86392 32.0619886 100.900227 33.7543182 100.456761 34.5334659 100.282159 35.3838068 100.208977 36.2679545 100.143352 37.0558523 100.127045 37.0554545 99.3490909 37.0558523 98.4032955 37.0566477 97.4578977 37.0522727 96.5125 37.0570455 96.2221591 37.0582386 95.9946591 37.00375 95.9926705 36.6473864 95.9775568 33.6978409 97.2323864 30.3636932 100.561761 29.0611364 103.548295 27.8926136 107.088068 28.5898295 109.207159 30.7932386 109.925852 31.5401705 110.378068 32.4402273 110.645739 33.4369318 110.684716 33.5825 110.665227 33.7483523 110.83267 33.9078409 111.888636 30.40625 114.216932 28.48125 117.874034 28.5190341 122.22517 28.5639773 124.3375 31.2486364 125.2125 35.3464205 125.973352 30.9698295 128.474659 28.9489773 131.638182 28.5965909 135.358523 28.1817614 138.97108 29.7846023 139.982898 33.8947159 140.134432 33.5125 140.243409 33.219375 140.365114 32.9310227 141.77108 29.6060227 144.096193 28.5182386 147.042159 28.5230114 150.521477 28.529375 152.745966 30.2658523 153.911307 33.5729545 154.396534 34.9498864 154.61608 36.3741477 154.684886 37.8178977 154.793864 40.1076136 154.742159 42.3917614 154.102614 44.6198295 153.638864 46.2338068 152.913807 47.6882955 151.595739 48.7975568 150.364375 49.8336364 148.912273 50.2520455 147.351989 50.2973864 144.732557 50.37375 142.510455 49.5695455 141.051591 47.2321023 140.407273 46.2 139.988466 45.0764205 139.730739 43.8919886 139.42608 42.4927841 139.280909 41.076875 139.307557 39.6438636 139.315114 39.2548864 139.30875 38.8655114 139.266193 38.4558523 137.981932 40.565 135.886705 41.6953409 133.948182 43.0102273 132.76733 43.8116477 131.574943 44.6015341 130.674489 45.7386364 130.584602 45.8519886 130.390909 45.9534091 130.477614 46.1204545 130.559148 46.2775568 130.758409 46.2059659 130.90517 46.2059659 133.742159 46.2099432 136.57875 46.20875 139.415341 46.2095455 140.150341 46.2099432 140.151932 46.2123295 140.153523 46.9640341 140.155114 47.7380114 140.132841 48.5123864 140.161477 49.2847727 140.178977 49.7648295 140.029432 49.9529545 139.521534 49.9513636 134.77625 49.9366477 130.030966 49.9438068 125.28608 49.9414205 124.713352 49.9410227 124.671193 49.8543182 124.703409 49.2585227 124.854545 46.449375 126.217955 44.3072159 128.38 42.6272159 129.818182 41.5096023 131.31125 40.4635795 132.850852 39.4859659 133.804205 38.880625 134.631477 38.1356818 135.224091 37.1596591 136.342898 35.3169886 135.492159 32.8558523 133.509886 32.3948864 131.660057 31.9653409 130.36983 32.6192045 129.659886 34.7192045 129.472557 35.2736364 129.364773 35.8586932 129.35642 36.4405682 129.349261 36.9580114 129.126534 37.0773295 128.662386 37.0634091 127.803295 37.0375568 126.942614 37.0745455 126.08392 37.0490909 125.628125 37.0355682 125.490909 37.2065909 125.499659 37.6528409 125.537443 39.59375 125.608636 41.5386364 125.208125 43.4584659 124.914205 44.865625 124.472727 46.2147159 123.664148 47.4202273 122.61733 48.9801136 121.14017 49.8582955 119.307443 50.1836364 117.726875 50.4644318 116.18608 50.33 114.709318 49.7059659 112.823693 48.9089205 111.734716 47.3896023 111.04267 45.5314205 110.380057 43.7523864 110.159716 41.8997727 110.12233 40.0169318 110.112386 39.50625 110.120739 38.9951705 110.120739 38.4836932L110.120739 38.4836932zM77.2159659 42.1626705C77.2052273 41.0971591 77.0839205 40.1497727 76.6941477 39.2501136 75.6926705 36.9373295 72.4229545 36.5447727 70.9084091 38.5572727 69.5525568 40.359375 69.6146023 43.9914205 71.0325 45.8066477 72.5677273 47.7722159 75.6950568 47.3764773 76.6770455 45.0891477 77.0910795 44.1246591 77.1940909 43.1025 77.2159659 42.1626705zM67.2982386 36.4692045C68.560625 34.943125 70.1173295 34.0896023 72.0383523 33.9945455 73.959375 33.8998864 75.62625 34.4777841 76.9101136 35.9863636 77.0958523 35.8236932 77.0182955 35.6220455 77.0186932 35.4482386 77.0250568 33.4023295 77.0214773 31.3564205 77.0238636 29.3109091 77.0250568 28.5504545 77.0819318 28.4955682 77.8491477 28.4931818 78.8291477 28.4903977 79.8091477 28.503125 80.78875 28.4882072 81.1936364 28.4824432 81.3730114 28.6073295 81.3722185 29.0488068 81.361875 35.8221023 81.3626705 42.5953977 81.3714205 49.3686932 81.3718182 49.7871023 81.2346023 49.9561364 80.8070455 49.9481818 79.8103409 49.9294886 78.8128409 49.9278977 77.8161364 49.9489773 77.3547727 49.9585227 77.2000568 49.7525 77.2282955 49.3265341 77.2541477 48.9375568 77.2648864 48.5473864 77.2819886 48.1508523 77.2163636 48.1623864 77.1694318 48.1568182 77.1563068 48.1751136 75.7165341 50.1852273 73.6575 50.54 71.4194886 50.2110795 68.4615909 49.7759659 66.8392614 47.8294886 66.0374432 45.101875 65.4161932 42.9891477 65.4416477 40.8636932 66.1309091 38.7593182 66.3540341 38.0780114 66.2585795 37.9789773 65.5275568 38.0119886 62.4491477 38.1515909 61.6326136 40.1982955 61.565 42.2811932 61.4914205 44.5482386 61.5423295 46.8192614 61.53875 49.0886932 61.5375568 49.9414205 61.5371591 49.9422159 60.6740909 49.9426136 59.6940909 49.9434091 58.7136932 49.9322727 57.7344886 49.9469886 57.3355682 49.9529545 57.1896023 49.7986364 57.1903977 49.3989205 57.1983523 44.585625 57.19875 39.7719318 57.1899969 34.9586364 57.1892045 34.5410227 57.3395455 34.3652273 57.7603409 34.3707955 58.7574432 34.3835227 59.7545455 34.3835227 60.7516477 34.37 61.1628977 34.3644318 61.3494318 34.5167614 61.3367045 34.9443182 61.3168182 35.5782955 61.3315341 36.2130682 61.3315341 36.8975568 61.5765341 36.8128409 61.6298295 36.6211364 61.7225 36.4799432 62.7402841 34.9339773 64.2015341 34.15125 66.0151705 33.9714773 66.1173864 33.9611364 66.2215909 33.9627273 66.3242045 33.9694886 67.1594318 34.0247727 67.2206818 34.0911932 67.2230682 34.9176705 67.2242614 35.3643182 67.2278409 35.8113636 67.2326136 36.2580114 67.2330114 36.290625 67.2521023 36.3228409 67.2982386 36.4692045L67.2982386 36.4692045zM25.7981818 44.5538068C25.9417614 43.9763068 26.0861364 43.3984091 26.228125 42.8205114 26.8680682 40.2169886 27.5175568 37.6158523 28.1372159 35.0075568 28.2489773 34.5386364 28.4450568 34.3473295 28.9386364 34.3640341 29.8999432 34.3966477 30.8644318 34.3934659 31.8257386 34.3648295 32.300625 34.3505114 32.5273295 34.5020455 32.6450568 34.9852841 33.3975568 38.0744318 34.1798864 41.1564205 34.9538636 44.2403977 34.978125 44.3374432 35.0186932 44.4309091 35.0648295 44.5645455 35.2660795 44.4253409 35.2621023 44.2252841 35.30625 44.0622159 36.1315341 41.0450568 36.9603977 38.0286932 37.760625 35.0051705 37.8843182 34.5370455 38.0923295 34.3532955 38.5759659 34.3652273 39.6239773 34.391875 40.6731818 34.3692045 41.7215909 34.3755682 42.3297159 34.3791477 42.371875 34.4384091 42.1980682 34.9916477 40.6986364 39.7627841 39.1920455 44.5319318 37.7061364 49.3074432 37.559375 49.77875 37.3398295 49.97125 36.8335227 49.95375 35.8034091 49.9179545 34.7705114 49.9207386 33.74 49.9525568 33.24125 49.9676705 33.0173295 49.8046023 32.8888636 49.3042614 32.1073295 46.2580682 31.2903977 43.220625 30.4834091 40.1811932 30.4496023 40.053125 30.4571591 39.9047727 30.2873295 39.7778977 30.0144886 40.8477841 29.7468182 41.8934091 29.4811364 42.9398295 28.9398295 45.0720455 28.3885795 47.2014773 27.8675568 49.3388636 27.7585795 49.7855114 27.5625 49.9632955 27.0951705 49.9513636 25.9958523 49.9239205 24.8949432 49.9306818 23.7948295 49.9489773 23.4022727 49.9553409 23.2125568 49.805 23.0948295 49.4315341 21.5767045 44.6122727 20.0450568 39.7969886 18.5205682 34.9793182 18.3511364 34.4439773 18.3992614 34.3795455 18.9632386 34.3759659 20.0804545 34.3688068 21.1984659 34.3878977 22.3152841 34.3668182 22.7535795 34.3584659 22.9528409 34.5267045 23.0653977 34.9510795 23.8401705 37.8747727 24.6376136 40.7928977 25.4290909 43.7118182 25.5046591 43.9922159 25.5905682 44.2690341 25.6717045 44.5478409 25.7138636 44.5498295 25.7560227 44.5518182 25.7981818 44.5538068M10.5528977 34.0959659C10.4085227 34.1703409 10.4045455 34.3202841 10.3603977 34.4431818 9.57488636 36.6442045 8.79295455 38.8464205 8.00784091 41.0478409 7.82448864 41.5621023 7.83403409 41.5827841 8.40875 41.5839773 9.76659091 41.5867614 11.1244318 41.5863636 12.4822727 41.5839773 13.1659659 41.5827841 13.1882386 41.5533523 12.9726705 40.9257386 12.2313068 38.7636932 11.48875 36.6020455 10.7426136 34.4419886 10.7004545 34.3198864 10.7008523 34.1659659 10.5528977 34.0959659zM18.5066477 49.9430114C17.9052841 49.9430114 17.3015341 49.9119886 16.7029545 49.9525568 16.2157386 49.9859659 15.9918182 49.7843182 15.8510227 49.3408523 15.4711932 48.1452841 15.0420455 46.9660227 14.6681818 45.7688636 14.5317614 45.3317614 14.3050568 45.1846023 13.8536364 45.1885795 11.6196023 45.2076705 9.38556818 45.2076705 7.15153409 45.1885795 6.69931818 45.185 6.47897727 45.3365341 6.33738636 45.7704545 5.93647727 46.9946591 5.47471591 48.1989773 5.06903409 49.4215909 4.93778409 49.8177273 4.72659091 49.9565341 4.31971591 49.9497727 3.13448864 49.9302841 1.94846591 49.9457955.762840909 49.9418182.124488636 49.9398295.0863068182 49.8928977.311022727 49.2971023 1.68039773 45.6638636 3.05613636 42.0330114 4.42869318 38.4009659 5.57693182 35.3635227 6.72238636 32.3252841 7.87181818 29.2882386 8.17369318 28.4907955 8.17846591 28.4923864 9.05664773 28.4923864 10.1909659 28.4923864 11.3252841 28.5019318 12.4592045 28.4883098 12.8565341 28.4840341 13.0760795 28.6236364 13.2216477 29.0146023 15.7328977 35.7608523 18.2584659 42.5019318 20.7800568 49.2446023 21.0298295 49.9127841 21.0103409 49.9402273 20.3107386 49.9426136 19.709375 49.9446023 19.1080114 49.9430114 18.5066477 49.9430114L18.5066477 49.9430114zM48.1942045 47.3713068C48.3946591 47.3713068 48.4976705 47.3728977 48.6006818 47.3713068 50.4111364 47.3410795 51.5096591 46.2990341 51.6289773 44.4873864 51.6639773 43.9576136 51.6723295 43.4258523 51.6961932 42.8952841 51.7085227 42.6196591 51.6210227 42.4995455 51.3322727 42.6284091 50.5845455 42.9625 49.7835227 43.0571591 48.9817045 43.1546023 48.265 43.2413068 47.5506818 43.3514773 46.8892614 43.6621023 46.064375 44.0498864 45.7127841 44.6850568 45.7601136 45.6722159 45.7967045 46.4374432 46.1996023 46.9501136 46.9680114 47.2289205 47.3991477 47.385625 47.8465909 47.3613636 48.1942045 47.3713068zM55.9848864 42.6439205C56.0250568 44.2340341 55.9065341 46.0918182 56.0779545 47.9448295 56.1252841 48.4594886 56.1714205 48.9773295 56.363125 49.4589773 56.5214205 49.8575 56.3595455 49.9457955 56.0027841 49.9438068 54.9026705 49.9382386 53.8021591 49.9286932 52.7024432 49.949375 52.2780682 49.9577273 52.0549432 49.7998295 52.0064205 49.3814205 51.9928977 49.2628977 51.9463636 49.1475568 51.9328409 49.0286364 51.8910795 48.6575568 51.8071591 48.5171591 51.454375 48.8401136 50.6549432 49.5711364 49.6618182 49.9016477 48.6213636 50.1136364 47.3255682 50.3777273 46.0289773 50.4266477 44.7435227 50.0682955 42.3675 49.4064773 41.1198295 47.4683523 41.4352273 45.01875 41.6726705 43.176875 42.7011932 42.0250568 44.4277273 41.4547159 45.8901705 40.9714773 47.4130682 40.8111932 48.934375 40.6505114 49.5353409 40.586875 50.1271591 40.4798864 50.6895455 40.2567614 51.1886932 40.0594886 51.6098864 39.7790909 51.6373295 39.1618182 51.6691477 38.4506818 51.6393182 37.7117045 50.9357386 37.3469886 49.7206818 36.7173864 48.444375 36.7511932 47.2177841 37.3386364 46.6577841 37.6067045 46.3980682 38.163125 46.2970455 38.7613068 46.235 39.1276136 46.0516477 39.2401705 45.7016477 39.2357955 44.6357386 39.2222727 43.5698295 39.2346023 42.5039205 39.2294318 41.9371591 39.2270455 41.8548295 39.1244318 41.9550568 38.5413636 42.2859659 36.6163636 43.4604545 35.39375 45.2120455 34.6611364 45.9629545 34.3469318 46.7560227 34.1759091 47.5586364 34.0840341 49.2426136 33.8915341 50.9202273 33.9396591 52.5715909 34.3616477 53.2421591 34.5330682 53.869375 34.8110795 54.4353409 35.2179545 55.4388068 35.9394318 55.9797159 36.9047159 55.9840909 38.1503977 55.9884659 39.5599432 55.9848864 40.9694886 55.9848864 42.6439205L55.9848864 42.6439205z"/>
    <path fill="#10192B" d="M27.57125,18.8789205 C28.4800568,18.8789205 29.3892614,18.8821023 30.2980682,18.8777273 C30.8990341,18.8749432 30.9511364,18.7969886 30.7757386,18.2063636 C30.2384091,16.3975 29.3021591,15.7293182 27.405,15.7997159 C25.8478977,15.8573864 24.7390341,16.7598295 24.3866477,18.2552841 C24.2569886,18.8061364 24.3090909,18.8749432 24.8961364,18.8777273 C25.7878409,18.8821023 26.6795455,18.8789205 27.57125,18.8789205 Z M29.7305114,21.6825 C28.1153409,21.6828977 26.4997727,21.6801136 24.8846023,21.6840909 C24.3317614,21.6856818 24.2661364,21.7692045 24.3281818,22.3252273 C24.5449432,24.2565909 25.6872159,25.3010227 27.6356818,25.3861364 C29.1235795,25.4509659 30.3394318,24.9947727 31.1277273,23.664375 C31.241875,23.471875 31.4021591,23.4217614 31.6014205,23.4217614 C32.5635227,23.4213636 33.525625,23.4269318 34.488125,23.4181818 C34.9208523,23.4142045 34.9634091,23.6023295 34.8428977,23.9694318 C33.9730682,26.6182955 31.7131818,28.3770455 28.9123864,28.6069318 C27.3477273,28.7353977 25.8196591,28.6276136 24.3655682,28.0019886 C21.8447727,26.9181818 20.5477841,24.8853977 20.0967614,22.2735227 C19.6898864,19.9173864 20.0597727,17.6801705 21.4363068,15.6772159 C23.9471591,12.0228977 29.5519318,11.3642614 32.7981818,14.3742614 C34.3867045,15.8466477 35.0664205,17.7780114 35.2461932,19.8998864 C35.2780114,20.2757386 35.2350568,20.6579545 35.2688636,21.0330114 C35.3134091,21.5261932 35.1244886,21.6976136 34.6277273,21.6908523 C32.9954545,21.6681818 31.3627841,21.6821023 29.7305114,21.6825 L29.7305114,21.6825 Z"/>
    <path fill="#875B96" d="M93.5907955,39.0138636 C93.0578409,39.0138636 92.5252841,39.0122727 91.9923295,39.0146591 C91.7592614,39.0154545 91.590625,38.9454545 91.555625,38.68375 C91.4207955,37.6719318 90.7414773,37.2197159 89.8255114,37.03875 C89.0431818,36.8840341 88.2528977,36.8701136 87.4761364,37.0725568 C86.9185227,37.2177273 86.5100568,37.5577841 86.4424432,38.1575568 C86.3744318,38.7577273 86.7069318,39.1657955 87.2080682,39.4489773 C87.8460227,39.8089205 88.5535795,39.9608523 89.2575568,40.1195455 C90.4972727,40.3991477 91.7544886,40.6143182 92.9560227,41.0406818 C93.8871023,41.3707955 94.7684659,41.8003409 95.38375,42.6188636 C96.565,44.1906818 96.333125,46.7846591 94.9021023,48.3274432 C94.3019318,48.9741477 93.5935795,49.459375 92.7678977,49.7254545 C90.1854545,50.5567045 87.5882955,50.5921023 85.0444318,49.6045455 C83.190625,48.8846591 82.0674432,47.5077273 81.7886364,45.4988068 C81.7102841,44.935625 81.7981818,44.8067614 82.3613636,44.7992045 C83.3234659,44.786875 84.2859659,44.7984091 85.2484659,44.7972159 C85.6418182,44.7968182 85.8709091,44.9240909 85.9305682,45.3735227 C86.0216477,46.0627841 86.4380682,46.5881818 87.0390341,46.9071591 C88.2290341,47.5383523 89.4739205,47.6011932 90.7104545,47.0523295 C91.3798295,46.7552273 91.8125568,46.2600568 91.7755682,45.4498864 C91.7409659,44.6957955 91.2330682,44.3732386 90.6396591,44.139375 C89.4691477,43.6776136 88.2401705,43.4163068 87.0151705,43.1466477 C86.1751705,42.9617045 85.3467045,42.7353977 84.55125,42.4021023 C81.9429545,41.3075568 81.2338068,37.9809659 83.1560227,35.888125 C83.79,35.1976705 84.5596023,34.7184091 85.4473295,34.461875 C87.7481818,33.7960795 90.0617614,33.7396023 92.3407386,34.53625 C94.1702841,35.1757955 95.309375,36.4517045 95.650625,38.4009659 C95.7309659,38.8607386 95.6080682,39.0413068 95.1371591,39.020625 C94.6225,38.99875 94.10625,39.0158523 93.5907955,39.0158523 C93.5907955,39.0150568 93.5907955,39.0142614 93.5907955,39.0138636"/>
    <path fill="#10192B" d="M52.2669318 17.4765341C51.7510795 17.4757386 51.2348295 17.4665909 50.719375 17.4793182 50.4342045 17.4860795 50.2699432 17.3890341 50.2190341 17.0927273 50.0635227 16.1914773 49.4581818 15.7563636 48.6177841 15.5598864 47.8688636 15.3848864 47.1207386 15.3642045 46.3686364 15.5244886 45.745 15.6577273 45.3122727 16.0451136 45.2466477 16.5184091 45.154375 17.1802273 45.3671591 17.5898864 46.0313636 17.9323295 47.0714205 18.4688636 48.2307955 18.5925568 49.3484091 18.8574432 50.1518182 19.0475568 50.9564205 19.2305114 51.7351705 19.508125 54.4166477 20.4650568 55.2832955 22.3423295 54.5260227 25.0043182 54.0189205 26.7869318 52.653125 27.7693182 50.938125 28.2426136 48.755 28.8459659 46.5436364 28.8459659 44.3764205 28.1757955 42.37625 27.5573295 41.0188068 26.2710795 40.6190909 24.1332955 40.4592045 23.2785795 40.525625 23.2014205 41.3680114 23.2010227 42.2967045 23.2002273 43.225 23.2014205 44.1536932 23.2018182 44.3883523 23.2018182 44.6134659 23.2169318 44.6409091 23.5271591 44.7550568 24.8352841 45.9180114 25.6633523 47.5049432 25.7603977 48.1309659 25.7985795 48.7422727 25.7063068 49.3217614 25.4625 50.045625 25.1582386 50.4906818 24.5465341 50.4692045 23.8974432 50.4441477 23.1369886 49.9219318 22.7857955 49.3022727 22.5459659 48.1930114 22.1164205 47.0332386 21.8610795 45.87625 21.5997727 44.9360227 21.3877841 43.9977841 21.1638636 43.1251705 20.7430682 40.6815341 19.5646023 40.0789773 16.4925568 41.8771023 14.4402841 42.9461932 13.2196591 44.3839773 12.8103977 45.9096591 12.5960227 47.3542045 12.3927841 48.7888068 12.4711364 50.2134659 12.7797727 52.4069318 13.2550568 53.9095455 14.7334091 54.2861932 16.7948295 54.3995455 17.416875 54.3538068 17.4729545 53.7110795 17.4765341 53.2298295 17.4789205 52.7481818 17.4769318 52.2669318 17.4765341M66.7819886 17.4761364C66.2661364 17.4761364 65.7502841 17.4665909 65.2348295 17.4797159 64.9500568 17.486875 64.7754545 17.3934091 64.7332955 17.0955114 64.6088068 16.2232955 64.0305114 15.8048864 63.2358523 15.596875 62.4388068 15.3880682 61.6365909 15.3717614 60.83875 15.5547159 60.2878977 15.6811932 59.8468182 15.9850568 59.7390341 16.5832386 59.6284659 17.1933523 59.9621591 17.6038068 60.45375 17.89375 61.1927273 18.3300568 62.0311364 18.4708523 62.8524432 18.6490341 63.8936932 18.8749432 64.938125 19.0909091 65.9535227 19.4170455 66.9804545 19.7471591 67.9385795 20.2033523 68.6051705 21.105 69.8671591 22.8132386 69.3906818 25.7150568 67.6235795 27.1560227 66.5859091 28.0019886 65.3684659 28.371875 64.0714773 28.5488636 62.2232386 28.8018182 60.3952841 28.7230682 58.629375 28.091875 56.5953977 27.3648295 55.3445455 25.97 55.0967614 23.7614205 55.0494318 23.3414205 55.1914205 23.2038068 55.5943182 23.209375 56.6252273 23.2225 57.6569318 23.2141477 58.6882386 23.21375 58.9272727 23.21375 59.1340909 23.2451705 59.1782386 23.5450568 59.3814773 24.924375 60.3141477 25.4975 61.5757386 25.7122727 62.4507386 25.8614205 63.2935227 25.7735227 64.0798295 25.3563068 64.6684659 25.0432955 65.0335795 24.548125 64.9938068 23.8592614 64.9552273 23.1938636 64.4966477 22.833125 63.923125 22.5992614 62.7553977 22.1231818 61.5260227 21.8682386 60.3022159 21.5934091 59.4797159 21.4088636 58.6655682 21.1936932 57.8852273 20.86875 55.2570455 19.7746023 54.5307955 16.6174432 56.4056818 14.4534091 56.9728409 13.7991477 57.6696591 13.3342045 58.485 13.0721023 60.8797159 12.3009091 63.2947159 12.2472159 65.6699432 13.0991477 67.4159659 13.7255682 68.490625 14.9955114 68.8263068 16.8572727 68.90625 17.3007386 68.8203409 17.5079545 68.32875 17.4825 67.8144886 17.4558523 67.2974432 17.4765341 66.7819886 17.4761364M13.4288636 20.7756818C13.4280682 19.3657386 13.4284659 17.9561932 13.4280682 16.54625 13.4276705 15.8271591 13.426875 15.8271591 12.6835227 15.8263636 12.2364773 15.8259659 11.7890341 15.8140341 11.3427841 15.82875 11.0114773 15.8394886 10.8714773 15.6978977 10.8746591 15.3733523 10.8802273 14.7027841 10.8810227 14.0322159 10.8729859 13.3616477 10.8690909 13.0371023 11.0090909 12.8895455 11.3360227 12.8955114 11.7830682 12.9038636 12.2301136 12.8963068 12.6771591 12.8955114 13.4276705 12.8939205 13.4276705 12.8939205 13.4280682 12.1203409 13.4284659 11.0715341 13.4451705 10.0223295 13.4205114 8.97431818 13.4097727 8.51931818 13.5354545 8.32204545 14.02625 8.33556818 15.0738636 8.365 16.1234659 8.35585227 17.171875 8.33954545 17.5719886 8.33318182 17.7223295 8.48232955 17.7167614 8.88323864 17.70125 10.0350568 17.7267045 11.1872727 17.7048295 12.3386932 17.6964773 12.7698295 17.8523864 12.9177841 18.274375 12.901875 18.9270455 12.8772159 19.5813068 12.9126136 20.2339773 12.8903409 20.6647159 12.8760227 20.8150568 13.0534091 20.7999432 13.4702273 20.7788636 14.0715909 20.7776705 14.6745455 20.7995455 15.2751136 20.8154545 15.7078409 20.6328977 15.8478409 20.216875 15.8323295 19.5646023 15.8084659 18.9095455 15.8490341 18.2576705 15.8188068 17.8161932 15.798125 17.7024432 15.9759091 17.7052273 16.3895455 17.7199432 18.6760795 17.6976705 20.9630114 17.7175568 23.2495455 17.731875 24.8686932 18.1622159 25.0138636 19.5840909 25.0305682 20.7947727 25.0448864 20.7951705 24.9999432 20.7951705 26.2496023 20.7951705 26.7654545 20.7888068 27.2813068 20.7955682 27.7967614 20.7999432 28.0958523 20.7120455 28.2899432 20.374375 28.3185795 18.8459091 28.4474432 17.3150568 28.5401136 15.8128409 28.1475568 14.3014773 27.7522159 13.4841477 26.6755682 13.4328409 25.1085227 13.43125 25.0568182 13.4296591 25.0055114 13.4296591 24.9538068 13.4292614 23.5609659 13.4292614 22.1685227 13.4288636 20.7756818"/>
    <path fill="#855B96" d="M44.7642045,8.98465909 C44.3859659,8.98426136 44.0073295,8.96994318 43.6302841,8.98784091 C43.2480682,9.00613636 43.0853977,8.87090909 43.0527841,8.46443182 C42.7910795,5.18636364 39.6367045,2.99886364 36.4759659,3.88778409 C34.4821591,4.44857955 32.9409659,6.29920455 32.781875,8.38965909 C32.7452841,8.87210227 32.5627273,9.00772727 32.1160795,8.99102273 C31.4467045,8.96596591 30.7757386,8.98704545 30.1055682,8.98346591 C29.4501136,8.98028409 29.3944318,8.94607955 29.4409659,8.27034091 C29.6088068,5.84460227 30.6540341,3.84642045 32.5114205,2.30125 C37.37125,-1.74085227 45.2140341,0.711534091 46.3284659,7.68210227 C46.5663068,9.17079545 46.6279545,8.96278409 45.2279545,8.98465909 C45.0736364,8.98664773 44.9189205,8.98465909 44.7642045,8.98465909"/>
    <path fill="#10192B" d="M40.0873295,20.55375 C40.0877273,22.9075 40.0889205,25.2608523 40.0865341,27.6146023 C40.0861364,28.2573295 40.0598864,28.2823864 39.4175568,28.284375 C38.3870455,28.2875568 37.3561364,28.2696591 36.325625,28.2919318 C35.8734091,28.301875 35.7298295,28.1288636 35.7306217,27.6873864 C35.7413636,22.9460795 35.7409659,18.2047727 35.7318182,13.4634659 C35.7310227,13.0414773 35.8809659,12.8827841 36.3041477,12.8899432 C37.3688636,12.9086364 38.4347727,12.9110227 39.4990909,12.88875 C39.9517045,12.8792045 40.096875,13.0518182 40.0945175,13.4932955 C40.0797727,15.8466477 40.0873295,18.2003977 40.0873295,20.55375"/>
    <path fill="#855B96" d="M37.9165341,11.0516507 C36.7591477,11.0500568 35.7421591,10.0278977 35.7501136,8.87488636 C35.7580682,7.71113636 36.7802273,6.70846591 37.9384091,6.72795455 C39.1093182,6.74784091 40.0921023,7.75568182 40.0797727,8.92460227 C40.0682386,10.0529545 39.0504545,11.0536364 37.9165341,11.0516507"/>
    <path fill="#10192B" d="M87.8595455 60.7922159C87.52625 62.8063068 87.0700568 64.7885795 86.6683523 66.7815909 86.4973295 67.6279545 86.31875 68.4727273 86.1517045 69.3198864 86.1083523 69.5386364 86.0236364 69.6507955 85.7746591 69.6480114 84.7397727 69.6360795 83.7048864 69.636875 82.6703977 69.6472159 82.4273864 69.65 82.3335227 69.5525568 82.2917614 69.3250568 81.5277273 65.1731818 80.758125 61.0225 79.9909091 56.8710227 79.9228977 56.503125 79.9403977 56.48125 80.3015341 56.4804545 81.1017614 56.4788636 81.9015909 56.4868182 82.7014205 56.4760795 82.9348864 56.4728977 83.0450568 56.5440909 83.0808523 56.7871023 83.5469886 59.9721023 84.0214773 63.1559091 84.4124432 66.35125 84.4227841 66.4355682 84.4283523 66.5202841 84.4840341 66.6133523 84.5536364 66.2673295 84.6331818 65.9236932 84.6916477 65.5760795 85.1880114 62.619375 85.9321591 59.7151705 86.5764773 56.7898864 86.6265909 56.5631818 86.7292045 56.4713068 86.9674432 56.4760795 87.6177273 56.4888068 88.2688068 56.4892045 88.9190909 56.4756818 89.1601136 56.4705114 89.2547727 56.5651705 89.3056818 56.7906818 90.0231818 59.9728977 90.8007386 63.1423864 91.3424432 66.3615909 91.3563636 66.4439205 91.3794318 66.5250568 91.4414773 66.6077841 91.5440909 65.84375 91.6530682 65.0809091 91.748125 64.3164773 92.0201705 62.1261932 92.3705682 59.9474432 92.6847727 57.7639205 92.7328977 57.42625 92.7949432 57.0901705 92.833125 56.7517045 92.8581818 56.529375 92.9751136 56.4756818 93.1771591 56.4776705 93.9348295 56.4848295 94.6921023 56.4884091 95.449375 56.4764773 95.7261932 56.4721023 95.7683523 56.5870455 95.725 56.8288636 95.2946591 59.2211932 94.8710795 61.6143182 94.4459091 64.0074432 94.1360795 65.7498864 93.8186932 67.4907386 93.5251705 69.2359659 93.4714773 69.5565341 93.3481818 69.6559659 93.0288068 69.65 92.0157955 69.6313068 91.0023864 69.6372727 89.9889773 69.6476136 89.7539205 69.65 89.6405682 69.5720455 89.5940341 69.3401705 89.0372159 66.5604545 88.3097727 63.8149432 87.9088636 61.0038068 87.8985227 60.9322159 87.87625 60.8626136 87.8595455 60.7922159M111.27375 65.7244318C111.208125 65.0152841 111.151648 64.3049432 111.074489 63.5973864 110.973864 62.6734659 110.94483 61.7483523 110.949205 60.8200568 110.955568 59.4976136 110.95875 58.1751705 110.94483 56.853125 110.942045 56.5548295 111.044261 56.468125 111.33142 56.4748864 112.045739 56.4907955 112.760455 56.4872159 113.474773 56.4764773 113.716591 56.4728977 113.814034 56.5452841 113.813638 56.8030114 113.807273 60.9723864 113.80767 65.1417614 113.813239 69.3111364 113.813239 69.5561364 113.739261 69.6511932 113.48392 69.6472159 112.663011 69.6352841 111.841705 69.6360795 111.020795 69.6476136 110.794091 69.6507955 110.675966 69.5617045 110.577727 69.3672159 109.093807 66.4272159 107.456761 63.5639773 106.178466 60.5217614 106.158977 60.4760227 106.131136 60.4338636 106.057557 60.4020455 106.102898 60.8944318 106.135114 61.3880114 106.196761 61.8784091 106.368977 63.2461932 106.400795 64.6191477 106.38767 65.9952841 106.37733 67.0723295 106.375739 68.149375 106.391648 69.2260227 106.396023 69.5370455 106.32125 69.663125 105.984375 69.6507955 105.30267 69.6257386 104.618977 69.628125 103.93767 69.65 103.615909 69.6603409 103.518466 69.5621023 103.519648 69.2363636 103.531193 66.1332955 103.52642 63.0302273 103.52642 59.9271591 103.52642 58.9034091 103.535568 57.8796591 103.520852 56.8559091 103.516477 56.5615909 103.612727 56.4685227 103.904659 56.4744886 104.703693 56.4907955 105.50392 56.4864205 106.30375 56.4760795 106.524091 56.4728977 106.651761 56.546875 106.753977 56.7453409 107.821477 58.8095455 108.910455 60.8630114 109.962841 62.9347727 110.367727 63.7318182 110.693864 64.5690341 111.056591 65.3879545 111.107898 65.5036932 111.162386 65.6186364 111.215284 65.7339773 111.234773 65.7307955 111.254261 65.7276136 111.27375 65.7244318M119.433125 60.4080114C119.500341 61.1175568 119.558011 61.8278977 119.637557 62.5358523 119.73858 63.4382955 119.767614 64.3423295 119.763636 65.2491477 119.757273 66.5819318 119.754091 67.9151136 119.768011 69.2478977 119.771193 69.5521591 119.683295 69.6583523 119.371477 69.6496023 118.668295 69.6293182 117.96392 69.6356818 117.260341 69.6472159 117.010568 69.6511932 116.898011 69.58875 116.898408 69.3107386 116.905568 65.1413636 116.90517 60.9719886 116.898807 56.8026136 116.898408 56.5440909 116.997045 56.4736932 117.238466 56.4764773 118.049034 56.4864205 118.859602 56.4880114 119.669773 56.4752841 119.905227 56.4717045 120.035284 56.5560227 120.140284 56.7644318 121.612273 59.6861364 123.261648 62.5195455 124.506932 65.5538068 124.532784 65.6170455 124.540341 65.7017614 124.6525 65.73875 124.606364 65.2423864 124.570568 64.7579545 124.515284 64.2759091 124.3725 63.0353977 124.310455 61.7917045 124.324375 60.5424432 124.337898 59.3166477 124.337102 58.0900568 124.320795 56.8638636 124.31642 56.5444886 124.432955 56.4665341 124.729261 56.4744886 125.411364 56.4923864 126.094659 56.4955682 126.776364 56.4732955 127.099716 56.4629545 127.193977 56.564375 127.192795 56.888125 127.181648 60.0874432 127.18642 63.2863636 127.18642 66.4852841 127.18642 67.4131818 127.17608 68.3410795 127.191989 69.2685795 127.196761 69.5648864 127.096932 69.6547727 126.806989 69.6488068 126.018295 69.6328977 125.228807 69.6344886 124.439716 69.6484091 124.192727 69.6527841 124.055511 69.5716477 123.942955 69.3485227 122.460227 66.408125 120.824375 63.5440909 119.54608 60.501875 119.53017 60.4644886 119.507102 60.4302841 119.487216 60.3940909 119.469318 60.3988636 119.451023 60.4032386 119.433125 60.4080114M144.211136 60.6756818C144.211136 61.1871591 144.213523 61.6986364 144.209943 62.2097159 144.20875 62.3759659 144.227443 62.5084091 144.443011 62.5040341 145.134261 62.4897159 145.827898 62.5489773 146.515568 62.43125 147.576307 62.2498864 148.12358 61.5757386 148.092557 60.4883523 148.065114 59.5417614 147.558807 59.0708523 146.456705 58.9336364 145.79767 58.8517045 145.137443 58.9042045 144.478409 58.8811364 144.230625 58.8723864 144.206364 59.0115909 144.20875 59.2056818 144.215511 59.6956818 144.211136 60.1856818 144.211136 60.6756818zM141.224205 63.0310227C141.224205 60.9835227 141.230568 58.9360227 141.217015 56.8885227 141.215057 56.564375 141.310909 56.4705114 141.633466 56.4732357 143.221989 56.4884091 144.811705 56.4689205 146.400227 56.4840341 147.468523 56.494375 148.500227 56.6844886 149.431705 57.2524432 150.329773 57.8001136 150.826136 58.6202273 150.986818 59.6372159 151.163807 60.7560227 151.096591 61.8497727 150.504773 62.86 150.166705 63.4367045 149.696989 63.8734091 149.115511 64.1951705 148.745625 64.4003977 148.718182 64.3053409 148.96875 64.7507955 149.815114 66.2565909 150.666648 67.7588068 151.516591 69.2626136 151.721023 69.6241477 151.711875 69.6420455 151.304205 69.6428409 150.43 69.6444318 149.555 69.6332955 148.680795 69.6492045 148.418693 69.6539773 148.279091 69.5597159 148.16017 69.3326136 147.446648 67.9731818 146.714034 66.6236932 146.000511 65.2646591 145.866477 65.0093182 145.71375 64.868125 145.407102 64.9015341 145.154148 64.9289773 144.895625 64.9071023 144.639886 64.9071023 144.21233 64.9078977 144.211136 64.9078977 144.211136 65.3219318 144.210739 66.6125568 144.211136 67.9027841 144.210739 69.1930114 144.210341 69.6420455 144.209148 69.6428409 143.747386 69.6432386 143.043409 69.6436364 142.339034 69.6289205 141.635852 69.65 141.316477 69.6595455 141.215057 69.5648864 141.217015 69.2371591 141.230966 67.1685795 141.224205 65.0996023 141.224205 63.0310227L141.224205 63.0310227zM130.215511 63.0461364C130.215511 60.9878977 130.215114 58.9292614 130.215909 56.870625 130.215909 56.4494318 130.221875 56.4410795 130.644659 56.4410795 133.10858 56.4394886 135.572102 56.4442614 138.036023 56.4354994 138.348636 56.4343182 138.471136 56.5218182 138.457614 56.8535227 138.432557 57.4604545 138.440114 58.069375 138.45483 58.6771023 138.461591 58.9447727 138.362557 59.0247159 138.102443 59.023125 136.598636 59.014375 135.094432 59.0271023 133.591023 59.0123864 133.280398 59.0092045 133.185341 59.1034659 133.19608 59.4109091 133.217557 60.0178409 133.215966 60.6267614 133.196477 61.2340909 133.18733 61.5260227 133.278011 61.6250568 133.575114 61.6214773 134.790966 61.6079545 136.006818 61.6155114 137.22267 61.6163068 137.666534 61.6167045 137.673295 61.6242614 137.674091 62.059375 137.675284 62.6249432 137.663352 63.1905114 137.678466 63.7552841 137.68642 64.0404545 137.59733 64.1486364 137.297045 64.1450568 136.081193 64.1307386 134.865341 64.1386932 133.649489 64.1390909 133.203239 64.1394886 133.202841 64.1398864 133.202443 64.6004545 133.202443 65.3147727 133.21358 66.0294886 133.196875 66.7438068 133.190114 67.0222159 133.273239 67.1125 133.558011 67.1101136 135.115114 67.0977841 136.672216 67.1121023 138.229318 67.0981818 138.546307 67.095 138.663636 67.1785227 138.649318 67.5094318 138.624659 68.0948864 138.624659 68.683125 138.649716 69.2685795 138.663636 69.5986932 138.543523 69.6892779 138.22892 69.6881818 135.86125 69.6790341 133.49358 69.6830114 131.125511 69.6830114 130.955284 69.6830114 130.783466 69.6710795 130.614034 69.6857955 130.313352 69.71125 130.207159 69.5990909 130.20912 69.2856818 130.221477 67.2059659 130.215511 65.12625 130.215511 63.0461364M97.5103977 63.0624432C97.5103977 61.0053977 97.5163636 58.94875 97.5040341 56.8917045 97.5020455 56.5735227 97.5875568 56.4633523 97.9160795 56.4728977 98.6614205 56.4955682 99.4079545 56.4888068 100.154091 56.4756818 100.419375 56.4709091 100.501705 56.5647727 100.501308 56.8264773 100.495341 60.9827273 100.495341 65.1389773 100.500909 69.295625 100.501308 69.5553409 100.422955 69.6523864 100.155284 69.6476136 99.3988068 69.6340909 98.6419318 69.6313068 97.8854545 69.6488068 97.5903409 69.6555682 97.5036364 69.5553409 97.5052273 69.265 97.5151705 67.1976136 97.5103977 65.1302273 97.5103977 63.0624432"/>
  </g>
</svg>
