<svg xmlns="http://www.w3.org/2000/svg" width="148" height="67" viewBox="0 0 148 67">
  <g fill="#FFF" fill-rule="evenodd" transform="translate(.138 .328)">
    <path d="M143.179559 37.203196C143.179559 36.2378276 143.226927 35.2696171 143.065874 34.3099329 142.904822 33.2896171 142.734296 32.2664592 142.118506 31.3939329 141.057453 29.8876171 138.859559 29.9056171 137.826927 31.4270908 137.37219 32.0902487 137.125874 32.8377223 137.002717 33.621196 136.65219 35.8693013 136.709032 38.1278276 136.936401 40.3806697 137.050085 41.4805645 137.37219 42.5302487 138.082717 43.4217223 138.433243 43.8546697 138.878506 44.1170908 139.409032 44.1957223 140.555348 44.3624592 141.51219 44.068775 142.165874 43.0295118 142.440611 42.5937223 142.630085 42.1314066 142.77219 41.6397223 143.179559 40.1855118 143.20798 38.697196 143.179559 37.203196zM115.353453 37.3443539C115.350611 36.3136171 115.389453 35.2800381 115.236927 34.2549855 115.093874 33.2953013 114.913874 32.3479329 114.370085 31.5142487 113.277769 29.8393013 110.965243 29.859196 109.911769 31.5540381 109.587769 32.0750908 109.392611 32.6482487 109.263769 33.243196 108.802401 35.3653013 108.924611 37.5129855 109.030717 39.6540381 109.082822 40.6876171 109.287453 41.7022487 109.764927 42.6401434 110.231032 43.5534066 110.871453 44.1928802 111.988401 44.2374066 113.16219 44.284775 113.958927 43.7656171 114.49798 42.7680381 114.693138 42.4070908 114.845664 42.0300381 114.960296 41.6330908 115.361032 40.2281434 115.370506 38.787196 115.353453 37.3443539zM104.813032 36.357196C103.994506 37.5802487 102.960927 38.4963539 101.793769 39.2826697 100.381243 40.234775 98.9251376 41.1262487 97.6111376 42.2204592 97.2179797 42.5473013 96.8693482 42.9129855 96.5538745 43.312775 96.478085 43.4103539 96.3255587 43.5003539 96.4013482 43.6434066 96.4742955 43.7788802 96.6391376 43.719196 96.7622955 43.7201434 99.221664 43.7229855 101.680085 43.7220381 104.138506 43.7220381 105.619243 43.7220381 105.62019 43.7220381 105.619243 45.1876171 105.619243 45.7446697 105.613559 46.3026697 105.618296 46.8597223 105.622085 47.146775 105.49419 47.2860381 105.20619 47.2794066 105.124717 47.2775118 105.042296 47.2822487 104.960822 47.2822487 100.485453 47.2822487 96.0110324 47.2822487 91.535664 47.2813013 90.9094534 47.2813013 90.9179797 47.2765645 90.9321903 46.6513013 90.9899797 43.9825645 92.3219797 41.9930908 94.3171376 40.3806697 95.783664 39.1955118 97.3638745 38.164775 98.9374534 37.1255118 99.6944008 36.6253013 100.361348 36.0237223 100.844506 35.2393013 101.661138 33.9129855 101.53419 32.2276171 100.538506 31.2376171 99.2188218 29.9274066 96.9413482 30.2343539 96.0224008 31.8477223 95.5998745 32.5904592 95.4331376 33.4014066 95.3630324 34.2445645 95.3005061 34.9958276 95.2853482 34.9948802 94.5435587 34.9958276 93.641664 34.996775 92.7407166 34.9920381 91.8388218 34.996775 91.5621903 34.9977223 91.3452429 34.9456171 91.3433482 34.6064592 91.3291376 31.7937223 92.525664 28.6153013 95.6993482 27.3733013 98.5471376 26.259196 101.921664 26.9242487 103.942401 29.0245645 104.627348 29.7369855 105.058401 30.5953013 105.31419 31.5455118 105.351138 31.6838276 105.33219 31.8420381 105.492296 31.9945645 106.498401 28.6560381 108.719032 26.8200381 112.205348 26.8560381 116.353874 26.8996171 118.36798 29.4584592 119.201664 33.3654066 119.931138 29.193196 122.309032 27.267196 125.331138 26.9299329 128.874296 26.5348802 132.322717 28.0629855 133.279559 31.9813013 133.431138 31.6175118 133.535348 31.3380381 133.649032 31.0633013 134.984822 27.8934066 137.201664 26.8560381 140.015348 26.860775 143.331138 26.8664592 145.453243 28.5224592 146.561664 31.6753013 147.025874 32.9874066 147.234296 34.3459329 147.300611 35.7224592 147.404822 37.905196 147.357453 40.083196 146.741664 42.207196 146.305874 43.7457223 145.614296 45.1326697 144.354296 46.1899329 143.179559 47.1780381 141.796401 47.5768802 140.309032 47.6204592 137.80798 47.6934066 135.695348 46.9260381 134.302717 44.6978276 133.686927 43.7135118 133.289032 42.6420381 133.042717 41.512775 132.749032 40.1788802 132.616401 38.8288802 132.644822 37.462775 132.644822 37.0923539 132.644822 36.7209855 132.597453 36.3306697 131.375348 38.3409855 129.376401 39.4190908 127.529032 40.6724592 126.401664 41.4369855 125.264822 42.1901434 124.41219 43.2739329 124.326927 43.3819329 124.137453 43.4785645 124.222717 43.6377223 124.298506 43.7874066 124.48798 43.719196 124.630085 43.719196 127.330085 43.7229855 130.039559 43.7220381 132.739559 43.7229855 133.440611 43.7229855 133.450085 43.7258276 133.450085 44.4420381 133.450085 45.1800381 133.431138 45.9180381 133.450085 46.6550908 133.469032 47.1126697 133.326927 47.2917223 132.843769 47.2898276 128.324822 47.2765645 123.796401 47.283196 119.26798 47.2803539 118.726085 47.2803539 118.686296 47.1979329 118.716611 46.6295118 118.860611 43.9513013 120.158506 41.908775 122.223769 40.3077223 123.597453 39.2419329 125.018506 38.2443539 126.486927 37.3121434 127.396401 36.735196 128.182717 36.0246697 128.751138 35.0943539 129.81219 33.3379329 129.006927 30.9913013 127.11219 30.5517223 125.350085 30.1424592 124.118506 30.7658276 123.445874 32.7676171 123.265874 33.2962487 123.161664 33.8542487 123.15219 34.4084592 123.142717 34.9020381 122.934296 35.0157223 122.489032 35.0024592 121.674296 34.9778276 120.850085 35.0138276 120.035348 34.989196 119.599559 34.9759329 119.466927 35.1388802 119.476401 35.5642487 119.514296 37.4154066 119.580611 39.2694066 119.197874 41.0997223 118.917453 42.441196 118.496822 43.7277223 117.725664 44.8768802 116.728085 46.3642487 115.319348 47.2017223 113.572401 47.5115118 112.065138 47.7796171 110.595769 47.6517223 109.18798 47.056775 107.389874 46.2960381 106.351559 44.8475118 105.69219 43.0759329 105.060296 41.3801434 104.84998 39.6142487 104.814927 37.8189855 104.805453 37.3320381 104.813032 36.8441434 104.813032 36.357196zM73.4418745 39.8643539C73.4314534 38.848775 73.3158745 37.9449855 72.9435587 37.0876171 71.9886113 34.8821434 68.8717692 34.5079329 67.4279797 36.4273013 66.1348218 38.1448802 66.1945061 41.6084592 67.5464008 43.3383539 69.010085 45.2122487 71.9914534 44.835196 72.9274534 42.6543539 73.3225061 41.7354066 73.420085 40.7605645 73.4418745 39.8643539zM63.9861903 34.4359329C65.1893482 32.980775 66.6738745 32.1679329 68.5051376 32.0769855 70.3364008 31.9869855 71.926085 32.5374066 73.150085 33.9755118 73.3272429 33.8210908 73.2533482 33.628775 73.2533482 33.4629855 73.2590324 31.5123539 73.2561903 29.5617223 73.258085 27.6110908 73.2590324 26.8863539 73.3139797 26.8342487 74.0453482 26.8323539 74.9794534 26.8295118 75.9135587 26.8408802 76.847664 26.8274239 77.2341903 26.8219329 77.4047166 26.9403539 77.4037731 27.3619329 77.3942955 33.819196 77.3952429 40.2774066 77.4028218 46.7346697 77.4037731 47.1335118 77.2730324 47.2945645 76.8647166 47.2869855 75.9145061 47.2689855 74.9642955 47.2680381 74.014085 47.2879329 73.5735587 47.2974066 73.4257692 47.1003539 73.4532429 46.6948802 73.4778745 46.3235118 73.4882955 45.9521434 73.5044008 45.573196 73.4418745 45.5845645 73.3973482 45.5788802 73.384085 45.5968802 72.0122955 47.5134066 70.0484008 47.8516171 67.9149271 47.5380381 65.0946113 47.1230908 63.5485061 45.267196 62.7839797 42.6666697 62.1909271 40.6525645 62.2155587 38.6261434 62.8730324 36.6196171 63.0852429 35.9697223 62.9942955 35.8759329 62.2979797 35.907196 59.362085 36.0398276 58.5842955 37.9914066 58.5198745 39.9780381 58.4497692 42.1389855 58.498085 44.3037223 58.4942955 46.4675118 58.4933482 47.2803539 58.4933482 47.2813013 57.670085 47.2822487 56.7359797 47.2822487 55.8009271 47.2718276 54.8677692 47.2860381 54.4869271 47.2917223 54.347664 47.1448802 54.3486065 46.7640381 54.3561903 42.1749855 54.3571376 37.5849855 54.3486065 32.9959329 54.347664 32.5980381 54.4907166 32.4303539 54.8924008 32.4360381 55.8426113 32.4474066 56.7937692 32.4474066 57.7439797 32.4350908 58.1361903 32.4294066 58.3142955 32.5743539 58.3019797 32.9826697 58.2830324 33.5870908 58.2972429 34.1924592 58.2972429 34.8442487 58.5302955 34.7637223 58.5814534 34.5808802 58.6695587 34.4463539 59.639664 32.9722487 61.0332429 32.2266697 62.7621903 32.055196 62.8597692 32.044775 62.9592429 32.0466697 63.0568218 32.0533013 63.8535587 32.1054066 63.9113482 32.1688802 63.9141903 32.9570908 63.9151376 33.3824592 63.9189271 33.808775 63.9227166 34.2350908 63.923664 34.2663539 63.941664 34.2966697 63.9861903 34.4359329zM24.4193482 42.1437223C24.5557692 41.5933013 24.6931376 41.0428802 24.8286113 40.4924592 25.4387166 38.0094066 26.0582955 35.529196 26.6494534 33.0423539 26.7555587 32.595196 26.9421903 32.4133013 27.4130324 32.4294066 28.330085 32.4606697 29.2490324 32.4568802 30.166085 32.4303539 30.6189271 32.4161434 30.8349271 32.5610908 30.9467166 33.0215118 31.6648218 35.9668802 32.4104008 38.9046697 33.1484008 41.8453013 33.1711376 41.9381434 33.2099797 42.027196 33.2535587 42.1541434 33.4458745 42.0215118 33.442085 41.8310908 33.4837692 41.6757223 34.2710324 38.7985645 35.0611376 35.9233013 35.8237692 33.0404592 35.9421903 32.5942487 36.1401903 32.4189855 36.6015587 32.4303539 37.6010324 32.4559329 38.6014534 32.4341434 39.6009271 32.4398276 40.1807166 32.4436171 40.2205061 32.5004592 40.0547166 33.027196 38.6251376 37.5764592 37.1889271 42.1228802 35.7726113 46.6759329 35.6324008 47.1259329 35.4230324 47.3097223 34.9398745 47.2926697 33.9584008 47.2585645 32.9731376 47.2614066 31.9907166 47.2917223 31.5151376 47.3059329 31.3019797 47.1505645 31.1797692 46.6730908 30.4341903 43.7694066 29.6554534 40.8733013 28.8861903 37.9753013 28.8539797 37.8530908 28.8606113 37.7119329 28.6986113 37.5906697 28.4390324 38.6109855 28.1832429 39.6076171 27.9302955 40.605196 27.4139797 42.6382487 26.8881903 44.6684592 26.3917692 46.7062487 26.2875587 47.1325645 26.1009271 47.301196 25.655664 47.2898276 24.6069271 47.2642487 23.5572429 47.2708802 22.5094534 47.2879329 22.1342955 47.2937507 21.9533482 47.1505645 21.8415587 46.7943539 20.3939797 42.1996171 18.9331376 37.6086697 17.4798745 33.0158276 17.3188218 32.505196 17.3642955 32.4436171 17.9024008 32.440775 18.9672429 32.4341434 20.0330324 32.4521434 21.0978745 32.4322487 21.5166113 32.4237223 21.706085 32.5838276 21.8131376 32.9893013 22.552085 35.7764592 23.3118745 38.5588802 24.0669271 41.3413013 24.1389271 41.6084592 24.2213482 41.872775 24.298085 42.1380381 24.3388218 42.1399329 24.3786113 42.1418276 24.4193482 42.1437223zM9.88387448 32.1736171C9.74555869 32.2446697 9.74176922 32.3877223 9.70008501 32.5042487 8.95166395 34.6026697 8.20608501 36.7029855 7.45766395 38.8014066 7.2824008 39.2921434 7.29187448 39.3120381 7.83945343 39.3129855 9.13355869 39.3158276 10.4286113 39.3148802 11.7227166 39.3129855 12.3754534 39.3120381 12.3962955 39.2836171 12.1907166 38.6848802 11.4839797 36.6234066 10.7762955 34.5628802 10.0648218 32.5033013 10.024085 32.386775 10.0250324 32.2399329 9.88387448 32.1736171zM17.4666113 47.2822487C16.8934534 47.2822487 16.3174534 47.2528802 15.7471376 47.2917223 15.2829271 47.3229855 15.0688218 47.1306697 14.9352429 46.7081434 14.5733482 45.5684592 14.164085 44.4439329 13.8078745 43.3023539 13.6771376 42.8855118 13.4611376 42.7453013 13.0310324 42.7490908 10.9013482 42.7680381 8.77071659 42.7680381 6.64103238 42.7490908 6.20997974 42.7462487 5.99966395 42.8902487 5.86419027 43.3042487 5.4824008 44.4714066 5.04282185 45.6196171 4.65534817 46.7848802 4.53029553 47.1628802 4.32945343 47.2955118 3.94103238 47.2888802 2.81082185 47.2699329 1.68061132 47.2850908.549453428 47.2813013-.058757098 47.2794066-.094757098 47.2348802.118400797 46.6664592 1.42482185 43.2028802 2.73692711 39.741196 4.0452429 36.2776171 5.13945343 33.3824592 6.23176922 30.4854066 7.32787448 27.5902487 7.61492711 26.8295118 7.62061132 26.8314066 8.45713764 26.8314066 9.53903238 26.8314066 10.6199797 26.8399329 11.7018745 26.8274959 12.0798745 26.8228802 12.2892429 26.9564592 12.4275587 27.328775 14.8225061 33.7604592 17.2307166 40.1883539 19.6351376 46.6162487 19.8729271 47.2538276 19.8539797 47.2794066 19.1870324 47.2822487 18.6138745 47.2841434 18.0397692 47.2822487 17.4666113 47.2822487zM45.772085 44.8304592C45.9625061 44.8304592 46.0610324 44.8323539 46.1595587 44.8304592 47.885664 44.8020381 48.9325061 43.8082487 49.0461903 42.081196 49.0793482 41.5762487 49.0878745 41.0684592 49.1106113 40.5625645 49.1219797 40.3001434 49.0386113 40.1855118 48.7638745 40.3086697 48.0505061 40.6269855 47.2869271 40.7169855 46.5224008 40.8098276 45.8393482 40.893196 45.1581903 40.9974066 44.5272429 41.2939329 43.7409271 41.6634066 43.4055587 42.2697223 43.4510324 43.2104592 43.486085 43.9399329 43.8697692 44.428775 44.6030324 44.6949855 45.0132429 44.8437223 45.4405061 44.8209855 45.772085 44.8304592zM53.1994534 40.3238276C53.2373482 41.8396171 53.1246113 43.6102487 53.2885061 45.3770908 53.3330324 45.8678276 53.3775587 46.3614066 53.5604008 46.8208802 53.7110324 47.200775 53.5566113 47.2850908 53.2165061 47.283196 52.1677692 47.2775118 51.118085 47.2689855 50.0702955 47.2879329 49.6648218 47.2964592 49.4526113 47.1458276 49.4061903 46.7469855 49.3938745 46.6342487 49.3493482 46.5243539 49.336085 46.4106697 49.2962955 46.0563539 49.2167166 45.922775 48.8804008 46.2306697 48.1177692 46.9279329 47.1713482 47.2424592 46.1785061 47.445196 44.9431376 47.697196 43.7077692 47.7436171 42.4818745 47.4016171 40.2167166 46.7706697 39.0268218 44.9233013 39.3271376 42.5870908 39.5535587 40.8316171 40.5350324 39.7336171 42.1806113 39.1898276 43.5751376 38.7284592 45.0265061 38.5759329 46.4769271 38.4224592 47.050085 38.3618276 47.6147166 38.2604592 48.1509271 38.0473013 48.6265061 37.8597223 49.0281903 37.5916171 49.0547166 37.0033013 49.0850324 36.3249855 49.0566113 35.6210908 48.3858745 35.2734066 47.2272429 34.672775 46.0098745 34.7049855 44.8408218 35.2648802 44.3065061 35.5206697 44.0592429 36.051196 43.9626113 36.6215118 43.9038745 36.9710908 43.7286113 37.0781434 43.3951376 37.0743539 42.3786113 37.0610908 41.3630324 37.0724592 40.3465061 37.0677223 39.8065061 37.0658276 39.7278745 36.9673013 39.8235587 36.4121434 40.1390324 34.5761434 41.2588218 33.4108802 42.928085 32.7126697 43.6442955 32.4123539 44.4002955 32.2494066 45.1657692 32.1622487 46.7715587 31.9784592 48.3707166 32.0248802 49.9452429 32.4265645 50.5847166 32.5904592 51.1825061 32.8557223 51.7225061 33.243196 52.6784008 33.9309855 53.1947166 34.8518276 53.1985061 36.0388802 53.2032429 37.383196 53.1994534 38.7265645 53.1994534 40.3238276zM26.1094534 17.6656171C26.9762955 17.6656171 27.8421903 17.6684592 28.7090324 17.6646697 29.2821903 17.6618276 29.3314534 17.5869855 29.1647166 17.0242487 28.6521903 15.3000381 27.7597692 14.6624592 25.9502955 14.7297223 24.4667166 14.7846697 23.4085061 15.6448802 23.0731376 17.0706697 22.9490324 17.5964592 22.9992429 17.6618276 23.5591376 17.6646697 24.4089271 17.6684592 25.259664 17.6656171 26.1094534 17.6656171zM28.168085 20.3390908C26.627664 20.3390908 25.0881903 20.3362487 23.5477692 20.3400381 23.020085 20.3409855 22.9575587 20.4215118 23.0172429 20.9510908 23.2237692 22.792775 24.3132429 23.7884592 26.1710324 23.8699329 27.5892429 23.9315118 28.7488218 23.4966697 29.500085 22.2281434 29.6090324 22.0443539 29.7615587 21.9969855 29.9519797 21.9969855 30.8690324 21.9960381 31.786085 22.0017223 32.704085 21.993196 33.1171376 21.9894066 33.1569271 22.1694066 33.0422955 22.5189855 32.2133482 25.0446697 30.058085 26.7215118 27.3884008 26.9403539 25.8962955 27.0635118 24.4392429 26.9602487 23.0532429 26.3634066 20.6497692 25.330775 19.4134534 23.3924592 18.9833482 20.9018276 18.5949271 18.6556171 18.9482955 16.5230908 20.2604008 14.613196 22.6544008 11.128775 27.9975587 10.5016171 31.0926113 13.3702487 32.6074534 14.775196 33.2554534 16.6159329 33.4269271 18.6395118 33.4572429 18.9976171 33.4165061 19.3614066 33.4487166 19.7195118 33.4913482 20.1894066 33.3104008 20.3533013 32.837664 20.3466697 31.2811376 20.3248802 29.7246113 20.3381434 28.168085 20.3390908z"/>
    <path d="M89.0535587 36.8621434C88.5448218 36.8621434 88.0370324 36.861196 87.5292429 36.8630908 87.3075587 36.8640381 87.1465061 36.796775 87.1133482 36.5476171 86.9845061 35.583196 86.3365061 35.1521434 85.4639797 34.978775 84.7174534 34.8319329 83.9642955 34.8186697 83.2234534 35.0119329 82.6919797 35.1502487 82.3026113 35.4742487 82.2381903 36.0455118 82.1728218 36.6177223 82.4901903 37.0070908 82.967664 37.2770908 83.5758745 37.6200381 84.2504008 37.7649855 84.922085 37.9165645 86.1044008 38.182775 87.3028218 38.3883539 88.4481903 38.794775 89.3358745 39.1093013 90.1761903 39.5185645 90.7626113 40.299196 91.8890324 41.7979329 91.6682955 44.2715118 90.3031376 45.7418276 89.7309271 46.3585645 89.0564008 46.8208802 88.2691376 47.074775 85.8069271 47.8677223 83.3305061 47.9008802 80.9052429 46.959196 79.1374534 46.2733013 78.0669271 44.9602487 77.8007166 43.0456171 77.7258745 42.5084592 77.8101903 42.3853013 78.3473482 42.3777223 79.2644008 42.3663539 80.1824008 42.3777223 81.0994534 42.3758276 81.4746113 42.3758276 81.6934534 42.4970908 81.7502955 42.9253013 81.8365061 43.582775 82.2334534 44.0839329 82.8066113 44.3880381 83.9415587 44.9896171 85.1286113 45.0493013 86.3071376 44.5263539 86.945664 44.2430908 87.3577692 43.7713013 87.3227166 42.9982487 87.2895587 42.279196 86.8054534 41.9722487 86.2398745 41.7486697 85.1238745 41.3090908 83.9519797 41.0599329 82.7838745 40.8022487 81.9833482 40.6260381 81.1932429 40.4100381 80.4353482 40.0926697 77.9485061 39.0496171 77.272085 35.8778276 79.1042955 33.8826697 79.7087166 33.2242487 80.4429271 32.7666697 81.2889271 32.5222487 83.4830324 31.8875118 85.6885061 31.8335118 87.8617692 32.5933013 89.6058745 33.2034066 90.6915587 34.4198276 91.0174534 36.2776171 91.0941903 36.7162487 90.9767166 36.8886697 90.527664 36.868775 90.0369271 36.8479329 89.5442955 36.8640381 89.0535587 36.8640381L89.0535587 36.8621434zM49.6544008 16.3279329C49.1627166 16.3279329 48.6710324 16.3194066 48.1793482 16.330775 47.9074534 16.3374066 47.7511376 16.2455118 47.7018745 15.9622487 47.554085 15.1029855 46.9771376 14.6880381 46.175664 14.5014066 45.4613482 14.3337223 44.7479797 14.314775 44.0308218 14.4673013 43.4368218 14.5942487 43.0237692 14.9637223 42.9612429 15.4146697 42.8731376 16.0465645 43.0758745 16.4368802 43.709664 16.762775 44.7015587 17.2743539 45.8061903 17.392775 46.8719797 17.644775 47.6384008 17.8266697 48.4048218 18.0009855 49.1475587 18.2653013 51.7045061 19.1776171 52.5306113 20.9681434 51.8087166 23.505196 51.3246113 25.204775 50.0229271 26.1417223 48.3877692 26.5936171 46.3064008 27.1677223 44.1975587 27.1677223 42.1313482 26.529196 40.2252429 25.9399329 38.9301903 24.7140381 38.5493482 22.6753013 38.3968218 21.8605645 38.4602955 21.7866697 39.263664 21.7857223 40.1485061 21.7857223 41.0333482 21.7866697 41.9191376 21.7876171 42.1427166 21.7876171 42.3577692 21.8008802 42.3842955 22.0974066 42.4922955 23.3441434 43.601664 24.1342487 45.1146113 24.2270908 45.7114534 24.2630908 46.294085 24.1749855 46.8464008 23.9428802 47.5370324 23.6520381 47.9614534 23.0694066 47.9406113 22.450775 47.9169271 21.7250908 47.4186113 21.3906697 46.8284008 21.1623539 45.7701903 20.7521434 44.6646113 20.5086697 43.5618745 20.2595118 42.665664 20.0577223 41.7704008 19.8445645 40.9386113 19.4428802 38.6090324 18.3193013 38.0349271 15.3909855 39.7487166 13.4337223 40.768085 12.2703539 42.1389271 11.8800381 43.5931376 11.6754066 44.9706113 11.4821434 46.3386113 11.5569855 47.6971376 11.8506697 49.7879797 12.3035118 51.2204008 13.713196 51.5794534 15.6789855 51.6884008 16.2710908 51.6438745 16.3250908 51.0318745 16.3279329 50.5724008 16.330775 50.1138745 16.3288802 49.6544008 16.3279329zM63.4935587 16.3279329C63.0018745 16.3279329 62.5101903 16.3184592 62.0185061 16.3317223 61.7466113 16.3383539 61.5808218 16.2493013 61.540085 15.9650908 61.421664 15.1333013 60.8702955 14.7344592 60.1124008 14.5364592 59.3526113 14.3375118 58.588085 14.3214066 57.8273482 14.4957223 57.3015587 14.6169855 56.8818745 14.9068802 56.7786113 15.4762487 56.6734534 16.0588802 56.9917692 16.4501434 57.4597692 16.726775 58.1646113 17.1417223 58.9641903 17.2762487 59.7467166 17.446775 60.7395587 17.6618276 61.7352429 17.8683539 62.7034534 18.1790908 63.6830324 18.4936171 64.5962955 18.9284592 65.2319797 19.7877223 66.4351376 21.417196 65.9804008 24.1835118 64.2959797 25.557196 63.3069271 26.3634066 62.1454534 26.7158276 60.9091376 26.8854066 59.1470324 27.1260381 57.4048218 27.051196 55.7204008 26.4496171 53.7811376 25.7561434 52.5893482 24.4269855 52.3525061 22.3200381 52.3079797 21.9202487 52.4425061 21.7895118 52.8271376 21.7942487 53.8095587 21.8065645 54.7938745 21.7989855 55.7772429 21.7980381 56.0046113 21.7980381 56.201664 21.8283539 56.2442955 22.1144592 56.4375587 23.4294066 57.3271376 23.9760381 58.5293482 24.1806697 59.3639797 24.322775 60.1673482 24.2394066 60.917664 23.8415118 61.4785061 23.5430908 61.8261903 23.0713013 61.7882955 22.4138276 61.7522955 21.7800381 61.3146113 21.435196 60.7679797 21.2125645 59.6548218 20.758775 58.4819797 20.5153013 57.3157692 20.2538276 56.5313482 20.0776171 55.7554534 19.8720381 55.0108218 19.563196 52.5050324 18.5201434 51.8134534 15.5094066 53.6001903 13.4460381 54.1411376 12.8226697 54.8052429 12.3793013 55.5830324 12.129196 57.8661903 11.3940381 60.1682955 11.3428802 62.4334534 12.1557223 64.0979797 12.7525645 65.122085 13.9633013 65.4422955 15.7386697 65.5190324 16.161196 65.4366113 16.3582487 64.9686113 16.3345645 64.4778745 16.3089855 63.9852429 16.3279329 63.4935587 16.3279329zM12.6255587 19.4741434C12.6255587 18.1298276 12.6255587 16.7864592 12.6246113 15.4421434 12.6246113 14.7562487 12.623664 14.7562487 11.9150324 14.7553013 11.4887166 14.7543539 11.0624008 14.7429855 10.6370324 14.757196 10.3215587 14.7676171 10.1879797 14.6330908 10.1908218 14.3233013 10.1955587 13.6838276 10.1965061 13.0453013 10.1888488 12.4058276 10.1851376 12.0960381 10.3187166 11.9558276 10.6304008 11.9615118 11.0567166 11.9690908 11.4830324 11.9615118 11.9093482 11.9605645 12.6246113 11.9596171 12.6246113 11.9596171 12.6246113 11.2216171 12.6255587 10.2221434 12.6407166 9.22172235 12.6179797 8.22224866 12.6075587 7.78835392 12.7269271 7.60077498 13.1949271 7.61403814 14.1944008 7.64151182 15.1948218 7.6329855 16.1942955 7.61688024 16.576085 7.61119603 16.7191376 7.75330129 16.7134534 8.13509077 16.6992429 9.23403814 16.7238745 10.3320381 16.702085 11.4300381 16.6945061 11.841196 16.8432429 11.9823539 17.2458745 11.967196 17.8673482 11.9435118 18.491664 11.9766697 19.114085 11.9558276 19.5242955 11.9425645 19.6673482 12.1121434 19.654085 12.5090908 19.6332429 13.0822487 19.6322955 13.6573013 19.6531376 14.2295118 19.6682955 14.6425645 19.4939797 14.775196 19.0979797 14.7609855 18.4755587 14.7382487 17.8512429 14.7770908 17.2297692 14.7477223 16.8091376 14.7278276 16.7001903 14.8974066 16.7030324 15.2924592 16.7172429 17.4723539 16.6954534 19.6522487 16.7144008 21.8321434 16.727664 23.3763539 17.1388218 23.5146697 18.4945061 23.530775 19.6484008 23.5440381 19.6493482 23.5014066 19.6493482 24.693196 19.6484008 25.1848802 19.6427166 25.6765645 19.6493482 26.1682487 19.6531376 26.4534066 19.5697692 26.6381434 19.247664 26.6656171 17.7906113 26.788775 16.3307166 26.8768802 14.8982955 26.5026697 13.4582955 26.1256171 12.6786113 25.0986697 12.6293482 23.6046697 12.6274534 23.5563539 12.6265061 23.5061434 12.6265061 23.4568802 12.6265061 22.1296171 12.6265061 20.8014066 12.6255587 19.4741434zM42.5017692 8.23172235C42.1408218 8.23172235 41.7798745 8.21845919 41.4208218 8.23551182 41.056085 8.25256445 40.9007166 8.12372235 40.8694534 7.73624866 40.6202955 4.61088024 37.6124008 2.52572235 34.5997692 3.37266971 32.6984008 3.9069855 31.2290324 5.67193287 31.0774534 7.66519603 31.0424008 8.12466971 30.868085 8.25445919 30.4427166 8.23835392 29.8041903 8.21466971 29.1647166 8.23456445 28.5261903 8.23172235 27.8999797 8.22793287 27.8478745 8.19572235 27.8924008 7.55151182 28.0525061 5.2389855 29.0481903 3.33288024 30.8197692 1.86066971 35.4533482-1.99417239 42.9299797.34488024 43.9929271 6.99066971 44.2193482 8.40982761 44.278085 8.21088024 42.9432429 8.23172235 42.7964008 8.23456445 42.6486113 8.23172235 42.5017692 8.23172235zM38.0425061 19.2628802C38.0425061 21.5062487 38.0444008 23.7505645 38.0415587 25.9939329 38.0415587 26.6068802 38.0159797 26.6305645 37.4039797 26.6324592 36.4215587 26.6353013 35.4381903 26.6182487 34.4557692 26.6400381 34.0247166 26.6495118 33.8882955 26.4846697 33.8882955 26.0640381 33.8987166 21.543196 33.8987166 17.0233013 33.8901903 12.5024592 33.8892429 12.0998276 34.0322955 11.9482487 34.4358745 11.9558276 35.4505061 11.9728802 36.4670324 11.9757223 37.481664 11.9548802 37.9127166 11.9454066 38.0519797 12.1102487 38.0491376 12.5308802 38.0349271 14.775196 38.0425061 17.0185645 38.0425061 19.2628802z"/>
    <path d="M35.9725061 10.2031988C34.8697692 10.2013013 33.899664 9.22645919 33.9072429 8.12751182 33.9148218 7.0181434 34.889664 6.06224866 35.9933482 6.08119603 37.1102955 6.09919603 38.0472429 7.06077498 38.0349271 8.17488024 38.0245061 9.25109077 37.0534534 10.2050908 35.9725061 10.2031988zM83.5891376 57.6265645C83.2717692 59.5459329 82.8359797 61.4359329 82.4532429 63.3363539 82.2902955 64.1435118 82.1197692 64.948775 81.9606113 65.7565013 81.9198745 65.9650171 81.8384008 66.071975 81.6015587 66.0693223 80.6144008 66.0579539 79.6281903 66.0587118 78.6419797 66.0685645 78.4098745 66.0712171 78.3208218 65.9782802 78.2810324 65.7614276 77.5525061 61.8025645 76.8182955 57.8454066 76.0869271 53.8873013 76.0225061 53.536775 76.0386113 53.5159329 76.3834534 53.5149855 77.146085 53.5140381 77.9087166 53.5216171 78.6713482 53.511196 78.8939797 53.5083539 78.9991376 53.5756171 79.0332429 53.8077223 79.4775587 56.8440381 79.9294534 59.8794066 80.3027166 62.9261434 80.3121903 63.0066697 80.3178745 63.087196 80.3709271 63.1762487 80.4372429 62.8465645 80.5130324 62.518775 80.5689271 62.187196 81.041664 59.3678276 81.7512429 56.5996171 82.366085 53.8105645 82.4134534 53.5936171 82.5110324 53.5064592 82.7384008 53.511196 83.3589271 53.5235118 83.9794534 53.5235118 84.5990324 53.5102487 84.8292429 53.5055118 84.9192429 53.5955118 84.9675587 53.8105645 85.6515587 56.8449855 86.3933482 59.8670908 86.909664 62.9356171 86.9229271 63.0142487 86.9447166 63.0919329 87.0044008 63.1705645 87.1019797 62.4420381 87.2061903 61.7154066 87.2961903 60.9859329 87.5557692 58.8979329 87.8901903 56.8203539 88.1895587 54.7389855 88.2350324 54.4168802 88.2947166 54.0966697 88.3307166 53.7736171 88.3553482 53.5614066 88.4661903 53.5102487 88.6594534 53.5121434 89.3813482 53.5197223 90.1032429 53.5225645 90.8251376 53.511196 91.0894534 53.5074066 91.1292429 53.6173013 91.0885061 53.8475118 90.6773482 56.1278276 90.2737692 58.4100381 89.8682955 60.6913013 89.573664 62.3529855 89.2705061 64.012775 88.990085 65.6764487 88.9398745 65.9820697 88.8224008 66.0769013 88.5173482 66.0712171 87.5519797 66.0534066 86.585664 66.0590908 85.6193482 66.0689434 85.3948218 66.0712171 85.2868218 65.9969434 85.2432429 65.7758276 84.7117692 63.1260381 84.0182955 60.5084592 83.6365061 57.8274066 83.626085 57.759196 83.6052429 57.6928802 83.5891376 57.6265645zM105.912927 62.3283539C105.850401 61.6528802 105.796401 60.9755118 105.722506 60.3009855 105.626822 59.4199329 105.599348 58.5379329 105.603138 57.6530908 105.608822 56.3921434 105.612611 55.131196 105.599348 53.8702487 105.596506 53.5860381 105.694085 53.5036171 105.967874 53.5102487 106.648085 53.5254066 107.33019 53.5216171 108.011348 53.511196 108.241559 53.5083539 108.334401 53.5765645 108.334401 53.8228802 108.327769 57.7980381 108.328717 61.773196 108.333453 65.7481645 108.333453 65.9816908 108.263348 66.0723539 108.019874 66.0685645 107.237348 66.057196 106.453874 66.0579539 105.671348 66.0689434 105.455348 66.071975 105.342611 65.986996 105.248822 65.801596 103.834401 62.9981434 102.273138 60.268775 101.054822 57.3679329 101.035874 57.3243539 101.009348 57.2845645 100.939243 57.2542487 100.982822 57.723196 101.013138 58.1940381 101.071874 58.6620381 101.236717 59.9656171 101.267032 61.2748802 101.253769 62.5869855 101.244296 63.6139329 101.242401 64.6408802 101.257559 65.666975 101.262296 65.9635013 101.190296 66.0837223 100.869138 66.071975 100.219243 66.0481013 99.5674534 66.050375 98.9185061 66.0712171 98.6115587 66.0810697 98.5187166 65.987375 98.5196568 65.6768276 98.5310324 62.7186697 98.5262955 59.7600381 98.5262955 56.8014066 98.5262955 55.8256171 98.5348218 54.8488802 98.5206113 53.8730908 98.5168218 53.5926697 98.6087166 53.5036171 98.8862955 53.5093013 99.6489271 53.5254066 100.411559 53.5206697 101.17419 53.511196 101.384506 53.5083539 101.505769 53.5784592 101.603348 53.7679329 102.620822 55.7356171 103.659138 57.6938276 104.662401 59.6690908 105.048927 60.4288802 105.359664 61.2265645 105.705453 62.0081434 105.754717 62.1180381 105.806822 62.2279329 105.857032 62.3378276 105.875032 62.3349855 105.89398 62.331196 105.912927 62.3283539zM113.691769 57.2599329C113.75619 57.9363539 113.811138 58.6137223 113.886927 59.2882487 113.982611 60.1484592 114.011032 61.0105645 114.007243 61.8755118 114.000611 63.1459329 113.997769 64.4173013 114.011032 65.6878171 114.013874 65.9779013 113.930506 66.079175 113.633032 66.0708381 112.962296 66.0515118 112.290611 66.057575 111.619874 66.0685645 111.382085 66.0723539 111.275032 66.0128592 111.275032 65.7477855 111.281664 61.7722487 111.281664 57.7970908 111.27598 53.8219329 111.275032 53.5756171 111.368822 53.5083539 111.599032 53.511196 112.372085 53.5206697 113.145138 53.5225645 113.917243 53.5102487 114.141769 53.5064592 114.265874 53.5869855 114.366296 53.7859329 115.769348 56.571196 117.34198 59.2730908 118.529032 62.1654066 118.553664 62.2260381 118.561243 62.3065645 118.668296 62.3425645 118.623769 61.8688802 118.589664 61.4075118 118.537559 60.9470908 118.401138 59.764775 118.341453 58.5786697 118.354717 57.3878276 118.36798 56.2197223 118.367032 55.0497223 118.351874 53.8806697 118.347138 53.5765645 118.458927 53.5017223 118.741243 53.5093013 119.391138 53.5263539 120.044822 53.529196 120.689032 53.5083539 121.001664 53.4988802 121.086927 53.5955118 121.086927 53.9043539 121.077453 56.9539329 121.086927 60.0044592 121.086927 63.0540381 121.086927 63.9388802 121.077453 64.8237223 121.086927 65.7076171 121.096401 65.9901223 121.001664 66.0757645 120.717453 66.0700802 119.969032 66.0549223 119.217769 66.0564381 118.465559 66.0697013 118.229664 66.0738697 118.098927 65.9965645 117.991874 65.7837855 116.577453 62.9801434 115.018085 60.2498276 113.799769 57.3489855 113.784611 57.3139329 113.761874 57.280775 113.742927 57.2466697 113.725874 57.2514066 113.708822 57.255196 113.691769 57.2599329zM137.315348 57.514775C137.315348 58.0026697 137.315348 58.4905645 137.315348 58.9775118 137.315348 59.1357223 137.334296 59.2626697 137.533243 59.2579329 138.196401 59.2446697 138.859559 59.3005645 139.513243 59.188775 140.526927 59.0154066 141.04798 58.3730908 141.019559 57.3366697 140.991138 56.4338276 140.50798 55.984775 139.456401 55.8540381 138.831138 55.7763539 138.196401 55.8256171 137.571138 55.8038276 137.334296 55.7953013 137.315348 55.9288802 137.315348 56.1136171 137.315348 56.5806697 137.315348 57.0477223 137.315348 57.514775zM134.463769 59.7609855C134.463769 57.8084592 134.473243 55.8559329 134.463769 53.9043539 134.454296 53.5955118 134.549032 53.5055118 134.861664 53.5082891 136.36798 53.5225645 137.883769 53.5045645 139.399559 53.518775 140.422717 53.5282487 141.40798 53.7101434 142.289032 54.2510908 143.151138 54.7730908 143.624822 55.5556171 143.776401 56.524775 143.946927 57.5915118 143.880611 58.6345645 143.31219 59.5970908 142.990085 60.1475118 142.544822 60.5634066 141.995348 60.8703539 141.635348 61.0664592 141.616401 60.9755118 141.853243 61.3999329 142.658506 62.8361434 143.473243 64.2685645 144.278506 65.7019329 144.477453 66.0465855 144.46798 66.0636381 144.079559 66.064396 143.245874 66.0659118 142.41219 66.0553013 141.578506 66.0704592 141.322717 66.0750066 141.190085 65.9851013 141.076401 65.7686276 140.403769 64.4722487 139.702717 63.1857223 139.020611 61.8897223 138.897453 61.647196 138.745874 61.5117223 138.45219 61.5439329 138.215348 61.5704592 137.969032 61.5496171 137.722717 61.5496171 137.315348 61.5496171 137.315348 61.5496171 137.315348 61.9446697 137.315348 63.1753013 137.315348 64.4049855 137.315348 65.6356171 137.315348 66.0636381 137.315348 66.064396 136.870085 66.064775 136.197453 66.0651539 135.534296 66.0511329 134.861664 66.0712171 134.558506 66.0803118 134.454296 65.9901223 134.463769 65.6775855 134.473243 63.7058276 134.463769 61.7324592 134.463769 59.7609855zM123.976401 59.775196C123.976401 57.8122487 123.966927 55.8502487 123.976401 53.8873013 123.976401 53.4856171 123.976401 53.4780381 124.383769 53.4780381 126.733243 53.4761434 129.082717 53.4808802 131.43219 53.472346 131.725874 53.4714066 131.839559 53.554775 131.830085 53.871196 131.801664 54.4490908 131.811138 55.0298276 131.830085 55.6096171 131.830085 55.8644592 131.735348 55.941196 131.489032 55.9393013 130.058506 55.930775 128.62798 55.9430908 127.18798 55.9288802 126.894296 55.9260381 126.799559 56.0160381 126.809032 56.308775 126.837453 56.8876171 126.82798 57.4683539 126.818506 58.047196 126.809032 58.3257223 126.894296 58.4204592 127.178506 58.4166697 128.334296 58.4034066 129.490085 58.4109855 130.655348 58.4119329 131.07219 58.4119329 131.081664 58.4195118 131.081664 58.8344592 131.081664 59.3735118 131.07219 59.9125645 131.091138 60.4506697 131.091138 60.7225645 131.005874 60.8258276 130.721664 60.8229855 129.565874 60.808775 128.400611 60.8163539 127.244822 60.8173013 126.818506 60.8173013 126.818506 60.8182487 126.818506 61.2568802 126.818506 61.9380381 126.82798 62.619196 126.818506 63.3003539 126.809032 63.5656171 126.884822 63.6518276 127.159559 63.6499329 128.646927 63.6376171 130.124822 63.6518276 131.61219 63.6385645 131.915348 63.6357223 132.029032 63.7153013 132.010085 64.030775 131.991138 64.588775 131.991138 65.1496171 132.010085 65.7076171 132.029032 66.0223329 131.915348 66.1086402 131.61219 66.107596 129.357453 66.0988802 127.093243 66.1026697 124.838506 66.1026697 124.677453 66.1026697 124.516401 66.0913013 124.355348 66.1053223 124.061664 66.129575 123.966927 66.0227118 123.966927 65.7239118 123.976401 63.7408802 123.976401 61.7580381 123.976401 59.775196zM92.7899797 59.7903539C92.7899797 57.8293013 92.795664 55.8682487 92.7842955 53.907196 92.7824008 53.6040381 92.8638745 53.4988802 93.1774534 53.5083539 93.8879797 53.529196 94.5994534 53.5235118 95.3109271 53.5102487 95.5638745 53.5064592 95.6425061 53.5955118 95.6415671 53.8446697 95.6358745 57.8075118 95.6358745 61.7703539 95.6415671 65.7333855 95.6415671 65.9809329 95.567664 66.0734908 95.3118745 66.0689434 94.5909271 66.0560592 93.8690324 66.0534066 93.148085 66.0700802 92.8667166 66.0765223 92.7842955 65.9809329 92.7852429 65.7042066 92.7947166 63.7333013 92.7899797 61.7618276 92.7899797 59.7903539z"/>
  </g>
</svg>
