<svg xmlns="http://www.w3.org/2000/svg" xmlns:xlink="http://www.w3.org/1999/xlink" width="550" height="550" viewBox="0 0 550 550">
  <defs>
    <polyline id="wall@1x-a" points="26.35 .183 1.123 14.749 324.39 201.386 349.617 186.821"/>
  </defs>
  <g fill="none" fill-rule="evenodd" transform="translate(34 70)">
    <path fill="#3F6C9F" fill-opacity=".1" d="M125.861559 205.189324C122.521265 203.261118 118.404382 203.261118 115.064088 205.189324 106.827068 209.945324 91.2107706 218.961706 82.95735 223.726147 81.83805 224.3725 81.1485265 225.567529 81.1485265 226.859029 81.1485265 228.151735 81.83805 229.346765 82.95735 229.993118 121.409441 252.192206 352.309382 385.503344 390.6685 407.649976 394.01 409.578785 398.125676 409.578785 401.465971 407.649976 409.703353 402.894459 425.319529 393.878318 433.573794 389.113153 434.692853 388.466921 435.382618 387.272615 435.382618 385.98015 435.382618 384.687806 434.692853 383.4935 433.573794 382.847268 395.121824 360.646974 164.220676 227.336559 125.861559 205.189324zM135.804059 274.944794C132.463765 273.015382 128.348088 273.015382 125.006588 274.944794 113.438438 281.624176 86.3713235 297.250965 74.7782118 303.944215 73.6589118 304.590447 72.9693882 305.784753 72.9693882 307.077218 72.9693882 308.369682 73.6589118 309.563988 74.7782118 310.210221 89.3191029 318.605332 129.036647 341.535909 143.544618 349.912571 146.884912 351.841259 151.001794 351.841259 154.342088 349.912571 165.910118 343.23355 192.977353 327.606279 204.570706 320.913029 205.689765 320.266797 206.379529 319.072491 206.379529 317.780026 206.379529 316.487562 205.689765 315.293376 204.570706 314.647144 190.030176 306.251912 150.313235 283.320853 135.804059 274.944794z"/>
    <path stroke="#3F6C9F" stroke-linecap="round" stroke-linejoin="round" stroke-opacity=".1" stroke-width="2" d="M293.130706 365.776918C289.789206 363.848109 285.673529 363.848109 282.333235 365.776918 277.994471 368.281776 271.927676 371.784141 267.581676 374.293341 266.462618 374.939574 265.772853 376.133759 265.772853 377.426224 265.772853 378.718688 266.462618 379.912994 267.581676 380.559226 276.083147 385.467288 292.443353 394.912965 300.926735 399.811138 304.268235 401.739947 308.383912 401.739947 311.724206 399.811138 316.062971 397.306279 322.129765 393.803915 326.475765 391.294715 327.594824 390.648482 328.284588 389.454176 328.284588 388.161712 328.284588 386.869368 327.594824 385.675062 326.475765 385.028829 317.974294 380.120768 301.614088 370.675091 293.130706 365.776918zM65.1244 191.965618C61.7837441 190.037412 57.6677059 190.037412 54.32705 191.965618 45.8339 196.869941 29.4452353 206.331294 20.9349618 211.245265 19.8156618 211.891618 19.1261382 213.085441 19.1261382 214.378147 19.1261382 215.670853 19.8156618 216.864676 20.9349618 217.511029 31.2611735 223.472912 53.6251059 236.384294 63.9296118 242.334118 67.2703882 244.262324 71.3863059 244.262324 74.7270824 242.334118 83.2202324 237.429794 99.6088971 227.968441 108.119171 223.054471 109.238471 222.409324 109.927994 221.214294 109.927994 219.921588 109.927994 218.630088 109.238471 217.435059 108.119171 216.788706 97.7929588 210.826824 75.4290265 197.915441 65.1244 191.965618z"/>
    <path fill="#3F6C9F" fill-opacity=".1" d="M440.239912,286.488706 C436.898412,284.5605 432.782735,284.5605 429.442441,286.488706 C417.873206,293.167726 390.805971,308.794997 379.213824,315.488247 C378.093559,316.134479 377.405,317.328785 377.405,318.62125 C377.405,319.913715 378.093559,321.1079 379.213824,321.754132 C389.030912,327.422262 409.629794,339.315156 419.426382,344.971468 C422.767882,346.900276 426.883559,346.900276 430.223853,344.971468 C441.793088,338.292447 468.860324,322.665297 480.452471,315.972047 C481.572735,315.325815 482.261294,314.131509 482.261294,312.839044 C482.261294,311.546579 481.572735,310.352274 480.452471,309.706041 C470.635382,304.037912 450.0365,292.145138 440.239912,286.488706 Z"/>
    <polygon fill="#EFF4F7" points="114.38 13.009 89.152 27.575 412.419 214.212 437.646 199.647"/>
    <g transform="translate(88.03 12.826)">
      <mask id="wall@1x-b" fill="#fff">
        <use xlink:href="#wall@1x-a"/>
      </mask>
      <line x1="238.789" x2="272.387" y1="160.918" y2="141.52" stroke="#3F6C9F" stroke-linecap="round" stroke-linejoin="round" stroke-opacity=".2" stroke-width="2" mask="url(#wall@1x-b)"/>
      <line x1="66.264" x2="102.201" y1="59.369" y2="38.621" stroke="#3F6C9F" stroke-linecap="round" stroke-linejoin="round" stroke-opacity=".2" stroke-width="2" mask="url(#wall@1x-b)"/>
    </g>
    <polygon stroke="#01050C" stroke-linecap="round" stroke-linejoin="round" points="114.38 13.009 89.152 27.575 412.419 214.212 437.646 199.647"/>
    <line x1="270.554" x2="304.676" y1="103.177" y2="83.477" stroke="#E01A33" stroke-linecap="round" stroke-linejoin="round" stroke-width="2"/>
    <path fill="#FFF" d="M89.0800971,77.6371176 L89.0800971,27.5327059 L101.760071,34.8536176 L101.760071,14.8528529 L144.528618,39.5457059 L144.528618,59.5464706 L186.829765,83.968 L186.829765,63.9684412 L229.504735,88.6058235 L229.504735,108.606588 L271.899941,133.083588 L271.899941,113.082824 L314.574912,137.721412 L314.574912,157.722176 L356.970118,182.199176 L356.970118,162.198412 L398.958941,186.440265 L398.958941,206.441029 L412.419,214.211735 L412.419,380.891326 L127.770471,216.549941 C127.134971,216.658471 126.469324,216.546324 125.894118,216.214706 C117.103235,211.139147 96.9824853,199.521676 89.4915441,195.197382 C87.7094912,194.168765 86.6116559,192.267088 86.6116559,190.208647 C86.6116559,186.984118 86.6116559,182.054471 86.6116559,178.391 C86.6116559,177.388912 87.1461029,176.462794 88.0137353,175.962353 C88.3470412,175.769412 88.7101324,175.651235 89.0800971,175.606618 L89.0800971,133.356118 L87.7820853,132.607265 C86.0000324,131.577441 84.9021971,129.676971 84.9021971,127.618529 C84.9021971,124.394 84.9021971,119.464353 84.9021971,115.800882 C84.9021971,114.798794 85.4366441,113.872676 86.3042765,113.372235 C87.1625029,112.876618 88.21765,112.870588 89.0800971,113.355353 L89.0800971,96.965 C87.5419941,95.8953824 86.6116559,94.1335882 86.6116559,92.2391471 C86.6116559,89.0134118 86.6116559,84.0849706 86.6116559,80.4202941 C86.6116559,79.4194118 87.1461029,78.4932941 88.0137353,77.9916471 C88.3470412,77.7999118 88.7101324,77.6817353 89.0800971,77.6371176 Z"/>
    <path stroke="#01050C" stroke-linecap="round" stroke-linejoin="round" d="M89.0800971,77.6371176 L89.0800971,27.5327059 L101.760071,34.8536176 L101.760071,14.8528529 L144.528618,39.5457059 L144.528618,59.5464706 L186.829765,83.968 L186.829765,63.9684412 L229.504735,88.6058235 L229.504735,108.606588 L271.899941,133.083588 L271.899941,113.082824 L314.574912,137.721412 L314.574912,157.722176 L356.970118,182.199176 L356.970118,162.198412 L398.958941,186.440265 L398.958941,206.441029 L412.419,214.211735 L412.419,380.891326 L127.770471,216.549941 C127.134971,216.658471 126.469324,216.546324 125.894118,216.214706 C117.103235,211.139147 96.9824853,199.521676 89.4915441,195.197382 C87.7094912,194.168765 86.6116559,192.267088 86.6116559,190.208647 C86.6116559,186.984118 86.6116559,182.054471 86.6116559,178.391 C86.6116559,177.388912 87.1461029,176.462794 88.0137353,175.962353 C88.3470412,175.769412 88.7101324,175.651235 89.0800971,175.606618 L89.0800971,133.356118 L87.7820853,132.607265 C86.0000324,131.577441 84.9021971,129.676971 84.9021971,127.618529 C84.9021971,124.394 84.9021971,119.464353 84.9021971,115.800882 C84.9021971,114.798794 85.4366441,113.872676 86.3042765,113.372235 C87.1625029,112.876618 88.21765,112.870588 89.0800971,113.355353 L89.0800971,96.965 C87.5419941,95.8953824 86.6116559,94.1335882 86.6116559,92.2391471 C86.6116559,89.0134118 86.6116559,84.0849706 86.6116559,80.4202941 C86.6116559,79.4194118 87.1461029,78.4932941 88.0137353,77.9916471 C88.3470412,77.7999118 88.7101324,77.6817353 89.0800971,77.6371176 Z"/>
    <path fill="#FFF" d="M378.881,299.639094 C381.186647,300.970268 383.058176,304.212282 383.058176,306.874388 C383.058176,309.536615 381.186647,310.617326 378.881,309.286153 C376.575353,307.9551 374.703824,304.713085 374.703824,302.050859 C374.703824,299.388753 376.575353,298.308041 378.881,299.639094 Z"/>
    <path fill="#D1D9E0" d="M165.339735,54.5167353 C164.5535,54.0633235 163.585176,54.0633235 162.798941,54.5167353 C162.070588,54.9375882 161.114324,55.4898824 160.1665,56.0373529 C159.398353,56.4811176 158.924441,57.3011176 158.924441,58.1874412 C158.924441,59.0749706 159.398353,59.8949706 160.1665,60.3387353 C162.966559,61.9558235 166.636059,64.0733529 168.540147,65.1731176 C169.326382,65.6277353 170.295912,65.6277353 171.082147,65.1731176 C171.8105,64.7522647 172.765559,64.2011765 173.714588,63.6537059 C174.482735,63.2099412 174.955441,62.3899412 174.955441,61.5024118 C174.955441,60.6160882 174.482735,59.7960882 173.714588,59.3523235 C170.913324,57.7352353 167.243824,55.6165 165.339735,54.5167353 Z"/>
    <polygon fill="#FFF" points="126.442 .603 101.76 14.853 144.933 39.778 169.613 25.529"/>
    <polygon stroke="#01050C" stroke-linecap="round" stroke-linejoin="round" points="126.442 .603 101.76 14.853 144.933 39.778 169.613 25.529"/>
    <path fill="#E01A33" fill-opacity=".3" d="M153.589618,191.807647 C153.589618,189.749206 152.492265,187.847529 150.709971,186.818912 C143.219029,182.494618 123.097676,170.877147 114.307397,165.802794 C113.439765,165.301147 112.37075,165.301147 111.503118,165.802794 C110.635485,166.303235 110.101038,167.229353 110.101038,168.230235 C110.101038,171.894912 110.101038,176.823353 110.101038,180.049088 C110.101038,182.106324 111.198874,184.008 112.980926,185.036618 C120.471265,189.362118 140.592618,200.978382 149.3835,206.053941 C150.250529,206.554382 151.320147,206.554382 152.187176,206.053941 C153.055412,205.5535 153.589618,204.627382 153.589618,203.625294 C153.589618,199.961824 153.589618,195.032176 153.589618,191.807647 Z"/>
    <path fill="#EFF4F7" d="M150.269824 112.054206C150.269824 109.996971 149.172471 108.095294 147.390176 107.066676 139.899235 102.741176 119.777882 91.1249118 110.987844 86.0493529 110.120212 85.5489118 109.051318 85.5489118 108.183685 86.0493529 107.316053 86.5497941 106.781485 87.4759118 106.781485 88.478 106.781485 92.1414706 106.781485 97.0711176 106.781485 100.295647 106.781485 102.354088 107.879321 104.255765 109.661374 105.284382 117.152676 109.608676 137.272824 121.226147 146.063706 126.3005 146.931941 126.802147 148.000353 126.802147 148.868588 126.3005 149.735618 125.800059 150.269824 124.873941 150.269824 123.873059 150.269824 120.208382 150.269824 115.279941 150.269824 112.054206zM206.432588 148.418794C206.432588 146.360353 205.334029 144.458676 203.551735 143.430059 196.060794 139.105765 175.940647 127.488294 167.149765 122.412735 166.282735 121.912294 165.213118 121.912294 164.346088 122.412735 163.477853 122.914382 162.943647 123.8405 162.943647 124.841382 162.943647 128.506059 162.943647 133.4345 162.943647 136.660235 162.943647 138.717471 164.041 140.619147 165.823294 141.647765 173.314235 145.973265 193.435588 157.589529 202.225265 162.665088 203.0935 163.165529 204.161912 163.165529 205.030147 162.665088 205.897176 162.163441 206.432588 161.238529 206.432588 160.236441 206.432588 156.572971 206.432588 151.643324 206.432588 148.418794zM131.845147 54.2864118C131.845147 52.2279706 130.747794 50.3275 128.9655 49.2976765 124.736471 46.8569706 116.822385 42.2866765 111.942782 39.4697353 111.07515 38.9692941 110.006256 38.9692941 109.138624 39.4697353 108.270991 39.9713824 107.736544 40.8962941 107.736544 41.8983824 107.736544 45.5618529 107.736544 50.4915 107.736544 53.7172353 107.736544 55.7744706 108.834259 57.6761471 110.616432 58.7047647 114.844979 61.1466765 122.758824 65.7157647 127.639029 68.5327059 128.506059 69.0331471 129.575676 69.0331471 130.442706 68.5327059 131.310941 68.0322647 131.845147 67.1061471 131.845147 66.1040588 131.845147 62.4405882 131.845147 57.5109412 131.845147 54.2864118zM285.106765 168.578735C285.106765 166.520294 284.009412 164.619824 282.227118 163.59 274.736176 159.265706 254.616029 147.648235 245.825147 142.573882 244.956912 142.072235 243.8885 142.072235 243.020265 142.573882 242.153235 143.074324 241.619029 144.000441 241.619029 145.002529 241.619029 148.666 241.619029 153.595647 241.619029 156.820176 241.619029 158.878618 242.716382 160.779088 244.498676 161.808912 251.989618 166.133206 272.110971 177.750676 280.900647 182.825029 281.768882 183.326676 282.837294 183.326676 283.705529 182.825029 284.572559 182.324588 285.106765 181.398471 285.106765 180.396382 285.106765 176.732912 285.106765 171.803265 285.106765 168.578735zM382.161 231.748882C382.161 229.691647 381.062441 227.789971 379.280147 226.761353 371.789206 222.435853 351.669059 210.819588 342.878176 205.744029 342.011147 205.243588 340.941529 205.242382 340.0745 205.744029 339.206265 206.244471 338.672059 207.170588 338.672059 208.172676 338.672059 211.836147 338.672059 216.765794 338.672059 219.990324 338.672059 222.048765 339.769412 223.949235 341.551706 224.979059 349.042647 229.303353 369.164 240.920824 377.953676 245.995176 378.821912 246.496824 379.890324 246.496824 380.758559 245.995176 381.625588 245.494735 382.161 244.568618 382.161 243.566529 382.161 239.903059 382.161 234.973412 382.161 231.748882zM365.021794 324.861209C365.021794 322.803491 363.923235 320.902056 362.140941 319.873197 354.65 315.5483 334.529853 303.931432 325.738971 298.856235 324.871941 298.355312 323.802324 298.355312 322.935294 298.856235 322.067059 299.357159 321.532853 300.282915 321.532853 301.284762 321.532853 304.948594 321.532853 309.877879 321.532853 313.102891 321.532853 315.160729 322.630206 317.062165 324.4125 318.091024 331.903441 322.415921 352.024794 334.032788 360.814471 339.107865 361.682706 339.608909 362.751118 339.608909 363.619353 339.107985 364.486382 338.607062 365.021794 337.681306 365.021794 336.679459 365.021794 333.015626 365.021794 328.086221 365.021794 324.861209z"/>
    <path fill="#E01A33" fill-opacity=".2" d="M247.205882,203.8725 C247.205882,201.815265 246.108529,199.913588 244.326235,198.884971 C236.835294,194.559471 216.713941,182.943206 207.923059,177.867647 C207.056029,177.367206 205.986412,177.367206 205.119382,177.867647 C204.251147,178.369294 203.716941,179.294206 203.716941,180.296294 C203.716941,183.959765 203.716941,188.889412 203.716941,192.115147 C203.716941,194.172382 204.8155,196.074059 206.596588,197.102676 C214.087529,201.428176 234.208882,213.044441 242.999765,218.12 C243.866794,218.620441 244.936412,218.620441 245.803441,218.12 C246.671676,217.618353 247.205882,216.693441 247.205882,215.691353 C247.205882,212.027882 247.205882,207.098235 247.205882,203.8725 Z"/>
    <path stroke="#D1D9E0" stroke-linecap="round" stroke-linejoin="round" d="M237.992941 143.076735C237.992941 141.0195 236.895588 139.117824 235.113294 138.089206 227.622353 133.763706 207.502206 122.147441 198.711324 117.071882 197.843088 116.570235 196.774676 116.570235 195.906441 117.071882 195.039412 117.572324 194.505206 118.498441 194.505206 119.500529 194.505206 123.164 194.505206 128.093647 194.505206 131.318176 194.505206 133.376618 195.602559 135.277088 197.384853 136.306912 204.875794 140.631206 224.997147 152.248676 233.786824 157.323029 234.655059 157.824676 235.723471 157.824676 236.591706 157.323029 237.458735 156.822588 237.992941 155.896471 237.992941 154.894382 237.992941 151.230912 237.992941 146.301265 237.992941 143.076735zM257.452265 255.493912C257.452265 253.435471 256.353706 251.533794 254.572618 250.505176 247.081676 246.180882 226.960324 234.563412 218.169441 229.487853 217.302412 228.987412 216.232794 228.987412 215.365765 229.487853 214.497529 229.9895 213.963324 230.915618 213.963324 231.9165 213.963324 235.581176 213.963324 240.509618 213.963324 243.735353 213.963324 245.792588 215.060676 247.694265 216.842971 248.722882 224.333912 253.048382 244.455265 264.664647 253.246147 269.740206 254.113176 270.240647 255.181588 270.240647 256.049824 269.740206 256.916853 269.238559 257.452265 268.313647 257.452265 267.311559 257.452265 263.648088 257.452265 258.718441 257.452265 255.493912zM294.165353 253.167765C294.165353 251.109324 293.068 249.208853 291.285706 248.179029 283.794765 243.854735 263.673412 232.237265 254.883735 227.162912 254.0155 226.661265 252.947088 226.661265 252.078853 227.162912 251.211824 227.663353 250.676412 228.589471 250.676412 229.591559 250.676412 233.255029 250.676412 238.184676 250.676412 241.409206 250.676412 243.467647 251.774971 245.368118 253.556059 246.397941 261.047 250.722235 281.168353 262.339706 289.959235 267.414059 290.826265 267.915706 291.895882 267.915706 292.762912 267.414059 293.631147 266.913618 294.165353 265.9875 294.165353 264.985412 294.165353 261.321941 294.165353 256.392294 294.165353 253.167765zM338.511676 244.323824C338.511676 242.266588 337.414324 240.364912 335.632029 239.336294 331.703265 237.068029 324.638 232.988529 320.115941 230.377794 319.248912 229.877353 318.179294 229.877353 317.312265 230.377794 316.444029 230.879441 315.909824 231.804353 315.909824 232.806441 315.909824 236.469912 315.909824 241.399559 315.909824 244.625294 315.909824 246.682529 317.007176 248.584206 318.789471 249.612824 322.718235 251.881088 329.7835 255.960588 334.305559 258.571324 335.172588 259.071765 336.242206 259.071765 337.109235 258.571324 337.977471 258.069676 338.511676 257.144765 338.511676 256.142676 338.511676 252.478 338.511676 247.549559 338.511676 244.323824z"/>
    <path stroke="#D1D9E0" stroke-linecap="round" stroke-linejoin="round" d="M338.511676 244.323824C338.511676 242.266588 337.414324 240.364912 335.632029 239.336294 331.703265 237.068029 324.638 232.988529 320.115941 230.377794 319.248912 229.877353 318.179294 229.877353 317.312265 230.377794 316.444029 230.879441 315.909824 231.804353 315.909824 232.806441 315.909824 236.469912 315.909824 241.399559 315.909824 244.625294 315.909824 246.682529 317.007176 248.584206 318.789471 249.612824 322.718235 251.881088 329.7835 255.960588 334.305559 258.571324 335.172588 259.071765 336.242206 259.071765 337.109235 258.571324 337.977471 258.069676 338.511676 257.144765 338.511676 256.142676 338.511676 252.478 338.511676 247.549559 338.511676 244.323824zM393.593971 338.970876C393.593971 336.913159 392.496618 335.011724 390.714324 333.982865 386.785559 331.714721 379.720294 327.635341 375.198235 325.024726 374.331206 324.523803 373.261588 324.523803 372.394559 325.024726 371.526324 325.52565 370.992118 326.451406 370.992118 327.453253 370.992118 331.117085 370.992118 336.046491 370.992118 339.271382 370.992118 341.329221 372.089471 343.230656 373.871765 344.259515 377.800529 346.527538 384.865794 350.607038 389.387853 353.217653 390.256088 353.718576 391.3245 353.718576 392.191529 353.217653 393.059765 352.716729 393.593971 351.790974 393.593971 350.789126 393.593971 347.125294 393.593971 342.195888 393.593971 338.970876zM390.830088 203.417882C390.830088 201.359441 389.731529 199.457765 387.950441 198.429147 384.021676 196.160882 376.955206 192.081382 372.434353 189.470647 371.566118 188.970206 370.497706 188.970206 369.629471 189.470647 368.762441 189.972294 368.228235 190.898412 368.228235 191.899294 368.228235 195.563971 368.228235 200.492412 368.228235 203.718147 368.228235 205.775382 369.325588 207.677059 371.107882 208.705676 375.036647 210.973941 382.101912 215.053441 386.623971 217.664176 387.491 218.164618 388.560618 218.164618 389.427647 217.664176 390.295882 217.162529 390.830088 216.237618 390.830088 215.235529 390.830088 211.572059 390.830088 206.642412 390.830088 203.417882zM210.665235 103.464706C210.665235 101.407471 209.566676 99.5057941 207.784382 98.4771765 203.856824 96.2089118 196.790353 92.1294118 192.2695 89.5186765 191.401265 89.0182353 190.332853 89.0182353 189.464618 89.5186765 188.597588 90.0191176 188.062176 90.9452353 188.062176 91.9473235 188.062176 95.6107941 188.062176 100.540441 188.062176 103.764971 188.062176 105.823412 189.160735 107.725088 190.943029 108.753706 194.870588 111.021971 201.937059 115.101471 206.457912 117.712206 207.326147 118.212647 208.394559 118.212647 209.262794 117.712206 210.129824 117.210559 210.665235 116.284441 210.665235 115.283559 210.665235 111.618882 210.665235 106.690441 210.665235 103.464706zM338.511676 278.075265C338.511676 276.016824 337.414324 274.115147 335.632029 273.086529 328.492 268.964824 309.949147 258.259 301.581529 253.428235 300.713294 252.926588 299.644882 252.926588 298.776647 253.428235 297.909618 253.928676 297.375412 254.854794 297.375412 255.855676 297.375412 259.520353 297.375412 264.448794 297.375412 267.674529 297.375412 269.731765 298.472765 271.633441 300.255059 272.662059 307.395088 276.784971 325.936735 287.489588 334.305559 292.321559 335.172588 292.822482 336.242206 292.822482 337.109235 292.321559 337.977471 291.820635 338.511676 290.894879 338.511676 289.892912 338.511676 286.229441 338.511676 281.299794 338.511676 278.075265zM382.293647 269.601529C382.293647 267.543088 381.195088 265.642618 379.412794 264.612794 372.273971 260.491088 353.731118 249.785265 345.362294 244.9545 344.495265 244.452853 343.425647 244.452853 342.558618 244.9545 341.690382 245.454941 341.156176 246.381059 341.156176 247.383147 341.156176 251.046618 341.156176 255.976265 341.156176 259.200794 341.156176 261.259235 342.254735 263.159706 344.035824 264.189529 351.175853 268.311235 369.718706 279.017059 378.086324 283.847824 378.954559 284.349471 380.022971 284.349471 380.891206 283.847824 381.758235 283.347382 382.293647 282.421265 382.293647 281.419176 382.293647 277.755706 382.293647 272.826059 382.293647 269.601529zM206.020176 225.799059C206.020176 223.741824 204.922824 221.840147 203.140529 220.811529 196.0005 216.689824 177.458853 205.984 169.090029 201.152029 168.223 200.651588 167.153382 200.651588 166.286353 201.152029 165.418118 201.653676 164.883912 202.578588 164.883912 203.580676 164.883912 207.244147 164.883912 212.173794 164.883912 215.399529 164.883912 217.456765 165.981265 219.358441 167.763559 220.387059 174.903588 224.508765 193.446441 235.214588 201.814059 240.046559 202.682294 240.547 203.750706 240.547 204.618941 240.046559 205.485971 239.544912 206.020176 238.62 206.020176 237.617912 206.020176 233.953235 206.020176 229.024794 206.020176 225.799059zM199.363706 198.433971C199.363706 196.376735 198.266353 194.475059 196.484059 193.446441 189.344029 189.323529 170.801176 178.617706 162.433559 173.786941 161.565324 173.285294 160.496912 173.285294 159.628676 173.786941 158.761647 174.287382 158.227441 175.2135 158.227441 176.215588 158.227441 179.879059 158.227441 184.808706 158.227441 188.033235 158.227441 190.091676 159.324794 191.992147 161.107088 193.021971 168.247118 197.143676 186.788765 207.8495 195.157588 212.680265 196.024618 213.181912 197.094235 213.181912 197.961265 212.680265 198.8295 212.179824 199.363706 211.253706 199.363706 210.251618 199.363706 206.588147 199.363706 201.6585 199.363706 198.433971zM123.118176 72.9197059C123.118176 70.8624706 122.019618 68.9607941 120.237324 67.9321765 116.309403 65.6639118 109.243535 61.5844118 104.721959 58.9736765 103.854326 58.4732353 102.785312 58.4732353 101.917679 58.9736765 101.050047 59.4753235 100.5156 60.4002353 100.5156 61.4023235 100.5156 65.0657941 100.5156 69.9954412 100.5156 73.2211765 100.5156 75.2784118 101.613435 77.1800882 103.395488 78.2087059 107.323891 80.4769706 114.389759 84.5564706 118.910853 87.1672059 119.779088 87.6676471 120.8475 87.6676471 121.715735 87.1672059 122.582765 86.6655588 123.118176 85.7406471 123.118176 84.7385588 123.118176 81.0750882 123.118176 76.1454412 123.118176 72.9197059zM297.375412 200.573206C297.375412 198.515971 296.276853 196.614294 294.495765 195.585676 287.004824 191.260176 266.883471 179.643912 258.092588 174.568353 257.225559 174.067912 256.155941 174.067912 255.288912 174.568353 254.420676 175.068794 253.886471 175.994912 253.886471 176.997 253.886471 180.660471 253.886471 185.590118 253.886471 188.814647 253.886471 190.873088 254.983824 192.774765 256.766118 193.803382 264.257059 198.127676 284.378412 209.745147 293.169294 214.8195 294.036324 215.321147 295.104735 215.321147 295.972971 214.8195 296.84 214.319059 297.375412 213.392941 297.375412 212.392059 297.375412 208.727382 297.375412 203.797735 297.375412 200.573206zM145.248529 149.109765C145.248529 147.052529 144.151176 145.150853 142.368882 144.122235 134.877941 139.796735 114.756829 128.180471 105.966429 123.104912 105.098797 122.604471 104.029782 122.604471 103.16215 123.104912 102.294518 123.605353 101.760071 124.531471 101.760071 125.533559 101.760071 129.197029 101.760071 134.126676 101.760071 137.351206 101.760071 139.409647 102.857785 141.310118 104.639959 142.339941 112.1309 146.664235 132.251529 158.281706 141.042412 163.356059 141.909441 163.857706 142.979059 163.857706 143.846088 163.356059 144.714324 162.855618 145.248529 161.9295 145.248529 160.927412 145.248529 157.263941 145.248529 152.334294 145.248529 149.109765z"/>
    <path fill="#FFF" d="M228.781206,194.338794 C231.086853,195.670088 232.958382,198.9115 232.958382,201.574088 C232.958382,204.236676 231.086853,205.317147 228.781206,203.985853 C226.475559,202.654559 224.604029,199.413147 224.604029,196.750559 C224.604029,194.087971 226.475559,193.0075 228.781206,194.338794 Z"/>
    <path stroke="#E01A33" stroke-linecap="round" stroke-linejoin="round" stroke-opacity=".2" d="M228.781206,183.259147 C236.381882,187.647353 242.553588,198.336294 242.553588,207.113912 C242.553588,215.891529 236.381882,219.454912 228.781206,215.0655 C221.179324,210.677294 215.007618,199.988353 215.007618,191.210735 C215.007618,182.433118 221.179324,178.869735 228.781206,183.259147 Z"/>
    <path stroke="#E01A33" stroke-linecap="round" stroke-linejoin="round" stroke-opacity=".5" d="M228.781206,192.341853 C232.040706,194.224235 234.687618,198.807794 234.687618,202.572559 C234.687618,206.336118 232.040706,207.865176 228.781206,205.982794 C225.521706,204.100412 222.874794,199.516853 222.874794,195.752088 C222.874794,191.988529 225.521706,190.460676 228.781206,192.341853 Z"/>
    <path fill="#FFF" d="M128.011647,178.916765 C130.316088,180.248059 132.188824,183.490676 132.188824,186.152059 C132.188824,188.814647 130.316088,189.895118 128.011647,188.563824 C125.706,187.233735 123.833265,183.991118 123.833265,181.328529 C123.833265,178.667147 125.706,177.586676 128.011647,178.916765 Z"/>
    <path stroke="#E01A33" stroke-linecap="round" stroke-linejoin="round" stroke-opacity=".2" d="M128.011647,168.239882 C135.419382,172.518353 141.434324,182.935971 141.434324,191.4905 C141.434324,200.046235 135.419382,203.517971 128.011647,199.240706 C120.602706,194.963441 114.587524,184.545824 114.587524,175.990088 C114.587524,167.435559 120.602706,163.962618 128.011647,168.239882 Z"/>
    <path stroke="#E01A33" stroke-linecap="round" stroke-linejoin="round" stroke-opacity=".5" d="M128.011647,176.921029 C131.271147,178.802206 133.918059,183.386971 133.918059,187.150529 C133.918059,190.915294 131.271147,192.443147 128.011647,190.560765 C124.750941,188.678382 122.105235,184.094824 122.105235,180.331265 C122.105235,176.5665 124.750941,175.038647 128.011647,176.921029 Z"/>
    <path stroke="#E01A33" stroke-linecap="round" stroke-linejoin="round" stroke-width="2" d="M6.81793824 230.515265C6.81793824 230.515265 23.85585 220.678882 32.1688412 215.879471 34.9264529 214.2865 38.3240265 214.2865 41.0816382 215.879471 44.2568471 217.712412 48.5470147 220.189294 51.9471206 222.152471 55.3905176 224.139765 59.6329324 224.139765 63.0763294 222.152471 79.8099971 212.490941 128.525353 184.364941 128.525353 184.364941M57.5117853 273.600235C57.5117853 273.600235 113.776688 241.114971 128.964294 232.347 131.277176 231.010882 134.127882 231.010882 136.441971 232.347 139.755735 234.260735 144.638353 237.078882 148.393471 239.247059 151.784412 241.204206 155.961588 241.204206 159.352529 239.247059 176.623176 229.275618 228.781206 199.162324 228.781206 199.162324"/>
    <line x1="418.79" x2="454.355" y1="168.655" y2="148.121" stroke="#E01A33" stroke-linecap="round" stroke-linejoin="round" stroke-width="2"/>
    <line x1="313.371" x2="389.266" y1="108.603" y2="64.786" stroke="#E01A33" stroke-linecap="round" stroke-linejoin="round" stroke-width="2"/>
    <line x1="232.255" x2="266.377" y1="61.771" y2="42.071" stroke="#E01A33" stroke-linecap="round" stroke-linejoin="round" stroke-width="2"/>
    <path stroke="#E01A33" stroke-linecap="round" stroke-linejoin="round" stroke-width="2" d="M232.359059 261.8875C232.359059 261.8875 290.653824 228.231324 306.3725 219.155853 308.764971 217.773912 310.238559 215.222265 310.238559 212.460794 310.238559 205.069941 310.238559 190.370235 310.238559 182.908235 310.238559 180.078029 311.748324 177.463676 314.198676 176.049176 324.903294 169.869029 354.388324 152.845588 366.010618 146.134853 367.000647 145.564471 368.219794 145.564471 369.209824 146.134853 370.199853 146.706441 370.808824 147.762794 370.808824 148.905971 370.808824 152.676765 370.808824 156.984176 370.808824 156.984176M203.716941 54.1296471C203.716941 54.1296471 203.716941 47.4273529 203.716941 42.0756471 203.716941 40.7298824 202.999441 39.4878235 201.834559 38.8149412 200.670882 38.1432647 199.235882 38.1432647 198.071 38.8149412 185.269353 46.2057941 154.202206 64.1420882 141.960088 71.2109706 138.816353 73.0258235 136.880912 76.3793824 136.880912 80.0090882 136.880912 91.4734118 136.880912 116.625706 136.880912 126.851588 136.880912 129.608235 135.409735 132.155059 133.022088 133.533382 120.406147 140.816912 80.5278588 163.840824 69.0098735 170.491265 67.0646647 171.613941 64.6679735 171.613941 62.7227647 170.491265 59.7802912 168.792176 55.4019735 166.264647 52.4210324 164.543853 50.4013 163.377765 47.9129618 163.377765 45.8932294 164.543853 40.0187735 167.934794 28.2705853 174.717882 28.2705853 174.717882"/>
    <line x1="437.985" x2="457.635" y1="276.207" y2="264.862" stroke="#E01A33" stroke-linecap="round" stroke-linejoin="round" stroke-width="2"/>
    <line x1="393.784" x2="423.026" y1="154.624" y2="137.742" stroke="#E01A33" stroke-linecap="round" stroke-linejoin="round" stroke-width="2"/>
    <path stroke="#E01A33" stroke-linecap="round" stroke-linejoin="round" stroke-width="2" d="M23.0489941 174.717882C24.4900235 173.885824 26.8296765 173.885824 28.2705853 174.717882 29.7116147 175.549941 29.7116147 176.900529 28.2705853 177.732588 26.8296765 178.564647 24.4900235 178.564647 23.0489941 177.732588 21.6080853 176.900529 21.6080853 175.549941 23.0489941 174.717882zM1.08179706 231.372647C2.52270588 230.541794 4.86247941 230.541794 6.30338824 231.372647 7.74441765 232.204706 7.74441765 233.5565 6.30338824 234.387353 4.86247941 235.219412 2.52270588 235.219412 1.08179706 234.387353-.359111765 233.5565-.359111765 232.204706 1.08179706 231.372647zM52.1879353 273.541147C53.6289647 272.709088 55.9686176 272.709088 57.4096471 273.541147 58.8505559 274.373206 58.8505559 275.723794 57.4096471 276.555853 55.9686176 277.387912 53.6289647 277.387912 52.1879353 276.555853 50.7470265 275.723794 50.7470265 274.373206 52.1879353 273.541147zM227.137588 261.929706C228.578618 261.097647 230.918029 261.097647 232.359059 261.929706 233.800088 262.761765 233.800088 264.112353 232.359059 264.944412 230.918029 265.776471 228.578618 265.776471 227.137588 264.944412 225.696559 264.112353 225.696559 262.761765 227.137588 261.929706z"/>
    <polygon fill="#FFF" points="212.011 49.676 187.043 64.091 229.599 88.66 254.565 74.246"/>
    <polygon stroke="#01050C" stroke-linecap="round" stroke-linejoin="round" points="212.011 49.676 187.043 64.091 229.599 88.66 254.565 74.246"/>
    <polygon fill="#D1D9E0" points="254.684 74.177 229.599 88.66 229.599 108.661 254.684 94.178"/>
    <polygon stroke="#01050C" stroke-linecap="round" stroke-linejoin="round" points="254.684 74.177 229.599 88.66 229.599 108.661 254.684 94.178"/>
    <path fill="#E01A33" d="M271.174 38.2843529C271.488735 38.2735 271.792618 38.3989118 272.008471 38.6292353 272.224324 38.8595588 272.330441 39.1718824 272.299088 39.4854118 272.126647 41.2496176 271.814324 44.4367647 271.663588 45.9790882 271.644294 46.1732353 271.528529 46.3432647 271.356088 46.4325 271.182441 46.5217353 270.977441 46.5157059 270.808618 46.4192353 268.705559 45.2049118 262.797941 41.7934706 259.603559 39.9496765 259.334647 39.7941176 259.200794 39.4793824 259.276765 39.1779118 259.352735 38.8764412 259.619235 38.6605882 259.929147 38.6509412 263.150059 38.5460294 268.703147 38.3639412 271.174 38.2843529zM391.435441 62.5153529C391.750176 62.5057059 392.054059 62.6311176 392.269912 62.8614412 392.485765 63.0917647 392.591882 63.4028824 392.560529 63.7164118 392.388088 65.4806176 392.075765 68.6689706 391.925029 70.2112941 391.905735 70.4042353 391.789971 70.5754706 391.617529 70.6647059 391.445088 70.7527353 391.238882 70.7479118 391.070059 70.6502353 388.967 69.4359118 383.059382 66.0256765 379.866206 64.1818824 379.596088 64.0263235 379.462235 63.7115882 379.538206 63.4089118 379.614176 63.1074412 379.880676 62.8927941 380.191794 62.8831471 383.412706 62.7770294 388.964588 62.5961471 391.435441 62.5153529zM311.089912 79.2397353C311.404647 79.2300882 311.709735 79.3555 311.925588 79.5858235 312.140235 79.8161471 312.246353 80.1272647 312.216206 80.442 312.042559 82.205 311.731441 85.3933529 311.5795 86.9356765 311.561412 87.1286176 311.445647 87.2998529 311.272 87.3890882 311.099559 87.4771176 310.893353 87.4722941 310.724529 87.3758235 308.621471 86.1602941 302.713853 82.7500588 299.520676 80.9062647 299.251765 80.7507059 299.117912 80.4359706 299.192676 80.1345 299.268647 79.8318235 299.535147 79.6171765 299.846265 79.6075294 303.067176 79.5014118 308.620265 79.3205294 311.089912 79.2397353zM426.508529 134.712735C426.823265 134.703088 427.127147 134.8285 427.343 135.058824 427.558853 135.289147 427.664971 135.601471 427.633618 135.915 427.461176 137.679206 427.148853 140.866353 426.998118 142.408676 426.978824 142.602824 426.863059 142.772853 426.690618 142.862088 426.516971 142.950118 426.310765 142.945294 426.143147 142.848824 424.038882 141.6345 418.132471 138.223059 414.938088 136.379265 414.669176 136.223706 414.535324 135.908971 414.611294 135.6075 414.687265 135.306029 414.953765 135.090176 415.263676 135.080529 418.484588 134.975618 424.037676 134.793529 426.508529 134.712735zM460.515618 143.362529C460.830353 143.352882 461.134235 143.478294 461.350088 143.708618 461.565941 143.938941 461.672059 144.250059 461.640706 144.564794 461.468265 146.329 461.155941 149.516147 461.005206 151.058471 460.985912 151.252618 460.870147 151.422647 460.697706 151.511882 460.524059 151.599912 460.317853 151.595088 460.150235 151.498618 458.047176 150.284294 452.139559 146.872853 448.945176 145.029059 448.676265 144.8735 448.542412 144.558765 448.618382 144.257294 448.694353 143.954618 448.960853 143.739971 449.270765 143.730324 452.491676 143.625412 458.044765 143.443324 460.515618 143.362529z"/>
    <path fill="#D1D9E0" d="M257.240029,107.575559 C256.453794,107.122147 255.485471,107.122147 254.699235,107.575559 C253.970882,107.996412 253.014618,108.548706 252.066794,109.096176 C251.298647,109.539941 250.824735,110.358735 250.824735,111.246265 C250.824735,112.133794 251.298647,112.953794 252.066794,113.397559 C254.866853,115.013441 258.536353,117.132176 260.441647,118.231941 C261.226676,118.685353 262.196206,118.685353 262.982441,118.231941 C263.710794,117.811088 264.665853,117.26 265.614882,116.712529 C266.383029,116.268765 266.856941,115.448765 266.856941,114.561235 C266.856941,113.674912 266.383029,112.854912 265.614882,112.411147 C262.813618,110.794059 259.144118,108.675324 257.240029,107.575559 Z"/>
    <path fill="#E01A33" d="M461.617794,261.546235 C461.932529,261.535382 462.236412,261.662 462.452265,261.891118 C462.668118,262.121441 462.774235,262.433765 462.742882,262.747294 C462.570441,264.5115 462.258118,267.699853 462.107382,269.242176 C462.088088,269.435118 461.972324,269.605147 461.799882,269.694382 C461.626235,269.783618 461.420029,269.778794 461.252412,269.681118 C459.148147,268.466794 453.241735,265.056559 450.047353,263.212765 C449.778441,263.057206 449.644588,262.741265 449.720559,262.439794 C449.796529,262.138324 450.061824,261.922471 450.372941,261.912824 C453.593853,261.807912 459.146941,261.627029 461.617794,261.546235 Z"/>
    <polygon fill="#D1D9E0" points="424.108 171.995 398.959 186.514 398.959 206.378 424.108 191.859"/>
    <polygon stroke="#01050C" stroke-linecap="round" stroke-linejoin="round" points="424.108 171.995 398.959 186.514 398.959 206.378 424.108 191.859"/>
    <polygon fill="#D1D9E0" points="437.641 199.449 412.556 213.932 412.556 382.441 437.641 367.959"/>
    <polygon stroke="#01050C" stroke-linecap="round" stroke-linejoin="round" points="437.641 199.449 412.556 213.932 412.556 382.441 437.641 367.959"/>
    <polygon fill="#D1D9E0" points="339.66 123.235 314.575 137.718 314.575 157.545 339.66 143.062"/>
    <polygon stroke="#01050C" stroke-linecap="round" stroke-linejoin="round" points="339.66 123.235 314.575 137.718 314.575 157.545 339.66 143.062"/>
    <polygon fill="#D1D9E0" points="169.613 25.237 144.529 39.719 144.529 59.546 169.613 45.063"/>
    <polygon stroke="#01050C" stroke-linecap="round" stroke-linejoin="round" points="169.613 25.237 144.529 39.719 144.529 59.546 169.613 45.063"/>
    <polygon fill="#FFF" points="296.988 98.599 271.9 113.083 314.571 137.72 339.66 123.235"/>
    <polygon stroke="#01050C" stroke-linecap="round" stroke-linejoin="round" points="296.988 98.599 271.9 113.083 314.571 137.72 339.66 123.235"/>
    <polygon fill="#FFF" points="381.937 147.783 356.97 162.198 399.023 186.478 423.989 172.063"/>
    <polygon stroke="#01050C" stroke-linecap="round" stroke-linejoin="round" points="381.937 147.783 356.97 162.198 399.023 186.478 423.989 172.063"/>
    <path fill="#B1BBC9" d="M432.7755 241.893971C432.7755 241.463471 432.545176 241.065529 432.172559 240.849676 431.799941 240.635029 431.339294 240.635029 430.966676 240.849676 428.626059 242.201471 424.576706 244.539676 422.266235 245.873382 421.183353 246.498029 420.517706 247.653265 420.517706 248.902559 420.517706 253.675441 420.517706 265.614882 420.517706 270.4565 420.517706 270.887 420.746824 271.284941 421.120647 271.500794 421.493265 271.715441 421.952706 271.715441 422.326529 271.500794 424.665941 270.149 428.7165 267.810794 431.026971 266.477088 432.108647 265.852441 432.7755 264.698412 432.7755 263.449118 432.7755 258.676235 432.7755 246.735588 432.7755 241.893971zM429.154235 324.373188C429.154235 323.942326 428.925118 323.544265 428.551294 323.328894 428.178676 323.113403 427.719235 323.113403 427.345412 323.328894 425.004794 324.680085 420.955441 327.018291 418.644971 328.352359 417.563294 328.977006 416.896441 330.131518 416.896441 331.380932 416.896441 333.760379 416.896441 337.694691 416.896441 340.104044 416.896441 340.534785 417.125559 340.932968 417.499382 341.148338 417.872 341.363709 418.331441 341.363709 418.705265 341.148338 421.045882 339.797147 425.095235 337.458821 427.405706 336.124874 428.487382 335.500226 429.154235 334.345715 429.154235 333.0963 429.154235 330.716732 429.154235 326.782541 429.154235 324.373188zM414.534118 183.127706C414.534118 182.696 414.303794 182.298059 413.931176 182.083412 413.557353 181.867559 413.097912 181.867559 412.725294 182.083412 410.384676 183.434 406.335324 185.772206 404.024853 187.105912 402.941971 187.731765 402.276324 188.885794 402.276324 190.135088 402.276324 192.514294 402.276324 196.449088 402.276324 198.858441 402.276324 199.288941 402.505441 199.686882 402.879265 199.902735 403.251882 200.117382 403.711324 200.117382 404.085147 199.902735 406.424559 198.550941 410.475118 196.212735 412.785588 194.879029 413.867265 194.254382 414.534118 193.100353 414.534118 191.851059 414.534118 189.470647 414.534118 185.537059 414.534118 183.127706zM337.117676 130.517471C337.117676 130.086971 336.887353 129.689029 336.514735 129.473176 336.140912 129.258529 335.681471 129.258529 335.308853 129.473176 332.968235 130.824971 328.917676 133.163176 326.607206 134.496882 325.525529 135.121529 324.858676 136.276765 324.858676 137.526059 324.858676 137.851647 324.858676 138.1905 324.858676 138.5185 324.858676 138.949 325.089 139.346941 325.461618 139.562794 325.835441 139.777441 326.294882 139.777441 326.6675 139.562794 329.008118 138.211 333.057471 135.872794 335.369147 134.539088 336.450824 133.914441 337.117676 132.759206 337.117676 131.509912 337.117676 131.184324 337.117676 130.845471 337.117676 130.517471zM159.719118 42.9511176C159.719118 42.5206176 159.488794 42.1226765 159.116176 41.9068235 158.742353 41.6909706 158.282912 41.6909706 157.910294 41.9068235 155.569676 43.2574118 151.519118 45.5968235 149.208647 46.9305294 148.126971 47.5551765 147.460118 48.7092059 147.460118 49.9585 147.460118 50.2852941 147.460118 50.6229412 147.460118 50.9509412 147.460118 51.3826471 147.690441 51.7805882 148.063059 51.9952353 148.436882 52.2110882 148.896324 52.2110882 149.268941 51.9952353 151.609559 50.6446471 155.660118 48.3064412 157.970588 46.9727353 159.052265 46.3480882 159.719118 45.1928529 159.719118 43.9435588 159.719118 43.6179706 159.719118 43.2791176 159.719118 42.9511176zM241.619029 89.5307353C241.619029 89.1002353 241.388706 88.7010882 241.016088 88.4864412 240.642265 88.2705882 240.182824 88.2705882 239.810206 88.4864412 238.154529 89.4415 235.721059 90.8463529 234.085882 91.7917647 233.003 92.4164118 232.337353 93.5704412 232.336147 94.8197353 232.336147 96.5477647 232.336147 99.0258529 232.336147 100.773176 232.337353 101.203676 232.566471 101.602824 232.940294 101.817471 233.312912 102.033324 233.772353 102.033324 234.146176 101.817471 235.800647 100.862412 238.234118 99.4575588 239.8705 98.5121471 240.952176 97.8875 241.619029 96.7334706 241.619029 95.4841765 241.619029 93.7561471 241.619029 91.2780588 241.619029 89.5307353z"/>
    <path fill="#FFF" d="M336.972971,358.060356 C339.335294,356.696503 343.171206,356.696503 345.533529,358.060356 C347.895853,359.424209 347.895853,361.638812 345.533529,363.002665 C343.171206,364.366518 339.335294,364.366518 336.972971,363.002665 C334.610647,361.638812 334.610647,359.424209 336.972971,358.060356 Z"/>
    <path stroke="#E01A33" stroke-linecap="round" stroke-linejoin="round" stroke-opacity=".5" d="M334.463529,356.571694 C338.2295,354.397126 344.345735,354.397126 348.111706,356.571694 C351.877676,358.746141 351.877676,362.277085 348.111706,364.451653 C344.345735,366.626221 338.2295,366.626221 334.463529,364.451653 C330.696353,362.277085 330.696353,358.746141 334.463529,356.571694 Z"/>
    <path stroke="#E01A33" stroke-linecap="round" stroke-linejoin="round" stroke-opacity=".1" d="M327.710588,353.346682 C335.203941,349.020579 347.370088,349.020579 354.863441,353.346682 C362.356794,357.672665 362.356794,364.69705 354.863441,369.023153 C347.370088,373.349135 335.203941,373.349135 327.710588,369.023153 C320.218441,364.69705 320.218441,357.672665 327.710588,353.346682 Z"/>
    <path stroke="#E01A33" stroke-linecap="round" stroke-linejoin="round" stroke-width="2" d="M276.625794,349.437574 C276.625794,349.437574 316.470559,326.433318 333.127412,316.816526 C334.609441,315.960953 336.435147,315.960953 337.917176,316.816526 C339.398,317.6721 340.310853,319.253253 340.310853,320.964279 C340.310853,334.756438 340.310853,360.903947 340.310853,360.903947"/>
    <path stroke="#E01A33" stroke-linecap="round" stroke-linejoin="round" stroke-width="2" d="M270.889412,349.140565 C272.330441,348.308626 274.671059,348.308626 276.112088,349.140565 C277.551912,349.972503 277.551912,351.323332 276.112088,352.155271 C274.671059,352.987209 272.330441,352.987209 270.889412,352.155271 C269.448382,351.323332 269.448382,349.972503 270.889412,349.140565 Z"/>
    <path fill="#E01A33" fill-opacity=".2" d="M299.934294,284.968088 C299.934294,282.910853 298.835735,281.009176 297.053441,279.980559 C291.296559,276.657147 278.347794,269.180676 271.639471,265.307382 C270.771235,264.806941 269.702824,264.806941 268.834588,265.307382 C267.967559,265.807824 267.432147,266.733941 267.432147,267.736029 C267.432147,271.3995 267.432147,276.329147 267.432147,279.553676 C267.432147,281.612118 268.530706,283.513794 270.313,284.542412 C276.069882,287.865824 289.018647,295.342415 295.726971,299.215347 C296.595206,299.716271 297.663618,299.716271 298.531853,299.215347 C299.398882,298.714424 299.934294,297.788668 299.934294,296.786821 C299.934294,293.122988 299.934294,288.193824 299.934294,284.968088 Z"/>
    <path fill="#FFF" d="M283.400441,278.153647 C285.706088,279.484941 287.577618,282.726353 287.577618,285.388941 C287.577618,288.050324 285.706088,289.132 283.400441,287.800706 C281.094794,286.469412 279.223265,283.226794 279.223265,280.565412 C279.223265,277.902824 281.094794,276.822353 283.400441,278.153647 Z"/>
    <path stroke="#E01A33" stroke-linecap="round" stroke-linejoin="round" stroke-opacity=".2" d="M283.400441,267.410441 C290.840735,271.705794 296.881,282.169235 296.881,290.759941 C296.881,299.35125 290.840735,302.838662 283.400441,298.543068 C275.960147,294.247474 269.919882,283.785118 269.919882,275.193206 C269.919882,266.6025 275.960147,263.115088 283.400441,267.410441 Z"/>
    <path stroke="#E01A33" stroke-linecap="round" stroke-linejoin="round" stroke-opacity=".5" d="M283.400441,272.451029 C287.854971,275.023176 291.471412,281.286529 291.471412,286.430824 C291.471412,291.574997 287.854971,293.663103 283.400441,291.091076 C278.945912,288.519412 275.328265,282.254853 275.328265,277.110559 C275.328265,271.967471 278.945912,269.878882 283.400441,272.451029 Z"/>
    <path stroke="#E01A33" stroke-linecap="round" stroke-linejoin="round" stroke-width="2" d="M202.626824 348.353726C202.626824 348.353726 227.328118 334.091997 240.509618 326.481915 242.173735 325.521188 243.198735 323.745768 243.198735 321.824315 243.198735 319.902862 242.173735 318.127441 240.509618 317.166715 239.625706 316.656626 238.738176 316.144006 237.885618 315.651765 236.643559 314.935109 235.879029 313.610568 235.879029 312.177256 235.879029 310.743944 236.643559 309.419403 237.885618 308.702747 251.538618 300.820256 283.683824 282.260882 283.683824 282.260882M198.083059 348.745156C199.522882 347.913218 201.8635 347.913218 203.304529 348.745156 204.745559 349.576974 204.745559 350.927924 203.304529 351.759862 201.8635 352.591679 199.522882 352.591679 198.083059 351.759862 196.642029 350.927924 196.642029 349.576974 198.083059 348.745156z"/>
  </g>
</svg>
