<svg xmlns="http://www.w3.org/2000/svg" xmlns:xlink="http://www.w3.org/1999/xlink" width="335" height="335" viewBox="0 0 335 335">
  <defs>
    <path id="zero-day-threats@1x-a" d="M0.1475,4.214 C0.1475,4.214 7.6633,1.247 7.7677,1.187 C9.0843,0.427 10.7064,0.427 12.023,1.187 C35.0429,14.477 113.267,59.64 129.031,68.741 C130.752,69.735 131.813,71.572 131.813,73.559 C131.813,90.564 131.813,170.2358 131.813,195.0099 C131.813,196.5302 131.002,197.935 129.685,198.6951 C129.639,198.7214 119.843,202.585 119.843,202.585 L113.444,191.7752 L8.4216,131.1405 C6.7004,130.1468 5.64,128.3102 5.64,126.3226 L5.64,13.306 L0.1475,4.214 Z"/>
    <path id="zero-day-threats@1x-c" d="M126.377,73.827 C126.377,72.081 125.446,70.468 123.933,69.595 C108.815,60.866 27.9527,14.18 5.8125,1.397 C4.6558,0.73 3.2306,0.73 2.0739,1.397 C0.9172,2.065 0.2046,3.3 0.2046,4.635 C0.2046,28.505 0.2046,111.036 0.2046,127.3708 C0.2046,129.117 1.1362,130.7306 2.6485,131.6037 C17.7671,140.3325 98.629,187.0182 120.769,199.8008 C121.926,200.4687 123.351,200.4687 124.508,199.8008 C125.665,199.133 126.377,197.8988 126.377,196.5631 C126.377,172.6929 126.377,90.162 126.377,73.827 Z"/>
    <path id="zero-day-threats@1x-e" d="M108.825,67.394 C108.825,63.518 106.757,59.936 103.4,57.998 C84.76,47.236 23.479,11.855 5.337,1.381 C4.2842,0.773 2.9872,0.773 1.9345,1.381 C0.8818,1.989 0.2333,3.112 0.2333,4.328 C0.2333,26.386 0.2333,103.965 0.2333,126.6323 C0.2333,130.5083 2.3011,134.0898 5.6578,136.0278 C24.2985,146.7901 85.579,182.1705 103.721,192.6448 C104.774,193.2526 106.071,193.2526 107.124,192.6448 C108.176,192.037 108.825,190.9137 108.825,189.6981 C108.825,167.6403 108.825,90.061 108.825,67.394 Z"/>
    <path id="zero-day-threats@1x-g" d="M116.621,59.055 C116.745,54.832 114.407,50.921 110.628,49.032 C91.108,39.272 31.1806,9.312 14.1795,0.812 C13.1647,0.304 11.9639,0.336 10.9774,0.897 C9.9909,1.457 9.3487,2.472 9.2648,3.604 C7.8064,23.276 2.5138,94.673 0.851,117.1038 C0.5431,121.2566 2.6395,125.2193 6.2458,127.3014 C26.0011,138.7071 89.619,175.4369 107.866,185.9717 C108.903,186.5706 110.179,186.5799 111.225,185.9964 C112.271,185.4129 112.933,184.3224 112.968,183.1252 C113.611,161.2815 115.919,82.892 116.621,59.055 Z"/>
    <path id="zero-day-threats@1x-i" d="M116.211,60.029 C116.333,55.891 114.089,52.044 110.428,50.113 C91.575,40.17 33.6698,9.633 17.1077,0.898 C16.1066,0.37 14.9084,0.375 13.9112,0.91 C12.914,1.446 12.2483,2.442 12.1351,3.568 C10.1561,23.268 2.924,95.259 0.6335,118.0592 C0.207,122.3046 2.3086,126.4058 6.0037,128.5392 C25.9541,140.0576 89.257,176.6056 107.451,187.1099 C108.488,187.7088 109.764,187.7182 110.81,187.1346 C111.856,186.5511 112.518,185.4606 112.553,184.2634 C113.198,162.3692 115.515,83.667 116.211,60.029 Z"/>
    <path id="zero-day-threats@1x-k" d="M115.889,61.882 C116.124,57.749 113.986,53.843 110.379,51.813 C92.084,41.516 36.5292,10.246 20.4419,1.191 C19.4548,0.636 18.2559,0.608 17.244,1.117 C16.2321,1.626 15.5398,2.605 15.3975,3.729 C12.8765,23.629 3.58,97.015 0.6708,119.9795 C0.137,124.193 2.111,128.3304 5.7218,130.5666 C25.0228,142.5192 85.8427,180.1835 103.522,191.1319 C104.542,191.7636 105.82,191.8113 106.884,191.2574 C107.948,190.7035 108.642,189.6299 108.71,188.4319 C109.969,166.2396 114.532,85.798 115.889,61.882 Z"/>
    <path id="zero-day-threats@1x-m" d="M128.111,67.869 C128.383,63.746 126.289,59.826 122.711,57.76 C103.454,46.641 42.1726,11.261 24.6677,1.154 C23.6528,0.569 22.4081,0.546 21.3729,1.095 C20.3378,1.644 19.658,2.687 19.5735,3.856 C16.4998,45.919 11.247,86.527 0.7843,123.6607 C-0.5773,128.3842 1.4096,133.4326 5.6254,135.9609 C26.907,148.7333 89.1218,186.0457 105.073,195.6122 C105.976,196.1543 107.08,196.2474 108.061,195.8641 C109.043,195.4808 109.791,194.6644 110.088,193.6535 C121.108,155.4665 125.187,112.0989 128.111,67.869 Z"/>
  </defs>
  <g fill="none" fill-rule="evenodd" transform="translate(73 60)">
    <path fill="#EFF4F7" d="M168.977 56.538C168.977 55.499 168.424 54.54 167.525 54.021 162.094 50.886 143.004 39.864 137.2 36.513 136.852 36.312 136.423 36.312 136.075 36.513 135.727 36.714 135.513 37.085 135.513 37.487 135.513 46.429 135.513 83.472 135.513 91.823 135.513 92.862 136.067 93.821 136.966 94.34 142.397 97.475 161.487 108.497 167.291 111.848 167.639 112.049 168.067 112.049 168.415 111.848 168.763 111.647 168.977 111.276 168.977 110.874 168.977 101.932 168.977 64.889 168.977 56.538zM45.9771 73.548C45.9771 72.51 45.4232 71.55 44.5241 71.031 37.7344 67.111 9.1575 50.612 1.8903 46.416 1.5424 46.216 1.1138 46.216.7659 46.416.418 46.617.2037 46.988.2037 47.39.2037 55.11.2037 83.486.2037 90.702.2037 91.74.7575 92.7 1.6566 93.219 8.4463 97.139 37.0233 113.638 44.2905 117.833 44.6384 118.034 45.067 118.034 45.4149 117.833 45.7628 117.633 45.9771 117.261 45.9771 116.86L45.9771 73.548z"/>
    <path fill="#D1D9E0" d="M19.1475,7.22 C19.1475,7.22 26.6633,4.253 26.7677,4.193 C28.0843,3.433 29.7064,3.433 31.023,4.193 C54.0429,17.483 132.267,62.646 148.031,71.747 C149.752,72.741 150.813,74.578 150.813,76.565 C150.813,93.57 150.813,173.2418 150.813,198.0159 C150.813,199.5362 150.002,200.941 148.685,201.7011 C148.639,201.7274 138.843,205.591 138.843,205.591 L132.444,194.7812 L27.4216,134.1465 C25.7004,133.1528 24.64,131.3162 24.64,129.3286 L24.64,16.312 L19.1475,7.22 Z"/>
    <g transform="translate(19 3.006)">
      <mask id="zero-day-threats@1x-b" fill="#fff">
        <use xlink:href="#zero-day-threats@1x-a"/>
      </mask>
      <polygon fill="#B1BBC9" points="106.606 85.388 161.806 53.518 161.806 231.079 106.606 262.949" mask="url(#zero-day-threats@1x-b)"/>
    </g>
    <path stroke="#05122C" stroke-linecap="round" stroke-linejoin="round" d="M19.1475,7.22 C19.1475,7.22 26.6633,4.253 26.7677,4.193 C28.0843,3.433 29.7064,3.433 31.023,4.193 C54.0429,17.483 132.267,62.646 148.031,71.747 C149.752,72.741 150.813,74.578 150.813,76.565 C150.813,93.57 150.813,173.2418 150.813,198.0159 C150.813,199.5362 150.002,200.941 148.685,201.7011 C148.639,201.7274 138.843,205.591 138.843,205.591 L132.444,194.7812 L27.4216,134.1465 C25.7004,133.1528 24.64,131.3162 24.64,129.3286 L24.64,16.312 L19.1475,7.22 Z"/>
    <path fill="#EFF4F7" d="M141.377,79.833 C141.377,78.087 140.446,76.474 138.933,75.601 C123.815,66.872 42.9527,20.186 20.8125,7.403 C19.6558,6.736 18.2306,6.736 17.0739,7.403 C15.9172,8.071 15.2046,9.306 15.2046,10.641 C15.2046,34.511 15.2046,117.042 15.2046,133.3768 C15.2046,135.123 16.1362,136.7366 17.6485,137.6097 C32.7671,146.3385 113.629,193.0242 135.769,205.8068 C136.926,206.4747 138.351,206.4747 139.508,205.8068 C140.665,205.139 141.377,203.9048 141.377,202.5691 C141.377,178.6989 141.377,96.168 141.377,79.833 Z"/>
    <g transform="translate(15 6.006)">
      <mask id="zero-day-threats@1x-d" fill="#fff">
        <use xlink:href="#zero-day-threats@1x-c"/>
      </mask>
      <path fill="#B1BBC9" d="M119.101,81.67 C119.101,77.794 117.034,74.212 113.677,72.274 C95.036,61.512 33.7554,26.132 15.6134,15.657 C14.5607,15.05 13.2636,15.05 12.2109,15.657 C11.1582,16.265 10.5097,17.389 10.5097,18.604 C10.5097,40.662 10.5097,118.241 10.5097,140.9087 C10.5097,144.7847 12.5775,148.3662 15.9342,150.3042 C34.575,161.0665 95.856,196.4469 113.998,206.9212 C115.05,207.529 116.347,207.529 117.4,206.9212 C118.453,206.3134 119.101,205.1902 119.101,203.9746 C119.101,181.9167 119.101,104.338 119.101,81.67 Z" mask="url(#zero-day-threats@1x-d)"/>
    </g>
    <path stroke="#05122C" stroke-linecap="round" stroke-linejoin="round" d="M141.377,79.833 C141.377,78.087 140.446,76.474 138.933,75.601 C123.815,66.872 42.9527,20.186 20.8125,7.403 C19.6558,6.736 18.2306,6.736 17.0739,7.403 C15.9172,8.071 15.2046,9.306 15.2046,10.641 C15.2046,34.511 15.2046,117.042 15.2046,133.3768 C15.2046,135.123 16.1362,136.7366 17.6485,137.6097 C32.7671,146.3385 113.629,193.0242 135.769,205.8068 C136.926,206.4747 138.351,206.4747 139.508,205.8068 C140.665,205.139 141.377,203.9048 141.377,202.5691 C141.377,178.6989 141.377,96.168 141.377,79.833 Z"/>
    <path fill="#FFF" d="M131.825,85.4 C131.825,81.524 129.757,77.942 126.4,76.004 C107.76,65.242 46.479,29.861 28.337,19.387 C27.2842,18.779 25.9872,18.779 24.9345,19.387 C23.8818,19.995 23.2333,21.118 23.2333,22.334 C23.2333,44.392 23.2333,121.971 23.2333,144.6383 C23.2333,148.5143 25.3011,152.0958 28.6578,154.0338 C47.2985,164.7961 108.579,200.1765 126.721,210.6508 C127.774,211.2586 129.071,211.2586 130.124,210.6508 C131.176,210.043 131.825,208.9197 131.825,207.7041 C131.825,185.6463 131.825,108.067 131.825,85.4 Z"/>
    <g transform="translate(23 18.006)">
      <mask id="zero-day-threats@1x-f" fill="#fff">
        <use xlink:href="#zero-day-threats@1x-e"/>
      </mask>
      <polygon fill="#EFF4F7" points="128.539 61.282 -17.348 -22.946 -17.348 18.03 128.539 102.258" mask="url(#zero-day-threats@1x-f)"/>
      <polygon stroke="#05122C" stroke-linecap="round" stroke-linejoin="round" points="128.539 61.282 -17.348 -22.946 -17.348 18.03 128.539 102.258" mask="url(#zero-day-threats@1x-f)"/>
    </g>
    <path stroke="#01050C" stroke-linecap="round" stroke-linejoin="round" d="M131.825,85.4 C131.825,81.524 129.757,77.942 126.4,76.004 C107.76,65.242 46.479,29.861 28.337,19.387 C27.2842,18.779 25.9872,18.779 24.9345,19.387 C23.8818,19.995 23.2333,21.118 23.2333,22.334 C23.2333,44.392 23.2333,121.971 23.2333,144.6383 C23.2333,148.5143 25.3011,152.0958 28.6578,154.0338 C47.2985,164.7961 108.579,200.1765 126.721,210.6508 C127.774,211.2586 129.071,211.2586 130.124,210.6508 C131.176,210.043 131.825,208.9197 131.825,207.7041 C131.825,185.6463 131.825,108.067 131.825,85.4 Z"/>
    <path fill="#FFF" d="M131.621,86.061 C131.745,81.838 129.407,77.927 125.628,76.038 C106.108,66.278 46.1806,36.318 29.1795,27.818 C28.1647,27.31 26.9639,27.342 25.9774,27.903 C24.9909,28.463 24.3487,29.478 24.2648,30.61 C22.8064,50.282 17.5138,121.679 15.851,144.1098 C15.5431,148.2626 17.6395,152.2253 21.2458,154.3074 C41.0011,165.7131 104.619,202.4429 122.866,212.9777 C123.903,213.5766 125.179,213.5859 126.225,213.0024 C127.271,212.4189 127.933,211.3284 127.968,210.1312 C128.611,188.2875 130.919,109.898 131.621,86.061 Z"/>
    <g transform="translate(15 27.006)">
      <mask id="zero-day-threats@1x-h" fill="#fff">
        <use xlink:href="#zero-day-threats@1x-g"/>
      </mask>
      <polygon fill="#FFF" points="134.568 67.079 -11.319 -17.149 -11.319 23.827 134.568 108.055" mask="url(#zero-day-threats@1x-h)"/>
      <polygon stroke="#05122C" stroke-linecap="round" stroke-linejoin="round" points="134.568 67.079 -11.319 -17.149 -11.319 23.827 134.568 108.055" mask="url(#zero-day-threats@1x-h)"/>
      <polygon fill="#D1D9E0" points="136.539 52.282 -9.348 -31.946 -9.348 9.03 136.539 93.258" mask="url(#zero-day-threats@1x-h)"/>
      <polygon stroke="#05122C" stroke-linecap="round" stroke-linejoin="round" points="136.539 52.282 -9.348 -31.946 -9.348 9.03 136.539 93.258" mask="url(#zero-day-threats@1x-h)"/>
    </g>
    <path stroke="#01050C" stroke-linecap="round" stroke-linejoin="round" d="M131.621,86.061 C131.745,81.838 129.407,77.927 125.628,76.038 C106.108,66.278 46.1806,36.318 29.1795,27.818 C28.1647,27.31 26.9639,27.342 25.9774,27.903 C24.9909,28.463 24.3487,29.478 24.2648,30.61 C22.8064,50.282 17.5138,121.679 15.851,144.1098 C15.5431,148.2626 17.6395,152.2253 21.2458,154.3074 C41.0011,165.7131 104.619,202.4429 122.866,212.9777 C123.903,213.5766 125.179,213.5859 126.225,213.0024 C127.271,212.4189 127.933,211.3284 127.968,210.1312 C128.611,188.2875 130.919,109.898 131.621,86.061 Z"/>
    <path fill="#FFF" d="M128.211,87.035 C128.333,82.897 126.089,79.05 122.428,77.119 C103.575,67.176 45.6698,36.639 29.1077,27.904 C28.1066,27.376 26.9084,27.381 25.9112,27.916 C24.914,28.452 24.2483,29.448 24.1351,30.574 C22.1561,50.274 14.924,122.265 12.6335,145.0652 C12.207,149.3106 14.3086,153.4118 18.0037,155.5452 C37.9541,167.0636 101.257,203.6116 119.451,214.1159 C120.488,214.7148 121.764,214.7242 122.81,214.1406 C123.856,213.5571 124.518,212.4666 124.553,211.2694 C125.198,189.3752 127.515,110.673 128.211,87.035 Z"/>
    <g transform="translate(12 27.006)">
      <mask id="zero-day-threats@1x-j" fill="#fff">
        <use xlink:href="#zero-day-threats@1x-i"/>
      </mask>
      <polygon fill="#FFF" points="134.153 68.217 -11.734 -16.011 -11.734 24.965 134.153 109.193" mask="url(#zero-day-threats@1x-j)"/>
      <polygon stroke="#05122C" stroke-linecap="round" stroke-linejoin="round" points="134.153 68.217 -11.734 -16.011 -11.734 24.965 134.153 109.193" mask="url(#zero-day-threats@1x-j)"/>
      <polygon fill="#EFF4F7" points="136.125 53.42 -9.762 -30.808 -9.762 10.168 136.125 94.396" mask="url(#zero-day-threats@1x-j)"/>
      <polygon stroke="#05122C" stroke-linecap="round" stroke-linejoin="round" points="136.125 53.42 -9.762 -30.808 -9.762 10.168 136.125 94.396" mask="url(#zero-day-threats@1x-j)"/>
    </g>
    <path stroke="#01050C" stroke-linecap="round" stroke-linejoin="round" d="M128.211,87.035 C128.333,82.897 126.089,79.05 122.428,77.119 C103.575,67.176 45.6698,36.639 29.1077,27.904 C28.1066,27.376 26.9084,27.381 25.9112,27.916 C24.914,28.452 24.2483,29.448 24.1351,30.574 C22.1561,50.274 14.924,122.265 12.6335,145.0652 C12.207,149.3106 14.3086,153.4118 18.0037,155.5452 C37.9541,167.0636 101.257,203.6116 119.451,214.1159 C120.488,214.7148 121.764,214.7242 122.81,214.1406 C123.856,213.5571 124.518,212.4666 124.553,211.2694 C125.198,189.3752 127.515,110.673 128.211,87.035 Z"/>
    <path fill="#FFF" d="M126.889,85.888 C127.124,81.755 124.986,77.849 121.379,75.819 C103.084,65.522 47.5292,34.252 31.4419,25.197 C30.4548,24.642 29.2559,24.614 28.244,25.123 C27.2321,25.632 26.5398,26.611 26.3975,27.735 C23.8765,47.635 14.58,121.021 11.6708,143.9855 C11.137,148.199 13.111,152.3364 16.7218,154.5726 C36.0228,166.5252 96.8427,204.1895 114.522,215.1379 C115.542,215.7696 116.82,215.8173 117.884,215.2634 C118.948,214.7095 119.642,213.6359 119.71,212.4379 C120.969,190.2456 125.532,109.804 126.889,85.888 Z"/>
    <g transform="translate(11 24.006)">
      <mask id="zero-day-threats@1x-l" fill="#fff">
        <use xlink:href="#zero-day-threats@1x-k"/>
      </mask>
      <polygon fill="#FFF" points="134.015 70.079 -11.872 -14.149 -11.872 26.827 134.015 111.055" mask="url(#zero-day-threats@1x-l)"/>
      <polygon stroke="#05122C" stroke-linecap="round" stroke-linejoin="round" points="134.015 70.079 -11.872 -14.149 -11.872 26.827 134.015 111.055" mask="url(#zero-day-threats@1x-l)"/>
      <polygon fill="#EFF4F7" points="135.987 55.282 -9.9 -28.946 -9.9 12.03 135.987 96.258" mask="url(#zero-day-threats@1x-l)"/>
      <polygon stroke="#05122C" stroke-linecap="round" stroke-linejoin="round" points="135.987 55.282 -9.9 -28.946 -9.9 12.03 135.987 96.258" mask="url(#zero-day-threats@1x-l)"/>
    </g>
    <path stroke="#01050C" stroke-linecap="round" stroke-linejoin="round" d="M126.889,85.888 C127.124,81.755 124.986,77.849 121.379,75.819 C103.084,65.522 47.5292,34.252 31.4419,25.197 C30.4548,24.642 29.2559,24.614 28.244,25.123 C27.2321,25.632 26.5398,26.611 26.3975,27.735 C23.8765,47.635 14.58,121.021 11.6708,143.9855 C11.137,148.199 13.111,152.3364 16.7218,154.5726 C36.0228,166.5252 96.8427,204.1895 114.522,215.1379 C115.542,215.7696 116.82,215.8173 117.884,215.2634 C118.948,214.7095 119.642,213.6359 119.71,212.4379 C120.969,190.2456 125.532,109.804 126.889,85.888 Z"/>
    <path fill="#FFF" d="M129.111,85.875 C129.383,81.752 127.289,77.832 123.711,75.766 C104.454,64.647 43.1726,29.267 25.6677,19.16 C24.6528,18.575 23.4081,18.552 22.3729,19.101 C21.3378,19.65 20.658,20.693 20.5735,21.862 C17.4998,63.925 12.247,104.533 1.7843,141.6667 C0.4227,146.3902 2.4096,151.4386 6.6254,153.9669 C27.907,166.7393 90.1218,204.0517 106.073,213.6182 C106.976,214.1603 108.08,214.2534 109.061,213.8701 C110.043,213.4868 110.791,212.6704 111.088,211.6595 C122.108,173.4725 126.187,130.1049 129.111,85.875 Z"/>
    <g transform="translate(1 18.006)">
      <mask id="zero-day-threats@1x-n" fill="#fff">
        <use xlink:href="#zero-day-threats@1x-m"/>
      </mask>
      <polygon fill="#EFF4F7" points="146.292 76.079 .405 -8.149 .405 32.827 146.292 117.055" mask="url(#zero-day-threats@1x-n)"/>
      <polygon stroke="#05122C" stroke-linecap="round" stroke-linejoin="round" points="146.292 76.079 .405 -8.149 .405 32.827 146.292 117.055" mask="url(#zero-day-threats@1x-n)"/>
      <polygon fill="#D1D9E0" points="148.263 61.282 2.376 -22.946 2.376 18.03 148.263 102.258" mask="url(#zero-day-threats@1x-n)"/>
      <polygon stroke="#05122C" stroke-linecap="round" stroke-linejoin="round" points="148.263 61.282 2.376 -22.946 2.376 18.03 148.263 102.258" mask="url(#zero-day-threats@1x-n)"/>
    </g>
    <path stroke="#01050C" stroke-linecap="round" stroke-linejoin="round" d="M129.111,85.875 C129.383,81.752 127.289,77.832 123.711,75.766 C104.454,64.647 43.1726,29.267 25.6677,19.16 C24.6528,18.575 23.4081,18.552 22.3729,19.101 C21.3378,19.65 20.658,20.693 20.5735,21.862 C17.4998,63.925 12.247,104.533 1.7843,141.6667 C0.4227,146.3902 2.4096,151.4386 6.6254,153.9669 C27.907,166.7393 90.1218,204.0517 106.073,213.6182 C106.976,214.1603 108.08,214.2534 109.061,213.8701 C110.043,213.4868 110.791,212.6704 111.088,211.6595 C122.108,173.4725 126.187,130.1049 129.111,85.875 Z"/>
    <path fill="#5A6D83" d="M34.8141,29.778 C37.184,31.147 39.108,34.479 39.108,37.216 C39.108,39.952 37.184,41.063 34.8141,39.695 C32.4442,38.327 30.5202,34.994 30.5202,32.258 C30.5202,29.521 32.4442,28.41 34.8141,29.778 Z"/>
    <path stroke="#01050C" stroke-linecap="round" stroke-linejoin="round" d="M34.8141,29.778 C37.184,31.147 39.108,34.479 39.108,37.216 C39.108,39.952 37.184,41.063 34.8141,39.695 C32.4442,38.327 30.5202,34.994 30.5202,32.258 C30.5202,29.521 32.4442,28.41 34.8141,29.778 Z"/>
    <path fill="#FFF" d="M47.9596,13.997 C47.9596,13.997 47.9596,9.741 47.9596,5.427 C47.9596,3.57 46.9753,1.852 45.3733,0.913 C43.7712,-0.026 41.7915,-0.046 40.1713,0.862 C37.9795,2.089 35.6557,3.39 33.6775,4.498 C30.6086,6.216 28.7078,9.459 28.7078,12.977 C28.7078,18.555 28.7078,27.106 28.7078,33.378 C28.7078,35.088 29.5993,36.674 31.0599,37.564 C32.5205,38.453 34.339,38.516 35.858,37.731 C37.207,37.034 38.2952,36.471 38.6021,36.312 C38.6567,36.285 38.6927,36.23 38.6971,36.169 C38.7746,34.541 37.3435,31.939 36.0244,30.679 C36.0132,30.668 35.998,30.663 35.9826,30.664 C35.9672,30.665 35.9529,30.673 35.9434,30.685 C35.943,30.685 35.9425,30.686 35.9421,30.687 C35.6937,31.003 35.2717,31.128 34.8911,30.996 C34.5106,30.865 34.2552,30.507 34.2552,30.104 C34.2552,25.752 34.2552,17.305 34.2552,13.025 C34.2552,11.402 35.1208,9.903 36.5259,9.092 C37.6261,8.457 38.97,7.681 40.1886,6.977 C40.8879,6.573 41.7494,6.574 42.4485,6.978 C43.1476,7.382 43.5778,8.128 43.577,8.936 C43.5757,10.315 43.5745,11.529 43.5745,11.529 L47.9596,13.997 Z"/>
    <path stroke="#05122C" stroke-linecap="round" stroke-linejoin="round" d="M47.9596,13.997 C47.9596,13.997 47.9596,9.741 47.9596,5.427 C47.9596,3.57 46.9753,1.852 45.3733,0.913 C43.7712,-0.026 41.7915,-0.046 40.1713,0.862 C37.9795,2.089 35.6557,3.39 33.6775,4.498 C30.6086,6.216 28.7078,9.459 28.7078,12.977 C28.7078,18.555 28.7078,27.106 28.7078,33.378 C28.7078,35.088 29.5993,36.674 31.0599,37.564 C32.5205,38.453 34.339,38.516 35.858,37.731 C37.207,37.034 38.2952,36.471 38.6021,36.312 C38.6567,36.285 38.6927,36.23 38.6971,36.169 C38.7746,34.541 37.3435,31.939 36.0244,30.679 C36.0132,30.668 35.998,30.663 35.9826,30.664 C35.9672,30.665 35.9529,30.673 35.9434,30.685 C35.943,30.685 35.9425,30.686 35.9421,30.687 C35.6937,31.003 35.2717,31.128 34.8911,30.996 C34.5106,30.865 34.2552,30.507 34.2552,30.104 C34.2552,25.752 34.2552,17.305 34.2552,13.025 C34.2552,11.402 35.1208,9.903 36.5259,9.092 C37.6261,8.457 38.97,7.681 40.1886,6.977 C40.8879,6.573 41.7494,6.574 42.4485,6.978 C43.1476,7.382 43.5778,8.128 43.577,8.936 C43.5757,10.315 43.5745,11.529 43.5745,11.529 L47.9596,13.997 Z"/>
    <path fill="#5A6D83" d="M112.378,74.302 C114.748,75.671 116.672,79.003 116.672,81.74 C116.672,84.476 114.748,85.587 112.378,84.219 C110.009,82.851 108.085,79.518 108.085,76.782 C108.085,74.045 110.009,72.934 112.378,74.302 Z"/>
    <path stroke="#01050C" stroke-linecap="round" stroke-linejoin="round" d="M112.378,74.302 C114.748,75.671 116.672,79.003 116.672,81.74 C116.672,84.476 114.748,85.587 112.378,84.219 C110.009,82.851 108.085,79.518 108.085,76.782 C108.085,74.045 110.009,72.934 112.378,74.302 Z"/>
    <path fill="#FFF" d="M125.524,58.813 L125.524,49.951 C125.524,48.094 124.54,46.376 122.938,45.437 C121.336,44.498 119.356,44.478 117.736,45.386 C115.544,46.613 113.22,47.914 111.242,49.022 C108.173,50.74 106.272,53.983 106.272,57.501 C106.272,63.079 106.272,71.63 106.272,77.902 C106.272,79.612 107.164,81.198 108.624,82.088 C110.085,82.977 111.903,83.04 113.422,82.255 C114.773,81.557 115.862,80.994 116.167,80.836 C116.222,80.808 116.258,80.754 116.262,80.693 C116.37,79.128 115.743,77.744 114.465,76.519 C114.418,76.473 114.348,76.458 114.286,76.48 C114.232,76.499 114.16,76.525 114.073,76.556 C113.557,76.741 112.983,76.663 112.535,76.347 C112.086,76.031 111.82,75.517 111.82,74.969 C111.82,70.732 111.82,61.944 111.82,57.549 C111.82,55.926 112.685,54.427 114.09,53.616 C115.19,52.981 116.534,52.205 117.753,51.501 C118.452,51.097 119.314,51.098 120.013,51.502 C120.712,51.906 121.142,52.652 121.141,53.46 C121.14,54.943 121.139,56.281 121.139,56.281 L125.524,58.813 Z"/>
    <path stroke="#05122C" stroke-linecap="round" stroke-linejoin="round" d="M125.524,58.813 L125.524,49.951 C125.524,48.094 124.54,46.376 122.938,45.437 C121.336,44.498 119.356,44.478 117.736,45.386 C115.544,46.613 113.22,47.914 111.242,49.022 C108.173,50.74 106.272,53.983 106.272,57.501 C106.272,63.079 106.272,71.63 106.272,77.902 C106.272,79.612 107.164,81.198 108.624,82.088 C110.085,82.977 111.903,83.04 113.422,82.255 C114.773,81.557 115.862,80.994 116.167,80.836 C116.222,80.808 116.258,80.754 116.262,80.693 C116.37,79.128 115.743,77.744 114.465,76.519 C114.418,76.473 114.348,76.458 114.286,76.48 C114.232,76.499 114.16,76.525 114.073,76.556 C113.557,76.741 112.983,76.663 112.535,76.347 C112.086,76.031 111.82,75.517 111.82,74.969 C111.82,70.732 111.82,61.944 111.82,57.549 C111.82,55.926 112.685,54.427 114.09,53.616 C115.19,52.981 116.534,52.205 117.753,51.501 C118.452,51.097 119.314,51.098 120.013,51.502 C120.712,51.906 121.142,52.652 121.141,53.46 C121.14,54.943 121.139,56.281 121.139,56.281 L125.524,58.813 Z"/>
    <line x1="24.871" x2="50.675" y1="55.585" y2="70.483" stroke="#5A6D83" stroke-linecap="round" stroke-linejoin="round" stroke-width="2"/>
    <line x1="32.041" x2="50.691" y1="148.015" y2="158.783" stroke="#D1D9E0" stroke-linecap="round" stroke-linejoin="round" stroke-width="2"/>
    <line x1="60.167" x2="66.462" y1="164.254" y2="167.888" stroke="#D1D9E0" stroke-linecap="round" stroke-linejoin="round" stroke-width="2"/>
    <line x1="18.576" x2="23.09" y1="103.999" y2="106.605" stroke="#D1D9E0" stroke-linecap="round" stroke-linejoin="round" stroke-width="2"/>
    <line x1="39.295" x2="48.461" y1="87.011" y2="92.302" stroke="#D1D9E0" stroke-linecap="round" stroke-linejoin="round" stroke-width="2"/>
    <line x1="96.3" x2="116.355" y1="121.556" y2="133.134" stroke="#D1D9E0" stroke-linecap="round" stroke-linejoin="round" stroke-width="2"/>
    <line x1="99.19" x2="108.079" y1="132.33" y2="137.462" stroke="#D1D9E0" stroke-linecap="round" stroke-linejoin="round" stroke-width="2"/>
    <line x1="99.995" x2="114.78" y1="140.564" y2="149.1" stroke="#D1D9E0" stroke-linecap="round" stroke-linejoin="round" stroke-width="2"/>
    <line x1="30.976" x2="56.78" y1="156.687" y2="171.584" stroke="#D1D9E0" stroke-linecap="round" stroke-linejoin="round" stroke-width="2"/>
    <line x1="56.414" x2="68.243" y1="73.796" y2="80.625" stroke="#5A6D83" stroke-linecap="round" stroke-linejoin="round" stroke-width="2"/>
    <line x1="64.491" x2="76.32" y1="175.997" y2="182.827" stroke="#D1D9E0" stroke-linecap="round" stroke-linejoin="round" stroke-width="2"/>
    <line x1="80.072" x2="104.11" y1="87.455" y2="101.333" stroke="#5A6D83" stroke-linecap="round" stroke-linejoin="round" stroke-width="2"/>
    <path fill="#FFF" d="M66.7576,102.866 C53.9283,95.459 43.5126,101.473 43.5126,116.286 C43.5126,131.1004 53.9283,149.1409 66.7576,156.5479 C79.5868,163.9548 90.0025,157.9413 90.0025,143.1274 C90.0025,128.3135 79.5868,110.273 66.7576,102.866 Z"/>
    <path stroke="#E01A33" stroke-linejoin="round" stroke-width="2" d="M66.7576,102.866 C53.9283,95.459 43.5126,101.473 43.5126,116.286 C43.5126,131.1004 53.9283,149.1409 66.7576,156.5479 C79.5868,163.9548 90.0025,157.9413 90.0025,143.1274 C90.0025,128.3135 79.5868,110.273 66.7576,102.866 Z"/>
    <path fill="#E01A33" d="M60.54 129.6851C60.7365 129.4076 60.7423 129.0379 60.5547 128.7543 59.2815 126.825 54.3226 119.329 52.2704 116.227 52.0954 115.962 51.7861 115.818 51.4706 115.855 51.155 115.891 50.8869 116.102 50.7772 116.4 49.4124 120.851 49.8815 127.357 54.1822 131.8678 56.0653 133.843 59.0571 131.7148 60.54 129.6851zM66.0385 132.9069C65.8283 132.9252 65.6856 133.0863 65.6514 133.3437 65.6173 133.6011 65.6955 133.9262 65.8636 134.225 68.4058 138.4614 72.6515 141.3883 76.2244 141.0691 79.7973 140.75 81.5634 137.2862 80.7404 132.8904 80.6745 132.5896 80.5077 132.2801 80.288 132.0511 80.0682 131.822 79.82 131.6989 79.6149 131.7172 76.9518 131.9321 68.693 132.6698 66.0385 132.9069z"/>
    <line x1="45.675" x2="75.253" y1="46.798" y2="63.875" stroke="#B1BBC9" stroke-linecap="round" stroke-linejoin="round" stroke-width="5"/>
    <line x1="86.177" x2="94.063" y1="70.234" y2="74.735" stroke="#B1BBC9" stroke-linecap="round" stroke-linejoin="round" stroke-width="5"/>
    <path stroke="#B1BBC9" stroke-linecap="round" stroke-linejoin="round" d="M33.8873 83.266C34.1393 82.04 33.5778 80.79 32.4938 80.164 30.0465 78.751 25.7451 76.268 23.564 75.009 23.2511 74.828 22.8705 74.809 22.541 74.957 22.2115 75.105 21.9731 75.402 21.9004 75.756 21.2732 78.808 19.8644 85.663 19.1571 89.104 18.9051 90.33 19.4665 91.58 20.5506 92.206 22.9979 93.619 27.2993 96.102 29.4803 97.361 29.7932 97.542 30.1738 97.561 30.5034 97.413 30.8329 97.265 31.0712 96.968 31.1439 96.614 31.7711 93.562 33.18 86.707 33.8873 83.266zM105.881 170.3644C106.135 169.1373 105.574 167.8855 104.488 167.2589 101.812 165.7135 96.8714 162.8612 94.4937 161.4885 94.1811 161.308 93.8008 161.2886 93.4714 161.4363 93.142 161.584 92.9036 161.8809 92.8304 162.2344 92.0141 166.1793 89.8311 176.7283 88.9044 181.2062 88.6505 182.4334 89.2119 183.6852 90.2971 184.3117 92.9738 185.8571 97.9141 188.7094 100.292 190.0822 100.604 190.2627 100.985 190.2821 101.314 190.1344 101.644 189.9867 101.882 189.6898 101.955 189.3363 102.771 185.3913 104.954 174.8423 105.881 170.3644z"/>
    <path fill="#EFF4F7" d="M189.463 139.4946C189.463 138.4564 188.909 137.497 188.01 136.9779 184.749 135.0956 176.866 130.544 173.396 128.5409 173.048 128.3401 172.62 128.3401 172.272 128.5409 171.924 128.7418 171.71 129.113 171.71 129.5147 171.71 135.1432 171.71 151.3652 171.71 156.6383 171.71 157.6765 172.264 158.6359 173.163 159.155 176.423 161.0373 184.307 165.5889 187.776 167.592 188.124 167.7928 188.552 167.7928 188.9 167.592 189.248 167.3911 189.463 167.0199 189.463 166.6182 189.463 160.9897 189.463 144.7677 189.463 139.4946zM39.8849 116.415C40.1796 115.167 39.6206 113.872 38.5096 113.231 36.0377 111.804 31.747 109.327 29.5955 108.084 29.2876 107.907 28.9138 107.885 28.5875 108.026 28.2611 108.167 28.0206 108.454 27.939 108.8 27.2246 111.827 25.5882 118.761 24.7621 122.261 24.4675 123.51 25.0264 124.804 26.1374 125.445 28.6093 126.872 32.9 129.3497 35.0515 130.5919 35.3594 130.7696 35.7332 130.7913 36.0596 130.6503 36.3859 130.5094 36.6264 130.2224 36.7081 129.8764 37.4225 126.849 39.0589 119.915 39.8849 116.415z"/>
    <path stroke="#B1BBC9" stroke-linecap="round" stroke-linejoin="round" d="M25.842,134.5471 C26.175,133.28 25.6191,131.9467 24.4845,131.2917 C22.0759,129.9011 18.0183,127.558 15.9939,126.39 C15.697,126.218 15.338,126.192 15.019,126.317 C14.7001,126.443 14.456,126.708 14.3561,127.036 C13.397,130.1857 11.0087,138.0295 9.835,141.8838 C9.4413,143.1771 9.9913,144.571 11.162,145.2469 C13.7124,146.7194 18.0483,149.2228 20.1905,150.4595 C20.494,150.6348 20.8619,150.6584 21.1854,150.5235 C21.509,150.3886 21.751,150.1106 21.8401,149.7716 C22.7005,146.4985 24.8228,138.4245 25.842,134.5471 Z"/>
    <path fill="#3F6C9F" fill-opacity=".2" d="M47.9596 13.971L40.0738 18.524 39.5908 36.553C39.0102 33.677 38.5081 31.796 35.6888 30.283L35.6888 15.992 43.5746 11.439 47.9596 13.971zM124.284 58.037L116.398 62.59 115.915 80.619C115.335 77.743 114.833 75.862 112.013 74.35L112.013 60.058 119.899 55.506 124.284 58.037z"/>
  </g>
</svg>
