<svg xmlns="http://www.w3.org/2000/svg" id="Layer_1" data-name="Layer 1" version="1.1" viewBox="0 0 665 199.666"><defs id="defs4"><style id="style2">.cls-1{fill:#fff}.cls-2{fill:none}</style></defs><g id="Redscan" transform="translate(-88.1 -87.898)"><g id="g20"><path class="cls-1" d="M88.1 87.9h42.5a30.73 30.73 0 0121.2 8.3 26.43 26.43 0 018.6 19.9 25.94 25.94 0 01-8.6 19.6 33.17 33.17 0 01-11 6.7l20.9 33.7h-19.6L122 143.8h-15.4v32.3H88.1zm18.5 15.4v25.4h24a13.65 13.65 0 009.5-3.9 11.57 11.57 0 003.7-8.7 11.41 11.41 0 00-3.7-8.9 13.64 13.64 0 00-9.5-3.9z" id="path6" fill="#fff"/><path class="cls-1" id="polygon8" fill="#fff" d="M202 103.9v18.4h33.5v15.9H202v21.9h51.5v16h-69.6V87.9h68.7v16z"/><path class="cls-1" d="M313 87.9a48.06 48.06 0 0133.1 12.8 42 42 0 0113.7 31 42.7 42.7 0 01-13.7 31.4 49.49 49.49 0 01-33.1 12.8h-32.8v-88zm0 72.8c16.7 0 30-12.8 30-28.9 0-15.7-13.3-28.5-30-28.5h-14.7v57.4z" id="path10" fill="#fff"/><path class="cls-1" d="M450.8 112.2c-12.7-4.5-24.1-7.7-34.2-8.1a39.38 39.38 0 00-17.8 4.1 9.2 9.2 0 00-4.7 7.4 7.26 7.26 0 00.9 3.9 7.85 7.85 0 004.4 2.5c6.8 1.6 13.4 1.5 20.9 1.9h6.4c8 .4 15.8 1.6 22.2 5.1 7.5 4.5 13 11.6 12.1 22.8-2.2 20.1-18.2 27.3-38 27.3-18.9 0-34.7-5.1-50.9-12.8l6.8-15.3c13.8 6 26.4 10.2 41 10.8a34.83 34.83 0 0011.7-.9c4.8-1.4 9.6-3.9 10.3-10.3.4-3.9-1.5-6-3.5-7-3.1-1.9-7.8-2.5-13-2.9h-5.8c-5.7-.4-11.5-.6-17.8-1.6-7.9-1-16.2-2.9-21.4-9.3a18.32 18.32 0 01-4.8-15.1c.4-9.5 6.1-16.3 13.7-20.5 8.2-4.9 19-6.4 28-6a73.25 73.25 0 0117.8 2.5 157.5 157.5 0 0121.2 6.8z" id="path12" fill="#fff"/><path class="cls-1" d="M560 166.4c-9.3 8.9-21.6 13.2-35.5 13.2-26.4 0-48.1-20.3-48.1-45.1 0-24.5 21.7-46.5 48.1-46.5a52.14 52.14 0 0135.5 14.5l-12.3 10.3c-6.3-4.4-13.7-8.7-23.2-8.7-17.1 0-30.9 14.4-30.9 30.4 0 16 13.8 29 30.9 29 9.2 0 17-2.9 23.2-8.6z" id="path14" fill="#fff"/><path class="cls-1" d="M601.7 89.4h23.8l33.6 88.1h-19.7l-7.6-21.6H598l-7.6 21.6h-19.3zm24.1 52.1L614 106.8l-11.4 34.7z" id="path16" fill="#fff"/><path class="cls-1" id="polygon18" fill="#fff" d="M693 89.4h-19.6v88.2h18.5v-61.9l42.8 61.9h18.4V89.4h-18.4v60z"/></g><g id="g58"><g id="g36"><path class="cls-1" d="M148.2 286.4v-56.7h11.3v24.5l23-24.5h14l-26.3 27 28.9 29.7h-15.3l-24.3-25.8v25.8z" id="path22" fill="#fff"/><path class="cls-1" d="M325.1 286.4v-56.7h11.4V277h25.6v9.3h-37z" id="path24" fill="#fff"/><path class="cls-1" d="M371.5 286.4v-56.7h11.4V277h25.6v9.3h-37z" id="path26" fill="#fff"/><path class="cls-1" d="M206.2 286.4v-56.7h18.6a25.73 25.73 0 0111.2 2.2 17.05 17.05 0 017.2 6.3 18.09 18.09 0 012.5 9.8 16.2 16.2 0 01-2.6 9.1 19 19 0 01-6.7 6.2l14.9 23h-12.7l-11.9-20.1H217v20.1h-10.8zm17.2-48.1H217v19.4h6c7.8 0 11.7-3.2 11.7-9.7 0-6.5-3.8-9.7-11.3-9.7z" id="path28" fill="#fff"/><path class="cls-1" d="M256 248.2l45.6-15.8a30.19 30.19 0 00-45.6 15.8z" id="path30" fill="#fff"/><path class="cls-1" d="M254.6 254.9l36.9 31.9s-15.3 4.3-27.6-7.5a30.14 30.14 0 01-9.3-24.4z" id="path32" fill="#fff"/><path class="cls-1" d="M306.4 236.4l-9.3 48.6a30.17 30.17 0 009.3-48.6z" id="path34" fill="#fff"/></g><path class="cls-1" d="M88.1 286l15.7-38.6h5l15.7 38.6h-4.9l-4.6-11.7H97.4L92.8 286zm10.8-15.5h14.6l-7.3-18.7z" id="path38" fill="#fff"/><g id="g56"><path class="cls-1" d="M434.7 286v-38.6h13.5c3.6 0 6.5.9 8.5 2.6a8.7 8.7 0 013.1 7.2 8.36 8.36 0 01-1.6 5.1 8.46 8.46 0 01-4.4 3.2 9.64 9.64 0 015.8 3.3 9.5 9.5 0 012.1 6.2 10.22 10.22 0 01-3.4 8.2c-2.3 2-5.5 2.9-9.6 2.9h-14zm12.9-34.9h-8.5V264h8.3c2.7 0 4.7-.6 6-1.7 1.3-1.1 1.9-2.8 1.9-5.2a5.35 5.35 0 00-2-4.5 9.22 9.22 0 00-5.7-1.5zm.7 16.5h-9.2v14.6h9.9a8.92 8.92 0 006.1-1.9 6.67 6.67 0 002.1-5.4c0-4.8-3-7.3-8.9-7.3z" id="path40" fill="#fff"/><path class="cls-1" d="M487.8 286.8c-5.1 0-9-1.5-11.9-4.4-2.9-2.9-4.2-7-4.2-12.3v-22.8h4.6v22.4c0 4.2 1 7.5 3 9.6 2 2.1 4.9 3.3 8.7 3.3 3.8 0 6.7-1.1 8.7-3.3 2-2.2 3-5.4 3-9.6v-22.4h4.6v22.8c0 5.3-1.4 9.3-4.3 12.3s-7 4.4-12.2 4.4z" id="path42" fill="#fff"/><path class="cls-1" d="M526.7 286.8a23.51 23.51 0 01-4.5-.4 27 27 0 01-4.3-1.1 19.16 19.16 0 01-3.5-1.6l.6-4.2a22 22 0 005.6 2.4 21.72 21.72 0 005.9.9 11.64 11.64 0 006.8-1.8 5.78 5.78 0 002.5-5 5.94 5.94 0 00-.8-3.1 6.76 6.76 0 00-2.8-2.3 31.13 31.13 0 00-5.5-2.2 33.24 33.24 0 01-6.9-2.9 9.33 9.33 0 01-3.6-3.5 10 10 0 01-1.1-4.8 9.68 9.68 0 011.6-5.6 11.35 11.35 0 014.4-3.7 15.41 15.41 0 016.7-1.3 22.24 22.24 0 015.7.7 20.21 20.21 0 015.2 2.1l-.8 4a19.58 19.58 0 00-4.9-2.1 19.11 19.11 0 00-5.2-.7 10 10 0 00-6.1 1.7 5.3 5.3 0 00-2.2 4.6 5.2 5.2 0 00.7 2.9 6.91 6.91 0 002.5 2.2 27.83 27.83 0 005 2.1 41.57 41.57 0 017.4 3.2 10.75 10.75 0 013.9 3.7 9.24 9.24 0 011.2 4.8 10.49 10.49 0 01-1.7 5.9 10.66 10.66 0 01-4.7 3.9 20.17 20.17 0 01-7.1 1.2z" id="path44" fill="#fff"/><path class="cls-1" d="M551.6 286v-38.6h4.6V286z" id="path46" fill="#fff"/><path class="cls-1" d="M568.4 286v-38.6h4.4l24.4 32.1v-32.1h4.2V286H597l-24.4-32.1V286z" id="path48" fill="#fff"/><path class="cls-1" d="M613.6 286v-38.6h23.8v3.9h-19.2v12.9h17.2v3.9h-17.2v14h20v3.9z" id="path50" fill="#fff"/><path class="cls-1" d="M659.6 286.8a23.51 23.51 0 01-4.5-.4 27 27 0 01-4.3-1.1 19.16 19.16 0 01-3.5-1.6l.6-4.2a22 22 0 005.6 2.4 21.72 21.72 0 005.9.9 11.64 11.64 0 006.8-1.8 5.78 5.78 0 002.5-5 5.94 5.94 0 00-.8-3.1 6.76 6.76 0 00-2.8-2.3 31.13 31.13 0 00-5.5-2.2 33.24 33.24 0 01-6.9-2.9 9.33 9.33 0 01-3.6-3.5 10 10 0 01-1.1-4.8 9.68 9.68 0 011.6-5.6 11.35 11.35 0 014.4-3.7 15.41 15.41 0 016.7-1.3 22.24 22.24 0 015.7.7 20.21 20.21 0 015.2 2.1l-.8 4a19.58 19.58 0 00-4.9-2.1 19.11 19.11 0 00-5.2-.7 10 10 0 00-6.1 1.7 5.3 5.3 0 00-2.2 4.6 5.2 5.2 0 00.7 2.9 6.91 6.91 0 002.5 2.2 27.83 27.83 0 005 2.1 41.57 41.57 0 017.4 3.2 10.75 10.75 0 013.9 3.7 9.24 9.24 0 011.2 4.8 10.49 10.49 0 01-1.7 5.9 10.66 10.66 0 01-4.7 3.9 19.75 19.75 0 01-7.1 1.2z" id="path52" fill="#fff"/><path class="cls-1" d="M694.5 286.8a23.51 23.51 0 01-4.5-.4 27 27 0 01-4.3-1.1 19.16 19.16 0 01-3.5-1.6l.6-4.2a22 22 0 005.6 2.4 21.72 21.72 0 005.9.9 11.64 11.64 0 006.8-1.8 5.78 5.78 0 002.5-5 5.94 5.94 0 00-.8-3.1 6.76 6.76 0 00-2.8-2.3 31.13 31.13 0 00-5.5-2.2 33.24 33.24 0 01-6.9-2.9 9.33 9.33 0 01-3.6-3.5 10 10 0 01-1.1-4.8 9.68 9.68 0 011.6-5.6 11.35 11.35 0 014.4-3.7 15.41 15.41 0 016.7-1.3 22.24 22.24 0 015.7.7 20.21 20.21 0 015.2 2.1l-.8 4a19.58 19.58 0 00-4.9-2.1 19.11 19.11 0 00-5.2-.7 10 10 0 00-6.1 1.7 5.3 5.3 0 00-2.2 4.6 5.2 5.2 0 00.7 2.9 6.91 6.91 0 002.5 2.2 27.83 27.83 0 005 2.1 41.57 41.57 0 017.4 3.2 10.75 10.75 0 013.9 3.7 9.24 9.24 0 011.2 4.8 10.49 10.49 0 01-1.7 5.9 10.66 10.66 0 01-4.7 3.9 20.17 20.17 0 01-7.1 1.2z" id="path54" fill="#fff"/></g></g></g><g id="R_Spacing" data-name="R Spacing" transform="translate(-88.1 -87.898)"><path class="cls-2" d="M132.7 286.4h42.5a30.73 30.73 0 0121.2 8.3 26.43 26.43 0 018.6 19.9 25.94 25.94 0 01-8.6 19.6 33.17 33.17 0 01-11 6.7l20.9 33.7h-19.6l-20.1-32.3h-15.4v32.3h-18.5zm18.5 15.3v25.4h24a13.65 13.65 0 009.5-3.9 11.57 11.57 0 003.7-8.7 11.41 11.41 0 00-3.7-8.9 13.64 13.64 0 00-9.5-3.9z" id="path61" fill="none"/><path class="cls-2" d="M181.9 0h42.5a30.73 30.73 0 0121.2 8.3 26.43 26.43 0 018.6 19.9 25.94 25.94 0 01-8.6 19.6 33.17 33.17 0 01-11 6.7l20.9 33.7h-19.6l-20.1-32.3h-15.4v32.3h-18.5zm18.5 15.3v25.4h24a13.65 13.65 0 009.5-3.9 11.57 11.57 0 003.7-8.7 11.41 11.41 0 00-3.7-8.9 13.64 13.64 0 00-9.5-3.9z" id="path63" fill="none"/><path class="cls-2" d="M0 182.4v-42.5a30.73 30.73 0 018.3-21.2 26.43 26.43 0 0119.9-8.6 25.94 25.94 0 0119.6 8.6 33.17 33.17 0 016.7 11l33.7-20.9v19.6l-32.3 20.1v15.4h32.3v18.5zm15.3-18.5h25.4v-24a13.65 13.65 0 00-3.9-9.5 11.57 11.57 0 00-8.7-3.7 11.41 11.41 0 00-8.9 3.7 13.64 13.64 0 00-3.9 9.5z" id="path65" fill="none"/><path class="cls-2" d="M753.1 174.1v-42.5a30.73 30.73 0 018.3-21.2 26.43 26.43 0 0119.9-8.6 25.94 25.94 0 0119.6 8.6 33.17 33.17 0 016.7 11l33.7-20.9v19.6L809 140.3v15.4h32.3v18.5h-88.2zm15.4-18.4h25.4v-24a13.65 13.65 0 00-3.9-9.5 11.57 11.57 0 00-8.7-3.7 11.41 11.41 0 00-8.9 3.7 13.64 13.64 0 00-3.9 9.5z" id="path67" fill="none"/></g></svg>