<svg xmlns="http://www.w3.org/2000/svg" height="117.053" width="121"><defs><clipPath id="a" clipPathUnits="userSpaceOnUse"><path d="M0 205.263h596.526V0H0z"/></clipPath></defs><g clip-path="url(#a)" transform="matrix(1.33333 0 0 -1.33333 -55.865 203.554)"><path d="M115.949 139.953l3.164-16.939c2.632-.05 4.748-2.123 4.748-4.675 0-1.525-.751-2.87-1.917-3.728l7.77-15.417c.289.056.586.085.892.085.454 0 .883-.085 1.294-.203a42.851 42.851 0 011.097 9.585c0 13.03-5.865 24.73-15.18 32.79a4.54 4.54 0 00-1.868-1.498m-33.073 2.103c.673 1.805 2.46 3.1 4.556 3.1 2.102 0 3.885-1.295 4.56-3.1l17.59 2.491c.106.78.428 1.483.893 2.075-6.757 3.836-14.624 6.044-23.025 6.044-8.607 0-16.429-2.2-23.077-5.96a4.341 4.341 0 00.952-2.164zM110.63 85.48l15.568 8.315a4.212 4.212 0 00-.143 1.084c0 1.47.744 2.766 1.89 3.568L120.21 113.8a5.225 5.225 0 00-1.198-.147c-.183 0-.366.013-.543.031l-9.143-27.163c.496-.27.94-.62 1.303-1.04M45.146 99.198l7.778 15.415c-1.167.858-1.926 2.207-1.926 3.733 0 2.56 2.12 4.634 4.759 4.681l3.157 16.945a4.567 4.567 0 00-1.886 1.551c-9.44-8.207-15.13-20.116-15.13-32.86 0-3.294.388-6.498 1.099-9.588a4.53 4.53 0 001.289.203c.299 0 .583-.029.86-.08m10.7 14.465c-.409 0-.809.05-1.184.147L46.92 98.463c1.162-.798 1.921-2.105 1.921-3.584 0-.382-.053-.751-.152-1.108l15.467-8.285c.366.418.811.77 1.31 1.04l-9.082 27.166a5.276 5.276 0 00-.538-.03m46.344-30.284a4.572 4.572 0 001.173 2.219L89.3 104.17a4.621 4.621 0 00-1.848-.382c-.63 0-1.224.123-1.769.35L71.441 85.574a4.57 4.57 0 001.151-2.196zm-19.165 55.148a4.548 4.548 0 00-.427 1.685l-17.425 2.469c-.575-1.803-2.306-3.115-4.36-3.115-.004 0-.006.004-.013.004l-3.144-16.876a4.951 4.951 0 001.5-.925zm44.032-46.399l-15.49-8.276c.142-.442.223-.916.223-1.405 0-2.588-2.172-4.686-4.853-4.686-1.037 0-1.998.32-2.789.858L91.341 66.93a4.327 4.327 0 00.646-2.053c16.583 1.586 30.545 11.77 37.065 25.869a4.576 4.576 0 00-1.995 1.38M102.19 81.513H72.592a4.498 4.498 0 00-.633-1.53l12.904-11.704a4.632 4.632 0 002.58.782c.96 0 1.848-.288 2.58-.775l12.804 11.685c-.3.467-.523.986-.637 1.542m-19.292 26.678c0 .156.009.313.025.47l-22.891 7.328a4.794 4.794 0 00-1.815-1.725l9.079-27.163a4.978 4.978 0 002.598-.418l14.21 18.53a4.285 4.285 0 00-1.206 2.978m8.472 2.234l22.837 7.322a4.82 4.82 0 00-.045.59c0 .683.157 1.334.432 1.919L90.71 137.02a4.907 4.907 0 00-2.308-1.141l.01-23.392a4.537 4.537 0 002.957-2.062m23.452 5.557l-22.842-7.322a3.69 3.69 0 00.029-.469c0-1.12-.438-2.143-1.155-2.918l14.059-18.576a4.948 4.948 0 002.578.402l9.143 27.154a4.831 4.831 0 00-1.812 1.73m-54.125 2.364c0-.2-.018-.4-.042-.597l22.881-7.326a4.539 4.539 0 002.952 2.065l-.01 23.386a4.886 4.886 0 00-2.316 1.144l-23.89-16.764a4.523 4.523 0 00.425-1.908m9.944-39.723a4.932 4.932 0 00-2.802-.862c-2.677 0-4.848 2.095-4.848 4.685 0 .489.078.965.223 1.412l-15.39 8.249a4.59 4.59 0 00-1.977-1.363c6.515-14.098 20.475-24.28 37.061-25.87.04.747.265 1.444.64 2.048zm46.573 44.06l-3.148 16.884c-2.045.012-3.765 1.321-4.328 3.12l-17.468-2.477a4.47 4.47 0 00-.425-1.686l23.874-16.757a4.82 4.82 0 001.495.917" fill="#e51e2d"/></g></svg>