<?xml version="1.0" standalone="no"?>
<!DOCTYPE svg PUBLIC "-//W3C//DTD SVG 20010904//EN"
 "http://www.w3.org/TR/2001/REC-SVG-20010904/DTD/svg10.dtd">
<svg version="1.0" xmlns="http://www.w3.org/2000/svg"
 width="700.000000pt" height="700.000000pt" viewBox="0 0 700.000000 700.000000"
 preserveAspectRatio="xMidYMid meet">
<metadata>
Created by potrace 1.11, written by Peter Selinger 2001-2013
</metadata>
<g transform="translate(0.000000,700.000000) scale(0.100000,-0.100000)"
fill="#000000" stroke="none">
<path d="M3299 6996 c-2 -2 -43 -6 -90 -10 -78 -5 -261 -29 -315 -40 -12 -2
-38 -7 -59 -10 -20 -4 -40 -8 -44 -10 -3 -2 -24 -7 -46 -10 -56 -9 -281 -69
-395 -106 -107 -34 -297 -114 -380 -159 -30 -17 -70 -37 -88 -45 -40 -19 -212
-123 -312 -189 -280 -187 -577 -458 -781 -712 -100 -126 -239 -318 -239 -331
0 -3 -15 -29 -33 -57 -66 -102 -170 -302 -222 -427 -15 -36 -33 -78 -40 -95
-7 -16 -18 -43 -23 -60 -6 -16 -22 -60 -35 -96 l-25 -66 72 22 c39 13 82 28
96 34 22 9 153 55 695 241 61 21 207 72 325 113 118 41 251 87 295 102 44 14
89 30 100 35 20 9 107 39 490 170 116 40 219 76 230 80 17 7 201 71 355 123
25 9 137 48 250 87 113 40 225 79 250 87 25 8 54 18 65 23 11 5 94 34 185 65
91 31 255 88 365 126 110 39 232 81 270 94 39 13 149 51 245 85 96 34 193 67
215 75 22 7 146 50 275 95 129 45 293 102 365 127 71 24 131 46 133 48 15 14
-349 221 -533 302 -165 73 -500 182 -635 207 -14 2 -45 9 -70 15 -25 5 -76 15
-115 21 -38 6 -81 13 -95 15 -14 2 -50 7 -80 10 -30 4 -73 9 -95 12 -46 5
-521 13 -526 9z"/>
<path d="M6006 5914 c-4 -16 -9 -42 -12 -59 -4 -24 -42 -219 -60 -310 -2 -10
-6 -37 -10 -59 -3 -22 -7 -43 -9 -46 -2 -4 -7 -29 -11 -56 -3 -27 -7 -51 -9
-54 -3 -4 -58 -295 -71 -370 -2 -14 -7 -36 -9 -50 -3 -14 -7 -36 -10 -50 -6
-32 -56 -288 -61 -315 -2 -11 -11 -58 -20 -105 -17 -90 -18 -94 -35 -180 -5
-30 -12 -66 -15 -80 -2 -14 -9 -47 -14 -75 -16 -81 -19 -97 -26 -139 -3 -22
-7 -43 -9 -46 -2 -3 -6 -23 -9 -45 -7 -44 -32 -176 -46 -245 -6 -25 -12 -61
-15 -80 -3 -19 -8 -42 -10 -50 -2 -8 -7 -31 -10 -50 -8 -49 -33 -178 -55 -290
-11 -52 -29 -147 -41 -210 -11 -63 -23 -124 -25 -135 -10 -57 -57 -301 -88
-462 -20 -100 -37 -193 -40 -207 -3 -15 -16 -86 -30 -159 -14 -73 -28 -145
-30 -162 -3 -16 -10 -55 -16 -85 -6 -30 -13 -66 -16 -80 -3 -14 -11 -56 -19
-95 -8 -38 -16 -83 -19 -100 -20 -106 -33 -174 -41 -215 -3 -14 -8 -41 -11
-60 -3 -19 -7 -42 -9 -50 -2 -8 -7 -31 -10 -50 -3 -19 -10 -53 -15 -75 -5 -22
-12 -56 -15 -75 -3 -19 -8 -46 -10 -60 -3 -14 -9 -50 -15 -80 -6 -30 -13 -66
-16 -80 -2 -14 -13 -70 -24 -125 -11 -55 -22 -113 -25 -130 -9 -51 -16 -89
-25 -128 -4 -20 -5 -37 -1 -37 15 0 245 118 336 173 171 102 381 254 510 367
64 56 317 310 369 370 145 168 301 392 410 590 39 70 146 287 146 296 0 3 11
29 24 57 34 76 111 301 141 414 14 54 32 121 40 148 8 28 17 67 20 89 3 21 7
41 9 45 2 3 6 29 10 56 3 28 8 59 10 71 7 35 17 118 25 216 8 96 7 563 -2 608
-3 14 -8 59 -12 100 -9 97 -50 329 -80 449 -33 133 -107 367 -134 426 -5 11
-31 71 -57 132 -94 226 -272 525 -440 739 -72 92 -111 139 -217 258 l-35 39
-6 -29z"/>
<path d="M7 3753 c-6 -46 -1 -526 6 -568 3 -16 8 -57 12 -90 11 -102 21 -167
40 -265 9 -41 17 -84 19 -95 17 -84 91 -342 115 -400 5 -11 26 -65 46 -120
124 -327 363 -729 592 -995 12 -14 31 -36 43 -50 91 -106 296 -297 475 -443
255 -208 672 -434 995 -541 173 -57 404 -115 515 -131 22 -3 49 -8 61 -10 11
-2 45 -7 75 -10 30 -4 60 -8 67 -10 56 -19 566 -26 742 -12 93 8 212 23 254
32 12 2 38 7 58 10 44 6 127 23 148 31 13 5 12 8 -4 19 -10 8 -35 29 -55 47
-33 31 -218 191 -286 248 -16 14 -44 39 -62 55 -18 17 -39 35 -46 40 -22 18
-232 199 -237 205 -3 3 -54 48 -115 100 -60 52 -112 97 -115 100 -3 3 -34 30
-70 60 -36 30 -67 57 -70 60 -3 3 -54 48 -115 100 -60 52 -112 97 -115 100 -3
3 -36 32 -75 65 -38 33 -72 62 -75 65 -3 3 -93 82 -200 174 -107 93 -222 192
-255 221 -78 67 -373 323 -449 389 -33 28 -98 85 -146 126 -47 41 -115 100
-150 130 -36 30 -74 64 -85 75 -12 11 -59 52 -106 91 -46 39 -95 82 -109 94
-14 12 -49 43 -79 68 -30 26 -59 52 -65 57 -20 18 -226 197 -416 360 -102 88
-187 162 -190 165 -3 3 -54 48 -115 100 -146 126 -166 143 -179 155 -6 6 -40
35 -75 65 -36 30 -72 62 -81 70 -122 110 -117 107 -123 63z"/>
</g>
</svg>
